<svg width="64" height="64" viewBox="0 0 64 64" fill="none" xmlns="http://www.w3.org/2000/svg">
<g clip-path="url(#clip0_808_24323)">
<ellipse cx="31.2208" cy="41.0539" rx="27.5167" ry="3.70417" fill="white"/>
<path fill-rule="evenodd" clip-rule="evenodd" d="M58.3917 41.529C61.623 40.7831 63.5 39.8931 63.5 38.9373C63.5 36.307 49.285 34.1748 31.75 34.1748C14.215 34.1748 0 36.307 0 38.9373C0 39.7342 1.30468 40.4853 3.6111 41.1453C6.83098 39.5685 17.7353 38.4081 30.6917 38.4081C44.6782 38.4081 56.2735 39.7603 58.3917 41.529Z" fill="#97B9D6"/>
<path d="M6.45127 23.1485C6.83215 24.2644 6.38364 25.4992 6.24083 26.6506C6.11989 27.8727 6.36142 29.1027 6.93526 30.1871C7.50911 31.2715 8.38984 32.1622 9.4675 32.7481C8.01868 34.1118 6.90289 35.7906 6.20673 37.6542C5.51057 39.5178 5.25277 41.5161 5.45331 43.4939C5.91989 43.0187 6.48659 42.6536 7.11194 42.4253C7.7373 42.1971 8.40547 42.1115 9.06766 42.1748C10.3918 42.2959 11.7263 42.2455 13.0381 42.0248C14.6868 41.4001 16.1301 40.3293 17.2067 38.932C17.9219 38.2703 18.4528 37.4339 18.7472 36.5053C18.8625 35.7508 18.8093 34.9804 18.5915 34.2495C18.0114 31.8158 17.3777 28.2922 15.4972 26.5147C14.21 25.5213 12.7249 24.8151 11.1414 24.4435C9.54538 24.1394 7.97688 23.7063 6.45127 23.1485Z" fill="#2C4366"/>
<path d="M50.9464 45.4443C46.5837 46.0115 41.8519 40.166 40.3752 32.3803C38.9849 25.0317 41.6999 18.4318 45.5919 17.2453C43.7614 17.1714 41.9277 17.2619 40.1127 17.5157C30.1477 18.823 14.9527 25.9638 16.4722 34.0595C17.9916 42.1551 35.7309 48.2353 45.696 46.928C47.6914 46.6766 49.6402 46.137 51.4818 45.3263C51.3033 45.3656 51.1359 45.414 50.9464 45.4443Z" fill="#3D5777"/>
<path d="M54.7843 29.9287C53.8291 24.309 52.3479 19.8614 49.3145 17.9229C48.3163 17.1403 47.0525 16.7768 45.7899 16.9094C45.4619 16.9581 45.1372 17.0266 44.8174 17.1146C40.8736 18.3878 38.6886 25.0123 39.9849 32.4317C41.3317 40.3328 45.9943 46.1958 50.4178 45.5308C50.5989 45.4987 50.7771 45.4525 50.951 45.3927C51.6152 45.2143 52.2324 44.8922 52.7588 44.4491C55.6307 42.144 55.8576 36.2865 54.7843 29.9287Z" fill="#DB3D63"/>
<path d="M48.6232 32.6289C49.7905 32.5043 50.5934 31.0375 50.4165 29.3529C50.2397 27.6682 49.15 26.4035 47.9827 26.5281C46.8154 26.6528 46.0125 28.1195 46.1894 29.8041C46.3663 31.4888 47.4559 32.7535 48.6232 32.6289Z" fill="#FFE4DC"/>
<path d="M48.8681 31.3515C49.1575 32.1212 49.3116 32.9353 49.3236 33.7579C49.3336 34.5547 49.2503 35.3502 49.0754 36.1279C48.8893 36.8914 48.6312 37.6357 48.3046 38.3507C47.9749 39.0614 47.5925 39.7465 47.1607 40.4003C47.5402 39.7225 47.8662 39.0161 48.1357 38.2876C48.402 37.5667 48.5989 36.8221 48.7238 36.064C48.822 35.2988 48.8326 34.525 48.7555 33.7577C48.6943 33.0233 48.5056 32.3054 48.1981 31.6361L48.8681 31.3515Z" fill="#FFE4DC"/>
<path d="M30.242 24.1696C29.6598 24.4137 29.1542 24.8108 28.7789 25.3189C28.4037 25.8269 28.1728 26.4268 28.1106 27.055C28.0777 27.6525 28.2086 28.2474 28.4892 28.7753C28.7699 29.3032 29.1897 29.7441 29.7031 30.0502L29.9802 30.2743L29.7378 30.574C29.4611 30.9704 29.2812 31.4261 29.2128 31.9045C29.1444 32.3828 29.1893 32.8704 29.3439 33.3278C29.4985 33.7852 29.7586 34.1997 30.103 34.5377C30.4474 34.8758 30.8666 35.1279 31.3267 35.2739L31.8292 35.4232L31.5061 35.8229C31.1276 36.2158 30.8694 36.7087 30.7619 37.2434C30.6545 37.778 30.7023 38.332 30.8998 38.8397C31.1587 39.3508 31.5509 39.7821 32.035 40.0881C32.2812 40.2394 32.5496 40.3511 32.8305 40.4191C32.9707 40.4596 33.1163 40.4783 33.2623 40.4745C33.418 40.5086 33.4598 40.2302 33.2703 40.2606C33.3241 40.194 33.426 40.2947 33.4254 40.386C33.4283 40.4072 33.4268 40.4288 33.421 40.4494C33.4152 40.47 33.4053 40.4892 33.3919 40.5058C33.3784 40.5224 33.3617 40.5362 33.3428 40.5461C33.3238 40.5561 33.3031 40.5621 33.2818 40.5637C33.1287 40.5979 32.9704 40.601 32.8162 40.5728C32.3415 40.5176 31.8868 40.3511 31.489 40.0868C31.0911 39.8226 30.7614 39.4681 30.5265 39.0521C30.2165 38.4656 30.0988 37.7961 30.1899 37.1383C30.281 36.4805 30.5763 35.8677 31.0342 35.3863L31.1803 35.9084C30.5916 35.7654 30.0486 35.4765 29.6014 35.068C29.1542 34.6596 28.8172 34.1448 28.6216 33.5713C28.426 32.9979 28.378 32.3841 28.482 31.7866C28.586 31.1892 28.8388 30.6273 29.2169 30.1528L29.3165 30.619C28.7121 30.2507 28.2285 29.7137 27.9253 29.0738C27.6221 28.434 27.5124 27.7192 27.6096 27.0172C27.7156 26.3348 28.0227 25.6992 28.4917 25.1919C28.9607 24.6845 29.5701 24.3286 30.242 24.1696Z" fill="#6E8DAD"/>
<path d="M26.513 29.4168C26.1193 29.7146 25.8094 30.1092 25.6135 30.5621C25.4175 31.0151 25.3421 31.511 25.3948 32.0013C25.4746 32.4562 25.6743 32.8812 25.9733 33.2327C26.2723 33.5842 26.6598 33.8494 27.0957 34.0009L27.7893 34.2312L27.1388 34.605C26.8181 34.7922 26.5547 35.0638 26.3775 35.3903C26.2004 35.7168 26.1162 36.0856 26.1342 36.4563C26.1522 36.8271 26.2717 37.1856 26.4796 37.4927C26.6875 37.7999 26.9759 38.0438 27.3132 38.1979L27.8242 38.4274L27.3812 38.7486C27.05 39.0131 26.8083 39.3734 26.6894 39.7801C26.5706 40.1869 26.5802 40.6203 26.717 41.0209C26.8998 41.4422 27.2063 41.7977 27.5959 42.0406C27.9854 42.2834 28.4397 42.402 28.8986 42.3808C28.4002 42.4989 27.8768 42.446 27.4127 42.2306C26.9486 42.0152 26.5706 41.6498 26.3395 41.1931C26.1081 40.6995 26.0457 40.1432 26.162 39.61C26.2784 39.0768 26.567 38.5965 26.9833 38.2433L27.0713 38.7919C26.6051 38.6058 26.2015 38.291 25.9074 37.8842C25.6133 37.4774 25.4408 36.9953 25.41 36.4939C25.3878 35.9826 25.5115 35.4754 25.7666 35.0314C26.0218 34.5874 26.3978 34.225 26.8507 33.9865L26.905 34.5995C26.3719 34.394 25.9087 34.0407 25.5694 33.581C25.2302 33.1214 25.029 32.5744 24.9893 32.004C24.9681 31.4723 25.1004 30.9455 25.3707 30.4866C25.6409 30.0277 26.0375 29.6563 26.513 29.4168Z" fill="#6E8DAD"/>
<path d="M23.3147 26.7761C22.7763 27.3528 22.3352 28.0132 22.0087 28.7314C21.7905 29.4547 22.2735 29.9003 22.966 30.3133L23.6031 30.6815L22.8998 30.9392C22.7304 31.02 22.5811 31.1377 22.4631 31.2838C22.345 31.4298 22.2611 31.6004 22.2176 31.783C22.11 32.1803 22.1364 32.6019 22.2928 32.9822C22.486 33.4023 22.7735 33.7721 23.133 34.0627C23.4924 34.3533 23.9142 34.557 24.3654 34.658C23.8434 34.6718 23.3278 34.5419 22.8749 34.2826C22.422 34.0232 22.0491 33.6444 21.797 33.1873C21.5207 32.6832 21.4478 32.0921 21.5931 31.5352C21.6729 31.2473 21.8203 30.9827 22.0231 30.7633C22.226 30.544 22.4783 30.3764 22.759 30.2745L22.6929 30.9004C22.2657 30.6751 21.9005 30.3484 21.6294 29.9487C21.4916 29.7354 21.4134 29.489 21.4028 29.2351C21.3922 28.9812 21.4496 28.729 21.569 28.5045C21.9893 27.7852 22.5914 27.189 23.3147 26.7761Z" fill="#6E8DAD"/>
<path d="M20.9198 34.5894C20.7197 34.8295 20.5699 35.1072 20.4793 35.4062C20.3887 35.7052 20.3592 36.0193 20.3925 36.3298C20.4453 36.6354 20.5657 36.9253 20.745 37.1782C20.9242 37.4311 21.1577 37.6407 21.4284 37.7916C21.2241 37.8145 21.0173 37.7968 20.82 37.7392C20.6227 37.6816 20.4388 37.5855 20.279 37.4563C20.1192 37.3271 19.9867 37.1675 19.8891 36.9866C19.7915 36.8057 19.7308 36.6072 19.7105 36.4026C19.6525 36.0046 19.744 35.5991 19.9674 35.2642C20.1907 34.9294 20.53 34.689 20.9198 34.5894Z" fill="#6E8DAD"/>
<path opacity="0.7" d="M6.52753 28.6084C8.05313 29.1662 9.62164 29.5993 11.2176 29.9034C12.7959 30.2897 14.2781 30.9945 15.5734 31.9745C15.8859 32.2899 16.1638 32.6377 16.4025 33.0121C16.3938 31.7877 16.7002 30.5811 17.2924 29.5085C16.9218 28.3901 16.3088 27.3678 15.4972 26.5147C14.21 25.5213 12.7248 24.8151 11.1414 24.4435C9.54537 24.1394 7.97688 23.7063 6.45127 23.1485C6.83215 24.2644 6.38364 25.4992 6.24082 26.6506C6.13287 27.6573 6.28153 28.6745 6.67296 29.6073C6.68246 29.2684 6.63327 28.9304 6.52753 28.6084Z" fill="#1E3255"/>
<path opacity="0.7" d="M40.2894 22.9653C41.111 20.0675 42.6229 17.9481 44.5895 17.2614C43.0806 17.2628 41.5732 17.3627 40.0769 17.5605C32.0314 18.602 20.6168 23.4929 17.2568 29.5529C16.6647 30.6256 16.3582 31.8321 16.3669 33.0566C16.7532 33.6443 29.19 21.3908 40.1532 23.0204L40.2894 22.9653Z" fill="#2C4366"/>
<path opacity="0.7" d="M54.7842 29.9289C53.829 24.3092 52.3477 19.8616 49.3143 17.9231C48.3162 17.1405 47.0524 16.777 45.7898 16.9096C45.4618 16.9583 45.137 17.0268 44.8173 17.1148L44.652 17.1832C42.6495 17.9144 41.1376 20.0337 40.3519 22.8871C40.5324 22.8678 46.2006 20.4367 48.8497 22.5785C51.4987 24.7203 53.9681 29.6914 54.9232 35.3111C55.093 36.348 55.2226 37.3892 55.3348 38.3613C55.5091 35.5379 55.324 32.7044 54.7842 29.9289Z" fill="#B72A59"/>
<path d="M32.5249 44.7499C32.1702 44.7053 31.8085 44.6496 31.4413 44.5834M15.7947 34.8619C16.0743 35.9274 16.8036 37.0027 17.8415 38.0332M17.8415 38.0332C17.7133 37.3927 17.4935 35.9025 17.6402 35.0655M17.8415 38.0332C17.319 37.8045 15.9989 37.1079 14.8988 36.1509M17.8415 38.0332C18.0244 38.2148 18.2169 38.395 18.4181 38.5736M18.4181 38.5736C17.6728 38.3391 15.917 37.8395 14.8563 37.7166M18.4181 38.5736C19.004 39.0932 19.6645 39.5985 20.3805 40.0821M20.3805 40.0821C19.2126 39.9596 16.5992 39.6956 15.489 39.6198M20.3805 40.0821C20.5799 40.2168 20.7836 40.3498 20.9912 40.481M20.9912 40.481C20.4603 39.4977 19.3791 37.288 19.3022 36.3154M20.9912 40.481C21.5354 40.8248 22.1063 41.156 22.6966 41.4717M22.6966 41.4717C21.9283 41.3318 20.0152 41.1272 18.509 41.4285M22.6966 41.4717C22.2088 40.8831 21.265 39.3923 21.3921 38.1383M22.6966 41.4717C23.3298 41.8103 23.9852 42.1311 24.6538 42.4306M26.4981 43.1899C25.8117 42.5725 24.2178 40.9817 23.3336 39.5577M26.4981 43.1899C25.8771 42.9561 25.2601 42.7021 24.6538 42.4306M26.4981 43.1899C27.0563 43.4001 27.6177 43.5939 28.1774 43.7696M24.6538 42.4306C24.0354 42.4418 22.5846 42.537 21.7296 42.8284M28.1774 43.7696C27.3697 43.6672 25.6381 43.4641 25.173 43.4713M28.1774 43.7696C28.5881 43.8984 28.9979 44.0175 29.4047 44.126M29.4047 44.126C28.6975 44.1096 26.8169 44.2808 24.9523 45.0977M29.4047 44.126C30.0951 44.3101 30.7771 44.4638 31.4413 44.5834M31.4413 44.5834C30.7866 44.4806 29.1046 44.6516 27.6138 46.1583" stroke="#07AA7C" stroke-width="0.824914" stroke-linecap="round" stroke-linejoin="round"/>
<path d="M43.2583 45.7499C43.613 45.7053 43.9747 45.6496 44.3419 45.5834M59.9885 35.8619C59.7089 36.9274 58.9796 38.0027 57.9417 39.0332M57.9417 39.0332C58.0699 38.3927 58.2897 36.9025 58.143 36.0655M57.9417 39.0332C58.4642 38.8045 59.7843 38.1079 60.8844 37.1509M57.9417 39.0332C57.7588 39.2148 57.5663 39.395 57.3651 39.5736M57.3651 39.5736C58.1104 39.3391 59.8662 38.8395 60.9269 38.7166M57.3651 39.5736C56.7792 40.0932 56.1188 40.5985 55.4027 41.0821M55.4027 41.0821C56.5706 40.9596 59.184 40.6956 60.2942 40.6198M55.4027 41.0821C55.2033 41.2168 54.9996 41.3498 54.792 41.481M54.792 41.481C55.3229 40.4977 56.4041 38.288 56.481 37.3154M54.792 41.481C54.2478 41.8248 53.6769 42.156 53.0866 42.4717M53.0866 42.4717C53.8549 42.3318 55.768 42.1272 57.2742 42.4285M53.0866 42.4717C53.5744 41.8831 54.5182 40.3923 54.3911 39.1383M53.0866 42.4717C52.4534 42.8103 51.798 43.1311 51.1294 43.4306M49.2851 44.1899C49.9715 43.5725 51.5654 41.9817 52.4496 40.5577M49.2851 44.1899C49.9061 43.9561 50.5232 43.7021 51.1294 43.4306M49.2851 44.1899C48.7269 44.4001 48.1655 44.5939 47.6058 44.7696M51.1294 43.4306C51.7478 43.4418 53.1986 43.537 54.0536 43.8284M47.6058 44.7696C48.4135 44.6672 50.1451 44.4641 50.6102 44.4713M47.6058 44.7696C47.1951 44.8984 46.7853 45.0175 46.3785 45.126M46.3785 45.126C47.0857 45.1096 48.9663 45.2808 50.8309 46.0977M46.3785 45.126C45.6881 45.3101 45.0061 45.4638 44.3419 45.5834M44.3419 45.5834C44.9966 45.4806 46.6786 45.6516 48.1694 47.1583" stroke="#07AA7C" stroke-width="0.824914" stroke-linecap="round" stroke-linejoin="round"/>
<path d="M23.5576 24.4902C21.9167 23.3468 26.5002 21.7207 28.5003 20.7207L32.5 19.2207C34.4813 18.6512 36.54 18.0332 37.3395 18.0053C38.3389 17.9704 39.8729 18.9174 38.9084 19.9517C37.9439 20.986 38.4084 23.6284 37.0492 24.0191C35.0679 24.5886 34.5159 23.1069 32.5345 23.6764C30.5532 24.2459 31.6574 27.2092 29.6586 27.279C28.9868 27.3025 28.7745 24.7447 27.5551 24.3506C26.3325 23.9555 24.5846 25.2058 23.5576 24.4902Z" fill="#FDF2CA"/>
<path d="M7.90304 45.8742L2.1167 40.5774C2.1167 40.5774 13.2292 42.853 31.75 42.853C50.2709 42.853 61.3834 40.6304 61.3834 40.6304L56.288 45.6408C55.4604 46.4546 54.4724 47.088 53.3498 47.3827C50.4225 48.1512 43.5509 49.5204 31.75 49.5204C19.6871 49.5204 13.0609 48.0897 10.3987 47.3324C9.45581 47.0642 8.6261 46.5361 7.90304 45.8742Z" fill="#D1E1EE" stroke="#D1E1EE" stroke-width="1.05833"/>
<path opacity="0.4" d="M35.9834 46.8746C29.6334 47.4038 17.1451 46.9804 11.6417 45.2871" stroke="#97B9D6" stroke-width="1.05833" stroke-linecap="round"/>
</g>
<defs>
<clipPath id="clip0_808_24323">
<rect width="64" height="64" fill="white"/>
</clipPath>
</defs>
</svg>
