<svg width="64" height="64" viewBox="0 0 64 64" fill="none" xmlns="http://www.w3.org/2000/svg">
<ellipse cx="31.2208" cy="35.5388" rx="27.5167" ry="3.70417" fill="white"/>
<path fill-rule="evenodd" clip-rule="evenodd" d="M58.3917 36.0138C61.623 35.268 63.5 34.378 63.5 33.4222C63.5 30.7919 49.285 28.6597 31.75 28.6597C14.215 28.6597 0 30.7919 0 33.4222C0 34.219 1.30468 34.9702 3.6111 35.6302C6.83098 34.0533 17.7353 32.893 30.6917 32.893C44.6782 32.893 56.2735 34.2452 58.3917 36.0138Z" fill="#97B9D6"/>
<rect x="3.5" y="30.0057" width="56.5" height="7" fill="#EBB23A"/>
<path d="M31.75 35.361C47.3521 35.361 60 32.9708 60 30.0224C60 27.074 47.3521 24.6838 31.75 24.6838C16.148 24.6838 3.5 27.074 3.5 30.0224C3.5 32.9708 16.148 35.361 31.75 35.361Z" fill="#EBB23A"/>
<path d="M30.7209 25.2823C31.063 25.1409 31.5315 25.0385 32.0708 24.9873C32.6102 24.9361 33.198 24.9381 33.7649 24.9932C34.914 25.1025 35.9946 25.4368 37.1202 25.3476C37.7287 25.2997 38.492 25.1583 38.8808 25.3201C38.9679 25.3591 39.038 25.4015 39.0888 25.446C39.2592 25.5173 39.4805 25.5742 39.73 25.6107C39.9794 25.6472 40.2478 25.6621 40.5075 25.6537C41.0226 25.6717 41.5405 25.6107 42.0866 25.61C42.5738 25.6118 43.0631 25.6567 43.5032 25.7399C43.9433 25.8231 44.3181 25.9416 44.5883 26.0829C45.6534 25.9916 47.051 25.9317 47.77 26.194C47.9797 26.2706 48.0671 26.3725 48.3071 26.4501C48.766 26.5515 49.2869 26.614 49.8178 26.6313C50.3632 26.6504 50.9648 26.7999 50.8987 26.9557C50.8795 27.0109 50.8776 27.0672 50.8928 27.1236C50.889 27.2322 51.3112 27.3063 51.7048 27.3299C52.0782 27.3331 52.4531 27.3462 52.8259 27.369C52.9767 27.3856 53.1173 27.4128 53.2373 27.4485C53.3573 27.4843 53.4535 27.5278 53.5189 27.5756C53.5843 27.6235 53.6172 27.6747 53.615 27.7252C53.6128 27.7757 53.5757 27.8243 53.5064 27.8673C53.764 27.8516 54.0384 27.8642 54.2885 27.9032C54.5386 27.9422 54.7511 28.0056 54.8944 28.0838C55.0072 28.1621 55.0309 28.2486 54.9609 28.3265C54.8909 28.4044 54.7322 28.4683 54.5156 28.5056C54.7358 28.5299 54.9352 28.5744 55.0891 28.6334C55.243 28.6924 55.3445 28.7634 55.3808 28.8375C55.4171 28.9116 55.3866 28.9855 55.2931 29.0499C55.1997 29.1143 55.0474 29.1663 54.8554 29.1996C55.0878 29.209 55.3135 29.2399 55.5054 29.2887C55.6974 29.3374 55.8475 29.402 55.9381 29.4747C55.4532 29.4577 54.8416 29.5945 55.0489 29.7402C55.2562 29.8858 55.4701 29.8439 55.6498 29.9095C55.8296 29.975 55.6391 30.2155 55.2114 30.2995C54.7837 30.3834 54.2958 30.4553 54.1691 30.6091C54.0424 30.7628 54.4001 30.9434 54.1525 31.083C53.905 31.2226 52.9632 31.259 52.7445 31.4392C52.5259 31.6193 52.7356 31.6959 52.7314 31.8144C52.7197 32.1501 50.9904 32.149 50.2242 32.3694C49.458 32.5898 49.6677 32.6663 49.1502 32.7174C48.6326 32.7686 48.3926 32.691 47.9966 32.7365C47.6006 32.7819 47.0772 33.0009 46.5869 33.142C46.0965 33.283 44.1531 33.3338 43.0842 33.5337C42.7684 33.6297 42.3661 33.6911 41.9251 33.7107C41.5918 33.6991 41.2585 33.6875 40.9252 33.6758C40.5919 33.6642 39.8218 33.9932 39.0322 34.015C38.2427 34.0369 37.9448 33.8782 37.3677 33.8976C36.7906 33.917 36.6649 34.0411 36.2678 34.1162C34.9851 34.3581 33.0586 33.9251 31.6867 34.1144C31.2938 34.1955 30.8627 34.257 30.4061 34.2971C29.7091 34.2727 29.1083 34.1035 28.412 34.0594C27.8546 34.0532 27.3084 34.0811 26.8012 34.1415C26.5533 34.172 26.2779 34.1784 26.0055 34.1602C25.733 34.1419 25.4742 34.0997 25.2575 34.0382C25.106 34.0329 25.0499 33.9024 24.8388 33.8654C24.65 33.8441 24.4528 33.8372 24.263 33.8453L22.7751 33.8823C22.5941 33.8852 22.4101 33.8788 22.2297 33.8632C22.0495 33.8472 21.8651 33.8407 21.6842 33.8442C20.9397 33.8606 20.1763 33.8101 19.4746 33.6979C18.9887 33.5886 18.4384 33.5184 17.8738 33.4936C17.7361 33.4913 17.5996 33.4757 17.4818 33.4487C17.3639 33.4217 17.2699 33.3846 17.2116 33.342C17.2133 33.2927 17.2151 33.2433 17.2164 33.2038C17.1598 33.169 17.0823 33.1379 16.989 33.1124C16.8957 33.087 16.7889 33.0679 16.6755 33.0564C16.4256 33.0328 16.1689 33.0238 15.918 33.0299C15.294 33.0377 14.6611 33.0156 14.0391 32.9643C13.6149 32.9495 12.9211 32.8363 12.7134 32.7005C12.6736 32.6155 12.6157 32.5308 12.5402 32.4473C12.2148 32.2086 10.8179 32.2488 10.4925 32.01C10.4925 32.01 10.4966 31.8916 10.4983 31.8422C10.5001 31.7928 9.77868 31.5996 9.3882 31.4871C8.99772 31.3746 8.97638 31.1168 9.4013 31.1119C8.70987 30.9296 8.8958 30.8174 8.3576 30.591C7.8194 30.3646 6.99027 29.7821 7.84011 29.7722C8.68995 29.7624 7.84908 29.5155 7.85459 29.3575C7.86011 29.1995 7.62458 28.9936 8.05295 28.8899C8.48132 28.7862 8.93443 28.8416 9.15034 28.7404C9.36624 28.6392 8.55741 28.344 8.80672 28.155C9.05604 27.966 9.84287 28.0231 10.1511 27.8856C10.4593 27.7481 10.1645 27.5005 10.5622 27.4057C10.96 27.3108 11.2895 27.4311 11.6253 27.3736C12.4465 27.3133 12.3691 26.9251 13.0712 26.8013C13.7733 26.6776 14.7075 26.8584 15.17 26.6472C15.6324 26.436 15.3298 26.4156 15.5756 26.3253C15.8215 26.235 17.0328 26.2971 17.6134 26.1789C18.194 26.0608 18.0455 25.9667 18.3524 25.8686C19.1812 25.5911 20.9601 25.9103 22.1185 25.753C22.7893 25.6578 23.1615 25.4236 23.8915 25.3701C24.6215 25.3165 25.586 25.4984 26.346 25.4558C26.7106 25.3984 27.0579 25.3312 27.3845 25.2548C28.7578 25.0259 29.9764 25.7506 30.9299 25.3786" fill="#E82F3E"/>
<path d="M43.6346 29.9846C43.6908 30.5547 44.3161 31.0401 44.1693 31.6015C44.0226 32.1629 43.5853 32.1196 43.1878 32.1875C42.4863 32.3611 41.7465 32.2919 41.0898 31.9914C40.7626 31.8378 40.4995 31.5751 40.3461 31.2486C40.1926 30.9221 40.1585 30.5523 40.2495 30.2031C40.8622 29.6822 41.9079 30.0397 42.5492 29.5159C42.8026 29.299 43.0209 29.0444 43.1965 28.7612C43.2782 28.6204 43.3921 28.501 43.5289 28.4125C43.6656 28.324 43.8214 28.2689 43.9835 28.2518C45.273 28.1535 43.6267 29.6111 43.6346 29.9846Z" fill="white"/>
<path d="M26.1702 32.4782C26.1702 32.1344 25.5668 32.1917 25.4519 31.8765C25.337 31.5614 25.4519 31.5613 25.6531 31.4754C25.8046 31.4428 25.9612 31.4428 26.1127 31.4754C26.5602 31.3857 27.025 31.4461 27.4344 31.6473C27.5374 31.6971 27.618 31.7835 27.6605 31.8895C27.703 31.9954 27.7044 32.1134 27.6643 32.2203C27.4919 32.4495 27.0609 32.2203 26.831 32.4495C26.744 32.6101 26.6857 32.7847 26.6586 32.9653C26.6586 33.1372 26.1702 33.395 26.0265 33.2231C25.8828 33.0512 26.1989 32.6214 26.1702 32.4782Z" fill="white"/>
<path d="M36.5508 21.6676C36.5454 21.5991 36.521 21.5333 36.4805 21.4777C36.4399 21.422 36.3847 21.3787 36.321 21.3525C36.321 21.3525 36.0624 21.3525 36.0049 21.0947C35.959 21.0217 35.9347 20.9373 35.9347 20.8512C35.9347 20.7651 35.959 20.6806 36.0049 20.6077C36.1499 20.5088 36.3183 20.4496 36.4933 20.4358C37.004 20.4361 37.5034 20.5854 37.9299 20.8655C38.1082 20.9674 38.2645 21.1038 38.3896 21.2665C38.44 21.3536 38.4666 21.4524 38.4666 21.553C38.4666 21.6536 38.44 21.7524 38.3896 21.8395C38.0735 22.2692 37.2403 21.8394 36.9243 22.2405C36.6083 22.6415 36.9243 22.4983 36.7232 22.6129C36.6599 22.6693 36.5782 22.7004 36.4933 22.7004C36.4085 22.7004 36.3267 22.6693 36.2635 22.6129C36.0049 22.2405 36.522 21.9827 36.5508 21.6676Z" fill="#FAFBFE"/>
<path d="M14.2173 30.994C14.12 30.9249 14.0497 30.8245 14.0182 30.7096C13.9868 30.5947 13.9962 30.4725 14.0449 30.3637C14.3553 30.2389 14.6903 30.1869 15.0241 30.2117C15.3579 30.2366 15.6816 30.3376 15.97 30.5069C16.1546 30.6155 16.3042 30.7746 16.4009 30.9653C16.4417 31.0647 16.4436 31.1757 16.4064 31.2764C16.3691 31.3772 16.2954 31.4603 16.1998 31.5096C15.9699 31.5096 15.7114 31.5096 15.5102 31.5096C15.3091 31.5096 15.3092 31.882 15.1942 32.0252C15.0793 32.1684 14.5047 32.0252 14.4759 31.7961C14.4472 31.5669 14.7345 31.5096 14.6483 31.2804C14.5621 31.0513 14.3322 31.1086 14.2173 30.994Z" fill="#FAFBFE"/>
<path d="M51.6211 29.5981C51.6211 29.4262 51.9085 29.2257 51.851 29.0252C51.7936 28.8246 51.2476 28.7673 51.1902 28.4809C51.1327 28.1944 51.3625 28.1657 51.5349 28.1084C51.8847 27.9652 52.277 27.9652 52.6268 28.1084C52.7972 28.1841 52.9345 28.3184 53.0137 28.4867C53.0928 28.6551 53.1085 28.8462 53.0578 29.0252C52.8854 29.1684 52.5693 29.0252 52.4257 29.1971C52.282 29.3689 52.4257 29.4549 52.282 29.5695C52.2587 29.6249 52.2232 29.6742 52.1781 29.7141C52.1331 29.7539 52.0796 29.7832 52.0217 29.7997C51.9638 29.8162 51.9029 29.8196 51.8435 29.8095C51.7841 29.7994 51.7278 29.7761 51.6787 29.7414" fill="#FAFBFE"/>
<path d="M13.3469 27.5258C13.6807 27.5538 14.0012 27.6701 14.2756 27.8629C14.55 28.0557 14.7684 28.3181 14.9087 28.6232C14.9503 28.6982 14.9686 28.784 14.9613 28.8694C14.954 28.9549 14.9214 29.0362 14.8678 29.1029C14.7028 29.2864 14.4481 29.1954 14.1967 28.986C13.8941 28.8303 13.547 28.785 13.2151 28.8582C12.8832 28.9313 12.5873 29.1182 12.3783 29.3867C12.1698 29.6386 12.0358 29.9623 11.7124 30.0924L11.5446 30.1294C10.8002 28.8812 12.3121 27.489 13.3469 27.5258Z" fill="#07AA7C"/>
<path d="M32.498 38.4549C32.8897 38.5151 33.2905 38.4552 33.6472 38.283C33.921 38.1299 34.2099 38.0051 34.5092 37.9106C34.6524 37.8531 34.8112 37.8474 34.9581 37.8945C35.1051 37.9416 35.2309 38.0385 35.3137 38.1684C35.3667 38.3045 35.3729 38.4543 35.3313 38.5943C35.2897 38.7343 35.2026 38.8566 35.0838 38.9419C34.8424 39.1 34.5665 39.1982 34.2793 39.2283C33.6472 39.2283 31.0614 39.8871 30.6017 39.2283C30.142 38.5694 30.6018 38.5121 30.9178 38.3403C31.2339 38.1684 32.1532 38.4549 32.498 38.4549Z" fill="#07AA7C"/>
<path d="M39.8068 28.452C40.0532 28.3747 40.2765 28.2371 40.4565 28.0517C40.8241 27.7178 41.2415 27.4431 41.6934 27.2378C41.9146 27.1263 42.1556 27.0599 42.4025 27.0424C42.6493 27.025 42.8971 27.0568 43.1313 27.1362C43.195 27.194 43.2623 27.2477 43.3327 27.2971L43.4761 27.1176C43.6375 26.9155 43.8168 26.691 43.7095 26.4582C43.6022 26.2253 43.3514 26.1721 43.0557 26.2668C42.6657 26.3179 42.2784 26.3891 41.8956 26.48C41.1408 26.5993 40.4249 26.8974 39.8077 27.3494C39.6598 27.4887 38.7631 28.6111 39.8068 28.452Z" fill="#07AA7C"/>
<path d="M28.1028 25.85C27.9887 25.6182 27.9294 25.3634 27.9294 25.1051C27.9294 24.8469 27.9887 24.5921 28.1028 24.3603C28.3115 23.8774 28.6495 23.4612 29.0797 23.1571C29.2233 23.1571 29.4532 22.9566 29.5681 23.1571C29.683 23.3577 29.5681 23.5008 29.4244 23.6441C29.255 23.8355 29.1102 24.0472 28.9935 24.2743C28.9079 24.4277 28.8631 24.6003 28.8631 24.7757C28.8631 24.9512 28.9079 25.1237 28.9935 25.277C29.1619 25.4335 29.3563 25.5595 29.5681 25.6495C29.6813 25.6824 29.7837 25.7449 29.8645 25.8305C29.9454 25.9162 30.0017 26.0218 30.0278 26.1365C30.0278 26.996 28.3327 26.2797 28.1028 25.85Z" fill="#07AA7C"/>
<path d="M31.3325 32.0431H32.0508C32.406 31.9297 32.7106 31.6969 32.9126 31.3843C33.102 31.0787 33.2747 30.7631 33.4299 30.4389C33.4299 30.4389 33.4298 30.2957 33.5735 30.267C33.7171 30.2384 33.8608 30.267 33.947 30.267C34.1829 30.5375 34.3152 30.8825 34.3205 31.241C34.3437 31.5322 34.2732 31.8232 34.1194 32.0718C33.9402 32.2957 33.7012 32.4646 33.4299 32.5588C32.8181 32.7538 32.1728 32.822 31.5336 32.7593C31.1027 32.702 30.5855 32.3009 31.3325 32.0431Z" fill="#961B20"/>
<path d="M21.4597 28.4818C21.1659 28.1379 21.0031 27.7017 21 27.2499C21.0681 27.2208 21.1414 27.2057 21.2155 27.2057C21.2896 27.2057 21.3629 27.2208 21.431 27.2499C21.5747 27.2499 21.6033 27.5364 21.7183 27.6796C21.8332 27.8229 22.2067 27.8802 22.494 27.9089H23.2123C23.4421 27.9089 23.7294 28.0807 23.7582 28.3386C23.7869 28.5964 22.9537 29.0262 22.609 29.0835C22.3844 29.0758 22.1644 29.0178 21.9654 28.9136C21.7664 28.8094 21.5935 28.6618 21.4597 28.4818Z" fill="#961B20"/>
<path d="M26.6895 28.2918C26.3448 28.2918 26 28.6929 26 29.0366C26 29.3804 26.4597 29.8101 26.8907 29.9247C27.2463 30.0258 27.6129 30.0835 27.9825 30.0965C28.2489 30.1393 28.5205 30.1393 28.787 30.0965C28.9469 30.0603 29.0919 29.9763 29.2026 29.8556C29.3133 29.7349 29.3843 29.5834 29.4062 29.4214C29.4281 29.2593 29.3997 29.0944 29.325 28.9488C29.2503 28.8033 29.1327 28.684 28.988 28.6069C28.2878 28.2206 27.4683 28.1082 26.6895 28.2918Z" fill="#FF6268"/>
<path d="M33.9363 26.9956C34.0094 27.1113 34.1076 27.2092 34.2236 27.2821C34.8522 27.7084 35.5898 27.9469 36.3497 27.9696C36.7671 28.0252 37.1918 27.976 37.5852 27.8264C37.781 27.7409 37.9432 27.5937 38.047 27.4074C38.1507 27.2211 38.1904 27.006 38.1598 26.7951C38.0677 26.5232 37.8853 26.2908 37.6427 26.1363C37.2884 25.8857 36.8862 25.7105 36.4611 25.6218C36.0359 25.5331 35.597 25.5326 35.1717 25.6206C34.6833 25.8497 33.5915 26.4227 33.9363 26.9956Z" fill="#FF6268"/>
<path d="M19.0469 32.7363C19.6019 33.0017 20.213 33.1295 20.8282 33.1087C21.0076 33.1514 21.1946 33.1514 21.3741 33.1087C21.4967 33.0132 21.5833 32.8791 21.6199 32.7282C21.6564 32.5774 21.6406 32.4187 21.5752 32.2779C21.4357 31.9999 21.2154 31.7704 20.9431 31.619C20.6185 31.3876 20.2424 31.2381 19.8471 31.1832C19.4519 31.1283 19.0491 31.1697 18.6734 31.3039C17.9838 31.5904 18.4723 32.4212 19.0469 32.7363Z" fill="#FF6268"/>
<path d="M46.1163 29.8663C45.846 29.9193 45.5966 30.0485 45.398 30.2387C45.3007 30.3289 45.2266 30.441 45.1816 30.5656C45.1367 30.6902 45.1221 30.8236 45.1394 30.9549C45.2135 31.1817 45.3664 31.3747 45.5704 31.4992C45.7755 31.6084 45.9999 31.6765 46.2312 31.6998C46.7639 31.8551 47.3143 31.9418 47.869 31.9576C48.4374 31.9546 48.9939 31.796 49.4781 31.4992C49.6326 31.4114 49.7583 31.2808 49.8399 31.1232C49.9215 30.9655 49.9556 30.7876 49.9378 30.6111C49.593 29.5225 46.9208 29.6372 46.1163 29.8663Z" fill="#FF6268"/>
<path d="M18.0858 27.3266C17.6836 27.0401 17.109 27.3266 16.678 27.5271C16.3992 27.6663 16.1689 27.8859 16.0171 28.1574C15.9841 28.3227 15.999 28.494 16.0601 28.6513C16.1212 28.8085 16.2258 28.9453 16.3619 29.0454C16.6368 29.2309 16.9519 29.3487 17.2814 29.3891C17.8127 29.4955 18.3649 29.4038 18.8329 29.1313C19.0603 28.9938 19.2277 28.7763 19.3022 28.5218C19.3767 28.2673 19.3527 27.9941 19.2351 27.7563C19.0744 27.5957 18.8809 27.4716 18.6676 27.3925C18.4544 27.3134 18.2265 27.2812 17.9997 27.2979" fill="#FF6268"/>
<path d="M36.0266 31.9916C35.9356 32.1018 35.8746 32.2334 35.8494 32.3738C35.8242 32.5143 35.8358 32.659 35.883 32.7937C35.9752 32.9219 36.0956 33.0273 36.2351 33.1018C36.3746 33.1763 36.5293 33.2179 36.6874 33.2234H37.6929C37.9207 33.2668 38.1547 33.2668 38.3825 33.2234C38.5171 33.1494 38.6302 33.0418 38.7107 32.9113C38.7913 32.7808 38.8366 32.6317 38.8422 32.4786C38.8562 32.3932 38.8562 32.3061 38.8422 32.2208L38.6699 32.0776C37.9229 31.5906 36.6012 31.2468 36.0266 31.9916Z" fill="#FF6268"/>
<path d="M46.2526 27.5581C46.4048 27.5199 46.5642 27.5213 46.7155 27.562C46.8615 27.6304 46.9894 27.7321 47.0888 27.8589C47.1883 27.9856 47.2565 28.1339 47.2881 28.292C47.5146 28.2138 47.7019 28.0506 47.8099 27.837C47.918 27.6234 47.9383 27.3762 47.8666 27.1483C47.8421 27.0234 47.7785 26.9095 47.685 26.8232C47.5322 26.7359 47.3525 26.7079 47.1801 26.7444C46.7061 26.7796 44.9129 26.6332 44.7434 27.1545C44.574 27.6758 45.932 27.5732 46.2526 27.5581Z" fill="#961B20"/>
<mask id="mask0_808_22897" style="mask-type:alpha" maskUnits="userSpaceOnUse" x="23" y="20" width="14" height="10">
<path d="M36.7766 26.1132C36.7766 29.3259 33.7479 29.7436 29.9781 29.7436C26.2084 29.7436 23.1797 29.4223 23.1797 26.1132C23.4064 24.4759 24.2196 22.9757 25.4693 21.8898C26.719 20.8039 28.3205 20.2057 29.9781 20.2057C31.6357 20.2057 33.2374 20.8039 34.4871 21.8898C35.7367 22.9757 36.55 24.4759 36.7766 26.1132Z" fill="white"/>
</mask>
<g mask="url(#mask0_808_22897)">
<path d="M36.7766 26.1132C36.7766 29.3259 33.7479 29.7436 29.9781 29.7436C26.2084 29.7436 23.1797 29.4223 23.1797 26.1132C23.4064 24.4759 24.2196 22.9757 25.4693 21.8898C26.719 20.8039 28.3205 20.2057 29.9781 20.2057C31.6357 20.2057 33.2374 20.8039 34.4871 21.8898C35.7367 22.9757 36.55 24.4759 36.7766 26.1132Z" fill="white"/>
<path d="M23.8334 21.2395C22.9458 20.1088 26.4379 19.9543 28.0227 19.6872L31.087 19.4967C32.5685 19.5216 34.1134 19.5295 34.6688 19.6783C35.363 19.8643 36.2184 20.8376 35.3381 21.3458C34.4578 21.854 34.2218 23.7678 33.2055 23.7507C31.724 23.7258 31.656 22.5914 30.1745 22.5665C28.693 22.5416 28.8292 24.8104 27.4407 24.4383C26.974 24.3133 27.3656 22.5107 26.6103 21.9835C25.853 21.455 24.3889 21.9471 23.8334 21.2395Z" fill="#FBE297"/>
</g>
<path d="M31.353 20.8845L31.9882 20.6385C32.0108 20.6187 32.0289 20.5944 32.0412 20.5671C32.0536 20.5399 32.06 20.5103 32.06 20.4804C32.06 20.4505 32.0536 20.4209 32.0412 20.3936C32.0289 20.3664 32.0108 20.3421 31.9882 20.3223C31.9641 20.253 31.9137 20.1957 31.8478 20.1629C31.7818 20.1301 31.7055 20.1242 31.6353 20.1466L31 20.3926C31 19.9359 31.353 19.5494 32.0589 19.2683C32.7227 19.1216 33.4178 19.2348 34 19.5845C33.747 20.2105 33.2861 20.7313 32.6941 21.0601C32.2706 21.306 31.7412 21.2358 31.353 20.8845Z" fill="#ABD4B9"/>
<path d="M31.9057 19.0637C32.636 18.9075 33.3985 19.0411 34.0317 19.4361C34.0552 19.4697 34.0679 19.5097 34.0679 19.5506C34.0679 19.5916 34.0552 19.6316 34.0317 19.6652C33.9291 20.022 33.7537 20.3538 33.5164 20.6397C33.279 20.9256 32.985 21.1596 32.6527 21.3268C32.236 21.4829 31.7765 21.4829 31.3598 21.3268C31.2236 21.2625 31.1023 21.1707 31.0034 21.0573C30.9045 20.9439 30.8301 20.8114 30.7851 20.6679C30.6702 20.1809 30.8426 19.4647 31.9057 19.0637ZM31.9057 20.582L31.3885 20.7825C31.5897 21.069 32.0206 21.1263 32.5952 20.9257C33.0771 20.6576 33.4523 20.233 33.6582 19.7225C33.1843 19.4374 32.6185 19.3451 32.0781 19.4647C31.5034 19.6939 31.2162 20.009 31.2162 20.3814L31.7333 20.1809C31.7905 20.1626 31.8525 20.1674 31.9062 20.1942C31.9599 20.2209 32.001 20.2676 32.0206 20.3242C32.035 20.3479 32.0434 20.3747 32.0452 20.4023C32.0469 20.43 32.042 20.4577 32.0307 20.483C32.0194 20.5083 32.0021 20.5306 31.9804 20.5478C31.9586 20.565 31.933 20.5768 31.9057 20.582Z" fill="#048970"/>
<path d="M7.90304 40.3591L2.1167 35.0623C2.1167 35.0623 13.2292 37.3379 31.75 37.3379C50.2709 37.3379 61.3834 35.1153 61.3834 35.1153L56.288 40.1257C55.4604 40.9395 54.4724 41.5728 53.3498 41.8676C50.4225 42.636 43.5509 44.0053 31.75 44.0053C19.6871 44.0053 13.0609 42.5745 10.3987 41.8173C9.45581 41.5491 8.6261 41.021 7.90304 40.3591Z" fill="#D1E1EE" stroke="#D1E1EE" stroke-width="1.05833"/>
<path opacity="0.4" d="M35.9834 41.3595C29.6334 41.8886 17.145 41.4653 11.6417 39.772" stroke="#97B9D6" stroke-width="1.05833" stroke-linecap="round"/>
</svg>
