<svg width="64" height="64" viewBox="0 0 64 64" fill="none" xmlns="http://www.w3.org/2000/svg">
<g clip-path="url(#clip0_808_24304)">
<path d="M23.9923 33.9058C21.4714 34.1188 20.6638 32.0713 20.575 31.021C22.3252 30.45 26.6917 29.0444 30.157 27.99C34.4887 26.672 37.3135 28.1788 38.1034 30.0162C45.3929 31.7806 46.7109 36.1122 46.3203 39.0014C44.6116 37.559 40.2113 36.1852 37.1246 35.3353C34.038 34.4853 27.1433 33.6396 23.9923 33.9058Z" fill="#027168"/>
<path d="M29.907 44.7913C29.4521 43.1536 28.0502 39.791 26.0808 39.4424C28.9732 36.2985 36.2001 32.4189 37.4556 33.1286C41.4711 31.0975 45.0612 33.7641 46.6358 35.7693C50.2156 36.1999 54.4775 39.0871 56.2933 44.8925C58.1091 50.6979 56.781 53.611 55.6578 52.4982C54.5346 51.3853 52.5138 49.6058 50.4983 48.9444C48.4827 48.2829 48.0417 49.6266 45.8057 49.6369C44.0169 49.6452 42.6704 48.608 42.2208 48.0883C42.0738 48.5362 41.2885 49.5684 39.3232 50.1142C37.6413 50.5813 36.488 49.6592 35.9546 48.9175C36.1385 49.4161 35.7955 49.9692 33.5074 49.694C30.6437 49.3495 29.9139 46.282 29.907 44.7913Z" fill="#0ACB81"/>
<path d="M15.9201 18.2468C14.4965 19.8634 15.9461 23.8369 16.8488 25.6216L21.5673 30.5191L24.4285 20.667C24.425 19.9216 23.9699 18.2094 22.1769 17.3233C20.3839 16.4372 19.1972 17.7098 18.828 18.4569C18.4519 17.7133 17.3437 16.6302 15.9201 18.2468Z" fill="#027168"/>
<path d="M40.291 17.6864C37.4313 18.2364 34.3541 23.3042 33.173 25.7694C31.614 27.1183 27.4262 30.5813 23.1471 33.6422C21.8916 32.9325 21.2699 30.6695 21.116 29.6267C21.1091 28.136 21.8501 23.9883 24.8696 19.3233C28.6439 13.4919 31.1004 12.8097 33.3416 13.9173C38.911 9.41931 44.9732 14.7578 44.9784 15.8758C44.9836 16.9939 43.8655 16.999 40.291 17.6864Z" fill="#07AA7C"/>
<path d="M25.1211 25.3595C25.2741 24.9587 25.4871 24.4681 25.7579 23.9168M33.3467 15.0354C32.6232 15.474 31.9413 15.9812 31.3026 16.5329M31.3026 16.5329C31.984 16.0337 34.5099 15.1194 39.1625 15.4556M31.3026 16.5329C30.0534 17.612 28.97 18.8617 28.0657 20.1034M28.0657 20.1034C28.638 19.3885 30.9908 18.1321 35.824 18.8252M28.0657 20.1034C27.0759 21.4622 26.3008 22.8115 25.7579 23.9168M25.7579 23.9168C26.5097 23.3497 28.7745 22.391 31.8188 23.0924" stroke="#027168" stroke-linecap="round"/>
<path d="M20.4285 26.0521L19.4013 21.5288M18.6024 18.0107L19.4013 21.5288M19.4013 21.5288C18.9128 20.6553 17.5777 18.8651 16.1458 18.6929" stroke="#005C55" stroke-linecap="round"/>
<path d="M20.8488 20.2363C20.9958 19.7884 21.379 18.8475 21.7359 18.667" stroke="#005C55" stroke-linecap="round"/>
<path d="M33.4089 28.4517C29.134 32.4071 23.371 33.7158 21.5828 33.8732C18.2289 33.8887 17.0315 33.0332 14.8643 31.6682C12.3973 30.1144 12.3818 26.7603 11.0381 26.3194C9.69438 25.8784 9.01734 24.5399 10.5815 24.309C12.1898 23.9438 13.4912 24.8918 13.9408 25.4115C13.8656 25.2628 13.9387 24.9643 14.8331 24.9601C15.7276 24.956 16.4025 25.8473 16.6282 26.2935C16.553 26.1448 16.6261 25.8463 17.5206 25.8421C18.6386 25.837 18.6438 26.955 19.0899 26.7293C19.5361 26.5036 20.4336 27.1703 21.3415 30.073C21.337 29.0932 21.8405 26.5655 23.0108 24.2951C23.2062 23.916 23.7331 23.9838 23.832 24.3986C24.325 26.4645 24.4655 28.6568 24.4699 29.6112C25.1383 29.0863 26.6094 28.0807 27.1469 28.2571C27.3674 27.5853 28.9316 27.3544 29.6035 27.5749C29.824 26.9031 31.6087 26.0004 32.9523 26.4413C34.7318 24.4206 36.7526 26.2001 36.5321 26.872C36.3116 27.5438 34.5217 27.3285 33.4089 28.4517Z" fill="#0ACB81"/>
<path d="M42.1794 39.1443C43.8258 40.5528 47.3903 44.129 48.4777 47.165" stroke="#027168" stroke-linecap="round"/>
<path d="M30.9939 38.0781C33.2334 38.8131 38.4787 41.5764 41.5437 46.75" stroke="#027168" stroke-linecap="round"/>
<path d="M21.2248 53.1052C21.116 50.6391 21.1037 47.0477 21.1533 43.6159M21.5828 33.8732C21.386 34.985 21.2177 39.1663 21.1533 43.6159M21.5828 33.8732C20.7386 33.4883 19.4934 32.8686 18.2959 32.1738M21.5828 33.8732C20.4596 32.7603 18.167 30.2218 17.9823 28.9705M21.5828 33.8732C22.0221 32.1568 22.0569 30.9705 23.326 27.0263M21.5828 33.8732C21.8768 32.9774 25.0569 30.9999 27.0569 30.4999M21.1533 43.6159C20.9342 42.6061 21.8806 40.2223 27.4194 38.7655C29.0811 38.3284 31.0397 38.0317 33.1814 37.9716M55.4114 47.58C50.9134 42.0107 44.9257 39.5586 39.6178 38.5111M39.6178 38.5111C41.6597 37.7476 46.1918 36.4423 47.9847 37.3285M39.6178 38.5111C37.3736 38.0682 35.1965 37.9151 33.1814 37.9716M33.1814 37.9716C34.0899 37.5523 36.2188 36.4439 37.466 35.3648M14.854 29.4322C15.2622 30.2393 16.7386 31.2701 18.2959 32.1738M18.2959 32.1738C17.5707 31.2332 16.0895 29.1434 15.9668 28.309" stroke="#027168" stroke-linecap="round"/>
</g>
<defs>
<clipPath id="clip0_808_24304">
<rect width="64" height="64" fill="white"/>
</clipPath>
</defs>
</svg>
