<svg width="64" height="64" viewBox="0 0 64 64" fill="none" xmlns="http://www.w3.org/2000/svg">
<path d="M40.9318 20.883C38.7841 19.9733 35.357 21.4396 33.9118 22.2864L33.1036 22.8754L36.6372 27.7245C37.555 26.437 39.6112 23.8251 40.4933 23.6772C41.5959 23.4924 41.6711 25.2936 41.856 26.3962C42.0408 27.4989 43.6227 28.8208 44.9447 27.2389C46.2666 25.6569 43.6164 22.0201 40.9318 20.883Z" fill="#048970" stroke="#048970"/>
<path d="M24.4954 16.1561C26.9743 15.5892 30.1075 18.7992 31.6753 21.3575C32.1615 22.1508 31.8664 23.1446 31.1053 23.6797L9.58741 38.8082C8.81792 39.3492 7.75198 39.2911 7.23139 38.5077C5.99093 36.6408 5.38943 33.9135 6.38637 31.2083C7.63312 27.8252 12.263 25.6887 16.5984 23.1482C20.9338 20.6077 20.7833 17.0051 24.4954 16.1561Z" fill="#D61D1D"/>
<path d="M40.1467 37.6346C41.4458 35.4485 39.3499 31.4826 37.3949 29.2064C36.7887 28.5006 35.7522 28.4771 35.0097 29.0377L14.0168 44.8867C13.2661 45.4535 12.9949 46.486 13.5812 47.2215C14.9783 48.9742 17.3903 50.3823 20.2708 50.262C23.8732 50.1115 27.3252 46.3587 31.0717 43.01C34.8182 39.6613 38.2015 40.9081 40.1467 37.6346Z" fill="#D61D1D"/>
<path d="M27.3362 21.51C29.5042 19.9302 32.5423 20.407 34.1222 22.575L36.6461 26.0387C38.2259 28.2067 37.7491 31.2449 35.5811 32.8247L17.6855 45.8651C14.5611 48.1419 10.1825 47.4547 7.90575 44.3303C5.62897 41.2059 6.31614 36.8273 9.44059 34.5505L27.3362 21.51Z" fill="#F43B3B"/>
<circle cx="43.6572" cy="26.321" r="2" transform="rotate(53.9192 43.6572 26.321)" fill="#005C55"/>
<mask id="mask0_808_24303" style="mask-type:alpha" maskUnits="userSpaceOnUse" x="17" y="34" width="43" height="21">
<path d="M34.8289 35.9943C38.138 34.1767 42.1095 34.0224 45.5497 35.5778L58.0037 41.2087C59.4652 41.8695 59.3652 43.0657 58.8445 44.5828C58.6338 45.1963 59.4158 45.7851 59.1602 46.3482C58.9885 46.7265 57.7999 47.0932 57.5852 47.4482C57.3036 47.9137 57.9772 48.359 57.5852 48.7837C57.1678 49.2359 56.6761 49.6646 56.0852 50.0694C55.5175 50.4583 54.8582 49.9423 54.0852 50.2863C53.7174 50.45 53.3239 51.4913 52.9023 51.6447C52.2094 51.8967 51.4406 51.252 50.5852 51.4758C49.6851 51.7113 48.6892 51.931 47.5852 52.1346C46.3849 52.356 45.0569 53.4411 43.5852 53.6241C42.9461 53.7035 42.2798 52.8966 41.5852 52.9688C41.0763 53.0216 40.5763 53.9489 40.0852 53.9855C39.2247 54.0497 38.3916 53.2068 37.5852 53.2243C36.9357 53.2384 36.3037 54.1208 35.6888 54.107C34.784 54.0868 33.9164 54.0375 33.0852 53.9626C31.8371 53.8501 30.6712 52.7971 29.5852 52.5806C28.9219 52.4483 28.2885 52.2988 27.6842 52.1346C26.9499 51.9351 26.2587 52.5966 25.6097 52.3585C24.9985 52.1343 24.4246 51.895 23.8874 51.6447C23.5556 51.49 24.2378 51.3312 23.9337 51.1691C23.6379 51.0113 22.3551 50.8505 22.0852 50.6874C21.7492 50.4844 21.4332 50.2778 21.1366 50.0694C20.7539 49.8005 21.4037 49.5284 21.0852 49.2566C20.9 49.0986 19.7256 48.9407 19.5617 48.7837C19.3262 48.558 19.1126 47.4512 18.9204 47.231C18.4456 46.6868 18.1016 47.0483 17.8818 46.581C17.5765 45.9319 17.9759 45.2509 18.6047 44.9055L34.8289 35.9943Z" fill="#CE2C24"/>
</mask>
<g mask="url(#mask0_808_24303)">
<path d="M34.8289 35.9943C38.138 34.1767 42.1095 34.0224 45.5497 35.5778L58.0037 41.2087C59.4652 41.8695 59.3652 43.0657 58.8445 44.5828C58.6338 45.1963 59.4158 45.7851 59.1602 46.3482C58.9885 46.7265 57.7999 47.0932 57.5852 47.4482C57.3036 47.9137 57.9772 48.359 57.5852 48.7837C57.1678 49.2359 56.6761 49.6646 56.0852 50.0694C55.5175 50.4583 54.8582 49.9423 54.0852 50.2863C53.7174 50.45 53.3239 51.4913 52.9023 51.6447C52.2094 51.8967 51.4406 51.252 50.5852 51.4758C49.6851 51.7113 48.6892 51.931 47.5852 52.1346C46.3849 52.356 45.0569 53.4411 43.5852 53.6241C42.9461 53.7035 42.2798 52.8966 41.5852 52.9688C41.0763 53.0216 40.5763 53.9489 40.0852 53.9855C39.2247 54.0497 38.3916 53.2068 37.5852 53.2243C36.9357 53.2384 36.3037 54.1208 35.6888 54.107C34.784 54.0868 33.9164 54.0375 33.0852 53.9626C31.8371 53.8501 30.6712 52.7971 29.5852 52.5806C28.9219 52.4483 28.2885 52.2988 27.6842 52.1346C26.9499 51.9351 26.2587 52.5966 25.6097 52.3585C24.9985 52.1343 24.4246 51.895 23.8874 51.6447C23.5556 51.49 24.2378 51.3312 23.9337 51.1691C23.6379 51.0113 22.3551 50.8505 22.0852 50.6874C21.7492 50.4844 21.4332 50.2778 21.1366 50.0694C20.7539 49.8005 21.4037 49.5284 21.0852 49.2566C20.9 49.0986 19.7256 48.9407 19.5617 48.7837C19.3262 48.558 19.1126 47.4512 18.9204 47.231C18.4456 46.6868 18.1016 47.0483 17.8818 46.581C17.5765 45.9319 17.9759 45.2509 18.6047 44.9055L34.8289 35.9943Z" fill="#CE2C24"/>
<path d="M37.8932 33.9098C39.316 33.3888 40.8695 33.3436 42.3203 33.7809L58.3841 38.6229C59.5264 38.9672 59.3906 39.6969 58.8445 40.7576C58.6338 41.1666 59.4158 41.5591 59.1602 41.9345C58.9885 42.1867 57.7999 42.4312 57.5852 42.6678C57.3036 42.9782 57.9772 43.2751 57.5852 43.5582C57.1678 43.8596 56.6761 44.1455 56.0852 44.4153C55.5175 44.6746 54.8582 44.3306 54.0852 44.5599C53.7174 44.6691 53.3239 45.3633 52.9023 45.4655C52.2094 45.6335 51.4406 45.2037 50.5852 45.3529C49.6851 45.5099 48.6892 45.6564 47.5852 45.7921C46.3849 45.9397 45.0569 46.6631 43.5852 46.7851C42.9461 46.8381 42.2798 46.3001 41.5852 46.3482C41.0763 46.3835 40.5763 47.0017 40.0852 47.0261C39.2247 47.0688 38.3916 46.5069 37.5852 46.5186C36.9357 46.528 36.3037 47.1162 35.6888 47.1071C34.784 47.0936 33.9164 47.0607 33.0852 47.0108C31.8371 46.9358 30.6712 46.2338 29.5852 46.0894C28.9219 46.0013 28.2885 45.9016 27.6842 45.7921C26.9499 45.6591 26.2587 46.1001 25.6097 45.9414C24.9985 45.7919 24.4246 45.6324 23.8874 45.4655C23.5556 45.3624 24.2378 45.2565 23.9337 45.1484C23.6379 45.0433 22.3551 44.9361 22.0852 44.8273C21.7492 44.692 21.4332 44.5543 21.1366 44.4153C20.7539 44.236 21.4037 44.0546 21.0852 43.8735C20.9 43.7681 19.7256 43.6629 19.5617 43.5582C19.3262 43.4077 19.1126 42.6699 18.9204 42.523C18.4456 42.1603 18.1016 42.4013 17.8818 42.0897C17.6004 41.6909 17.8899 41.2345 18.3482 41.0667L37.8932 33.9098Z" fill="#A51E17"/>
</g>
<circle cx="41.0852" cy="35.6072" r="0.5" fill="#CE2C24"/>
<circle cx="39.0852" cy="36.6072" r="0.5" fill="#DE8E00"/>
<circle cx="41.0852" cy="37.6072" r="0.5" fill="#FFD46B"/>
<circle cx="43.0852" cy="36.6072" r="0.5" fill="#CE2C24"/>
<circle cx="46.0852" cy="37.6072" r="0.5" fill="#DE8E00"/>
<circle cx="44.0852" cy="38.6072" r="0.5" fill="#FFD46B"/>
<circle cx="42.0852" cy="39.6072" r="0.5" fill="#DE8E00"/>
<circle cx="40.0852" cy="40.6072" r="0.5" fill="#CE2C24"/>
<circle cx="38.0852" cy="41.6072" r="0.5" fill="#CE2C24"/>
<circle cx="39.0852" cy="38.6072" r="0.5" fill="#CE2C24"/>
<circle cx="37.0852" cy="36.6072" r="0.5" fill="#FFD46B"/>
<circle cx="37.0852" cy="38.6072" r="0.5" fill="#DE8E00"/>
<circle cx="36.0852" cy="40.6072" r="0.5" fill="#FFD46B"/>
<circle cx="35.0852" cy="38.6072" r="0.5" fill="#CE2C24"/>
<circle cx="33.0852" cy="39.6072" r="0.5" fill="#DE8E00"/>
<circle cx="44.0852" cy="40.6072" r="0.5" fill="#CE2C24"/>
<circle cx="46.0852" cy="39.6072" r="0.5" fill="#CE2C24"/>
</svg>
