<svg width="64" height="64" viewBox="0 0 64 64" fill="none" xmlns="http://www.w3.org/2000/svg">
<g filter="url(#filter0_i_808_22890)">
<rect x="15" y="17" width="18" height="43" fill="#FFD46B"/>
</g>
<rect x="33" y="17" width="16" height="43" fill="#FFE088"/>
<rect x="33" y="29.5" width="16" height="16" fill="#FF9C98"/>
<path d="M33 17H49L40 7H24L33 17Z" fill="#FFF7D7"/>
<path d="M24 7H40V4C40 3.44772 39.5523 3 39 3H25C24.4477 3 24 3.44772 24 4V7Z" fill="#FFE088"/>
<path d="M33 17H15L24 7L33 17Z" fill="#FFC03A"/>
<path d="M24 7.5V54.5M24 54.5L15.5 59.5M24 54.5L33.5 59.5" stroke="#FFC03A" stroke-linecap="round"/>
<defs>
<filter id="filter0_i_808_22890" x="15" y="17" width="18" height="43" filterUnits="userSpaceOnUse" color-interpolation-filters="sRGB">
<feFlood flood-opacity="0" result="BackgroundImageFix"/>
<feBlend mode="normal" in="SourceGraphic" in2="BackgroundImageFix" result="shape"/>
<feColorMatrix in="SourceAlpha" type="matrix" values="0 0 0 0 0 0 0 0 0 0 0 0 0 0 0 0 0 0 127 0" result="hardAlpha"/>
<feOffset dx="3" dy="-3"/>
<feComposite in2="hardAlpha" operator="arithmetic" k2="-1" k3="1"/>
<feColorMatrix type="matrix" values="0 0 0 0 1 0 0 0 0 0.752941 0 0 0 0 0.227451 0 0 0 0.3 0"/>
<feBlend mode="normal" in2="shape" result="effect1_innerShadow_808_22890"/>
</filter>
</defs>
</svg>
