<svg width="64" height="64" viewBox="0 0 64 64" fill="none" xmlns="http://www.w3.org/2000/svg">
<g filter="url(#filter0_i_808_24299)">
<rect x="8.20929" y="51.8871" width="44.8603" height="9.0067" rx="2.13333" transform="rotate(-18 8.20929 51.8871)" fill="#98634E"/>
</g>
<rect x="10.7311" y="53.1721" width="28.4812" height="1.00074" rx="0.500372" transform="rotate(-18 10.7311 53.1721)" fill="#80503E"/>
<rect x="19.2733" y="53.5535" width="8.4663" height="1.00074" rx="0.500372" transform="rotate(-18 19.2733 53.5535)" fill="#80503E"/>
<rect x="38.6931" y="47.2437" width="8.4663" height="1.00074" rx="0.500372" transform="rotate(-18 38.6931 47.2437)" fill="#80503E"/>
<rect x="28.791" y="50.4611" width="3.00223" height="1.00074" rx="0.500372" transform="rotate(-18 28.791 50.4611)" fill="#80503E"/>
<rect x="45.9738" y="46.9824" width="3.00223" height="1.00074" rx="0.500372" transform="rotate(-18 45.9738 46.9824)" fill="#80503E"/>
<path d="M42.5408 17.5736L42.2635 15.8452C42.1565 15.2912 41.9697 14.7557 41.7088 14.2551C41.6101 13.9101 41.6132 13.5439 41.7177 13.2006C41.8222 12.8573 42.0238 12.5512 42.2982 12.3192C42.7812 11.9171 43.3716 11.6648 43.9966 11.5933C43.0607 12.3538 42.1595 13.1834 42.5754 14.0476C42.8097 14.6057 42.9277 15.2056 42.9221 15.8106C42.9029 16.4164 42.7738 17.0138 42.5408 17.5736Z" fill="#E82F3E"/>
<path d="M18.341 20.9904C18.2964 20.8413 18.205 20.7104 18.0802 20.6171C17.9553 20.5237 17.8037 20.4728 17.6477 20.4719C17.405 20.4719 17.2317 20.4719 16.885 20.4719C16.4355 20.4634 15.995 20.3447 15.6023 20.1262C15.0971 19.798 14.6993 19.3292 14.4583 18.778C14.2626 18.2849 14.2044 17.7482 14.2898 17.2248C14.3753 16.7015 14.6013 16.211 14.9437 15.8052C15.2467 15.4731 15.6117 15.2031 16.0183 15.0101C16.469 14.8373 16.8503 15.0102 17.093 14.699C17.3357 14.3879 17.093 15.2521 17.093 15.4249C17.0095 15.5882 16.9512 15.7629 16.9197 15.9434C16.8255 16.225 16.7558 16.5141 16.7116 16.8076C16.6603 17.1517 16.7211 17.5031 16.885 17.8101C16.885 18.0867 16.885 18.1213 17.613 18.6052C18.0472 18.8552 18.3971 19.2282 18.6184 19.6768C18.7917 20.0916 18.7916 20.783 18.341 20.9904Z" fill="#961B20"/>
<path d="M23.7882 12.3695C23.2996 12.3643 22.8212 12.2306 22.4011 11.9817C21.981 11.7329 21.6343 11.3777 21.3961 10.9523C20.8916 10.0857 20.7309 9.06219 20.9455 8.0833C20.9997 7.62391 21.1043 7.1719 21.2575 6.73527L21.5001 6.11299C21.5064 6.044 21.5064 5.97459 21.5001 5.9056C21.4151 5.18386 21.0848 4.51296 20.5641 4.00449C21.0962 3.97189 21.6239 4.11741 22.0636 4.41801C22.5032 4.7186 22.8297 5.15698 22.9909 5.66361C23.0775 6.00388 23.0775 6.36039 22.9909 6.70066L22.8175 7.25374C22.8175 7.63397 22.6095 8.01412 22.5402 8.35978C22.278 9.07206 22.2582 9.85061 22.4837 10.5752C22.7093 11.2999 23.1677 11.9304 23.7882 12.3695Z" fill="#FF6268"/>
<path d="M49.9683 27.9972C49.7949 28.3428 49.2055 27.9972 48.9629 27.9972C48.8627 27.8112 48.8104 27.6034 48.8104 27.3923C48.8104 27.1812 48.8627 26.9733 48.9629 26.7873C49.088 26.4559 49.2924 26.1598 49.5582 25.9249C49.824 25.69 50.1432 25.5233 50.4882 25.4392C51.0429 25.2318 50.9043 25.4392 51.1816 25.1973C51.2896 25.0259 51.3714 24.8395 51.4243 24.6442C51.4243 24.4368 51.6669 24.022 51.6669 24.0911C51.6669 24.1602 51.667 23.8146 51.8403 24.0911C51.924 24.1498 51.985 24.2352 52.0136 24.3331L52.291 24.7133C52.4118 25.0094 52.4708 25.327 52.4643 25.6466C52.4569 25.8599 52.4035 26.0691 52.3078 26.26C52.2121 26.4508 52.0763 26.6189 51.9096 26.7528C51.6408 26.9791 51.3187 27.1336 50.9736 27.2021C50.6778 27.2992 50.3884 27.4147 50.107 27.5478C50.107 27.5478 49.9336 27.5478 49.8643 27.7552C49.8656 27.8463 49.9029 27.9333 49.9683 27.9972Z" fill="#E82F3E"/>
<path d="M33.8074 15.6221C34.9579 17.2642 35.575 19.2188 35.5755 21.2219V23.123C36.195 23.1333 36.7998 22.9338 37.2909 22.557C37.7821 22.1803 38.1305 21.6487 38.2795 21.049L38.4528 20.2885L39.0074 20.9108C39.8746 21.9292 40.3507 23.2216 40.3507 24.5575C40.3507 25.8935 39.8746 27.1859 39.0074 28.2043C38.8299 28.3949 38.6917 28.6186 38.6009 28.8625C38.51 29.1064 38.4683 29.3657 38.4779 29.6257C38.4876 29.8857 38.5484 30.1413 38.6572 30.3778C38.7659 30.6143 38.9202 30.8271 39.1114 31.0042C39.3026 31.1812 39.527 31.319 39.7716 31.4096C40.0162 31.5002 40.2763 31.5419 40.537 31.5322C40.7978 31.5226 41.054 31.4618 41.2912 31.3534C41.5284 31.245 41.7419 31.0911 41.9194 30.9005H42.0928L43.5488 29.0338L45.0048 32.4905C45.6511 34.6558 45.6993 36.9549 45.144 39.1451C44.5888 41.3354 43.4507 43.3356 41.8501 44.9345L41.6768 45.1074C40.4578 46.3373 39.0055 47.313 37.4044 47.9777C35.8034 48.6424 34.0857 48.9827 32.3515 48.9788H30.8955C28.4024 48.9652 25.964 48.2482 23.8624 46.9108C21.7608 45.5734 20.0817 43.6703 19.0192 41.4214C17.9568 39.1725 17.5544 36.6696 17.8586 34.2023C18.1628 31.7349 19.1611 29.4038 20.7382 27.4784L26.5621 20.5651C27.1405 19.8732 27.5122 19.0332 27.6348 18.1409C27.7574 17.2485 27.6259 16.3399 27.2555 15.5184C26.8021 14.4816 26.7272 13.3192 27.0438 12.2331C27.3605 11.147 28.0487 10.2058 28.9888 9.57297L32.0741 7.53345V10.1605C32.071 12.1695 32.7017 14.1285 33.8768 15.7603L33.8074 15.6221Z" fill="#E82F3E"/>
<path d="M37.3091 44.0352C38.4314 42.9168 39.2323 41.5186 39.6286 39.9866C40.025 38.4546 40.0021 36.8447 39.5624 35.3245L37.4824 37.3985C37.0803 37.7932 36.5386 38.0145 35.9743 38.0145C35.4101 38.0145 34.8684 37.7932 34.4663 37.3985C34.1131 37.0105 33.9175 36.5052 33.9175 35.9812C33.9175 35.4572 34.1131 34.952 34.4663 34.564C35.1625 33.7207 35.6011 32.696 35.7302 31.6114C35.8592 30.5268 35.6732 29.4281 35.1943 28.4458L31.7276 21.7053L31.2076 27.4087C31.05 28.7653 30.3655 30.0062 29.3009 30.8654L26.3542 33.2505C25.5638 33.8729 24.9254 34.666 24.487 35.5701C24.0486 36.4743 23.8217 37.4658 23.8234 38.47V39.2651C23.8244 40.2485 24.0424 41.2196 24.4618 42.1097C24.8812 42.9997 25.4917 43.7869 26.2502 44.4154C27.4839 45.4185 29.0264 45.9678 30.6183 45.9709H32.6637C34.4348 45.9623 36.1303 45.2537 37.3784 44.0006L37.3091 44.0352Z" fill="#EA9D2D"/>
<circle cx="31.5394" cy="41.098" r="3.63732" fill="#FFD46B"/>
<g filter="url(#filter1_i_808_24299)">
<path d="M52.9127 54.3003C53.2962 53.1863 52.7041 51.9722 51.5901 51.5887L13.2081 38.3727C12.0941 37.9891 10.88 38.5812 10.4964 39.6952L8.95323 44.177C8.56964 45.291 9.16178 46.5051 10.2758 46.8887L48.6578 60.1047C49.7718 60.4882 50.9859 59.8961 51.3695 58.7821L52.9127 54.3003Z" fill="#98634E"/>
</g>
<rect width="28.4812" height="1.00074" rx="0.500372" transform="matrix(-0.945519 -0.325568 -0.325568 0.945519 51.0628 53.524)" fill="#80503E"/>
<rect width="8.4663" height="1.00074" rx="0.500372" transform="matrix(-0.945519 -0.325568 -0.325568 0.945519 42.5159 53.7562)" fill="#80503E"/>
<rect width="8.4663" height="1.00074" rx="0.500372" transform="matrix(-0.945519 -0.325568 -0.325568 0.945519 23.2092 47.1085)" fill="#80503E"/>
<rect width="3.00223" height="1.00074" rx="0.500372" transform="matrix(-0.945519 -0.325568 -0.325568 0.945519 33.0534 50.4982)" fill="#80503E"/>
<rect width="3.00223" height="1.00074" rx="0.500372" transform="matrix(-0.945519 -0.325568 -0.325568 0.945519 15.9342 46.7202)" fill="#80503E"/>
<defs>
<filter id="filter0_i_808_24299" x="8.76355" y="38.5787" width="44.3394" height="21.3199" filterUnits="userSpaceOnUse" color-interpolation-filters="sRGB">
<feFlood flood-opacity="0" result="BackgroundImageFix"/>
<feBlend mode="normal" in="SourceGraphic" in2="BackgroundImageFix" result="shape"/>
<feColorMatrix in="SourceAlpha" type="matrix" values="0 0 0 0 0 0 0 0 0 0 0 0 0 0 0 0 0 0 127 0" result="hardAlpha"/>
<feOffset dx="1.06667" dy="-2.13333"/>
<feComposite in2="hardAlpha" operator="arithmetic" k2="-1" k3="1"/>
<feColorMatrix type="matrix" values="0 0 0 0 0 0 0 0 0 0 0 0 0 0 0 0 0 0 0.25 0"/>
<feBlend mode="normal" in2="shape" result="effect1_innerShadow_808_24299"/>
</filter>
<filter id="filter1_i_808_24299" x="8.83643" y="38.2559" width="44.1931" height="21.9656" filterUnits="userSpaceOnUse" color-interpolation-filters="sRGB">
<feFlood flood-opacity="0" result="BackgroundImageFix"/>
<feBlend mode="normal" in="SourceGraphic" in2="BackgroundImageFix" result="shape"/>
<feColorMatrix in="SourceAlpha" type="matrix" values="0 0 0 0 0 0 0 0 0 0 0 0 0 0 0 0 0 0 127 0" result="hardAlpha"/>
<feOffset dx="-1.06667" dy="-2.13333"/>
<feComposite in2="hardAlpha" operator="arithmetic" k2="-1" k3="1"/>
<feColorMatrix type="matrix" values="0 0 0 0 0 0 0 0 0 0 0 0 0 0 0 0 0 0 0.25 0"/>
<feBlend mode="normal" in2="shape" result="effect1_innerShadow_808_24299"/>
</filter>
</defs>
</svg>
