<svg width="64" height="64" viewBox="0 0 64 64" fill="none" xmlns="http://www.w3.org/2000/svg">
<path d="M23.8651 17.4171C22.4415 19.0337 23.891 23.0072 24.7937 24.7919L29.5122 29.6893L32.3734 19.8373C32.37 19.0919 31.9148 17.3797 30.1218 16.4936C28.3289 15.6075 27.1422 16.8801 26.773 17.6272C26.3968 16.8836 25.2887 15.8005 23.8651 17.4171Z" fill="#027168"/>
<path d="M48.2359 16.8569C45.3763 17.4068 42.2991 22.4746 41.1179 24.9398C39.5589 26.2887 35.3711 29.7517 31.092 32.8126C29.8365 32.1029 29.2148 29.8399 29.0609 28.7971C29.054 27.3064 29.7951 23.1587 32.8145 18.4937C36.5888 12.6623 39.0453 11.9801 41.2866 13.0877C46.8559 8.58972 52.9181 13.9282 52.9233 15.0462C52.9285 16.1643 51.8105 16.1694 48.2359 16.8569Z" fill="#07AA7C"/>
<path d="M33.066 24.53C33.2191 24.1291 33.4321 23.6385 33.7028 23.0872M41.2917 14.2058C40.5682 14.6445 39.8862 15.1516 39.2475 15.7033M39.2475 15.7033C39.9289 15.2041 42.4548 14.2898 47.1075 14.626M39.2475 15.7033C37.9984 16.7824 36.9149 18.0321 36.0106 19.2738M36.0106 19.2738C36.5829 18.5589 38.9358 17.3025 43.769 17.9957M36.0106 19.2738C35.0209 20.6327 34.2457 21.9819 33.7028 23.0872M33.7028 23.0872C34.4547 22.5201 36.7194 21.5614 39.7638 22.2628" stroke="#027168" stroke-linecap="round"/>
<path d="M28.3735 25.2225L27.3462 20.6992M26.5473 17.1811L27.3462 20.6992M27.3462 20.6992C26.8577 19.8257 25.5227 18.0355 24.0908 17.8633" stroke="#005C55" stroke-linecap="round"/>
<path d="M28.7937 19.4067C28.9407 18.9588 29.3239 18.0179 29.6809 17.8374" stroke="#005C55" stroke-linecap="round"/>
<path d="M41.3538 27.622C37.0789 31.5774 31.3159 32.8861 29.5278 33.0435C26.1738 33.059 24.9764 32.2035 22.8093 30.8385C20.3423 29.2847 20.3267 25.9306 18.983 25.4897C17.6393 25.0487 16.9623 23.7101 18.5265 23.4793C20.1348 23.1141 21.4361 24.0621 21.8857 24.5818C21.8105 24.4331 21.8837 24.1346 22.7781 24.1304C23.6725 24.1263 24.3475 25.0176 24.5732 25.4638C24.4979 25.3151 24.5711 25.0166 25.4655 25.0124C26.5835 25.0072 26.5887 26.1253 27.0349 25.8996C27.4811 25.6739 28.3786 26.3406 29.2865 29.2433C29.2819 28.2635 29.7854 25.7358 30.9558 23.4654C31.1511 23.0863 31.678 23.1541 31.777 23.5689C32.2699 25.6348 32.4104 27.8271 32.4148 28.7815C33.0832 28.2566 34.5544 27.251 35.0919 27.4274C35.3124 26.7556 36.8766 26.5247 37.5484 26.7452C37.7689 26.0734 39.5536 25.1707 40.8973 25.6116C42.6768 23.5909 44.6975 25.3704 44.4771 26.0423C44.2566 26.7141 42.4667 26.4988 41.3538 27.622Z" fill="#0ACB81"/>
<path d="M29.5278 33.0435C28.6836 32.6586 27.4383 32.039 26.2409 31.3441M29.5278 33.0435C28.4046 31.9307 26.112 29.3922 25.9273 28.1408M29.5278 33.0435C29.9671 31.3271 30.0019 30.1408 31.271 26.1966M29.5278 33.0435C29.8218 32.1477 33.0019 30.1702 35.0019 29.6702M22.7989 28.6025C23.2072 29.4097 24.6836 30.4405 26.2409 31.3441M26.2409 31.3441C25.5156 30.4036 24.0344 28.3138 23.9118 27.4793" stroke="#027168" stroke-linecap="round"/>
<circle cx="38.5" cy="40.5" r="4.5" fill="#39378C"/>
<circle cx="24.5" cy="34.5" r="4.5" fill="#39378C"/>
<circle cx="25.5" cy="46.5" r="4.5" fill="#39378C"/>
<circle cx="29.5" cy="53.5" r="4.5" fill="#644ACA"/>
<circle cx="33.5" cy="34.5" r="4.5" fill="#644ACA"/>
<circle cx="29.5" cy="40.5" r="4.5" fill="#644ACA"/>
<circle cx="20.5" cy="40.5" r="4.5" fill="#644ACA"/>
<circle cx="33.5" cy="46.5" r="4.5" fill="#39378C"/>
<path opacity="0.5" d="M35.6882 47.1775C35.7774 48.6748 34.8089 49.2334 33.3116 49.3226" stroke="white" stroke-linecap="round"/>
<path opacity="0.5" d="M29 38C27.5 38 27 39 27 40.5" stroke="white" stroke-linecap="round"/>
<circle opacity="0.5" r="0.5" transform="matrix(-1 0 0 1 27 42)" fill="white"/>
<circle opacity="0.5" r="0.5" transform="matrix(-1 0 0 1 28 56)" fill="white"/>
</svg>
