<svg width="64" height="64" viewBox="0 0 64 64" fill="none" xmlns="http://www.w3.org/2000/svg">
<mask id="mask0_808_24313" style="mask-type:alpha" maskUnits="userSpaceOnUse" x="0" y="43" width="49" height="4">
<rect x="0.5" y="43.2115" width="48.4615" height="3.63462" fill="#D9D9D9"/>
</mask>
<g mask="url(#mask0_808_24313)">
<rect x="0.5" y="43.2115" width="48.4615" height="3.63462" fill="#D9D9D9"/>
<path d="M15.5265 45.4342C16.1946 45.4342 17.7712 45.0334 18.7332 45.0334C19.9357 45.0334 22.3407 45.835 24.3448 45.4342M14.7249 44.2317C17.9315 44.2317 17.5307 42.2275 20.7373 42.2275M20.7373 43.0292C20.7373 43.1628 21.2985 43.43 23.5432 43.43C26.349 43.43 28.3532 42.2275 30.3573 42.6284C31.9607 42.949 32.0943 43.2964 31.9607 43.43" stroke="black" stroke-width="0.25" stroke-linecap="round" stroke-linejoin="round"/>
<path d="M0.295166 45.4342H1.49766" stroke="black" stroke-width="0.25" stroke-linecap="round" stroke-linejoin="round"/>
<path d="M3.50171 45.0334H5.10504" stroke="black" stroke-width="0.25" stroke-linecap="round" stroke-linejoin="round"/>
<path d="M6.70837 45.0334H7.10921" stroke="black" stroke-width="0.25" stroke-linecap="round" stroke-linejoin="round"/>
<path d="M11.5182 45.0334H11.919" stroke="black" stroke-width="0.25" stroke-linecap="round" stroke-linejoin="round"/>
<path d="M0.295166 46.6367C2.43294 46.3695 7.10932 45.8351 8.71265 45.8351C10.7168 45.8351 13.9235 47.0376 17.1301 46.2359" stroke="black" stroke-width="0.25" stroke-linecap="round" stroke-linejoin="round"/>
<path d="M0.295166 43.8308C0.562388 43.8308 1.177 43.911 1.49766 44.2316" stroke="black" stroke-width="0.25" stroke-linecap="round" stroke-linejoin="round"/>
<path d="M0.295166 43.0292C0.829609 43.0292 2.21916 43.1093 3.50183 43.43C5.10516 43.8308 5.50599 44.2317 7.51015 44.2317C9.51431 44.2317 10.7168 43.43 11.9193 43.43C13.1218 43.43 15.0198 43.2827 15.5268 43.0292C16.3285 42.6283 17.1301 41.8267 17.531 41.8267" stroke="black" stroke-width="0.25" stroke-linecap="round" stroke-linejoin="round"/>
<path d="M33.3292 46.6459C32.6611 46.6459 31.0845 46.245 30.1225 46.245C28.92 46.245 26.515 47.0467 24.5109 46.6459M34.1309 45.4434C30.9242 45.4434 31.325 43.4392 28.1184 43.4392M28.1184 44.2409C28.1184 44.3745 27.5572 44.6417 25.3125 44.6417C22.5067 44.6417 20.5026 43.4392 18.4984 43.84C16.8951 44.1607 16.7614 44.5081 16.8951 44.6417" stroke="black" stroke-width="0.25" stroke-linecap="round" stroke-linejoin="round"/>
<path d="M48.5609 46.6458H47.3584" stroke="black" stroke-width="0.25" stroke-linecap="round" stroke-linejoin="round"/>
<path d="M46.9575 43.0382C46.5567 43.1718 45.5947 43.439 44.9534 43.439C44.312 43.439 43.35 43.439 42.9492 43.439" stroke="black" stroke-width="0.25" stroke-linecap="round" stroke-linejoin="round"/>
<path d="M40.9449 43.4392H40.1433" stroke="black" stroke-width="0.25" stroke-linecap="round" stroke-linejoin="round"/>
<path d="M45.3542 46.245H43.7509" stroke="black" stroke-width="0.25" stroke-linecap="round" stroke-linejoin="round"/>
<path d="M38.54 43.4392H38.1392" stroke="black" stroke-width="0.25" stroke-linecap="round" stroke-linejoin="round"/>
<path d="M42.1477 46.245H41.7469" stroke="black" stroke-width="0.25" stroke-linecap="round" stroke-linejoin="round"/>
<path d="M37.3375 46.245H36.9367" stroke="black" stroke-width="0.25" stroke-linecap="round" stroke-linejoin="round"/>
<path d="M48.5609 45.0424C48.2937 45.0424 47.6791 45.1225 47.3584 45.4432" stroke="black" stroke-width="0.25" stroke-linecap="round" stroke-linejoin="round"/>
<path d="M48.5609 44.2407C48.0265 44.2407 46.6369 44.3209 45.3543 44.6415C43.7509 45.0424 43.3501 45.4432 41.3459 45.4432C39.3418 45.4432 38.1393 44.6415 36.9368 44.6415C35.7343 44.6415 33.8363 44.4942 33.3293 44.2407C32.5276 43.8399 31.7259 43.0382 31.3251 43.0382" stroke="black" stroke-width="0.25" stroke-linecap="round" stroke-linejoin="round"/>
</g>
<mask id="mask1_808_24313" style="mask-type:alpha" maskUnits="userSpaceOnUse" x="0" y="43" width="49" height="9">
<rect x="0.5" y="43" width="48.4615" height="9" fill="#D9D9D9"/>
</mask>
<g mask="url(#mask1_808_24313)">
<rect x="0.5" y="43" width="48.4615" height="9" fill="#98634E"/>
<rect x="2.5" y="45" width="28.46" height="1" rx="0.5" fill="#80503E"/>
<rect x="10.5" y="48" width="8.46" height="1" rx="0.5" fill="#80503E"/>
<rect x="37.5" y="48" width="8.46" height="1" rx="0.5" fill="#80503E"/>
<rect x="20.5" y="48" width="3" height="1" rx="0.5" fill="#80503E"/>
<rect x="44.5" y="50" width="3" height="1" rx="0.5" fill="#80503E"/>
</g>
<path d="M0.5 43H63.5C63.5 41.8954 62.6046 41 61.5 41H2.5C1.39543 41 0.5 41.8954 0.5 43Z" fill="#5E3F33"/>
<mask id="mask2_808_24313" style="mask-type:alpha" maskUnits="userSpaceOnUse" x="48" y="43" width="16" height="9">
<rect width="14.5385" height="9" transform="matrix(-1 0 0 1 63.5 43)" fill="#D9D9D9"/>
</mask>
<g mask="url(#mask2_808_24313)">
<rect width="14.5385" height="9" transform="matrix(-1 0 0 1 63.5 43)" fill="#80503E"/>
</g>
<path d="M2.36703 29.9556C11.9315 31.7884 18.5896 28.9973 21.076 27.1312C21.2266 27.0182 21.1882 26.7912 21.0115 26.7264C14.6972 24.4133 6.25656 26.9001 2.27311 29.5247C2.092 29.644 2.15403 29.9148 2.36703 29.9556Z" fill="#07AA7C"/>
<path fill-rule="evenodd" clip-rule="evenodd" d="M2.35797 29.519C2.31128 29.5173 2.26321 29.5312 2.22431 29.5571C2.06244 29.6648 2.11883 29.9077 2.30971 29.9446C11.4183 31.7055 17.8997 29.2729 20.6649 27.4222C21.0105 27.1908 20.9334 26.6913 20.5378 26.5631C20.4259 26.5269 20.3058 26.5289 20.1946 26.5671C15.458 28.1953 9.21262 29.7735 2.35797 29.519Z" fill="#027168"/>
<path d="M5.8431 40.0109C13.9062 39.7558 17.8845 34.2543 19.0578 31.0597C19.1541 30.7977 18.9979 30.5164 18.7252 30.4567C12.9008 29.1818 7.43594 34.7479 5.39556 39.3571C5.25462 39.6755 5.49509 40.0219 5.8431 40.0109Z" fill="#07AA7C"/>
<path fill-rule="evenodd" clip-rule="evenodd" d="M5.50737 39.4005C5.41316 39.4277 5.3341 39.4972 5.29608 39.5876C5.20816 39.7966 5.36779 40.0211 5.59446 40.017C13.7215 39.8704 17.7704 34.4259 19.012 31.182C19.1371 30.8552 18.9395 30.4988 18.5965 30.4296C18.3829 30.3865 18.1695 30.4691 18.0267 30.6336C15.0256 34.0939 10.866 37.8564 5.50737 39.4005Z" fill="#027168"/>
<path d="M6.09806 23.9862C12.796 27.9537 18.5744 27.7177 21.0287 27.0027C21.2095 26.95 21.252 26.7237 21.1072 26.6035C16.9514 23.1532 9.94226 22.6909 6.15781 23.5534C5.94635 23.6016 5.91145 23.8757 6.09806 23.9862Z" fill="#07AA7C"/>
<path fill-rule="evenodd" clip-rule="evenodd" d="M6.1226 23.5963C6.08738 23.5819 6.04675 23.5792 6.0098 23.5881C5.85606 23.6254 5.83156 23.8269 5.96724 23.9083C12.4434 27.7906 18.0777 27.7343 20.7076 27.0885C21.0363 27.0078 21.1165 26.6043 20.8496 26.3962C20.7741 26.3374 20.6817 26.3055 20.586 26.3037C16.5102 26.2305 11.2943 25.699 6.1226 23.5963Z" fill="#027168"/>
<path d="M16.7564 18.5648C17.5161 23.3711 19.9757 26.0017 21.2541 26.8182C21.3175 26.8587 21.3981 26.8133 21.3987 26.738C21.4259 23.3912 18.8031 19.8559 16.907 18.4699C16.8369 18.4187 16.7428 18.4792 16.7564 18.5648Z" fill="#07AA7C"/>
<path fill-rule="evenodd" clip-rule="evenodd" d="M16.9651 18.5384C16.958 18.5166 16.9435 18.4967 16.925 18.483C16.8479 18.4263 16.745 18.4933 16.7601 18.5878C17.4793 23.0993 19.6967 25.6888 21.0188 26.6565C21.184 26.7775 21.4021 26.6577 21.3948 26.4531C21.3927 26.3952 21.3716 26.34 21.3351 26.295C19.784 24.3774 18.0018 21.7532 16.9651 18.5384Z" fill="#027168"/>
<path d="M21.627 26.9806C21.024 28.4594 20.533 32.668 23.3932 37.6719C24.1963 35.2072 24.1303 29.9656 21.627 26.9806Z" fill="#07AA7C"/>
<path fill-rule="evenodd" clip-rule="evenodd" d="M23.4834 37.3693C23.4546 37.4743 23.4245 37.5753 23.3929 37.672C20.5327 32.6681 21.0237 28.4595 21.6268 26.9807C21.755 27.1335 21.8767 27.2923 21.9923 27.4563C21.9385 30.2189 22.1649 33.7918 23.4834 37.3693Z" fill="#027168"/>
<ellipse cx="16.8598" cy="38.0035" rx="2.62624" ry="3.32657" transform="rotate(22 16.8598 38.0035)" fill="#132245"/>
<mask id="path-42-inside-1_808_24313" fill="white">
<ellipse cx="17.9295" cy="35.3559" rx="0.833488" ry="0.471063" transform="rotate(22 17.9295 35.3559)"/>
</mask>
<ellipse cx="17.9295" cy="35.3559" rx="0.833488" ry="0.471063" transform="rotate(22 17.9295 35.3559)" fill="#5E3F33"/>
<path d="M17.7751 35.2935C17.8449 35.1208 17.9631 35.0138 18.055 34.9582C18.1403 34.9065 18.205 34.8961 18.2211 34.894C18.2498 34.8903 18.2112 34.8993 18.1276 34.8655L17.3784 36.7199C17.7216 36.8585 18.1089 36.9259 18.4812 36.877C18.8188 36.8328 19.3862 36.6449 19.6294 36.0428L17.7751 35.2935ZM18.1276 34.8655C18.044 34.8317 18.0225 34.7985 18.0406 34.8211C18.0506 34.8338 18.09 34.8861 18.1155 34.9826C18.1429 35.0865 18.1536 35.2456 18.0839 35.4183L16.2295 34.6691C15.9862 35.2712 16.2638 35.8005 16.4759 36.0669C16.7098 36.3606 17.0352 36.5812 17.3784 36.7199L18.1276 34.8655ZM18.0839 35.4183C18.0141 35.591 17.8959 35.698 17.804 35.7537C17.7186 35.8054 17.6539 35.8157 17.6379 35.8178C17.6092 35.8216 17.6477 35.8126 17.7313 35.8463L18.4805 33.992C18.1373 33.8533 17.75 33.786 17.3777 33.8348C17.0401 33.8791 16.4728 34.067 16.2295 34.6691L18.0839 35.4183ZM17.7313 35.8463C17.8149 35.8801 17.8364 35.9134 17.8184 35.8907C17.8083 35.8781 17.7689 35.8257 17.7434 35.7292C17.716 35.6254 17.7053 35.4663 17.7751 35.2935L19.6294 36.0428C19.8727 35.4407 19.5951 34.9114 19.383 34.645C19.1492 34.3513 18.8237 34.1306 18.4805 33.992L17.7313 35.8463Z" fill="#5E3F33" mask="url(#path-42-inside-1_808_24313)"/>
<ellipse cx="9.23231" cy="33.6224" rx="3.30997" ry="4.80281" transform="rotate(70 9.23231 33.6224)" fill="#132245"/>
<mask id="path-45-inside-2_808_24313" fill="white">
<ellipse cx="13.3356" cy="32.2183" rx="0.989826" ry="0.466786" transform="rotate(70 13.3356 32.2183)"/>
</mask>
<ellipse cx="13.3356" cy="32.2183" rx="0.989826" ry="0.466786" transform="rotate(70 13.3356 32.2183)" fill="#5E3F33"/>
<path d="M13.3321 32.2088C13.5586 32.1263 13.7519 32.1704 13.8496 32.2096C13.9397 32.2458 13.9764 32.2862 13.9688 32.2788C13.9545 32.2645 13.8912 32.1859 13.8366 32.036L11.9572 32.72C12.0896 33.0837 12.2938 33.4344 12.5608 33.6991C12.7667 33.9032 13.3183 34.3421 14.0161 34.0881L13.3321 32.2088ZM13.8366 32.036C13.7821 31.886 13.78 31.7851 13.7818 31.765C13.7828 31.7544 13.7807 31.809 13.7349 31.8946C13.6853 31.9875 13.5655 32.1455 13.3391 32.2279L12.655 30.3485C11.9572 30.6025 11.8167 31.2933 11.7902 31.582C11.7558 31.9564 11.8248 32.3562 11.9572 32.72L13.8366 32.036ZM13.3391 32.2279C13.1126 32.3103 12.9192 32.2663 12.8216 32.227C12.7315 32.1908 12.6948 32.1504 12.7023 32.1579C12.7167 32.1721 12.7799 32.2508 12.8345 32.4007L14.7139 31.7167C14.5815 31.3529 14.3773 31.0022 14.1104 30.7376C13.9045 30.5334 13.3529 30.0945 12.655 30.3485L13.3391 32.2279ZM12.8345 32.4007C12.8891 32.5506 12.8912 32.6516 12.8893 32.6717C12.8883 32.6822 12.8905 32.6277 12.9362 32.542C12.9858 32.4492 13.1056 32.2912 13.3321 32.2088L14.0161 34.0881C14.714 33.8341 14.8544 33.1433 14.8809 32.8546C14.9153 32.4803 14.8463 32.0804 14.7139 31.7167L12.8345 32.4007Z" fill="#5E3F33" mask="url(#path-45-inside-2_808_24313)"/>
<path d="M18.067 35.5001C18.1742 34.2973 18.6731 32.234 19.8165 29.8785M27.5002 21.9999C24.4695 24.5011 21.0451 27.3475 19.8165 29.8785M19.8165 29.8785C18.1224 30.6311 14.449 32.1671 13.3082 32.2896" stroke="#5E3F33" stroke-linecap="round" stroke-linejoin="round"/>
<path d="M58.5168 23.988L45.4992 11L33.6919 17.2579C33.8367 17.53 33.9078 17.8353 33.8984 18.1435C33.8999 18.5739 33.7589 18.9927 33.4972 19.3345C33.2355 19.6762 32.868 19.9217 32.4521 20.0326C32.0273 20.1381 31.5795 20.0997 31.1788 19.9234C30.7782 19.7471 30.4474 19.443 30.2382 19.0585L20.9104 23.988H58.5168Z" fill="#FFD782"/>
<path d="M57.2766 29.1829C57.7331 29.1848 58.1811 29.307 58.5754 29.5371V23.9877H20.8214V37.1234C21.1659 37.1234 21.4962 37.2602 21.7398 37.5038C21.9834 37.7474 22.1202 38.0777 22.1202 38.4222C22.1202 38.7666 21.9834 39.097 21.7398 39.3406C21.4962 39.5841 21.1659 39.721 20.8214 39.721V41.0198H58.5164V34.1715C58.1714 34.3729 57.7846 34.4919 57.3862 34.5195C56.9877 34.5471 56.5883 34.4824 56.2189 34.3305C55.8495 34.1786 55.5201 33.9436 55.2564 33.6436C54.9926 33.3437 54.8014 32.987 54.6979 32.6012C54.5944 32.2154 54.5813 31.811 54.6596 31.4193C54.7378 31.0276 54.9053 30.6593 55.1491 30.3429C55.3928 30.0265 55.7062 29.7705 56.0649 29.595C56.4237 29.4194 56.8181 29.3288 57.2175 29.3305L57.2766 29.1829Z" fill="#FDBD40"/>
<path d="M29.9129 29.8324C29.9129 30.4746 29.7224 31.1023 29.3656 31.6363C29.0088 32.1702 28.5017 32.5864 27.9084 32.8322C27.3151 33.078 26.6622 33.1423 26.0324 33.017C25.4025 32.8917 24.8239 32.5825 24.3698 32.1284C23.9157 31.6743 23.6065 31.0957 23.4812 30.4658C23.3559 29.836 23.4202 29.1831 23.666 28.5898C23.9117 27.9964 24.3279 27.4894 24.8618 27.1326C25.3958 26.7758 26.0236 26.5853 26.6658 26.5853C27.0922 26.5853 27.5145 26.6693 27.9084 26.8325C28.3024 26.9957 28.6603 27.2349 28.9618 27.5364C29.2633 27.8379 29.5025 28.1958 29.6657 28.5898C29.8288 28.9837 29.9129 29.406 29.9129 29.8324Z" fill="#E97424"/>
<path d="M39.0042 36.3264C39.0042 36.8431 38.799 37.3386 38.4336 37.7039C38.0683 38.0693 37.5727 38.2746 37.056 38.2746C36.5393 38.2746 36.0438 38.0693 35.6785 37.7039C35.3131 37.3386 35.1078 36.8431 35.1078 36.3264C35.1078 35.8097 35.3131 35.3141 35.6785 34.9488C36.0438 34.5834 36.5393 34.3782 37.056 34.3782C37.5727 34.3782 38.0683 34.5834 38.4336 34.9488C38.799 35.3141 39.0042 35.8097 39.0042 36.3264Z" fill="#E97424"/>
<path d="M44.1994 16.8443C44.1994 16.1064 43.3434 15.5455 42.2512 15.5455C41.159 15.5455 40.303 16.1064 40.303 16.8443C40.303 17.5823 41.1885 18.1432 42.2512 18.1432C43.3139 18.1432 44.1994 17.5528 44.1994 16.8443Z" fill="#E97424"/>
<path d="M51.3733 20.0917C51.3733 19.3537 50.4877 18.7928 49.3955 18.7928C48.3033 18.7928 47.4474 19.3537 47.4474 20.0917C47.4474 20.8296 48.3329 21.3905 49.3955 21.3905C50.4582 21.3905 51.3733 20.8001 51.3733 20.0917Z" fill="#E97424"/>
<path d="M44.2 29.1832C44.2 29.5277 44.0632 29.858 43.8196 30.1016C43.5761 30.3452 43.2457 30.482 42.9012 30.482C42.5568 30.482 42.2264 30.3452 41.9828 30.1016C41.7393 29.858 41.6024 29.5277 41.6024 29.1832C41.6024 28.8387 41.7393 28.5084 41.9828 28.2648C42.2264 28.0212 42.5568 27.8844 42.9012 27.8844C43.2457 27.8844 43.5761 28.0212 43.8196 28.2648C44.0632 28.5084 44.2 28.8387 44.2 29.1832Z" fill="#E97424"/>
<path d="M49.3953 27.8841C49.3953 28.2286 49.2585 28.559 49.0149 28.8025C48.7714 29.0461 48.441 29.183 48.0965 29.183C47.7521 29.183 47.4217 29.0461 47.1781 28.8025C46.9346 28.559 46.7977 28.2286 46.7977 27.8841C46.7977 27.5397 46.9346 27.2093 47.1781 26.9657C47.4217 26.7222 47.7521 26.5853 48.0965 26.5853C48.441 26.5853 48.7714 26.7222 49.0149 26.9657C49.2585 27.2093 49.3953 27.5397 49.3953 27.8841Z" fill="#E97424"/>
<path d="M53.3209 37.1234C53.3209 37.4679 53.184 37.7982 52.9405 38.0418C52.6969 38.2854 52.3665 38.4222 52.0221 38.4222C51.6776 38.4222 51.3473 38.2854 51.1037 38.0418C50.8601 37.7982 50.7233 37.4679 50.7233 37.1234C50.7233 36.7789 50.8601 36.4486 51.1037 36.205C51.3473 35.9614 51.6776 35.8246 52.0221 35.8246C52.3665 35.8246 52.6969 35.9614 52.9405 36.205C53.184 36.4486 53.3209 36.7789 53.3209 37.1234Z" fill="#E97424"/>
</svg>
