<svg width="64" height="64" viewBox="0 0 64 64" fill="none" xmlns="http://www.w3.org/2000/svg">
<ellipse cx="31.2208" cy="35.3332" rx="27.5167" ry="3.70417" fill="#FFD46B"/>
<path fill-rule="evenodd" clip-rule="evenodd" d="M58.3917 35.8083C61.623 35.0624 63.5 34.1724 63.5 33.2166C63.5 30.5863 49.285 28.4541 31.75 28.4541C14.215 28.4541 0 30.5863 0 33.2166C0 34.0135 1.30468 34.7646 3.6111 35.4246C6.83098 33.8478 17.7353 32.6874 30.6917 32.6874C44.6782 32.6874 56.2735 34.0396 58.3917 35.8083Z" fill="#97B9D6"/>
<path d="M49.8362 28.9527C49.7399 28.5655 49.1788 28.6645 49.1696 28.3004C49.1623 28.0096 49.6286 28.0769 49.5685 27.6714C49.4933 27.1645 47.7018 27.4131 45.9897 27.9042C44.2132 28.4137 43.6831 30.2537 42.8312 30.1857C41.9793 30.1178 41.8664 28.6581 40.7117 27.5083C39.5569 26.3585 37.1091 26.0092 36.9073 26.2205C36.7055 26.4317 37.2547 26.8165 37.0389 27.1075C36.823 27.3986 36.2198 27.0865 36.1706 27.3658C36.1213 27.6451 36.7363 28.1237 36.687 28.403C36.6378 28.6823 35.5864 28.5792 35.5442 28.8185C35.502 29.0579 36.0206 29.1494 35.9644 29.4686C35.9081 29.7877 35.3026 29.7221 35.2534 30.0014C35.2041 30.2807 35.6359 30.3979 35.5937 30.6373C35.5515 30.8767 35.0916 30.919 35.0493 31.1584C35.0071 31.3978 35.5986 31.5432 35.5493 31.8225C35.5001 32.1017 34.9932 32.1769 35.0308 32.4303C35.0683 32.6838 35.8193 32.8574 35.8639 33.0709C35.9085 33.2845 35.1881 33.4042 35.2257 33.6577C35.2633 33.9111 35.9837 33.7914 35.9884 33.9979C35.9932 34.2044 35.5473 34.1669 35.5755 34.7067C35.6037 35.2464 38.5207 34.5678 40.161 33.664C41.8013 32.7603 41.5313 31.7254 42.7751 31.9036C44.0189 32.0818 43.5497 33.1097 44.789 34.4801C46.0283 35.8504 48.6592 36.5612 48.7882 36.2959C48.9172 36.0307 48.5206 35.714 48.6825 35.4957C48.8444 35.2774 49.3449 35.7005 49.4358 35.4229C49.525 35.1506 48.9546 34.8855 49.0109 34.5663C49.0672 34.2472 49.7853 34.3738 49.8346 34.0945C49.8838 33.8152 49.3652 33.7238 49.4144 33.4445C49.4637 33.1652 49.9893 33.2168 50.0386 32.9375C50.0878 32.6582 49.6231 32.494 49.6255 32.2476C49.6278 32.0012 50.2192 32.1466 50.2356 31.8204C50.2519 31.4942 49.6018 31.215 49.637 31.0155C49.6722 30.8161 50.1979 30.8676 50.2143 30.5414C50.2306 30.2152 49.3928 30.0675 49.3623 29.7741C49.3317 29.4808 49.9325 29.3399 49.8362 28.9527Z" fill="#FFC03A"/>
<path d="M27.2256 30.5289C27.1837 30.1322 27.7449 30.0333 27.6289 29.688C27.5363 29.4122 27.1212 29.635 27.039 29.2333C26.9362 28.7313 28.7048 28.3522 30.4816 28.2281C32.3252 28.0993 33.4526 29.647 34.2299 29.2918C35.0072 28.9366 34.614 27.5263 35.3059 26.0509C35.9978 24.5755 38.1785 23.4101 38.4403 23.5396C38.7022 23.669 38.3177 24.2185 38.6201 24.4181C38.9225 24.6178 39.3826 24.1183 39.5244 24.3638C39.6662 24.6094 39.252 25.2695 39.3938 25.5151C39.5356 25.7607 40.4883 25.3042 40.6099 25.5148C40.7314 25.7253 40.2753 25.9886 40.4373 26.2693C40.5994 26.5499 41.1459 26.2812 41.2877 26.5268C41.4295 26.7724 41.0638 27.0303 41.1854 27.2408C41.3069 27.4513 41.7536 27.3337 41.8751 27.5442C41.9967 27.7547 41.4907 28.0937 41.6325 28.3392C41.7742 28.5848 42.2763 28.4821 42.3276 28.7331C42.379 28.9841 41.7327 29.4041 41.7638 29.62C41.7949 29.8359 42.5129 29.7021 42.5642 29.9531C42.6156 30.2041 41.8976 30.338 41.9638 30.5337C42.03 30.7293 42.4362 30.5416 42.5943 31.0585C42.7524 31.5753 39.7792 31.9353 37.9287 31.6471C36.0783 31.3588 35.9781 30.294 34.8702 30.8868C33.7623 31.4797 34.5548 32.2852 33.8589 33.9968C33.1631 35.7083 30.9339 37.276 30.722 37.0709C30.51 36.8658 30.7744 36.4325 30.5476 36.2828C30.3208 36.133 29.9952 36.7018 29.8148 36.472C29.6379 36.2467 30.0832 35.8025 29.9211 35.5218C29.7591 35.2411 29.1276 35.6057 28.9858 35.3601C28.844 35.1145 29.3001 34.8512 29.1583 34.6056C29.0165 34.36 28.5401 34.5883 28.3984 34.3427C28.2566 34.0971 28.6371 33.7838 28.5506 33.5531C28.4642 33.3223 27.9582 33.6612 27.8312 33.3603C27.7042 33.0594 28.2196 32.5747 28.1184 32.3993C28.0171 32.2238 27.5407 32.4521 27.4138 32.1512C27.2868 31.8502 28.0236 31.4249 27.9519 31.1388C27.8803 30.8526 27.2676 30.9257 27.2256 30.5289Z" fill="#FFC03A"/>
<path d="M32.0813 32.0271C30.4443 32.8612 30.1806 31.3002 31.3954 30.6812C32.4753 30.131 33.7147 30.2107 34.5516 29.7843C35.5977 29.2512 35.5964 28.6647 36.8286 27.9128C38.0608 27.161 39.4391 27.9473 37.9868 29.0181C36.5346 30.0889 35.9849 29.4261 34.7021 30.0797C33.4197 30.7331 33.6673 31.219 32.0813 32.0271Z" fill="#DB9C2A"/>
<path d="M44.8362 32.9527C44.7399 32.5655 44.1788 32.6645 44.1696 32.3004C44.1623 32.0096 44.6286 32.0769 44.5685 31.6714C44.4933 31.1645 42.7018 31.4131 40.9897 31.9042C39.2132 32.4137 38.6831 34.2537 37.8312 34.1857C36.9793 34.1178 36.8664 32.6581 35.7117 31.5083C34.5569 30.3585 32.1091 30.0092 31.9073 30.2205C31.7055 30.4317 32.2547 30.8165 32.0389 31.1075C31.823 31.3986 31.2198 31.0865 31.1706 31.3658C31.1213 31.6451 31.7363 32.1237 31.687 32.403C31.6378 32.6823 30.5864 32.5792 30.5442 32.8185C30.502 33.0579 31.0206 33.1494 30.9644 33.4686C30.9081 33.7877 30.3026 33.7221 30.2534 34.0014C30.2041 34.2807 30.6359 34.3979 30.5937 34.6373C30.5515 34.8767 30.0916 34.919 30.0493 35.1584C30.0071 35.3978 30.5986 35.5432 30.5493 35.8225C30.5001 36.1017 29.9932 36.1769 30.0308 36.4303C30.0683 36.6838 30.8193 36.8574 30.8639 37.0709C30.9085 37.2845 30.1881 37.4042 30.2257 37.6577C30.2633 37.9111 30.9837 37.7914 30.9884 37.9979C30.9932 38.2044 30.5473 38.1669 30.5755 38.7067C30.6037 39.2464 33.5207 38.5678 35.161 37.664C36.8013 36.7603 36.5313 35.7254 37.7751 35.9036C39.0189 36.0818 38.5497 37.1097 39.789 38.4801C41.0283 39.8504 43.6592 40.5612 43.7882 40.2959C43.9172 40.0307 43.5206 39.714 43.6825 39.4957C43.8444 39.2774 44.3449 39.7005 44.4358 39.4229C44.525 39.1506 43.9546 38.8855 44.0109 38.5663C44.0672 38.2472 44.7853 38.3738 44.8346 38.0945C44.8838 37.8152 44.3652 37.7238 44.4144 37.4445C44.4637 37.1652 44.9893 37.2168 45.0386 36.9375C45.0878 36.6582 44.6231 36.494 44.6255 36.2476C44.6278 36.0012 45.2192 36.1466 45.2356 35.8204C45.2519 35.4942 44.6018 35.215 44.637 35.0155C44.6722 34.8161 45.1979 34.8676 45.2143 34.5414C45.2306 34.2152 44.3928 34.0675 44.3623 33.7741C44.3317 33.4808 44.9325 33.3399 44.8362 32.9527Z" fill="#FFC03A"/>
<path d="M40.7858 36.0213C42.6093 36.2452 42.3232 34.6881 40.9699 34.5219C39.767 34.3742 38.6297 34.873 37.6974 34.7585C36.532 34.6154 36.3326 34.0639 34.9176 33.7788C33.5026 33.4937 32.4764 34.704 34.2073 35.2135C35.9382 35.723 36.228 34.9122 37.657 35.0877C39.0855 35.2631 39.019 35.8043 40.7858 36.0213Z" fill="#DB9C2A"/>
<path d="M39.8204 28.4447C39.8242 28.8437 40.3931 28.8775 40.3175 29.2338C40.2572 29.5183 39.8192 29.3447 39.7836 29.7531C39.7392 30.2636 41.5396 30.4372 43.3189 30.3566C45.1651 30.273 46.1075 28.6062 46.9204 28.8698C47.7333 29.1335 47.5045 30.5796 48.3612 31.9658C49.2178 33.352 51.5178 34.2595 51.7631 34.1008C52.0084 33.9422 51.5634 33.4405 51.8409 33.2074C52.1184 32.9744 52.6327 33.4178 52.7454 33.1576C52.8581 32.8973 52.3709 32.2891 52.4836 32.0289C52.5963 31.7686 53.5951 32.1128 53.6916 31.8897C53.7882 31.6666 53.3049 31.4574 53.4337 31.16C53.5624 30.8626 54.1362 31.0668 54.2489 30.8066C54.3615 30.5463 53.9687 30.3321 54.0652 30.109C54.1618 29.886 54.6191 29.9515 54.7156 29.7284C54.8122 29.5054 54.2706 29.2268 54.3833 28.9665C54.496 28.7063 55.0065 28.7507 55.0287 28.4955C55.0509 28.2402 54.3607 27.8972 54.3668 27.6791C54.3729 27.4611 55.1015 27.5116 55.1237 27.2564C55.1459 27.0011 54.4174 26.9506 54.4607 26.7486C54.504 26.5466 54.929 26.6865 55.0267 26.1549C55.1244 25.6233 52.1296 25.6069 50.3244 26.1056C48.5193 26.6043 48.5419 27.6736 47.3733 27.2118C46.2048 26.75 46.8996 25.8589 46.0119 24.2385C45.1242 22.6181 42.7299 21.3166 42.5428 21.5447C42.3558 21.7727 42.6682 22.1728 42.4601 22.3476C42.252 22.5224 41.8632 21.9948 41.7104 22.2438C41.5606 22.4879 42.0539 22.8781 41.9251 23.1755C41.7963 23.4729 41.1271 23.1832 41.0145 23.4434C40.9018 23.7036 41.3851 23.9129 41.2724 24.1731C41.1598 24.4334 40.6604 24.2613 40.5477 24.5215C40.435 24.7818 40.8489 25.0493 40.7895 25.2885C40.7302 25.5276 40.1886 25.249 40.097 25.5625C40.0054 25.876 40.573 26.2984 40.4926 26.4842C40.4121 26.6701 39.9127 26.4981 39.8211 26.8116C39.7295 27.1251 40.5102 27.4631 40.4719 27.7555C40.4336 28.048 39.8165 28.0457 39.8204 28.4447Z" fill="#FFC03A"/>
<path d="M44.4721 26.399C42.7502 25.7583 42.6674 27.3393 43.9453 27.8148C45.0812 28.2375 46.3031 28.016 47.1835 28.3436C48.2839 28.753 48.3499 29.3358 49.6602 29.9413C50.9705 30.5468 52.2495 29.6075 50.684 28.7104C49.1184 27.8134 48.6484 28.5349 47.2991 28.0328C45.9502 27.5309 46.1404 27.0198 44.4721 26.399Z" fill="#DB9C2A"/>
<path d="M60.7531 31.5701C60.7958 31.9668 60.2348 32.0669 60.3514 32.4119C60.4446 32.6875 60.8593 32.4639 60.9423 32.8654C61.046 33.3672 59.2782 33.7498 57.5016 33.8774C55.6583 34.0098 54.5278 32.4644 53.7512 32.8212C52.9747 33.1779 53.3706 34.5874 52.6817 36.0641C51.9927 37.5409 49.8143 38.7106 49.5522 38.5817C49.2901 38.4527 49.6734 37.9025 49.3707 37.7035C49.0679 37.5044 48.6088 38.0048 48.4665 37.7595C48.3242 37.5142 48.7371 36.8533 48.5948 36.608C48.4525 36.3627 47.5007 36.821 47.3788 36.6108C47.2568 36.4005 47.7124 36.1363 47.5498 35.8559C47.3872 35.5756 46.8412 35.8454 46.6989 35.6001C46.5566 35.3548 46.9218 35.0962 46.7999 34.8859C46.6779 34.6756 46.2314 34.7941 46.1095 34.5838C45.9875 34.3735 46.4929 34.0336 46.3506 33.7883C46.2083 33.543 45.7065 33.6467 45.6546 33.3958C45.6028 33.1449 46.2483 32.7237 46.2167 32.5078C46.1852 32.2919 45.4675 32.4272 45.4156 32.1763C45.3638 31.9253 46.0815 31.7901 46.0149 31.5945C45.9483 31.399 45.5425 31.5875 45.3834 31.071C45.2243 30.5544 48.1967 30.1886 50.0478 30.4732C51.8988 30.7577 52.0011 31.8224 53.1078 31.2273C54.2145 30.6323 53.4204 29.8284 54.1129 28.1154C54.8054 26.4025 57.0314 24.8304 57.2438 25.0351C57.4562 25.2397 57.1926 25.6736 57.4197 25.8229C57.6468 25.9722 57.9713 25.4028 58.1521 25.6322C58.3295 25.8572 57.8851 26.3023 58.0477 26.5826C58.2103 26.863 58.8411 26.4971 58.9834 26.7424C59.1256 26.9878 58.6701 27.252 58.8123 27.4973C58.9546 27.7426 59.4305 27.5134 59.5728 27.7587C59.7151 28.004 59.3352 28.318 59.4221 28.5486C59.509 28.7792 60.0144 28.4393 60.1419 28.74C60.2695 29.0407 59.755 29.5264 59.8566 29.7016C59.9583 29.8768 60.4342 29.6476 60.5617 29.9483C60.6893 30.249 59.9534 30.6758 60.0255 30.9618C60.0977 31.2477 60.7103 31.1734 60.7531 31.5701Z" fill="#FFC03A"/>
<path d="M55.8944 30.0815C57.5297 29.2442 57.7965 30.8047 56.5829 31.4261C55.5041 31.9785 54.2646 31.9012 53.4285 32.3293C52.3834 32.8644 52.3859 33.4509 51.1552 34.2052C49.9245 34.9595 48.5446 34.1759 49.9948 33.1022C51.4449 32.0286 51.9959 32.6903 53.2774 32.0341C54.5585 31.3782 54.3099 30.8928 55.8944 30.0815Z" fill="#DB9C2A"/>
<path d="M3.03547 26.5886C3.11998 26.9449 3.24765 27.2895 3.41558 27.6149C3.61124 27.9407 3.85467 28.2354 4.13775 28.489C8.33395 31.9405 13.585 33.8518 19.018 33.9052C25.4414 33.9052 32.606 32.1948 35.2285 30.2564C35.708 29.9814 36.0723 29.5429 36.2548 29.0212C36.3239 28.7286 36.3558 28.4285 36.3498 28.128C36.3516 28.0963 36.3516 28.0646 36.3498 28.033C36.3587 28.0704 36.3587 28.1095 36.3498 28.147V35.5655C36.3337 36.1571 36.1453 36.7312 35.8077 37.2173C35.4702 37.7034 34.9981 38.0804 34.4494 38.3021C29.8109 39.9616 24.9132 40.779 19.9872 40.7156C18.866 40.7156 17.7067 40.7156 16.5094 40.5826C12.5214 39.9682 8.63469 39.4879 4.95491 37.8322C4.40969 37.5841 3.94367 37.1901 3.6083 36.6937C3.27293 36.1974 3.08126 35.618 3.0545 35.0196V26.7217C3.04452 26.6779 3.03815 26.6334 3.03547 26.5886Z" fill="#6A3400"/>
<path d="M3.33958 24.3272C4.63187 22.0277 8.58473 21.0015 11.5874 20.8115C15.9203 20.5454 24.2822 24.1562 25.5175 24.7073C30.3065 24.1372 33.5752 24.5743 35.2096 25.9616C35.5281 26.2119 35.7919 26.5249 35.9847 26.8812C36.1776 27.2374 36.2954 27.6295 36.3308 28.033C36.3327 28.0647 36.3327 28.0964 36.3308 28.128C36.3369 28.4286 36.3049 28.7287 36.2358 29.0212C36.0533 29.5429 35.689 29.9814 35.2096 30.2565C32.587 32.1569 25.4224 33.9053 18.999 33.9053C13.566 33.8519 8.31496 31.9405 4.11876 28.4891C3.83569 28.2355 3.59225 27.9408 3.3966 27.6149C3.22866 27.2896 3.10106 26.945 3.01655 26.5887C2.82415 25.8216 2.94011 25.0097 3.33958 24.3272ZM4.40381 27.0828C5.27801 28.7362 12.0055 32.7841 19.018 32.7841C27.1708 32.7841 34.8485 30.0855 35.1716 28.7552C35.2089 28.567 35.2089 28.3732 35.1716 28.185C35.1539 27.9191 35.0805 27.6598 34.956 27.4241C34.8316 27.1883 34.659 26.9814 34.4494 26.8167C33.4612 25.9806 31.1047 25.1444 25.4414 25.8285H25.1564C25.0614 25.8285 15.9014 21.7236 11.6064 22.0277C8.12864 22.2368 5.10699 23.453 4.25181 24.9733C4.09297 25.3082 4.02346 25.6785 4.05009 26.0481C4.07674 26.4178 4.1986 26.7742 4.40381 27.0828Z" fill="#804400"/>
<path d="M11.4028 21.7586C15.8369 21.484 25.2936 25.6826 25.3917 25.6826H25.686C31.572 24.9763 33.9656 25.8395 34.9858 26.7028C35.2022 26.8728 35.3804 27.0864 35.5088 27.3298C35.6373 27.5732 35.7131 27.8408 35.7313 28.1154C35.7699 28.3097 35.7699 28.5097 35.7313 28.704C35.3978 30.0774 27.4714 32.8634 19.0545 32.8634C11.8541 32.8634 4.86943 28.6844 3.96692 26.9775C3.74619 26.6425 3.62052 26.2539 3.60324 25.8531C3.58597 25.4523 3.67776 25.0543 3.86885 24.7016C4.69288 23.2301 7.81241 21.9745 11.4028 21.7586ZM27.2164 30.3521C27.3232 30.4511 27.4631 30.5071 27.6088 30.509C27.7606 30.5083 27.9069 30.4525 28.0208 30.3521L31.0422 27.3306C31.098 27.2775 31.1424 27.2136 31.1728 27.1428C31.2031 27.0719 31.2188 26.9956 31.2188 26.9186C31.2188 26.8415 31.2031 26.7653 31.1728 26.6945C31.1424 26.6237 31.098 26.5597 31.0422 26.5066C30.9332 26.4045 30.7894 26.3477 30.64 26.3477C30.4906 26.3477 30.3469 26.4045 30.2378 26.5066L27.2164 29.5281C27.1606 29.5812 27.1161 29.6451 27.0858 29.7159C27.0554 29.7868 27.0398 29.863 27.0398 29.9401C27.0398 30.0171 27.0554 30.0934 27.0858 30.1642C27.1161 30.235 27.1606 30.2989 27.2164 30.3521ZM21.3304 32.216C21.3836 32.2718 21.4475 32.3162 21.5183 32.3465C21.5891 32.3769 21.6654 32.3925 21.7424 32.3925C21.8977 32.3903 22.0458 32.3269 22.1545 32.216L27.0398 27.3306C27.0956 27.2775 27.14 27.2136 27.1704 27.1428C27.2007 27.0719 27.2164 26.9956 27.2164 26.9186C27.2164 26.8415 27.2007 26.7653 27.1704 26.6945C27.14 26.6237 27.0956 26.5597 27.0398 26.5066C26.9307 26.4045 26.7869 26.3477 26.6376 26.3477C26.4882 26.3477 26.3444 26.4045 26.2354 26.5066L21.3304 31.4115C21.2284 31.5206 21.1716 31.6644 21.1716 31.8138C21.1716 31.9631 21.2284 32.1069 21.3304 32.216ZM17.8773 31.647C17.9929 31.7445 18.1382 31.7998 18.2894 31.804C18.4412 31.8032 18.5875 31.7474 18.7014 31.647L23.5867 26.742C23.6891 26.6345 23.7454 26.4912 23.7436 26.3427C23.7418 26.1942 23.682 26.0523 23.577 25.9473C23.472 25.8423 23.3301 25.7825 23.1816 25.7807C23.0332 25.7789 22.8898 25.8352 22.7823 25.9376L17.8773 30.823C17.7712 30.9328 17.7103 31.0785 17.7067 31.2311C17.7031 31.3838 17.757 31.5322 17.8578 31.647H17.8773ZM14.4439 30.4894C14.4933 30.5447 14.5538 30.5889 14.6213 30.6193C14.6889 30.6497 14.7622 30.6656 14.8363 30.666C14.9133 30.666 14.9896 30.6503 15.0604 30.62C15.1312 30.5896 15.1952 30.5452 15.2483 30.4894L20.1337 25.6041C20.1895 25.551 20.2338 25.487 20.2642 25.4162C20.2945 25.3454 20.3102 25.2692 20.3102 25.1921C20.3102 25.115 20.2945 25.0388 20.2642 24.9679C20.2338 24.8971 20.1895 24.8332 20.1337 24.78C20.0246 24.678 19.8808 24.6212 19.7314 24.6212C19.5821 24.6212 19.4383 24.678 19.3292 24.78L14.4439 29.685C14.3873 29.735 14.3418 29.7962 14.3099 29.8647C14.2781 29.9331 14.2607 30.0074 14.2589 30.0829C14.257 30.1584 14.2708 30.2335 14.2992 30.3034C14.3277 30.3734 14.3703 30.4367 14.4243 30.4894H14.4439ZM10.9908 29.3318C11.0402 29.3871 11.1007 29.4314 11.1683 29.4618C11.2359 29.4922 11.3091 29.5081 11.3832 29.5084C11.4602 29.5084 11.5365 29.4928 11.6074 29.4624C11.6782 29.4321 11.7421 29.3876 11.7953 29.3318L16.7002 24.4465C16.8023 24.3375 16.859 24.1937 16.859 24.0443C16.859 23.8949 16.8023 23.7512 16.7002 23.6421C16.6471 23.5863 16.5831 23.5419 16.5123 23.5115C16.4415 23.4812 16.3652 23.4656 16.2881 23.4656C16.2111 23.4656 16.1349 23.4812 16.064 23.5115C15.9932 23.5419 15.9293 23.5863 15.8761 23.6421L10.9908 28.5274C10.9343 28.5775 10.8887 28.6386 10.8568 28.7071C10.825 28.7756 10.8076 28.8499 10.8058 28.9254C10.8039 29.0008 10.8177 29.0759 10.8461 29.1459C10.8746 29.2158 10.9172 29.2791 10.9712 29.3318H10.9908ZM9.40164 26.899C9.51722 26.9965 9.66248 27.0518 9.81364 27.0559C9.96543 27.0552 10.1118 26.9994 10.2256 26.899L13.2471 23.8775C13.3321 23.7642 13.3734 23.624 13.3633 23.4827C13.3533 23.3413 13.2926 23.2084 13.1924 23.1082C13.0922 23.008 12.9592 22.9473 12.8179 22.9373C12.6766 22.9272 12.5364 22.9685 12.423 23.0536L9.40164 26.075C9.29552 26.1848 9.23457 26.3305 9.23094 26.4832C9.2273 26.6358 9.28123 26.7843 9.382 26.899H9.40164Z" fill="#D77F4A"/>
<path d="M30.2385 26.5067C30.3476 26.4047 30.4913 26.3479 30.6407 26.3479C30.7901 26.3479 30.9339 26.4047 31.0429 26.5067C31.0987 26.5599 31.1431 26.6238 31.1735 26.6946C31.2038 26.7655 31.2195 26.8417 31.2195 26.9187C31.2195 26.9958 31.2038 27.0721 31.1735 27.1429C31.1431 27.2137 31.0987 27.2777 31.0429 27.3308L28.0215 30.3522C27.9076 30.4526 27.7613 30.5084 27.6095 30.5092C27.4637 30.5073 27.3239 30.4513 27.217 30.3522C27.1612 30.2991 27.1168 30.2352 27.0865 30.1644C27.0561 30.0936 27.0405 30.0173 27.0405 29.9402C27.0405 29.8632 27.0561 29.7869 27.0865 29.7161C27.1168 29.6453 27.1612 29.5814 27.217 29.5282L30.2385 26.5067Z" fill="#904D24"/>
<path d="M12.4045 23.0537C12.5178 22.9687 12.658 22.9273 12.7993 22.9374C12.9407 22.9474 13.0736 23.0082 13.1738 23.1083C13.274 23.2085 13.3347 23.3415 13.3447 23.4828C13.3548 23.6241 13.3135 23.7643 13.2285 23.8777L10.207 26.8991C10.0932 26.9995 9.9468 27.0553 9.795 27.0561C9.64385 27.052 9.49858 26.9966 9.38301 26.8991C9.2796 26.7868 9.22218 26.6398 9.22218 26.4871C9.22218 26.3345 9.2796 26.1874 9.38301 26.0751L12.4045 23.0537Z" fill="#904D24"/>
<path d="M26.216 26.5067C26.325 26.4047 26.4689 26.3479 26.6182 26.3479C26.7676 26.3479 26.9113 26.4047 27.0204 26.5067C27.0762 26.5599 27.1206 26.6238 27.151 26.6946C27.1813 26.7655 27.197 26.8417 27.197 26.9187C27.197 26.9958 27.1813 27.0721 27.151 27.1429C27.1206 27.2137 27.0762 27.2777 27.0204 27.3308L22.1351 32.2161C22.0264 32.327 21.8784 32.3905 21.7231 32.3927C21.646 32.3927 21.5698 32.377 21.4989 32.3467C21.4281 32.3163 21.3642 32.2719 21.311 32.2161C21.209 32.1071 21.1522 31.9633 21.1522 31.8139C21.1522 31.6646 21.209 31.5207 21.311 31.4117L26.216 26.5067Z" fill="#904D24"/>
<path d="M22.7635 25.9378C22.871 25.8354 23.0143 25.7791 23.1628 25.7809C23.3113 25.7827 23.4532 25.8425 23.5582 25.9475C23.6632 26.0525 23.723 26.1944 23.7248 26.3429C23.7266 26.4914 23.6703 26.6347 23.5679 26.7422L18.6825 31.6472C18.5687 31.7476 18.4223 31.8034 18.2705 31.8042C18.1194 31.8 17.9741 31.7447 17.8585 31.6472C17.7551 31.5349 17.6977 31.3878 17.6977 31.2352C17.6977 31.0825 17.7551 30.9355 17.8585 30.8232L22.7635 25.9378Z" fill="#904D24"/>
<path d="M19.369 24.741C19.478 24.6389 19.6218 24.5822 19.7712 24.5822C19.9205 24.5822 20.0643 24.6389 20.1734 24.741C20.2292 24.7941 20.2736 24.8581 20.304 24.9289C20.3343 24.9997 20.35 25.0759 20.35 25.153C20.35 25.2301 20.3343 25.3063 20.304 25.3772C20.2736 25.448 20.2292 25.5119 20.1734 25.5651L15.2881 30.4504C15.235 30.5062 15.171 30.5506 15.1002 30.5809C15.0294 30.6113 14.9531 30.6269 14.876 30.6269C14.8019 30.6266 14.7287 30.6107 14.6612 30.5803C14.5936 30.5499 14.5331 30.5056 14.4837 30.4504C14.4284 30.399 14.3843 30.3367 14.3542 30.2675C14.324 30.1983 14.3085 30.1236 14.3085 30.0481C14.3085 29.9726 14.324 29.898 14.3542 29.8288C14.3843 29.7596 14.4284 29.6974 14.4837 29.6459L19.369 24.741Z" fill="#904D24"/>
<path d="M15.8566 23.6421C15.9097 23.5863 15.9737 23.5419 16.0445 23.5116C16.1153 23.4812 16.1916 23.4656 16.2687 23.4656C16.3457 23.4656 16.4219 23.4812 16.4928 23.5116C16.5636 23.5419 16.6275 23.5863 16.6807 23.6421C16.7827 23.7512 16.8395 23.895 16.8395 24.0443C16.8395 24.1937 16.7827 24.3375 16.6807 24.4466L11.7757 29.3319C11.7226 29.3877 11.6587 29.4321 11.5878 29.4625C11.517 29.4928 11.4408 29.5084 11.3637 29.5084C11.2896 29.5081 11.2164 29.4922 11.1488 29.4618C11.0812 29.4314 11.0207 29.3871 10.9713 29.3319C10.916 29.2805 10.872 29.2182 10.8418 29.149C10.8117 29.0798 10.7962 29.0052 10.7962 28.9297C10.7962 28.8542 10.8117 28.7795 10.8418 28.7103C10.872 28.6411 10.916 28.5789 10.9713 28.5275L15.8566 23.6421Z" fill="#904D24"/>
<path opacity="0.4" d="M4.91652 35.6036C8.59629 37.2593 12.483 38.4099 16.471 39.0243C17.6683 39.1193 18.8275 39.1573 19.9488 39.1573C24.1985 39.1648 28.4279 38.5698 32.5105 37.39C32.953 36.8568 33.1891 36.1823 33.1757 35.4895V27.957C33.137 27.5542 33.0178 27.1633 32.8252 26.8075C32.6326 26.4517 32.3705 26.1382 32.0545 25.8855C30.6922 24.928 29.0634 24.4228 27.3984 24.4412C31.1993 24.1941 33.7838 24.6692 35.2091 25.8665C35.5276 26.1169 35.7914 26.4299 35.9843 26.7862C36.1771 27.1424 36.295 27.5344 36.3304 27.938C36.3393 27.9755 36.3393 28.0145 36.3304 28.052V35.4705C36.3143 36.0621 36.1259 36.6362 35.7884 37.1223C35.4508 37.6084 34.9787 37.9854 34.43 38.2071C31.2041 39.3826 27.8361 36.7723 24.4148 37.06C23.0275 37.174 21.5451 40.6206 19.9678 40.6206C18.8465 40.6206 17.6873 40.6207 16.4901 40.4877C12.502 39.8733 8.61526 38.7226 4.93548 37.0669C4.39026 36.8187 3.92424 36.4248 3.58887 35.9284C3.2535 35.4321 3.06183 34.8527 3.03506 34.2543V32.6959C3.04263 33.3087 3.22326 33.9068 3.55616 34.4213C3.88906 34.9357 4.36068 35.3456 4.91652 35.6036Z" fill="#4C1D00"/>
<path d="M18.9417 29.6458C20.5682 30.1133 19.6618 32.5459 21.3026 32.6032C21.8541 32.6225 22.0284 30.5228 23.0294 30.1993C24.0331 29.8749 26.3109 31.3414 26.311 30.3139C26.3112 29.0624 24.1319 29.2578 23.5801 28.1981C23.0986 27.2733 25.4573 26.6964 24.331 25.5701C22.9939 24.7944 21.3683 26.4633 20.5964 26.1692C18.9393 25.5379 20.1859 23.7064 18.1336 23.296C16.0813 22.8855 14.4393 24.2811 14.4394 24.9378C14.4395 26.1692 15.2603 25.7502 15.2603 27.4005C15.2603 28.5615 13.7341 29.8785 14.8499 30.1993C16.4764 30.6668 17.3152 29.1783 18.9417 29.6458Z" fill="#FBE297"/>
<path d="M25.602 28.2889C25.3625 28.2798 25.1177 28.2637 24.8686 28.241M13.8524 22.6632C14.1013 23.3584 14.6511 24.0338 15.4044 24.6614M15.4044 24.6614C15.2813 24.2411 15.0475 23.2588 15.0966 22.6914M15.4044 24.6614C15.0421 24.5392 14.1199 24.1511 13.3294 23.5763M15.4044 24.6614C15.5371 24.7719 15.6762 24.881 15.821 24.9885M15.821 24.9885C15.3096 24.8755 14.108 24.6444 13.3924 24.6243M15.821 24.9885C16.2426 25.3012 16.7132 25.6001 17.2196 25.8812M17.2196 25.8812C16.4325 25.8676 14.672 25.844 13.9261 25.8583M17.2196 25.8812C17.3606 25.9595 17.5044 26.0365 17.6507 26.1119M17.6507 26.1119C17.2387 25.4863 16.3877 24.0739 16.2795 23.4289M17.6507 26.1119C18.0342 26.3097 18.4348 26.4975 18.8474 26.6739M18.8474 26.6739C18.3262 26.6253 17.0367 26.6005 16.0485 26.8896M18.8474 26.6739C18.4873 26.3093 17.7699 25.3689 17.7815 24.5241M18.8474 26.6739C19.29 26.863 19.7464 27.039 20.2104 27.1999M21.4863 27.5992C20.9918 27.227 19.8346 26.2578 19.161 25.3586M21.4863 27.5992C21.0579 27.4793 20.6311 27.3458 20.2104 27.1999M21.4863 27.5992C21.8713 27.7069 22.2575 27.8036 22.6416 27.8882M20.2104 27.1999C19.798 27.2435 18.8348 27.3918 18.2809 27.6363M22.6416 27.8882C22.0962 27.867 20.928 27.8326 20.6178 27.8645M22.6416 27.8882C22.9233 27.9503 23.2039 28.0058 23.482 28.0545M23.482 28.0545C23.0087 28.0848 21.7629 28.3091 20.5655 28.9635M23.482 28.0545C23.9537 28.1371 24.4181 28.1999 24.8686 28.241M24.8686 28.241C24.4254 28.2106 23.3122 28.423 22.4048 29.5162" stroke="#07AA7C" stroke-linecap="round" stroke-linejoin="round"/>
<path d="M39.3059 34.6647C40.027 32.6836 42.2175 31.6621 43.7635 33.5789C46.1798 33.1043 47.2013 35.2949 46.4802 37.276C45.7592 39.2571 43.5686 40.2786 41.5874 39.5575C39.6063 38.8365 38.5848 36.6459 39.3059 34.6647Z" fill="#F43B3B"/>
<path d="M43.4274 32.2125C42.7984 32.7455 42.7793 33.718 42.813 34.1335C43.2885 34.0711 44.254 33.8408 44.5938 33.4522C44.9337 33.0635 44.8747 32.1263 44.8027 31.7063C44.6064 31.653 44.0564 31.6796 43.4274 32.2125Z" fill="#027168"/>
<path d="M55.3512 33.1822C54.4404 30.6796 51.6733 29.3893 49.7204 31.8106C46.6681 31.211 45.3778 33.9781 46.2887 36.4807C47.1995 38.9832 49.9666 40.2736 52.4692 39.3627C54.9718 38.4519 56.2621 35.6847 55.3512 33.1822Z" fill="#F43B3B"/>
<path fill-rule="evenodd" clip-rule="evenodd" d="M47.4561 32.0845C46.9216 33.007 46.8493 34.2746 47.2883 35.4807C48.1992 37.9832 50.9663 39.2736 53.4689 38.3627C53.9172 38.1995 54.3266 37.9768 54.6914 37.7067C54.148 38.4399 53.3906 39.0272 52.4689 39.3627C49.9663 40.2736 47.1992 38.9832 46.2883 36.4807C45.6514 34.7308 46.0907 32.8516 47.4561 32.0845Z" fill="#D61D1D"/>
<path d="M48.3084 32.6272C49.3176 32.8841 50.3325 32.1914 50.7353 31.8523C50.3228 31.4086 49.3785 30.5838 48.7296 30.5188C48.0807 30.4538 47.1595 31.2011 46.78 31.5828C46.8689 31.8239 47.2992 32.3704 48.3084 32.6272Z" fill="#07AA7C"/>
<path d="M51.8066 31.1333C51.2943 32.04 50.0921 32.294 49.5686 32.3504C49.5334 31.7456 49.5906 30.4932 49.9924 29.9795C50.3942 29.4658 51.571 29.3171 52.1092 29.307C52.2219 29.538 52.319 30.2267 51.8066 31.1333Z" fill="#07AA7C"/>
<path d="M7.90304 40.1535L2.1167 34.8567C2.1167 34.8567 13.2292 37.1323 31.75 37.1323C50.2709 37.1323 61.3834 34.9097 61.3834 34.9097L56.288 39.9201C55.4604 40.7339 54.4724 41.3673 53.3498 41.662C50.4225 42.4305 43.5509 43.7997 31.75 43.7997C19.6871 43.7997 13.0609 42.369 10.3987 41.6117C9.45581 41.3435 8.6261 40.8154 7.90304 40.1535Z" fill="#D1E1EE" stroke="#D1E1EE" stroke-width="1.05833"/>
<path opacity="0.4" d="M35.9834 41.1539C29.6334 41.6831 17.145 41.2597 11.6417 39.5664" stroke="#97B9D6" stroke-width="1.05833" stroke-linecap="round"/>
</svg>
