<svg width="64" height="64" viewBox="0 0 64 64" fill="none" xmlns="http://www.w3.org/2000/svg">
<rect x="15" y="38" width="35" height="10" fill="#EBB23A"/>
<rect x="15" y="12" width="35" height="26" fill="#F5CA62"/>
<path d="M18.8516 6.22265C18.9443 6.08355 19.1004 6 19.2676 6H45.7324C45.8996 6 46.0557 6.08355 46.1484 6.22265L50 12H15L18.8516 6.22265Z" fill="#EBB23A"/>
<path d="M50 38L60 48V58L50 48V38Z" fill="#FBE297"/>
<path d="M50 12L53.1464 8.85355C53.4614 8.53857 54 8.76165 54 9.20711V33.7929C54 33.9255 53.9473 34.0527 53.8536 34.1464L50 38V12Z" fill="#FBE297"/>
<path d="M15 12L11.8536 8.85355C11.5386 8.53857 11 8.76165 11 9.20711V33.7929C11 33.9255 11.0527 34.0527 11.1464 34.1464L15 38V12Z" fill="#FBE297"/>
<path d="M15 38L5 48V58L15 48V38Z" fill="#FBE297"/>
<path d="M15.0941 47.0149C14.8591 45.8537 15.8397 44.8508 17.0244 44.8657C24.6614 44.9613 41.5552 44.7022 48.6289 44.7787C49.7318 44.7907 50.625 45.7233 50.3831 46.7995C49.2621 51.7872 44.2027 53.626 32.815 54.0105C21.2819 54.3998 16.3471 53.2056 15.0941 47.0149Z" fill="#EA9A5F"/>
<path d="M39.1197 50.4831C41.0103 48.5924 46.8398 46.2291 49.5182 45.2838C40.065 44.6536 20.2132 43.5822 16.432 44.3385C22.5765 44.8111 35.811 48.5924 39.1197 50.4831Z" fill="#FFC03A"/>
<mask id="mask0_808_22898" style="mask-type:alpha" maskUnits="userSpaceOnUse" x="14" y="39" width="37" height="8">
<path d="M14.7326 42.7184C14.694 41.6145 15.5577 40.6884 16.6616 40.6498L48.452 39.5397C49.5559 39.5011 50.482 40.3647 50.5205 41.4686L50.5881 43.4047C50.6258 44.4822 49.8043 45.3955 48.7286 45.4696C45.5684 45.6874 38.9854 46.1408 32.5025 46.5866C25.9931 47.0342 19.6552 46.8329 16.66 46.6883C15.6387 46.6389 14.8406 45.8114 14.8049 44.7895L14.7326 42.7184Z" fill="#98634E"/>
</mask>
<g mask="url(#mask0_808_22898)">
<path d="M14.7326 42.7184C14.694 41.6145 15.5577 40.6884 16.6616 40.6498L48.452 39.5397C49.5559 39.5011 50.482 40.3647 50.5205 41.4686L50.5881 43.4047C50.6258 44.4822 49.8043 45.3955 48.7286 45.4696C45.5684 45.6874 38.9854 46.1408 32.5025 46.5866C25.9931 47.0342 19.6552 46.8329 16.66 46.6883C15.6387 46.6389 14.8406 45.8114 14.8049 44.7895L14.7326 42.7184Z" fill="#824D39"/>
<g opacity="0.1">
<path d="M16.5533 40.7196L17.4981 40.6866L17.7029 46.5536C17.7029 46.5536 17.4714 46.8736 17.2446 47.1854C17.0179 47.4973 16.7582 46.5866 16.7582 46.5866L16.5533 40.7196Z" fill="#381608"/>
<path d="M12.7833 42.3248L58.1311 40.7413L58.1607 41.5883C58.1607 41.5883 46.5256 42.0396 35.1343 42.4813C23.7429 42.923 12.8129 43.1719 12.8129 43.1719L12.7833 42.3248Z" fill="#381608"/>
<path d="M12.7833 45.1608L58.1311 43.5772L58.1607 44.4242C58.1607 44.4242 46.5256 44.8756 35.1343 45.3173C23.7429 45.7589 12.8129 46.0078 12.8129 46.0078L12.7833 45.1608Z" fill="#381608"/>
<path d="M19.3893 40.7196L20.334 40.6866L20.5389 46.5536C20.5389 46.5536 20.3074 46.8736 20.0806 47.1854C19.8539 47.4973 19.5942 46.5866 19.5942 46.5866L19.3893 40.7196Z" fill="#381608"/>
<path d="M22.2252 40.7196L23.17 40.6866L23.3748 46.5536C23.3748 46.5536 23.1433 46.8736 22.9165 47.1854C22.6898 47.4973 22.4301 46.5866 22.4301 46.5866L22.2252 40.7196Z" fill="#381608"/>
<path d="M25.0612 40.7196L26.0059 40.6866L26.2108 46.5536C26.2108 46.5536 25.9793 46.8736 25.7525 47.1854C25.5258 47.4973 25.2661 46.5866 25.2661 46.5866L25.0612 40.7196Z" fill="#381608"/>
<path d="M27.8972 40.7196L28.8419 40.6866L29.0468 46.5536C29.0468 46.5536 28.8152 46.8736 28.5885 47.1854C28.3617 47.4973 28.102 46.5866 28.102 46.5866L27.8972 40.7196Z" fill="#381608"/>
<path d="M30.7331 40.7196L31.6779 40.6866L31.8827 46.5536C31.8827 46.5536 31.6512 46.8736 31.4244 47.1854C31.1977 47.4973 30.938 46.5866 30.938 46.5866L30.7331 40.7196Z" fill="#381608"/>
<path d="M33.5691 40.7196L34.5138 40.6866L34.7187 46.5536C34.7187 46.5536 34.4872 46.8736 34.2604 47.1854C34.0337 47.4973 33.774 46.5866 33.774 46.5866L33.5691 40.7196Z" fill="#381608"/>
<path d="M36.405 40.7196L37.3498 40.6866L37.5547 46.5536C37.5547 46.5536 37.3231 46.8736 37.0964 47.1854C36.8696 47.4973 36.6099 46.5866 36.6099 46.5866L36.405 40.7196Z" fill="#381608"/>
<path d="M39.241 40.7196L40.1857 40.6866L40.3906 46.5536C40.3906 46.5536 40.1591 46.8736 39.9323 47.1854C39.7056 47.4973 39.4459 46.5866 39.4459 46.5866L39.241 40.7196Z" fill="#381608"/>
<path d="M42.077 40.7196L43.0217 40.6866L43.2266 46.5536C43.2266 46.5536 42.995 46.8736 42.7683 47.1854C42.5415 47.4973 42.2818 46.5866 42.2818 46.5866L42.077 40.7196Z" fill="#381608"/>
<path d="M44.9129 39.7743L45.8577 39.7413L46.0626 45.6083C46.0626 45.6083 45.831 45.9283 45.6043 46.2401C45.3775 46.552 45.1178 45.6413 45.1178 45.6413L44.9129 39.7743Z" fill="#381608"/>
<path d="M47.7489 39.7743L48.6936 39.7413L48.8985 45.6083C48.8985 45.6083 48.667 45.9283 48.4402 46.2401C48.2135 46.552 47.9538 45.6413 47.9538 45.6413L47.7489 39.7743Z" fill="#381608"/>
</g>
</g>
<path d="M26.8305 45.4964C24.9399 43.6057 19.1104 41.2424 16.432 40.2971C25.8852 39.6669 45.7369 38.5955 49.5182 39.3518C43.3736 39.8244 30.1391 43.6057 26.8305 45.4964Z" fill="#FFC03A"/>
<rect x="16.432" y="36.8202" width="15.6868" height="4.7266" rx="2" transform="rotate(-2 16.432 36.8202)" fill="#CE2C24"/>
<rect x="33.4478" y="36.1179" width="15.6868" height="4.7266" rx="2" transform="rotate(-2 33.4478 36.1179)" fill="#CE2C24"/>
<path d="M28.6926 36.4552C28.5613 36.8286 25.7283 39.1579 27.1635 41.19C28.5986 43.2221 30.4057 41.653 32.2597 42.1614C34.3266 42.7192 35.0171 44.6158 37.2045 42.9659C38.9411 41.6101 37.1414 39.351 38.002 38.2332C38.8626 37.1154 40.3413 37.3865 40.6814 35.6097C41.0215 33.8329 37.5999 32.2067 37.9376 30.2921C38.6062 26.6751 39.1942 22.0945 36.1655 21.7127C33.1367 21.3308 31.9946 25.7619 32.0485 28.8467C32.096 31.571 29.2808 30.6658 28.2129 32.6674C27.1812 34.3078 29.3128 34.928 28.7131 36.4124L28.6926 36.4552Z" fill="#0ACB81"/>
<path d="M35.7834 41.7501C35.5621 41.8282 35.3369 41.6836 35.2575 41.3881C35.147 40.8144 34.9152 40.271 34.5777 39.7941C34.2402 39.3172 33.8048 38.9179 33.3005 38.6229L32.8977 41.0582C32.8889 41.1161 32.8689 41.1718 32.8386 41.222C32.8084 41.2721 32.7685 41.3159 32.7214 41.3507C32.6742 41.3855 32.6207 41.4106 32.5638 41.4247C32.507 41.4388 32.4479 41.4416 32.3899 41.4328C32.332 41.4241 32.2763 41.404 32.2261 41.3738C32.1759 41.3436 32.1322 41.3037 32.0974 41.2566C32.0626 41.2094 32.0375 41.1559 32.0234 41.099C32.0093 41.0421 32.0065 40.9831 32.0152 40.9251L32.4088 38.5642C31.5528 38.8341 30.7599 39.2735 30.0773 39.8561C29.8456 40.04 29.6292 40.2423 29.4304 40.4612C29.3954 40.5061 29.3508 40.5426 29.2999 40.568C29.2489 40.5935 29.193 40.6072 29.1361 40.6082C29.0791 40.6092 29.0227 40.5974 28.9709 40.5738C28.9192 40.5502 28.8733 40.5152 28.8368 40.4716C28.7644 40.3902 28.7236 40.2856 28.7217 40.1767C28.7198 40.0678 28.7569 39.9618 28.8264 39.878C29.0794 39.6365 29.3483 39.4122 29.6312 39.2065C30.4815 38.412 31.5442 37.8814 32.6902 37.6791L32.8943 36.6152C32.912 36.4982 32.9754 36.393 33.0706 36.3227C33.1658 36.2525 33.2851 36.2229 33.4021 36.2405C33.5191 36.2582 33.6243 36.3216 33.6946 36.4168C33.7649 36.512 33.7944 36.6312 33.7768 36.7483L33.5833 37.812C34.2621 38.0768 34.8537 38.5255 35.2919 39.1077C35.2922 39.1274 35.3004 39.1461 35.3145 39.1598C35.3287 39.1734 35.3477 39.1809 35.3674 39.1806C35.82 39.7848 36.1327 40.482 36.2831 41.2218C36.2681 41.3599 36.2129 41.4907 36.1243 41.5978C36.0357 41.7049 35.9176 41.7836 35.7847 41.8243L35.7834 41.7501Z" fill="#07AA7C" stroke="#0ACB81" stroke-width="0.25"/>
<path d="M32.2655 24.9037C31.1606 25.7658 31.6167 27.5187 32.2208 28.553C32.8248 29.5872 34.7973 30.6119 34.8485 32.0284C34.8998 33.4448 33.9475 35.242 35.3382 36.955C36.9651 39.0528 38.3761 38.2196 39.6168 38.8549C41.1291 39.6897 41.3297 42.7323 43.6401 42.5782C45.5724 42.4578 45.5692 40.9997 46.8787 39.4679C48.1883 37.9362 50.3765 38.5627 50.892 36.4569C51.6817 33.4384 49.2368 32.9368 47.0363 32.7003C44.8359 32.4637 46.205 30.4026 44.2354 28.7994C42.2658 27.1962 40.2907 29.1098 39.4366 27.9979C38.2972 26.8811 35.6195 22.1847 32.2655 24.9037Z" fill="#048970"/>
<path d="M48.8332 36.4483C48.776 36.5469 48.686 36.6224 48.5789 36.6616C48.4718 36.7008 48.3544 36.7012 48.247 36.6628C47.1803 36.2279 46.0146 36.0944 44.8771 36.2769L46.47 38.1092C46.5406 38.1984 46.5754 38.3107 46.5675 38.4242C46.5595 38.5376 46.5095 38.644 46.4271 38.7225C46.3373 38.794 46.2242 38.8299 46.1096 38.8233C45.995 38.8166 45.8868 38.768 45.8058 38.6866L44.2617 36.9102C43.695 37.9144 43.5368 39.0983 43.8201 40.2161C43.8431 40.2712 43.8536 40.3308 43.8508 40.3905C43.8479 40.4501 43.8319 40.5084 43.8037 40.5611C43.7756 40.6138 43.7361 40.6596 43.688 40.6952C43.64 40.7307 43.5847 40.7551 43.5261 40.7667C43.2607 40.8007 43.0026 40.7301 42.9685 40.4647C42.7824 39.7434 42.7449 38.9917 42.8584 38.2555C42.9719 37.5193 43.234 36.8138 43.6287 36.1821C42.8079 35.2379 41.792 34.1823 40.7904 33.0301C36.3165 28.3359 34.3322 26.9421 33.4675 26.6261C33.4084 26.6129 33.3528 26.5875 33.3041 26.5515C33.2554 26.5155 33.2147 26.4697 33.1848 26.4171C33.1548 26.3645 33.1361 26.3062 33.13 26.246C33.1239 26.1858 33.1304 26.1249 33.1491 26.0673C33.1679 26.0098 33.1984 25.9567 33.2389 25.9117C33.2793 25.8666 33.3287 25.8305 33.3839 25.8056C33.4391 25.7807 33.4989 25.7677 33.5594 25.7672C33.62 25.7668 33.68 25.7791 33.7355 25.8032L33.7842 25.8592C35.2057 26.3794 37.8167 28.5911 41.4066 32.4945C42.4214 33.565 43.3882 34.6772 44.2368 35.6534C45.3816 35.3502 46.5848 35.3438 47.7327 35.6348C48.066 35.7095 48.3908 35.8178 48.7021 35.9582C48.9115 35.9728 48.9942 36.2942 48.8749 36.4963L48.8332 36.4483Z" fill="#027168" stroke="#048970" stroke-width="0.25"/>
<path d="M29.2741 22.5764C29.9563 22.9749 30.5363 23.5269 30.9682 24.1884C31.4001 24.85 31.6721 25.6031 31.7625 26.3879C31.7031 29.7931 29.7376 30.8445 29.3932 31.9916C28.8507 33.7042 30.1406 35.0231 29.309 36.3429C28.0163 38.4991 26.0681 36.7486 25.096 37.6805C23.7871 38.8755 24.8086 41.1256 22.4341 41.9101C20.589 42.5264 20.162 41.0103 18.5758 39.8735C16.9896 38.7367 15.018 39.9473 14.0249 38.1373C12.5917 35.5453 14.8601 34.4512 16.8655 33.6279C18.6446 32.93 17.1116 31.2871 18.6524 29.3062C20.1931 27.3254 22.508 28.5281 23.1238 27.3349C23.7396 26.1417 25.3453 20.9055 29.2424 22.5731L29.2741 22.5764Z" fill="#048970"/>
<path d="M23.3255 40.1694C23.2118 40.1662 23.1034 40.1206 23.0216 40.0416C22.9398 39.9626 22.8905 39.8559 22.8833 39.7424C22.8363 38.398 22.4486 37.0875 21.7565 35.934C21.5509 36.3088 19.9009 38.9779 19.828 39.0534C19.772 39.1514 19.6795 39.2232 19.5706 39.253C19.4618 39.2827 19.3456 39.268 19.2476 39.212C19.1496 39.1561 19.0778 39.0635 19.048 38.9547C19.0183 38.8458 19.033 38.7296 19.089 38.6316C19.089 38.6316 19.5119 37.9561 20.122 37.0654C19.4585 36.9889 18.7863 37.0605 18.1537 37.2751C17.5212 37.4896 16.9442 37.8418 16.4641 38.3063C16.4291 38.3512 16.3845 38.3877 16.3336 38.4131C16.2827 38.4385 16.2267 38.4522 16.1698 38.4532C16.1129 38.4542 16.0565 38.4424 16.0047 38.4188C15.9529 38.3952 15.9071 38.3603 15.8705 38.3166C15.7969 38.238 15.755 38.1348 15.7532 38.0271C15.7513 37.9193 15.7895 37.8147 15.8603 37.7336C16.471 37.1156 17.2241 36.6572 18.0535 36.3986C18.8829 36.1401 19.7632 36.0893 20.6168 36.2508C22.2354 33.6864 23.6082 30.9748 24.717 28.1522C24.7537 28.0354 24.8349 27.9378 24.943 27.8804C25.0511 27.8229 25.1775 27.8103 25.2948 27.8452C25.4034 27.8731 25.4966 27.9428 25.5539 28.0392C25.6112 28.1355 25.6281 28.2507 25.6007 28.3594C25.2068 29.4186 24.7577 30.4564 24.2553 31.4686C24.4075 31.6887 24.6341 31.9074 24.7863 32.1274C25.4773 33.0967 25.9028 34.2298 26.0207 35.4143C26.0317 35.4776 26.0289 35.5425 26.0124 35.6047C25.9959 35.6668 25.9662 35.7246 25.9252 35.7741C25.8843 35.8237 25.8331 35.8637 25.7752 35.8916C25.7173 35.9195 25.654 35.9346 25.5898 35.9357C25.5255 35.9368 25.4618 35.924 25.4029 35.8981C25.3441 35.8723 25.2915 35.834 25.2489 35.7859C25.2063 35.7379 25.1745 35.6811 25.1559 35.6196C25.1372 35.5581 25.1321 35.4933 25.1409 35.4296C25.0202 34.2726 24.5664 33.1755 23.8345 32.2713C23.3317 33.2344 22.8065 34.1237 22.2602 35.024C22.3357 35.0969 22.3368 35.1604 22.4123 35.2334C23.2512 36.5494 23.7108 38.0715 23.7403 39.632C23.7468 40.003 23.5266 40.1447 23.304 40.1486L23.3255 40.1694Z" fill="#027168" stroke="#048970" stroke-width="0.25"/>
<path d="M33.0889 21.3926C21.2548 21.5071 14.9965 28.951 14.5413 33.1883C14.5413 35.7078 26.8077 36.601 33.0889 36.5094C39.753 36.4122 46.9091 35.49 50.1038 34.4429C50.9158 34.1768 51.2767 33.3159 51.0237 32.4996C48.8907 25.6193 44.1995 21.2851 33.0889 21.3926Z" fill="#EA9A5F"/>
<path d="M31.7051 25.3142C31.7717 24.4564 33.2236 24.0944 33.685 24.8205C33.6185 25.6783 32.1666 26.0403 31.7051 25.3142Z" fill="#FFEDB0"/>
<path d="M28.1682 24.8185C27.8099 24.0363 28.9036 23.015 29.6595 23.4258C30.0177 24.208 28.9241 25.2293 28.1682 24.8185Z" fill="#FFEDB0"/>
<path d="M25.3576 27.9574C24.9994 27.1752 26.093 26.1539 26.8489 26.5647C27.2071 27.3469 26.1135 28.3682 25.3576 27.9574Z" fill="#FFEDB0"/>
<path d="M21.3538 25.9939C21.8695 25.3051 23.2894 25.7771 23.2902 26.6375C22.7746 27.3262 21.3546 26.8542 21.3538 25.9939Z" fill="#FFEDB0"/>
<path d="M22.6876 28.6235C23.2032 27.9348 24.6232 28.4068 24.6239 29.2671C24.1083 29.9558 22.6883 29.4838 22.6876 28.6235Z" fill="#FFEDB0"/>
<path d="M33.9429 31.9091C33.4425 31.2093 34.3221 29.9987 35.1423 30.2583C35.6427 30.9582 34.7631 32.1688 33.9429 31.9091Z" fill="#FFEDB0"/>
<path d="M37.6659 28.2813C36.8061 28.25 36.3849 26.8142 37.0915 26.3233C37.9512 26.3546 38.3725 27.7905 37.6659 28.2813Z" fill="#FFEDB0"/>
<path d="M42.0979 27.7038C41.5266 28.3471 40.151 27.7582 40.2221 26.9008C40.7934 26.2576 42.169 26.8465 42.0979 27.7038Z" fill="#FFEDB0"/>
<path d="M44.9645 25.6962C45.153 26.5357 43.8715 27.3084 43.2171 26.7499C43.0286 25.9104 44.31 25.1378 44.9645 25.6962Z" fill="#FFEDB0"/>
<path d="M45.0969 28.0406C45.8954 28.3609 45.806 29.8546 44.975 30.0774C44.1766 29.7571 44.266 28.2634 45.0969 28.0406Z" fill="#FFEDB0"/>
<path d="M47.0746 30.3683C47.8067 29.9164 48.955 30.8759 48.6404 31.6767C47.9083 32.1285 46.76 31.1691 47.0746 30.3683Z" fill="#FFEDB0"/>
<path d="M38.4989 24.8823C38.2968 24.046 39.5654 23.2526 40.2289 23.8004C40.431 24.6366 39.1623 25.43 38.4989 24.8823Z" fill="#FFEDB0"/>
<path d="M29.1413 30.2885C29.8826 29.8517 31.0109 30.8346 30.6799 31.6287C29.9387 32.0655 28.8104 31.0826 29.1413 30.2885Z" fill="#FFEDB0"/>
<path d="M25.9535 31.2338C25.2122 30.797 24.0839 31.7799 24.4148 32.574C25.1561 33.0108 26.2844 32.0279 25.9535 31.2338Z" fill="#FFEDB0"/>
<path d="M21.0162 29.3432C20.2749 28.9064 19.1466 29.8893 19.4775 30.6834C20.2188 31.1201 21.3471 30.1373 21.0162 29.3432Z" fill="#FFEDB0"/>
<path d="M27.8101 31.9188C28.6629 32.0327 28.9439 33.5025 28.1933 33.923C27.3405 33.809 27.0595 32.3393 27.8101 31.9188Z" fill="#FFEDB0"/>
<rect x="5" y="48" width="55" height="10" fill="#FDF2CA"/>
</svg>
