<svg width="64" height="64" viewBox="0 0 64 64" fill="none" xmlns="http://www.w3.org/2000/svg">
<path d="M19.8163 9.56774C19.3976 9.00526 18.9217 8.48769 18.3962 8.02337C20.2334 7.62397 53.2594 12.4612 54.0227 13.5884C52.0879 13.97 46.5406 14.396 44.5703 14.5913C43.23 14.7244 15.0235 11.0411 15.0767 10.9523C15.3696 10.3577 19.2482 9.66537 19.8163 9.56774Z" fill="#EBB23A"/>
<path d="M53.9874 13.5882C54.591 14.3248 55.7625 51.0963 56.5702 55.614C49.381 55.8536 45.7775 55.9601 39.7066 56.1199C37.1771 52.8093 44.5438 14.2361 44.6326 14.1029C44.9055 13.5939 45.3438 13.1932 45.8751 12.9669C46.0882 12.8692 53.4727 12.9491 53.9874 13.5882Z" fill="#F5CA62"/>
<path d="M13.3194 20.227C13.0755 21.9922 12.7378 23.7432 12.3076 25.4725C11.7839 27.4695 11.0118 29.4043 10.4082 31.3747C9.66884 33.9628 9.06448 36.5876 8.59759 39.2385L7 47.404C18.0116 49.9957 28.9315 52.901 39.7597 56.1198C38.4994 53.9986 42.5822 25.7032 44.6857 14.1029C37.5852 12.8159 17.988 10.8544 15.3075 10.8899C15.2019 10.8808 15.0962 10.9057 15.0058 10.9609C14.9501 11.0164 14.9129 11.0877 14.8993 11.165C14.3845 12.7183 13.5324 18.8158 13.3194 20.227Z" fill="#FBE297"/>
<path d="M47.8189 48.8595C45.1119 51.2914 42.2894 53.5458 39.7332 56.1197C42.0675 53.3505 44.7302 50.8476 47.2065 48.2205L47.8189 48.8595Z" fill="#DE8E00"/>
<path d="M47.0733 48.5846C46.8514 46.2681 45.6088 18.5142 45.6887 12.9492H46.5763C46.5053 18.5053 47.739 46.1794 47.9609 48.4515L47.0733 48.5846Z" fill="#DE8E00"/>
<path d="M47.5614 48.0255L47.7833 48.1675L47.9342 48.274L48.2271 48.5048L48.8129 48.9574L49.9578 49.845L52.23 51.7C52.9844 52.3302 53.7299 52.9603 54.4577 53.5994C55.2025 54.2333 55.9079 54.9121 56.5701 55.6319C55.8603 54.9681 55.1104 54.3487 54.3246 53.7769C53.5435 53.1911 52.7536 52.6142 51.9637 52.0461L49.5673 50.3687L48.3602 49.5521L47.7567 49.1527L47.4549 48.9574L47.304 48.8598C47.2715 48.8475 47.2415 48.8294 47.2153 48.8066L47.5614 48.0255Z" fill="#DE8E00"/>
<path d="M27.5382 28.4992C27.0812 28.4986 26.6246 28.469 26.1713 28.4104C24.3927 28.2447 22.675 27.6772 21.1478 26.7507C20.6082 26.4271 20.1474 25.9875 19.7987 25.4638C19.4292 24.7449 19.2839 23.9318 19.3815 23.1295C19.4698 21.8016 19.7945 20.5002 20.3401 19.2864C20.4289 19.1088 20.5087 18.9313 20.5975 18.745C20.8274 18.3115 21.0147 17.8567 21.1566 17.387C21.2498 17.1099 21.2798 16.8154 21.2445 16.5251C21.2092 16.2349 21.1094 15.9562 20.9525 15.7095C20.8856 15.6149 20.8584 15.4979 20.8766 15.3834C20.8948 15.269 20.9571 15.1662 21.0501 15.0971C21.096 15.0624 21.1484 15.0371 21.2042 15.0228C21.2599 15.0084 21.3179 15.0053 21.3749 15.0135C21.4319 15.0218 21.4866 15.0413 21.536 15.0708C21.5854 15.1004 21.6284 15.1395 21.6626 15.1858C21.9015 15.5365 22.0569 15.9372 22.1169 16.3572C22.1769 16.7772 22.1399 17.2054 22.0087 17.6089C21.8522 18.1356 21.6473 18.6467 21.3963 19.1355C21.3075 19.3041 21.2277 19.4727 21.1478 19.6503C20.6414 20.7709 20.3407 21.9734 20.2602 23.2005C20.1784 23.8255 20.2802 24.4607 20.5531 25.0289C20.8294 25.4388 21.197 25.7791 21.627 26.0229C23.0415 26.8792 24.6316 27.4042 26.2779 27.5584C27.2324 27.7048 28.2064 27.6626 29.1447 27.4341C29.5704 27.3364 29.9713 27.152 30.3226 26.8924C30.6738 26.6328 30.9678 26.3036 31.1861 25.9253C31.3584 25.5192 31.4777 25.0927 31.5411 24.6561V24.3898C32.1919 21.1015 33.9491 18.1353 36.5203 15.9846C36.611 15.9243 36.7209 15.8995 36.8288 15.915C36.9367 15.9304 37.0351 15.985 37.1053 16.0684C37.1755 16.1518 37.2126 16.2581 37.2095 16.367C37.2063 16.476 37.1632 16.58 37.0883 16.6592C34.673 18.6773 33.0221 21.4621 32.4109 24.5496L32.3576 24.807C32.2908 25.3282 32.1473 25.8367 31.9316 26.3158C31.6587 26.8051 31.2876 27.2327 30.8416 27.5718C30.3956 27.9109 29.8844 28.1541 29.3399 28.2862C28.7511 28.435 28.1455 28.5066 27.5382 28.4992Z" fill="#DE8E00"/>
</svg>
