<svg width="64" height="64" viewBox="0 0 64 64" fill="none" xmlns="http://www.w3.org/2000/svg">
<g filter="url(#filter0_i_808_22894)">
<path d="M8 8.16003C8 8.16003 16.8193 9.32003 22.5 9.32003C28.1807 9.32003 37 8.16003 37 8.16003L32.5324 55.0697C32.4347 56.0961 31.5725 56.88 30.5414 56.88H14.4586C13.4275 56.88 12.5653 56.0961 12.4676 55.0697L8 8.16003Z" fill="#E0EFF8"/>
</g>
<ellipse cx="22.5" cy="23.24" rx="11.02" ry="1.16" fill="#FFD46B"/>
<ellipse cx="22.5" cy="8.16" rx="14.5" ry="1.16" fill="#EEF9FC"/>
<path d="M11.48 23.24C11.48 23.24 18.1021 24.4 22.5 24.4C26.8979 24.4 33.52 23.24 33.52 23.24L30.942 52.7341C30.8517 53.7673 29.9867 54.56 28.9496 54.56H16.0504C15.0133 54.56 14.1483 53.7673 14.058 52.7341L11.48 23.24Z" fill="#FFC03A"/>
<path d="M14.5 26.38C14.6667 30.38 15.2 39.18 16 42.38" stroke="#DE8E00" stroke-linecap="round"/>
<circle cx="16.5" cy="44.38" r="0.5" fill="#DE8E00"/>
<g filter="url(#filter1_i_808_22894)">
<path d="M36.0078 37.7126C27.5078 41.7126 32.0077 52.7125 35.5078 55.2125C39.0079 57.7126 43.8079 56.8126 47.0079 55.2125C51.0079 53.2125 52.5079 47.7126 53.0079 44.7126C53.5079 41.7126 57.5078 35.7127 56.5078 32.7125C56.1543 31.6519 45.5079 36.7125 45.5079 36.7125C43.5078 37.2126 39.5079 35.7126 36.0078 37.7126Z" fill="#939C31"/>
</g>
<path d="M36.5077 36.7126C28.0077 40.7126 31.0077 49.7126 34.5077 52.2126C38.0078 54.7126 42.8078 53.8126 46.0078 52.2126C50.0078 50.2126 51.5078 44.7126 52.0078 41.7126C52.5078 38.7126 57.0078 33.7126 56.5078 32.7126C56.0078 31.7126 55.0078 32.2126 54.0078 31.7126C53.0078 31.2126 54.0078 30.7126 53.0078 30.2126C50.5078 28.7126 46.0078 32.7126 44.5078 33.7126C43.0078 34.7126 40.0078 34.7126 36.5077 36.7126Z" fill="#F5CA62"/>
<path d="M37.1821 37.7913C29.1967 41.6425 32.015 49.3078 35.3032 51.7149C38.5914 54.1219 42.1008 52.2554 45.1071 50.7149C48.8649 48.7892 50.2741 44.4938 50.7439 41.6053C51.2136 38.7169 55.4412 34.9028 54.9714 33.94C54.5017 32.9772 53.5623 33.4586 52.6228 32.9772C51.6833 32.4958 53.6228 31.0144 52.6833 30.533C50.3347 29.0888 46.1071 33.94 44.6979 34.9028C43.2887 35.8656 40.4703 35.8656 37.1821 37.7913Z" fill="#DB3960"/>
<path d="M49.5077 34.2124C50.7077 33.8124 52.3411 31.7124 53.0077 30.7124C53.2093 30.4103 54.7078 31.4124 55.5078 32.2124C54.0078 31.7124 53.5078 32.7124 51.5078 35.2124C49.5078 37.7124 50.5077 44.2125 44.0077 47.7125C37.5077 51.2125 35.0077 49.2124 35.5077 43.2124C36.0077 37.2124 48.0077 34.7124 49.5077 34.2124Z" fill="#EBB23A"/>
<path d="M41.0078 39.2126C42.5078 37.7126 48.5078 35.2127 49.0078 36.2126C50.088 38.3729 47.5078 41.7127 46.0078 43.7127C45.0591 44.9776 42.5078 46.7127 41.5078 47.2127C40.5078 47.7127 37.0078 48.2127 37.0078 45.7127C37.0078 43.2127 39.7331 40.4874 41.0078 39.2126Z" fill="#BE7300"/>
<circle cx="48.0078" cy="37.2126" r="1" fill="#7A1047"/>
<circle cx="46.0078" cy="37.2126" r="1" fill="#7A1047"/>
<circle cx="44.0078" cy="38.2126" r="1" fill="#7A1047"/>
<circle cx="47.0078" cy="39.2126" r="1" fill="#7A1047"/>
<circle cx="47.0078" cy="40.2126" r="1" fill="#7A1047"/>
<circle cx="45.0078" cy="41.2126" r="1" fill="#7A1047"/>
<circle cx="42.0078" cy="41.2126" r="1" fill="#7A1047"/>
<circle cx="42.0078" cy="39.2126" r="1" fill="#7A1047"/>
<circle cx="40.0078" cy="39.2126" r="1" fill="#7A1047"/>
<circle cx="40.0078" cy="41.2126" r="1" fill="#7A1047"/>
<circle cx="37.0078" cy="42.2126" r="1" fill="#7A1047"/>
<circle cx="37.0078" cy="46.2126" r="1" fill="#7A1047"/>
<circle cx="38.0078" cy="48.2126" r="1" fill="#7A1047"/>
<circle cx="40.0078" cy="46.2126" r="1" fill="#7A1047"/>
<circle cx="39.0078" cy="44.2126" r="1" fill="#7A1047"/>
<circle cx="41.0078" cy="44.2126" r="1" fill="#7A1047"/>
<circle cx="44.0078" cy="43.2126" r="1" fill="#7A1047"/>
<circle cx="46.0078" cy="43.2126" r="1" fill="#7A1047"/>
<circle cx="45.0078" cy="45.2126" r="1" fill="#7A1047"/>
<circle cx="42.0078" cy="47.2126" r="1" fill="#7A1047"/>
<circle cx="43.0078" cy="46.2126" r="1" fill="#7A1047"/>
<defs>
<filter id="filter0_i_808_22894" x="8" y="8.16003" width="29" height="48.72" filterUnits="userSpaceOnUse" color-interpolation-filters="sRGB">
<feFlood flood-opacity="0" result="BackgroundImageFix"/>
<feBlend mode="normal" in="SourceGraphic" in2="BackgroundImageFix" result="shape"/>
<feColorMatrix in="SourceAlpha" type="matrix" values="0 0 0 0 0 0 0 0 0 0 0 0 0 0 0 0 0 0 127 0" result="hardAlpha"/>
<feOffset dx="1.5" dy="-1.5"/>
<feComposite in2="hardAlpha" operator="arithmetic" k2="-1" k3="1"/>
<feColorMatrix type="matrix" values="0 0 0 0 0.592157 0 0 0 0 0.72549 0 0 0 0 0.839216 0 0 0 0.2 0"/>
<feBlend mode="normal" in2="shape" result="effect1_innerShadow_808_22894"/>
</filter>
<filter id="filter1_i_808_22894" x="31.1399" y="32.5664" width="25.5277" height="24.2018" filterUnits="userSpaceOnUse" color-interpolation-filters="sRGB">
<feFlood flood-opacity="0" result="BackgroundImageFix"/>
<feBlend mode="normal" in="SourceGraphic" in2="BackgroundImageFix" result="shape"/>
<feColorMatrix in="SourceAlpha" type="matrix" values="0 0 0 0 0 0 0 0 0 0 0 0 0 0 0 0 0 0 127 0" result="hardAlpha"/>
<feOffset dx="-1" dy="-2"/>
<feComposite in2="hardAlpha" operator="arithmetic" k2="-1" k3="1"/>
<feColorMatrix type="matrix" values="0 0 0 0 0 0 0 0 0 0 0 0 0 0 0 0 0 0 0.25 0"/>
<feBlend mode="normal" in2="shape" result="effect1_innerShadow_808_22894"/>
</filter>
</defs>
</svg>
