<svg width="64" height="64" viewBox="0 0 64 64" fill="none" xmlns="http://www.w3.org/2000/svg">
<ellipse cx="31.2208" cy="40.6525" rx="27.5167" ry="3.70417" fill="white"/>
<path fill-rule="evenodd" clip-rule="evenodd" d="M58.3917 41.1276C61.623 40.3817 63.5 39.4917 63.5 38.5359C63.5 35.9057 49.285 33.7734 31.75 33.7734C14.215 33.7734 0 35.9057 0 38.5359C0 39.3328 1.30468 40.0839 3.6111 40.7439C6.83098 39.1671 17.7353 38.0067 30.6917 38.0067C44.6782 38.0067 56.2735 39.359 58.3917 41.1276Z" fill="#97B9D6"/>
<path d="M54.0448 38.5007C53.0132 39.3403 49.3849 40.9758 48.5799 39.957C47.775 38.9383 49.9837 35.6318 51.0022 34.8246C51.4933 34.4264 52.1202 34.2358 52.7491 34.2936C53.378 34.3514 53.9592 34.653 54.3687 35.134C54.576 35.3725 54.7325 35.6509 54.8288 35.9521C54.9251 36.2534 54.9592 36.5711 54.9289 36.8861C54.8986 37.2011 54.8046 37.5067 54.6526 37.7843C54.5006 38.0618 54.2938 38.3056 54.0448 38.5007Z" fill="#D9CCBC"/>
<path d="M53.7384 38.7289C53.8416 38.6387 53.9598 38.5675 54.0877 38.5184C54.329 38.318 54.5286 38.0721 54.6751 37.7947C54.8216 37.5172 54.9121 37.2136 54.9415 36.9013C54.9709 36.589 54.9385 36.274 54.8463 35.9743C54.754 35.6746 54.6037 35.3962 54.404 35.1548C54.2042 34.9134 53.9588 34.7138 53.6819 34.5675C53.4049 34.4211 53.1019 34.3309 52.79 34.3019C52.478 34.2728 52.1634 34.3056 51.864 34.3983C51.5646 34.491 51.2863 34.6418 51.0449 34.8422C50.9388 34.8872 50.8774 35.0384 50.7556 35.1526C51.9385 36.1734 52.9461 37.3815 53.7384 38.7289Z" fill="#3E3D42"/>
<path d="M54.3015 37.0326C54.3395 36.7444 54.3397 36.4526 54.3021 36.1645L54.3635 36.0133L54.5145 36.0746C54.5795 36.3937 54.5908 36.7215 54.5479 37.0445C54.5172 37.1201 54.4865 37.1957 54.411 37.1651C54.3615 37.1336 54.3232 37.0872 54.3015 37.0326Z" fill="#1D1D1F"/>
<path d="M54.2045 37.5848L54.2659 37.4335C54.2681 37.4235 54.2725 37.4141 54.2787 37.406C54.285 37.3979 54.2929 37.3912 54.3021 37.3865C54.3112 37.3818 54.3212 37.3791 54.3314 37.3787C54.3416 37.3783 54.3518 37.3802 54.3612 37.3842C54.3813 37.3923 54.3972 37.4081 54.4056 37.428C54.414 37.4479 54.4142 37.4704 54.406 37.4904L54.3446 37.6417C54.3139 37.7173 54.2385 37.6867 54.1738 37.6605L54.2045 37.5848Z" fill="#1D1D1F"/>
<path d="M50.7393 35.0701C49.9961 35.8224 49.3774 36.6885 48.9066 37.6357C49.401 37.8469 49.8368 38.1749 50.1767 38.5917C50.5011 39.0083 50.7341 39.4887 50.8606 40.0017C51.8619 39.7297 52.8097 39.2888 53.6634 38.6981C53.4339 37.9166 53.0432 37.1922 52.5166 36.5716C51.9844 36.0036 51.388 35.4997 50.7393 35.0701Z" fill="#57565C"/>
<path d="M49.6393 36.4489C49.1615 37.1109 48.7783 37.8363 48.5008 38.6041C48.8905 38.5106 49.2558 38.9106 49.5179 39.1931C49.7801 39.4757 50.0132 39.9227 49.8905 40.2252C50.7035 40.0804 51.498 39.8458 52.2596 39.5257C52.094 38.8494 51.7742 38.2208 51.3252 37.6893C50.8762 37.1578 50.3102 36.7377 49.6717 36.462L49.6393 36.4489Z" fill="#806749"/>
<path d="M48.9065 37.636L48.5119 38.6083C48.8624 38.7424 49.1599 38.9868 49.3597 39.3048C49.619 39.5751 49.7865 39.9205 49.8384 40.2918C50.2001 40.2297 50.5563 40.1386 50.9036 40.0195C50.7771 39.5065 50.5441 39.026 50.2197 38.6094C49.8697 38.1806 49.4184 37.846 48.9065 37.636Z" fill="#C0AB91"/>
<path d="M51.74 37.7416C51.7132 37.6847 51.7082 37.62 51.7259 37.5596L51.8321 37.5147L51.9076 37.5453L51.9524 37.6516L51.9217 37.7272L51.8155 37.7722L51.74 37.7416Z" fill="#FFDAAA"/>
<path d="M50.752 38.4732C50.7252 38.4164 50.7201 38.3517 50.7379 38.2913L50.8441 38.2464L50.9196 38.277L50.9536 38.3789L50.923 38.4545L50.8275 38.5039L50.752 38.4732Z" fill="#FFDAAA"/>
<path d="M52.587 37.8213C52.5601 37.7644 52.5551 37.6997 52.5728 37.6394L52.679 37.5944L52.7438 37.6206L52.7886 37.7269L52.7579 37.8026L52.6517 37.8475L52.587 37.8213Z" fill="#FFDAAA"/>
<path d="M58.0448 40.5007C57.0132 41.3403 53.3849 42.9758 52.5799 41.957C51.775 40.9383 53.9837 37.6318 55.0022 36.8246C55.4933 36.4264 56.1202 36.2358 56.7491 36.2936C57.378 36.3514 57.9592 36.653 58.3687 37.134C58.576 37.3725 58.7325 37.6509 58.8288 37.9521C58.9251 38.2534 58.9592 38.5711 58.9289 38.8861C58.8986 39.2011 58.8046 39.5067 58.6526 39.7843C58.5006 40.0618 58.2938 40.3056 58.0448 40.5007Z" fill="#D9CCBC"/>
<path d="M57.7384 40.7289C57.8416 40.6387 57.9598 40.5675 58.0877 40.5184C58.329 40.318 58.5286 40.0721 58.6751 39.7947C58.8216 39.5172 58.9121 39.2136 58.9415 38.9013C58.9709 38.589 58.9385 38.274 58.8463 37.9743C58.754 37.6746 58.6037 37.3962 58.404 37.1548C58.2042 36.9134 57.9588 36.7138 57.6819 36.5675C57.4049 36.4211 57.1019 36.3309 56.79 36.3019C56.478 36.2728 56.1634 36.3056 55.864 36.3983C55.5646 36.491 55.2863 36.6418 55.0449 36.8422C54.9388 36.8872 54.8774 37.0384 54.7556 37.1526C55.9385 38.1734 56.9461 39.3815 57.7384 40.7289Z" fill="#3E3D42"/>
<path d="M58.3015 39.0326C58.3395 38.7444 58.3397 38.4526 58.3021 38.1645L58.3635 38.0133L58.5145 38.0746C58.5795 38.3937 58.5908 38.7215 58.5479 39.0445C58.5172 39.1201 58.4865 39.1957 58.411 39.1651C58.3615 39.1336 58.3232 39.0872 58.3015 39.0326Z" fill="#1D1D1F"/>
<path d="M58.2045 39.5848L58.2659 39.4335C58.2681 39.4235 58.2725 39.4141 58.2787 39.406C58.285 39.3979 58.2929 39.3912 58.3021 39.3865C58.3112 39.3818 58.3212 39.3791 58.3314 39.3787C58.3416 39.3783 58.3518 39.3802 58.3612 39.3842C58.3813 39.3923 58.3972 39.4081 58.4056 39.428C58.414 39.4479 58.4142 39.4704 58.406 39.4904L58.3446 39.6417C58.3139 39.7173 58.2385 39.6867 58.1738 39.6605L58.2045 39.5848Z" fill="#1D1D1F"/>
<path d="M54.7393 37.0701C53.9961 37.8224 53.3774 38.6885 52.9066 39.6357C53.401 39.8469 53.8368 40.1749 54.1767 40.5917C54.5011 41.0083 54.7341 41.4887 54.8606 42.0017C55.8619 41.7297 56.8097 41.2888 57.6634 40.6981C57.4339 39.9166 57.0432 39.1922 56.5166 38.5716C55.9844 38.0036 55.388 37.4997 54.7393 37.0701Z" fill="#57565C"/>
<path d="M53.6393 38.4489C53.1615 39.1109 52.7783 39.8363 52.5008 40.6041C52.8905 40.5106 53.2558 40.9106 53.5179 41.1931C53.7801 41.4757 54.0132 41.9227 53.8905 42.2252C54.7035 42.0804 55.498 41.8458 56.2596 41.5257C56.094 40.8494 55.7742 40.2208 55.3252 39.6893C54.8762 39.1578 54.3102 38.7377 53.6717 38.462L53.6393 38.4489Z" fill="#806749"/>
<path d="M52.9065 39.636L52.5119 40.6083C52.8624 40.7424 53.1599 40.9868 53.3597 41.3048C53.619 41.5751 53.7865 41.9205 53.8384 42.2918C54.2001 42.2297 54.5563 42.1386 54.9036 42.0195C54.7771 41.5065 54.5441 41.026 54.2197 40.6094C53.8697 40.1806 53.4184 39.846 52.9065 39.636Z" fill="#C0AB91"/>
<path d="M55.74 39.7416C55.7132 39.6847 55.7082 39.62 55.7259 39.5596L55.8321 39.5147L55.9076 39.5453L55.9524 39.6516L55.9217 39.7272L55.8155 39.7722L55.74 39.7416Z" fill="#FFDAAA"/>
<path d="M54.752 40.4732C54.7252 40.4164 54.7201 40.3517 54.7379 40.2913L54.8441 40.2464L54.9196 40.277L54.9536 40.3789L54.923 40.4545L54.8275 40.5039L54.752 40.4732Z" fill="#FFDAAA"/>
<path d="M56.587 39.8213C56.5601 39.7644 56.5551 39.6997 56.5728 39.6394L56.679 39.5944L56.7438 39.6206L56.7886 39.7269L56.7579 39.8026L56.6517 39.8475L56.587 39.8213Z" fill="#FFDAAA"/>
<path d="M53.091 40.9274C52.3928 41.4956 49.9371 42.6025 49.3924 41.913C48.8476 41.2235 50.3424 38.9857 51.0317 38.4394C51.3641 38.1699 51.7884 38.0409 52.214 38.08C52.6397 38.1191 53.033 38.3232 53.3102 38.6488C53.4504 38.8102 53.5564 38.9987 53.6216 39.2025C53.6868 39.4064 53.7098 39.6215 53.6893 39.8346C53.6688 40.0478 53.6052 40.2546 53.5023 40.4425C53.3995 40.6304 53.2595 40.7953 53.091 40.9274Z" fill="#D9CCBC"/>
<path d="M52.8837 41.0819C52.9535 41.0209 53.0336 40.9726 53.1201 40.9394C53.2834 40.8038 53.4185 40.6374 53.5177 40.4496C53.6168 40.2618 53.6781 40.0564 53.6979 39.845C53.7178 39.6336 53.6959 39.4204 53.6335 39.2176C53.5711 39.0148 53.4694 38.8263 53.3341 38.6629C53.1989 38.4996 53.0329 38.3645 52.8454 38.2654C52.658 38.1664 52.4529 38.1053 52.2418 38.0857C52.0307 38.066 51.8177 38.0882 51.6151 38.151C51.4125 38.2137 51.2241 38.3158 51.0608 38.4514C50.9889 38.4818 50.9473 38.5842 50.865 38.6615C51.6655 39.3523 52.3474 40.17 52.8837 41.0819Z" fill="#3E3D42"/>
<path d="M53.2647 39.9337C53.2904 39.7387 53.2905 39.5412 53.2651 39.3463L53.3066 39.2439L53.4088 39.2854C53.4528 39.5013 53.4605 39.7232 53.4314 39.9418C53.4107 39.993 53.3899 40.0442 53.3388 40.0234C53.3053 40.0021 53.2794 39.9707 53.2647 39.9337Z" fill="#1D1D1F"/>
<path d="M53.1993 40.3075L53.2408 40.2051C53.2423 40.1983 53.2453 40.192 53.2495 40.1865C53.2538 40.181 53.2592 40.1765 53.2653 40.1733C53.2715 40.1701 53.2783 40.1683 53.2852 40.168C53.2921 40.1678 53.299 40.169 53.3054 40.1717C53.3189 40.1772 53.3297 40.1879 53.3354 40.2014C53.3411 40.2149 53.3412 40.23 53.3357 40.2436L53.2941 40.346C53.2734 40.3972 53.2223 40.3765 53.1785 40.3587L53.1993 40.3075Z" fill="#1D1D1F"/>
<path d="M50.8541 38.6056C50.3512 39.1148 49.9325 39.7009 49.6138 40.342C49.9484 40.4849 50.2433 40.7069 50.4734 40.989C50.6929 41.271 50.8506 41.5961 50.9363 41.9433C51.6139 41.7592 52.2554 41.4608 52.8332 41.061C52.6778 40.5321 52.4134 40.0418 52.057 39.6218C51.6969 39.2374 51.2932 38.8964 50.8541 38.6056Z" fill="#57565C"/>
<path d="M50.1096 39.5387C49.7862 39.9868 49.5268 40.4777 49.339 40.9974C49.6027 40.9341 49.85 41.2048 50.0274 41.396C50.2048 41.5873 50.3626 41.8898 50.2795 42.0945C50.8298 41.9965 51.3675 41.8378 51.8829 41.6211C51.7709 41.1634 51.5544 40.738 51.2505 40.3782C50.9467 40.0185 50.5636 39.7342 50.1315 39.5476L50.1096 39.5387Z" fill="#806749"/>
<path d="M49.6135 40.3422L49.3464 41.0002C49.5837 41.091 49.7851 41.2564 49.9203 41.4716C50.0958 41.6545 50.2091 41.8883 50.2442 42.1396C50.489 42.0976 50.7301 42.0359 50.9651 41.9553C50.8795 41.6081 50.7218 41.283 50.5023 41.001C50.2654 40.7108 49.96 40.4843 49.6135 40.3422Z" fill="#C0AB91"/>
<path d="M51.5313 40.4136C51.5131 40.3751 51.5097 40.3313 51.5217 40.2904L51.5936 40.26L51.6447 40.2807L51.675 40.3527L51.6542 40.4039L51.5824 40.4343L51.5313 40.4136Z" fill="#FFDAAA"/>
<path d="M50.8626 40.9088C50.8444 40.8703 50.841 40.8265 50.853 40.7857L50.9249 40.7552L50.976 40.776L50.9991 40.845L50.9783 40.8961L50.9137 40.9295L50.8626 40.9088Z" fill="#FFDAAA"/>
<path d="M52.1045 40.4675C52.0864 40.4291 52.0829 40.3853 52.0949 40.3444L52.1668 40.314L52.2107 40.3317L52.241 40.4037L52.2202 40.4549L52.1483 40.4853L52.1045 40.4675Z" fill="#FFDAAA"/>
<path d="M50.091 40.9274C49.3928 41.4956 46.9371 42.6025 46.3924 41.913C45.8476 41.2235 47.3424 38.9857 48.0317 38.4394C48.3641 38.1699 48.7884 38.0409 49.214 38.08C49.6397 38.1191 50.033 38.3232 50.3102 38.6488C50.4504 38.8102 50.5564 38.9987 50.6216 39.2025C50.6868 39.4064 50.7098 39.6215 50.6893 39.8346C50.6688 40.0478 50.6052 40.2546 50.5023 40.4425C50.3995 40.6304 50.2595 40.7953 50.091 40.9274Z" fill="#D9CCBC"/>
<path d="M49.8837 41.0819C49.9535 41.0209 50.0336 40.9726 50.1201 40.9394C50.2834 40.8038 50.4185 40.6374 50.5177 40.4496C50.6168 40.2618 50.6781 40.0564 50.6979 39.845C50.7178 39.6336 50.6959 39.4204 50.6335 39.2176C50.5711 39.0148 50.4694 38.8263 50.3341 38.6629C50.1989 38.4996 50.0329 38.3645 49.8454 38.2654C49.658 38.1664 49.4529 38.1053 49.2418 38.0857C49.0307 38.066 48.8177 38.0882 48.6151 38.151C48.4125 38.2137 48.2241 38.3158 48.0608 38.4514C47.9889 38.4818 47.9473 38.5842 47.865 38.6615C48.6655 39.3523 49.3474 40.17 49.8837 41.0819Z" fill="#3E3D42"/>
<path d="M50.2647 39.9337C50.2904 39.7387 50.2905 39.5412 50.2651 39.3463L50.3066 39.2439L50.4088 39.2854C50.4528 39.5013 50.4605 39.7232 50.4314 39.9418C50.4107 39.993 50.3899 40.0442 50.3388 40.0234C50.3053 40.0021 50.2794 39.9707 50.2647 39.9337Z" fill="#1D1D1F"/>
<path d="M50.1993 40.3075L50.2408 40.2051C50.2423 40.1983 50.2453 40.192 50.2495 40.1865C50.2538 40.181 50.2592 40.1765 50.2653 40.1733C50.2715 40.1701 50.2783 40.1683 50.2852 40.168C50.2921 40.1678 50.299 40.169 50.3054 40.1717C50.3189 40.1772 50.3297 40.1879 50.3354 40.2014C50.3411 40.2149 50.3412 40.23 50.3357 40.2436L50.2941 40.346C50.2734 40.3972 50.2223 40.3765 50.1785 40.3587L50.1993 40.3075Z" fill="#1D1D1F"/>
<path d="M47.8541 38.6056C47.3512 39.1148 46.9325 39.7009 46.6138 40.342C46.9484 40.4849 47.2433 40.7069 47.4734 40.989C47.6929 41.271 47.8506 41.5961 47.9363 41.9433C48.6139 41.7592 49.2554 41.4608 49.8332 41.061C49.6778 40.5321 49.4134 40.0418 49.057 39.6218C48.6969 39.2374 48.2932 38.8964 47.8541 38.6056Z" fill="#57565C"/>
<path d="M47.1096 39.5387C46.7862 39.9868 46.5268 40.4777 46.339 40.9974C46.6027 40.9341 46.85 41.2048 47.0274 41.396C47.2048 41.5873 47.3626 41.8898 47.2795 42.0945C47.8298 41.9965 48.3675 41.8378 48.8829 41.6211C48.7709 41.1634 48.5544 40.738 48.2505 40.3782C47.9467 40.0185 47.5636 39.7342 47.1315 39.5476L47.1096 39.5387Z" fill="#806749"/>
<path d="M46.6135 40.3422L46.3464 41.0002C46.5837 41.091 46.7851 41.2564 46.9203 41.4716C47.0958 41.6545 47.2091 41.8883 47.2442 42.1396C47.489 42.0976 47.7301 42.0359 47.9651 41.9553C47.8795 41.6081 47.7218 41.283 47.5023 41.001C47.2654 40.7108 46.96 40.4843 46.6135 40.3422Z" fill="#C0AB91"/>
<path d="M48.5313 40.4136C48.5131 40.3751 48.5097 40.3313 48.5217 40.2904L48.5936 40.26L48.6447 40.2807L48.675 40.3527L48.6542 40.4039L48.5824 40.4343L48.5313 40.4136Z" fill="#FFDAAA"/>
<path d="M47.8626 40.9088C47.8444 40.8703 47.841 40.8265 47.853 40.7857L47.9249 40.7552L47.976 40.776L47.9991 40.845L47.9783 40.8961L47.9137 40.9295L47.8626 40.9088Z" fill="#FFDAAA"/>
<path d="M49.1045 40.4675C49.0864 40.4291 49.0829 40.3853 49.0949 40.3444L49.1668 40.314L49.2107 40.3317L49.241 40.4037L49.2202 40.4549L49.1483 40.4853L49.1045 40.4675Z" fill="#FFDAAA"/>
<path d="M32.7108 31.9338C34.5446 31.0559 34.6354 29.9148 36.1946 29.6354C36.4657 29.5949 36.7423 29.6105 37.0071 29.6811C37.272 29.7518 37.5195 29.876 37.7344 30.0462C38.081 30.3254 38.3627 30.6767 38.5599 31.0757C38.695 31.2768 38.7549 31.466 38.9044 31.6566C39.7438 32.5984 41.2067 31.2252 42.0387 30.9975C42.3069 30.8912 42.5935 30.8394 42.8819 30.8452C43.1703 30.8511 43.4546 30.9144 43.7182 31.0315C43.9819 31.1485 44.2195 31.317 44.4172 31.5271C44.6149 31.7371 44.7686 31.9845 44.8695 32.2547C46.2137 35.0353 42.9021 35.6792 42.901 36.5777C42.8999 37.4762 43.5696 39.0844 41.7239 40.0375C39.4108 41.186 37.4934 39.1876 36.4304 39.7382C35.0411 40.4041 35.946 42.2293 33.6309 43.3904C32.2416 44.0562 30.8978 43.1373 29.8319 43.0583C25.6907 48.3724 20.0997 44.2772 20.0997 44.2772C21.2319 44.0003 22.2975 43.5004 23.2341 42.8066C24.1707 42.1128 24.9594 41.2391 25.5542 40.2367C26.9772 38.0613 25.4232 34.3359 27.7564 32.5742C29.9497 31.0472 31.2074 32.6714 32.6607 31.9259L32.7108 31.9338Z" fill="#0ACB81"/>
<path d="M32.4655 39.7264C32.3992 37.4105 33.0065 35.1251 34.2136 33.1475C34.2955 33.0332 34.4176 32.954 34.5554 32.9258C34.6931 32.8977 34.8364 32.9226 34.9567 32.9956C35.0648 33.0612 35.1428 33.1667 35.1738 33.2893C35.2048 33.4119 35.1864 33.5418 35.1225 33.6509C34.1568 35.2124 33.5971 36.9907 33.4943 38.8238C34.4391 38.0154 35.5355 37.4035 36.7195 37.0236L36.7473 36.8483C37.0327 35.6364 37.653 34.529 38.5373 33.6525C38.5777 33.5959 38.6299 33.5488 38.6903 33.5143C38.7507 33.4798 38.8178 33.4587 38.8871 33.4526C38.9564 33.4465 39.0261 33.4555 39.0916 33.4789C39.1571 33.5023 39.2167 33.5396 39.2664 33.5883C39.3521 33.6891 39.3971 33.8182 39.3928 33.9504C39.3884 34.0826 39.3351 34.2085 39.243 34.3035C38.5985 35.002 38.1269 35.8419 37.866 36.7559C38.9875 36.4841 40.0945 36.2229 41.2832 36.0132C41.4165 35.9989 41.5501 36.038 41.6547 36.122C41.7593 36.2059 41.8264 36.3278 41.8414 36.4611C41.8484 36.5263 41.8424 36.5923 41.8238 36.6551C41.8051 36.718 41.7741 36.7765 41.7326 36.8273C41.6911 36.878 41.6399 36.9201 41.5821 36.9509C41.5242 36.9817 41.4607 37.0007 41.3955 37.0067C40.039 37.1677 38.7019 37.4634 37.404 37.8895C35.2194 38.706 33.3194 40.1403 31.9357 42.0177C31.6171 42.3267 31.3883 42.6371 31.0697 42.9461C31.066 42.9694 31.0532 42.9902 31.0342 43.004C31.0151 43.0179 30.9914 43.0236 30.9681 43.0199C30.9237 43.0703 30.8688 43.1102 30.8072 43.1369C30.7456 43.1636 30.6788 43.1764 30.6117 43.1744C30.5446 43.1723 30.4788 43.1555 30.4189 43.1251C30.3591 43.0947 30.3066 43.0515 30.2654 42.9985L30.1916 42.8969C29.9041 42.4496 29.6521 41.9805 29.4381 41.4937C28.8017 40.1626 28.5902 38.6678 28.8323 37.2123C28.8628 37.0771 28.9415 36.9577 29.0536 36.8762C29.1657 36.7947 29.3037 36.7569 29.4417 36.7697L29.5294 36.7835C29.6548 36.8164 29.7623 36.8973 29.8287 37.0086C29.8951 37.12 29.9151 37.253 29.8844 37.379C29.7446 38.8678 30.033 40.3656 30.7156 41.696C30.8311 41.5346 31.0342 41.387 31.1371 41.2236C31.5045 40.6397 31.9514 40.1099 32.4649 39.6493L32.4655 39.7264Z" fill="#07AA7C" stroke="#0ACB81" stroke-width="0.25"/>
<path d="M39.3911 36.4509C39.6012 36.104 39.9157 35.8329 40.2894 35.6765C40.6632 35.5201 41.0768 35.4865 41.4708 35.5806L42.469 39.1081L42.2102 40.034C41.9241 40.374 41.5155 40.5871 41.0733 40.6266C39.1508 41.1451 38.5038 38.136 39.3911 36.4509Z" fill="#E1AF87"/>
<path d="M40.0944 36.266C40.3309 36.115 40.5986 36.0198 40.8772 35.9877C41.1558 35.9556 41.4381 35.9875 41.7026 36.0808L42.4143 39.7844C39.3919 41.4695 38.8281 37.1641 40.0944 36.266Z" fill="#96776A"/>
<path d="M41.7391 36.2846L42.3306 39.3307C41.9609 39.4875 41.5472 39.505 41.1656 39.3801C40.784 39.2553 40.4604 38.9964 40.2544 38.6513C40.0484 38.3062 39.9738 37.8981 40.0446 37.5023C40.1153 37.1065 40.3265 36.7496 40.6392 36.4975C40.9792 36.3262 41.3598 36.2525 41.7391 36.2846Z" fill="#4B3F4E"/>
<path d="M47.0723 32.4237C47.5622 32.7755 47.0723 33.4607 47.0723 33.4607L46.148 32.5811C46.148 32.5811 46.6564 32.1181 47.0723 32.4237Z" fill="#EBC9A0"/>
<path d="M46.6743 32.8124C47.7003 33.7383 46.739 34.9697 46.739 34.9697L44.9829 33.0253C45.0781 32.8976 45.1981 32.7904 45.3357 32.7101C45.4732 32.6299 45.6255 32.5783 45.7834 32.5584C45.9413 32.5386 46.1016 32.5508 46.2547 32.5944C46.4078 32.6381 46.5505 32.7122 46.6743 32.8124Z" fill="#F5DCB4"/>
<path d="M46.3876 34.0067C46.5228 33.856 46.624 33.678 46.6846 33.4847C46.7452 33.2914 46.7637 33.0874 46.7389 32.8864C47.6632 33.8122 46.7389 34.9789 46.7389 34.9789L46.1381 34.3029L46.3876 34.0067Z" fill="#EBC9A0"/>
<path d="M45.1038 32.9977C45.2494 33.0344 45.3871 33.0971 45.5105 33.1828L45.6214 33.2569C45.7862 33.3588 45.9382 33.48 46.0743 33.618C46.5038 34.0665 46.7608 34.653 46.7998 35.2734C46.8387 35.8937 46.657 36.5078 46.2869 37.0067L43.6065 33.6458C43.7642 33.4017 43.9906 33.2099 44.2571 33.0945C44.5236 32.9792 44.8182 32.9455 45.1038 32.9977Z" fill="#EBC9A0"/>
<path d="M45.8794 35.4328C46.0928 35.2699 46.2544 35.0485 46.3446 34.7954C46.4348 34.5423 46.4498 34.2684 46.3878 34.007C46.6734 34.4594 46.8164 34.9875 46.7983 35.5226C46.7801 36.0576 46.6017 36.5748 46.2861 37.0068L45.2047 35.655L45.8794 35.4328Z" fill="#E1AF87"/>
<path d="M41.8785 39.9693C42.3037 39.1361 41.9802 37.8028 41.5643 36.6825C41.3985 36.3246 41.333 35.9283 41.3748 35.536C41.4165 35.1437 41.564 34.7702 41.8013 34.4554C42.0387 34.1406 42.357 33.8964 42.7223 33.7488C43.0875 33.6013 43.486 33.556 43.8749 33.6178C43.9982 33.6592 44.1186 33.7087 44.2354 33.766C44.657 34.0062 45.0326 34.3197 45.3445 34.6918C45.884 35.2601 46.2174 35.9933 46.2911 36.774C46.3648 37.5547 46.1747 38.3376 45.7512 38.9972C45.3232 39.8133 44.6067 40.4402 43.7418 40.7552C42.8769 41.0703 41.9258 41.0508 41.0744 40.7008C41.2539 40.6456 41.4191 40.5515 41.5581 40.4251C41.6971 40.2986 41.8065 40.143 41.8785 39.9693Z" fill="#F5DCB4"/>
<path d="M41.8784 39.9694C41.951 39.8227 42.0038 39.667 42.0355 39.5065C43.0292 39.3335 43.9405 38.8434 44.6335 38.1093C45.3264 37.3751 45.7638 36.4362 45.8804 35.4326C46.1837 35.9743 46.3321 36.5893 46.3092 37.21C46.2864 37.8307 46.0933 38.433 45.7511 38.9509C45.323 39.7671 44.6065 40.3939 43.7417 40.709C42.8768 41.024 41.9257 41.0046 41.0743 40.6545C41.2494 40.6044 41.4117 40.5174 41.5504 40.3992C41.6891 40.281 41.801 40.1345 41.8784 39.9694Z" fill="#EBC9A0"/>
<path d="M33.3911 40.4509C33.6012 40.104 33.9157 39.8329 34.2894 39.6765C34.6632 39.5201 35.0768 39.4865 35.4708 39.5806L36.469 43.1081L36.2102 44.034C35.9241 44.374 35.5155 44.5871 35.0733 44.6266C33.1508 45.1451 32.5038 42.136 33.3911 40.4509Z" fill="#E1AF87"/>
<path d="M34.0944 40.266C34.3309 40.115 34.5986 40.0198 34.8772 39.9877C35.1558 39.9556 35.4381 39.9875 35.7026 40.0808L36.4143 43.7844C33.3919 45.4695 32.8281 41.1641 34.0944 40.266Z" fill="#96776A"/>
<path d="M35.7391 40.2846L36.3306 43.3307C35.9609 43.4875 35.5472 43.505 35.1656 43.3801C34.784 43.2553 34.4604 42.9964 34.2544 42.6513C34.0484 42.3062 33.9738 41.8981 34.0446 41.5023C34.1153 41.1065 34.3265 40.7496 34.6392 40.4975C34.9792 40.3262 35.3598 40.2525 35.7391 40.2846Z" fill="#4B3F4E"/>
<path d="M41.0723 36.4237C41.5622 36.7755 41.0723 37.4607 41.0723 37.4607L40.148 36.5811C40.148 36.5811 40.6564 36.1181 41.0723 36.4237Z" fill="#EBC9A0"/>
<path d="M40.6743 36.8124C41.7003 37.7383 40.739 38.9697 40.739 38.9697L38.9829 37.0253C39.0781 36.8976 39.1981 36.7904 39.3357 36.7101C39.4732 36.6299 39.6255 36.5783 39.7834 36.5584C39.9413 36.5386 40.1016 36.5508 40.2547 36.5944C40.4078 36.6381 40.5505 36.7122 40.6743 36.8124Z" fill="#F5DCB4"/>
<path d="M40.3876 38.0067C40.5228 37.856 40.624 37.678 40.6846 37.4847C40.7452 37.2914 40.7637 37.0874 40.7389 36.8864C41.6632 37.8122 40.7389 38.9789 40.7389 38.9789L40.1381 38.3029L40.3876 38.0067Z" fill="#EBC9A0"/>
<path d="M39.1038 36.9977C39.2494 37.0344 39.3871 37.0971 39.5105 37.1828L39.6214 37.2569C39.7862 37.3588 39.9382 37.48 40.0743 37.618C40.5038 38.0665 40.7608 38.653 40.7998 39.2734C40.8387 39.8937 40.657 40.5078 40.2869 41.0067L37.6065 37.6458C37.7642 37.4017 37.9906 37.2099 38.2571 37.0945C38.5236 36.9792 38.8182 36.9455 39.1038 36.9977Z" fill="#EBC9A0"/>
<path d="M39.8794 39.4328C40.0928 39.2699 40.2544 39.0485 40.3446 38.7954C40.4348 38.5423 40.4498 38.2684 40.3878 38.007C40.6734 38.4594 40.8164 38.9875 40.7983 39.5226C40.7801 40.0576 40.6017 40.5748 40.2861 41.0068L39.2047 39.655L39.8794 39.4328Z" fill="#E1AF87"/>
<path d="M35.8785 43.9693C36.3037 43.1361 35.9802 41.8028 35.5643 40.6825C35.3985 40.3246 35.333 39.9283 35.3748 39.536C35.4165 39.1437 35.564 38.7702 35.8013 38.4554C36.0387 38.1406 36.357 37.8964 36.7223 37.7488C37.0875 37.6013 37.486 37.556 37.8749 37.6178C37.9982 37.6592 38.1186 37.7087 38.2354 37.766C38.657 38.0062 39.0326 38.3197 39.3445 38.6918C39.884 39.2601 40.2174 39.9933 40.2911 40.774C40.3648 41.5547 40.1747 42.3376 39.7512 42.9972C39.3232 43.8133 38.6067 44.4402 37.7418 44.7552C36.8769 45.0703 35.9258 45.0508 35.0744 44.7008C35.2539 44.6456 35.4191 44.5515 35.5581 44.4251C35.6971 44.2986 35.8065 44.143 35.8785 43.9693Z" fill="#F5DCB4"/>
<path d="M35.8784 43.9694C35.951 43.8227 36.0038 43.667 36.0355 43.5065C37.0292 43.3335 37.9405 42.8434 38.6335 42.1093C39.3264 41.3751 39.7638 40.4362 39.8804 39.4326C40.1837 39.9743 40.3321 40.5893 40.3092 41.21C40.2864 41.8307 40.0933 42.433 39.7511 42.9509C39.323 43.7671 38.6065 44.3939 37.7417 44.709C36.8768 45.024 35.9257 45.0046 35.0743 44.6545C35.2494 44.6044 35.4117 44.5174 35.5504 44.3992C35.6891 44.281 35.801 44.1345 35.8784 43.9694Z" fill="#EBC9A0"/>
<path d="M46.7956 40.2419C45.7044 40.4343 44.6792 39.332 44.1355 38.6043C43.9759 38.3957 43.9008 38.1345 43.9253 37.873C43.9498 37.6114 44.072 37.3688 44.2676 37.1939C44.8055 36.7695 45.4368 36.4798 46.1091 36.349C46.783 36.2422 47.4726 36.2989 48.1202 36.5146C48.3637 36.6121 48.562 36.7976 48.6758 37.0343C48.7896 37.271 48.8108 37.5418 48.7351 37.7932C48.473 38.663 47.8867 40.0495 46.7956 40.2419Z" fill="#FFE4C1"/>
<path d="M44.2677 37.1938L44.3886 37.0945C44.3524 37.371 44.4266 37.6508 44.5951 37.873C45.1463 38.6427 46.164 39.703 47.2552 39.5106C47.6928 39.4164 48.0799 39.1628 48.3413 38.7989C48.2122 39.1426 48.0055 39.4516 47.7374 39.7019C47.4693 39.9522 47.147 40.137 46.7956 40.2419C45.7045 40.4342 44.6793 39.3319 44.1356 38.6042C43.9759 38.3957 43.9008 38.1344 43.9253 37.8729C43.9498 37.6113 44.0721 37.3688 44.2677 37.1938Z" fill="#F1D0A5"/>
<path d="M44.0546 38.4886C44.4004 38.1043 44.8307 37.8058 45.3115 37.6168C45.6229 37.483 45.9474 37.3822 46.2797 37.316C46.6147 37.2654 46.954 37.2491 47.2924 37.2675C47.8063 37.2812 48.31 37.415 48.7633 37.6583C48.7859 37.5295 48.7832 37.3974 48.7554 37.2696C48.6032 37.1937 48.4446 37.1317 48.2813 37.0844C47.9618 36.9948 47.6332 36.9422 47.3017 36.9277C46.9405 36.9063 46.5779 36.9237 46.2204 36.9797C45.8652 37.0489 45.5185 37.1566 45.1866 37.3007C44.8789 37.4252 44.5877 37.5871 44.3196 37.783C44.1796 37.8798 44.0514 37.9926 43.9375 38.1191C43.9521 38.2487 43.9919 38.3743 44.0546 38.4886Z" fill="#E2BCAF"/>
<path d="M44.3252 38.8481L44.5435 39.1044C44.8257 38.787 45.1745 38.536 45.565 38.3694C45.8261 38.2475 46.1002 38.1555 46.3821 38.0953C46.6675 38.0559 46.9565 38.0486 47.2437 38.0734C47.6675 38.0965 48.0811 38.213 48.4549 38.4147L48.5723 38.0992C48.4366 38.0266 48.2954 37.9645 48.1502 37.9136C47.8611 37.8113 47.559 37.7507 47.253 37.7337C46.9288 37.7056 46.6024 37.7166 46.2808 37.7664C45.9615 37.8292 45.651 37.9305 45.3561 38.0682C45.0735 38.1873 44.8102 38.3477 44.5745 38.5441C44.4823 38.6376 44.3989 38.7393 44.3252 38.8481Z" fill="#E2BCAF"/>
<path d="M45.5401 39.9429C45.8141 39.6043 46.2011 39.3762 46.6298 39.3006C47.0585 39.225 47.5001 39.307 47.8734 39.5315L47.7723 39.6447C47.4303 39.4544 47.0335 39.3876 46.6484 39.4555C46.2633 39.5234 45.9133 39.7219 45.6571 40.0177L45.5233 39.9459L45.5401 39.9429Z" fill="#E2BCAF"/>
<path d="M45.2454 39.7436C45.5715 39.3431 46.0312 39.0742 46.5399 38.9865C47.0453 38.8935 47.5674 38.9896 48.0069 39.2567L47.9239 39.3754C47.5127 39.1294 47.0269 39.0398 46.5553 39.123C46.0837 39.2061 45.6579 39.4565 45.3555 39.8282L45.2286 39.7466L45.2454 39.7436Z" fill="#E2BCAF"/>
<path d="M45.0147 39.5155C45.3881 39.0468 45.9217 38.7334 46.5126 38.6359C47.1012 38.5287 47.7087 38.6404 48.221 38.9502L48.1479 39.0758C47.6672 38.7867 47.0985 38.6811 46.5464 38.7784C45.9943 38.8758 45.496 39.1695 45.1431 39.6056L45.0315 39.5126L45.0147 39.5155Z" fill="#E2BCAF"/>
<path d="M42.7956 43.2419C41.7044 43.4343 40.6792 42.332 40.1355 41.6043C39.9759 41.3957 39.9008 41.1345 39.9253 40.873C39.9498 40.6114 40.072 40.3688 40.2676 40.1939C40.8055 39.7695 41.4368 39.4798 42.1091 39.349C42.783 39.2422 43.4726 39.2989 44.1202 39.5146C44.3637 39.6121 44.562 39.7976 44.6758 40.0343C44.7896 40.271 44.8108 40.5418 44.7351 40.7932C44.473 41.663 43.8867 43.0495 42.7956 43.2419Z" fill="#FFE4C1"/>
<path d="M40.2677 40.1938L40.3886 40.0945C40.3524 40.371 40.4266 40.6508 40.5951 40.873C41.1463 41.6427 42.164 42.703 43.2552 42.5106C43.6928 42.4164 44.0799 42.1628 44.3413 41.7989C44.2122 42.1426 44.0055 42.4516 43.7374 42.7019C43.4693 42.9522 43.147 43.137 42.7956 43.2419C41.7045 43.4342 40.6793 42.3319 40.1356 41.6042C39.9759 41.3957 39.9008 41.1344 39.9253 40.8729C39.9498 40.6113 40.0721 40.3688 40.2677 40.1938Z" fill="#F1D0A5"/>
<path d="M40.0546 41.4886C40.4004 41.1043 40.8307 40.8058 41.3115 40.6168C41.6229 40.483 41.9474 40.3822 42.2797 40.316C42.6147 40.2654 42.954 40.2491 43.2924 40.2675C43.8063 40.2812 44.31 40.415 44.7633 40.6583C44.7859 40.5295 44.7832 40.3974 44.7554 40.2696C44.6032 40.1937 44.4446 40.1317 44.2813 40.0844C43.9618 39.9948 43.6332 39.9422 43.3017 39.9277C42.9405 39.9063 42.5779 39.9237 42.2204 39.9797C41.8652 40.0489 41.5185 40.1566 41.1866 40.3007C40.8789 40.4252 40.5877 40.5871 40.3196 40.783C40.1796 40.8798 40.0514 40.9926 39.9375 41.1191C39.9521 41.2487 39.9919 41.3743 40.0546 41.4886Z" fill="#E2BCAF"/>
<path d="M40.3252 41.8481L40.5435 42.1044C40.8257 41.787 41.1745 41.536 41.565 41.3694C41.8261 41.2475 42.1002 41.1555 42.3821 41.0953C42.6675 41.0559 42.9565 41.0486 43.2437 41.0734C43.6675 41.0965 44.0811 41.213 44.4549 41.4147L44.5723 41.0992C44.4366 41.0266 44.2954 40.9645 44.1502 40.9136C43.8611 40.8113 43.559 40.7507 43.253 40.7337C42.9288 40.7056 42.6024 40.7166 42.2808 40.7664C41.9615 40.8292 41.651 40.9305 41.3561 41.0682C41.0735 41.1873 40.8102 41.3477 40.5745 41.5441C40.4823 41.6376 40.3989 41.7393 40.3252 41.8481Z" fill="#E2BCAF"/>
<path d="M41.5401 42.9429C41.8141 42.6043 42.2011 42.3762 42.6298 42.3006C43.0585 42.225 43.5001 42.307 43.8734 42.5315L43.7723 42.6447C43.4303 42.4544 43.0335 42.3876 42.6484 42.4555C42.2633 42.5234 41.9133 42.7219 41.6571 43.0177L41.5233 42.9459L41.5401 42.9429Z" fill="#E2BCAF"/>
<path d="M41.2454 42.7436C41.5715 42.3431 42.0312 42.0742 42.5399 41.9865C43.0453 41.8935 43.5674 41.9896 44.0069 42.2567L43.9239 42.3754C43.5127 42.1294 43.0269 42.0398 42.5553 42.123C42.0837 42.2061 41.6579 42.4565 41.3555 42.8282L41.2286 42.7466L41.2454 42.7436Z" fill="#E2BCAF"/>
<path d="M41.0147 42.5155C41.3881 42.0468 41.9217 41.7334 42.5126 41.6359C43.1012 41.5287 43.7087 41.6404 44.221 41.9502L44.1479 42.0758C43.6672 41.7867 43.0985 41.6811 42.5464 41.7784C41.9943 41.8758 41.496 42.1695 41.1431 42.6056L41.0315 42.5126L41.0147 42.5155Z" fill="#E2BCAF"/>
<path d="M45.7764 43.154C44.7352 42.775 44.3985 41.3078 44.2915 40.4057C44.2575 40.1453 44.3231 39.8815 44.4751 39.6672C44.6271 39.453 44.8543 39.304 45.1111 39.2503C45.7892 39.1517 46.4807 39.2165 47.1284 39.4394C47.7653 39.6838 48.3342 40.0778 48.7872 40.5883C48.9494 40.7946 49.0283 41.0543 49.0086 41.3162C48.9888 41.5781 48.8717 41.8232 48.6804 42.0031C48.0186 42.6254 46.8175 43.5329 45.7764 43.154Z" fill="#FFE4C1"/>
<path d="M45.1111 39.2502L45.2655 39.2246C45.0959 39.446 45.0203 39.7254 45.0551 40.0021C45.1475 40.9443 45.4988 42.3714 46.54 42.7504C46.9661 42.8876 47.4281 42.8615 47.8364 42.6771C47.5528 42.9102 47.2193 43.0745 46.8619 43.1572C46.5046 43.2399 46.133 43.2388 45.7764 43.1539C44.7352 42.7749 44.3985 41.3077 44.2915 40.4056C44.2575 40.1452 44.3231 39.8814 44.4751 39.6672C44.6271 39.4529 44.8543 39.304 45.1111 39.2502Z" fill="#F1D0A5"/>
<path d="M44.2792 40.265C44.7708 40.105 45.2927 40.0617 45.8036 40.1384C46.1402 40.1782 46.4716 40.2532 46.7925 40.362C47.1079 40.4857 47.4099 40.6413 47.6937 40.8264C48.132 41.0952 48.5013 41.463 48.7722 41.9003C48.8561 41.8 48.9198 41.6843 48.9597 41.5597C48.8659 41.4179 48.7595 41.2849 48.6417 41.1623C48.4099 40.9249 48.1515 40.7151 47.8717 40.5368C47.5696 40.3376 47.2469 40.1714 46.9093 40.0411C46.5671 39.9235 46.213 39.8434 45.8534 39.8022C45.5247 39.7562 45.1916 39.7508 44.8615 39.7864C44.6919 39.8002 44.5244 39.8338 44.3625 39.8865C44.3103 40.006 44.282 40.1346 44.2792 40.265Z" fill="#E2BCAF"/>
<path d="M44.3338 40.7117L44.3947 41.0428C44.7978 40.9091 45.2254 40.8661 45.6468 40.9171C45.9339 40.942 46.2173 40.9994 46.4915 41.0882C46.7584 41.1968 47.0123 41.335 47.2486 41.5001C47.6041 41.7319 47.9041 42.0396 48.1269 42.4012L48.3863 42.1867C48.3051 42.0559 48.2139 41.9316 48.1136 41.8149C47.9144 41.5818 47.6831 41.3783 47.4266 41.2105C47.1598 41.0241 46.8716 40.8704 46.5683 40.7527C46.2603 40.6475 45.9407 40.58 45.6165 40.5517C45.3123 40.5136 45.004 40.5209 44.7017 40.5731C44.5751 40.608 44.452 40.6544 44.3338 40.7117Z" fill="#E2BCAF"/>
<path d="M44.8387 42.2673C45.2454 42.111 45.6946 42.107 46.1036 42.2559C46.5127 42.4048 46.8541 42.6966 47.0652 43.0777L46.921 43.1251C46.72 42.7893 46.4098 42.5331 46.0423 42.3993C45.6749 42.2656 45.2725 42.2625 44.9027 42.3905L44.8227 42.2615L44.8387 42.2673Z" fill="#E2BCAF"/>
<path d="M44.6831 41.9473C45.1658 41.7634 45.6984 41.7605 46.1827 41.9389C46.6669 42.111 47.0709 42.4553 47.318 42.9063L47.1869 42.9676C46.9537 42.549 46.5778 42.2285 46.1278 42.0647C45.6779 41.901 45.1839 41.9048 44.7362 42.0756L44.6671 41.9415L44.6831 41.9473Z" fill="#E2BCAF"/>
<path d="M44.5973 41.6346C45.155 41.4153 45.7739 41.4107 46.3343 41.6217C46.8977 41.8231 47.3679 42.2237 47.6567 42.7481L47.5307 42.8203C47.2588 42.3296 46.8191 41.9538 46.2924 41.762C45.7656 41.5703 45.1872 41.5755 44.6635 41.7767L44.6133 41.6404L44.5973 41.6346Z" fill="#E2BCAF"/>
<path d="M13.2889 32.1184C11.5208 31.1147 11.5098 29.9701 9.97386 29.5826C9.70624 29.5233 9.42929 29.5195 9.16016 29.5715C8.89103 29.6235 8.63544 29.7302 8.40919 29.8849C8.04398 30.1393 7.73847 30.4701 7.51386 30.8543C7.36511 31.0455 7.29216 31.2301 7.12968 31.4098C6.22661 32.2908 4.86312 30.8189 4.04897 30.5337C3.78891 30.4089 3.50658 30.3373 3.21848 30.323C2.93039 30.3087 2.64234 30.352 2.3712 30.4504C2.10005 30.5488 1.85126 30.7003 1.6394 30.8961C1.42754 31.0918 1.25687 31.3279 1.13737 31.5904C-0.397489 34.2705 2.86117 35.1437 2.79958 36.0402C2.73798 36.9366 1.95777 38.4941 3.73244 39.5736C5.95982 40.8807 8.01194 39.0209 9.03389 39.6444C10.3734 40.4055 9.34337 42.1631 11.5719 43.4829C12.9113 44.244 14.3159 43.421 15.3848 43.4166C19.1452 49.0066 25.0082 45.3114 25.0082 45.3114C23.8981 44.9563 22.8699 44.3832 21.984 43.6257C21.0981 42.8683 20.3723 41.9418 19.8489 40.9003C18.5811 38.6309 20.3912 35.023 18.1866 33.1028C16.1051 31.4265 14.7372 32.9591 13.3394 32.114L13.2889 32.1184Z" fill="#0ACB81"/>
<path d="M12.9898 39.9091C13.2175 37.6034 12.7711 35.2812 11.7049 33.2242C11.6311 33.1045 11.5149 33.017 11.3794 32.9793C11.2439 32.9416 11.0992 32.9564 10.9742 33.0208C10.8618 33.0787 10.7767 33.1785 10.7372 33.2987C10.6977 33.4188 10.707 33.5497 10.7631 33.663C11.6175 35.2881 12.0518 37.1011 12.0265 38.9369C11.1403 38.0646 10.0893 37.3776 8.9347 36.9161L8.91923 36.7393C8.71899 35.5104 8.1775 34.3625 7.35649 33.4264C7.32011 33.3671 7.27133 33.3165 7.21351 33.2778C7.15568 33.2392 7.09018 33.2135 7.0215 33.2026C6.95282 33.1917 6.88259 33.1958 6.81563 33.2146C6.74867 33.2333 6.68658 33.2664 6.63361 33.3115C6.54116 33.4061 6.48724 33.5317 6.48233 33.6639C6.47743 33.7961 6.5219 33.9254 6.60708 34.0266C7.20133 34.7683 7.61321 35.6391 7.80964 36.569C6.70984 36.2197 5.62379 35.882 4.45262 35.5898C4.32059 35.5663 4.18461 35.596 4.07441 35.6724C3.96421 35.7488 3.88876 35.8658 3.86457 35.9977C3.85299 36.0622 3.85436 36.1284 3.8686 36.1925C3.88284 36.2565 3.90965 36.317 3.9475 36.3705C3.98535 36.4241 4.03347 36.4696 4.08907 36.5044C4.14466 36.5391 4.20662 36.5625 4.27132 36.5731C5.6133 36.8282 6.92649 37.2165 8.19144 37.7322C10.3138 38.699 12.1091 40.2624 13.3585 42.2317C13.6547 42.5622 13.8614 42.8878 14.1576 43.2183C14.1597 43.2417 14.171 43.2634 14.189 43.2785C14.207 43.2937 14.2303 43.301 14.2538 43.299C14.2946 43.3523 14.3466 43.396 14.4062 43.427C14.4658 43.4579 14.5315 43.4753 14.5985 43.4779C14.6656 43.4806 14.7325 43.4684 14.7943 43.4422C14.8562 43.4161 14.9115 43.3766 14.9563 43.3266L15.037 43.2305C15.355 42.8043 15.6391 42.3539 15.8865 41.8832C16.6143 40.5997 16.9295 39.1234 16.7895 37.6546C16.7685 37.5176 16.6984 37.3929 16.5922 37.3038C16.486 37.2147 16.3511 37.1673 16.2125 37.1704L16.1241 37.1782C15.9967 37.2022 15.8838 37.2754 15.8098 37.3818C15.7358 37.4883 15.7065 37.6196 15.7284 37.7474C15.764 39.2423 15.3718 40.7164 14.598 41.996C14.4941 41.8268 14.3018 41.6654 14.2105 41.4952C13.8848 40.8872 13.4759 40.3275 12.9958 39.8322L12.9898 39.9091Z" fill="#07AA7C" stroke="#0ACB81" stroke-width="0.25"/>
<path d="M16.6653 36.5779C15.6616 34.8099 14.517 34.7989 14.1294 33.2629C14.0701 32.9953 14.0664 32.7184 14.1184 32.4492C14.1704 32.1801 14.2771 31.9245 14.4318 31.6983C14.6862 31.333 15.017 31.0275 15.4012 30.8029C15.5924 30.6542 15.777 30.5812 15.9567 30.4187C16.8376 29.5157 15.3658 28.1522 15.0806 27.338C14.9558 27.078 14.8842 26.7956 14.8699 26.5075C14.8556 26.2195 14.8989 25.9314 14.9973 25.6603C15.0957 25.3891 15.2472 25.1403 15.4429 24.9285C15.6387 24.7166 15.8747 24.5459 16.1373 24.4264C18.8173 22.8916 19.6906 26.1502 20.587 26.0886C21.4835 26.027 23.041 25.2468 24.1205 27.0215C25.4276 29.2489 23.5678 31.301 24.1912 32.323C24.9523 33.6624 26.71 32.6324 28.0298 34.8609C28.7909 36.2004 27.9679 37.605 27.9635 38.6738C33.5535 42.4343 29.8583 48.2973 29.8583 48.2973C29.5031 47.1871 28.93 46.159 28.1726 45.2731C27.4152 44.3872 26.4886 43.6613 25.4472 43.138C23.1778 41.8702 19.5699 43.6803 17.6497 41.4756C15.9734 39.3942 17.506 38.0262 16.6608 36.6285L16.6653 36.5779Z" fill="#048970"/>
<path d="M24.456 36.279C22.1503 36.5066 19.8281 36.0603 17.7711 34.994C17.6513 34.9203 17.5639 34.8041 17.5262 34.6686C17.4884 34.5331 17.5033 34.3884 17.5677 34.2634C17.6256 34.151 17.7254 34.0658 17.8456 34.0263C17.9657 33.9868 18.0966 33.9962 18.2099 34.0523C19.835 34.9067 21.6479 35.341 23.4837 35.3156C22.6115 34.4295 21.9245 33.3785 21.463 32.2239L21.2862 32.2084C20.0573 32.0082 18.9093 31.4667 17.9733 30.6457C17.914 30.6093 17.8633 30.5605 17.8247 30.5027C17.7861 30.4449 17.7604 30.3794 17.7495 30.3107C17.7386 30.242 17.7426 30.1718 17.7614 30.1048C17.7802 30.0379 17.8133 29.9758 17.8583 29.9228C17.953 29.8303 18.0786 29.7764 18.2108 29.7715C18.343 29.7666 18.4723 29.8111 18.5735 29.8963C19.3152 30.4905 20.186 30.9024 21.1159 31.0988C20.7666 29.999 20.4288 28.913 20.1367 27.7418C20.1131 27.6098 20.1428 27.4738 20.2193 27.3636C20.2957 27.2534 20.4126 27.1779 20.5446 27.1538C20.6091 27.1422 20.6753 27.1435 20.7393 27.1578C20.8033 27.172 20.8639 27.1988 20.9174 27.2367C20.971 27.2745 21.0165 27.3227 21.0512 27.3783C21.086 27.4338 21.1094 27.4958 21.12 27.5605C21.3751 28.9025 21.7634 30.2157 22.279 31.4806C23.2459 33.603 24.8093 35.3983 26.7786 36.6477C27.1091 36.9439 27.4347 37.1506 27.7652 37.4468C27.7886 37.4489 27.8103 37.4601 27.8254 37.4782C27.8406 37.4962 27.8479 37.5195 27.8459 37.543C27.8992 37.5837 27.9429 37.6358 27.9738 37.6954C28.0048 37.755 28.0222 37.8206 28.0248 37.8877C28.0274 37.9548 28.0153 38.0217 27.9891 38.0835C27.9629 38.1453 27.9235 38.2007 27.8735 38.2455L27.7773 38.3262C27.3512 38.6442 26.9008 38.9283 26.4301 39.1757C25.1466 39.9035 23.6702 40.2187 22.2014 40.0787C22.0644 40.0577 21.9398 39.9876 21.8507 39.8814C21.7616 39.7752 21.7142 39.6402 21.7173 39.5017L21.7251 39.4133C21.7491 39.2858 21.8222 39.173 21.9287 39.099C22.0352 39.025 22.1665 38.9957 22.2943 39.0175C23.7892 39.0531 25.2632 38.661 26.5428 37.8872C26.3737 37.7833 26.2123 37.591 26.0421 37.4997C25.4341 37.174 24.8743 36.7651 24.3791 36.285L24.456 36.279Z" fill="#07AA7C" stroke="#048970" stroke-width="0.25"/>
<path d="M10.3914 38.7134C10.463 38.6956 10.526 38.6532 10.5693 38.5934C10.6126 38.5337 10.6335 38.4606 10.6283 38.3869C10.567 37.8565 10.3717 37.3505 10.0608 36.9166C9.74994 36.4826 9.33377 36.1352 8.85165 35.9071C8.77826 35.8681 8.69284 35.8583 8.6126 35.8798C8.53236 35.9013 8.46329 35.9525 8.41927 36.023C8.39586 36.0597 8.38031 36.101 8.37368 36.144C8.36706 36.1871 8.36948 36.2311 8.38076 36.2732C8.39204 36.3153 8.41193 36.3546 8.43921 36.3886C8.46649 36.4226 8.50057 36.4505 8.53921 36.4706C8.92205 36.6466 9.25487 36.9159 9.50729 37.2537C9.75972 37.5916 9.92367 37.9872 9.98427 38.4047C9.98827 38.4897 10.025 38.5698 10.0868 38.6283C10.1486 38.6868 10.2305 38.7191 10.3155 38.7183L10.3914 38.7134Z" fill="#F1562E"/>
<path d="M9.86469 39.1018C9.9427 39.0657 10.0034 39.0004 10.0339 38.9199C10.0643 38.8394 10.062 38.7501 10.0274 38.6713C9.77042 38.2049 9.4003 37.8109 8.95121 37.5255C8.50212 37.2401 7.98854 37.0726 7.45795 37.0385C7.37141 37.03 7.28495 37.0548 7.21598 37.1077C7.14701 37.1607 7.10066 37.2379 7.08635 37.3237C7.07809 37.4082 7.1028 37.4926 7.15523 37.5593C7.20765 37.626 7.28377 37.6698 7.36768 37.6817C7.79139 37.6997 8.20387 37.8239 8.56748 38.0428C8.93109 38.2617 9.23419 38.5682 9.44909 38.9346C9.47904 39.0045 9.53331 39.0611 9.60179 39.094C9.67027 39.1269 9.74833 39.1337 9.82145 39.1133L9.86469 39.1018Z" fill="#F1562E"/>
<path d="M11.5572 38.4473C11.6191 38.4325 11.6749 38.3993 11.7174 38.3519C11.7599 38.3046 11.7871 38.2455 11.7952 38.1823C11.8146 37.6485 11.6982 37.1183 11.457 36.6415C11.2157 36.1648 10.8576 35.7572 10.4161 35.4569C10.384 35.4291 10.3465 35.4081 10.3061 35.3952C10.2656 35.3823 10.223 35.3777 10.1808 35.3818C10.1385 35.3859 10.0976 35.3985 10.0604 35.4189C10.0231 35.4393 9.99047 35.4671 9.96431 35.5006C9.92536 35.574 9.91564 35.6596 9.93718 35.74C9.95872 35.8203 10.0099 35.8896 10.0804 35.9337C10.429 36.1714 10.7143 36.4909 10.9113 36.8643C11.1083 37.2378 11.211 37.6537 11.2105 38.0759C11.2023 38.1604 11.2269 38.2448 11.2793 38.3115C11.3318 38.3782 11.4079 38.422 11.4918 38.4338C11.5327 38.4371 11.5734 38.4261 11.6071 38.4029L11.5572 38.4473Z" fill="#F1562E"/>
<path d="M10.9505 31.5689L7.10215 32.6001C5.83914 32.9211 4.74383 33.7073 4.03482 34.8019C3.3258 35.8966 3.05522 37.219 3.27707 38.5055C3.49892 39.7919 4.19687 40.9476 5.23166 41.7421C6.26645 42.5365 7.56198 42.9113 8.8597 42.7915L10.9022 42.6311L11.1617 40.2557L8.45432 39.4337C8.19628 39.3634 7.96868 39.2094 7.8072 38.9959C7.64572 38.7823 7.55947 38.5213 7.5619 38.2535C7.56432 37.9858 7.65527 37.7264 7.82058 37.5161C7.98589 37.3058 8.21621 37.1564 8.47548 37.0913L12.2086 36.091L10.9505 31.5689Z" fill="#FD7E42"/>
<path d="M4.91753 33.8506C4.39308 34.6617 4.10487 35.6034 4.08524 36.5699C4.06561 37.5365 4.31536 38.4896 4.80642 39.3223C5.29748 40.155 6.0104 40.8344 6.86523 41.2842C7.72007 41.734 8.68298 41.9363 9.64583 41.8686L10.9944 41.7704L10.9045 42.6456L8.86195 42.806C7.78942 42.8882 6.71758 42.6349 5.79446 42.0809C4.87134 41.5269 4.14252 40.6997 3.70868 39.7135C3.27484 38.7272 3.15737 37.6307 3.37253 36.5753C3.58769 35.5199 4.12485 34.5577 4.90979 33.8217L4.91753 33.8506Z" fill="#FC5327"/>
<path d="M7.28109 35.0589C6.87683 35.3375 5.96445 34.6999 5.18212 33.625C5.66704 33.2305 6.21832 32.9256 6.8101 32.7246C7.45497 33.8053 7.66038 34.8025 7.28109 35.0589Z" fill="#FC5327"/>
<path d="M3.62682 35.775C4.89069 36.2255 5.7714 36.918 5.60201 37.3812C5.43262 37.8444 4.4599 37.9039 3.25299 37.6083C3.26734 36.9823 3.38894 36.3635 3.61244 35.7788L3.62682 35.775Z" fill="#FC5327"/>
<path d="M5.12652 39.8767C5.3937 40.2402 5.71413 40.5613 6.07692 40.8291C5.84275 41.1677 5.56711 41.4754 5.25647 41.7453C4.77747 41.3638 4.36676 40.9034 4.042 40.3839C4.38387 40.1757 4.74756 40.0055 5.12652 39.8767Z" fill="#ED4322"/>
<path d="M11.5914 39.5527L16.1514 39.2749C16.2161 39.2711 16.2808 39.2814 16.3411 39.3051C16.4014 39.3288 16.4559 39.3654 16.5007 39.4122C16.5456 39.459 16.5798 39.515 16.6009 39.5764C16.6221 39.6377 16.6297 39.7029 16.6232 39.7674C16.6175 39.8612 16.5805 39.9504 16.518 40.0205C16.4555 40.0905 16.3712 40.1375 16.2788 40.1537L14.1889 40.7137C14.1752 40.7246 14.1651 40.7392 14.1596 40.7558C14.1542 40.7724 14.1537 40.7902 14.1582 40.807C14.1628 40.8239 14.1721 40.8391 14.1851 40.8507C14.1981 40.8623 14.2142 40.8699 14.2314 40.8725L16.4684 41.4956C16.5601 41.5266 16.6388 41.5874 16.6919 41.6683C16.7451 41.7493 16.7697 41.8457 16.7617 41.9422C16.7538 42.0387 16.7139 42.1298 16.6482 42.2008C16.5826 42.2719 16.4951 42.3189 16.3996 42.3343L14.0899 42.5353C14.0663 42.5314 14.0422 42.537 14.0227 42.5509C14.0033 42.5648 13.9902 42.5859 13.9862 42.6095C13.9823 42.6332 13.9879 42.6574 14.0018 42.6769C14.0157 42.6963 14.0368 42.7095 14.0604 42.7134L16.0412 43.5909C16.1278 43.6291 16.2006 43.6929 16.2499 43.7738C16.2991 43.8546 16.3225 43.9487 16.3168 44.0432C16.3091 44.1073 16.2882 44.1691 16.2553 44.2245C16.2224 44.28 16.1782 44.328 16.1257 44.3654C16.0732 44.4028 16.0134 44.4288 15.9503 44.4417C15.8871 44.4546 15.8219 44.4541 15.759 44.4403L11.3563 43.3451C10.9937 43.2659 10.6735 43.0542 10.4582 42.7514C10.2428 42.4486 10.1477 42.0765 10.1914 41.7075L10.2585 40.9776C10.2831 40.606 10.4452 40.2571 10.7133 39.9992C10.9814 39.7413 11.3361 39.593 11.7078 39.5834L11.5914 39.5527Z" fill="#FD7E42"/>
<path d="M10.074 41.6767L10.1411 40.9469C10.1634 40.6438 10.2776 40.3549 10.4682 40.1185C10.6588 39.8822 10.9168 39.7098 11.2079 39.6242L11.2273 39.6964C11.1992 40.0649 11.3006 40.4318 11.5141 40.7335C11.7275 41.0352 12.0395 41.2528 12.396 41.3486L16.2495 42.2968L14.0013 42.4968C13.9778 42.4929 13.9536 42.4985 13.9341 42.5124C13.9147 42.5263 13.9015 42.5474 13.8976 42.571C13.8937 42.5947 13.8993 42.6189 13.9133 42.6383C13.9272 42.6578 13.9482 42.671 13.9718 42.675L15.9526 43.5524C16.0391 43.5906 16.112 43.6544 16.1613 43.7353C16.2106 43.8162 16.234 43.9102 16.2283 44.0047C16.2206 44.0688 16.1996 44.1306 16.1667 44.1861C16.1338 44.2416 16.0897 44.2895 16.0372 44.3269C15.9846 44.3643 15.9249 44.3903 15.8617 44.4032C15.7985 44.416 15.7334 44.4156 15.6704 44.4018L11.2677 43.3067C10.9051 43.2274 10.5849 43.0157 10.3696 42.7129C10.1542 42.4101 10.0591 42.038 10.1028 41.669L10.074 41.6767Z" fill="#FC5327"/>
<path d="M10.2159 34.3034C10.7189 36.1804 11.3124 37.6462 13.1862 37.1442C15.0599 36.6421 21.2839 33.3495 20.781 31.4725C20.2781 29.5955 13.2416 29.856 11.3679 30.3581C9.49412 30.8602 9.69364 32.3542 10.2159 34.3034Z" fill="#FD7E42"/>
<path d="M11.3225 30.3699C11.3523 31.0827 11.474 31.7887 11.6845 32.4704C12.1836 34.3329 12.7771 35.7988 14.6509 35.2967C16.8561 34.5186 18.9219 33.3904 20.7689 31.9551C20.3058 33.8589 14.8693 36.6309 13.1542 37.0905C11.439 37.5501 10.6869 36.1268 10.1839 34.2498C9.68098 32.3728 9.466 30.821 11.307 30.3122L11.3225 30.3699Z" fill="#FC5327"/>
<path d="M17.2975 32.9479C16.8437 33.0695 16.3771 32.7996 16.2554 32.3451C16.1336 31.8905 16.4027 31.4235 16.8564 31.3019C17.3102 31.1803 17.7767 31.4503 17.8985 31.9048C18.0203 32.3593 17.7512 32.8263 17.2975 32.9479Z" fill="#554E57"/>
<path d="M16.6351 31.3924C16.6404 31.4727 16.6614 31.5512 16.697 31.6234C16.7262 31.7327 16.7769 31.8351 16.8461 31.9246C16.9153 32.0141 17.0016 32.0889 17.1 32.1446C17.1983 32.2004 17.3068 32.236 17.419 32.2493C17.5312 32.2627 17.6449 32.2535 17.7535 32.2224L17.9841 32.1606C17.9776 32.3448 17.9126 32.5222 17.7986 32.6668C17.6845 32.8115 17.5274 32.9159 17.35 32.965C17.1322 33.0193 16.9019 32.9868 16.7074 32.8744C16.513 32.7619 16.3697 32.5782 16.3079 32.3621C16.2501 32.1867 16.2507 31.9973 16.3097 31.8224C16.3687 31.6475 16.4829 31.4966 16.6351 31.3924Z" fill="#453E43"/>
<path d="M21.0791 33.6829C21.643 33.604 22.176 33.3776 22.6243 33.0266C23.0727 32.6755 23.4206 32.2121 23.633 31.6832C23.7203 30.9884 23.6068 30.2828 23.3059 29.6503C23.0049 29.0178 22.5293 28.4849 21.9353 28.1146C20.3251 26.8555 18.4714 25.9451 16.4918 25.4414C13.1449 24.4812 9.817 24.6301 8.16832 25.7992C8.10156 25.8514 8.05756 25.9274 8.04552 26.0114C8.03347 26.0954 8.05432 26.1808 8.10369 26.2498C8.12685 26.2845 8.15667 26.3142 8.19141 26.3372C8.22615 26.3602 8.26511 26.3761 8.30602 26.3838C8.34693 26.3916 8.38897 26.3911 8.42968 26.3824C8.4704 26.3738 8.50896 26.357 8.54313 26.3332C10.0238 25.2866 13.146 25.1773 16.3179 26.0606C20.439 27.2002 23.4721 29.6991 23.0002 31.5123C22.7106 32.5648 21.1554 33.2756 18.93 33.3302C18.8822 33.3222 18.8332 33.3249 18.7865 33.338C18.7399 33.3512 18.6967 33.3746 18.6602 33.4065C18.6236 33.4383 18.5946 33.4779 18.5752 33.5224C18.5557 33.5668 18.5463 33.6151 18.5477 33.6636C18.5491 33.7122 18.5612 33.7598 18.5832 33.8031C18.6051 33.8464 18.6363 33.8843 18.6746 33.9141C18.7129 33.9439 18.7573 33.9649 18.8047 33.9755C18.852 33.986 18.9011 33.986 18.9484 33.9753C19.6674 33.9583 20.3822 33.8602 21.0791 33.6829Z" fill="#FD7E42"/>
<path d="M19.3041 33.865C21.6577 32.8475 22.9386 31.3436 22.8066 29.9862C22.675 28.8609 21.6448 27.8989 19.8971 27.3148C17.9463 26.7435 15.8991 26.5809 13.8834 26.8371C10.357 27.2249 7.38306 28.5788 6.28605 30.2501C6.2525 30.285 6.22708 30.327 6.21165 30.373C6.19622 30.419 6.19115 30.4678 6.19679 30.516C6.20244 30.5642 6.21866 30.6106 6.24429 30.6518C6.26993 30.693 6.30434 30.728 6.34506 30.7543C6.38579 30.7806 6.43184 30.7976 6.47987 30.804C6.5279 30.8104 6.57671 30.806 6.62285 30.7913C6.669 30.7766 6.71133 30.7518 6.74677 30.7187C6.78221 30.6857 6.80986 30.6452 6.82781 30.6001C7.80109 29.1013 10.7185 27.8244 13.9489 27.485C15.8742 27.2191 17.8344 27.375 19.6944 27.9418C21.1689 28.4288 22.0689 29.1935 22.1636 30.0657C22.2583 30.9379 21.0888 32.3964 19.0513 33.2673C18.9847 33.3016 18.9318 33.3578 18.9014 33.4265C18.8711 33.4951 18.8652 33.5721 18.8846 33.6447C18.904 33.7172 18.9477 33.7809 19.0083 33.8252C19.0689 33.8695 19.1428 33.8917 19.2177 33.8881L19.3041 33.865Z" fill="#FD7E42"/>
<path d="M20.7931 40.2843C20.8668 40.282 20.9374 40.2538 20.9923 40.2046C21.0472 40.1553 21.0831 40.0882 21.0935 40.0151C21.1454 39.4837 21.0611 38.9478 20.8486 38.4582C20.6361 37.9685 20.3025 37.5412 19.8793 37.2166C19.8158 37.163 19.7343 37.1354 19.6514 37.1395C19.5684 37.1436 19.4901 37.1791 19.4322 37.2388C19.4016 37.2697 19.3777 37.3068 19.3621 37.3475C19.3466 37.3882 19.3397 37.4317 19.3418 37.4752C19.344 37.5188 19.3551 37.5614 19.3747 37.6003C19.3942 37.6393 19.4216 37.6738 19.4551 37.7016C19.7923 37.9544 20.0609 38.2877 20.2364 38.6711C20.412 39.0546 20.4889 39.4759 20.4602 39.8968C20.4462 39.9807 20.4652 40.0668 20.5133 40.137C20.5613 40.2072 20.6347 40.256 20.7179 40.2731L20.7931 40.2843Z" fill="#F1562E"/>
<path d="M20.1963 40.5533C20.2802 40.5344 20.3533 40.4834 20.4 40.4111C20.4468 40.3389 20.4633 40.2511 20.4461 40.1667C20.2932 39.6567 20.0144 39.1935 19.6355 38.8199C19.2567 38.4463 18.7899 38.1743 18.2784 38.0291C18.1956 38.0027 18.1059 38.0087 18.0273 38.0459C17.9487 38.0831 17.8871 38.1488 17.8551 38.2297C17.8292 38.3105 17.8356 38.3982 17.8727 38.4745C17.9099 38.5508 17.9751 38.6096 18.0547 38.6389C18.465 38.7458 18.8421 38.9541 19.1514 39.2447C19.4607 39.5353 19.6924 39.8989 19.8253 40.3023C19.8399 40.3769 19.881 40.4437 19.941 40.4903C20.001 40.5368 20.0759 40.56 20.1516 40.5555L20.1963 40.5533Z" fill="#F1562E"/>
<path d="M21.9891 40.27C22.0526 40.2686 22.1142 40.2479 22.1658 40.2106C22.2173 40.1733 22.2563 40.1212 22.2776 40.0612C22.409 39.5434 22.4069 39.0006 22.2716 38.4837C22.1362 37.9669 21.872 37.493 21.5037 37.1064C21.4781 37.0724 21.446 37.044 21.4092 37.0228C21.3723 37.0017 21.3316 36.9883 21.2895 36.9834C21.2473 36.9784 21.2046 36.9822 21.1639 36.9943C21.1233 37.0064 21.0855 37.0267 21.0529 37.0538C20.9993 37.1175 20.9718 37.199 20.9759 37.2821C20.98 37.3653 21.0155 37.4438 21.075 37.5018C21.3658 37.8076 21.5773 38.18 21.6912 38.5865C21.8051 38.9931 21.8179 39.4214 21.7284 39.834C21.7025 39.9148 21.7089 40.0025 21.746 40.0787C21.7832 40.155 21.8484 40.2139 21.928 40.2431C21.9672 40.2549 22.0093 40.2528 22.0472 40.2372L21.9891 40.27Z" fill="#F1562E"/>
<path d="M22.8447 33.4181L18.8655 33.6151C17.5632 33.6628 16.3268 34.2006 15.403 35.1212C14.4793 36.0419 13.9361 37.2776 13.8819 38.5819C13.8277 39.8862 14.2664 41.1631 15.1105 42.1577C15.9547 43.1524 17.1422 43.7917 18.436 43.9481L20.4665 44.2217L21.2207 41.9544L18.7473 40.5802C18.5098 40.4572 18.3198 40.2587 18.2069 40.0159C18.0941 39.7731 18.0648 39.4997 18.1236 39.2385C18.1824 38.9773 18.3259 38.7429 18.5318 38.5722C18.7378 38.4015 18.9944 38.304 19.2616 38.2949L23.1216 38.1037L22.8447 33.4181Z" fill="#FD7E42"/>
<path d="M16.466 34.3771C15.7824 35.0596 15.3022 35.9194 15.0793 36.8601C14.8565 37.8007 14.8998 38.7851 15.2043 39.7026C15.5089 40.6201 16.0626 41.4344 16.8035 42.0543C17.5444 42.6741 18.443 43.0748 19.3985 43.2115L20.7375 43.3997L20.4652 44.2363L18.4347 43.9627C17.3689 43.8171 16.3745 43.3435 15.5889 42.6075C14.8032 41.8714 14.2651 40.9092 14.0488 39.8537C13.8325 38.7981 13.9488 37.7015 14.3815 36.7151C14.8142 35.7287 15.5421 34.9014 16.4645 34.3473L16.466 34.3771Z" fill="#FC5327"/>
<path d="M18.5226 36.0568C18.0687 36.2439 17.3111 35.4283 16.7729 34.2128C17.33 33.9293 17.9332 33.7474 18.554 33.6756C18.9567 34.8679 18.9474 35.8861 18.5226 36.0568Z" fill="#FC5327"/>
<path d="M14.7993 35.9866C15.9399 36.6934 16.6549 37.5559 16.3917 37.973C16.1285 38.3901 15.165 38.2433 14.0475 37.7C14.1935 37.091 14.4428 36.5117 14.7844 35.9873L14.7993 35.9866Z" fill="#FC5327"/>
<path d="M15.4011 40.3121C15.5857 40.7238 15.8312 41.1052 16.1295 41.4435C15.8292 41.7251 15.4949 41.9679 15.1344 42.1662C14.7465 41.6923 14.442 41.1557 14.234 40.5795C14.6121 40.4479 15.0035 40.3583 15.4011 40.3121Z" fill="#ED4322"/>
<path d="M21.7886 41.3578L26.3047 42.047C26.3687 42.057 26.4299 42.0807 26.4838 42.1166C26.5378 42.1525 26.5833 42.1997 26.6173 42.2549C26.6512 42.3101 26.6728 42.3721 26.6806 42.4365C26.6884 42.5009 26.6821 42.5662 26.6622 42.628C26.6368 42.7185 26.5818 42.7978 26.506 42.8531C26.4301 42.9085 26.3379 42.9366 26.2441 42.933L24.0831 43.04C24.0674 43.0478 24.0544 43.06 24.0456 43.075C24.0368 43.0901 24.0326 43.1074 24.0334 43.1248C24.0343 43.1422 24.0402 43.159 24.0505 43.1731C24.0607 43.1873 24.0749 43.1981 24.0912 43.2042L26.1467 44.2848C26.2297 44.3343 26.2939 44.4104 26.3288 44.5007C26.3637 44.591 26.3674 44.6904 26.3393 44.7831C26.3112 44.8758 26.253 44.9563 26.1738 45.012C26.0947 45.0676 25.9992 45.0951 25.9027 45.09L23.6025 44.7999C23.5803 44.7911 23.5555 44.7914 23.5335 44.8009C23.5116 44.8104 23.4943 44.8283 23.4855 44.8506C23.4767 44.8728 23.4771 44.8977 23.4865 44.9197C23.496 44.9417 23.5139 44.959 23.5361 44.9678L25.2875 46.2429C25.3641 46.2985 25.4218 46.3762 25.453 46.4657C25.4841 46.5551 25.4871 46.6519 25.4616 46.7431C25.4406 46.8042 25.4071 46.8602 25.3633 46.9075C25.3194 46.9548 25.2661 46.9924 25.2069 47.0179C25.1477 47.0434 25.0838 47.0561 25.0193 47.0554C24.9549 47.0547 24.8913 47.0405 24.8326 47.0138L20.7596 45.0155C20.4219 44.8616 20.1535 44.5872 20.0067 44.2458C19.86 43.9045 19.8455 43.5206 19.966 43.1691L20.1854 42.4698C20.2876 42.1117 20.5197 41.8048 20.8361 41.6092C21.1525 41.4136 21.5305 41.3434 21.8959 41.4123L21.7886 41.3578Z" fill="#FD7E42"/>
<path d="M19.8583 43.1144L20.0777 42.4151C20.1634 42.1236 20.3358 41.8651 20.572 41.6743C20.8081 41.4834 21.0967 41.3692 21.3993 41.3469L21.403 41.4216C21.2979 41.7759 21.3197 42.1559 21.4648 42.4958C21.6099 42.8357 21.869 43.1142 22.1974 43.2829L25.7645 45.0219L23.5247 44.7437C23.5024 44.7348 23.4776 44.7352 23.4557 44.7448C23.4337 44.7543 23.4164 44.7721 23.4076 44.7944C23.3988 44.8166 23.3992 44.8415 23.4087 44.8635C23.4182 44.8854 23.436 44.9028 23.4583 44.9116L25.2096 46.1867C25.2862 46.2423 25.344 46.32 25.3751 46.4095C25.4063 46.4989 25.4093 46.5958 25.3838 46.687C25.3628 46.748 25.3293 46.804 25.2855 46.8513C25.2416 46.8986 25.1883 46.9362 25.1291 46.9616C25.0699 46.9871 25.006 46.9999 24.9415 46.9992C24.8771 46.9985 24.8135 46.9843 24.7548 46.9575L20.6818 44.9593C20.344 44.8054 20.0756 44.531 19.9289 44.1896C19.7821 43.8483 19.7676 43.4644 19.8881 43.1129L19.8583 43.1144Z" fill="#FC5327"/>
<path d="M21.5504 35.9365C21.6465 37.8773 21.9179 39.4353 23.8554 39.3393C25.7929 39.2433 32.5709 37.3363 32.4748 35.3954C32.3787 33.4546 25.4453 32.2265 23.5079 32.3225C21.5704 32.4184 21.4506 33.921 21.5504 35.9365Z" fill="#FD7E42"/>
<path d="M23.4617 32.3246C23.3407 33.0277 23.3108 33.7435 23.373 34.4542C23.4683 36.3801 23.7397 37.9381 25.6772 37.8421C27.9969 37.5462 30.254 36.8786 32.362 35.8648C31.5081 37.6282 25.6096 39.1925 23.8361 39.2803C22.0626 39.3681 21.6272 37.8182 21.5311 35.8774C21.435 33.9366 21.5519 32.3743 23.4588 32.2649L23.4617 32.3246Z" fill="#FC5327"/>
<path d="M28.7585 36.1037C28.2893 36.127 27.8901 35.7649 27.8668 35.2949C27.8435 34.8249 28.205 34.425 28.6742 34.4018C29.1434 34.3786 29.5426 34.7407 29.5658 35.2107C29.5891 35.6807 29.2277 36.0805 28.7585 36.1037Z" fill="#554E57"/>
<path d="M28.4389 34.4435C28.4271 34.5232 28.4311 34.6043 28.4507 34.6824C28.4563 34.7954 28.4843 34.9062 28.5331 35.0083C28.5818 35.1103 28.6505 35.2016 28.7348 35.2769C28.8192 35.3521 28.9177 35.4098 29.0246 35.4465C29.1315 35.4831 29.2445 35.4982 29.3573 35.4906L29.5957 35.4788C29.5506 35.6575 29.4497 35.8172 29.3077 35.9346C29.1658 36.0519 28.9901 36.1209 28.8064 36.1315C28.5821 36.1387 28.3637 36.0584 28.1973 35.9075C28.031 35.7566 27.9296 35.5469 27.9147 35.3226C27.8951 35.1389 27.9357 34.9539 28.0302 34.7954C28.1248 34.6368 28.2682 34.5133 28.4389 34.4435Z" fill="#453E43"/>
<path d="M32.3004 37.6191C32.8682 37.6608 33.4369 37.5518 33.9492 37.3031C34.4615 37.0544 34.8992 36.6747 35.2183 36.2025C35.4501 35.5416 35.4877 34.828 35.3269 34.1463C35.166 33.4646 34.8133 32.8433 34.3107 32.3563C33.002 30.7861 31.3817 29.5055 29.5528 28.596C26.4833 26.9521 23.1988 26.3964 21.3408 27.1918C21.2645 27.2288 21.2055 27.2938 21.176 27.3734C21.1465 27.4529 21.1489 27.5408 21.1826 27.6187C21.198 27.6575 21.2209 27.6928 21.25 27.7226C21.2791 27.7524 21.3138 27.7761 21.3522 27.7923C21.3905 27.8085 21.4317 27.8169 21.4734 27.817C21.515 27.8171 21.5562 27.8089 21.5946 27.7928C23.2626 27.0817 26.3377 27.6327 29.2522 29.1646C33.0407 31.147 35.4791 34.229 34.6357 35.9021C34.1308 36.8699 32.4608 37.237 30.2739 36.8215C30.2288 36.8035 30.1803 36.7958 30.132 36.7989C30.0836 36.8019 30.0365 36.8157 29.994 36.8391C29.9516 36.8626 29.9149 36.8952 29.8865 36.9345C29.8581 36.9739 29.8388 37.0191 29.8299 37.0668C29.821 37.1145 29.8228 37.1637 29.8352 37.2106C29.8475 37.2576 29.87 37.3013 29.9012 37.3385C29.9323 37.3757 29.9713 37.4055 30.0154 37.4258C30.0594 37.4461 30.1074 37.4564 30.1559 37.4559C30.8624 37.5908 31.5817 37.6455 32.3004 37.6191Z" fill="#FD7E42"/>
<path d="M30.5269 37.4232C33.042 36.9245 34.611 35.7243 34.768 34.3696C34.8765 33.2417 34.0722 32.0843 32.4868 31.1451C30.7002 30.1755 28.7332 29.5852 26.7088 29.4109C23.1799 29.0469 19.9874 29.7437 18.5629 31.1463C18.5227 31.1734 18.489 31.2091 18.4642 31.2508C18.4395 31.2925 18.4242 31.3391 18.4196 31.3874C18.4149 31.4357 18.421 31.4845 18.4374 31.5301C18.4538 31.5758 18.48 31.6173 18.5143 31.6516C18.5486 31.6859 18.59 31.7122 18.6356 31.7285C18.6812 31.7449 18.7298 31.751 18.7781 31.7463C18.8263 31.7416 18.8729 31.7263 18.9145 31.7014C18.9561 31.6766 18.9917 31.6429 19.0187 31.6026C20.286 30.3426 23.407 29.7091 26.6363 30.058C28.5744 30.2038 30.4578 30.7692 32.1565 31.7152C33.4953 32.502 34.214 33.4392 34.1228 34.3117C34.0315 35.1843 32.581 36.3636 30.4057 36.7857C30.3333 36.8052 30.2698 36.8489 30.2256 36.9097C30.1815 36.9704 30.1595 37.0444 30.1632 37.1194C30.1669 37.1944 30.1962 37.2659 30.2461 37.322C30.296 37.3781 30.3635 37.4153 30.4375 37.4276L30.5269 37.4232Z" fill="#FD7E42"/>
<path d="M12.5518 42.7842C12.6226 42.8047 12.6984 42.7997 12.7658 42.7698C12.8333 42.7399 12.8881 42.6872 12.9206 42.6208C13.1341 42.1315 13.2194 41.5958 13.1686 41.0644C13.1178 40.5331 12.9325 40.0236 12.6302 39.5842C12.5864 39.5135 12.5175 39.4621 12.4373 39.4404C12.3571 39.4187 12.2717 39.4283 12.1982 39.4671C12.1595 39.4871 12.1253 39.515 12.0979 39.5489C12.0706 39.5828 12.0506 39.622 12.0392 39.6641C12.0278 39.7062 12.0252 39.7502 12.0317 39.7932C12.0383 39.8363 12.0537 39.8776 12.077 39.9144C12.3196 40.259 12.4721 40.659 12.5206 41.0779C12.5692 41.4968 12.5121 41.9213 12.3548 42.3127C12.3156 42.3882 12.3071 42.476 12.3311 42.5576C12.3551 42.6392 12.4098 42.7082 12.4836 42.7502L12.5518 42.7842Z" fill="#F1562E"/>
<path d="M11.9014 42.8555C11.987 42.8635 12.0723 42.8375 12.1391 42.7832C12.2058 42.7289 12.2486 42.6506 12.2584 42.565C12.2704 42.0327 12.1484 41.506 11.9035 41.0337C11.6585 40.5613 11.2986 40.1585 10.857 39.8624C10.7864 39.8116 10.6992 39.7896 10.613 39.8007C10.5267 39.8118 10.4479 39.8553 10.3924 39.9223C10.3428 39.9912 10.3218 40.0766 10.3336 40.1606C10.3454 40.2447 10.3892 40.3208 10.4558 40.3732C10.8131 40.6016 11.1074 40.9162 11.3118 41.2882C11.5162 41.6601 11.6243 42.0775 11.626 42.5021C11.6168 42.5776 11.6353 42.6539 11.678 42.7167C11.7207 42.7795 11.7847 42.8247 11.8582 42.8438L11.9014 42.8555Z" fill="#F1562E"/>
<path d="M13.6936 43.14C13.7545 43.1583 13.8195 43.1576 13.88 43.1381C13.9405 43.1185 13.9937 43.081 14.0325 43.0305C14.3175 42.5786 14.4832 42.0617 14.5141 41.5283C14.545 40.9949 14.4401 40.4626 14.2092 39.9811C14.1954 39.9409 14.1736 39.9039 14.1451 39.8724C14.1166 39.841 14.0821 39.8156 14.0435 39.7979C14.0049 39.7802 13.9632 39.7706 13.9207 39.7695C13.8783 39.7685 13.8361 39.7761 13.7967 39.7919C13.7261 39.8358 13.6747 39.9049 13.6529 39.9852C13.6312 40.0656 13.6407 40.1512 13.6794 40.2247C13.8614 40.6054 13.9476 41.025 13.9303 41.4468C13.9131 41.8687 13.7929 42.2799 13.5804 42.6447C13.5308 42.7136 13.5097 42.7989 13.5216 42.883C13.5334 42.967 13.5772 43.0431 13.6438 43.0955C13.6775 43.1188 13.7182 43.1298 13.759 43.1267L13.6936 43.14Z" fill="#F1562E"/>
<path d="M16.6239 36.8875L12.7784 35.8457C11.5251 35.4888 10.183 35.6184 9.02005 36.2086C7.85708 36.7989 6.95874 37.8064 6.50428 39.0302C6.04982 40.2539 6.07268 41.6039 6.56828 42.8106C7.06388 44.0174 7.99578 44.9923 9.17801 45.5407L11.0247 46.4281L12.4424 44.5047L10.5144 42.4337C10.3266 42.2433 10.2072 41.9958 10.1749 41.7301C10.1425 41.4643 10.1991 41.1952 10.3357 40.9649C10.4723 40.7346 10.6812 40.5561 10.9298 40.4573C11.1784 40.3585 11.4526 40.3451 11.7095 40.419L15.4398 41.4296L16.6239 36.8875Z" fill="#FD7E42"/>
<path d="M10.2614 35.8292C9.40044 36.2671 8.67814 36.9365 8.1756 37.7624C7.67306 38.5882 7.41018 39.5378 7.41643 40.5045C7.42267 41.4712 7.69778 42.4168 8.21094 43.2351C8.7241 44.0535 9.45501 44.7122 10.3216 45.1374L11.5369 45.7299L11.0195 46.4415L9.17285 45.5541C8.20418 45.0864 7.4047 44.3288 6.88484 43.3861C6.36498 42.4433 6.1504 41.3619 6.27075 40.2912C6.3911 39.2205 6.84043 38.2134 7.55668 37.4089C8.27294 36.6044 9.22076 36.0424 10.2692 35.8003L10.2614 35.8292Z" fill="#FC5327"/>
<path d="M11.6981 38.062C11.2086 38.0998 10.7401 37.0901 10.6036 35.7677C11.2211 35.6702 11.8509 35.6835 12.4636 35.807C12.4782 37.0654 12.1548 38.0309 11.6981 38.062Z" fill="#FC5327"/>
<path d="M8.17847 36.845C9.04491 37.8696 9.45852 38.9108 9.07934 39.2262C8.70017 39.5416 7.82922 39.1044 6.93419 38.2425C7.26111 37.7084 7.67714 37.2344 8.1641 36.8412L8.17847 36.845Z" fill="#FC5327"/>
<path d="M7.41508 41.145C7.46348 41.5935 7.57921 42.0321 7.75836 42.446C7.3858 42.621 6.99285 42.7487 6.58868 42.8259C6.36618 42.2554 6.24234 41.6511 6.22252 41.0387C6.62276 41.0304 7.02268 41.066 7.41508 41.145Z" fill="#ED4322"/>
<path d="M14.6153 38.8829C14.1072 40.7586 13.884 42.3242 15.7564 42.8314C17.6288 43.3386 24.6644 43.6186 25.1726 41.743C25.6807 39.8673 19.4658 36.5576 17.5934 36.0504C15.7211 35.5431 15.143 36.9352 14.6153 38.8829Z" fill="#FD7E42"/>
<path d="M17.5484 36.038C17.2161 36.6693 16.9666 37.3408 16.8061 38.036C16.3019 39.8972 16.0788 41.4628 17.9511 41.97C20.2488 42.4052 22.6017 42.4674 24.9198 42.1544C23.5629 43.5678 17.4697 43.2334 15.7558 42.7691C14.0419 42.3048 14.1066 40.6963 14.6147 38.8207C15.1228 36.9451 15.7166 35.4953 17.564 35.9803L17.5484 36.038Z" fill="#FC5327"/>
<path d="M21.4193 41.2685C20.9659 41.1457 20.698 40.678 20.8211 40.2238C20.9441 39.7696 21.4114 39.501 21.8649 39.6238C22.3183 39.7466 22.586 40.2144 22.463 40.6686C22.34 41.1228 21.8727 41.3914 21.4193 41.2685Z" fill="#554E57"/>
<path d="M21.628 39.5908C21.5923 39.6629 21.571 39.7413 21.5655 39.8216C21.5359 39.9309 21.5283 40.0448 21.5432 40.157C21.558 40.2691 21.5951 40.3772 21.6521 40.4748C21.7091 40.5724 21.785 40.6577 21.8753 40.7256C21.9656 40.7935 22.0685 40.8427 22.1781 40.8703L22.4085 40.9328C22.3103 41.0888 22.1651 41.2095 21.9938 41.2773C21.8225 41.3451 21.6342 41.3564 21.4561 41.3097C21.2406 41.2473 21.0577 41.1035 20.9461 40.9086C20.8345 40.7136 20.8029 40.4829 20.8579 40.2649C20.8961 40.0842 20.9918 39.9208 21.1307 39.7992C21.2696 39.6776 21.4441 39.6044 21.628 39.5908Z" fill="#453E43"/>
<path d="M24.3199 43.8039C24.8471 44.0189 25.4216 44.091 25.9857 44.0127C26.5497 43.9344 27.0834 43.7085 27.5327 43.3579C27.9573 42.8009 28.2135 42.1339 28.2711 41.4358C28.3287 40.7377 28.1852 40.038 27.8576 39.4194C27.098 37.5218 25.9525 35.8033 24.4939 34.3733C22.0824 31.8616 19.1302 30.3185 17.1173 30.5011C17.0334 30.5127 16.9571 30.5563 16.9045 30.6229C16.8519 30.6895 16.827 30.7738 16.835 30.8582C16.8376 30.8999 16.8485 30.9405 16.867 30.9779C16.8855 31.0152 16.9112 31.0485 16.9426 31.0758C16.9741 31.103 17.0107 31.1237 17.0503 31.1367C17.0898 31.1496 17.1316 31.1545 17.1731 31.1511C18.9792 30.99 21.7337 32.464 24.0324 34.8213C27.0232 37.877 28.3904 41.5615 27.0714 42.8922C26.2922 43.6568 24.5905 43.49 22.6389 42.4193C22.6016 42.3883 22.5578 42.366 22.5109 42.3539C22.4639 42.3419 22.4149 42.3404 22.3673 42.3496C22.3196 42.3588 22.2747 42.3785 22.2355 42.4071C22.1964 42.4358 22.164 42.4728 22.1408 42.5155C22.1176 42.5581 22.1042 42.6054 22.1014 42.6539C22.0986 42.7024 22.1065 42.7508 22.1247 42.7958C22.1428 42.8409 22.1707 42.8813 22.2063 42.9142C22.2419 42.9471 22.2844 42.9717 22.3307 42.9862C22.9609 43.3327 23.6282 43.607 24.3199 43.8039Z" fill="#FD7E42"/>
<path d="M22.6928 43.0697C25.2389 43.3723 27.102 42.7155 27.6698 41.4755C28.1213 40.4364 27.7139 39.087 26.4962 37.7041C25.0964 36.23 23.408 35.0609 21.5365 34.2698C18.2926 32.8335 15.041 32.5101 13.2528 33.404C13.2063 33.4174 13.1632 33.4409 13.1267 33.4729C13.0903 33.5049 13.0614 33.5446 13.0421 33.5891C13.0227 33.6336 13.0135 33.6819 13.0149 33.7304C13.0164 33.7789 13.0286 33.8264 13.0506 33.8696C13.0726 33.9128 13.1038 33.9506 13.1422 33.9803C13.1805 34.01 13.2249 34.0307 13.2722 34.0412C13.3195 34.0516 13.3685 34.0514 13.4158 34.0407C13.463 34.0299 13.5073 34.0088 13.5454 33.9788C15.1399 33.1719 18.304 33.5335 21.2676 34.8629C23.0658 35.6002 24.6825 36.7198 26.0059 38.1443C27.0362 39.3061 27.4302 40.4195 27.0739 41.2212C26.7176 42.0229 24.9737 42.6965 22.7744 42.4259C22.6996 42.4221 22.6256 42.4441 22.5649 42.4882C22.5042 42.5324 22.4604 42.596 22.4407 42.6684C22.4211 42.7409 22.4268 42.818 22.4569 42.8867C22.4871 42.9554 22.5398 43.0118 22.6064 43.0463L22.6928 43.0697Z" fill="#FD7E42"/>
<path d="M7.90304 45.4728L2.1167 40.176C2.1167 40.176 13.2292 42.4516 31.75 42.4516C50.2709 42.4516 61.3834 40.229 61.3834 40.229L56.288 45.2395C55.4604 46.0533 54.4724 46.6866 53.3498 46.9813C50.4225 47.7498 43.5509 49.119 31.75 49.119C19.6871 49.119 13.0609 47.6883 10.3987 46.931C9.45581 46.6628 8.6261 46.1347 7.90304 45.4728Z" fill="#D1E1EE" stroke="#D1E1EE" stroke-width="1.05833"/>
<path opacity="0.4" d="M35.9834 46.4732C29.6334 47.0024 17.1451 46.5791 11.6417 44.8857" stroke="#97B9D6" stroke-width="1.05833" stroke-linecap="round"/>
</svg>
