<svg width="64" height="64" viewBox="0 0 64 64" fill="none" xmlns="http://www.w3.org/2000/svg">
<rect width="64" height="64" fill="white"/>
<path d="M24.1775 21.9091C24.5014 21.9091 24.836 22.1789 25.1167 22.0062C25.3974 21.8335 25.3542 21.4988 25.2462 21.229C25.1044 20.9019 24.8606 20.6295 24.5513 20.4525C24.2419 20.2754 23.8836 20.2032 23.5298 20.2466C23.2923 20.2466 23.044 20.3653 22.7957 20.3761C21.8997 20.3761 21.2951 19.4909 20.4639 19.1455C20.32 19.0589 20.151 19.0235 19.9844 19.0451C19.8179 19.0666 19.6635 19.1439 19.5463 19.2642C19.4383 19.4261 19.3952 19.696 19.1901 19.7176C19.1011 19.7092 19.0174 19.6712 18.9526 19.6097C18.6287 19.3722 18.348 19.0915 18.0134 18.8648C17.7061 18.6283 17.3192 18.52 16.9339 18.5625C16.7365 18.5916 16.5569 18.6926 16.4294 18.846C16.3019 18.9994 16.2355 19.1944 16.2429 19.3937C16.2949 19.6481 16.4274 19.879 16.6208 20.0523C17.2952 20.8543 18.1158 21.521 19.0389 22.017C19.9073 22.4011 20.8762 22.4957 21.8025 22.2869C22.1588 22.2221 22.4934 22.2869 22.882 22.2329C23.2707 22.1789 23.7673 21.8659 24.1775 21.9091Z" fill="#048970"/>
<path d="M24.0586 19.4476C23.809 22.4758 24.3444 25.5173 25.6132 28.2782C26.6927 31.1281 28.1177 33.8486 29.2188 36.7093C30.338 39.586 30.9727 42.6283 31.0972 45.7126C31.227 48.7981 30.735 51.8783 29.6506 54.7699H29.5966C30.358 51.8251 30.6781 48.7837 30.5466 45.745C30.3995 42.712 29.8589 39.7109 28.9381 36.8173C28.0745 33.881 26.4768 31.2469 25.2029 28.4617C23.8141 25.6733 23.3926 22.502 24.0047 19.4476H24.0586Z" fill="#6A3400"/>
<path d="M22.4287 12.1606C22.7355 11.7775 22.963 11.3371 23.098 10.8652C23.244 10.4648 23.2848 10.0336 23.2167 9.61294C23.1862 9.40243 23.1056 9.20236 22.9816 9.02952C22.8576 8.85668 22.6939 8.71616 22.5043 8.61979C22.436 8.57903 22.3569 8.56017 22.2776 8.56579C21.9861 8.56579 21.9429 9.04079 21.7054 9.21352C21.4679 9.38624 21.1333 9.21352 20.831 9.21352C20.6616 9.22349 20.4962 9.26902 20.3455 9.34714C20.1949 9.42526 20.0623 9.53423 19.9566 9.66693C19.628 10.079 19.4423 10.5867 19.4276 11.1135C19.4112 11.6385 19.4547 12.1636 19.5572 12.6788C19.5701 12.9151 19.6486 13.1431 19.7838 13.3373C20.5287 14.2118 22.0185 12.6788 22.4287 12.1606Z" fill="#048970"/>
<path d="M19.3626 32.2616C19.4706 32.553 19.6757 32.7905 19.8052 33.0604C20.0211 33.503 20.0751 34.0752 20.4746 34.3667C20.6447 34.4705 20.8366 34.5334 21.0352 34.5502C21.2339 34.5671 21.4337 34.5375 21.6189 34.4638C22.0075 34.3559 22.3637 34.1615 22.7524 34.086C23.8319 33.8809 24.9114 34.5286 25.9046 34.1723C26.2902 34.0286 26.6112 33.7512 26.8094 33.3906C27.0075 33.0299 27.0696 32.6101 26.9841 32.2076C26.8058 31.7567 26.5127 31.3601 26.1341 31.0571C25.7554 30.7542 25.3042 30.5554 24.8251 30.4804C24.5746 30.435 24.3337 30.3474 24.1126 30.2212C23.6808 29.8974 23.6268 29.2821 23.3245 28.8394C23.0652 28.5152 22.6984 28.2946 22.2905 28.2173C21.8826 28.1401 21.4605 28.2115 21.1007 28.4184C20.1291 28.9366 18.974 31.1928 19.3626 32.2616Z" fill="#07AA7C"/>
<path d="M30.9459 34.5286C31.4185 34.4016 31.8697 34.2052 32.2846 33.9457C32.8288 33.495 33.2736 32.9362 33.5908 32.3048C33.664 32.1982 33.712 32.0764 33.7311 31.9485C33.745 31.7599 33.6914 31.5724 33.58 31.4196C33.2531 30.9816 32.8252 30.6293 32.3327 30.3924C31.8402 30.1556 31.2978 30.0413 30.7516 30.0593C29.6644 30.1138 28.5823 30.2436 27.513 30.448C27.3593 30.4593 27.2091 30.4995 27.0704 30.5667C26.8813 30.7025 26.7472 30.9018 26.6926 31.1281C26.3262 32.0793 26.0339 33.0574 25.8182 34.0536C25.7803 34.1693 25.7803 34.2941 25.8182 34.4099C25.8836 34.5225 25.9814 34.6128 26.0989 34.669C26.7806 34.9542 27.5225 35.0655 28.2579 34.9928C29.1732 34.9854 30.0812 34.8286 30.9459 34.5286Z" fill="#048970"/>
<path d="M39.4312 28.4509C39.4296 28.7407 39.5138 29.0246 39.6733 29.2666C39.8327 29.5087 40.0603 29.6982 40.3272 29.8111C40.8677 30.0274 41.4707 30.0274 42.0113 29.8111C42.1007 29.7868 42.1837 29.7433 42.2545 29.6836C42.3254 29.624 42.3824 29.5496 42.4215 29.4657C42.4755 29.2929 42.4215 29.077 42.4755 28.9259C42.5239 28.8598 42.5905 28.8093 42.6672 28.7805C42.7439 28.7518 42.8274 28.746 42.9073 28.764C43.0649 28.7853 43.2247 28.7853 43.3823 28.764C43.4948 28.7305 43.5947 28.6644 43.6697 28.5741C43.7446 28.4838 43.7911 28.3733 43.8033 28.2566C43.8279 28.0277 43.7787 27.797 43.663 27.5981C43.4668 27.2341 43.1555 26.9456 42.7777 26.7776C42.2964 26.667 41.8368 26.4772 41.4175 26.2163C41.0937 25.914 40.921 25.3634 40.4784 25.2879C40.3397 25.2753 40.2 25.2973 40.0719 25.3519C39.9437 25.4066 39.8312 25.4921 39.7443 25.6009C39.5607 25.806 39.4204 26.0543 39.2153 26.2594C39.0102 26.4646 38.8483 26.5509 38.6755 26.7236C38.4877 26.9192 38.3576 27.163 38.2999 27.428C38.2422 27.693 38.2589 27.9688 38.3484 28.2249C38.4378 28.4809 38.5964 28.7071 38.8066 28.8785C39.0168 29.0499 39.2703 29.1597 39.5391 29.1958" fill="#07AA7C"/>
<path d="M44.1594 22.4163C44.6395 22.6498 45.1698 22.761 45.7032 22.7401L47.3764 22.8049C47.558 22.8427 47.7454 22.8427 47.927 22.8049C48.1938 22.6471 48.3993 22.4036 48.5099 22.114C48.7283 21.7518 48.8475 21.3385 48.8554 20.9157C48.7845 20.6091 48.6524 20.32 48.4669 20.0658C48.2813 19.8117 48.0463 19.5977 47.7758 19.4367C47.6659 19.3238 47.5281 19.2419 47.3764 19.1993C47.1519 19.1855 46.9265 19.2036 46.7071 19.2532C45.8867 19.2532 45.3253 18.1737 44.5481 18.2924C44.3825 18.335 44.2202 18.3891 44.0623 18.4544C43.7052 18.5175 43.3398 18.5175 42.9827 18.4544C42.8043 18.4208 42.6201 18.4373 42.4505 18.5021C42.2809 18.5669 42.1325 18.6774 42.022 18.8214C42.0012 18.8956 42.0012 18.974 42.022 19.0481C42.0427 19.1235 42.0795 19.1935 42.1299 19.2532C42.4198 19.6057 42.79 19.8833 43.2094 20.0629C43.5549 20.214 43.8032 20.1816 43.8464 20.5703C43.8895 20.9589 43.5981 21.1964 43.5981 21.4987C43.6032 21.6873 43.6578 21.8714 43.7563 22.0324C43.8548 22.1934 43.9938 22.3257 44.1594 22.4163Z" fill="#048970"/>
<path d="M42.389 20.4948C42.6211 20.4763 42.8426 20.3899 43.026 20.2465C43.18 20.0504 43.2767 19.8155 43.3053 19.5677C43.3338 19.32 43.2932 19.0692 43.1879 18.8432C43.0249 18.3178 42.8228 17.8054 42.5833 17.3102C42.389 16.9432 42.1084 16.533 41.6873 16.5222C41.4839 16.5513 41.2821 16.591 41.0828 16.6409C40.4567 16.7165 39.8737 16.0796 39.2692 16.2739C39.0652 16.3698 38.8934 16.5229 38.7746 16.7145C38.6558 16.9061 38.5951 17.128 38.5999 17.3534C38.5387 17.6958 38.604 18.0486 38.7834 18.3465C39.6686 19.6096 40.6402 20.6892 42.389 20.4948Z" fill="#027168"/>
<path d="M37.8011 16.3708C37.9083 16.5295 38.0489 16.6629 38.2129 16.7618C38.377 16.8606 38.5607 16.9224 38.7511 16.943C39.13 16.9806 39.5124 16.9588 39.8846 16.8782C40.0902 16.8752 40.2929 16.8284 40.4791 16.7409C40.6652 16.6534 40.8306 16.5273 40.9641 16.3708C41.1044 16.1549 41.1368 15.8418 41.3743 15.7123C41.5288 15.6634 41.688 15.6308 41.8493 15.6151C42.2703 15.4964 42.3891 14.9566 42.3891 14.5356C42.4163 14.2247 42.3758 13.9117 42.2704 13.618C42.2148 13.4739 42.1212 13.3476 41.9996 13.2525C41.8779 13.1575 41.7327 13.0972 41.5794 13.0782C41.2016 13.0782 40.8993 13.3697 40.5971 13.5856C40.2948 13.8015 39.8414 13.985 39.5175 14.2009C39.3252 14.2914 39.1528 14.4191 39.0101 14.5766C38.8674 14.7341 38.7574 14.9183 38.6863 15.1185C38.6561 15.3059 38.6092 15.4902 38.546 15.6691C38.4007 15.8874 38.242 16.0965 38.071 16.2952C37.9414 16.5219 38.017 16.8998 38.2761 16.9214" fill="#048970"/>
<path d="M35.9011 13.5965C36.065 13.6288 36.2337 13.6288 36.3977 13.5965C36.5908 13.5264 36.7646 13.4118 36.905 13.2619L37.7687 12.4846C38.2005 12.096 38.6647 11.6102 38.5783 11.038C38.4813 10.6662 38.2651 10.3363 37.963 10.0989C37.7147 9.86136 37.4124 9.60226 37.0777 9.68863C36.9266 9.68863 36.7971 9.82897 36.6459 9.82897C36.4948 9.82897 36.2789 9.58069 36.1817 9.36478C36.0225 8.87351 35.74 8.43123 35.3613 8.08014C35.1694 7.90852 34.9172 7.82007 34.6602 7.83424C34.4031 7.84841 34.1622 7.96404 33.9903 8.15571C33.8176 8.4148 33.7744 8.80342 33.4829 8.88978C33.3647 8.90592 33.2449 8.90592 33.1267 8.88978C32.6517 8.88978 32.317 9.36476 32.1875 9.81816C32.0991 10.1611 32.0833 10.5188 32.1409 10.8682C32.1985 11.2177 32.3283 11.5512 32.5221 11.8477C32.9242 12.3609 33.4745 12.7378 34.0983 12.9272C34.6508 13.2637 35.2628 13.4909 35.9011 13.5965Z" fill="#048970"/>
<path d="M40.8563 13.7369C40.9865 13.6055 41.0861 13.447 41.1478 13.2727C41.2266 13.0112 41.2035 12.7296 41.083 12.4846C40.9785 12.2232 40.7829 12.0085 40.5324 11.8801C40.4097 11.8139 40.2724 11.7793 40.133 11.7793C39.9936 11.7793 39.8563 11.8139 39.7336 11.8801C39.6839 11.9351 39.6206 11.9761 39.55 11.9988C39.448 11.9962 39.351 11.9536 39.2802 11.8801C38.941 11.5506 38.5804 11.2441 38.2006 10.9624C36.6137 9.95849 36.0416 12.2903 36.7541 13.359C36.9672 13.695 37.2546 13.9776 37.594 14.1851C37.9335 14.3926 38.3161 14.5195 38.7123 14.556C39.1085 14.5925 39.5078 14.5376 39.8795 14.3956C40.2512 14.2536 40.5853 14.0282 40.8563 13.7369Z" fill="#07AA7C"/>
<path d="M18.8444 19.9658C19.3148 19.8613 19.7905 19.7821 20.2694 19.7283C20.5933 19.7283 20.9171 19.8363 21.2518 19.8363C21.4155 19.8498 21.5795 19.8163 21.7248 19.7398C21.8702 19.6634 21.9907 19.547 22.0722 19.4045C22.1367 19.1897 22.1367 18.9608 22.0722 18.746L21.6836 16.6517C21.6547 16.4355 21.5851 16.2267 21.4785 16.0364C21.3465 15.8521 21.1646 15.7095 20.9541 15.6253C20.7437 15.5412 20.5136 15.519 20.291 15.5614C19.8462 15.653 19.4218 15.8249 19.0387 16.0687C18.6648 16.2486 18.3335 16.5063 18.0672 16.8244C17.863 17.1995 17.7174 17.6036 17.6354 18.0227C17.6354 18.0875 17.6354 18.1523 17.5382 18.1738C17.5114 18.1872 17.4818 18.1941 17.4518 18.1941C17.4219 18.1941 17.3923 18.1872 17.3655 18.1738C17.0848 18.0767 16.5126 17.6772 16.2319 17.9579C15.9513 18.2386 16.3939 18.7784 16.5774 19.0375C16.8524 19.3635 17.2022 19.6183 17.5969 19.78C17.9917 19.9416 18.4197 20.0054 18.8444 19.9658Z" fill="#048970"/>
<path d="M34.1415 28.1593C34.2748 27.8039 34.319 27.4213 34.27 27.0448C34.2211 26.6684 34.0806 26.3098 33.8608 26.0003C33.6881 25.698 33.4614 25.3633 33.116 25.3417C32.954 25.3417 32.7813 25.3417 32.6194 25.3417C32.166 25.3417 31.8529 24.8991 31.4427 24.7156C31.2334 24.64 31.0103 24.6104 30.7886 24.6291C30.5668 24.6477 30.3518 24.714 30.1581 24.8236C29.7768 25.0481 29.4311 25.3283 29.1325 25.6548C27.9558 26.8207 29.5859 27.9434 30.4171 28.7531C30.7007 28.9587 31.0219 29.1064 31.3625 29.1878C31.7031 29.2693 32.0565 29.2828 32.4023 29.2277C32.7482 29.1725 33.0798 29.0498 33.3782 28.8665C33.6766 28.6832 33.936 28.4429 34.1415 28.1593Z" fill="#07AA7C"/>
<path d="M33.6772 26.3352C34.1198 26.3352 34.6704 26.2164 34.8215 25.7954C34.8698 25.6297 34.8698 25.4537 34.8215 25.288C34.7323 24.9272 34.5398 24.6001 34.2675 24.347C33.9953 24.0939 33.6551 23.9257 33.2886 23.8631C32.8522 23.8597 32.4162 23.8345 31.9824 23.7875C30.9028 23.5176 30.4279 22.1682 29.4455 21.6284C29.1808 21.479 28.8849 21.3934 28.5813 21.3784C28.2777 21.3634 27.9748 21.4194 27.6967 21.5421C27.5362 21.6437 27.3452 21.6858 27.1569 21.6608C27.0397 21.6047 26.9337 21.5279 26.8438 21.4341C26.6747 21.3173 26.4775 21.2477 26.2726 21.2325C26.0676 21.2173 25.8624 21.2571 25.6779 21.3477C25.3124 21.5318 24.9832 21.7805 24.7063 22.0818C24.4627 22.2803 24.2671 22.5312 24.1342 22.8159C24.0071 23.1645 24.0071 23.5468 24.1342 23.8954C24.4336 24.6015 24.9096 25.2187 25.5165 25.6876C26.1234 26.1564 26.8407 26.4613 27.5995 26.5727C27.8856 26.652 28.1847 26.6737 28.4793 26.6367C28.774 26.5996 29.0583 26.5045 29.316 26.3568C29.5543 26.1323 29.8539 25.9838 30.1768 25.9299C30.4997 25.8761 30.8313 25.9195 31.1296 26.0545C31.9646 26.2489 32.8199 26.3431 33.6772 26.3352Z" fill="#048970"/>
<path d="M27.5455 19.426C28.0364 19.3973 28.5136 19.2531 28.9381 19.005C29.3117 18.8467 29.6523 18.6197 29.9421 18.3357C30.0815 18.1956 30.1871 18.0255 30.2507 17.8384C30.3144 17.6513 30.3343 17.4521 30.3091 17.2561C30.2639 17.1308 30.2349 17.0002 30.2227 16.8675C30.2227 16.4573 30.7193 16.2522 31 15.9283C31.1559 15.6991 31.2393 15.4283 31.2393 15.151C31.2393 14.8738 31.1559 14.603 31 14.3738C30.6831 13.9237 30.2654 13.5541 29.7801 13.2942C29.5889 13.1919 29.4171 13.0567 29.2728 12.8948C29.1069 12.6313 28.9831 12.3436 28.9057 12.042C28.7435 11.6365 28.475 11.2822 28.1285 11.0164C27.9909 10.8871 27.8099 10.8139 27.6211 10.8113C27.3404 10.8113 27.1353 11.092 26.8546 11.1784C26.3472 11.3187 25.8938 10.7789 25.3649 10.7142C25.1656 10.7036 24.9673 10.7484 24.792 10.8437C24.6167 10.939 24.4712 11.081 24.3717 11.2539C24.1697 11.5964 24.0721 11.9903 24.091 12.3874C24.2144 13.6483 24.4382 14.8973 24.7603 16.1226C24.7978 16.6608 24.8956 17.1931 25.0518 17.7095C25.3001 18.3248 25.7535 18.4328 26.25 18.789C26.7466 19.1453 27.0057 19.4044 27.5455 19.426Z" fill="#048970"/>
<path d="M23.9615 10.7144C23.9978 10.9397 24.0847 11.1538 24.2155 11.3408C24.3464 11.5278 24.5179 11.6827 24.7172 11.7939C25.1175 12.0149 25.5662 12.1336 26.0234 12.1393C26.5463 12.2039 27.0736 12.0605 27.4916 11.7399C28.0962 11.1785 28.0421 10.0774 28.7438 9.58083C28.8512 9.48602 28.9345 9.36714 28.9871 9.23392C29.0396 9.1007 29.0599 8.95692 29.0461 8.81437C29.0449 8.44872 28.9696 8.08708 28.8249 7.75128C28.6802 7.41548 28.469 7.11245 28.2041 6.86042C27.1764 6.1251 25.9234 5.77362 24.6632 5.86724C24.1459 5.79373 23.6185 5.88039 23.1519 6.11554C22.9622 6.25349 22.8049 6.43127 22.6912 6.6364C22.5774 6.84153 22.5099 7.06906 22.4934 7.30304C22.469 7.7727 22.5388 8.24249 22.6985 8.68483C23.0864 9.82612 23.7458 10.856 24.6201 11.6859" fill="#07AA7C"/>
<path d="M21.7268 21.4772C21.8591 21.9252 22.151 22.3093 22.5472 22.5567C23.454 22.9993 24.7063 22.0601 25.462 22.7078C25.627 22.8801 25.7468 23.0904 25.8109 23.3202C25.8749 23.55 25.8812 23.7921 25.829 24.0248C25.7564 24.5622 25.5621 25.0758 25.2609 25.5267C24.9597 25.9776 24.5595 26.3537 24.0909 26.6265C23.5739 26.8559 23.0819 27.1381 22.6228 27.4686C22.2234 27.8356 21.9751 28.3754 21.5433 28.6129C21.2503 28.7278 20.9294 28.7512 20.623 28.6799C20.3165 28.6085 20.0389 28.4459 19.8268 28.2134C19.4158 27.7375 19.1136 27.1775 18.9416 26.5726C18.9014 26.4158 18.8236 26.2713 18.7149 26.1515C18.5423 26.0309 18.3415 25.9565 18.1319 25.9356C17.8511 25.9066 17.581 25.8125 17.3429 25.6607C17.1049 25.5089 16.9056 25.3036 16.7609 25.0612C16.4155 24.3055 16.9661 23.4635 17.495 22.8266C18.6393 21.3152 20.4097 18.5301 21.7268 21.4772Z" fill="#07AA7C"/>
<path d="M20.2694 15.6152C20.6367 15.4803 20.9559 15.24 21.187 14.9243C21.3419 14.5865 21.3799 14.2067 21.295 13.8448C21.2296 13.2877 21.0089 12.7603 20.6581 12.3227C20.5251 12.1518 20.339 12.0302 20.1291 11.9772C20.0262 11.9572 19.9197 11.9718 19.8259 12.0186C19.7322 12.0655 19.6566 12.142 19.6109 12.2363C19.6109 12.3011 19.6109 12.3766 19.5138 12.409C19.4938 12.4194 19.4715 12.4249 19.449 12.4249C19.4264 12.4249 19.4042 12.4194 19.3842 12.409C19.1579 12.3018 18.9412 12.1754 18.7365 12.0312C18.5592 11.9411 18.3632 11.8942 18.1643 11.8942C17.9655 11.8942 17.7695 11.9411 17.5922 12.0312C17.4211 12.1288 17.2759 12.266 17.1688 12.4313C17.0617 12.5966 16.9959 12.7851 16.9769 12.9812C16.9656 13.2027 16.9875 13.4246 17.0416 13.6397C17.1254 14.213 17.3316 14.7616 17.6462 15.2482C17.9617 15.6213 18.4037 15.8651 18.8877 15.9328C19.3716 16.0005 19.8636 15.8875 20.2694 15.6152Z" fill="#07AA7C"/>
<path d="M40.2192 22.9453C40.3576 23.3995 40.3945 23.8787 40.3271 24.3487C40.3412 24.5506 40.3086 24.7529 40.2319 24.9401C40.1551 25.1274 40.0363 25.2944 39.8845 25.4282C39.6496 25.5641 39.3721 25.6065 39.1073 25.547C38.1786 25.3839 37.3125 24.9695 36.6028 24.3487C36.4791 24.2373 36.3313 24.156 36.1709 24.1112C35.9729 24.0975 35.775 24.1385 35.5988 24.23C35.031 24.4761 34.4139 24.587 33.796 24.5538C33.4861 24.5312 33.1853 24.4389 32.9161 24.2838C32.6469 24.1286 32.4163 23.9146 32.2415 23.6578C32.08 23.3949 32.0103 23.0858 32.0436 22.779C32.0768 22.4722 32.2109 22.1852 32.425 21.9629C32.6466 21.8062 32.8975 21.6959 33.1628 21.6384C33.428 21.5809 33.7021 21.5774 33.9687 21.6283C34.5565 21.685 35.1359 21.8081 35.6959 21.9953C36.1193 22.1947 36.5779 22.3084 37.0453 22.33C37.4388 22.2703 37.8232 22.1615 38.1896 22.0061C38.5837 21.8689 39.0157 21.8901 39.3943 22.0653C39.773 22.2406 40.0688 22.5561 40.2192 22.9453Z" fill="#048970"/>
<path d="M30.4602 22.5244C30.5629 22.4974 30.6707 22.4974 30.7733 22.5244C30.8633 22.5838 30.9315 22.671 30.9676 22.7726C31.2267 23.3988 31.2375 24.2408 31.8528 24.5107C32.0375 24.5721 32.2353 24.5824 32.4253 24.5406C32.6153 24.4988 32.7905 24.4064 32.9323 24.2732C33.2098 23.9971 33.4268 23.6662 33.5693 23.3016C33.956 22.6527 34.0905 21.8842 33.9471 21.1426C33.8188 20.7926 33.5766 20.4959 33.2595 20.3002C32.9423 20.1044 32.5686 20.0209 32.1983 20.063C31.9637 20.133 31.7197 20.1658 31.475 20.1602C31.1164 20.0534 30.8092 19.8192 30.6114 19.5017C30.1256 18.8971 29.4455 18.271 28.7006 18.4221C28.3226 18.5438 27.9836 18.7636 27.7182 19.059C27.383 19.3254 27.1133 19.6652 26.9302 20.0522C26.8338 20.5358 26.8692 21.0364 27.0325 21.5017C27.1958 21.9669 27.4811 22.3798 27.8586 22.6971C28.5279 23.2044 29.7046 22.6539 30.4602 22.5244Z" fill="#07AA7C"/>
<path d="M36.5489 17.6773C36.6879 17.7675 36.8435 17.8293 37.0066 17.8589C37.1696 17.8886 37.337 17.8855 37.4989 17.85C37.7252 17.7605 37.9246 17.6141 38.0778 17.425C38.231 17.2359 38.3328 17.0104 38.3733 16.7705C38.4892 16.3557 38.5164 15.9213 38.4531 15.4953C38.3899 15.0694 38.2376 14.6615 38.0063 14.2983C37.9147 14.1229 37.7863 13.9693 37.6297 13.8482C37.4732 13.727 37.2923 13.6412 37.0995 13.5967C36.7324 13.5427 36.333 13.737 36.0199 13.5967C35.7069 13.4563 35.4046 13.0461 35.0268 13.1001C34.8377 13.154 34.6735 13.2724 34.5626 13.4347C33.8825 14.1904 33.483 15.108 34.4762 15.7881C35.2319 16.371 35.75 17.1915 36.5489 17.6773Z" fill="#07AA7C"/>
<path d="M30.2444 17.2453C30.2753 16.7419 30.4996 16.27 30.8705 15.9283C31.0145 15.7329 31.1991 15.571 31.4115 15.4536C31.6239 15.3363 31.8592 15.2662 32.1012 15.2482C32.7489 15.2482 33.1807 15.8959 33.7744 16.1658C34.1261 16.2937 34.487 16.3947 34.854 16.468C35.2312 16.5903 35.5743 16.7996 35.8557 17.079C36.137 17.3584 36.3485 17.7001 36.4733 18.0765C36.5596 18.3572 36.6028 18.6487 36.6676 18.9294C36.8727 19.8362 37.3261 20.6782 37.542 21.585C37.6176 21.7832 37.6176 22.0022 37.542 22.2003C37.46 22.3046 37.352 22.3854 37.2288 22.4347C37.1056 22.484 36.9716 22.5 36.8403 22.481C36.2035 22.4611 35.5994 22.1939 35.1562 21.7362C34.9511 21.531 34.7892 21.2827 34.5841 21.0776C34.0756 20.6199 33.4911 20.2546 32.8569 19.9981C31.0648 19.1992 30.2444 18.0765 30.2444 17.2453Z" fill="#07AA7C"/>
<path d="M35.6421 18.4113C35.8099 18.3797 35.9621 18.2922 36.0739 18.163C36.2142 17.9579 36.0739 17.6772 36.0199 17.4397C35.9076 17.0217 35.7706 16.6108 35.6097 16.2091C35.5218 15.9997 35.3702 15.8234 35.1764 15.7052C34.9826 15.587 34.7565 15.5328 34.5302 15.5505C34.2387 15.5505 33.9904 15.7988 33.7097 15.8204C33.5539 15.8136 33.3987 15.7956 33.2455 15.7664C32.9784 15.7814 32.7247 15.8885 32.5278 16.0697C32.331 16.2508 32.2031 16.4946 32.166 16.7596C32.1322 17.0956 32.2145 17.4331 32.3991 17.7159C32.5837 17.9987 32.8595 18.2098 33.1807 18.3141C33.5618 18.5003 33.9774 18.605 34.4012 18.6218C34.8249 18.6385 35.2475 18.5668 35.6421 18.4113Z" fill="#027168"/>
<path d="M29.8666 13.2296C30.3407 14.926 30.4402 16.7051 30.1581 18.4438C29.9638 20.1818 29.6183 21.8983 29.3916 23.6255C29.2729 24.4783 29.2405 25.3419 29.1649 26.2164L28.9166 28.818C28.7867 30.5354 28.8411 32.2616 29.0786 33.9674C29.5104 37.3895 30.5359 40.7685 30.7842 44.3093C31.0124 47.8201 30.8276 51.3455 30.2336 54.8131H30.1257C30.0286 51.3046 30.0394 47.8394 29.6831 44.4065C29.3269 40.9736 28.6684 37.5622 28.3013 34.0538C28.1124 32.2956 28.1124 30.5222 28.3013 28.7641L28.9706 23.5607C29.2513 21.8335 29.6507 20.1278 29.8882 18.4114C30.2092 16.7046 30.1613 14.9488 29.7479 13.262L29.8666 13.2296Z" fill="#804400"/>
<path d="M42.1192 16.4465C41.0946 17.9053 40.1504 19.4189 39.2908 20.9806C38.4164 22.5351 37.5528 24.1004 36.7539 25.6981C35.9551 27.2958 35.8795 29.0231 35.4585 30.8151C35.0375 32.6071 34.3034 34.248 33.7852 35.9321C33.3198 37.6393 32.9593 39.3734 32.7057 41.1246C32.5653 42.0098 32.4466 42.8842 32.3602 43.7587C32.2739 44.6331 32.2955 45.4859 32.2847 46.3819C32.2307 49.8904 32.533 53.5176 32.0148 57.1017H31.9176C31.7125 53.5284 31.1512 50.0199 31.162 46.3819C31.1664 45.4689 31.2241 44.557 31.3347 43.6507C31.4642 42.7439 31.6369 41.8587 31.8205 40.9735C32.1606 39.2042 32.5893 37.4532 33.1051 35.7269C33.6773 33.9997 34.4329 32.3804 34.8755 30.6856C35.113 29.8435 35.2102 28.9583 35.3937 28.0731C35.4845 27.6223 35.6071 27.1786 35.7607 26.7452C35.9443 26.3026 36.1494 25.9032 36.3545 25.5038C37.2073 23.9277 38.1141 22.384 39.0533 20.8618C39.9847 19.305 41.0085 17.8054 42.1192 16.371V16.4465Z" fill="#804400"/>
<path d="M35.8146 19.9442C35.2256 21.3241 34.8227 22.7762 34.6163 24.2623C34.36 25.7566 33.8566 27.1977 33.1265 28.5265C32.3796 29.8229 31.8096 31.2134 31.4317 32.6611C31.0609 34.1063 30.8403 35.5859 30.7731 37.0763C30.6868 38.5661 30.7192 40.0666 30.7731 41.5672C30.8271 43.0677 30.8703 44.5683 30.9675 46.0688C31.0863 49.0667 31.4765 52.0476 32.1333 54.975H32.0794C31.1616 52.0936 30.6068 49.1091 30.4277 46.0904C30.2082 43.0797 30.1829 40.0579 30.3521 37.044C30.4545 35.5264 30.704 34.0224 31.097 32.5531C31.5139 31.0949 32.12 29.6977 32.8998 28.3969C33.6499 27.1009 34.179 25.689 34.4651 24.2191C34.7113 22.7278 35.1541 21.2758 35.7822 19.901L35.8146 19.9442Z" fill="#6A3400"/>
<path d="M28.3443 31.1066C28.7738 31.2471 29.2415 31.2126 29.6457 31.0105C30.0499 30.8084 30.3581 30.455 30.5034 30.027C30.6221 29.66 30.6329 29.2282 30.9136 28.9475C31.1943 28.6668 31.2267 28.764 31.367 28.6452C31.4754 28.5528 31.5568 28.4328 31.6024 28.2978C31.648 28.1628 31.6562 28.018 31.6261 27.8788C31.592 27.7391 31.5208 27.6112 31.4201 27.5086C31.3194 27.406 31.1929 27.3325 31.0539 27.2958C30.7624 27.231 30.4062 27.2958 30.1795 27.1339C30.0994 27.0561 30.0336 26.9647 29.9852 26.864L29.6613 26.2919C29.5382 26.0026 29.3215 25.7631 29.046 25.6118C28.7545 25.493 28.3335 25.6981 28.3767 26.0112C28.1403 25.762 27.8424 25.5796 27.5131 25.4822C27.3486 25.4463 27.1767 25.4758 27.0336 25.5644C26.8905 25.6531 26.7876 25.794 26.7466 25.9572C26.6436 25.8375 26.5048 25.7542 26.3508 25.7196C26.1967 25.685 26.0356 25.7011 25.8914 25.7653C25.7472 25.8295 25.6275 25.9386 25.5501 26.0762C25.4728 26.2138 25.4419 26.3728 25.462 26.5294C25.3931 26.4963 25.318 26.4782 25.2417 26.4763C25.1653 26.4744 25.0895 26.4887 25.0191 26.5183C24.9487 26.5479 24.8853 26.5921 24.8333 26.6479C24.7812 26.7038 24.7416 26.7701 24.7171 26.8424C24.6711 26.9909 24.6599 27.1479 24.6842 27.3014C24.7085 27.4548 24.7678 27.6007 24.8574 27.7276C25.0194 27.9867 25.2461 28.2026 25.4296 28.4617C25.8074 28.9691 26.0017 29.606 26.4011 30.0918C26.7114 30.4396 27.076 30.7349 27.4807 30.9662C27.6573 31.1122 27.8643 31.2169 28.0865 31.273C28.3087 31.329 28.5406 31.3348 28.7653 31.2901C29.0244 31.1929 29.2403 30.9554 29.521 30.9338" fill="#FFC3BA"/>
<path d="M39.9601 20.5271C40.284 20.2464 40.6294 19.8577 40.4783 19.4475C40.3272 19.0373 39.6471 18.9617 39.3988 18.5515C39.3227 18.3585 39.2789 18.1542 39.2692 17.947C39.2088 17.6409 39.06 17.3592 38.8413 17.1367C38.6226 16.9141 38.3436 16.7605 38.0386 16.6947C37.8738 16.6403 37.6959 16.6403 37.5312 16.6947C37.3584 16.7919 37.2505 16.9862 37.0778 17.0618C36.6459 17.2561 36.2033 16.7163 35.7283 16.7595C35.2534 16.8027 35.0591 17.4072 35.0807 17.839C35.1022 18.3037 35.2267 18.7578 35.4451 19.1685C35.6635 19.5792 35.9704 19.9363 36.3437 20.214C37.2073 20.9481 39.0749 21.2935 39.9601 20.5271Z" fill="#FFC3BA"/>
<path d="M37.5419 19.6852C37.8412 19.7425 38.1442 19.7786 38.4487 19.7932C38.6106 19.7932 38.8049 19.7932 38.8697 19.642C38.8863 19.5775 38.884 19.5096 38.8629 19.4464C38.8419 19.3832 38.803 19.3274 38.7509 19.2858C38.6441 19.2024 38.5496 19.1042 38.4702 18.9943C38.3299 18.7028 38.5782 18.325 38.4055 18.0551C38.3394 17.9735 38.2518 17.912 38.1526 17.8776C38.0534 17.8433 37.9465 17.8375 37.8441 17.8608C37.6366 17.8929 37.4255 17.8929 37.218 17.8608C37.0668 17.8608 36.9265 17.7421 36.7862 17.7961C36.6458 17.85 36.6026 18.1739 36.6782 18.379C36.7532 18.6644 36.8884 18.9305 37.0746 19.1595C37.2607 19.3885 37.4936 19.5751 37.7577 19.7068" fill="#FF9C98"/>
<path d="M45.8114 17.9254C46.0381 17.7095 46.1784 17.418 46.3835 17.1805C46.9253 16.6962 47.561 16.3287 48.2511 16.101C48.5965 15.9845 48.9045 15.778 49.1436 15.5029C49.3827 15.2278 49.5441 14.8939 49.6113 14.5357C49.6113 14.0823 49.3738 13.6289 49.4386 13.1755C49.525 12.4522 50.3562 11.8261 50.0647 11.1568C49.9483 10.9333 49.7573 10.7576 49.5249 10.6601C49.2168 10.5186 48.8817 10.4453 48.5426 10.4453C48.2035 10.4453 47.8684 10.5186 47.5602 10.6601C46.8585 10.9732 46.2756 11.6533 45.5091 11.6533C44.9586 11.6533 44.4296 11.2971 43.879 11.5022C43.3285 11.7073 43.1342 12.4846 42.5728 12.6681C42.3654 12.6998 42.16 12.743 41.9575 12.7976C41.7783 12.9015 41.6295 13.0503 41.5257 13.2294C40.6944 14.3953 39.8308 16.468 41.083 17.6663C41.9898 18.5299 44.8614 18.8214 45.8114 17.9254Z" fill="#DB3D63"/>
<path d="M32.6733 11.5777C32.8908 11.5027 33.0949 11.3934 33.2778 11.2539C33.4288 11.0882 33.5244 10.8797 33.5515 10.6573C33.5786 10.4348 33.5358 10.2094 33.429 10.0124C33.2194 9.61384 32.95 9.24976 32.6301 8.93287C32.5008 8.81321 32.4074 8.66 32.3602 8.49029C32.3389 8.33268 32.3389 8.17291 32.3602 8.0153C32.3272 7.70662 32.2305 7.40813 32.0763 7.13871C31.9221 6.86928 31.7137 6.63476 31.4642 6.44996L30.2875 5.31647C30.0932 5.13295 29.8341 4.92782 29.575 5.02498C29.4988 5.06347 29.4323 5.11888 29.3807 5.18693C28.7114 5.9426 29.1108 7.27041 28.4199 8.00449C28.2148 8.2096 27.9449 8.36074 27.8154 8.61983C27.5671 9.09483 27.9557 9.69935 27.8154 10.1959C27.7398 10.4226 27.5563 10.5953 27.4699 10.8221C27.3729 11.1054 27.3729 11.4131 27.4699 11.6965C27.7766 12.6439 28.3733 13.4709 29.1756 14.0606C30.0285 14.6868 30.5034 14.4493 30.8921 13.6073C31.0391 13.1675 31.2724 12.7616 31.5782 12.4131C31.8841 12.0646 32.2564 11.7806 32.6733 11.5777Z" fill="#DB3D63"/>
<path d="M26.3365 18.6164C26.4683 18.2057 26.4909 17.7676 26.4019 17.3455C26.3129 16.9233 26.1155 16.5317 25.8291 16.2091C25.6699 16.0649 25.5381 15.893 25.4405 15.7017C25.2677 15.2267 25.6996 14.7625 25.7967 14.2659C25.8087 13.9162 25.7411 13.5683 25.599 13.2485C25.4568 12.9287 25.2439 12.6454 24.9763 12.4199L23.2922 10.5307C23.1972 10.4039 23.0652 10.3096 22.9144 10.2609C22.6013 10.2609 22.3854 10.5847 22.3314 10.8978C22.1911 11.729 22.4718 12.6358 22.1155 13.3915C21.7593 14.1472 21.036 14.471 20.982 15.2483C20.928 16.0256 21.5002 16.4466 21.3383 17.0403C21.2744 17.2059 21.1949 17.3649 21.1008 17.5153C20.8804 17.9706 20.8202 18.4869 20.9299 18.9807C21.0397 19.4744 21.3129 19.9166 21.7053 20.2357C23.0655 21.2613 25.8075 20.1386 26.3365 18.6164Z" fill="#DB3D63"/>
<path d="M43.4687 16.1444C43.6846 16.2955 43.8789 16.1444 44.0948 16.1444L44.7425 15.9393C45.1635 15.7989 45.5522 15.6154 46.038 15.4103C45.9506 15.6597 45.8083 15.8863 45.6214 16.0732C45.4345 16.2601 45.2079 16.4025 44.9584 16.4898C44.7096 16.5792 44.4449 16.6159 44.1812 16.5978C44.0416 16.5846 43.904 16.5556 43.7709 16.5114C43.5982 16.3711 43.4579 16.2955 43.4687 16.1444Z" fill="#B72A59"/>
<path d="M42.4971 16.1226C42.5704 15.3765 42.9118 14.6823 43.4579 14.1687C43.7194 13.9008 44.0265 13.6815 44.3647 13.5209L44.8721 13.3158C44.98 13.3158 45.0448 13.3158 45.1636 13.2618C45.2823 13.2079 45.4334 13.3158 45.3795 13.4346C45.2823 13.2942 45.1204 13.4346 44.9908 13.5533C44.8613 13.6721 44.7102 13.7584 44.5806 13.8772C44.3199 14.0861 44.0712 14.3095 43.8357 14.5465C43.3482 15.0354 42.9006 15.5624 42.4971 16.1226Z" fill="#B72A59"/>
<path d="M30.8273 11.8477C30.6152 11.3596 30.4595 10.8489 30.3631 10.3255C30.3033 10.0731 30.26 9.81709 30.2335 9.55907V9.15964C30.2559 9.03107 30.2559 8.89957 30.2335 8.771C30.4501 8.95085 30.6142 9.18581 30.7085 9.45111C30.8221 9.69655 30.909 9.95352 30.9676 10.2176C31.0611 10.764 31.0128 11.3253 30.8273 11.8477Z" fill="#B72A59"/>
<path d="M30.1365 12.6143C29.9459 12.577 29.7677 12.4924 29.6185 12.368C29.4692 12.2437 29.3538 12.0837 29.2827 11.903C29.2117 11.7222 29.1874 11.5264 29.2121 11.3337C29.2368 11.141 29.3097 10.9577 29.424 10.8007C29.5752 11.1677 29.6616 11.4268 29.7803 11.7075L30.1365 12.6143Z" fill="#B72A59"/>
<path d="M24.3718 18.9942C24.3049 18.5325 24.2617 18.0678 24.2423 17.6017C24.2146 17.1343 24.2146 16.6656 24.2423 16.1982C24.5892 16.5732 24.7919 17.0589 24.8145 17.5692C24.841 18.0817 24.684 18.5869 24.3718 18.9942Z" fill="#B72A59"/>
<path d="M23.2921 17.7204C23.0343 17.513 22.8119 17.2651 22.6336 16.9863C22.4368 16.6976 22.3042 16.3699 22.245 16.0255C22.1832 15.6576 22.2398 15.2796 22.4069 14.946C22.5547 14.6315 22.8011 14.3738 23.1086 14.2119C22.8142 14.7287 22.7002 15.3288 22.7847 15.9176C22.8603 16.5113 23.1302 17.0727 23.2921 17.7204Z" fill="#B72A59"/>
<path d="M17.7974 20.6889C18.4286 20.6753 19.0354 20.4425 19.5138 20.0304C19.712 19.8737 19.8556 19.6583 19.924 19.4151C19.9555 19.2925 19.9462 19.1629 19.8975 19.0461C19.8488 18.9292 19.7634 18.8314 19.6542 18.7674C19.4653 18.7024 19.2601 18.7024 19.0712 18.7674L17.7974 19.0696C17.6682 19.0905 17.5459 19.1423 17.4411 19.2208C17.3574 19.2999 17.2976 19.4008 17.2684 19.5122C17.2421 19.641 17.2424 19.7737 17.2694 19.9023C17.2964 20.0308 17.3495 20.1525 17.4254 20.2598C17.5012 20.367 17.5983 20.4575 17.7106 20.5258C17.8229 20.594 17.9479 20.6385 18.0781 20.6565" fill="#F0F3FC"/>
<path d="M16.9444 23.2477C17.298 23.3425 17.6704 23.3425 18.024 23.2477C18.2579 23.1976 18.4741 23.0858 18.6501 22.9238C18.7276 22.8337 18.7702 22.7188 18.7702 22.6C18.7702 22.4811 18.7276 22.3662 18.6501 22.2761C18.5504 22.1961 18.4312 22.1439 18.3047 22.125C17.6325 21.8033 16.8699 21.7232 16.1456 21.8983C16.0008 21.9475 15.876 22.0427 15.7902 22.1693C15.7045 22.296 15.6625 22.4472 15.6706 22.6C15.7197 22.7711 15.8217 22.9223 15.9621 23.0318C16.0903 23.1723 16.2503 23.2799 16.4288 23.3457C16.6073 23.4115 16.7989 23.4334 16.9876 23.4096" fill="#F0F3FC"/>
<path d="M27.9343 23.8197C27.8347 23.7086 27.7067 23.6268 27.564 23.583C27.4213 23.5393 27.2694 23.5353 27.1247 23.5714C26.9951 23.5714 26.8872 23.6578 26.7576 23.6794C26.5564 23.6949 26.3543 23.6949 26.1531 23.6794C25.9301 23.6834 25.71 23.731 25.5054 23.8197C25.2139 23.9169 24.8792 24.068 24.8469 24.3811C24.8469 24.4567 24.8469 24.543 24.8469 24.6186C24.8469 24.6942 24.6309 25.018 24.5662 25.2447C24.2639 26.389 25.9372 26.022 26.4014 25.7197C26.8656 25.4174 28.7224 24.7481 27.9343 23.8197Z" fill="#F0F3FC"/>
<path d="M24.5877 29.4981C24.819 29.4089 25.0314 29.2771 25.2138 29.1094C25.3036 29.0238 25.3658 28.9134 25.3927 28.7923C25.4196 28.6712 25.41 28.5449 25.365 28.4293C25.2139 28.1163 24.8036 28.0731 24.4582 28.0623H23.7025C23.6005 28.0307 23.4914 28.0307 23.3894 28.0623C23.2599 28.127 23.1843 28.2782 23.0872 28.3861C22.99 28.4941 22.4395 28.6776 22.2236 28.9367C22.1691 29.025 22.1329 29.1232 22.117 29.2257C22.1011 29.3281 22.1058 29.4327 22.131 29.5333C22.1561 29.6339 22.2011 29.7285 22.2634 29.8114C22.3256 29.8944 22.4039 29.964 22.4934 30.0162C23.1735 30.4589 23.994 29.7679 24.5877 29.4981Z" fill="#F0F3FC"/>
<path d="M25.0626 33.6436C25.461 33.5151 25.8286 33.3056 26.1421 33.0282C26.3992 32.7093 26.5901 32.3423 26.7035 31.9487C26.7976 31.7155 26.8452 31.4661 26.8438 31.2146C26.8384 31.088 26.794 30.9661 26.7167 30.8656C26.6394 30.7651 26.533 30.691 26.412 30.6533C26.0665 30.5885 25.7643 30.9339 25.4188 30.9663C25.0734 30.9987 24.7819 30.7072 24.4472 30.6317C24.2703 30.5922 24.0857 30.606 23.9166 30.6713C23.7476 30.7366 23.6016 30.8505 23.4972 30.9987C23.3569 31.2254 23.3137 31.5277 23.1086 31.7112C22.9035 31.8947 22.7632 31.9163 22.6336 32.0566C22.5641 32.1454 22.517 32.2497 22.4963 32.3606C22.4756 32.4715 22.482 32.5857 22.5149 32.6936C22.5821 32.9089 22.6882 33.1102 22.8279 33.2873C23.0045 33.6129 23.2976 33.8596 23.6484 33.9782C23.9367 34.0121 24.2287 33.9634 24.4904 33.8379C25.0566 33.6175 25.6083 33.3615 26.1421 33.0714" fill="#F0F3FC"/>
<path d="M39.55 24.1004C39.6959 24.2569 39.8722 24.3818 40.0682 24.4675C40.1694 24.5038 40.2787 24.5109 40.3837 24.488C40.4887 24.4651 40.5851 24.4131 40.662 24.3379C40.7172 24.2468 40.7465 24.1422 40.7465 24.0357C40.7465 23.9291 40.7172 23.8245 40.662 23.7334C40.5587 23.5459 40.4192 23.3808 40.2517 23.2476C40.0828 23.0544 39.8554 22.9217 39.604 22.8698C39.5142 22.8725 39.4259 22.8932 39.3442 22.9308C39.2626 22.9684 39.1894 23.022 39.1289 23.0885C39.0685 23.155 39.0221 23.233 38.9924 23.3178C38.9628 23.4027 38.9505 23.4926 38.9563 23.5822C38.9839 23.7639 39.0709 23.9313 39.2037 24.0582C39.3365 24.1852 39.5077 24.2645 39.6904 24.2839" fill="#F0F3FC"/>
<path d="M39.3447 15.2913C39.3986 15.1566 39.4636 15.0267 39.539 14.9027C39.5733 14.8075 39.5862 14.706 39.5768 14.6052C39.5675 14.5045 39.5362 14.4071 39.4851 14.3198C39.391 14.1412 39.2536 13.989 39.0856 13.8772C38.9925 13.7911 38.8806 13.7277 38.7589 13.6921C38.6371 13.6566 38.5088 13.6497 38.384 13.672C38.305 13.7108 38.2216 13.7398 38.1356 13.7584C38.0152 13.7473 37.896 13.7256 37.7794 13.6936C36.8294 13.6073 37.4987 15.259 37.7794 15.5936C37.9025 15.7292 38.0524 15.8376 38.2197 15.9119C38.387 15.9863 38.5679 16.0249 38.751 16.0254C39.4095 15.993 39.2368 15.6908 39.3447 15.2913Z" fill="#F0F3FC"/>
<path d="M37.4018 12.4308L37.5529 12.3768C37.6404 12.3289 37.7087 12.2522 37.7461 12.1597C37.7835 12.0672 37.7877 11.9646 37.758 11.8694C37.688 11.6788 37.5775 11.5057 37.4341 11.362C37.1643 11.0813 36.8944 10.8007 36.6137 10.5416C36.5544 10.4621 36.4754 10.3995 36.3846 10.3597C36.2938 10.32 36.1941 10.3045 36.0955 10.3149C35.9336 10.3149 35.8472 10.5308 35.7177 10.6387C35.3938 10.9302 35.124 10.9518 35.2535 11.4592C35.3518 11.7985 35.505 12.1193 35.7069 12.4092C35.7906 12.5462 35.9037 12.6629 36.0382 12.7507C36.1727 12.8384 36.325 12.8951 36.4842 12.9165C36.9915 12.9813 37.0131 12.5819 37.4018 12.4308Z" fill="#F0F3FC"/>
<path d="M34.0444 23.1397C34.2387 23.0749 34.3575 22.8482 34.5626 22.805C34.7677 22.7619 34.9296 22.8698 35.07 22.805C35.1237 22.7625 35.1608 22.7024 35.1746 22.6353C35.1884 22.5682 35.1781 22.4983 35.1456 22.438C35.0805 22.3208 34.9923 22.218 34.8865 22.1357C34.6205 21.8714 34.2826 21.6912 33.9149 21.6176C33.4831 21.6176 32.5978 21.7903 32.7598 22.3517C32.8785 22.6971 33.645 23.2908 34.0444 23.1397Z" fill="#F0F3FC"/>
<path d="M31.8529 21.8227C31.9188 21.7891 31.9758 21.7402 32.019 21.6801C32.0621 21.6201 32.0903 21.5505 32.1012 21.4773C32.1431 21.3062 32.1348 21.1266 32.0774 20.9601C32.0199 20.7935 31.9158 20.647 31.7773 20.5381C31.5722 20.3762 31.3131 20.3114 31.1188 20.1387C30.9245 19.9659 30.9569 19.9768 30.8597 19.9228C30.8113 19.8921 30.7552 19.8757 30.6978 19.8757C30.6405 19.8757 30.5843 19.8921 30.5359 19.9228C29.8126 20.333 31.1944 22.0926 31.8529 21.8227Z" fill="#F0F3FC"/>
<path d="M32.2091 17.5693C31.8528 17.3534 31.6477 16.954 31.3347 16.6841C31.2159 16.5761 31.0324 16.4898 30.9028 16.5761C30.7733 16.6625 30.7517 16.9324 30.579 16.9756C30.1795 17.0619 29.3807 16.0472 29.4347 17.1807C29.4565 17.4528 29.5409 17.7162 29.6813 17.9503C29.8218 18.1844 30.0145 18.3828 30.2443 18.5301C31.0432 18.9727 33.6341 18.5301 32.2091 17.5693Z" fill="#F0F3FC"/>
<path d="M30.0825 15.9067C30.2013 15.9067 30.3416 15.8419 30.3632 15.7231C30.3796 15.6741 30.3796 15.6211 30.3632 15.572C30.2541 15.3482 30.0711 15.169 29.845 15.0646C29.721 15.0356 29.608 14.9711 29.5199 14.8791C29.4318 14.7872 29.3722 14.6716 29.3484 14.5465C29.2476 14.3541 29.1034 14.1878 28.9274 14.0607C28.8798 14.018 28.8214 13.9893 28.7585 13.9779C28.6956 13.9664 28.6307 13.9727 28.5712 13.9959C28.4092 14.0822 28.4524 14.3198 28.3984 14.4925C28.3445 14.6652 28.3336 14.622 28.3121 14.6976C28.0854 15.4317 29.5751 15.9499 30.0825 15.9067Z" fill="#F0F3FC"/>
<path d="M26.0233 7.90732C26.0401 8.0205 26.0843 8.12784 26.152 8.22003C26.2197 8.31223 26.309 8.38647 26.412 8.43628C26.5174 8.47996 26.6323 8.49596 26.7457 8.48274C26.859 8.46951 26.9671 8.42749 27.0597 8.36071C27.162 8.28209 27.2466 8.18278 27.308 8.06925C27.4336 7.8698 27.4905 7.63474 27.4699 7.39994C27.4585 7.28455 27.4136 7.17502 27.3407 7.08486C27.2678 6.9947 27.1701 6.92784 27.0597 6.89256C26.9794 6.87973 26.9001 6.86171 26.8222 6.8386C26.7065 6.78538 26.6034 6.70807 26.5199 6.61187C26.4776 6.56335 26.4239 6.52613 26.3636 6.50352C26.3033 6.48091 26.2383 6.47362 26.1745 6.48234C26.1201 6.49643 26.0712 6.52654 26.0342 6.56872C25.8966 6.67485 25.7845 6.81038 25.706 6.9654C25.6276 7.12043 25.5848 7.29102 25.5807 7.46471C25.5758 7.63947 25.6343 7.81012 25.7454 7.94508C25.8566 8.08003 26.0128 8.17015 26.1853 8.19879" fill="#F0F3FC"/>
<path d="M25.311 9.89374C25.4265 9.92026 25.5468 9.91842 25.6615 9.88834C25.7761 9.85826 25.8818 9.80084 25.9695 9.72101C26.0303 9.61799 26.0623 9.50056 26.0623 9.38095C26.0623 9.26135 26.0303 9.14392 25.9695 9.0409C25.6937 8.46601 25.2543 7.98532 24.7064 7.6591C24.6649 7.6249 24.6153 7.60197 24.5624 7.59252C24.5094 7.58307 24.4549 7.58741 24.4042 7.60514C24.3589 7.62546 24.3212 7.65943 24.2962 7.70229C24.1901 7.82392 24.1127 7.96777 24.0695 8.12329C24.0533 8.22702 24.0533 8.33264 24.0695 8.43637C24.1112 8.95469 24.3556 9.4357 24.7496 9.77501C24.9226 9.8645 25.1166 9.90552 25.311 9.89374Z" fill="#F0F3FC"/>
<path d="M31.4425 35.5868C31.6366 35.4404 31.7953 35.2523 31.9068 35.0362C31.955 34.8975 31.9744 34.7503 31.9638 34.6038C31.9532 34.4573 31.9128 34.3145 31.8451 34.1841C31.7774 34.0537 31.6838 33.9385 31.57 33.8456C31.4563 33.7527 31.3247 33.6839 31.1835 33.6436C30.9218 33.5715 30.6546 33.5209 30.3846 33.4925C29.9312 33.4169 29.4994 33.2874 29.046 33.2226C28.5929 33.1403 28.1258 33.1852 27.6966 33.3522C27.484 33.4446 27.3016 33.5947 27.1699 33.7855C27.0383 33.9763 26.9627 34.2001 26.9517 34.4317C27.0138 34.8561 27.2335 35.2415 27.567 35.5112C28.0096 35.943 28.7329 36.6447 29.3807 36.6447C30.1687 36.5383 30.8965 36.1649 31.4425 35.5868Z" fill="#F0F3FC"/>
<path d="M31.3238 17.4505C31.4062 17.4958 31.474 17.5636 31.5194 17.6459C31.5649 17.7282 31.586 17.8217 31.5803 17.9156C31.5747 18.0095 31.5425 18.0998 31.4875 18.1761C31.4325 18.2524 31.357 18.3115 31.2698 18.3465C31.0986 18.387 30.9195 18.3781 30.7532 18.3208C30.5869 18.2635 30.4404 18.1601 30.3306 18.0227C30.198 17.8907 30.1207 17.7131 30.1147 17.5261C30.1147 17.4074 30.2442 17.2562 30.3414 17.2454C30.4374 17.2243 30.5368 17.2243 30.6328 17.2454C30.7319 17.2537 30.8273 17.2866 30.9103 17.3413C30.9933 17.396 31.0612 17.4707 31.1078 17.5585C31.1343 17.6064 31.1482 17.6603 31.1482 17.715C31.1482 17.7698 31.1343 17.8236 31.1078 17.8716C31.0431 18.0011 30.8164 17.8716 30.8811 17.796C30.9783 17.9147 30.9999 17.7096 30.8811 17.6448C30.7914 17.5655 30.677 17.5198 30.5573 17.5153C30.4062 17.5153 30.2982 17.5153 30.3306 17.5153C30.3161 17.646 30.3426 17.778 30.4061 17.8931C30.4332 17.9605 30.4753 18.0208 30.5293 18.0694C30.5832 18.118 30.6476 18.1535 30.7174 18.1733C30.7873 18.1931 30.8607 18.1967 30.9321 18.1836C31.0036 18.1706 31.0711 18.1414 31.1294 18.0983C31.1873 18.0712 31.2387 18.0322 31.2804 17.9839C31.3222 17.9356 31.3532 17.879 31.3716 17.8179C31.3899 17.7567 31.3951 17.6924 31.3869 17.6291C31.3786 17.5658 31.3571 17.5049 31.3238 17.4505Z" fill="#F5CA62"/>
<path d="M36.7863 11.4482C36.8535 11.5068 36.906 11.5802 36.9397 11.6627C36.9734 11.7452 36.9875 11.8344 36.9806 11.9232C36.9757 12.0256 36.9371 12.1235 36.8707 12.2016C36.8043 12.2798 36.7139 12.3337 36.6136 12.355C36.4338 12.362 36.2578 12.3017 36.1201 12.186C35.9824 12.0702 35.8927 11.9072 35.8687 11.7289C35.8201 11.5596 35.8201 11.38 35.8687 11.2107C35.8687 11.1352 35.9335 11.0056 36.1278 10.9517C36.1937 10.9596 36.2563 10.9847 36.3093 11.0245C36.3624 11.0643 36.404 11.1174 36.4301 11.1784C36.47 11.2665 36.4907 11.3622 36.4907 11.459C36.4907 11.5558 36.47 11.6515 36.4301 11.7397C36.4301 11.7397 36.3437 11.9124 36.2358 11.88C36.2019 11.8769 36.1694 11.8653 36.1412 11.8465C36.1129 11.8277 36.0898 11.8021 36.0738 11.7721C36.0396 11.7313 36.0208 11.6797 36.0208 11.6264C36.0208 11.5731 36.0396 11.5215 36.0738 11.4806C36.1494 11.4806 36.1494 11.5778 36.0738 11.5886C36.0606 11.6116 36.0536 11.6376 36.0536 11.6642C36.0536 11.6907 36.0606 11.7167 36.0738 11.7397C36.0738 11.7397 36.0199 11.7397 36.0738 11.7397C36.0869 11.609 36.0605 11.4774 35.9983 11.3619C35.9983 11.2971 35.9227 11.2971 35.9983 11.2863C35.9728 11.3052 35.9539 11.3316 35.9443 11.3619C35.8628 11.4834 35.8179 11.6258 35.8148 11.7721C35.8073 11.8452 35.8183 11.919 35.8465 11.9869C35.8748 12.0547 35.9195 12.1145 35.9767 12.1607C36.0374 12.1895 36.1038 12.2045 36.171 12.2045C36.2382 12.2045 36.3046 12.1895 36.3653 12.1607C36.592 12.096 36.6568 11.7937 36.5704 11.4806L36.7863 11.4482Z" fill="#F5CA62"/>
<path d="M30.0931 34.1833C30.3306 34.1833 30.6869 34.356 30.6761 34.7339C30.6653 35.1117 30.3091 35.198 30.0716 35.3276C29.8255 35.4528 29.545 35.4931 29.2736 35.4423C29.0022 35.3916 28.7552 35.2525 28.571 35.0469C28.4837 34.9218 28.4369 34.773 28.4369 34.6205C28.4369 34.468 28.4837 34.3191 28.571 34.1941C28.6773 34.0855 28.8089 34.0049 28.954 33.9597C29.099 33.9144 29.2531 33.906 29.4023 33.935C29.4871 33.9413 29.5695 33.9659 29.644 34.0068C29.7185 34.0478 29.7833 34.1043 29.8341 34.1725C29.8738 34.2473 29.8945 34.3307 29.8945 34.4154C29.8945 34.5001 29.8738 34.5835 29.8341 34.6583C29.6613 35.0577 29.0568 34.8094 29.1648 34.4747V34.3992V34.464L29.2295 34.5719L29.1432 34.4856H29.1972C29.1972 34.7231 29.5858 34.7446 29.5966 34.5719C29.6089 34.5284 29.6105 34.4826 29.6013 34.4384C29.5921 34.3941 29.5723 34.3528 29.5437 34.3178C29.5151 34.2828 29.4785 34.2553 29.4369 34.2375C29.3954 34.2197 29.3502 34.2122 29.3051 34.2157C29.0784 34.2157 28.8193 34.2157 28.7006 34.356C28.6284 34.4394 28.5819 34.5418 28.5666 34.6509C28.5513 34.7601 28.5678 34.8714 28.6142 34.9714C28.6728 35.0797 28.7581 35.1712 28.862 35.2374C28.9659 35.3035 29.085 35.3419 29.208 35.3492C29.4548 35.3488 29.6957 35.2735 29.8988 35.1333C30.0932 35.0037 30.3631 34.8634 30.3954 34.7122C30.4278 34.5611 30.2335 34.3236 30.0068 34.2049L30.0931 34.1833Z" fill="#F5CA62"/>
<path d="M25.1922 8.63073C25.3197 8.65691 25.4363 8.72087 25.5269 8.81427C25.5792 8.87188 25.6082 8.94694 25.6082 9.02478C25.6082 9.10263 25.5792 9.17768 25.5269 9.2353C25.2894 9.48359 24.9223 9.31087 24.7496 9.2353C24.6271 9.17322 24.5229 9.08019 24.4473 8.96542C24.4189 8.93014 24.3981 8.88927 24.3864 8.84547C24.3747 8.80166 24.3724 8.75589 24.3795 8.71112C24.3866 8.66634 24.4031 8.62355 24.4278 8.58553C24.4525 8.54752 24.4849 8.51512 24.5229 8.49042C24.5962 8.46076 24.6768 8.45415 24.754 8.47151C24.8312 8.48887 24.9012 8.52937 24.9547 8.58758C25.0735 8.65235 25.149 8.91144 24.9547 8.96542C24.9203 8.96051 24.8886 8.94384 24.865 8.91827C24.8414 8.89271 24.8273 8.8598 24.8252 8.82507C24.8363 8.84955 24.8547 8.86995 24.8779 8.88348C24.9011 8.89702 24.928 8.90301 24.9547 8.90062C25.0951 8.76028 24.7172 8.60915 24.6632 8.67392C24.6093 8.7387 24.6632 8.90062 24.9115 9.00858C25.1598 9.11653 25.2678 9.21369 25.4189 9.11654C25.57 9.01938 25.3973 8.81425 25.1922 8.63073Z" fill="#F5CA62"/>
<path d="M33.8823 21.9521C33.9496 21.9196 34.0234 21.9027 34.0982 21.9027C34.173 21.9027 34.2468 21.9196 34.3141 21.9521C34.4036 21.9699 34.484 22.0185 34.5413 22.0895C34.5985 22.1606 34.6289 22.2495 34.6272 22.3407C34.476 22.7078 34.1522 22.7294 33.8823 22.7834C33.7308 22.7952 33.5787 22.7692 33.4397 22.7078C33.3641 22.7078 33.267 22.6322 33.2238 22.5135C33.2014 22.4502 33.2034 22.3809 33.2293 22.319C33.2552 22.2572 33.3033 22.2072 33.3641 22.1788C33.4409 22.1332 33.5285 22.1091 33.6178 22.1091C33.7071 22.1091 33.7947 22.1332 33.8715 22.1788C33.9215 22.2119 33.9563 22.2633 33.9685 22.322C33.9806 22.3807 33.969 22.4417 33.9363 22.4919C33.9229 22.5142 33.9038 22.5327 33.8811 22.5456C33.8584 22.5584 33.8328 22.5652 33.8067 22.5652C33.7806 22.5652 33.755 22.5584 33.7323 22.5456C33.7096 22.5327 33.6906 22.5142 33.6772 22.4919C33.6772 22.4919 33.6232 22.4919 33.6772 22.4919C33.7312 22.4919 33.6772 22.4919 33.6772 22.4919C33.6772 22.4919 33.7636 22.4919 33.7528 22.4919H33.6988C33.6988 22.4919 33.5476 22.4919 33.4505 22.5674C33.3533 22.643 33.58 22.7294 33.8391 22.7834C34.0982 22.8373 34.3789 22.643 34.3465 22.4703C34.3141 22.2976 34.0874 22.1896 33.8283 22.1572L33.8823 21.9521Z" fill="#F5CA62"/>
<path d="M41.0395 23.6903C41.273 23.9073 41.5743 24.037 41.8924 24.0573C42.1584 24.0242 42.4094 23.9156 42.6156 23.7443C43.1909 23.3992 43.7052 22.9616 44.1378 22.4488C44.3546 22.1931 44.5062 21.8886 44.5796 21.5615C44.6529 21.2343 44.6458 20.8943 44.5588 20.5705C44.4566 20.2502 44.234 19.9822 43.9379 19.823C43.6417 19.6639 43.2954 19.6261 42.9719 19.7176C42.7815 19.8354 42.5739 19.9228 42.3565 19.9767C42.0327 19.9767 41.7736 19.7392 41.4713 19.6097C41.2479 19.5204 41.0028 19.5005 40.7679 19.5525C40.533 19.6045 40.3192 19.7259 40.1543 19.9011C39.9384 20.1386 39.8197 20.4625 39.5606 20.6352C39.3015 20.808 39.2799 20.7756 39.1503 20.8835C39.013 21.0297 38.9365 21.2227 38.9365 21.4233C38.9365 21.6239 39.013 21.8169 39.1503 21.963C39.4094 22.2977 39.8304 22.3733 40.1219 22.6431C40.4134 22.913 40.6509 23.3772 41.0395 23.6903Z" fill="#07AA7C"/>
<path d="M16.3615 18.4005C16.3832 18.3004 16.4235 18.2052 16.4803 18.1199C16.6962 17.8284 17.2036 18.1198 17.495 17.8824C17.5675 17.8194 17.6263 17.7422 17.6678 17.6557C17.7534 17.469 17.7923 17.2643 17.781 17.0593C17.7697 16.8543 17.7086 16.6551 17.603 16.479C17.4626 16.2523 17.1928 16.0688 16.9553 16.1767C16.8575 16.2352 16.7638 16.3001 16.6746 16.371C16.5471 16.4372 16.4036 16.4661 16.2605 16.4547C16.1173 16.4432 15.9803 16.3918 15.8649 16.3062C15.6166 16.1551 15.4115 15.9392 15.1632 15.7881C15.0409 15.7148 14.901 15.6761 14.7584 15.6761C14.6158 15.6761 14.4759 15.7148 14.3536 15.7881C14.2175 15.8948 14.1191 16.0424 14.0729 16.2091C13.9757 16.522 13.9757 16.857 14.0729 17.1699C14.3003 17.7216 14.5939 18.2436 14.9473 18.7244C15.0211 18.8755 15.1438 18.9971 15.2955 19.0696C15.4473 19.1421 15.619 19.1611 15.7829 19.1236C15.9468 19.086 16.0932 18.9942 16.1982 18.8629C16.3033 18.7316 16.3608 18.5687 16.3615 18.4005Z" fill="#07AA7C"/>
<path d="M30.8596 50.6138C30.7462 49.1087 30.7246 47.5982 30.7949 46.0905C30.9051 44.5779 31.1142 43.0742 31.421 41.5889C31.7017 40.1099 31.9715 38.631 32.155 37.152C32.2884 35.659 32.3461 34.1601 32.3278 32.6612L32.3925 23.6147C32.3925 22.1142 32.3925 20.6028 32.4897 19.0915L32.6085 16.8353C32.6085 16.4574 32.6624 16.0796 32.6948 15.7018C32.6948 15.5182 32.6948 15.3347 32.7704 15.1404L32.8352 14.8705C32.8352 14.7949 32.8352 14.6438 32.9863 14.6654C32.8136 14.7194 32.8351 14.9893 32.792 15.1512C32.7488 15.3131 32.792 15.5183 32.738 15.7126C32.738 16.0904 32.738 16.4574 32.684 16.7921V19.0591V23.5715L32.7812 32.618C32.7812 34.1185 32.7812 35.6407 32.6517 37.1628C32.4875 38.6697 32.2352 40.1656 31.896 41.6429C31.6045 43.1218 31.3022 44.59 31.1295 46.069C30.9568 47.5479 30.9136 49.1132 30.8596 50.6138Z" fill="#6A3400"/>
<path d="M32.6841 12.2146C32.5761 12.3334 32.5221 12.5061 32.4034 12.6033C32.2846 12.7005 31.9608 12.7005 31.7449 12.776C30.3523 13.1862 31.7449 16.7271 33.5801 15.8635C33.9581 15.6736 34.2803 15.3886 34.515 15.0366C34.7497 14.6846 34.8888 14.2776 34.9187 13.8556C34.8539 13.1323 33.3966 11.4482 32.6841 12.2146Z" fill="#FFC3BA"/>
<path d="M32.6408 14.4711C32.8129 14.5987 33.0068 14.6938 33.213 14.7518C33.3175 14.7799 33.4274 14.7817 33.5328 14.7573C33.6382 14.7328 33.736 14.6827 33.8175 14.6114C34.0766 14.3415 33.9471 13.8989 33.8175 13.5319C33.7527 13.3915 33.6664 13.2296 33.5152 13.2296C33.3641 13.2296 33.2346 13.6075 33.0079 13.6506C32.9288 13.656 32.8494 13.656 32.7704 13.6506C32.6884 13.6735 32.6177 13.7257 32.5719 13.7974C32.526 13.8692 32.5083 13.9553 32.5221 14.0393C32.5552 14.2081 32.6335 14.3649 32.7488 14.4927" fill="#FF9C98"/>
<path d="M34.6704 21.3907C34.7894 21.4427 34.9183 21.4685 35.0482 21.4663C35.1132 21.465 35.1761 21.4435 35.2284 21.4048C35.2806 21.3662 35.3195 21.3122 35.3397 21.2504C35.3397 21.0992 35.2533 20.9481 35.113 20.8402C34.9726 20.7322 34.8323 20.635 34.8107 20.4731C34.8203 20.3516 34.8457 20.2318 34.8862 20.1169C34.9618 19.739 34.638 19.4044 34.3033 19.2209C34.2174 19.1713 34.1215 19.1418 34.0226 19.1345C33.7851 19.1345 33.634 19.4368 33.4073 19.4368C33.1806 19.4368 32.9755 19.1021 32.7164 19.0913C32.6161 19.0967 32.5215 19.1397 32.4515 19.2118C32.3814 19.2838 32.3411 19.3795 32.3386 19.48C32.3475 19.6853 32.415 19.8838 32.5329 20.0521C33.0834 20.9265 33.742 21.0453 34.6704 21.3907Z" fill="#F0F3FC"/>
<path d="M42.3999 26.335C41.4731 27.2938 40.3746 28.0701 39.1613 28.6236C37.9761 29.2247 36.8851 29.9957 35.9227 30.9122C34.9844 31.829 34.1778 32.8717 33.5262 34.0104C32.9073 35.1738 32.3873 36.3871 31.9717 37.6376C31.5014 38.8678 31.1084 40.1261 30.795 41.4052C30.5057 42.6871 30.3716 43.9992 30.3956 45.3131C30.4795 47.9649 31.077 50.5752 32.1552 52.9993C30.8843 50.629 30.1474 48.0092 29.9961 45.3239C29.9418 42.6268 30.4453 39.9475 31.4751 37.4541C31.9169 36.1794 32.4658 34.9443 33.116 33.7621C33.7856 32.5873 34.6384 31.5269 35.6421 30.6207C36.6381 29.7108 37.7665 28.9573 38.9886 28.3861C40.2466 27.9272 41.4047 27.2309 42.3999 26.335Z" fill="#6A3400"/>
<path d="M46.2971 27.5765C46.2971 27.4902 46.2323 27.4146 46.2107 27.3174C46.1352 26.7993 47.1607 26.6157 47.0528 26.0976C46.9988 25.8385 46.6749 25.7305 46.5778 25.4822C46.535 25.3012 46.535 25.1127 46.5778 24.9317C46.6533 24.1976 45.9948 23.6038 45.3903 23.1504C44.7857 22.697 44.138 22.3192 43.5335 22.6323C42.9289 22.9453 42.7562 23.5931 42.2056 23.5607C42.0809 23.5434 41.958 23.5145 41.8386 23.4743C41.6113 23.4443 41.3803 23.484 41.176 23.5881C40.9717 23.6922 40.8037 23.8557 40.6943 24.0572C40.5923 24.2617 40.5321 24.4844 40.5172 24.7124C40.5024 24.9405 40.5333 25.1691 40.608 25.3851C41.0074 26.7345 42.4647 27.4793 43.6306 28.0947C44.1812 28.3646 46.5454 28.8396 46.2971 27.5765Z" fill="#FFC3BA"/>
<path d="M29.2943 29.4658C29.0352 29.5197 28.7761 29.7033 28.5171 29.6385C28.3891 29.5997 28.2712 29.5333 28.1716 29.4442L27.5131 28.9368C27.329 28.7596 27.1021 28.6331 26.8546 28.5697C26.7291 28.5454 26.5991 28.5655 26.4868 28.6266C26.3746 28.6877 26.287 28.7859 26.2393 28.9044C26.1745 29.1851 26.4228 29.4334 26.6603 29.6061C27.2175 30.1082 27.9515 30.3684 28.7006 30.3294C29.0676 30.2538 30.0284 29.9192 30.158 29.6061C29.891 29.4726 29.5898 29.4237 29.2943 29.4658Z" fill="#FF9C98"/>
<path d="M28.3875 28.4402C28.7267 28.4932 29.0739 28.4521 29.3914 28.3215C29.4471 28.3073 29.4983 28.279 29.5399 28.2393C29.5815 28.1996 29.6121 28.1498 29.6289 28.0948C29.6289 27.9329 29.4778 27.7925 29.3051 27.7709C29.1335 27.7775 28.9621 27.7556 28.7977 27.7062C28.625 27.6198 28.5386 27.4147 28.3875 27.3067C28.0312 27.0477 27.459 27.3067 27.1244 27.0369C27.0822 27.1399 27.0709 27.2529 27.092 27.3622C27.1131 27.4715 27.1656 27.5723 27.2432 27.6522C27.4013 27.8045 27.567 27.9486 27.7397 28.084C27.8478 28.2065 27.967 28.3185 28.096 28.4187C28.1643 28.4655 28.2452 28.4906 28.3281 28.4906C28.4109 28.4906 28.4919 28.4655 28.5602 28.4187" fill="#FF9C98"/>
<path d="M38.4488 37.2275C39.1866 37.3859 39.9522 37.3594 40.6774 37.1503C41.4025 36.9413 42.0647 36.5561 42.605 36.0292C42.7729 35.89 42.8842 35.6942 42.918 35.4787C42.886 35.2254 42.7586 34.9937 42.5618 34.831C42.1806 34.4951 41.8908 34.068 41.7198 33.5895C41.6871 33.1461 41.6038 32.7078 41.4715 32.2833C41.3393 32.0665 41.1454 31.8941 40.9145 31.7883C40.6837 31.6825 40.4266 31.6481 40.176 31.6895C39.8464 31.7234 39.5343 31.855 39.28 32.0674C38.8482 32.4128 38.5783 32.9634 38.0817 33.1469C37.5852 33.3304 37.0022 33.2225 36.5596 33.406C36.2576 33.5369 36.0187 33.7806 35.8937 34.085C35.7687 34.3895 35.7675 34.7307 35.8903 35.0361C36.0846 35.4463 36.484 35.727 36.6891 36.1156C36.7829 36.3804 36.906 36.6339 37.0562 36.8713C37.3269 37.1234 37.6797 37.2691 38.0494 37.2815" fill="#048970"/>
<path d="M43.2635 30.0053C42.5726 29.8541 41.8385 29.9405 41.1584 29.7678C40.4783 29.595 40.0141 29.2928 39.4204 29.0985C38.5881 28.8869 37.7162 28.8878 36.8843 29.1009C36.0525 29.314 35.2876 29.7327 34.6596 30.3183C34.4542 30.4834 34.2851 30.6893 34.1631 30.9229C34.0732 31.1902 34.0473 31.4749 34.0875 31.7541C34.101 32.3015 34.2336 32.8393 34.4761 33.3302C34.5981 33.5771 34.7756 33.7924 34.9947 33.9591C35.2139 34.1258 35.4687 34.2394 35.7392 34.291C35.9553 34.2869 36.1684 34.3429 36.3545 34.4529C36.4322 34.5343 36.5043 34.6209 36.5704 34.712C36.7111 34.8471 36.8858 34.9415 37.0759 34.9852C37.266 35.0289 37.4643 35.0203 37.6499 34.9603C38.5999 34.7876 39.4312 34.1614 40.4027 34.0319C41.0625 33.9962 41.7241 34.0252 42.3783 34.1183C43.2851 34.1183 45.2714 33.9779 45.6169 32.9308C46.0919 31.4842 44.451 30.2536 43.2635 30.0053Z" fill="#07AA7C"/>
<path d="M36.7216 32.9742C36.4432 32.8384 36.135 32.7752 35.8256 32.7906C35.5129 32.8122 35.1991 32.8122 34.8864 32.7906C34.7029 32.7906 34.5194 32.7151 34.325 32.7043C34.2298 32.6978 34.1343 32.7118 34.0449 32.7454C33.9556 32.7789 33.8744 32.8311 33.8069 32.8986C33.5694 33.1793 33.8069 33.6111 33.8069 33.9781C33.8069 34.3452 33.5262 35.0577 33.6773 35.5326C33.7248 35.6853 33.8056 35.8255 33.9139 35.9431C34.0222 36.0607 34.1553 36.1528 34.3035 36.2128C35.2427 36.5798 35.9444 35.9213 36.333 35.1332C36.7216 34.3452 37.8011 33.5571 36.7216 32.9742Z" fill="#048970"/>
<path d="M41.6765 33.6435C41.7034 33.5372 41.7034 33.4259 41.6765 33.3197C41.6324 33.2343 41.565 33.1632 41.4821 33.1146C40.6512 32.4877 39.6291 32.1673 38.589 32.2078C38.3713 32.1882 38.1545 32.2539 37.9845 32.3913C37.6822 32.7151 38.0816 33.2225 37.8873 33.6003C37.5958 34.1833 37.0992 34.4208 37.585 35.0901C37.719 35.2803 37.9026 35.4301 38.1157 35.5233C38.3289 35.6166 38.5635 35.6497 38.7941 35.619C39.3151 35.4964 39.8217 35.3191 40.3055 35.0901C40.6603 35.0312 40.9863 34.858 41.2337 34.5969C41.4812 34.3358 41.6366 34.001 41.6765 33.6435Z" fill="#07AA7C"/>
<path d="M41.558 24.6941C41.683 24.7207 41.7986 24.7803 41.8926 24.8669C42.3784 25.2663 42.9721 25.5578 43.4255 25.9464C43.7235 26.0846 44.0398 26.1791 44.3647 26.2271C44.6238 26.1731 44.8613 26.0004 45.1204 25.9572C45.5522 25.8816 45.6386 26.2055 45.455 26.5402C45.2192 26.8519 44.9069 27.0973 44.5482 27.2526C44.411 27.3531 44.2519 27.4197 44.084 27.447C43.9023 27.4446 43.724 27.3963 43.5659 27.3066C43.2866 27.181 43.0282 27.0136 42.7994 26.8101C42.6311 26.6153 42.4862 26.4015 42.3676 26.1731C42.0951 25.7734 41.7722 25.4106 41.4068 25.0936C41.3552 25.0537 41.3205 24.9959 41.3096 24.9316C41.2881 24.7697 41.4284 24.6726 41.558 24.6941Z" fill="#FF9C98"/>
<path d="M43.8681 25.2232C43.7915 25.0597 43.6935 24.9073 43.5767 24.7698C43.5218 24.6945 43.4525 24.6309 43.3728 24.5828C43.2931 24.5346 43.2046 24.5027 43.1125 24.4891C43.0668 24.4814 43.0201 24.4834 42.9752 24.4947C42.9304 24.5061 42.8884 24.5266 42.8519 24.555C42.8154 24.5834 42.7851 24.6191 42.7631 24.6597C42.741 24.7004 42.7277 24.7452 42.7238 24.7913C42.8623 24.9983 43.038 25.1776 43.242 25.3203C43.345 25.3918 43.4674 25.4301 43.5928 25.4301C43.7182 25.4301 43.8407 25.3918 43.9437 25.3203C43.9437 25.3203 43.9437 25.2663 43.8789 25.2339C43.8749 25.2308 43.8713 25.2272 43.8681 25.2232Z" fill="#FF9C98"/>
<path d="M44.9691 25.1907C44.9568 25.1052 44.9178 25.0258 44.8577 24.9638C44.7976 24.9018 44.7195 24.8603 44.6344 24.8452C44.5502 24.8316 44.4637 24.8439 44.3866 24.8806C44.3095 24.9172 44.2453 24.9764 44.2026 25.0504C44.2568 25.1843 44.3434 25.3027 44.4545 25.395C44.5657 25.4873 44.698 25.5506 44.8396 25.5793C44.856 25.5888 44.8746 25.5938 44.8936 25.5938C44.9125 25.5938 44.9311 25.5888 44.9475 25.5793C44.9591 25.548 44.9591 25.5135 44.9475 25.4822C44.9586 25.4434 44.9586 25.4022 44.9475 25.3634C44.9614 25.3069 44.9687 25.2489 44.9691 25.1907Z" fill="#FF9C98"/>
<path d="M23.7671 38.89C24.3985 38.6178 25.0688 38.4467 25.7534 38.3826C27.9772 38.0804 30.1687 37.5729 32.4141 37.4434C34.4112 37.3355 37.5635 37.1519 38.3839 39.6025C38.6991 40.8108 38.7176 42.0774 38.4379 43.2945C37.9413 46.6626 37.4663 50.0415 36.8402 53.3665C36.4083 55.6443 35.9118 58.0948 33.4828 58.8289C31.4209 59.455 27.0056 59.8221 25.7534 57.4147C25.3657 56.5099 25.1322 55.5467 25.0625 54.5648C24.6264 51.3615 23.9038 48.2038 22.9035 45.1297C22.5387 44.1744 22.2956 43.177 22.1802 42.161C22.1229 41.6555 22.1764 41.1436 22.3367 40.6608C22.497 40.178 22.7604 39.7358 23.1086 39.365C23.3023 39.1737 23.5244 39.0135 23.7671 38.89Z" fill="#EBB23A"/>
<path d="M41.8278 29.8327C41.8492 29.7734 41.8492 29.7085 41.8278 29.6492C41.8092 29.6031 41.7795 29.5623 41.7414 29.5304C41.3351 29.1772 40.8115 28.9886 40.2732 29.0015C40.1624 28.9973 40.0541 29.0359 39.971 29.1094C39.8198 29.2929 38.9778 29.2929 38.8914 29.5089C38.8051 29.7248 39.55 30.2429 39.7983 30.5884C39.8603 30.6931 39.9516 30.7775 40.0609 30.8312C40.1701 30.8849 40.2927 30.9056 40.4136 30.8907C40.6762 30.8238 40.9298 30.726 41.1692 30.5992C41.6334 30.4048 41.709 30.3185 41.8278 29.8327Z" fill="#027168"/>
<path d="M37.6174 32.4777C38.4295 31.8462 39.0867 31.0376 39.5389 30.1135L38.8912 29.509C38.8496 29.4736 38.8164 29.4293 38.7941 29.3794C38.7836 29.2948 38.8068 29.2095 38.8588 29.1419C39.1968 28.5023 39.3255 27.7728 39.2267 27.0561C39.128 26.3395 38.8067 25.672 38.3083 25.1477C38.2133 25.0232 38.088 24.9251 37.9444 24.8628C37.8008 24.8004 37.6436 24.7759 37.4878 24.7914C37.3166 24.8467 37.1636 24.9474 37.0452 25.0829C36.6478 25.4585 36.2863 25.8705 35.9657 26.3135C35.8938 26.4688 35.7669 26.5919 35.6094 26.659C35.264 26.767 34.9617 26.3352 34.5947 26.3352C34.2276 26.3352 34.0549 26.6914 33.9793 27.0045C33.9613 27.3359 33.873 27.6597 33.7203 27.9544C33.2237 27.7062 32.7055 28.2027 32.3924 28.6561C32.1691 28.8926 31.9979 29.1734 31.8901 29.4802C31.7822 29.7871 31.74 30.1132 31.7663 30.4374C31.8785 30.7695 32.0587 31.0746 32.2953 31.3334C32.8782 32.035 33.6015 33.4276 34.6055 33.4924C35.6794 33.416 36.7161 33.0667 37.6174 32.4777Z" fill="#DB3D63"/>
<path d="M35.0157 30.4587C34.8323 29.9784 34.8423 29.4456 35.0437 28.9725C35.245 28.4994 35.622 28.1228 36.0953 27.9219C35.8901 28.3969 35.6958 28.7747 35.5231 29.1849C35.3504 29.5951 35.2208 29.9838 35.0157 30.4587Z" fill="#B72A59"/>
<path d="M34.5625 31.7004C35.0397 31.2575 35.5484 30.8498 36.0846 30.4805C36.575 30.0696 37.03 29.6182 37.4449 29.1311C37.3428 29.8284 36.9801 30.461 36.4301 30.9015C35.8747 31.3034 35.2367 31.5763 34.5625 31.7004Z" fill="#B72A59"/>
<path d="M23.9722 43.1974C24.8488 44.0987 25.4708 45.2161 25.775 46.436C26.0968 47.642 26.2815 48.8805 26.3256 50.128C26.4012 51.3694 26.4443 52.5893 26.5955 53.7984C26.6562 54.3996 26.7792 54.9929 26.9625 55.5688C27.0193 55.8673 27.1767 56.1374 27.4085 56.3338C27.6404 56.5303 27.9326 56.6413 28.2364 56.6483C27.9147 56.6918 27.5877 56.6233 27.3106 56.4542C27.0334 56.2852 26.8228 56.0259 26.7142 55.72C26.4758 55.1353 26.2985 54.5275 26.1853 53.9063C25.9706 52.6825 25.8408 51.4453 25.7966 50.2035C25.7435 48.9859 25.6028 47.7737 25.3756 46.5763C25.1452 45.3655 24.6675 44.2152 23.9722 43.1974Z" fill="#F5CA62"/>
</svg>
