<svg width="64" height="64" viewBox="0 0 64 64" fill="none" xmlns="http://www.w3.org/2000/svg">
<g filter="url(#filter0_i_808_22892)">
<path d="M8 8.16003C8 8.16003 16.8193 9.32003 22.5 9.32003C28.1807 9.32003 37 8.16003 37 8.16003L32.5324 55.0697C32.4347 56.0961 31.5725 56.88 30.5414 56.88H14.4586C13.4275 56.88 12.5653 56.0961 12.4676 55.0697L8 8.16003Z" fill="#E0EFF8"/>
</g>
<ellipse cx="22.5" cy="23.24" rx="11.02" ry="1.16" fill="#FFC3BA"/>
<ellipse cx="22.5" cy="8.16" rx="14.5" ry="1.16" fill="#EEF9FC"/>
<path d="M11.48 23.24C11.48 23.24 18.1021 24.4 22.5 24.4C26.8979 24.4 33.52 23.24 33.52 23.24L30.942 52.7341C30.8517 53.7673 29.9867 54.56 28.9496 54.56H16.0504C15.0133 54.56 14.1483 53.7673 14.058 52.7341L11.48 23.24Z" fill="#FF9C98"/>
<path d="M14.5 26.38C14.6667 30.38 15.2 39.18 16 42.38" stroke="#FF546D" stroke-linecap="round"/>
<circle cx="16.5" cy="44.38" r="0.5" fill="#FF546D"/>
<path d="M47.9158 36.637L45.1884 36.4189L46.1702 33.9369C46.3372 33.5387 46.538 33.1554 46.7702 32.7913C45.1816 32.0866 43.4624 31.7242 41.7245 31.7277C38.8574 31.727 36.0766 32.7083 33.845 34.5082C31.6134 36.3082 30.0656 38.8181 29.4592 41.6203C28.8529 44.4225 29.2246 47.3479 30.5124 49.9094C31.8002 52.4709 33.9266 54.5141 36.5374 55.6987C39.1482 56.8834 42.086 57.1382 44.8618 56.4206C47.6376 55.7029 50.0839 54.0563 51.7934 51.7547C53.5029 49.4531 54.3726 46.6353 54.2576 43.7706C54.1426 40.9059 53.0499 38.1669 51.1614 36.0097C50.1522 36.4966 49.0337 36.7128 47.9158 36.637Z" fill="#FFD46B"/>
<path d="M48.9796 40.5918C49.552 40.5918 50.0161 40.1278 50.0161 39.5554C50.0161 38.983 49.552 38.5189 48.9796 38.5189C48.4072 38.5189 47.9432 38.983 47.9432 39.5554C47.9432 40.1278 48.4072 40.5918 48.9796 40.5918Z" fill="#FFC03A"/>
<path d="M51.7613 46.4281C52.3337 46.4281 52.7978 45.9641 52.7978 45.3917C52.7978 44.8193 52.3337 44.3553 51.7613 44.3553C51.1889 44.3553 50.7249 44.8193 50.7249 45.3917C50.7249 45.9641 51.1889 46.4281 51.7613 46.4281Z" fill="#FFC03A"/>
<path d="M51.5976 43.21C52.17 43.21 52.634 42.7459 52.634 42.1735C52.634 41.6011 52.17 41.1371 51.5976 41.1371C51.0252 41.1371 50.5612 41.6011 50.5612 42.1735C50.5612 42.7459 51.0252 43.21 51.5976 43.21Z" fill="#FFC03A"/>
<path d="M48.434 45.3101C49.0064 45.3101 49.4704 44.8461 49.4704 44.2737C49.4704 43.7013 49.0064 43.2373 48.434 43.2373C47.8616 43.2373 47.3976 43.7013 47.3976 44.2737C47.3976 44.8461 47.8616 45.3101 48.434 45.3101Z" fill="#FFC03A"/>
<path d="M48.9796 48.9651C49.552 48.9651 50.0161 48.5012 50.0161 47.9288C50.0161 47.3564 49.552 46.8923 48.9796 46.8923C48.4072 46.8923 47.9432 47.3564 47.9432 47.9288C47.9432 48.5012 48.4072 48.9651 48.9796 48.9651Z" fill="#FFC03A"/>
<path d="M39.5699 36.4188C40.1423 36.4188 40.6063 35.9548 40.6063 35.3824C40.6063 34.81 40.1423 34.3459 39.5699 34.3459C38.9975 34.3459 38.5335 34.81 38.5335 35.3824C38.5335 35.9548 38.9975 36.4188 39.5699 36.4188Z" fill="#FFC03A"/>
<path d="M35.9149 37.9735C36.4873 37.9735 36.9513 37.5096 36.9513 36.9372C36.9513 36.3648 36.4873 35.9008 35.9149 35.9008C35.3425 35.9008 34.8785 36.3648 34.8785 36.9372C34.8785 37.5096 35.3425 37.9735 35.9149 37.9735Z" fill="#FFC03A"/>
<path d="M46.1699 38.3276C46.066 38.3227 45.9655 38.2897 45.879 38.2321C45.7926 38.1744 45.7234 38.0943 45.6789 38.0003C45.2153 36.773 43.2789 36.4185 43.2516 36.4185C43.1778 36.4146 43.1056 36.3949 43.04 36.3609C42.9744 36.3268 42.9168 36.2792 42.8711 36.221C42.8255 36.1629 42.7928 36.0956 42.7752 36.0238C42.7577 35.952 42.7557 35.8773 42.7695 35.8046C42.7832 35.732 42.8123 35.6631 42.8549 35.6027C42.8974 35.5422 42.9524 35.4916 43.0162 35.4541C43.0799 35.4167 43.1509 35.3933 43.2244 35.3855C43.298 35.3778 43.3723 35.3859 43.4424 35.4093C44.1104 35.5014 44.7482 35.7463 45.3063 36.1247C45.8644 36.503 46.3279 37.0049 46.6609 37.5912C46.6871 37.6556 46.7002 37.7246 46.6992 37.7941C46.6983 37.8636 46.6834 37.9321 46.6554 37.9958C46.6274 38.0594 46.5869 38.1167 46.5363 38.1644C46.4856 38.212 46.426 38.249 46.3608 38.2731L46.1699 38.3276Z" fill="#6A3400"/>
<path d="M43.6608 38.0003C43.5954 38.0039 43.53 37.9936 43.4689 37.9701C43.4078 37.9466 43.3524 37.9104 43.3062 37.864C43.2576 37.8158 43.219 37.7584 43.1926 37.6952C43.1663 37.632 43.1527 37.5642 43.1527 37.4957C43.1527 37.4273 43.1663 37.3595 43.1926 37.2963C43.219 37.2331 43.2576 37.1757 43.3062 37.1275C43.9024 36.4658 44.6515 35.9602 45.4881 35.6548C45.5525 35.6285 45.6215 35.6154 45.691 35.6164C45.7605 35.6173 45.829 35.6322 45.8927 35.6602C45.9563 35.6882 46.0137 35.7287 46.0613 35.7793C46.1089 35.8299 46.1459 35.8895 46.17 35.9547C46.2076 36.0887 46.1952 36.2318 46.135 36.3573C46.0747 36.4828 45.9708 36.5821 45.8427 36.6366C45.1648 36.8901 44.5571 37.3015 44.0699 37.8367C44.0169 37.8909 43.9531 37.9334 43.8826 37.9616C43.8122 37.9898 43.7366 38.003 43.6608 38.0003Z" fill="#6A3400"/>
<path d="M55.3887 30.1184L52.6612 29.9002C51.2899 29.791 49.9198 30.1241 48.7516 30.8505C47.5834 31.577 46.6786 32.6586 46.17 33.9368L45.1881 36.4188L47.9156 36.6369C49.2869 36.746 50.657 36.413 51.8252 35.6865C52.9934 34.9601 53.8982 33.8785 54.4068 32.6003L55.3887 30.1184Z" fill="#0ACB81"/>
<path d="M45.5975 35.6823L45.2975 36.4187H45.5975C47.6008 34.3966 50.0893 32.9222 52.8252 32.1367V31.8366L53.0161 32.0548V31.7548L52.7979 31.5366C50.0624 32.2306 47.5711 33.665 45.5975 35.6823Z" fill="#048970"/>
<path opacity="0.7" d="M33.3511 43.974C33.3596 41.1798 34.3006 38.4685 36.025 36.2699C37.7493 34.0713 40.1581 32.5111 42.8697 31.8369C42.4879 31.8369 42.106 31.8369 41.7242 31.8369C39.9244 31.8052 38.1387 32.1603 36.488 32.8782C34.8372 33.5961 33.3599 34.66 32.1558 35.9981C30.9517 37.3362 30.049 38.9173 29.5087 40.6344C28.9684 42.3514 28.8031 44.1645 29.024 45.951C29.2448 47.7374 29.8467 49.4557 30.7889 50.9895C31.731 52.5234 32.9916 53.8369 34.4853 54.8415C35.979 55.8462 37.6709 56.5183 39.4468 56.8126C41.2227 57.1069 43.0411 57.0164 44.779 56.5473C41.6443 56.2669 38.7294 54.8186 36.6126 52.4896C34.4958 50.1606 33.3317 47.1211 33.3511 43.974Z" fill="#FFC03A"/>
<defs>
<filter id="filter0_i_808_22892" x="8" y="8.16003" width="29" height="48.72" filterUnits="userSpaceOnUse" color-interpolation-filters="sRGB">
<feFlood flood-opacity="0" result="BackgroundImageFix"/>
<feBlend mode="normal" in="SourceGraphic" in2="BackgroundImageFix" result="shape"/>
<feColorMatrix in="SourceAlpha" type="matrix" values="0 0 0 0 0 0 0 0 0 0 0 0 0 0 0 0 0 0 127 0" result="hardAlpha"/>
<feOffset dx="1.5" dy="-1.5"/>
<feComposite in2="hardAlpha" operator="arithmetic" k2="-1" k3="1"/>
<feColorMatrix type="matrix" values="0 0 0 0 0.592157 0 0 0 0 0.72549 0 0 0 0 0.839216 0 0 0 0.2 0"/>
<feBlend mode="normal" in2="shape" result="effect1_innerShadow_808_22892"/>
</filter>
</defs>
</svg>
