<svg width="64" height="64" viewBox="0 0 64 64" fill="none" xmlns="http://www.w3.org/2000/svg">
<mask id="mask0_808_22891" style="mask-type:alpha" maskUnits="userSpaceOnUse" x="3" y="3" width="59" height="59">
<circle cx="32.25" cy="32.25" r="29.25" fill="#D9D9D9"/>
</mask>
<g mask="url(#mask0_808_22891)">
<circle cx="32.25" cy="32.25" r="29.25" fill="#7A1047" fill-opacity="0.1"/>
<path d="M17.1729 25.4858C16.6567 26.002 16.1405 26.5182 16.3126 27.2064C16.4846 27.5505 16.6567 27.8947 16.8287 28.0667C17.517 29.0991 17.517 30.3035 17.0008 31.3358C16.6567 31.852 16.1405 32.3682 15.6243 32.8844C15.1082 33.4005 14.764 33.9167 14.764 34.605C14.764 34.9491 14.764 35.4653 14.764 35.8094C14.592 36.4976 13.7317 36.8417 13.9037 37.53C13.9037 37.702 14.0758 37.8741 14.2479 38.0461C14.592 38.5623 14.592 39.2505 14.2479 39.7667C14.0758 40.1108 13.7317 40.455 14.0758 40.7991C14.2479 40.9711 14.2479 40.9711 14.4199 41.1432C15.1081 41.4873 15.7964 42.0035 16.1405 42.6917C16.3126 43.0358 16.6567 43.38 16.8287 43.7241C17.1729 44.0682 17.8611 43.8961 18.2052 44.0682C18.5493 44.2403 19.0655 44.9285 19.5817 45.2726C19.9258 45.4447 20.0979 45.2726 20.442 45.4447C20.7861 45.6167 20.9581 45.7888 21.1302 45.9608C21.8184 46.305 22.6787 45.4447 23.367 45.7888C23.539 45.7888 23.539 45.9608 23.7111 45.9608C23.8831 46.1329 24.2273 46.1329 24.3993 45.9608C24.9155 45.6167 25.2596 45.1005 25.4317 44.4123C25.4317 44.2402 25.4317 44.0682 25.4317 43.8961C25.4317 43.7241 25.6037 43.552 25.7758 43.38C25.9479 43.0358 26.1199 42.6917 26.1199 42.1755C26.1199 42.0035 26.1199 41.6594 26.1199 41.4873C26.1199 41.1432 26.1199 40.7991 26.1199 40.455C26.1199 40.2829 26.464 40.1108 26.464 39.7667C26.6361 39.2505 26.6361 38.7344 26.6361 38.3902C26.6361 37.3579 26.1199 36.3255 25.4317 35.6373C25.2596 35.4653 25.0876 35.1211 24.9155 34.9491C24.7435 34.605 24.7434 34.2608 24.7434 33.9167C24.7434 33.5726 24.5714 33.5726 24.5714 33.2285C24.5714 32.8844 24.7434 32.1961 25.0876 31.852C25.7758 30.9917 25.9479 29.7873 25.7758 28.755C25.6037 28.2388 25.4317 27.7226 25.2596 27.2064C24.7434 25.83 24.7434 24.2814 25.0876 22.7329C25.2596 22.3888 25.2596 22.0447 25.0876 21.8726C24.9155 21.3564 24.2273 21.3564 23.8831 20.8403C23.539 20.3241 23.7111 19.8079 23.367 19.4638C23.0229 18.9476 22.6787 18.6035 22.1626 18.4314C21.3023 18.0873 20.442 18.4314 20.0979 19.2917C19.5817 20.3241 19.2376 21.5285 18.8935 22.5608C18.5493 23.7653 17.8611 24.7976 17.1729 25.4858Z" fill="#432513"/>
<path d="M39.369 18.7756C39.5411 19.4638 39.369 20.3241 39.7131 21.0123C40.0572 21.7006 40.5734 21.8726 40.9175 22.3888C41.6058 23.5932 40.9175 25.1417 41.2617 26.3461C41.6058 27.5506 42.8102 28.0667 43.3264 29.0991C43.6705 30.1314 43.6705 31.3358 43.3264 32.3682C43.1543 33.0564 42.8102 33.9167 42.8102 34.605C42.8102 35.2932 42.4661 35.9814 42.8102 36.4976C43.1543 37.0138 43.4984 37.53 43.8425 38.0461C44.1867 38.2182 44.3587 38.5623 44.5308 38.9064C44.7028 39.2506 44.7028 39.4226 44.7028 39.7667C44.7028 40.627 45.0469 42.1756 43.8425 42.1756C43.3264 42.1756 42.6381 42.1756 42.1219 42.1756C41.7778 42.1756 41.0896 42.1756 40.9175 42.6917C40.7455 42.8638 40.7455 43.0358 40.5734 43.2079C40.2293 43.552 39.7131 43.8961 39.1969 43.8961C38.5087 44.0682 37.6484 43.8961 37.1322 43.38C36.0999 42.6917 34.8955 43.0358 33.8631 43.0358C33.6911 43.0358 33.519 43.0358 33.3469 42.8638C33.1749 42.6917 33.0028 42.5197 33.0028 42.1756C32.4866 40.455 32.3146 38.7344 32.4866 37.0138C32.6587 35.9814 32.8308 35.1211 33.1749 34.0888C34.2072 30.4756 34.8955 26.6903 34.8955 22.905C34.8955 22.3888 34.8955 21.8726 34.7234 21.3564C34.5514 20.8403 34.3793 20.4961 34.3793 19.98C34.2072 19.1197 34.7234 18.0873 35.4116 17.5711C35.9278 17.055 37.3043 16.3667 38.1646 16.5388C38.6808 17.3991 39.1969 17.9153 39.369 18.7756Z" fill="#432513"/>
<path d="M25.604 43.7241C25.9481 43.0359 26.1202 42.1756 25.9481 41.4873C25.9481 40.627 25.9481 39.9388 25.9481 39.2506C25.9481 38.9064 25.9481 38.7344 26.1202 38.3903C25.9481 38.2182 25.604 37.8741 25.432 37.53C24.0555 35.6373 23.0231 33.5726 22.507 31.3359C22.1629 30.1314 21.8187 28.755 21.8187 27.5506C21.8187 26.1741 21.9908 24.9697 22.507 23.7653C23.0231 22.905 23.7114 22.0447 24.5717 21.3565C24.3996 21.3565 24.2276 21.1844 24.2276 21.0123C24.2276 20.8403 24.0555 20.8403 24.0555 20.6682L23.3673 21.3565C22.3349 22.0447 21.6467 23.077 20.9584 24.1094C20.2702 25.3138 20.0981 26.5182 20.2702 27.8947C20.4423 29.2712 20.6143 30.4756 20.9584 31.68C21.4746 33.9167 22.507 35.9814 23.8834 37.8741L24.5717 38.7344C24.3996 38.9064 24.3996 39.2506 24.3996 39.5947C24.3996 40.455 24.3996 41.1432 24.3996 41.8314C24.3996 42.6917 24.3996 43.38 24.0555 44.0682C23.5393 44.5844 25.0878 44.2403 25.604 43.7241Z" fill="#391B0D"/>
<path d="M39.7127 34.4329C40.4009 34.4329 41.2612 34.6049 41.9494 34.777C42.6377 35.1211 43.1538 35.4652 43.67 35.8093C44.8744 36.6696 54.1656 44.7564 54.8538 44.4123C55.5421 44.0682 55.5421 43.7241 55.7141 43.2079C56.4024 42.0035 57.7788 41.3152 58.6391 40.1108C59.1553 39.4226 60.8759 38.9064 60.1877 38.3902C59.3274 37.874 58.295 37.5299 57.4347 37.1858L53.8215 35.6373L47.1112 32.8843C46.0788 32.5402 45.2185 32.0241 44.3582 31.3358C43.8421 30.8196 43.498 30.3035 43.1538 29.7873C42.2935 28.5829 41.2612 27.5505 40.0568 26.6902C39.5406 26.3461 38.8524 26.3461 38.1641 26.5182C37.9921 26.5182 37.9921 26.5182 37.9921 26.6902C37.9921 26.8623 37.9921 27.2064 37.9921 27.3785C37.9921 27.7226 37.9921 27.8946 37.82 28.2388C37.82 28.7549 37.6479 29.4432 37.4759 29.9593C37.4759 30.1314 37.4759 30.3035 37.3038 30.4755C37.3038 30.6476 37.1318 30.8196 37.1318 30.9917C37.1318 31.1638 36.9597 31.5079 36.7877 31.6799C36.7877 32.0241 36.6156 32.1961 36.4435 32.5402C36.4435 32.7123 36.2715 32.8843 36.2715 32.8843L36.0994 33.0564V33.2285H36.2715H36.6156H36.9597L37.4759 33.4005C38.1641 34.4329 38.8524 34.4329 39.7127 34.4329Z" fill="#BB724A"/>
<path d="M55.7142 43.3799C55.026 43.724 45.7348 35.6373 44.5304 34.777C44.0142 34.2608 43.4981 33.9167 42.8098 33.7446C42.1216 33.5726 41.2613 33.4005 40.5731 33.4005L39.0245 33.2285C39.0245 33.0564 39.1966 32.8843 39.1966 32.7123C39.1966 32.5402 39.3687 32.1961 39.5407 32.024C39.7128 31.852 39.7128 31.6799 39.7128 31.5079L39.8848 30.9917C40.0569 30.4755 40.229 29.9593 40.229 29.2711C40.229 28.927 40.229 28.7549 40.401 28.4108C40.401 28.2388 40.401 27.8946 40.401 27.7226L40.5731 27.5505L40.229 27.3785C39.7128 27.0343 39.0245 27.0343 38.5084 27.2064C38.3363 27.2064 38.3363 27.2064 38.3363 27.3785C38.3363 27.5505 38.3363 27.8946 38.3363 28.0667C38.3363 28.4108 38.3363 28.5829 38.1643 28.927C38.1643 29.4432 37.9922 29.9593 37.8201 30.6476C37.8201 30.8196 37.6481 30.9917 37.6481 31.1638C37.6481 31.3358 37.476 31.5079 37.476 31.6799C37.304 31.852 37.304 32.1961 37.1319 32.3682L36.7878 32.8843L36.6157 33.2285C36.6157 33.2285 36.6157 33.4005 36.4437 33.4005L36.2716 33.5726V33.7446H36.4437H36.7878L37.1319 33.9167L37.6481 34.0888C37.9922 34.0888 38.1642 34.2608 38.5084 34.2608L39.7128 34.4329C40.401 34.4329 41.2613 34.6049 41.9495 34.777C42.6378 35.1211 43.154 35.4652 43.6701 35.8093C44.8745 36.6696 54.1657 44.7564 54.854 44.4123C55.5422 44.0682 55.5422 43.724 55.7142 43.3799L55.8863 43.0358C55.7143 43.2079 55.7142 43.3799 55.7142 43.3799Z" fill="#8F4C30"/>
<path d="M73.2649 47.8536C72.4046 46.6491 71.3722 45.4447 70.3399 44.4124C69.6516 43.7241 68.2751 42.6918 68.1031 41.6594C68.1031 41.3153 68.1031 40.9712 67.931 40.7991C67.931 40.6271 67.931 40.6271 67.931 40.455C67.931 40.1109 67.4149 39.7668 67.2428 39.5947L65.5222 37.7021C65.3502 37.53 65.1781 37.358 65.006 37.358C64.6619 37.358 64.3178 37.1859 63.9737 37.358C63.6296 37.358 63.2854 37.0139 62.9413 37.0139C61.909 36.8418 61.3928 37.358 60.5325 37.8741C59.6722 38.3903 58.984 38.7344 58.2957 39.0786C57.7796 39.4227 57.2634 39.7668 56.9193 40.283C56.5751 40.7991 56.4031 41.4874 55.8869 42.1756C55.3707 42.8639 54.8546 43.208 54.5104 43.7241C54.1663 44.2403 53.8222 44.9286 53.6501 45.6168C53.134 45.2727 52.6178 45.1006 52.1016 45.2727L43.8428 45.4447C42.1222 45.6168 40.5737 45.4447 39.0251 44.9286C38.1649 44.5844 37.4766 44.0683 36.6163 43.7241C35.4119 43.208 34.0354 42.8639 32.659 42.8639C29.906 42.6918 27.1531 42.6918 24.2281 42.8639C23.7119 42.8639 23.0237 43.0359 22.5075 43.208C21.8193 43.7242 21.3031 44.2403 20.7869 44.9286C18.8943 47.3374 15.6251 47.8536 12.5281 48.7139C11.1516 49.058 9.9472 49.7462 9.08691 50.7786C8.74279 51.2947 8.39867 51.983 8.39867 52.6712C8.05455 54.7359 7.53839 56.8006 6.85015 58.8653C5.8178 60.93 4.78545 62.8227 3.40897 64.5433C2.8928 65.4036 2.37662 66.4359 2.0325 67.2962C1.86044 67.9844 1.86044 68.5006 1.86044 69.1889C1.86044 69.8771 1.68839 70.7374 0.828092 70.0491C0.483974 69.705 0.139846 69.3609 -0.204272 69.0168C-0.0322132 68.5006 -0.0322027 67.9844 -0.0322027 67.4683C-0.0322027 66.9521 -0.0322132 66.4359 -0.204272 65.9197C-0.37633 65.4036 -1.40868 64.8874 -1.92486 64.5433C-2.6131 64.1991 -3.12927 64.0271 -3.8175 63.683H-3.98956C-3.98956 63.683 -4.16162 63.683 -4.16162 63.855C-4.84985 64.1992 -5.36603 64.7153 -5.88221 65.4036C-6.22632 66.0918 -6.7425 66.608 -6.91456 67.2962C-7.43073 68.6727 -8.11898 69.8771 -8.97927 71.0815C-9.49545 71.7697 -10.0116 72.458 -10.5278 73.3183C-10.8719 74.1786 -10.6999 75.2109 -10.0116 75.7271L-9.83956 75.8992C-9.66751 76.0712 -9.49544 76.0712 -9.49544 76.2433C-8.97926 76.7594 -8.80721 77.2756 -8.29103 77.7918C-7.77486 78.308 -7.08662 78.8241 -6.57044 78.308L-6.22633 78.1359C-6.05427 78.308 -5.5381 78.308 -5.36604 78.48C-4.6778 78.9962 -4.16162 79.5124 -3.8175 80.2006C-3.47339 80.8889 -2.95721 81.5771 -2.44103 82.2653C-1.92485 82.7815 -1.40868 83.1256 -0.720441 83.4697C-0.548382 83.6418 -0.548387 83.6418 -0.376328 83.6418C-0.204269 83.6418 -0.0322056 83.6418 0.139853 83.6418L2.0325 83.2977C2.20456 83.2977 2.37662 83.1256 2.54868 83.1256C2.72074 82.9536 2.89279 82.7815 3.06485 82.6094C3.92514 81.405 5.12956 80.3727 5.98986 79.1683C8.91486 75.8991 11.3237 71.9418 12.7001 67.8124C13.0443 67.1241 13.2163 66.4359 13.3884 65.5756C13.3884 65.2315 13.5604 64.8874 13.9046 64.7153C14.5928 64.3712 15.281 65.4036 15.281 66.2639C15.6251 67.9844 15.6251 69.8771 15.281 71.5977L13.7325 77.1036C13.7325 77.1036 13.7325 77.2756 13.7325 77.4477C13.7325 77.6197 13.7325 77.6197 13.9046 77.7918C14.0766 78.1359 14.4207 78.48 14.5928 78.8241C15.281 79.3403 15.7972 79.8565 16.3134 80.3727C16.6575 80.8889 16.8296 81.5771 17.3457 81.5771C17.5178 81.5771 17.5178 81.5771 17.6898 81.5771C17.8619 81.7491 17.8619 81.9212 18.034 82.0933C18.206 82.4374 18.7222 81.9212 19.0663 81.9212C19.2384 81.7491 19.5825 81.7491 19.7546 81.5771C20.0987 81.5771 20.2707 81.7491 20.6149 81.7491C21.6472 82.0933 22.8516 82.2653 24.056 82.0933C24.5722 82.0933 25.0884 82.0933 25.6046 82.2653C26.1207 82.4374 26.6369 82.4374 27.1531 82.6094C28.1854 82.7815 29.2178 82.6094 30.0781 82.0933C30.4222 82.9536 31.6266 82.7815 32.4869 82.6094L38.681 81.233C39.0252 81.233 39.5413 80.8889 39.8854 80.8889L41.2619 80.7168H41.434L41.606 80.5447C42.1222 79.6844 42.9825 79.1683 43.4987 78.308C44.1869 77.6197 44.359 76.5874 44.1869 75.555C44.0149 74.6947 43.4987 71.4256 43.3266 70.3933C43.1546 69.3609 42.9825 68.8447 42.9825 68.1565C42.9825 67.6403 42.9825 66.9521 42.9825 66.4359C42.9825 65.4036 43.1546 64.3712 43.4987 63.3389C44.0149 62.4786 44.531 61.7903 45.2193 61.1021C46.0796 60.0697 47.284 59.2094 48.3163 58.5212C50.7251 57.3168 53.6501 57.833 56.4031 57.6609C56.9193 57.6609 57.2634 57.6609 57.7796 57.6609C60.8766 57.4889 63.9737 56.4565 66.5546 54.908C69.1354 53.7036 71.3722 51.983 72.9207 49.5741C73.0928 49.23 73.2649 48.8859 73.2649 48.5418C73.609 48.5418 73.4369 48.0256 73.2649 47.8536Z" fill="#97B9D6"/>
<path opacity="0.7" d="M67.2426 53.3594C64.4897 54.9079 61.5647 55.7682 58.4676 56.1123C58.1235 56.1123 57.6073 56.1123 57.0912 56.1123C54.3382 56.1123 51.4132 55.5962 49.0044 56.9726C47.8 57.6609 46.5956 58.5212 45.7353 59.7256C45.0471 60.4138 44.5309 61.2741 44.0147 61.9623C43.6706 62.9947 43.4985 64.027 43.4985 65.0594C43.4985 65.5756 43.4985 66.2638 43.4985 66.78C43.4985 65.7476 43.6706 64.7153 44.0147 63.855C44.5309 62.9947 45.0471 62.3064 45.7353 61.6182C46.5956 60.5859 47.8 59.7256 49.0044 59.0373C51.4132 57.8329 54.3382 58.3491 57.0912 58.177H58.4676C61.5647 58.005 64.6618 56.9726 67.2426 55.5962C69.8235 54.3917 72.0603 52.4991 73.6088 50.2623C73.7809 49.9182 73.9529 49.5741 73.9529 49.402C73.9529 49.0579 73.7809 48.8859 73.6088 48.5417C71.8882 50.4344 69.8235 52.155 67.2426 53.3594Z" fill="#6E8DAD"/>
<path opacity="0.7" d="M34.207 57.1447C34.3791 55.7683 34.3791 54.5638 34.3791 53.1874C34.3791 52.4991 34.207 51.8109 34.207 51.1227C34.207 50.4344 34.7232 49.9183 34.207 50.6065C33.8629 50.9506 33.5188 51.4668 33.5188 51.983C33.5188 52.6712 33.6909 53.3594 33.6909 54.0477C33.6909 55.4241 33.6909 56.6286 33.5188 58.005C33.8629 57.833 34.3791 57.4888 34.5512 57.1447C35.2394 56.2844 36.0997 55.4241 36.6159 54.3918C36.0997 55.08 35.5835 55.5962 35.0673 56.2844C34.8953 56.6286 34.5512 56.9727 34.207 57.1447Z" fill="#6E8DAD"/>
<path opacity="0.7" d="M27.8408 49.9182C27.4967 49.5741 27.1526 49.0579 26.8085 48.8859C27.3246 50.0903 27.3246 51.2947 26.9805 52.4991C26.8085 53.7035 26.6364 54.9079 26.6364 56.1124C26.2923 55.7682 25.9482 55.2521 25.6041 54.9079C25.0879 54.3918 24.5717 53.8756 24.0555 53.1874C23.7114 52.8432 19.9261 47.5094 19.582 46.9932C19.2379 46.4771 19.0658 46.305 19.2379 46.1329L18.7217 46.4771C18.3776 46.8212 18.7217 47.1653 19.0658 47.6815C19.4099 48.1976 22.1629 51.6388 22.6791 52.4991C23.0232 53.0153 23.1952 53.3594 23.5394 53.8756C24.0555 54.5638 24.3997 55.08 24.9158 55.5962C25.7761 56.4565 26.4644 57.3168 27.4967 58.1771C27.4967 57.8329 27.4967 57.6609 27.4967 57.4888C27.4967 57.4888 27.6688 54.9079 28.0129 53.5315C28.1849 52.3271 28.1849 51.1226 27.8408 49.9182Z" fill="#6E8DAD"/>
<path opacity="0.7" d="M67.7587 40.4551C67.7587 40.6271 67.7587 40.6271 67.7587 40.6271C67.0704 40.9713 66.3822 41.4874 65.694 42.0036C64.6616 42.5198 63.4572 42.8639 62.4249 43.208C60.3602 43.8963 58.4675 45.1007 57.091 46.8213C56.919 46.9933 57.4352 47.5095 57.4352 47.3374C58.8116 45.6168 60.7043 44.4124 62.769 43.8963C63.9734 43.5521 65.1778 43.208 66.2102 42.6918C66.8984 42.3477 67.4146 41.8315 68.1028 41.3154C67.9307 41.3154 68.2749 40.9713 67.7587 40.4551Z" fill="#6E8DAD"/>
<path d="M36.9601 43.8961C32.1425 41.8314 23.0234 43.2079 22.8513 43.2079V42.8638C23.1954 42.8638 32.3146 41.4873 37.1322 43.552L36.9601 43.8961Z" fill="#3D5777"/>
<path d="M34.0347 37.1859C34.5509 36.4977 35.2391 35.6374 35.5832 34.7771C36.4435 33.4006 37.1318 32.0241 37.6479 30.4756C37.9921 29.2712 37.9921 28.0668 37.82 26.8624C37.82 25.83 37.3038 24.9697 36.4435 24.4536C36.2715 24.4536 35.9274 24.2815 35.7553 24.1094C35.4112 23.7653 35.4112 23.4212 35.4112 23.0771C35.5832 22.733 35.5832 22.3889 35.7553 21.8727C35.5832 20.8403 35.0671 19.98 34.0347 19.6359C33.0024 18.9477 31.7979 18.7756 30.5935 18.9477C30.2494 19.1197 29.9053 19.2918 29.5612 19.2918C29.2171 19.2918 28.7009 19.2918 28.3568 19.1197C26.9803 19.1197 25.6038 19.808 24.7435 20.8403C23.7112 21.5286 23.023 22.5609 22.3347 23.5933C21.6465 24.7977 21.4744 26.0021 21.4744 27.3786C21.6465 28.755 21.8185 29.9594 22.1627 31.1639C22.6788 33.4006 23.7112 35.4653 25.0877 37.358C25.2597 37.7021 25.4318 37.8741 25.7759 38.2183C25.6038 38.5624 25.6038 38.7344 25.6038 39.0786C25.6038 39.7668 25.6038 40.6271 25.6038 41.3153C25.6038 42.1756 25.6038 42.8639 25.2597 43.5521C24.7435 44.0683 24.3994 44.5844 23.8832 45.1006V45.2727V45.4447L24.2274 46.133C24.3994 46.6491 24.7435 46.9933 25.2597 47.3374C25.6038 47.6815 26.8082 48.7139 27.1524 48.8859C27.4965 49.058 27.6685 49.4021 27.6685 49.7462C28.5288 54.7359 29.045 59.7256 29.3891 64.7153L30.4215 61.1021C30.5935 60.5859 30.7656 59.8977 30.9377 59.3815C31.1097 58.8653 31.4538 58.3492 31.798 57.833C32.1421 57.3168 32.3141 56.8006 32.4862 56.2844C32.6582 55.5962 32.8303 54.908 33.0024 54.3918C33.3465 53.7036 33.5185 53.0153 33.5185 52.3271C33.5185 51.983 33.5185 51.6389 33.6906 51.2947V51.1227L33.8627 50.9506C34.5509 50.0903 35.2391 49.23 35.7553 48.3697C36.2715 47.5094 37.3038 46.4771 36.6156 45.4447C36.2715 45.1006 36.0994 44.9286 35.7553 44.7565C35.2391 44.4124 34.7229 44.0683 34.2068 43.7242C33.8627 43.5521 33.6906 43.208 33.6906 42.6918C33.5185 41.1433 33.5185 39.4227 33.6906 37.8741L34.0347 37.1859Z" fill="#BB724A"/>
<path d="M32.3137 39.0786C31.9696 39.4228 31.4534 39.7669 30.9372 39.9389C30.5931 40.111 30.0769 40.283 29.5608 40.111C29.0446 39.9389 28.7005 39.5948 28.1843 39.4228C27.8402 39.0786 26.9799 37.7022 26.8078 37.5301C25.4314 35.6375 24.399 33.5728 23.8828 31.336C23.5387 30.1316 23.1946 28.7551 23.1946 27.5507C23.0225 26.1742 23.3666 24.9698 23.8828 23.7654C24.5711 22.733 25.4314 21.8728 26.2916 21.0125C26.9799 20.3242 27.8402 19.636 28.8725 19.2919H28.5284C27.1519 19.2919 25.7755 19.9801 24.9152 21.0125C23.8828 21.7007 23.1946 22.733 22.5064 23.7654C21.9902 24.9698 21.6461 26.1742 21.8181 27.5507C21.9902 28.9272 22.1622 30.1316 22.5064 31.336C23.0225 33.5728 24.0549 35.6375 25.4314 37.5301L26.1196 38.3904C26.1196 38.5625 26.1196 38.9066 26.1196 39.0786C26.1196 39.7669 26.1196 40.6272 26.1196 41.3154C26.1196 42.1757 26.1196 42.8639 25.7755 43.5522C25.2593 44.0683 24.9152 44.5845 24.399 45.1007C24.399 45.1007 24.399 45.1007 24.399 45.2727C24.399 45.4448 24.399 45.2728 24.399 45.4448C24.399 45.6169 24.5711 45.7889 24.5711 45.7889C24.5711 45.961 25.0872 46.6492 25.2593 46.6492C25.4314 46.6492 32.1416 43.208 33.8622 37.7022C33.174 38.2183 32.6578 38.7345 32.3137 39.0786Z" fill="#8F4C30"/>
<path d="M32.6576 50.0904V50.2624C32.6576 50.6065 32.4855 50.9506 32.4855 51.2948C32.1414 52.6712 31.7973 54.0477 31.4532 55.2521C31.2811 55.7683 30.937 56.2845 30.7649 56.8006C30.4208 57.3168 30.2488 57.833 29.9046 58.3492C29.5605 58.8654 29.5605 59.3815 29.3885 60.0698L29.0443 61.2742C29.0443 62.4786 29.2164 63.5109 29.3885 64.5433L30.4208 60.9301C30.5929 60.4139 30.7649 59.7256 30.937 59.2095C31.1091 58.6933 31.4532 58.1771 31.7973 57.6609C32.1414 57.1448 32.3135 56.6286 32.4855 56.1124C32.6576 55.4242 32.8296 54.7359 33.0017 54.2198C33.3458 53.5315 33.5179 52.8433 33.5179 52.1551C33.5179 51.8109 33.5179 51.4668 33.6899 51.1227V50.9507L33.862 50.7786C34.5502 49.9183 35.2385 49.058 35.7546 48.1977C36.2708 47.3374 37.3032 46.3051 36.6149 45.2727C36.4429 45.1006 36.0988 44.7565 35.7546 44.5845C35.9267 46.8212 32.8296 49.9183 32.6576 50.0904Z" fill="#8F4C30"/>
<path d="M31.7978 35.2933C31.7978 35.2933 31.7977 36.3257 29.9051 36.4977C29.9051 36.4977 28.3566 36.4977 28.0125 35.6375C29.3889 35.4654 30.5933 35.2933 31.7978 35.2933Z" fill="#3F1F0F"/>
<path d="M28.5289 32.3683C28.7009 32.5403 28.873 32.5403 28.873 32.5403H29.045C29.2171 32.5403 29.2171 32.7124 29.2171 32.7124H29.045H28.7009C28.7009 32.7124 28.5289 32.5403 28.5289 32.3683Z" fill="#6C3214"/>
<path d="M30.5938 33.0565C30.4218 32.8845 30.5938 32.8845 30.7659 32.7124L31.11 32.5403H31.4541C31.6262 32.5403 31.6262 32.5403 31.6262 32.3683C31.6262 32.3683 31.6262 32.5403 31.4541 32.7124L31.11 32.8845H30.7659C30.7659 33.0565 30.5938 33.0565 30.5938 33.0565Z" fill="#6C3214"/>
<path d="M29.9046 31.6801C29.7326 31.6801 29.3885 31.6801 29.2164 31.6801C29.2164 31.6801 29.0443 31.6801 29.0443 31.8521V32.0242C29.5605 32.0242 29.9046 32.1962 30.4208 32.1962C30.5929 32.1962 30.5929 32.1962 30.7649 32.0242C30.937 31.8521 30.5929 31.8521 30.5929 31.8521C30.2488 31.6801 29.9046 31.6801 29.3885 31.6801" fill="#AB6748"/>
<path d="M33.8626 26.8624C34.2067 26.8624 34.3788 27.0345 34.7229 27.0345C35.067 27.2065 35.2391 27.3786 35.4111 27.7227C35.5832 28.0668 35.5832 28.411 35.4111 28.7551C35.2391 29.0992 34.8949 29.2713 34.5508 29.4433C33.8626 29.9595 33.0023 29.7874 32.4861 29.0992C31.9699 28.411 32.142 27.5507 32.8302 27.0345C33.0023 27.0345 33.3464 26.8624 33.8626 26.8624Z" fill="#F0E7E5"/>
<path d="M32.8303 28.9271C32.8303 29.0991 33.0024 29.0991 33.1744 29.2712C33.3465 29.2712 33.5186 29.2712 33.6906 29.2712C33.8627 29.2712 34.0347 29.2712 34.2068 29.0991C34.5509 28.9271 34.723 28.755 34.723 28.4109C34.723 28.0668 34.5509 27.8947 34.3789 27.7227C34.0347 27.5506 33.5186 27.5506 33.0024 27.7227C32.8303 28.0668 32.6583 28.583 32.8303 28.9271Z" fill="#010101"/>
<path d="M32.6584 27.0344C32.8305 26.8624 33.1746 26.6903 33.5187 26.6903C33.8629 26.6903 34.207 26.6903 34.5511 26.6903C34.8952 26.6903 35.0673 27.0344 35.2393 27.2065L35.4114 27.3785C35.5834 27.5506 35.7555 27.5506 35.9275 27.3785C35.9275 27.5506 35.9275 27.7227 35.7555 27.8947C35.5834 28.0668 35.4114 28.0668 35.2393 28.0668V27.8947C35.0673 27.2065 34.379 26.8624 33.6908 26.8624C33.3467 26.8624 33.0026 27.0344 32.6584 27.0344C32.6584 27.3785 32.4864 27.5506 32.4864 27.7227C32.4864 27.7227 32.3143 27.8947 32.3143 28.0668C32.3143 28.2388 32.1423 28.2388 32.1423 28.4109C32.1423 28.4109 32.1423 28.4109 32.1423 28.2388C32.3143 27.8947 32.3143 27.3785 32.6584 27.0344Z" fill="#020001"/>
<path d="M34.2072 28.0668C34.3792 28.0668 34.3792 28.0668 34.5513 28.0668C34.7234 28.0668 34.7234 27.8948 34.7234 27.7227V27.5506C34.3792 27.3786 34.0351 27.7227 34.2072 28.0668Z" fill="#F0E7E5"/>
<path d="M24.3993 29.7874C24.7435 29.9595 24.9155 30.1315 25.4317 30.1315C25.9479 30.1315 26.6361 29.9595 26.8082 29.4433C26.9802 29.2712 26.9802 29.0992 26.9802 28.9271C26.9802 28.583 26.8082 28.411 26.6361 28.0668C26.464 27.8948 26.292 27.7227 26.292 27.7227C26.1199 27.5507 26.1199 27.5507 25.9479 27.3786L25.7758 27.2065H25.4317C25.2596 27.2065 24.9155 27.2065 24.7434 27.2065C24.3993 27.3786 24.2273 27.5507 24.2273 27.7227C24.0552 28.0668 24.0552 28.411 24.2273 28.583C24.0552 29.0992 24.2273 29.4433 24.3993 29.7874Z" fill="#F0E7E5"/>
<path d="M24.5713 28.7551C24.7434 29.0992 24.9155 29.4433 25.2596 29.6154C25.4316 29.7874 25.7758 29.7874 25.9478 29.6154L26.1199 29.4433C26.2919 29.2712 26.464 28.9271 26.464 28.7551C26.464 28.411 26.2919 28.0668 26.1199 28.0668C25.9478 27.8948 25.6037 27.8948 25.2596 27.8948C25.0875 27.8948 24.9154 28.0668 24.7434 28.2389C24.5713 28.411 24.5713 28.583 24.5713 28.7551Z" fill="#010101"/>
<path d="M23.5392 28.2389C23.5392 28.2389 23.3672 28.0668 23.3672 27.8948C23.3672 27.7227 23.5392 27.8948 23.7113 27.7227C23.7113 27.7227 23.7113 27.7227 23.7113 27.5507C23.8833 27.2065 24.2274 26.8624 24.5716 26.8624C25.0877 26.8624 25.4319 26.8624 25.776 27.2065C26.1201 27.3786 26.4642 27.7227 26.6363 28.0668C26.6363 28.2389 26.6363 28.2389 26.6363 28.411C26.4642 28.2389 26.4642 28.0668 26.2922 27.8948C26.1201 27.5507 25.776 27.3786 25.4319 27.2065C25.2598 27.2065 25.0877 27.2065 24.9157 27.2065C24.7436 27.2065 24.5716 27.2065 24.3995 27.2065C24.2274 27.2065 24.0554 27.3786 24.0554 27.5507C23.8833 27.7227 23.8833 27.8948 23.8833 28.0668V28.2389V28.411C23.8833 28.411 23.8833 28.411 23.8833 28.583C23.8833 28.583 23.8833 28.583 23.8833 28.7551C23.8833 28.9271 23.7113 28.7551 23.7113 28.7551C23.7113 28.7551 23.7113 28.2389 23.5392 28.2389Z" fill="#020001"/>
<path d="M26.4638 28.411C26.8079 28.0669 26.2917 27.8948 26.1197 28.0669C25.9476 28.0669 25.9476 28.2389 26.1197 28.411C26.1197 28.411 26.2917 28.411 26.4638 28.411Z" fill="#F0E7E5"/>
<path d="M25.776 26.5183C25.948 26.5183 26.2921 26.6904 26.4642 26.8624C26.6362 27.0345 26.8083 27.2065 26.8083 27.5507L26.2921 27.0345C25.948 26.8624 25.776 26.6904 25.776 26.5183Z" fill="#8F4C30"/>
<path opacity="0.4" d="M27.1524 26.8624C27.4965 27.0345 27.8406 27.2065 28.0127 27.5507C28.1848 27.8948 28.3568 28.2389 28.3568 28.583C28.3568 29.2713 28.3568 29.7874 28.1848 30.4757C28.0127 30.1315 27.8406 29.9595 27.6686 29.6154C27.6686 29.2713 27.4965 28.9271 27.4965 28.7551L27.3245 27.8948C27.3245 27.3786 27.3245 27.2065 27.1524 26.8624Z" fill="#A76643"/>
<path opacity="0.8" d="M27.4961 35.8095C27.4961 35.8095 30.5931 32.7125 32.6578 35.2934C30.9372 35.4654 29.2167 35.6375 27.4961 35.8095Z" fill="#3F1F0F"/>
<path d="M28.1843 35.6374C28.5284 35.6374 28.8725 35.4653 29.0446 35.4653C29.3887 35.2933 29.7328 35.2933 30.077 35.2933C30.4211 35.2933 30.7652 35.2933 31.1093 35.2933C31.4534 35.2933 31.7975 35.2933 31.9696 35.1212C31.7975 35.2933 31.4534 35.4653 31.1093 35.4653H30.077C29.7328 35.4653 29.3887 35.4653 29.2167 35.6374C28.8725 35.6374 28.5284 35.6374 28.1843 35.6374Z" fill="#010101"/>
<path d="M40.2283 31.1639C40.0563 30.8198 40.2283 30.4757 39.8842 30.1316C39.5401 29.7875 39.368 29.9595 39.368 29.7875C39.368 29.6154 39.5401 28.9272 39.368 28.583C39.196 28.2389 39.0239 28.0669 38.5077 27.8948C37.9916 27.7228 38.1636 27.0345 37.8195 27.0345C37.6475 27.0345 37.6474 27.0345 37.4754 27.0345C37.3033 27.0345 37.4754 26.3463 37.3033 26.1742C37.1313 26.0022 36.7872 26.0022 36.6151 25.658C36.443 25.3139 36.7872 24.7977 36.6151 24.2816C36.443 23.7654 35.7548 23.9375 35.5827 23.4213C35.5827 23.2492 35.5827 23.0772 35.5827 22.9051C35.7548 22.3889 35.7548 21.8728 35.5827 21.3566C35.5827 21.1845 35.4107 21.0125 35.2386 20.8404L35.0666 20.6683C35.0666 20.4963 35.0666 20.3242 35.0666 20.1522L34.8945 19.9801C34.3783 19.9801 34.0342 20.3242 34.0342 20.8404C34.0342 21.0125 34.0342 21.0125 34.0342 21.1845C34.0342 21.3566 34.0342 21.3566 34.2063 21.3566C34.3783 21.5286 34.5504 21.7007 34.5504 21.8728C34.7225 22.3889 34.7225 22.9051 34.5504 23.4213C34.5504 23.5933 34.5504 23.7654 34.5504 23.9375C34.7225 24.2816 35.4107 24.2816 35.5827 24.6257C35.7548 24.9698 35.2386 25.658 35.5827 26.0022C35.9269 26.3463 36.0989 26.1742 36.271 26.3463C36.443 26.5183 36.0989 27.2066 36.271 27.2066C36.443 27.2066 36.443 27.2066 36.6151 27.2066C36.9592 27.3786 36.9592 28.0669 37.3033 28.0669C37.6474 28.0669 37.9916 28.0669 37.9916 28.7551C37.9916 29.4433 37.8195 29.6154 37.9916 29.9595C38.1636 30.3036 38.3357 30.1316 38.5077 30.3036C38.6798 30.4757 38.8519 30.9919 38.8519 31.336C39.196 31.6801 39.5401 32.0242 39.8842 32.1963C40.4004 32.3683 40.7445 32.5404 41.2607 32.5404C41.6048 32.3683 41.4327 32.0242 41.2607 31.6801L40.9166 31.508C40.9166 31.8522 40.4004 31.508 40.2283 31.1639Z" fill="#8F4C30"/>
<path d="M32.1423 26.5183C32.3143 26.5183 32.4864 26.3462 32.6585 26.1742C33.0026 25.83 33.1746 25.658 33.6908 25.4859C34.5511 25.3139 35.4114 25.83 36.2717 26.0021H36.4438V25.83C35.5835 25.4859 34.7232 25.1418 33.6908 24.9697C33.3467 24.7977 33.0026 24.7977 32.6585 24.9697C32.4864 25.1418 32.1423 25.1418 31.9702 25.3139C31.7982 25.4859 31.7982 25.4859 31.6261 25.658C31.454 26.0021 31.7982 26.6903 32.1423 26.5183Z" fill="#391F10"/>
<path d="M24.3995 21.3565C24.3995 21.8727 23.3672 22.905 23.0231 23.2492C22.851 23.4212 22.679 23.5933 22.5069 23.7653C22.3348 24.1095 22.679 24.6256 22.679 25.1418C22.679 26.1742 21.6466 25.658 21.6466 26.6903C21.6466 27.0345 21.6466 27.3786 21.8187 27.7227V27.8947C21.9907 26.8624 23.5393 26.6903 23.5393 25.658C23.5393 25.1418 23.1951 24.7977 23.3672 24.2815C23.5393 24.1095 23.7113 23.9374 23.8834 23.7653C24.2275 23.4212 25.4319 22.3889 25.4319 21.8727C25.4319 21.3565 24.7437 21.1845 24.3995 21.3565Z" fill="#8F4C30"/>
<path d="M27.6684 27.0345C27.8404 27.2066 28.0125 27.3787 28.1845 27.7228C28.3566 27.8948 28.3566 28.239 28.3566 28.411C28.3566 28.9272 28.3566 29.4434 28.3566 29.9595C28.1845 29.4434 28.1845 28.9272 28.0125 28.411C28.0125 27.8948 27.8404 27.3787 27.6684 27.0345Z" fill="#6C3214"/>
<path d="M24.9153 26.3463C24.227 26.1743 23.5388 26.3463 23.0226 26.8625C23.0226 26.5184 23.1947 26.1743 23.5388 26.0022C24.055 25.6581 24.7432 25.486 25.2594 25.6581C25.9476 25.8301 26.8079 26.3463 27.4962 26.0022C27.8403 25.8301 28.0123 25.8301 28.3564 25.8301C28.3564 26.1742 28.3564 26.3463 28.1844 26.5184C27.6682 26.8625 26.8079 26.8625 26.2917 26.5184C25.7756 26.5184 25.4314 26.3463 24.9153 26.3463Z" fill="#391F10"/>
<path d="M32.6582 26.6903C33.0023 26.3462 33.5185 26.1741 34.0347 26.0021C34.2067 26.0021 34.5508 26.0021 34.7229 26.0021C34.895 26.0021 34.895 26.1741 35.067 26.1741L35.2391 26.3462L35.067 26.1741C34.895 26.1741 34.895 26.0021 34.7229 26.0021C34.5508 26.0021 34.2067 26.0021 34.0347 26.0021C33.5185 26.3462 33.1744 26.5183 32.6582 26.6903Z" fill="#8F4C30"/>
<path d="M34.8947 29.7874C35.0668 29.7874 35.0668 29.6153 35.0668 29.6153L35.2388 29.4432C35.4109 29.2712 35.5829 29.0991 35.755 29.0991C35.755 29.2712 35.583 29.6153 35.4109 29.6153C35.4109 29.6153 35.2388 29.7874 35.0668 29.7874C35.0668 29.7874 35.0668 29.7874 34.8947 29.7874Z" fill="#6C3214"/>
<path d="M23.7115 29.0991C23.8836 29.2712 23.8836 29.2712 23.8836 29.4432C23.8836 29.6153 23.8836 29.7874 23.8836 29.7874C23.7115 29.7874 23.7115 29.6153 23.5394 29.4432C23.7115 29.2712 23.7115 29.2712 23.7115 29.0991Z" fill="#A76643"/>
<path d="M25.6037 38.0463C25.7757 38.2183 26.1198 38.5624 26.464 38.5624L27.3243 39.0786C27.8404 39.4227 28.5287 39.5948 29.2169 39.9389C28.8728 39.9389 28.5287 39.7669 28.1846 39.5948C27.8404 39.4227 27.4963 39.2507 27.1522 39.2507C26.8081 39.0786 26.464 38.9066 26.2919 38.7345C25.9478 38.7345 25.7757 38.3904 25.6037 38.0463Z" fill="#3F1F0F"/>
<path d="M29.0443 37.0139H29.9046C30.0767 37.0139 30.2488 37.0139 30.4208 37.0139C30.5929 37.0139 30.7649 36.8419 30.7649 36.6698C30.7649 36.8419 30.5929 37.0139 30.4208 37.0139C30.2488 37.0139 30.0767 37.186 29.9046 37.0139C29.5605 37.186 29.2164 37.186 29.0443 37.0139Z" fill="#8F4C30"/>
<path d="M23.1947 23.4213C23.0226 23.5933 22.8506 23.7654 22.6785 23.9375C22.5065 24.2816 22.8506 24.7978 22.8506 25.3139C22.8506 26.3463 21.3021 26.6904 21.13 27.7228C21.13 27.8948 21.13 28.2389 21.13 28.411C20.9579 28.7551 20.6138 29.0992 20.7859 29.4433C20.9579 29.7875 20.9579 29.6154 21.13 29.7875C21.6462 30.3036 21.8182 31.1639 21.302 31.6801C21.13 31.8522 21.13 31.8522 20.9579 32.0242C20.7859 32.1963 20.4418 32.1963 20.2697 32.3683C20.2697 32.5404 20.2697 32.5404 20.2697 32.7125C20.0976 33.4007 19.2373 33.4007 19.0653 34.0889C18.8932 34.6051 19.2373 35.1213 19.0653 35.4654C18.8932 35.8095 18.205 35.8095 17.8609 36.1536C17.3447 36.4978 17.1726 37.186 17.5168 37.5301C17.1726 37.7022 16.8285 37.7022 16.6565 37.5301C16.4844 37.3581 16.4844 37.0139 16.6565 36.8419C16.8285 36.6698 17.1726 36.4978 17.3447 36.3257C17.6888 35.9816 17.8609 35.4654 17.6888 35.1213C17.5168 34.9492 17.5168 34.7772 17.3447 34.4331C17.3447 34.0889 17.6888 33.7448 18.0329 33.5728C18.7212 33.0566 19.0653 32.0242 18.8932 31.1639C18.8932 30.9919 18.8932 30.6478 18.8932 30.4757C19.0653 29.9595 19.9256 29.9595 20.0976 29.4433C20.2697 28.9272 19.9256 28.411 19.7535 28.0669C19.4094 27.3786 19.5815 26.6904 20.0976 26.0022C20.2697 25.8301 20.6138 25.486 20.6138 25.1419C20.6138 24.7978 20.0976 24.7978 20.0976 24.6257C20.0976 24.2816 20.2697 23.9375 20.6138 23.7654L23.0226 21.5286C23.3668 21.1845 24.7432 20.4963 24.7432 21.5286C24.7432 22.0448 23.5388 23.0772 23.1947 23.4213Z" fill="#5B3925"/>
<path d="M35.0667 21.1844C35.2388 21.3565 35.4108 21.5285 35.4108 21.7006C35.5829 22.2168 35.5829 22.733 35.4108 23.2491C35.4108 23.4212 35.4108 23.5933 35.4108 23.7653C35.5829 24.1094 36.2711 24.1094 36.4432 24.4535C36.6152 24.7977 36.0991 25.4859 36.4432 25.83C36.7873 26.1741 36.9594 26.0021 37.1314 26.1741C37.3035 26.3462 36.9594 27.0344 37.1314 27.0344C37.3035 27.0344 37.3035 27.0344 37.4755 27.0344C37.8197 27.2065 37.8197 27.8947 38.1638 27.8947C38.5079 27.8947 38.852 27.8947 38.852 28.583C38.852 29.2712 38.68 29.4433 38.852 29.7874C39.0241 30.1315 39.1961 29.9594 39.3682 30.1315C39.5402 30.3035 39.7123 30.8197 39.7123 31.1638C40.0564 31.508 40.4005 31.8521 40.7447 32.0241C41.2608 32.1962 41.605 32.3683 42.1211 32.3683C42.4652 32.1962 42.2932 31.8521 41.9491 31.508C41.6049 31.1638 41.4329 30.9918 41.0888 30.6477C40.7446 29.9594 40.5726 28.9271 40.7447 28.2388C40.7447 27.8947 40.7447 27.7227 40.5726 27.3786C40.4005 27.2065 40.2285 27.2065 40.0564 27.0344C39.5402 26.6903 39.3682 26.1741 39.3682 25.658C39.3682 25.4859 39.3682 25.3138 39.3682 25.1418C39.1961 24.2815 37.8196 23.9374 37.6476 23.0771C37.6476 22.733 37.6476 22.5609 37.6476 22.2168C37.4755 21.7006 36.9594 21.5285 36.6152 21.1844C36.4432 20.8403 36.2711 20.6683 36.0991 20.3241C35.927 19.98 35.5829 19.808 35.2388 19.6359C34.7226 19.4638 34.2064 20.3241 34.5505 20.6683C34.8947 21.0124 34.8946 21.0124 35.0667 21.1844Z" fill="#5B3925"/>
<path d="M39.541 34.9491C39.541 35.4653 39.541 36.1535 39.541 36.6697C39.541 37.1859 39.3689 38.0462 39.8851 38.0462C40.2292 38.2182 40.4013 38.2182 40.7454 38.2182C40.9175 38.2182 41.0895 38.3903 41.0895 38.5623C41.0895 38.7344 41.0895 38.9064 41.0895 39.0785C40.9175 39.5947 41.0895 40.2829 41.2616 40.7991C41.0895 40.2829 40.9175 39.5947 40.9175 39.0785C40.9175 38.7344 40.9175 38.5623 40.5734 38.3903C40.2292 38.2182 40.0572 38.2182 39.7131 38.2182C39.541 38.2182 39.3689 38.0462 39.3689 37.8741C39.1969 37.702 39.1969 37.53 39.1969 37.3579C39.1969 37.0138 39.1969 36.8417 39.1969 36.4976C39.3689 36.1535 39.369 35.6373 39.541 34.9491Z" fill="#472B1B"/>
<path d="M17.0006 42.3477C16.8285 42.0036 16.8285 41.6594 16.6565 41.1433C16.4844 40.7992 16.4844 40.283 16.6565 39.9389C16.6565 39.7668 16.8285 39.7668 17.0006 39.5947H17.3447C17.5168 39.5947 17.5168 39.5947 17.5168 39.4227C17.5168 39.2506 17.5168 38.5624 17.5168 38.2183H17.6888C17.8609 38.2183 18.0329 38.0462 18.205 37.8741C18.3771 37.7021 18.205 37.358 18.3771 37.1859C18.205 37.358 18.3771 37.7021 18.3771 38.0462C18.205 38.2183 18.0329 38.5624 17.6888 38.5624L17.8609 38.3903C17.8609 38.7344 17.8609 39.2506 17.8609 39.5947C17.8609 39.7668 17.8609 39.9389 17.6888 39.9389C17.5168 40.1109 17.5168 40.1109 17.3447 40.1109C17.1726 40.1109 17.0006 40.1109 17.0006 40.283C17.0006 40.6271 17.0006 40.9712 17.0006 41.3153C17.1726 41.6594 17.1726 42.0036 17.0006 42.3477Z" fill="#5B3925"/>
<path d="M36.0999 36.6697C36.0999 37.1859 36.272 37.53 36.272 38.0461L36.444 38.3903C36.444 38.5623 36.444 38.5623 36.444 38.5623H36.9602C37.1323 38.5623 37.3043 38.5623 37.4764 38.5623C37.6485 38.7344 37.8205 38.9064 37.8205 39.0785C37.8205 39.4226 37.8205 39.5947 37.8205 39.7667C37.8205 39.9388 37.9926 40.1109 38.1646 40.1109C38.3367 40.1109 38.6808 40.455 38.5087 40.627C38.5087 40.455 38.1646 40.2829 37.9926 40.2829C37.6485 40.2829 37.4764 40.1109 37.4764 39.7667C37.4764 39.5947 37.4764 39.2506 37.4764 39.0785C37.4764 39.0785 37.4764 39.0785 37.4764 38.9064H36.7882C36.6161 38.9064 36.444 38.9064 36.444 38.9064C36.272 38.7344 36.0999 38.5623 36.0999 38.3903C36.0999 38.2182 36.0999 38.2182 36.0999 38.0461C35.9279 37.53 35.9279 37.1859 36.0999 36.6697Z" fill="#5B3925"/>
<path d="M21.4746 17.227C21.4746 17.0549 21.6466 16.7108 21.8187 16.5388C22.1628 15.8505 23.1952 15.6785 23.8834 15.1623C24.2275 14.8182 24.5716 14.4741 24.9158 14.302C25.604 13.9579 26.2922 13.9579 26.9805 13.7858C28.0128 13.7858 28.8731 13.7858 29.9055 13.6138C30.0775 13.6138 30.0775 13.6138 30.2496 13.6138C30.5937 13.6138 30.7658 13.9579 31.1099 13.9579C31.454 13.9579 31.6261 13.9579 31.9702 13.9579C32.3143 13.9579 32.4864 13.9579 32.6584 14.1299C33.0025 14.4741 34.551 13.9579 35.0672 13.9579C35.9275 13.9579 36.7878 14.302 37.304 14.9902C37.9922 15.6785 38.5084 16.5388 37.9922 17.3991C37.4761 18.2594 36.7878 18.7755 35.9275 19.2917C35.5834 19.6358 35.2393 19.8079 34.8952 20.152C34.7231 20.3241 34.379 20.8402 34.2069 20.8402C34.0349 20.8402 34.0349 20.152 33.8628 20.152C33.6908 19.9799 33.5187 19.8079 33.1746 19.8079C33.0025 19.8079 33.0025 19.8079 32.8305 19.8079C32.8305 19.8079 32.8305 19.8079 32.6584 19.8079C32.6584 19.8079 32.6584 19.8079 32.4863 19.8079C32.4863 19.8079 32.4863 19.8079 32.3143 19.8079C32.3143 19.8079 32.3143 19.8079 32.1422 19.8079V19.6358H31.9702C31.9702 19.6358 31.9702 19.6358 31.7981 19.6358C31.7981 19.6358 31.7981 19.6358 31.626 19.6358C31.626 19.6358 31.626 19.6358 31.454 19.6358C31.2819 19.6358 31.454 19.6358 31.454 19.6358L31.2819 19.8079H31.1099C31.1099 19.8079 31.1099 19.8079 30.9378 19.8079C30.9378 19.8079 30.9378 19.8079 30.7658 19.8079C30.5937 19.8079 30.5937 19.8079 30.5937 19.8079C30.5937 19.8079 30.5937 19.9799 30.4216 19.9799C30.2496 19.9799 30.2496 19.9799 30.2496 19.8079C30.2496 19.8079 30.2496 19.8079 30.0775 19.6358C30.0775 19.6358 29.9055 19.6358 29.9055 19.8079C29.9055 19.8079 29.9055 19.6358 29.7334 19.6358C29.7334 19.6358 29.5613 19.4638 29.5613 19.6358C29.5613 19.6358 29.5613 19.8079 29.3893 19.8079C29.2172 19.8079 29.2172 19.6358 29.2172 19.6358C29.0452 19.4638 29.0452 19.6358 29.0452 19.6358C29.0452 19.6358 28.7011 19.6358 28.7011 19.4638C28.529 19.6358 28.3569 19.6358 28.1849 19.8079H27.6687H27.4966H27.3246C27.3246 19.8079 27.3246 19.8079 27.3246 19.9799H27.1525H26.9805C26.9805 19.9799 26.9805 19.9799 26.9805 20.152C26.8084 20.152 26.8084 20.152 26.8084 20.3241C26.8084 20.4961 26.8084 20.4961 26.8084 20.6682C26.6363 20.6682 26.4643 20.6682 26.4643 20.6682C26.4643 20.8402 26.4643 21.1844 26.4643 21.3564C26.2922 21.1844 26.1202 21.1844 25.9481 21.0123C25.9481 21.1844 25.9481 21.3564 25.9481 21.3564H25.7761C25.7761 21.5285 25.9481 21.7005 25.9481 21.7005C25.9481 21.8726 25.7761 22.0447 25.7761 22.0447H25.604C24.5716 21.5285 23.7113 20.6682 22.851 19.6358C21.4746 18.7755 21.3025 18.0873 21.4746 17.227Z" fill="#432513"/>
<path d="M24.9157 12.4095C24.9157 12.2374 24.7436 12.0654 24.7436 12.0654C24.3995 11.3771 24.3995 10.6889 24.5715 10.0006C24.9157 9.48447 26.1201 9.31241 26.6363 9.14035C26.8083 9.14035 27.1524 8.96829 27.3245 8.79623C27.4965 8.62417 27.6686 8.28006 27.6686 8.108C28.0127 7.76388 28.5289 7.59182 29.0451 7.76388C29.3892 7.07565 30.2495 6.73153 31.1098 6.90359C31.2818 7.07565 31.4539 7.07565 31.798 7.07565C31.9701 7.07565 32.1421 7.07565 32.3142 7.07565C32.3142 7.2477 32.3142 7.24771 32.3142 7.41976C32.3142 7.76388 32.4862 8.108 32.4862 8.45212C33.5186 8.45212 34.2068 9.14035 34.3789 10.1727C34.8951 10.1727 35.2392 10.8609 35.4113 11.2051C35.4113 11.3771 35.4113 11.7212 35.4113 11.8933C35.5833 12.4095 36.0995 12.5815 36.2716 13.0977C36.2716 13.4418 36.0995 13.7859 35.7554 13.958C35.4113 14.1301 35.0671 14.1301 34.723 14.1301H30.0774H27.8407C27.3245 14.1301 26.6363 13.7859 26.2921 13.2698C25.948 12.9256 25.4318 12.7536 25.2598 12.4095C25.0877 12.5815 25.0877 12.5815 24.9157 12.4095Z" fill="#432513"/>
<path d="M35.7552 13.9581C35.411 14.1301 35.239 14.1301 34.8949 14.1301C34.7228 14.1301 34.3787 14.1301 34.2066 14.3022C34.0346 14.3022 33.8625 14.3022 33.6905 14.3022H32.486C32.314 14.3022 32.1419 14.3022 32.1419 14.3022L31.9699 14.1301C31.7978 14.1301 31.6257 14.3022 31.2816 14.3022C30.9375 14.3022 30.9375 14.1301 30.7654 14.1301C30.5934 14.1301 30.2493 14.1301 30.0772 14.3022C29.561 14.3022 29.0449 14.3022 28.7007 14.1301C28.5287 14.1301 28.3566 13.9581 28.0125 13.9581C27.8404 13.9581 27.6684 13.9581 27.4963 13.9581C27.1522 13.786 26.8081 13.614 26.464 13.2698C26.1199 12.9257 25.7757 12.7537 25.4316 12.4096C25.4316 12.4096 25.2596 12.2375 25.2596 12.0654C25.2596 11.8934 25.0875 11.7213 25.0875 11.7213C24.9155 11.3772 24.7434 10.861 24.7434 10.3448C24.7434 10.3448 24.7434 10.3448 24.7434 10.5169C24.3993 11.2051 24.5713 12.0654 24.9155 12.5816C24.9155 12.7537 25.0875 12.7537 25.0875 12.9257C25.0875 13.0978 25.2596 13.2698 25.4316 13.2698C25.7757 13.614 26.1199 13.786 26.464 14.1301C26.8081 14.4743 26.9802 14.6463 27.3243 14.8184C27.4963 14.8184 27.6684 14.8184 27.8405 14.9904C28.0125 14.9904 28.3566 15.1625 28.5287 15.3346C28.7007 15.5066 28.8728 15.5066 29.2169 15.5066C29.561 15.5066 29.9052 15.1625 30.2493 15.1625C30.5934 15.1625 31.2816 15.5066 31.9699 15.3346C32.1419 15.3346 32.314 15.1625 32.486 15.1625C32.6581 15.1625 32.6581 15.1625 32.8302 15.3346C33.1743 15.3346 33.3463 15.1625 33.6905 15.3346H34.0346C34.2066 15.3346 34.3787 15.3346 34.5507 15.3346C34.7228 15.3346 34.7228 15.3346 34.8949 15.3346C35.0669 15.3346 35.0669 15.3346 35.239 15.3346C35.7552 15.1625 36.4434 14.8184 36.4434 14.1301V13.9581C36.0993 13.786 35.9272 13.9581 35.7552 13.9581Z" fill="#391B0D"/>
<path d="M29.9057 14.1301C29.3895 14.1301 28.8733 14.1301 28.5292 13.958C28.013 13.786 27.6689 13.6139 27.1527 13.4418C26.8086 13.2698 26.2925 12.9257 25.9483 12.5816C25.7763 12.4095 25.6042 12.2374 25.6042 11.8933C25.6042 11.7213 25.6042 11.3771 25.7763 11.2051C25.6042 11.7213 25.9483 12.0654 26.2925 12.4095C26.6366 12.7536 26.9807 12.9257 27.4969 13.2698C27.841 13.4418 28.3572 13.786 28.7013 13.958C29.0454 13.786 29.3895 13.958 29.9057 14.1301Z" fill="#472B1B"/>
<path d="M30.0777 13.7858C29.9057 13.4417 29.9057 12.9256 30.0777 12.4094C30.4219 11.205 31.2822 10.0006 32.1424 9.14026L31.4542 10.1726C31.2821 10.5167 31.1101 10.8608 30.938 11.205C30.766 11.5491 30.5939 11.8932 30.4219 12.2373C30.2498 13.0976 30.0777 13.4417 30.0777 13.7858Z" fill="#472B1B"/>
<path d="M30.7664 13.7859C31.6267 13.6138 32.3149 13.4418 33.1752 13.0977C33.8634 12.7535 34.5517 12.4094 35.2399 11.7212C34.8958 12.5815 34.2075 13.0977 33.3472 13.4418C32.3149 13.7859 31.4546 13.958 30.7664 13.7859Z" fill="#472B1B"/>
<path d="M29.3893 13.2697C28.529 13.4418 27.6687 13.2697 26.9805 12.5815C26.6364 12.2374 26.4643 11.7212 26.4643 11.3771C26.4643 11.205 26.4643 11.205 26.4643 11.033V10.8609C26.4643 10.8609 26.4643 10.6888 26.4643 10.8609H26.2922C26.1202 10.8609 26.1202 10.6888 26.1202 10.6888C26.1202 10.6888 26.2922 10.8609 26.4643 10.8609H26.6364C26.6364 10.8609 26.6364 10.8609 26.8084 10.8609C26.9805 10.8609 26.8084 11.033 26.8084 11.033C26.8084 11.033 26.8084 11.033 26.8084 11.205V11.5491C26.9805 11.8933 27.1525 12.2374 27.3246 12.5815C27.4966 12.9256 27.8408 13.0977 28.1849 13.2697C28.529 13.2697 29.0452 13.2697 29.3893 13.2697Z" fill="#5B3925"/>
<path d="M30.2495 13.9579C30.4216 13.6138 30.7657 13.2697 30.9377 13.0976C31.2819 12.9255 31.4539 12.5814 31.626 12.2373C32.1422 11.7211 32.3142 10.8608 32.1422 10.1726C32.3142 10.5167 32.4863 10.8608 32.4863 11.377C32.4863 11.7211 32.3142 12.2373 31.9701 12.4094C31.798 12.7535 31.4539 12.9255 31.1098 13.2697C30.9377 13.4417 30.5936 13.6138 30.2495 13.9579Z" fill="#5B3925"/>
<path d="M29.9064 19.4637C29.5622 19.1196 29.3902 18.6034 29.2181 18.2593C29.0461 17.7431 29.2181 17.2269 29.3902 16.8828C29.5623 17.399 29.5622 17.7431 29.7343 18.2593C29.9064 18.7755 29.7343 18.9475 29.9064 19.4637Z" fill="#382011"/>
<path d="M31.7993 19.6358C32.4876 19.1196 33.0038 18.7755 33.5199 18.2593C34.0361 17.7432 34.5523 17.227 35.2405 16.7108C34.8964 17.3991 34.5523 18.0873 33.864 18.6035C33.3479 19.1196 32.6596 19.4638 31.7993 19.6358Z" fill="#382011"/>
<path d="M28.013 8.62402C28.013 9.65638 28.1851 10.6887 28.7012 11.7211C28.8733 11.8931 29.0454 12.2373 29.0454 12.4093C29.0454 12.5814 29.2174 12.5814 29.2174 12.7534C29.2174 12.9255 29.3895 12.9255 29.3895 12.9255V12.7534C29.3895 12.5814 29.3895 12.4093 29.3895 12.4093C29.3895 12.0652 29.5615 11.8931 29.7336 11.7211L29.9057 11.549V11.7211C29.9057 11.8931 30.0777 12.2373 30.2498 12.4093L30.4218 12.5814C30.5939 12.5814 30.5939 12.5814 30.7659 12.4093C31.2821 12.2373 31.6262 11.8931 31.9704 11.549C32.3145 11.2049 32.6586 10.8608 32.8307 10.3446C33.0027 9.82844 32.8307 9.31226 32.4865 8.96814C32.8307 9.31226 33.1748 9.82844 33.0027 10.3446C32.8307 10.8608 32.6586 11.377 32.1424 11.7211C31.7983 12.0652 31.2821 12.4093 30.938 12.5814C30.766 12.7534 30.7659 12.7534 30.5939 12.7534C30.4218 12.7534 30.2498 12.5814 30.2498 12.5814C30.0777 12.4093 29.9057 12.0652 29.9057 11.8931H30.0777C29.9057 12.0652 29.7336 12.2373 29.7336 12.5814C29.7336 12.7534 29.7336 12.7534 29.7336 12.9255V13.0976C29.7336 13.0976 29.5615 13.2696 29.3895 13.2696C29.2174 13.2696 29.0454 13.0976 29.0454 12.9255L28.8733 12.4093C28.7012 12.2373 28.5292 11.8931 28.5292 11.7211C28.013 10.6887 27.8409 9.65638 28.013 8.62402Z" fill="#382011"/>
<path d="M29.9058 11.7211C29.5617 11.3769 29.3897 10.8608 29.3897 10.3446C29.3897 9.82842 29.5617 9.31224 29.9058 8.96812C30.2499 8.62401 30.5941 8.27989 31.1103 8.10783C31.6264 7.93577 32.1426 7.76371 32.4867 7.93577C31.9705 7.93577 31.6264 8.10783 31.2823 8.27989C30.9382 8.45195 30.5941 8.79607 30.25 9.14018C29.5617 10.0005 29.3897 11.0328 29.9058 11.7211Z" fill="#382011"/>
<path d="M30.0782 11.721C29.9061 11.3769 30.0782 11.0328 30.2503 10.6887C30.4223 10.3446 30.5944 10.1725 30.9385 9.82837C31.1106 9.65632 31.4547 9.3122 31.7988 9.14014C32.1429 8.96808 32.487 8.79602 32.8311 8.79602C32.6591 8.96808 32.6591 8.96808 32.487 9.14014L32.1429 9.48426L31.4547 10.1725C31.2826 10.3446 30.9385 10.6887 30.7664 10.8607C30.4223 11.0328 30.2503 11.3769 30.0782 11.721Z" fill="#382011"/>
<path d="M29.9065 13.6137C30.9388 13.4416 31.7991 12.9254 32.8315 12.4093C33.3477 12.2372 33.6918 11.8931 34.208 11.549C34.5521 11.2048 34.8962 10.6887 34.7241 10.1725C34.8962 10.6887 34.7242 11.2048 34.38 11.549C34.0359 11.8931 33.5197 12.2372 33.0036 12.4093C31.9712 13.2695 30.9388 13.6137 29.9065 13.6137Z" fill="#382011"/>
<path d="M27.4973 8.79602C27.4973 9.3122 27.6693 9.82837 27.6693 10.3446C27.6693 10.8607 27.8414 11.3769 27.8414 11.721C28.0134 12.2372 28.1855 12.5813 28.3576 12.9254C28.7017 13.2695 29.0458 13.6137 29.562 13.7857C29.0458 13.6137 28.5296 13.4416 28.1855 13.0975C27.8414 12.7534 27.4973 12.2372 27.3252 11.721C27.1531 11.2048 27.1532 10.6887 27.1532 10.1725C27.3252 9.65631 27.3252 9.14014 27.4973 8.79602Z" fill="#382011"/>
<path d="M29.5611 82.6094H29.0449C29.0449 82.0932 29.0449 81.405 28.8729 80.8888C28.8729 80.7167 28.8729 80.5447 28.7008 80.2006C28.5288 77.9638 28.5287 75.727 28.8729 73.4903C28.8729 72.63 29.0449 71.5976 29.0449 70.5653C29.217 68.5006 29.0449 66.6079 28.8729 64.5432C28.8729 63.6829 28.7008 62.9947 28.7008 62.1344C28.5288 60.4138 28.3567 58.6932 28.1846 56.8006C28.1846 56.1123 27.6685 52.327 27.4964 50.7785L27.3243 50.0903C27.3243 49.5741 26.9802 49.23 26.6361 48.8859L26.9802 48.5417C27.3243 48.8859 27.6685 49.402 27.8405 50.0903L28.0126 50.7785C28.1846 52.327 28.7008 56.1123 28.7008 56.8006C28.7008 58.5212 29.0449 60.2417 29.217 61.9623C29.217 62.8226 29.389 63.5109 29.389 64.3712C29.5611 66.2638 29.5611 68.3285 29.5611 70.2212C29.5611 71.2535 29.389 72.1138 29.389 73.1462C29.217 75.3829 29.0449 77.6197 29.217 80.0285C29.217 80.2006 29.217 80.3726 29.217 80.7167C29.5611 81.405 29.5611 82.0932 29.5611 82.6094Z" fill="#3D5777"/>
<path d="M33.8631 57.4888V57.1447C34.0352 55.9403 34.0352 54.5638 34.0352 53.1874C34.0352 52.8432 34.0352 52.4991 33.8631 52.155L33.6911 51.1227C33.6911 50.6065 33.8631 50.0903 34.3793 49.7462V49.5741C34.8955 48.8859 35.4117 48.1977 35.9278 47.5094C36.0999 47.1653 36.272 46.8212 36.444 46.4771C36.6161 46.1329 36.6161 45.7888 36.6161 45.4447C36.7881 44.7565 36.7881 44.2403 36.7881 43.5521V43.38H36.9602C37.8205 43.38 38.5087 43.7241 39.197 44.0682L39.7131 44.4124C39.8852 44.4124 39.8852 44.5844 39.8852 44.5844C39.8852 44.7565 39.8852 44.7565 39.8852 44.9285C39.8852 45.9609 39.7131 47.1653 39.369 48.1977V48.5418C39.369 48.8859 39.197 49.0579 39.197 49.23C39.197 49.4021 39.197 49.7462 39.0249 49.9182C39.0249 50.2624 39.0249 50.6065 38.8529 50.7785C38.6808 51.1227 38.5087 51.4668 38.3367 51.8109C37.4764 53.3594 36.272 54.9079 35.0675 56.1124C34.7234 56.4565 34.3793 56.8006 33.8631 57.1447V57.4888ZM37.3043 43.8962C37.3043 44.4124 37.3043 45.1006 37.1323 45.6168C37.1323 45.9609 36.9602 46.305 36.9602 46.8212C36.7881 47.1653 36.6161 47.5094 36.444 47.8535C36.0999 48.5418 35.5837 49.4021 35.0675 50.0903L34.8955 50.2624C34.5514 50.6065 34.3793 50.9506 34.3793 51.4668C34.3793 51.8109 34.3793 52.155 34.5514 52.3271C34.7234 52.4991 34.5514 53.0153 34.7234 53.3594C34.8955 54.5638 34.8955 55.7682 34.7234 56.8006C34.8955 56.6285 35.2396 56.4565 35.4117 56.1124C36.6161 54.7359 37.6484 53.3594 38.5087 51.8109C38.6808 51.4668 38.8529 51.1227 38.8529 50.9506C38.8529 50.6065 39.0249 50.4344 39.0249 50.0903C39.0249 49.9182 39.0249 49.5741 39.197 49.4021C39.197 49.0579 39.369 48.8859 39.369 48.5418V48.1977C39.7131 47.1653 39.8852 46.1329 39.7131 45.1006L39.0249 44.7565C38.5087 44.2403 37.8205 44.0682 37.3043 43.8962Z" fill="#3D5777"/>
<path d="M26.9803 56.9727L26.6362 56.6285C25.7759 55.9403 25.0876 55.2521 24.3994 54.3918C24.0553 53.8756 23.5391 53.3594 23.195 52.8432C22.8509 52.3271 22.8509 52.155 22.6788 51.8109V51.6388C22.3347 51.1227 21.3023 49.7462 20.6141 48.7138L19.5817 47.3374L19.4097 47.1653C19.2376 46.8212 18.8935 46.4771 19.4097 45.9609C19.7538 45.6168 19.9259 45.4447 20.27 45.1006C20.6141 44.7565 20.9582 44.4124 21.3023 44.0682L21.4744 43.8962C21.8185 43.38 22.1626 43.0359 22.8509 42.6918H23.0229L24.2273 45.2727C24.3994 45.4447 24.3994 45.7888 24.5714 45.9609C24.7435 46.133 24.9156 46.305 25.0876 46.4771L26.292 47.5094C26.8082 47.8535 27.1523 48.3697 27.4964 48.8859C28.0126 49.9182 28.0126 51.1227 27.6685 52.3271V52.4991C27.4964 53.8756 27.3244 55.08 27.3244 56.4565L26.9803 56.9727ZM22.5067 43.208C22.1626 43.38 21.8185 43.7241 21.6464 44.0682L21.4744 44.2403C21.1303 44.5844 20.7861 45.1006 20.27 45.4447C19.9259 45.6168 19.7538 45.9609 19.4097 46.305C19.2376 46.4771 19.2376 46.4771 19.5817 46.8212L19.7538 46.9932C19.7538 47.1653 20.27 47.6815 20.7862 48.3697C21.6464 49.4021 22.6788 50.7785 22.8509 51.2947L23.0229 51.4668C23.195 51.8109 23.367 52.155 23.5391 52.4991C23.8832 53.0153 24.3994 53.5315 24.7435 54.0477C25.2597 54.7359 25.7758 55.4241 26.4641 55.9403C26.4641 54.7359 26.6362 53.5315 26.8082 52.3271V52.155C27.1523 51.1227 27.1523 49.9182 26.6362 48.8859C26.292 48.3697 25.9479 48.0256 25.4317 47.6815L24.3994 46.8212C24.2273 46.6491 24.0553 46.4771 23.8832 46.305C23.7111 46.133 23.5391 45.7888 23.5391 45.4447L22.5067 43.208Z" fill="#3D5777"/>
<path d="M42.8094 63.8551C42.6373 61.7904 42.4653 59.7257 42.2932 57.661H42.6373C42.6373 58.6933 42.8094 59.5536 43.1535 60.4139C43.4976 61.2742 43.8418 62.3066 44.0138 63.3389H43.6697C44.1859 61.4463 44.8741 59.7257 45.5623 57.833C46.2506 56.1124 47.1109 54.3919 48.1432 52.6713L47.7991 53.0154L47.9712 52.6713C47.1109 54.3919 46.4226 56.1124 45.7344 58.0051C45.0462 59.7257 44.53 61.6183 44.0138 63.511L43.6697 64.7154L43.4976 63.511C43.3256 62.4786 43.1535 61.6183 42.6373 60.758C42.2932 59.8977 42.1212 58.8654 42.1212 57.833H42.4653C42.8094 59.7257 42.8094 61.7904 42.8094 63.8551Z" fill="#6E8DAD"/>
<path d="M14.4208 64.7152C13.9046 62.6505 13.3885 60.7579 13.0443 58.6932L13.3885 58.5211L14.4208 62.1344L15.6252 65.7476H15.2811C15.4532 64.3711 15.6252 62.9946 15.7973 61.6182C15.7973 62.9946 15.7973 64.3711 15.6252 65.7476V66.4358L15.2811 65.7476C14.7649 64.5432 14.4208 63.3388 14.0767 62.3064C13.7326 61.2741 13.3885 59.8976 13.0443 58.6932L13.3885 58.5211C13.5605 59.5535 13.7326 60.5858 13.9046 61.6182C14.0767 62.6505 14.4208 63.6829 14.4208 64.7152Z" fill="#6E8DAD"/>
<path opacity="0.7" d="M62.0811 50.4343C61.5649 50.6064 60.8767 50.6064 60.3605 50.4343C59.8443 50.2623 59.3282 50.0902 58.812 49.7461C58.2958 49.402 57.9517 49.0579 57.6076 48.5417C57.2635 48.0255 56.9193 47.5093 56.9193 46.9932C57.6076 47.8535 58.4679 48.5417 59.3282 49.0579C60.1885 49.574 61.0488 50.0902 62.0811 50.4343Z" fill="#6E8DAD"/>
<path d="M55.8875 48.1976C55.7154 48.1976 55.5434 48.0255 55.5434 48.0255L54.339 46.8211L54.1669 46.649C53.8228 46.477 53.6507 46.1329 53.4787 45.7887C53.4787 44.7564 53.8228 43.8961 54.339 43.0358C54.511 42.6917 54.8551 42.5196 55.0272 42.1755C55.3713 41.8314 55.5434 41.6593 55.7154 41.3152C55.8875 40.9711 56.0595 40.799 56.2316 40.4549C56.4037 40.2829 56.4037 40.1108 56.5757 39.9387C57.436 38.3902 62.2537 36.1534 62.7698 36.1534C63.114 36.1534 63.4581 36.3255 63.6301 36.4976C63.8022 36.6696 63.9742 36.6696 64.3184 36.6696H64.4904C64.6625 36.6696 64.6625 36.6696 64.8345 36.6696C65.3507 36.6696 65.5228 37.1858 65.6948 37.3579C66.039 37.702 66.211 38.2182 66.7272 38.5623C67.0713 38.7343 67.2434 39.0784 67.4154 39.4226C67.9316 40.1108 67.9316 40.4549 67.9316 40.627L67.7595 40.799C67.4154 40.9711 67.0713 41.1432 66.7272 41.4873C66.3831 41.6593 66.039 42.0034 65.6948 42.1755C65.0066 42.5196 64.1463 42.8637 63.4581 43.0358L62.4257 43.3799C60.0169 44.2402 57.9522 45.7887 56.4037 47.8534C56.2316 48.0255 56.0596 48.1976 55.8875 48.1976ZM62.9419 36.8417C62.4257 36.8417 57.9522 39.0784 57.0919 40.4549L56.7478 40.9711C56.5757 41.3152 56.4037 41.4873 56.2316 41.8314C56.0595 42.1755 55.7154 42.5196 55.3713 42.6917C55.1993 42.8637 54.8551 43.2079 54.6831 43.3799C54.1669 44.0682 53.8228 44.9284 53.8228 45.7887C53.8228 45.9608 53.9948 46.3049 54.339 46.477L54.511 46.649L55.7154 47.8534C55.7154 47.8534 55.7154 47.8534 55.8875 47.6814C57.436 45.4446 59.6728 43.8961 62.0816 43.0358L63.114 42.6917C63.8022 42.5196 64.6625 42.1755 65.3507 41.8314C65.6948 41.6593 66.039 41.4873 66.3831 41.1432C66.7272 40.799 67.0713 40.627 67.4154 40.4549C67.4154 40.2829 67.2434 39.9387 67.0713 39.7667C66.8993 39.4226 66.5551 39.2505 66.3831 39.0784C66.039 38.7343 65.6948 38.3902 65.3507 37.874C65.1787 37.5299 65.0066 37.3579 64.8345 37.3579H64.6625H64.3184C63.9742 37.3579 63.6301 37.1858 63.4581 37.0137C63.286 37.0137 63.114 36.8417 62.9419 36.8417Z" fill="#3D5777"/>
<path d="M61.9092 49.9181C62.0813 50.0901 62.2533 50.2622 62.4254 50.6063L62.7695 50.9504L62.9416 51.1225C62.9416 51.2946 62.9416 51.4666 62.9416 51.4666L62.7695 51.6387H62.5974C62.2533 51.4666 61.7372 51.2946 61.393 50.9504L61.7371 50.7784C61.7371 51.2946 61.7371 51.9828 61.7371 52.499C61.7371 53.0151 61.7371 53.7034 61.7371 54.2196C61.5651 53.7034 61.5651 53.0151 61.393 52.499C61.221 51.9828 61.221 51.2946 61.221 50.7784V50.4343L61.5651 50.6063C61.9092 50.7784 62.2533 51.1225 62.7695 51.2946H62.5974V51.1225L62.4254 50.7784C62.0813 50.4343 61.9092 50.2622 61.9092 49.9181Z" fill="#6E8DAD"/>
<path d="M48.4881 58.8654C47.6278 59.5536 46.9396 60.2418 46.2513 60.9301C44.7028 62.3065 43.8425 64.1992 43.8425 66.2639C43.6704 67.2962 43.6704 68.3286 43.6704 69.3609C43.4984 68.3286 43.3263 67.2962 43.4984 66.2639C43.3263 64.0271 44.3587 61.9624 46.0793 60.758C46.5954 60.0698 47.4557 59.3815 48.4881 58.8654Z" fill="#6E8DAD"/>
<path d="M25.7763 20.3241C25.0881 20.1521 24.3998 19.6359 24.0557 18.9476C23.7116 18.2594 23.3675 17.5712 23.1954 16.8829C23.7116 17.3991 24.0557 17.9153 24.3998 18.6035C24.916 19.4638 25.2601 19.98 25.7763 20.3241Z" fill="#382011"/>
<path d="M26.2924 19.8079C25.6041 19.6359 25.26 18.9476 25.4321 18.0873V17.9153C25.6041 18.2594 25.7762 18.6035 25.7762 18.7756C25.7762 18.9476 26.1203 19.4638 26.2924 19.8079Z" fill="#382011"/>
<path d="M35.583 20.6682C36.0992 20.6682 36.6154 21.1844 36.9595 21.7006C37.1316 22.2167 37.3036 22.905 37.4757 23.4212C37.6477 23.9373 37.8198 24.4535 38.1639 24.9697C38.336 25.1417 38.508 25.3138 38.6801 25.4859C38.8522 25.6579 39.1963 25.6579 39.5404 25.83C39.7125 26.002 39.7125 26.1741 39.8845 26.3462C39.8845 26.5182 39.8845 26.6903 39.8845 26.8623C39.7125 27.0344 39.7125 27.3785 39.7125 27.5506C39.7125 28.0667 40.0566 28.5829 40.5727 28.755C40.9169 28.927 41.0889 29.0991 41.261 29.4432C41.433 29.7873 41.433 29.9594 41.6051 30.3035C41.7772 30.8197 41.9492 31.3359 42.1213 32.0241L41.433 30.4756C41.261 30.1314 41.261 29.9594 41.0889 29.6153C40.9169 29.4432 40.7448 29.2712 40.5727 29.2712C39.8845 29.0991 39.5404 28.4109 39.5404 27.8947C39.5404 27.5506 39.5404 27.2064 39.7125 27.0344C39.7125 26.6903 39.7125 26.5182 39.7125 26.5182C39.7125 26.5182 39.1963 26.3462 39.0242 26.1741C38.6801 26.002 38.508 25.83 38.336 25.4859C37.9919 24.9697 37.6477 24.4535 37.6477 23.7653C37.4757 23.2491 37.3036 22.5609 37.1316 22.0447C36.6154 21.1844 36.0992 20.8403 35.583 20.6682Z" fill="#382011"/>
<path d="M23.8842 21.8727C23.196 22.2168 22.5078 22.5609 21.8195 22.905C21.4754 23.0771 21.3033 23.4212 20.9592 23.5933C20.6151 23.7653 20.7872 24.1094 21.1313 24.2815C21.3033 24.4536 21.4754 24.6256 21.4754 24.7977C21.4754 24.9697 21.4754 25.3139 21.3033 25.4859C20.9592 25.83 20.6151 26.0021 20.4431 26.1742C20.271 26.3462 20.271 26.3462 20.271 26.5183C20.271 26.6903 20.271 26.6903 20.6151 26.8624C20.9592 27.2065 20.9592 27.7227 20.7872 28.2389C20.271 29.0992 19.4107 29.2712 18.8945 29.7874C18.5504 29.9594 18.3784 30.3036 18.3784 30.4756C18.3784 30.6477 18.5504 30.6477 18.5504 30.9918C18.7225 31.1639 18.7225 31.508 18.5504 31.68C18.2063 32.5403 17.1739 32.5403 16.8298 33.0565C16.6578 33.2286 16.8298 33.7447 16.6578 34.0889C16.4857 34.433 15.9695 34.605 15.6254 34.605C15.9695 34.605 16.3136 34.433 16.4857 34.0889C16.4857 33.9168 16.4857 33.7447 16.4857 33.5727C16.4857 33.4006 16.4857 33.2286 16.4857 32.8844C16.6578 32.5403 17.1739 32.3683 17.5181 32.1962C17.8622 32.0242 18.0342 31.8521 18.2063 31.508C18.2063 31.3359 18.2063 31.1639 18.2063 31.1639C18.0342 30.9918 18.0342 30.8197 17.8622 30.6477C17.8622 30.1315 18.0342 29.7874 18.3784 29.4433C19.0666 28.9271 19.7548 28.755 20.0989 28.0668C20.271 27.8947 20.271 27.5506 20.0989 27.2065C19.9269 27.0344 19.7548 26.8624 19.7548 26.5183C19.7548 26.3462 19.9269 26.0021 20.0989 25.83C20.4431 25.4859 20.7872 25.4859 20.9592 25.1418C21.1313 24.7977 21.1313 24.6256 20.7872 24.4536C20.6151 24.2815 20.4431 24.1094 20.4431 23.9374C20.4431 23.7653 20.4431 23.4212 20.6151 23.2491C20.9592 23.0771 21.3034 22.733 21.6475 22.5609C22.5078 22.3889 23.196 22.0447 23.8842 21.8727Z" fill="#382011"/>
<path d="M37.3041 18.7755C37.3041 18.9476 37.4762 18.9476 37.4762 19.1196L37.8203 19.2917C38.3365 19.6358 38.6806 20.152 38.6806 20.8402C38.6806 21.1843 38.5085 21.3564 38.5085 21.7005C38.5085 21.8726 38.5085 22.2167 38.6806 22.3887C38.8526 22.5608 39.1968 22.5608 39.3688 22.7329C39.7129 22.9049 39.885 23.077 40.057 23.5932C40.057 23.9373 40.057 24.1093 40.057 24.4535C40.057 24.7976 40.057 24.9696 40.2291 24.9696C40.5732 25.1417 40.7453 25.3137 40.9173 25.3137C41.0894 25.6579 41.2615 26.002 41.2615 26.174C41.2615 26.3461 41.2615 26.6902 41.4335 26.8623C41.6056 27.0343 41.9497 27.2064 42.1218 27.2064C42.4659 27.3785 42.6379 27.5505 42.6379 27.8946C42.81 28.4108 42.81 29.099 42.6379 29.6152C42.6379 29.099 42.6379 28.5829 42.4659 27.8946C42.2938 27.3785 41.6056 27.3785 41.0894 27.0343C40.9173 26.8623 40.7453 26.5182 40.7453 26.174C40.7453 25.8299 40.7453 25.6579 40.5732 25.4858C40.4012 25.3137 40.057 25.3137 39.885 25.1417C39.5409 24.9696 39.3688 24.6255 39.5409 24.2814C39.5409 23.5932 39.7129 23.249 39.1968 23.077C38.8526 23.077 38.6806 22.9049 38.3365 22.7329C38.1644 22.5608 37.9923 22.2167 38.1644 21.8726C38.1644 21.5285 38.3365 21.3564 38.3365 21.0123C38.3365 20.8402 38.3365 20.4961 38.1644 20.324C37.9923 20.152 37.8203 19.8079 37.6482 19.6358C37.4762 19.6358 37.4762 19.4637 37.3041 19.4637C37.132 19.4637 37.132 18.9476 37.3041 18.7755Z" fill="#382011"/>
<path d="M22.1639 20.4961C21.3036 20.8402 20.6153 21.3564 20.0992 22.0446C19.9271 22.2167 19.9271 22.3887 19.9271 22.5608C19.9271 22.7329 20.0992 22.9049 20.2712 23.077C20.4433 23.249 20.4433 23.5932 20.2712 23.7652C20.0992 23.9373 19.9271 24.1093 19.7551 24.2814C19.4109 24.4534 19.0668 24.6255 18.8948 25.1417C18.8948 25.4858 18.8948 26.002 19.0668 26.3461C19.2389 26.8623 19.2389 27.2064 18.8948 27.7226C18.5506 28.0667 18.3786 28.4108 17.8624 28.5829C17.6903 28.7549 17.5183 28.927 17.5183 29.099C17.5183 29.2711 17.6903 29.4432 17.6903 29.6152C17.8624 30.1314 17.6904 30.6476 17.3462 30.9917C17.0021 31.3358 16.8301 31.6799 16.658 32.024C16.658 32.1961 16.658 32.3682 16.8301 32.7123C16.8301 32.8843 16.8301 33.2284 16.658 33.4005C16.3139 33.7446 15.9698 33.9167 15.7977 34.2608C15.7977 34.6049 15.7977 35.1211 15.9698 35.4652C15.9698 35.9814 15.9698 36.3255 15.6256 36.8417C15.4536 37.1858 15.1095 37.5299 14.7654 37.874C15.1095 37.5299 15.2815 37.1858 15.6256 36.8417C15.7977 36.4976 15.9698 35.9814 15.7977 35.6373C15.6256 35.2932 15.6256 34.777 15.6256 34.2608C15.7977 33.7446 16.1418 33.5726 16.4859 33.2284C16.658 33.0564 16.658 32.8843 16.658 32.7123C16.4859 32.5402 16.4859 32.1961 16.4859 32.024C16.658 31.5079 16.8301 31.1637 17.1742 30.8196C17.5183 30.4755 17.5183 30.1314 17.5183 29.7873C17.5183 29.6152 17.1742 29.4432 17.3462 29.099C17.3462 28.927 17.5183 28.5829 17.6903 28.4108C18.0345 28.0667 18.3786 27.8946 18.5506 27.5505C18.7227 27.2064 18.8948 26.6902 18.7227 26.3461C18.5506 25.8299 18.5506 25.4858 18.7227 24.9696C18.8948 24.4534 19.4109 24.2814 19.7551 24.1093C20.0992 23.9373 20.4433 23.4211 20.2712 23.077C20.0992 22.7329 19.9271 22.7329 19.9271 22.5608C19.9271 22.3887 19.9271 22.0446 20.0992 21.8726C20.6153 21.1843 21.3036 20.8402 22.1639 20.4961Z" fill="#382011"/>
<path d="M37.8204 35.2931C37.6484 35.9813 37.6484 36.6696 37.8204 37.3578C37.8204 37.7019 37.9925 38.046 38.1646 38.2181C38.3366 38.5622 38.6807 38.7343 38.8528 39.0784C39.1969 39.4225 39.1969 39.7666 39.1969 40.1107C39.1969 40.4549 39.0249 40.799 39.0249 41.1431C39.0249 41.3152 39.369 41.3152 39.369 41.4872C39.541 41.6593 39.7131 41.6593 39.7131 41.8313C39.8851 42.1754 40.0572 42.5196 40.0572 42.8637C40.0572 42.5196 39.8851 42.1754 39.7131 41.8313C39.541 41.6593 39.541 41.6593 39.369 41.4872C39.1969 41.3152 39.0249 41.4872 38.8528 41.1431C38.8528 40.799 38.8528 40.4549 38.8528 40.1107C38.8528 39.7666 38.8528 39.4225 38.5087 39.2504C38.3366 38.9063 37.9925 38.7343 37.8204 38.3901C37.6484 38.046 37.4763 37.7019 37.4763 37.3578C37.6484 36.6696 37.6484 35.9813 37.8204 35.2931Z" fill="#382011"/>
<path d="M21.6474 35.1211C21.3033 35.2932 20.9592 35.6373 20.6151 35.9814C20.271 36.3255 20.271 36.8417 20.271 37.1858C20.443 37.702 20.6151 38.0461 20.6151 38.5623C20.6151 39.0784 20.443 39.5946 19.9268 39.9387C19.5827 40.2829 19.0666 40.4549 19.2386 40.799C19.4107 41.1432 20.0989 41.3152 20.0989 41.8314C20.0989 42.3476 19.9268 42.6917 19.5827 43.2079L18.7224 44.4123L19.4107 43.2079C19.7548 42.8637 19.9268 42.3476 19.9268 42.0034C19.9268 41.4873 19.4107 41.4873 19.0666 40.9711C18.8945 40.627 19.0666 40.4549 19.2386 40.2829C19.4107 40.1108 19.5827 39.9387 19.7548 39.7667C20.0989 39.5946 20.271 39.0784 20.271 38.5623C20.271 38.0461 20.0989 37.702 19.9268 37.1858C19.9268 36.6696 19.9268 36.1534 20.271 35.8093C20.7871 35.6373 21.3033 35.2932 21.6474 35.1211Z" fill="#382011"/>
<path d="M23.7114 36.4977C23.3673 37.0139 23.3673 37.53 23.5393 38.0462C23.7114 38.2183 23.8835 38.3903 24.0555 38.5624C24.2276 38.7344 24.3996 39.0786 24.2276 39.4227C24.0555 39.9389 23.5393 40.283 23.3673 40.7992C23.3673 41.1433 23.3673 41.3153 23.5393 41.6594C23.7114 42.0036 23.3673 42.3477 23.0232 42.1756C23.1952 42.1756 23.3673 42.1756 23.3673 42.0036C23.3673 41.8315 23.3673 41.6594 23.3673 41.6594C23.1952 41.3153 23.1952 41.1433 23.1952 40.7992C23.3673 40.1109 23.8835 39.7668 24.0555 39.2506C24.0555 39.0786 24.0555 38.7344 23.8835 38.5624C23.7114 38.3903 23.3673 38.2183 23.3673 37.8742C23.1952 37.53 23.3673 37.0139 23.7114 36.4977Z" fill="#382011"/>
<path d="M35.2394 37.3579C35.4114 37.8741 35.5835 38.2182 35.9276 38.5623C36.0997 38.7344 36.2717 38.7344 36.4438 38.9064C36.6158 39.0785 36.7879 39.4226 36.7879 39.5947C36.7879 40.1109 36.6158 40.455 36.4438 40.9711C36.4438 41.4873 36.4438 41.8314 36.7879 42.1756C36.4438 41.8314 36.2717 41.3153 36.2717 40.7991C36.4438 40.2829 36.4438 39.9388 36.6158 39.4226C36.6158 39.2506 36.6158 39.0785 36.4438 38.9064C36.2717 38.7344 36.0997 38.7344 35.9276 38.5623C35.4114 38.2182 35.2394 37.702 35.2394 37.3579Z" fill="#382011"/>
<path d="M40.4011 35.8094C40.4011 36.3256 40.4011 36.8418 40.7452 37.1859C40.9172 37.358 41.2614 37.358 41.4334 37.358C41.6055 37.358 41.7775 37.358 41.7775 37.53C41.9496 37.7021 41.9496 37.8742 41.9496 37.8742V38.7344C41.9496 38.9065 41.9496 38.9065 41.9496 39.0786C41.9496 39.2506 42.1216 39.2506 42.2937 39.2506C42.4658 39.4227 42.6378 39.5947 42.8099 39.9389C42.8099 40.283 42.8099 40.455 42.8099 40.7992C42.8099 40.283 42.8099 39.7668 42.2937 39.4227C42.1216 39.4227 41.9496 39.2506 41.9496 39.2506C41.9496 39.0786 41.9496 38.9065 41.9496 38.7344V38.0462C41.9496 37.8742 41.7775 37.7021 41.6055 37.7021C41.2614 37.7021 41.0893 37.7021 40.9172 37.53C40.7452 37.358 40.5731 37.0139 40.5731 36.8418C40.4011 36.3256 40.4011 35.9815 40.4011 35.8094Z" fill="#382011"/>
<path d="M28.1851 19.2918C27.4969 18.9476 26.9807 18.2594 26.6366 17.5712C26.4645 17.2271 26.4645 16.8829 26.2924 16.3668C26.2924 16.0226 26.4645 15.5065 26.6366 15.1624C26.4645 15.5065 26.4645 15.8506 26.4645 16.3668C26.4645 16.7109 26.6366 17.055 26.8086 17.3991C27.1527 18.0874 27.6689 18.7756 28.1851 19.2918Z" fill="#382011"/>
<path d="M30.5939 19.2917C30.5939 19.2917 30.5939 19.1196 30.5939 19.2917V19.1196L30.7659 18.9476L31.11 18.4314C31.4542 18.0873 31.6262 17.9152 31.7983 17.5711C31.9703 17.227 32.3144 16.8829 32.4865 16.5388C32.6586 16.1946 32.6586 15.8505 32.8306 15.3344C32.8306 15.6785 32.8306 16.1946 32.6586 16.5388C32.4865 16.8829 32.3144 17.227 31.9703 17.5711C31.7983 17.9152 31.4542 18.0873 31.11 18.4314L30.5939 18.7755L30.4218 18.9476C30.5939 18.9476 30.4218 19.1196 30.5939 19.2917Z" fill="#382011"/>
<path d="M23.0236 35.6373C22.6795 35.8094 22.5075 36.1535 22.3354 36.3256C22.1633 36.4976 21.9913 37.0138 22.1633 37.1859C22.3354 37.53 22.6795 37.702 22.6795 38.0462C22.8516 38.3903 22.8516 38.7344 22.6795 39.2506C22.5075 39.5947 22.3354 39.9388 22.1633 40.2829C22.1633 40.455 22.1633 40.627 22.1633 40.627C22.3354 40.7991 22.5075 40.9712 22.5075 41.1432C22.5075 41.4873 22.3354 41.8314 21.9913 42.0035C21.6472 42.1756 21.303 42.3476 21.303 42.6917C21.303 42.3476 21.6472 42.1756 21.9913 41.8314C22.3354 41.6594 22.5075 41.3153 22.5075 40.9711C22.5075 40.7991 22.3354 40.7991 22.1633 40.627C21.8192 40.7991 21.8192 40.455 21.8192 40.2829C21.9913 39.9388 22.1633 39.5947 22.3354 39.2506C22.5075 38.9064 22.5075 38.5623 22.3354 38.2182C22.1633 37.8741 21.9913 37.53 21.8192 37.3579C21.6472 37.1859 21.6472 37.0138 21.8192 36.8417C21.8192 36.6697 21.9913 36.4976 22.1633 36.3256C22.3354 36.1535 22.6795 35.9814 23.0236 35.6373Z" fill="#472B1B"/>
<path d="M62.0807 50.0902C61.0483 49.9181 60.016 49.574 58.9836 48.8858C58.4674 48.5416 58.1233 48.3696 57.6071 47.8534C57.263 47.5093 56.9189 46.9931 56.5748 46.4769L57.7792 47.5093C58.1233 47.8534 58.6395 48.1975 58.9836 48.5416C60.188 49.4019 61.0483 49.9181 62.0807 50.0902Z" fill="#3D5777"/>
<path d="M20.7858 30.4756L20.2696 30.6476C20.0976 30.6476 19.9255 30.8197 19.9255 30.9918C19.9255 31.1638 20.0976 31.68 20.0976 32.0241C20.0976 32.1962 20.0976 32.3682 19.9255 32.5403C19.7535 32.7124 19.5814 32.7123 19.4094 32.7123C19.4094 32.7123 19.4094 32.7123 19.2373 32.7123V32.8844V33.4006L18.377 33.7447C18.2049 33.7447 18.2049 33.9168 18.2049 34.0888C18.2049 34.2609 18.2049 34.4329 18.0329 34.605C17.8608 34.7771 17.5167 34.9491 17.1726 34.9491C16.8285 34.9491 16.4844 34.9491 16.3123 34.605C16.4844 34.7771 16.8285 34.9491 17.1726 34.7771C17.5167 34.7771 17.6888 34.605 17.8608 34.4329C17.8608 34.2609 18.0329 34.2609 18.0329 34.0888C18.0329 34.0888 18.0329 33.9168 18.0329 33.7447C18.0329 33.5726 18.2049 33.5726 18.2049 33.5726L19.0652 33.2285V33.4006V32.8844C19.0652 32.7123 19.0652 32.7124 19.0652 32.5403C19.0652 32.3682 19.2373 32.3682 19.4094 32.3682C19.7535 32.3682 19.9255 32.1962 19.9255 31.8521C19.9255 31.5079 19.9255 31.1638 19.9255 30.8197C20.0976 30.6476 20.2696 30.6476 20.4417 30.4756H20.7858Z" fill="#382011"/>
<path d="M37.1331 24.9696C37.6493 25.1417 37.9934 25.4858 38.1655 25.8299C38.3375 26.3461 38.3375 26.6902 38.1655 27.2064V27.0343C38.3375 27.0343 38.3375 27.0343 38.5096 27.0343C38.6816 27.0343 38.8537 27.0343 38.8537 27.2064C39.0257 27.5505 39.0257 27.8946 39.0257 28.2387V28.0667C39.1978 28.0667 39.5419 28.2387 39.714 28.4108C39.886 28.5828 39.886 28.927 39.886 29.099C39.886 29.2711 39.886 29.6152 39.886 29.7873C39.886 29.9593 39.886 29.9593 40.0581 29.9593C40.2302 29.9593 40.2302 29.9593 40.4022 29.9593L40.2302 30.9917V31.1637L40.4022 31.3358L40.9184 31.5078H40.2302C40.0581 31.5078 40.0581 31.5078 39.886 31.3358C39.886 31.1637 39.886 31.1637 39.886 30.9917L40.0581 29.9593C40.0581 29.9593 39.886 29.9593 39.714 29.9593C39.5419 29.9593 39.3699 29.7873 39.3699 29.6152C39.3699 29.4431 39.3699 29.099 39.3699 28.927C39.3699 28.7549 39.3699 28.5828 39.1978 28.4108C39.0257 28.2387 38.8537 28.2387 38.6816 28.2387H38.5096V28.0667C38.5096 27.8946 38.5096 27.5505 38.3375 27.3784C38.3375 27.3784 38.1655 27.2064 37.9934 27.2064C37.8213 27.2064 37.6493 27.2064 37.4772 27.2064C37.6493 26.8623 37.6493 26.3461 37.6493 25.8299C37.9934 25.4858 37.6493 25.1417 37.1331 24.9696Z" fill="#382011"/>
<path d="M28.529 19.2918C28.529 19.1198 28.357 18.9477 28.1849 18.7756C28.0128 18.6036 28.0128 18.4315 27.8408 18.0874C27.6687 17.5712 27.6687 17.2271 27.8408 16.7109C27.8408 17.2271 27.8408 17.5712 28.0128 17.9154C28.0128 18.0874 28.1849 18.2595 28.1849 18.6036C28.529 18.7756 28.529 19.1198 28.529 19.2918Z" fill="#472B1B"/>
<path d="M34.0352 19.4639C34.5514 19.1198 35.0676 18.6036 35.5837 18.0874C36.0999 17.5712 36.272 17.0551 36.444 16.3668C36.444 16.7109 36.444 17.0551 36.272 17.3992C36.0999 17.7433 35.9278 18.0874 35.7558 18.2595C35.2396 18.7756 34.7234 19.2918 34.0352 19.4639Z" fill="#472B1B"/>
<path d="M33.5188 19.6359C33.8629 19.6359 34.035 19.4638 34.3791 19.2918C34.7232 19.1197 34.8953 18.9476 35.2394 18.9476C35.7556 18.6035 36.2717 18.2594 36.7879 17.9153C36.4438 18.4315 35.9276 18.7756 35.4115 19.1197C34.8953 19.4638 34.207 19.6359 33.5188 19.6359Z" fill="#5B3925"/>
<path d="M31.6264 19.1198C31.7985 18.7757 32.1426 18.4316 32.3147 18.0875C32.4867 17.9154 32.6588 17.7434 32.6588 17.7434C32.8308 17.5713 32.8308 17.3992 33.0029 17.2272C33.175 17.3992 33.175 17.7434 33.0029 17.9154C32.8308 18.0875 32.8308 18.2595 32.6588 18.4316C32.4867 18.7757 32.1426 18.9478 31.6264 19.1198Z" fill="#472B1B"/>
<path d="M30.0777 18.9476C29.9056 18.4314 29.9056 17.9152 29.9056 17.3991C29.9056 17.227 29.9056 16.8829 29.9056 16.7108C29.9056 16.5388 29.9056 16.1946 29.7336 16.0226C29.9056 16.1946 30.0777 16.3667 30.2498 16.7108C30.2498 16.8829 30.2498 17.227 30.2498 17.5711C30.2498 17.9152 30.2498 18.6035 30.0777 18.9476Z" fill="#5B3925"/>
<path d="M22.1628 19.2918C21.6466 18.6036 21.4745 17.9154 21.8187 17.2271C21.8187 17.0551 21.9907 16.7109 22.1628 16.5389L22.3348 16.3668C21.9907 16.5389 21.8187 16.7109 21.4746 17.0551C21.3025 17.2271 21.3025 17.3992 21.1304 17.7433C20.9584 18.4315 21.1304 19.2918 21.4746 19.808C22.1628 20.6683 23.1951 21.5286 24.2275 22.2168H24.3995C24.5716 22.2168 24.5716 22.0448 24.7437 21.8727C24.7437 21.7006 24.7437 21.5286 24.5716 21.5286H24.7437C23.8834 20.8404 22.851 20.1521 22.1628 19.2918Z" fill="#391B0D"/>
<path d="M25.0884 20.4963C24.2281 20.3242 23.5398 19.9801 23.0237 19.4639C22.6795 19.1198 22.5075 18.7757 22.3354 18.4316C22.1634 18.0875 22.1634 17.5713 22.3354 17.2272C22.5075 17.9154 22.8516 18.6036 23.3678 19.1198C23.7119 19.636 24.4001 19.9801 25.0884 20.4963Z" fill="#472B1B"/>
<path d="M27.1525 19.2918C26.4643 18.9477 25.7761 18.4315 25.4319 17.7433C25.2599 17.3992 25.0878 17.0551 25.0878 16.7109C25.0878 16.5389 25.0878 16.3668 25.0878 16.1948C25.0878 16.0227 25.0878 16.0227 25.0878 15.8506C25.0878 15.8506 25.0878 15.6786 25.2599 15.6786C25.4319 15.6786 25.2599 15.8506 25.2599 15.8506V16.1948C25.2599 16.3668 25.2599 16.5389 25.4319 16.7109C25.604 17.0551 25.7761 17.3992 25.9481 17.5712C26.2922 18.0874 26.6364 18.6036 27.1525 19.2918Z" fill="#5B3925"/>
<path d="M37.9921 16.0226C38.1642 16.3667 38.1642 16.8829 37.9921 17.3991C37.4759 18.0873 36.7877 18.7755 35.9274 19.2917C35.5833 19.4638 35.2392 19.8079 34.895 20.152C34.723 20.3241 34.5509 20.6682 34.3789 20.8402C34.5509 21.0123 34.5509 21.5285 34.723 21.5285C34.895 21.5285 35.2392 20.8402 35.4112 20.8402L36.4436 19.9799C37.3039 19.4638 37.9921 18.7755 38.5083 18.0873C38.6803 17.3991 38.6803 16.5388 37.9921 16.0226Z" fill="#391B0D"/>
</g>
</svg>
