<svg width="64" height="64" viewBox="0 0 64 64" fill="none" xmlns="http://www.w3.org/2000/svg">
<g clip-path="url(#clip0_642_7441)">
<path d="M17.7256 35.6164C19.2955 36.6549 21.1363 37.2086 23.0186 37.2086C24.901 37.2086 26.7417 36.6549 28.3116 35.6164C27.6792 33.9171 26.8331 32.3052 25.7937 30.8195C25.1125 29.8647 24.4984 28.8638 23.9559 27.8239C22.7178 25.3228 22.0881 18.5647 22.118 15.7741V13.3114H13.6823V15.7741C13.7122 18.5647 13.0825 25.3228 11.8445 27.8239C11.3019 28.8638 10.6878 29.8647 10.0066 30.8195C9.03573 32.2081 8.2337 33.7073 7.61743 35.2856C9.1666 34.3959 10.933 33.9556 12.7185 34.014C14.504 34.0725 16.2379 34.6273 17.7256 35.6164Z" fill="#BBDAFC"/>
<path d="M15.4466 31.0216C15.892 30.0448 16.2846 29.0448 16.6228 28.0259C17.4642 25.4261 17.8861 18.7087 17.8726 15.9761V13.348H13.6271V15.8107C13.6571 18.6013 13.0273 25.3595 11.7893 27.8605C11.2467 28.9004 10.6326 29.9014 9.95144 30.8562C8.98055 32.2447 8.17852 33.744 7.56226 35.3222C9.59597 34.1311 11.9975 33.7319 14.3071 34.2011C14.6334 33.1156 15.0325 32.0534 15.5018 31.0216H15.4466Z" fill="#9CC5FA"/>
<path d="M22.0812 8.07336H13.6088C13.0775 8.07336 12.5679 8.2844 12.1922 8.66009C11.8166 9.03577 11.6055 9.54532 11.6055 10.0766V11.9145C11.6055 12.4458 11.8166 12.9553 12.1922 13.331C12.5679 13.7067 13.0775 13.9177 13.6088 13.9177H22.0812C22.6125 13.9177 23.1221 13.7067 23.4978 13.331C23.8734 12.9553 24.0845 12.4458 24.0845 11.9145V10.0766C24.0845 9.54532 23.8734 9.03577 23.4978 8.66009C23.1221 8.2844 22.6125 8.07336 22.0812 8.07336Z" fill="#E1F1FF"/>
<path d="M16.2736 11.8411V10.0032C16.2736 9.47195 16.4847 8.96241 16.8604 8.58672C17.2361 8.21104 17.7456 8 18.2769 8H13.6088C13.0775 8 12.5679 8.21104 12.1922 8.58672C11.8166 8.96241 11.6055 9.47195 11.6055 10.0032V11.8411C11.6055 12.3724 11.8166 12.8819 12.1922 13.2576C12.5679 13.6333 13.0775 13.8443 13.6088 13.8443H18.2953C17.764 13.8443 17.2544 13.6333 16.8787 13.2576C16.5031 12.8819 16.292 12.3724 16.292 11.8411H16.2736Z" fill="#BBDAFC"/>
<path d="M17.8542 35.1017C16.344 34.0593 14.5524 33.501 12.7173 33.501C10.8823 33.501 9.09075 34.0593 7.58058 35.1017C6.542 37.6844 6.00553 40.4414 6 43.225V60.997C6 61.85 6.33887 62.6681 6.94203 63.2712C7.54519 63.8744 8.36324 64.2133 9.21624 64.2133H26.4737C27.3267 64.2133 28.1447 63.8744 28.7479 63.2712C29.351 62.6681 29.6899 61.85 29.6899 60.997V43.225C29.6949 40.4463 29.158 37.6933 28.1093 35.1201C26.6049 36.1684 24.8153 36.7304 22.9817 36.7304C21.1481 36.7304 19.3585 36.1684 17.8542 35.1201V35.1017Z" fill="#EEF9FC"/>
<path d="M12.9103 61.1073V43.3353C12.9024 40.6005 13.2483 37.8763 13.9395 35.2304C14.0866 34.679 14.252 34.146 14.4174 33.6131C13.2398 33.3846 12.0283 33.3937 10.8543 33.6399C9.68026 33.8861 8.56725 34.3643 7.58058 35.0466C6.542 37.6292 6.00553 40.3862 6 43.1699V60.9419C6 61.7949 6.33887 62.6129 6.94203 63.2161C7.54519 63.8193 8.36324 64.1581 9.21624 64.1581H14.3439C13.859 63.8194 13.4714 63.3594 13.2199 62.824C12.9683 62.2887 12.8616 61.6968 12.9103 61.1073Z" fill="#C2DDF1"/>
<g filter="url(#filter0_i_642_7441)">
<path d="M31 35.16C31 35.16 39.8193 36.32 45.5 36.32C51.1807 36.32 60 35.16 60 35.16L55.6316 62.199C55.4751 63.1679 54.6386 63.88 53.6572 63.88H37.3428C36.3614 63.88 35.5249 63.1679 35.3684 62.199L31 35.16Z" fill="#E0EFF8"/>
</g>
<ellipse cx="45.5" cy="44.24" rx="11.02" ry="1.16" fill="#EEF9FC"/>
<ellipse cx="45.5" cy="35.16" rx="14.5" ry="1.16" fill="#EEF9FC"/>
<path d="M34.48 44.24C34.48 44.24 41.1021 45.4 45.5 45.4C49.8979 45.4 56.52 44.24 56.52 44.24L54.0491 59.8722C53.8955 60.8442 53.0577 61.56 52.0737 61.56H38.9263C37.9423 61.56 37.1044 60.8442 36.9508 59.8722L34.48 44.24Z" fill="white"/>
<path d="M38 47C38.1667 49 38.7 53.4 39.5 55" stroke="#E0EFF8" stroke-linecap="round"/>
<circle cx="40.5" cy="57.38" r="0.5" fill="#E0EFF8"/>
</g>
<defs>
<filter id="filter0_i_642_7441" x="31" y="35.16" width="29" height="28.72" filterUnits="userSpaceOnUse" color-interpolation-filters="sRGB">
<feFlood flood-opacity="0" result="BackgroundImageFix"/>
<feBlend mode="normal" in="SourceGraphic" in2="BackgroundImageFix" result="shape"/>
<feColorMatrix in="SourceAlpha" type="matrix" values="0 0 0 0 0 0 0 0 0 0 0 0 0 0 0 0 0 0 127 0" result="hardAlpha"/>
<feOffset dx="1.5" dy="-1.5"/>
<feComposite in2="hardAlpha" operator="arithmetic" k2="-1" k3="1"/>
<feColorMatrix type="matrix" values="0 0 0 0 0.592157 0 0 0 0 0.72549 0 0 0 0 0.839216 0 0 0 0.2 0"/>
<feBlend mode="normal" in2="shape" result="effect1_innerShadow_642_7441"/>
</filter>
<clipPath id="clip0_642_7441">
<rect width="64" height="64" fill="white"/>
</clipPath>
</defs>
</svg>
