<svg width="64" height="64" viewBox="0 0 64 64" fill="none" xmlns="http://www.w3.org/2000/svg">
<ellipse cx="31.2208" cy="40.5231" rx="27.5167" ry="3.70417" fill="white"/>
<path fill-rule="evenodd" clip-rule="evenodd" d="M58.3917 40.9982C61.623 40.2523 63.5 39.3623 63.5 38.4065C63.5 35.7763 49.285 33.644 31.75 33.644C14.215 33.644 0 35.7763 0 38.4065C0 39.2034 1.30468 39.9545 3.6111 40.6145C6.83098 39.0377 17.7353 37.8774 30.6917 37.8774C44.6782 37.8774 56.2735 39.2296 58.3917 40.9982Z" fill="#97B9D6"/>
<path d="M56.0509 37.6665C56.0867 37.3698 56.0867 37.0698 56.0509 36.7731V27.84L6.02516 30.3412V39.5424C5.99894 39.762 5.99894 39.9839 6.02516 40.2035C6.61475 44.277 31.4132 47.1356 44.6701 45.206C52.6385 44.0447 55.5864 40.8288 55.9437 37.9166V37.72L56.0509 37.6665Z" fill="#ED9370"/>
<path d="M6.09707 36.7012C6.09707 36.7012 6.09707 36.7012 6.09707 36.8441C6.68666 40.9176 31.4851 43.7762 44.742 41.8467C52.7104 40.6853 55.6583 37.4694 56.0156 34.5572V30.1263L5.98987 32.6276L6.09707 36.7012Z" fill="#D36F50"/>
<path d="M6.09707 34.3607C6.09707 34.3607 6.09707 34.3607 6.09707 34.5036C6.68666 38.5772 31.4851 41.4358 44.742 39.5062C52.7104 38.3449 55.6583 35.129 56.0156 32.2167V27.7859L5.98987 30.2872L6.09707 34.3607Z" fill="#ED9370"/>
<path d="M54.0504 23.6946C57.3378 26.178 57.9631 33.7712 44.7242 35.7007C31.4852 37.6303 6.66888 34.7717 6.07929 30.6982C5.4897 26.6246 13.2258 28.3219 26.5184 26.3924C39.8109 24.4628 44.9565 16.816 54.0504 23.6946Z" fill="#A51E17"/>
<path d="M54.051 23.6945C44.957 16.816 39.7579 24.4449 26.5189 26.3923C16.2101 27.8931 9.20646 27.1963 6.86597 28.7328C11.3147 32.181 32.7186 34.3429 44.7069 32.6098C51.8534 31.5557 54.9622 28.8758 55.784 26.2315C55.4813 25.2276 54.8761 24.3416 54.051 23.6945Z" fill="#CE2C24"/>
<path d="M40.1687 28.5897C42.2507 28.5897 43.9385 28.0778 43.9385 27.4463C43.9385 26.8148 42.2507 26.3029 40.1687 26.3029C38.0867 26.3029 36.3989 26.8148 36.3989 27.4463C36.3989 28.0778 38.0867 28.5897 40.1687 28.5897Z" fill="#ED9370"/>
<path d="M40.0968 27.8754C41.1032 27.8754 41.9191 27.6275 41.9191 27.3216C41.9191 27.0157 41.1032 26.7677 40.0968 26.7677C39.0903 26.7677 38.2744 27.0157 38.2744 27.3216C38.2744 27.6275 39.0903 27.8754 40.0968 27.8754Z" fill="#EFBEAF"/>
<path d="M24.0707 30.2154C24.7515 30.2154 25.3034 29.9994 25.3034 29.733C25.3034 29.4666 24.7515 29.2506 24.0707 29.2506C23.3898 29.2506 22.8379 29.4666 22.8379 29.733C22.8379 29.9994 23.3898 30.2154 24.0707 30.2154Z" fill="#A51E17"/>
<path d="M46.3143 26.1596C46.9952 26.1596 47.5471 25.9436 47.5471 25.6772C47.5471 25.4108 46.9952 25.1948 46.3143 25.1948C45.6335 25.1948 45.0815 25.4108 45.0815 25.6772C45.0815 25.9436 45.6335 26.1596 46.3143 26.1596Z" fill="#A51E17"/>
<path d="M29.5199 29.305C29.9343 29.305 30.2703 29.177 30.2703 29.0191C30.2703 28.8613 29.9343 28.7333 29.5199 28.7333C29.1055 28.7333 28.7695 28.8613 28.7695 29.0191C28.7695 29.177 29.1055 29.305 29.5199 29.305Z" fill="#A51E17"/>
<path d="M36.9163 25.5529C37.2617 25.5529 37.5417 25.4409 37.5417 25.3027C37.5417 25.1646 37.2617 25.0526 36.9163 25.0526C36.571 25.0526 36.291 25.1646 36.291 25.3027C36.291 25.4409 36.571 25.5529 36.9163 25.5529Z" fill="#A51E17"/>
<path d="M41.508 30.8229C41.9224 30.8229 42.2583 30.695 42.2583 30.5371C42.2583 30.3792 41.9224 30.2512 41.508 30.2512C41.0935 30.2512 40.7576 30.3792 40.7576 30.5371C40.7576 30.695 41.0935 30.8229 41.508 30.8229Z" fill="#A51E17"/>
<path d="M49.6186 22.8012C49.6186 23.4266 47.9392 22.8012 45.7595 22.8012C43.5798 22.8012 41.7753 23.3908 41.7753 22.8012C41.7753 22.2117 43.5619 21.6757 45.688 21.6757C47.8141 21.6757 49.6186 22.1759 49.6186 22.8012Z" fill="#EA7373"/>
<path d="M14.8337 29.0719C14.8337 29.6972 13.1721 29.3042 11.0103 29.5364C8.84845 29.7687 7.11541 30.5727 7.04395 29.9473C6.97248 29.322 8.65192 28.6252 10.8137 28.393C12.9756 28.1607 14.7622 28.4466 14.8337 29.0719Z" fill="#EA7373"/>
<path d="M50.6205 23.6588C50.7882 23.6588 50.9242 23.5229 50.9242 23.3551C50.9242 23.1874 50.7882 23.0514 50.6205 23.0514C50.4528 23.0514 50.3168 23.1874 50.3168 23.3551C50.3168 23.5229 50.4528 23.6588 50.6205 23.6588Z" fill="#EA7373"/>
<path d="M51.9603 24.2843C52.1478 24.2843 52.2998 24.1323 52.2998 23.9448C52.2998 23.7573 52.1478 23.6053 51.9603 23.6053C51.7728 23.6053 51.6208 23.7573 51.6208 23.9448C51.6208 24.1323 51.7728 24.2843 51.9603 24.2843Z" fill="#EA7373"/>
<path d="M22.9694 27.3654C23.3266 27.3519 23.6918 27.3279 24.0634 27.294M40.4975 18.973C40.1262 20.01 39.306 21.0177 38.1822 21.9538M38.1822 21.9538C38.3658 21.327 38.7146 19.8615 38.6414 19.015M38.1822 21.9538C38.7227 21.7715 40.0984 21.1926 41.2777 20.3351M38.1822 21.9538C37.9842 22.1188 37.7768 22.2816 37.5607 22.4419M37.5607 22.4419C38.3236 22.2733 40.1162 21.9285 41.1837 21.8986M37.5607 22.4419C36.9318 22.9084 36.2298 23.3543 35.4743 23.7737M35.4743 23.7737C36.6485 23.7534 39.2749 23.7181 40.3875 23.7394M35.4743 23.7737C35.2639 23.8905 35.0494 24.0052 34.8311 24.1178M34.8311 24.1178C35.4458 23.1846 36.7154 21.0775 36.8767 20.1152M34.8311 24.1178C34.2591 24.4129 33.6615 24.6931 33.0459 24.9561M33.0459 24.9561C33.8235 24.8837 35.7472 24.8466 37.2213 25.278M33.0459 24.9561C33.5832 24.4122 34.6533 23.0094 34.636 21.7491M33.0459 24.9561C32.3857 25.2383 31.7047 25.5008 31.0126 25.7408M29.1092 26.3365C29.8468 25.7813 31.5732 24.3355 32.5781 22.9939M29.1092 26.3365C29.7482 26.1577 30.385 25.9585 31.0126 25.7408M29.1092 26.3365C28.5348 26.4973 27.9586 26.6415 27.3857 26.7677M31.0126 25.7408C31.6277 25.8059 33.0647 26.0272 33.8911 26.3919M27.3857 26.7677C28.1993 26.736 29.942 26.6847 30.4047 26.7323M27.3857 26.7677C26.9654 26.8603 26.5468 26.9432 26.132 27.0158M26.132 27.0158C26.838 27.061 28.6966 27.3955 30.4828 28.3718M26.132 27.0158C25.4282 27.1391 24.7354 27.2327 24.0634 27.294M24.0634 27.294C24.7245 27.2486 26.3853 27.5655 27.739 29.1964" stroke="#048970" stroke-width="0.824914" stroke-linecap="round" stroke-linejoin="round"/>
<path d="M7.90304 45.3434L2.1167 40.0466C2.1167 40.0466 13.2292 42.3223 31.75 42.3223C50.2709 42.3223 61.3834 40.0997 61.3834 40.0997L56.288 45.1101C55.4604 45.9239 54.4724 46.5572 53.3498 46.8519C50.4225 47.6204 43.5509 48.9897 31.75 48.9897C19.6871 48.9897 13.0609 47.5589 10.3987 46.8016C9.45581 46.5334 8.6261 46.0053 7.90304 45.3434Z" fill="#D1E1EE" stroke="#D1E1EE" stroke-width="1.05833"/>
<path opacity="0.4" d="M35.9834 46.3438C29.6334 46.873 17.1451 46.4497 11.6417 44.7563" stroke="#97B9D6" stroke-width="1.05833" stroke-linecap="round"/>
</svg>
