<svg width="64" height="64" viewBox="0 0 64 64" fill="none" xmlns="http://www.w3.org/2000/svg">
<g clip-path="url(#clip0_808_24298)">
<ellipse cx="30.881" cy="37.8332" rx="27.5167" ry="3.70417" fill="white"/>
<path fill-rule="evenodd" clip-rule="evenodd" d="M58.0519 38.3083C61.2831 37.5624 63.1602 36.6724 63.1602 35.7166C63.1602 33.0863 48.9452 30.9541 31.4102 30.9541C13.8751 30.9541 -0.339844 33.0863 -0.339844 35.7166C-0.339844 36.5135 0.964838 37.2646 3.27126 37.9246C6.49114 36.3478 17.3955 35.1874 30.3518 35.1874C44.3384 35.1874 55.9336 36.5396 58.0519 38.3083Z" fill="#F5CA62"/>
<path d="M18.4824 27.7879C18.3029 27.4095 15.0649 25.2723 16.3501 22.9757C17.6353 20.6792 19.7099 22.1301 21.6042 21.3902C23.7169 20.5749 24.2337 18.5032 26.7174 19.9972C28.6943 21.2315 27.0507 23.8071 28.0797 24.8879C29.1087 25.9688 30.6344 25.5201 31.1887 27.3517C31.743 29.1834 28.3231 31.2726 28.8901 33.2495C29.9933 36.9808 31.1185 41.7347 27.9743 42.4714C24.8302 43.2081 23.1387 38.6726 22.8542 35.4213C22.603 32.5499 19.7414 33.8135 18.3966 31.8259C17.1298 30.2142 19.3037 29.326 18.5087 27.8306L18.4824 27.7879Z" fill="#0ACB81"/>
<path d="M25.3569 21.4334C25.1155 21.3758 24.8945 21.5527 24.8437 21.8724C24.7908 22.4882 24.6071 23.0855 24.3048 23.6245C24.0024 24.1636 23.5885 24.6318 23.0906 24.9979L22.3975 22.4805C22.3819 22.4205 22.3546 22.3641 22.3173 22.3147C22.2799 22.2652 22.2332 22.2236 22.1797 22.1922C22.1263 22.1608 22.0672 22.1403 22.0058 22.1317C21.9444 22.1232 21.8819 22.1268 21.8219 22.1424C21.7619 22.158 21.7056 22.1853 21.6561 22.2226C21.6067 22.26 21.5651 22.3067 21.5337 22.3602C21.5023 22.4136 21.4817 22.4728 21.4732 22.5341C21.4646 22.5955 21.4683 22.658 21.4839 22.718L22.1589 25.1583C21.2286 24.969 20.3458 24.5944 19.5632 24.0569C19.2992 23.8891 19.0492 23.7002 18.8158 23.4918C18.774 23.4485 18.723 23.415 18.6666 23.3939C18.6103 23.3728 18.5499 23.3645 18.4899 23.3698C18.4299 23.375 18.3718 23.3936 18.32 23.4242C18.2681 23.4548 18.2237 23.4966 18.1901 23.5466C18.123 23.6402 18.0916 23.7548 18.1017 23.8695C18.1117 23.9843 18.1625 24.0917 18.2449 24.1722C18.5378 24.3983 18.8454 24.6046 19.1658 24.7897C20.1482 25.5315 21.3249 25.9722 22.5529 26.0583L22.8853 27.155C22.9168 27.2762 22.9951 27.3798 23.1031 27.4432C23.211 27.5066 23.3397 27.5245 23.4609 27.493C23.5821 27.4615 23.6857 27.3832 23.7491 27.2753C23.8125 27.1673 23.8304 27.0386 23.7989 26.9175L23.4777 25.8197C24.1626 25.4661 24.7354 24.9286 25.132 24.2677C25.1302 24.247 25.1367 24.2263 25.1501 24.2104C25.1635 24.1944 25.1827 24.1845 25.2034 24.1826C25.6127 23.4969 25.8647 22.7289 25.9411 21.934C25.91 21.7903 25.8375 21.6588 25.7324 21.556C25.6273 21.4531 25.4944 21.3833 25.3501 21.3552L25.3569 21.4334Z" fill="#07AA7C" stroke="#0ACB81" stroke-width="0.25"/>
<path d="M23.4139 38.5511C22.1561 37.7663 22.4422 35.8717 22.9633 34.7169C23.4844 33.562 25.4462 32.2658 25.3435 30.77C25.2408 29.2742 24.0402 27.4888 25.314 25.5328C26.7936 23.1459 28.3701 23.8665 29.6051 23.0609C31.1038 22.0155 30.9784 18.7923 33.4261 18.6989C35.4723 18.6119 35.6302 20.1463 37.1772 21.613C38.7243 23.0796 40.9571 22.1786 41.7323 24.337C42.8969 27.4252 40.3802 28.2233 38.0914 28.7155C35.8025 29.2076 37.4708 31.2247 35.576 33.1291C33.6811 35.0335 31.3917 33.2387 30.6161 34.5029C29.5409 35.8038 27.2431 41.0407 23.4139 38.5511Z" fill="#048970"/>
<path d="M39.5674 24.5737C39.4963 24.4762 39.3933 24.4068 39.2763 24.3774C39.1593 24.348 39.0357 24.3605 38.927 24.4128C37.8528 24.9883 36.6412 25.2577 35.4244 25.1915L36.8975 23.0876C36.962 22.986 36.9861 22.864 36.9653 22.7455C36.9444 22.627 36.8799 22.5206 36.7846 22.4472C36.6822 22.3819 36.5593 22.3566 36.4394 22.3763C36.3196 22.3959 36.2112 22.4591 36.135 22.5537L34.7069 24.5932C33.9996 23.5994 33.7023 22.3714 33.8768 21.1641C33.8949 21.1036 33.8993 21.0397 33.8897 20.9773C33.8802 20.9148 33.8568 20.8553 33.8214 20.8029C33.7859 20.7506 33.7393 20.7068 33.6848 20.6747C33.6304 20.6426 33.5695 20.623 33.5066 20.6174C33.2236 20.6109 32.9598 20.7138 32.9534 20.9968C32.8373 21.7762 32.881 22.5711 33.0818 23.3331C33.2826 24.0951 33.6363 24.8083 34.1215 25.4293C33.3624 26.5133 32.4103 27.7362 31.484 29.0591C27.2962 34.4924 25.3628 36.1781 24.4881 36.6061C24.4274 36.6266 24.3716 36.6595 24.3244 36.7027C24.2771 36.746 24.2394 36.7986 24.2137 36.8573C24.188 36.9159 24.1748 36.9793 24.175 37.0434C24.1752 37.1074 24.1888 37.1707 24.2149 37.2292C24.241 37.2877 24.279 37.3401 24.3265 37.383C24.374 37.426 24.43 37.4586 24.4908 37.4786C24.5516 37.4987 24.616 37.5058 24.6797 37.4995C24.7435 37.4933 24.8052 37.4738 24.861 37.4423L24.906 37.378C26.344 36.6735 28.8463 34.058 32.1914 29.5544C33.1407 28.316 34.0349 27.039 34.8197 25.9182C36.0576 26.1106 37.3241 25.9843 38.4996 25.5512C38.8419 25.4358 39.1717 25.2859 39.4837 25.1038C39.7024 25.0653 39.7539 24.718 39.606 24.5186L39.5674 24.5737Z" fill="#027168" stroke="#048970" stroke-width="0.25"/>
<path d="M19.3549 42.2395C20.0837 41.8305 20.7074 41.2575 21.1764 40.5657C21.6455 39.8739 21.947 39.0825 22.0572 38.254C22.0572 34.6513 19.9978 33.503 19.6547 32.2834C19.1125 30.4619 20.5012 29.0908 19.6459 27.6795C18.3185 25.3751 16.2257 27.1906 15.2147 26.187C13.8523 24.8989 14.9742 22.5379 12.4773 21.6643C10.5371 20.9784 10.0575 22.574 8.3588 23.7471C6.66011 24.9202 4.5972 23.6033 3.51342 25.4995C1.94962 28.2145 4.32871 29.4136 6.43463 30.3214C8.30341 31.0923 6.65163 32.8018 8.24471 34.9253C9.83779 37.0489 12.3084 35.8195 12.9377 37.0929C13.567 38.3663 15.1687 43.9342 19.3213 42.2424L19.3549 42.2395Z" fill="#048970"/>
<path d="M12.3208 23.4794C12.2015 23.4953 12.0925 23.5552 12.0151 23.6474C11.9378 23.7396 11.8977 23.8573 11.9028 23.9775C12.002 25.3971 11.7389 26.8186 11.1383 28.1087C10.8807 27.7372 8.84962 25.1115 8.76457 25.0402C8.69488 24.9433 8.58955 24.878 8.47174 24.8587C8.35393 24.8395 8.23331 24.8678 8.13639 24.9375C8.03948 25.0072 7.97421 25.1125 7.95496 25.2303C7.93571 25.3481 7.96405 25.4688 8.03374 25.5657C8.03374 25.5657 8.55341 26.2295 9.29373 27.0992C8.60413 27.253 7.88899 27.252 7.19982 27.0962C6.51066 26.9404 5.86463 26.6337 5.30827 26.1982C5.26648 26.1548 5.21552 26.1214 5.15913 26.1002C5.10273 26.0791 5.04235 26.0709 4.98236 26.0762C4.92237 26.0814 4.86432 26.1 4.81245 26.1306C4.76058 26.1612 4.71621 26.203 4.68259 26.2529C4.6138 26.3438 4.58121 26.457 4.59114 26.5705C4.60108 26.6841 4.65283 26.7899 4.73636 26.8674C5.4471 27.4501 6.29013 27.8491 7.19129 28.0294C8.09245 28.2097 9.02412 28.1657 9.90431 27.9014C11.8907 30.4204 13.6349 33.1213 15.1134 35.9682C15.165 36.0869 15.2612 36.1807 15.3813 36.2292C15.5014 36.2776 15.6357 36.2769 15.7553 36.2273C15.8665 36.1859 15.9567 36.1023 16.0064 35.9945C16.056 35.8868 16.061 35.7638 16.0202 35.6524C15.4887 34.5817 14.9015 33.5395 14.2609 32.5302C14.3968 32.2819 14.6109 32.0267 14.7468 31.7784C15.3666 30.6823 15.689 29.4432 15.682 28.184C15.6866 28.1161 15.6764 28.0481 15.6522 27.9846C15.628 27.9211 15.5903 27.8635 15.5418 27.8159C15.4932 27.7684 15.4349 27.7319 15.3709 27.7089C15.3069 27.686 15.2387 27.6772 15.171 27.6831C15.1033 27.689 15.0376 27.7095 14.9786 27.7432C14.9195 27.7769 14.8685 27.823 14.8289 27.8783C14.7894 27.9336 14.7622 27.9968 14.7494 28.0636C14.7366 28.1303 14.7384 28.1991 14.7547 28.2651C14.7556 29.4957 14.3995 30.7001 13.7295 31.7323C13.0941 30.7746 12.4432 29.8971 11.7689 29.0104C11.8403 28.9254 11.8344 28.8584 11.9058 28.7733C12.6428 27.296 12.958 25.6438 12.8165 23.9989C12.7823 23.6078 12.535 23.4831 12.3004 23.5037L12.3208 23.4794Z" fill="#027168" stroke="#048970" stroke-width="0.25"/>
<path d="M36.5416 26.8485C34.0985 27.5662 34.2244 31.2232 32.4384 32.6193C31.5531 33.1995 30.5615 33.5985 29.521 33.793C28.4805 33.9876 27.4118 33.9739 26.3766 33.7528C27.0779 34.9352 28.1353 35.8655 29.3973 36.4106C30.6594 36.9557 32.0616 37.0877 33.4032 36.7877C33.9735 36.7216 34.5298 36.5661 35.0516 36.3269C35.8916 36.7347 36.3997 37.9335 37.7635 37.814C40.0404 37.6311 40.0929 35.7569 41.3818 35.5831C42.4385 35.5163 43.3968 37.7575 45.5716 37.5577C47.3545 37.3793 47.378 35.837 47.6165 35.022C47.855 34.2069 50.7374 34.7457 50.5342 31.9735C50.5133 31.4681 50.3045 30.9887 49.9487 30.6292C49.5929 30.2697 49.1157 30.056 48.6105 30.0299C47.8363 29.9622 46.2143 30.5766 45.8373 29.5166C45.7663 29.3165 45.7282 29.1061 45.7246 28.8938C45.6888 28.4863 45.5629 28.0919 45.3559 27.739C45.2356 27.5241 45.0733 27.3355 44.8786 27.1844C44.684 27.0334 44.4609 26.923 44.2228 26.8598C42.8403 26.5557 42.5046 27.4816 40.7217 27.66C39.2609 27.978 38.7507 26.1661 36.5313 26.7839L36.5416 26.8485Z" fill="#0ACB81"/>
<path d="M46.365 33.9493C45.9111 33.8183 45.4493 33.7168 44.9825 33.6452C45.2207 33.199 45.5785 32.8278 46.0156 32.5733C46.2465 32.4821 46.326 32.2104 46.1843 31.9194C46.1344 31.8118 46.0439 31.7283 45.9326 31.6872C45.8213 31.6462 45.6983 31.6509 45.5905 31.7003C44.9084 32.119 44.3589 32.7223 44.0053 33.4403L42.6938 33.3256C41.9268 33.2796 41.1572 33.3436 40.4084 33.5157C41.0237 30.7594 42.7289 30.1045 42.8491 30.0036C42.959 29.943 43.0454 29.8473 43.0945 29.7318C43.1436 29.6163 43.1525 29.4877 43.1198 29.3665C43.0757 29.2538 42.9949 29.1593 42.8905 29.0982C42.7861 29.0371 42.6641 29.0129 42.5443 29.0296C42.4337 29.0199 40.0891 29.977 39.431 33.677C38.561 33.9783 37.7166 34.349 36.906 34.7855C36.2656 32.2776 37.8893 29.1875 37.9494 29.1371C38.0085 29.0225 38.0245 28.8906 37.9945 28.7653C37.9646 28.64 37.8907 28.5296 37.7863 28.4541C37.7325 28.4209 37.672 28.4001 37.6092 28.3932C37.5463 28.3863 37.4828 28.3934 37.4231 28.4141C37.3633 28.4348 37.309 28.4685 37.2639 28.5127C37.2188 28.557 37.1841 28.6108 37.1624 28.6702C37.0925 28.8312 35.1842 32.2626 36.093 35.1602C35.8707 35.2443 35.6903 35.3957 35.3993 35.5374C35.2917 35.5873 35.2082 35.6778 35.1671 35.789C35.1261 35.9003 35.1307 36.0233 35.1801 36.1312C35.2045 36.1838 35.2391 36.2311 35.2819 36.2702C35.3246 36.3094 35.3748 36.3397 35.4294 36.3592C35.484 36.3788 35.5419 36.3874 35.5998 36.3844C35.6577 36.3814 35.7145 36.3669 35.7667 36.3417C36.1179 36.1495 36.4089 36.0078 36.7773 35.8012C37.7669 35.2378 38.8101 34.7743 39.8916 34.4178C39.995 34.4189 39.995 34.4189 40.0551 34.3685C40.9088 34.1446 41.7923 34.0553 42.6735 34.104C43.8499 34.1738 45.0176 34.3505 46.1619 34.6321C46.2196 34.6516 46.2809 34.6579 46.3413 34.6504C46.4017 34.6429 46.4597 34.6218 46.5108 34.5888C46.5619 34.5558 46.6049 34.5116 46.6366 34.4596C46.6682 34.4076 46.6877 34.3491 46.6935 34.2885C46.6882 34.1916 46.6516 34.099 46.5892 34.0246C46.5268 33.9503 46.442 33.8981 46.3475 33.8761L46.365 33.9493Z" fill="#07AA7C" stroke="#0ACB81" stroke-width="0.25"/>
<path d="M11.2228 31.3887C9.65908 30.501 9.64932 29.4886 8.29085 29.1458C8.05416 29.0934 7.80921 29.0901 7.57117 29.1361C7.33313 29.1821 7.10707 29.2764 6.90696 29.4133C6.58395 29.6383 6.31374 29.9308 6.11508 30.2707C5.98352 30.4398 5.919 30.6031 5.77528 30.762C4.97656 31.5411 3.77061 30.2393 3.05053 29.9871C2.82051 29.8767 2.5708 29.8134 2.31599 29.8007C2.06119 29.7881 1.80641 29.8264 1.5666 29.9134C1.32678 30.0005 1.10674 30.1344 0.919358 30.3076C0.731976 30.4807 0.581019 30.6895 0.475328 30.9217C-0.882192 33.2921 1.99996 34.0645 1.94548 34.8573C1.89101 35.6502 1.20094 37.0278 2.77057 37.9825C4.74059 39.1386 6.55562 37.4937 7.45949 38.0451C8.64422 38.7183 7.73321 40.2728 9.70422 41.4401C10.8889 42.1133 12.1312 41.3854 13.0766 41.3815C16.4025 46.3257 21.5881 43.0574 21.5881 43.0574C20.6063 42.7433 19.6969 42.2364 18.9134 41.5665C18.1298 40.8966 17.4878 40.0771 17.0249 39.1559C15.9036 37.1487 17.5046 33.9577 15.5547 32.2594C13.7137 30.7767 12.5038 32.1322 11.2675 31.3848L11.2228 31.3887Z" fill="#0ACB81"/>
<path d="M10.9587 38.2793C11.16 36.24 10.7652 34.1861 9.8222 32.3668C9.75698 32.2609 9.65416 32.1835 9.53435 32.1502C9.41453 32.1168 9.28656 32.1299 9.176 32.1869C9.07656 32.2381 9.00124 32.3264 8.96631 32.4327C8.93137 32.5389 8.93962 32.6546 8.98926 32.7549C9.74491 34.1922 10.129 35.7957 10.1066 37.4194C9.32291 36.6479 8.39329 36.0403 7.3721 35.6321L7.35842 35.4757C7.18131 34.3888 6.70238 33.3735 5.97623 32.5456C5.94406 32.4932 5.90092 32.4484 5.84977 32.4142C5.79863 32.38 5.74069 32.3573 5.67995 32.3477C5.6192 32.338 5.55709 32.3416 5.49787 32.3582C5.43865 32.3749 5.38373 32.4041 5.33688 32.444C5.25511 32.5276 5.20742 32.6388 5.20308 32.7557C5.19874 32.8726 5.23807 32.987 5.31341 33.0765C5.839 33.7325 6.20329 34.5027 6.37703 35.3251C5.4043 35.0162 4.44373 34.7175 3.40787 34.4591C3.2911 34.4382 3.17084 34.4645 3.07337 34.5321C2.9759 34.5997 2.90916 34.7031 2.88777 34.8198C2.87752 34.8769 2.87874 34.9355 2.89133 34.9921C2.90393 35.0487 2.92764 35.1022 2.96112 35.1496C2.99459 35.1969 3.03716 35.2372 3.08633 35.2679C3.1355 35.2987 3.1903 35.3194 3.24753 35.3287C4.43445 35.5544 5.59592 35.8978 6.71471 36.3539C8.59185 37.209 10.1797 38.5918 11.2848 40.3336C11.5468 40.6259 11.7296 40.9138 11.9916 41.2061C11.9934 41.2269 12.0034 41.2461 12.0193 41.2594C12.0353 41.2728 12.0559 41.2793 12.0766 41.2775C12.1127 41.3247 12.1587 41.3634 12.2114 41.3907C12.2641 41.4181 12.3222 41.4334 12.3815 41.4358C12.4409 41.4381 12.5 41.4273 12.5547 41.4042C12.6094 41.3811 12.6583 41.3462 12.698 41.302L12.7693 41.2169C13.0506 40.84 13.3019 40.4416 13.5207 40.0253C14.1644 38.8901 14.4432 37.5844 14.3193 36.2852C14.3008 36.1641 14.2388 36.0538 14.1449 35.975C14.051 35.8962 13.9316 35.8543 13.809 35.8571L13.7308 35.8639C13.6181 35.8852 13.5183 35.9499 13.4528 36.044C13.3874 36.1382 13.3615 36.2543 13.3808 36.3674C13.4123 37.6896 13.0655 38.9933 12.3811 40.125C12.2892 39.9755 12.1191 39.8327 12.0384 39.6822C11.7503 39.1444 11.3887 38.6493 10.964 38.2113L10.9587 38.2793Z" fill="#07AA7C" stroke="#0ACB81" stroke-width="0.25"/>
<path d="M43.848 27.5466C43.7907 27.5151 43.745 27.4662 43.7174 27.407C43.6897 27.3478 43.6817 27.2813 43.6944 27.2172C43.7007 27.1331 43.7398 27.0547 43.8033 26.9991C43.8669 26.9435 43.9497 26.9151 44.0339 26.9201C44.3178 26.9401 44.603 26.9311 44.8851 26.8933C44.7447 26.7721 44.6316 26.6224 44.5532 26.4543C44.4748 26.2862 44.4329 26.1034 44.4303 25.9179C44.4455 25.7589 44.5037 25.607 44.5986 25.4785C44.6936 25.35 44.8217 25.2498 44.9692 25.1885C45.1163 25.106 45.2831 25.0655 45.4516 25.0712C45.6202 25.0769 45.7839 25.1286 45.925 25.2209C46.0939 25.3391 46.2286 25.4997 46.3157 25.6864C46.4028 25.8732 46.4392 26.0797 46.4212 26.285C46.4062 26.5496 46.2999 26.8008 46.1204 26.9959C46.7079 27.2856 47.3476 27.4541 48.0016 27.4912C48.0438 27.4928 48.0854 27.5027 48.1238 27.5203C48.1622 27.5379 48.1968 27.5629 48.2256 27.5939C48.2544 27.6249 48.2767 27.6612 48.2915 27.7009C48.3062 27.7405 48.313 27.7826 48.3114 27.8248C48.3098 27.8671 48.3 27.9086 48.2824 27.9471C48.2647 27.9855 48.2398 28.0201 48.2088 28.0489C48.1778 28.0776 48.1414 28.1 48.1018 28.1147C48.0621 28.1294 48.02 28.1362 47.9778 28.1347C47.1069 28.0977 46.2597 27.84 45.5157 27.3858C45.0232 27.5593 44.4979 27.6198 43.9789 27.5627C43.9346 27.5691 43.8894 27.5635 43.848 27.5466ZM45.485 25.7654C45.4419 25.7465 45.395 25.7383 45.3481 25.7414C45.3013 25.7445 45.2558 25.7588 45.2156 25.7831C45.1705 25.7972 45.1298 25.8224 45.0972 25.8565C45.0645 25.8906 45.041 25.9324 45.0289 25.978C45.0187 26.1216 45.2061 26.3581 45.5421 26.6487C45.6115 26.6002 45.6679 26.5354 45.7063 26.46C45.7448 26.3846 45.7642 26.301 45.7628 26.2164C45.7614 26.1318 45.7393 26.0488 45.6983 25.9747C45.6574 25.9007 45.5989 25.8378 45.528 25.7916L45.485 25.7654Z" fill="#4AA032"/>
<path d="M48.1271 29.0831L48.1566 29.1464C48.5314 29.4694 48.8357 29.8662 49.0505 30.3118C49.2654 30.7575 49.3863 31.2426 49.4056 31.737C49.4249 32.2314 49.3424 32.7245 49.1629 33.1856C48.9835 33.6467 48.7112 34.0659 48.3628 34.4172C44.3487 38.4313 39.1942 41.1096 33.6021 42.0868C32.8569 42.2179 32.0913 42.1729 31.3666 41.9553C30.6419 41.7376 29.9782 41.3535 29.4284 40.8335C28.8787 40.3135 28.4583 39.6721 28.2008 38.9606C27.9433 38.2491 27.8558 37.4872 27.9454 36.7358L27.91 36.6598C28.0519 35.4807 28.6216 34.3946 29.511 33.6075C30.4003 32.8204 31.5476 32.387 32.7353 32.3894C36.6301 32.3429 40.4188 31.114 43.5995 28.8656C44.2652 28.3785 45.0778 28.1345 45.9017 28.174C46.7256 28.2136 47.5111 28.5345 48.1271 29.0831Z" fill="#70D65B"/>
<path d="M28.6307 39.7936C28.0612 38.854 27.8186 37.7525 27.9409 36.6607L27.9054 36.5847C28.0474 35.4055 28.6171 34.3194 29.5065 33.5323C30.3958 32.7452 31.5431 32.3118 32.7308 32.3143C36.6256 32.2677 40.4143 31.0388 43.5949 28.7904C44.254 28.3269 45.0494 28.0975 45.8541 28.1387C46.6588 28.18 47.4265 28.4895 48.0347 29.018L48.0643 29.0814C48.7495 29.6699 49.1889 30.4942 49.2956 31.3912C49.1277 31.1603 48.9318 30.9511 48.7122 30.7687L48.6827 30.7053C48.0767 30.1712 47.3082 29.857 46.5016 29.8134C45.6949 29.7698 44.8971 29.9994 44.237 30.4651C41.0629 32.7264 37.27 33.9566 33.3729 33.9889C32.1891 33.9924 31.0473 34.4274 30.1613 35.2125C29.2754 35.9975 28.7061 37.0787 28.5602 38.2534L28.6016 38.3421C28.5388 38.8246 28.5486 39.3139 28.6307 39.7936Z" fill="#58B741"/>
<path d="M46.2197 28.1681L49.0952 27.0586C49.2101 27.0126 49.337 27.0059 49.456 27.0397C49.575 27.0735 49.6794 27.1459 49.7529 27.2454L50.7667 28.5925C50.8284 28.6779 50.8653 28.7786 50.8735 28.8837C50.8817 28.9887 50.8607 29.0939 50.813 29.1878L49.4012 31.8819L48.1303 31.9347C48.0959 31.9388 48.0611 31.9357 48.0279 31.9257C47.9947 31.9157 47.964 31.899 47.9376 31.8765C47.9112 31.8541 47.8897 31.8264 47.8745 31.7953C47.8593 31.7642 47.8507 31.7302 47.8492 31.6956C47.8068 31.3054 47.6321 30.9414 47.3541 30.6642C47.0761 30.387 46.7117 30.2133 46.3213 30.1719L46.041 30.133C46.005 30.1209 45.9719 30.1017 45.9436 30.0764C45.9153 30.0512 45.8925 30.0204 45.8765 29.9861C45.8605 29.9517 45.8516 29.9145 45.8504 29.8766C45.8493 29.8387 45.8558 29.8009 45.8697 29.7656L46.2197 28.1681Z" fill="#4AA032"/>
<path d="M47.7728 32.8878C43.7512 36.8924 38.5966 39.5652 33.0063 40.5446C32.0582 40.715 31.0808 40.5958 30.2015 40.2025C29.3222 39.8093 28.5817 39.1603 28.0765 38.3402C28.3316 39.5636 29.0531 40.6397 30.088 41.3403C31.1229 42.0409 32.3899 42.311 33.6206 42.0934C39.2109 41.114 44.3654 38.4412 48.3871 34.4366C48.6788 34.2127 48.9219 33.9318 49.1017 33.611C49.2814 33.2902 49.3941 32.9363 49.4327 32.5706C49.4714 32.2049 49.4352 31.8352 49.3265 31.4839C49.2178 31.1326 49.0388 30.8071 48.8003 30.5272C48.9579 31.6258 48.609 32.0352 47.7728 32.8878Z" fill="#338924"/>
<path d="M49.753 27.2453C49.6795 27.1457 49.5751 27.0734 49.456 27.0396C49.337 27.0058 49.2101 27.0125 49.0953 27.0585L49.7165 27.8946C49.7848 27.9769 49.826 28.0783 49.8343 28.1849C49.8426 28.2915 49.8176 28.3981 49.7628 28.4899L48.351 31.184L47.7 31.21C47.795 31.3495 47.8668 31.5035 47.9126 31.666C47.9141 31.7006 47.9227 31.7345 47.938 31.7657C47.9532 31.7968 47.9746 31.8244 48.001 31.8469C48.0274 31.8693 48.0581 31.8861 48.0913 31.8961C48.1245 31.9061 48.1594 31.9092 48.1938 31.9051L49.4646 31.8522L50.8764 29.1582C50.9241 29.0643 50.945 28.959 50.9369 28.854C50.9287 28.749 50.8918 28.6483 50.8301 28.5629L49.753 27.2453Z" fill="#1F7319"/>
<path d="M29.1351 38.7257C30.7656 38.767 32.3942 38.5885 33.9771 38.1951C35.5628 37.8351 37.1069 37.3115 38.5845 36.6327C40.0704 35.9609 41.4891 35.1495 42.8216 34.2097C44.1624 33.2783 45.4376 32.2559 46.6383 31.1499C46.0597 31.7281 45.493 32.3317 44.884 32.8778C43.0446 34.5299 40.9717 35.9018 38.7322 36.9494C35.7397 38.3587 32.4338 38.9706 29.1351 38.7257Z" fill="#A7E285"/>
<path d="M24.7291 31.1192C25.7546 31.6043 26.625 32.3652 27.2427 33.3168C27.8604 34.2684 28.2011 35.3731 28.2266 36.5073C28.0632 38.2075 27.2723 39.7859 26.008 40.9344C24.7438 42.0829 23.0971 42.7193 21.389 42.7193C19.681 42.7193 18.0342 42.0829 16.77 40.9344C15.5058 39.7859 14.7148 38.2075 14.5514 36.5073C14.5801 35.3434 14.9389 34.2116 15.5861 33.2437C16.2332 32.2758 17.1419 31.5117 18.2066 31.0404C18.7694 31.3074 19.2413 31.2942 19.8291 31.0878C19.8291 31.0878 24.2624 31.3086 24.7606 31.1034L24.7291 31.1192Z" fill="#F43B3B"/>
<path d="M23.9886 40.4147C22.2645 40.4962 20.578 39.8927 19.2971 38.7358C18.0162 37.5788 17.2447 35.9623 17.151 34.2387C17.1488 33.1182 17.4777 32.022 18.0963 31.0878C17.0595 31.5673 16.1779 32.3278 15.5513 33.283C14.9248 34.2381 14.5784 35.3497 14.5514 36.4917C14.6411 38.2167 15.4113 39.8357 16.6932 40.9935C17.9751 42.1513 19.6638 42.7534 21.389 42.6676C22.5463 42.6891 23.6907 42.4224 24.7193 41.8916C25.7479 41.3608 26.5021 40.5826 27.1551 39.6269C26.1308 40.1321 25.1307 40.3962 23.9886 40.3989V40.4147Z" fill="#D61D1D"/>
<path d="M17.7338 40.5878C17.6876 40.6024 17.6381 40.6024 17.592 40.5878C17.344 40.3098 17.1224 40.0091 16.9303 39.6898C16.9102 39.6694 16.895 39.6448 16.8858 39.6176C16.8766 39.5905 16.8738 39.5617 16.8774 39.5333C16.881 39.5049 16.8909 39.4777 16.9066 39.4537C16.9222 39.4298 16.9431 39.4097 16.9676 39.395C16.9922 39.3803 17.0197 39.3713 17.0483 39.3688C17.0768 39.3663 17.1055 39.3702 17.1322 39.3804C17.1589 39.3906 17.183 39.4067 17.2026 39.4276C17.2222 39.4484 17.2369 39.4734 17.2454 39.5008C17.4327 39.7906 17.6434 40.0646 17.8756 40.32C17.9089 40.3597 17.9272 40.41 17.9272 40.4618C17.9272 40.5137 17.9089 40.5639 17.8756 40.6036C17.8277 40.6099 17.7791 40.6044 17.7338 40.5878Z" fill="#E9E9E9"/>
<path d="M18.2538 31.0404C17.8633 30.8002 17.5299 30.4775 17.277 30.0951C17.5818 30.1924 17.8922 30.2713 18.2065 30.3314C19.0415 30.3314 19.6717 29.4649 21.1842 30.0006L20.6327 27.6531C20.6134 27.5511 20.6336 27.4455 20.6892 27.3577C20.7447 27.27 20.8316 27.2066 20.9321 27.1805C20.9828 27.1689 21.0353 27.1674 21.0866 27.1762C21.1378 27.185 21.1869 27.2038 21.2308 27.2317C21.2748 27.2595 21.3127 27.2958 21.3426 27.3384C21.3725 27.381 21.3936 27.429 21.4047 27.4798L21.9247 29.528C22.9645 29.1971 23.7049 29.8903 24.4454 30.0951C24.9692 30.2099 25.5146 30.1772 26.0209 30.0006C25.7037 30.4215 25.301 30.7705 24.8393 31.0247L24.6818 31.1035C24.1836 31.3086 23.6388 31.374 23.1063 31.2925C23.5148 31.5267 23.8377 31.8855 24.0276 32.3164C24.2175 32.7473 24.2646 33.2277 24.1618 33.6872C23.9458 33.4299 23.6968 33.2021 23.4214 33.0098C22.7098 32.8612 22.08 32.4507 21.6568 31.8597C21.4363 31.8597 21.3575 32.931 20.4122 33.1358C20.1759 33.1358 19.3724 33.1358 19.2148 33.2776C19.3093 32.2063 20.2546 31.9542 19.9238 31.135C19.336 31.3414 18.6906 31.3074 18.1277 31.0404H18.2538Z" fill="#07AA7C"/>
<path d="M18.7419 30.9085C19.5927 30.9085 20.2071 30.0263 21.7353 30.5777L21.1839 28.2302C21.1723 28.1795 21.1708 28.127 21.1796 28.0757C21.1884 28.0244 21.2072 27.9755 21.2351 27.9315C21.2629 27.8876 21.2992 27.8495 21.3418 27.8197C21.3844 27.7898 21.4324 27.7687 21.4832 27.7576L21.4045 27.4582C21.3933 27.4074 21.3722 27.3593 21.3423 27.3167C21.3125 27.2741 21.2745 27.2379 21.2305 27.21C21.1866 27.1822 21.1376 27.1634 21.0863 27.1546C21.035 27.1458 20.9825 27.1472 20.9318 27.1589C20.8313 27.185 20.7445 27.2484 20.6889 27.3361C20.6333 27.4239 20.6132 27.5294 20.6325 27.6315L21.1839 29.979C19.6084 29.4433 19.0412 30.3098 18.2062 30.3098C17.8919 30.2497 17.5815 30.1708 17.2767 30.0735C17.4292 30.3044 17.6091 30.516 17.8124 30.7037C18.1172 30.793 18.4278 30.8614 18.7419 30.9085Z" fill="#027168"/>
<path d="M16.5207 38.5397C16.4825 38.5387 16.4455 38.5261 16.4145 38.5036C16.3836 38.4811 16.3602 38.4497 16.3474 38.4136C15.914 37.1689 15.914 35.8142 16.3474 34.5694C16.3543 34.5457 16.3662 34.5238 16.3823 34.505C16.3983 34.4862 16.4182 34.4712 16.4406 34.4607C16.463 34.4503 16.4873 34.4447 16.512 34.4445C16.5367 34.4442 16.5612 34.4492 16.5838 34.4592C16.6076 34.4664 16.6297 34.4782 16.649 34.494C16.6682 34.5098 16.6841 34.5292 16.6959 34.5512C16.7076 34.5731 16.7148 34.5972 16.7172 34.6219C16.7196 34.6467 16.7171 34.6717 16.7098 34.6955C16.3002 35.8578 16.3002 37.1253 16.7098 38.2876C16.7171 38.3114 16.7196 38.3364 16.7172 38.3612C16.7148 38.3859 16.7076 38.41 16.6959 38.4319C16.6841 38.4539 16.6682 38.4733 16.649 38.4891C16.6297 38.5049 16.6076 38.5167 16.5838 38.5239L16.5207 38.5397Z" fill="#E9E9E9"/>
<path d="M57.8617 34.5332C56.6328 36.7709 54.9543 38.7301 52.9316 40.2876C51.2846 41.7253 49.493 42.9883 47.5855 44.0564C47.17 44.2939 46.737 44.5048 46.3022 44.7016C43.3506 46.0107 39.8417 46.169 37.8299 43.2176C37.1009 42.1348 36.7778 40.8294 36.9176 39.5316C37.0574 38.2338 37.6511 37.0271 38.594 36.1245C40.5368 34.3083 43.3379 33.993 45.7608 33.0501C47.6602 32.3262 49.4416 31.3245 51.0469 30.0775C51.7942 29.3501 52.7397 28.8594 53.7648 28.6672C54.7899 28.475 55.8489 28.5898 56.809 28.9971C57.0759 29.1352 57.3203 29.3132 57.5336 29.5249C57.6828 29.6691 57.8135 29.8313 57.9228 30.0078C58.2717 30.7131 58.4481 31.4911 58.4375 32.2779C58.4268 33.0647 58.2295 33.8377 57.8617 34.5332Z" fill="#4E4D8D"/>
<path d="M57.8617 34.5332C56.6328 36.7708 54.9543 38.73 52.9316 40.2876C51.2847 41.7253 49.493 42.9883 47.5855 44.0564C47.1701 44.2938 46.737 44.5048 46.3022 44.7016C43.3506 46.0106 39.8417 46.1689 37.8299 43.2175C37.2763 42.4006 36.956 41.4481 36.9036 40.4627C41.0117 40.7017 45.1112 39.8658 48.7977 38.0374C52.4843 36.2089 55.6305 33.4512 57.9263 30.036C58.2752 30.7413 58.4516 31.5193 58.441 32.3061C58.4303 33.0928 58.233 33.8659 57.8652 34.5614L57.8617 34.5332Z" fill="#2F486E"/>
<path d="M50.3237 32.9744C50.1362 33.0932 49.8876 33.0327 49.7755 32.8412C49.6676 32.6568 49.7272 32.4201 49.9094 32.3086L49.9907 32.2589C50.1713 32.1485 50.4071 32.2017 50.5227 32.3791C50.6418 32.5619 50.5885 32.8067 50.4042 32.9234L50.3237 32.9744Z" fill="#7271BF"/>
<path d="M43.199 35.9319C43.2011 35.9316 43.2025 35.9295 43.2019 35.9274L43.075 35.5249C43.0161 35.3378 43.1203 35.1383 43.3077 35.0799L43.8799 34.9017C44.6414 34.6791 45.4294 34.4389 46.1947 34.1298C46.9609 33.8391 47.7105 33.5064 48.44 33.1333C48.6338 33.0341 48.8723 33.1065 48.9747 33.2986C49.0778 33.4923 49.0028 33.7333 48.8064 33.8311C48.0355 34.215 47.2471 34.5629 46.4438 34.8737C45.6503 35.1863 44.8481 35.4282 44.0725 35.6525L43.1975 35.9251C43.1935 35.9264 43.1948 35.9324 43.199 35.9319Z" fill="#7271BF"/>
<path d="M58.5794 30.0993C59.6496 29.3344 60.8304 28.7395 62.0796 28.3347C62.4019 28.2303 62.6142 27.9166 62.5729 27.5803C62.5279 27.2139 62.1993 26.9479 61.8339 27.0008C60.0821 27.2544 58.3976 27.8613 56.8836 28.7872C56.8286 28.8253 56.7651 28.8495 56.6986 28.8577C56.6321 28.8658 56.5647 28.8577 56.5021 28.834C53.8234 27.2267 52.3837 29.1676 51.1973 28.2662C51.1973 28.2662 51.0369 28.1282 51.0458 28.0841C50.9743 28.4798 50.9991 28.8869 51.1181 29.271C51.237 29.6551 51.4467 30.005 51.7294 30.291C52.0121 30.577 52.3595 30.7907 52.7422 30.9142C53.1249 31.0376 53.5317 31.0672 53.9282 31.0003C53.6079 31.1202 53.3242 31.321 53.1046 31.5832C52.8851 31.8454 52.7372 32.1601 52.6755 32.4965C52.6138 32.8329 52.6404 33.1795 52.7525 33.5025C52.8647 33.8256 53.0587 34.1141 53.3156 34.3399C53.5725 34.5656 53.8835 34.7209 54.2183 34.7907C54.5532 34.8604 54.9003 34.8422 55.226 34.7378C55.5517 34.6333 55.8447 34.4463 56.0766 34.1949C56.3084 33.9435 56.4711 33.6362 56.5488 33.3032C56.5488 33.3032 56.1227 35.2057 58.9163 35.881C58.7997 35.7536 58.7162 35.5995 58.6731 35.4322C58.6301 35.2649 58.6288 35.0896 58.6695 34.9217C58.9203 34.248 59.0322 33.5305 58.9982 32.8124C58.9643 32.0944 58.7853 31.3906 58.472 30.7435C58.4188 30.7027 58.3777 30.6481 58.3531 30.5857C58.3285 30.5233 58.3214 30.4554 58.3324 30.3892C58.3434 30.323 58.3722 30.2611 58.4157 30.2101C58.4592 30.159 58.5158 30.1207 58.5794 30.0993Z" fill="#0ACB81"/>
<path d="M55.1326 30.7519C55.1383 30.7512 55.1412 30.7447 55.1379 30.74L54.863 30.3538C54.7701 30.2232 54.8002 30.041 54.9372 29.9577C55.1205 29.8463 55.3122 29.7496 55.5106 29.6684C55.732 29.5777 55.9671 29.7342 55.9963 29.9716L56.0139 30.1147C56.0268 30.22 55.9619 30.3185 55.8624 30.3551C55.6021 30.4507 55.3551 30.5794 55.1274 30.7383C55.1209 30.7428 55.1248 30.7529 55.1326 30.7519Z" fill="#0EED81"/>
<path d="M35.9407 34.9062L35.6884 34.5699C35.4156 34.2061 35.2681 33.7636 35.2681 33.3088C35.2681 32.854 35.4156 32.4115 35.6884 32.0477C35.7993 31.9134 35.9264 31.7933 36.0668 31.6904C36.4686 31.4041 36.9583 31.2683 37.4501 31.3067C37.942 31.3451 38.4047 31.5553 38.7572 31.9006L40.6699 33.4349C41.0824 33.7059 41.3865 34.1135 41.5287 34.5862C41.6708 35.0589 41.6421 35.5665 41.4475 36.0202C41.369 36.1814 41.2776 36.336 41.1743 36.4826C40.8851 36.8297 40.4918 37.0744 40.0526 37.1804C39.6134 37.2864 39.1518 37.2481 38.7362 37.0711L38.3368 36.903" fill="#498960"/>
<path d="M36.782 35.1372V34.1704C36.7341 33.629 36.8979 33.0902 37.2388 32.6669C37.5798 32.2437 38.0714 31.9689 38.6106 31.9004H38.9259C39.3651 31.9238 39.786 32.0845 40.1291 32.3597C40.4723 32.635 40.7204 33.011 40.8386 33.4347C40.8474 33.5326 40.8474 33.6311 40.8386 33.729C40.8933 34.2716 40.7351 34.8143 40.3972 35.2423C40.2332 35.46 40.0246 35.6401 39.7853 35.7706C39.5461 35.9011 39.2817 35.979 39.0099 35.999H38.0641" fill="#60A571"/>
<path d="M37.4751 35.6837H37.37C37.356 35.67 37.3449 35.6537 37.3373 35.6357C37.3297 35.6176 37.3258 35.5982 37.3258 35.5787C37.3258 35.5591 37.3297 35.5397 37.3373 35.5216C37.3449 35.5036 37.356 35.4873 37.37 35.4736L38.7572 33.729C38.787 33.7051 38.8241 33.6921 38.8623 33.6921C38.9005 33.6921 38.9375 33.7051 38.9674 33.729C38.9814 33.7427 38.9925 33.7591 39.0001 33.7771C39.0076 33.7952 39.0115 33.8145 39.0115 33.8341C39.0115 33.8537 39.0076 33.8731 39.0001 33.8911C38.9925 33.9092 38.9814 33.9255 38.9674 33.9392L37.5802 35.6837H37.4751Z" fill="#498960"/>
<path d="M35.2892 34.9062C36.0694 34.8237 36.8505 35.054 37.4612 35.5465C38.0719 36.039 38.4624 36.7536 38.5471 37.5335C38.5879 37.9187 38.5522 38.3081 38.4421 38.6795C38.332 39.0508 38.1497 39.3968 37.9056 39.6975C37.6615 39.9982 37.3604 40.2478 37.0196 40.4319C36.6789 40.616 36.3051 40.7311 35.9198 40.7704L32.9772 41.0857L32.6619 38.1641C32.5794 37.3839 32.8097 36.6028 33.3022 35.9921C33.7947 35.3814 34.5093 34.9909 35.2892 34.9062Z" fill="#ED4444"/>
<path d="M36.1932 35.6416C36.7607 35.3474 37.2021 35.3263 37.4543 35.6416C36.9974 35.2783 36.4434 35.058 35.8618 35.0083C35.2802 34.9586 34.6968 35.0818 34.1849 35.3625C33.6731 35.6431 33.2555 36.0687 32.9846 36.5857C32.7136 37.1028 32.6014 37.6884 32.6621 38.269L32.9773 41.1905L33.5869 38.9836C34.0012 37.5798 34.9326 36.3854 36.1932 35.6416Z" fill="#C73636"/>
<path d="M38.5895 37.5965C37.8241 37.5333 37.0937 37.2484 36.4876 36.7767C36.1987 36.5319 35.9442 36.2491 35.731 35.936C35.5197 35.6186 35.3568 35.2715 35.2476 34.9061C36.0035 34.8352 36.7573 35.0613 37.3494 35.5367C37.6559 35.7794 37.9106 36.0812 38.0984 36.4242C38.2861 36.7672 38.4031 37.1444 38.4424 37.5334L38.5895 37.5965Z" fill="#E6E6E6"/>
<path d="M35.1215 37.3022L34.2387 36.5876C34.2148 36.5578 34.2018 36.5207 34.2018 36.4825C34.2018 36.4443 34.2148 36.4072 34.2387 36.3774C34.2524 36.3634 34.2688 36.3523 34.2868 36.3448C34.3049 36.3372 34.3243 36.3333 34.3438 36.3333C34.3634 36.3333 34.3828 36.3372 34.4008 36.3448C34.4189 36.3523 34.4352 36.3634 34.4489 36.3774L35.3317 37.071C35.3573 37.1041 35.3712 37.1448 35.3712 37.1867C35.3712 37.2285 35.3573 37.2691 35.3317 37.3022H35.1215Z" fill="#E6E6E6"/>
<path d="M36.5925 39.8035H36.4874L35.6046 39.0888C35.5894 39.0764 35.5768 39.0611 35.5676 39.0438C35.5583 39.0265 35.5525 39.0076 35.5506 38.9881C35.5486 38.9686 35.5505 38.9489 35.5562 38.9301C35.5619 38.9113 35.5712 38.8938 35.5836 38.8786C35.596 38.8635 35.6113 38.8509 35.6286 38.8416C35.6459 38.8323 35.6648 38.8265 35.6844 38.8246C35.7039 38.8226 35.7236 38.8246 35.7423 38.8302C35.7611 38.8359 35.7786 38.8452 35.7938 38.8576L36.6766 39.5512C36.7004 39.5811 36.7134 39.6181 36.7134 39.6563C36.7134 39.6945 36.7004 39.7316 36.6766 39.7614C36.6766 39.7614 36.6345 39.8035 36.5925 39.8035Z" fill="#E6E6E6"/>
<path d="M7.56319 42.6535L1.77686 37.3567C1.77686 37.3567 12.8894 39.6323 31.4102 39.6323C49.931 39.6323 61.0435 37.4097 61.0435 37.4097L55.9482 42.4201C55.1206 43.2339 54.1326 43.8673 53.0099 44.162C50.0827 44.9305 43.2111 46.2997 31.4102 46.2997C19.3472 46.2997 12.7211 44.869 10.0588 44.1117C9.11597 43.8435 8.28625 43.3154 7.56319 42.6535Z" fill="#FDF2CA" stroke="#FDF2CA" stroke-width="1.05833"/>
<path opacity="0.4" d="M35.6436 43.6539C29.2936 44.1831 16.8052 43.7597 11.3019 42.0664" stroke="#EBB23A" stroke-width="1.05833" stroke-linecap="round"/>
</g>
<defs>
<clipPath id="clip0_808_24298">
<rect width="64" height="64" fill="white"/>
</clipPath>
</defs>
</svg>
