<svg width="64" height="64" viewBox="0 0 64 64" fill="none" xmlns="http://www.w3.org/2000/svg">
<path d="M38.6335 31.0395C36.7876 31.3992 34.275 32.4884 33.2495 32.988C33.0444 33.038 32.4188 32.958 31.5574 32.2386C30.4806 31.3392 26.3272 31.4891 25.4042 31.4891C24.4813 31.4891 22.02 31.9388 21.5585 31.7889C21.097 31.639 20.6355 31.4891 20.6355 31.0395C19.7126 30.29 17.4051 29.9903 17.2513 29.6905C17.0975 29.3907 17.8666 29.6905 17.8666 29.3907C17.8666 29.0909 16.4822 28.6413 16.7898 28.1916C17.0975 27.7419 18.3281 28.4914 18.6358 27.8918C18.9434 27.2923 15.713 26.0932 16.0207 25.6435C16.3283 25.1938 16.636 25.7934 16.9437 25.3437C17.2513 24.8941 16.1745 24.7442 16.4822 23.8449C16.7898 22.9455 20.1741 23.695 20.3279 23.3952C20.4817 23.0954 19.4049 22.6458 19.7126 22.1961C20.0202 21.7464 20.3279 22.1961 20.3279 21.8963C20.3279 21.5965 18.1743 20.8471 18.4819 20.2475C18.7896 19.648 19.8664 20.3974 20.0202 19.9478C20.1741 19.4981 18.0205 18.299 18.1743 17.6995C18.3281 17.0999 19.2511 17.0999 19.8664 17.3997C20.4817 16.8001 24.1736 19.7979 24.7889 19.9478C25.0966 19.7979 19.0973 14.7017 19.2511 14.252C19.4049 13.8024 20.5595 14.252 21.7123 14.7017C21.8662 14.1021 19.7126 12.0037 19.8664 11.7039C20.0202 11.4042 21.2509 12.3035 21.4047 11.8538C21.5277 11.4941 20.9432 9.70544 20.6355 8.85607C20.8919 7.95675 21.497 6.12811 21.8662 6.0082C22.3277 5.85831 23.8659 7.80685 24.3274 8.25652C24.1736 7.80685 24.6351 7.35719 25.2504 7.50708C25.7426 7.62699 26.6861 9.95525 27.0963 11.1044C27.1989 10.8046 27.5271 10.2051 28.0193 10.2051C28.5116 10.2051 29.7627 12.903 30.3267 14.252C30.4806 13.6525 30.9113 12.4234 31.4035 12.3035C31.8958 12.1836 33.1469 15.7509 33.711 17.5496C33.9161 17.3997 34.357 17.1299 34.4801 17.2498C34.6032 17.3697 35.0441 18.4989 35.2492 19.0484C35.4543 18.6487 36.0184 17.6695 36.6337 16.95C37.249 16.2306 37.9156 16.3505 38.172 16.5003C38.172 16.4004 38.2643 16.1706 38.6335 16.0507C39.4027 15.9008 39.2488 16.95 39.2488 17.9992C39.2488 19.0484 40.6332 19.0484 40.9409 19.3482C41.187 19.588 40.5307 20.8471 40.1718 21.4466C40.6332 21.2468 41.6485 20.967 42.0177 21.4466C42.3869 21.9263 40.3256 25.0439 39.2488 26.5428C40.1205 26.0932 41.987 25.1938 42.4792 25.1938C43.0946 25.1938 43.2484 25.7934 42.4792 26.8426C43.8637 28.941 40.9409 30.5898 38.6335 31.0395Z" fill="#0ACB81"/>
<path d="M35.2258 36.0262C36.9092 38.2073 37.2299 40.974 37.1798 42.0848C36.7289 47.386 37.8411 50.5668 38.0816 50.5668C38.3221 50.5668 38.4824 50.1629 38.5325 49.9609C38.9333 50.9707 39.8252 52.96 40.1859 52.8388C40.6368 52.6873 40.1859 51.7785 40.4865 51.6271C40.7871 51.4756 40.9374 53.1417 41.5386 52.9903C42.1399 52.8388 41.3883 51.0212 41.6889 50.8697C41.9896 50.7183 43.6429 52.2329 44.2441 52.0815C44.8454 51.93 44.0938 50.2639 44.5447 50.1124C44.9957 49.9609 46.4987 52.0815 46.9496 51.7785C47.4005 51.4756 46.7993 50.5668 46.9496 50.2639C47.0999 49.9609 48.603 50.7183 48.7533 50.1124C48.9036 49.5066 46.3484 46.7802 46.649 46.0229C46.9496 45.2655 51.9097 44.2053 52.06 43.7509C52.2103 43.2965 51.9097 43.2965 51.9097 42.8421C51.9097 42.3877 54.9158 41.176 55.2164 40.7216C55.517 40.2672 54.7655 40.4186 55.0661 39.8128C55.3667 39.2069 56.4188 38.904 55.8176 38.2981C55.2164 37.6923 53.7133 38.2981 52.9618 37.9952C52.2103 37.6923 52.2103 36.9349 51.609 36.9349C51.1281 36.9349 49.7052 37.4398 49.0538 37.6923C49.6049 36.9854 50.617 35.39 50.2563 34.663C49.8054 33.7542 47.8514 35.7232 47.5508 35.5718C47.2502 35.4203 46.3483 35.1174 45.5968 35.2688C45.5968 34.5115 45.2962 31.3307 44.695 31.0278C44.0938 30.7249 42.1398 32.9969 41.8392 32.9969C41.5386 32.9969 41.3883 32.5425 40.9373 32.391C40.4864 32.2395 40.1858 33.7542 39.7349 33.7542C39.284 33.7542 38.3822 32.5425 37.6306 32.6939C36.8791 32.8454 37.6306 33.9056 37.1798 34.0571C36.7289 34.2086 36.1276 33.6027 35.6767 34.0571C35.2258 34.5115 36.1276 34.663 35.9773 35.2688C35.827 35.8747 34.4743 35.4203 35.2258 36.0262Z" fill="#07AA7C"/>
<path d="M28.6279 38.2699C28.384 40.6336 29.441 42.676 30 43.4017C30 43.609 29.878 44.0548 29.3902 44.1792C28.7804 44.3347 25.5789 48.5335 25.1216 48.689C24.6642 48.8445 24.6642 48.2225 24.9691 47.4449C24.5117 47.6004 21.6152 48.689 20.8529 49C20.8529 48.0669 22.3774 46.9784 22.0725 46.9784H19.9382C19.4808 46.9784 19.6333 46.5119 19.1759 46.5119C18.7186 46.5119 18.871 46.9784 18.1088 46.9784C17.3465 46.9784 17.8039 46.3563 17.499 46.3563C17.1941 46.3563 17.0416 46.5119 16.5843 46.6674C16.1269 46.8229 15.2122 46.6674 14.9073 46.3563C14.6024 46.0453 16.4318 43.8682 17.499 42.6241C15.822 43.0906 12.0107 41.5356 11.7058 41.38C11.4009 41.2245 12.0107 40.6025 12.1632 40.136C12.3156 39.6694 10.7911 38.8919 10.9436 38.2699C11.096 37.6478 11.4009 37.9588 11.5534 37.4923C11.7058 37.0258 9.57149 35.3152 9.72394 35.0042C9.84591 34.7553 10.9944 35.1078 11.5534 35.3152C10.4862 34.1748 8.50433 31.7385 9.11414 31.1164C9.72394 30.4944 13.0271 32.516 14.6024 33.6046C14.6024 33.2417 14.7244 32.516 15.2122 32.516C15.7 32.516 16.94 33.138 17.499 33.4491C17.499 33.2936 17.56 32.9825 17.8039 32.9825C18.0478 32.9825 18.8202 33.6046 19.1759 33.9156C19.1759 33.6046 19.2674 32.9825 19.6333 32.9825C19.9992 32.9825 21.107 33.9156 21.6152 34.3821C21.666 33.7601 21.8896 32.516 22.3774 32.516C22.8653 32.516 23.6987 33.4491 24.0544 33.9156C24.0544 33.7083 24.1459 33.3247 24.5117 33.4491C24.8776 33.5735 25.0707 34.1229 25.1216 34.3821C25.2232 34.1229 25.5179 33.6046 25.8838 33.6046C26.2497 33.6046 27.1542 35.7817 27.5608 36.8703C27.4591 35.7817 27.4083 33.5424 28.0181 33.2936C28.7804 32.9825 28.9328 35.3152 28.6279 38.2699Z" fill="#027168"/>
<path d="M23.8892 10.5C27.0994 16.2326 29.6787 20.1775 31.5788 26M35.3892 57.5C35.1836 43.7274 34.3865 37.9409 33.0325 31.5M32.0406 27.5C32.8235 25.5 34.8892 21.3 36.8892 20.5M32.0406 27.5C31.8914 26.9855 31.7375 26.4862 31.5788 26M32.0406 27.5C32.3144 28.4443 32.5721 29.4399 32.8136 30.5M31.5788 26C29.5156 24.6667 24.7892 21.9 22.3892 21.5M32.8136 30.5C30.0054 28.8333 23.6892 25.7 20.8892 26.5M32.8136 30.5C32.8881 30.8271 32.9611 31.1603 33.0325 31.5M33.0325 31.5C33.818 30.1667 35.6892 27.5 36.8892 27.5M13.8892 36C16.3959 36.8677 18.74 37.8497 20.8892 38.8731M20.8892 38.8731C19.3892 39.0821 16.0892 39.7 14.8892 40.5M20.8892 38.8731C22.3537 39.5705 23.7278 40.2872 25.0012 41M27.3892 42.4006C30.7521 44.4663 33.7364 46.5306 34.952 47.6652C35.8712 46.6496 37.4243 45.2461 39.3892 43.9486M27.3892 42.4006C25.2225 42.6004 20.6892 43.3 19.8892 44.5M27.3892 42.4006C26.639 41.9398 25.842 41.4707 25.0012 41M25.0012 41C24.4638 39.8333 23.3892 37.3 23.3892 36.5M50.3892 40.5C46.7358 40.2851 43.2196 41.6318 40.3892 43.3204M40.3892 43.3204C40.6893 42.6217 41.1104 41.6065 41.5452 40.5M40.3892 43.3204C40.0454 43.5255 39.7117 43.7356 39.3892 43.9486M43.3892 35C43.1332 36.2797 42.3177 38.534 41.5452 40.5M41.5452 40.5C41.6599 39.5 41.3892 37.3 39.3892 36.5M39.3892 43.9486C40.0558 43.9092 41.9892 44.5973 44.3892 47.6652" stroke="#005C55" stroke-linecap="round"/>
</svg>
