<svg width="64" height="64" viewBox="0 0 64 64" fill="none" xmlns="http://www.w3.org/2000/svg">
<ellipse cx="31.2208" cy="39.6376" rx="27.5167" ry="3.70417" fill="white"/>
<path fill-rule="evenodd" clip-rule="evenodd" d="M58.3917 40.1127C61.623 39.3669 63.5 38.4768 63.5 37.521C63.5 34.8908 49.285 32.7585 31.75 32.7585C14.215 32.7585 0 34.8908 0 37.521C0 38.3179 1.30468 39.069 3.6111 39.729C6.83098 38.1522 17.7353 36.9919 30.6917 36.9919C44.6782 36.9919 56.2735 38.3441 58.3917 40.1127Z" fill="#97B9D6"/>
<path d="M13.2889 32.9389C11.5208 31.9353 11.5098 30.7906 9.97386 30.4031C9.70624 30.3438 9.42929 30.3401 9.16016 30.3921C8.89103 30.4441 8.63544 30.5507 8.40919 30.7055C8.04398 30.9599 7.73847 31.2907 7.51386 31.6749C7.36511 31.8661 7.29216 32.0507 7.12968 32.2304C6.22661 33.1113 4.86312 31.6395 4.04897 31.3543C3.78891 31.2295 3.50658 31.1579 3.21848 31.1435C2.93039 31.1292 2.64234 31.1726 2.3712 31.271C2.10005 31.3694 1.85126 31.5209 1.6394 31.7166C1.42754 31.9124 1.25687 32.1484 1.13737 32.4109C-0.397489 35.091 2.86117 35.9643 2.79958 36.8607C2.73798 37.7571 1.95777 39.3147 3.73244 40.3941C5.95982 41.7013 8.01194 39.8415 9.03389 40.4649C10.3734 41.226 9.34337 42.9837 11.5719 44.3034C12.9113 45.0645 14.3159 44.2416 15.3848 44.2372C19.1452 49.8272 25.0082 46.132 25.0082 46.132C23.8981 45.7768 22.8699 45.2037 21.984 44.4463C21.0981 43.6889 20.3723 42.7623 19.8489 41.7209C18.5811 39.4515 20.3912 35.8435 18.1866 33.9234C16.1051 32.2471 14.7372 33.7796 13.3394 32.9345L13.2889 32.9389Z" fill="#0ACB81"/>
<path d="M12.9899 40.7296C13.2176 38.4239 12.7712 36.1017 11.705 34.0448C11.6312 33.925 11.515 33.8375 11.3795 33.7998C11.2441 33.7621 11.0994 33.777 10.9744 33.8414C10.8619 33.8993 10.7768 33.9991 10.7373 34.1192C10.6978 34.2394 10.7071 34.3702 10.7632 34.4836C11.6176 36.1086 12.0519 37.9216 12.0266 39.7574C11.1405 38.8851 10.0894 38.1982 8.93482 37.7367L8.91935 37.5598C8.71911 36.331 8.17762 35.183 7.35661 34.247C7.32023 34.1877 7.27146 34.137 7.21363 34.0984C7.15581 34.0598 7.0903 34.0341 7.02162 34.0232C6.95294 34.0122 6.88271 34.0163 6.81575 34.0351C6.7488 34.0539 6.6867 34.087 6.63373 34.132C6.54128 34.2266 6.48736 34.3523 6.48246 34.4845C6.47755 34.6167 6.52202 34.746 6.60721 34.8472C7.20145 35.5889 7.61333 36.4597 7.80976 37.3896C6.70996 37.0403 5.62391 36.7025 4.45274 36.4104C4.32071 36.3868 4.18473 36.4165 4.07453 36.493C3.96434 36.5694 3.88888 36.6863 3.86469 36.8182C3.85311 36.8828 3.85448 36.949 3.86872 37.013C3.88296 37.077 3.90977 37.1375 3.94762 37.1911C3.98547 37.2446 4.0336 37.2901 4.08919 37.3249C4.14478 37.3597 4.20674 37.3831 4.27145 37.3937C5.61342 37.6488 6.92661 38.0371 8.19156 38.5527C10.3139 39.5196 12.1092 41.0829 13.3586 43.0523C13.6548 43.3828 13.8615 43.7083 14.1577 44.0388C14.1598 44.0623 14.1711 44.084 14.1891 44.0991C14.2072 44.1142 14.2305 44.1216 14.2539 44.1195C14.2947 44.1729 14.3467 44.2166 14.4063 44.2475C14.4659 44.2785 14.5316 44.2958 14.5987 44.2985C14.6658 44.3011 14.7326 44.2889 14.7944 44.2628C14.8563 44.2366 14.9116 44.1972 14.9564 44.1472L15.0371 44.051C15.3552 43.6249 15.6392 43.1744 15.8867 42.7038C16.6144 41.4203 16.9296 39.9439 16.7896 38.4751C16.7686 38.3381 16.6985 38.2134 16.5923 38.1243C16.4862 38.0353 16.3512 37.9879 16.2126 37.991L16.1242 37.9987C15.9968 38.0228 15.8839 38.0959 15.8099 38.2024C15.7359 38.3089 15.7066 38.4401 15.7285 38.568C15.7641 40.0629 15.3719 41.5369 14.5982 42.8165C14.4943 42.6474 14.3019 42.486 14.2107 42.3158C13.8849 41.7077 13.4761 41.148 12.9959 40.6527L12.9899 40.7296Z" fill="#07AA7C" stroke="#0ACB81" stroke-width="0.25"/>
<path d="M50.2829 32.9389C52.051 31.9353 52.062 30.7906 53.5979 30.4031C53.8655 30.3438 54.1425 30.3401 54.4116 30.3921C54.6807 30.4441 54.9363 30.5507 55.1626 30.7055C55.5278 30.9599 55.8333 31.2907 56.0579 31.6749C56.2067 31.8661 56.2796 32.0507 56.4421 32.2304C57.3452 33.1113 58.7087 31.6395 59.5228 31.3543C59.7829 31.2295 60.0652 31.1579 60.3533 31.1435C60.6414 31.1292 60.9294 31.1726 61.2006 31.271C61.4717 31.3694 61.7205 31.5209 61.9324 31.7166C62.1442 31.9124 62.3149 32.1484 62.4344 32.4109C63.9693 35.091 60.7106 35.9643 60.7722 36.8607C60.8338 37.7571 61.614 39.3147 59.8393 40.3941C57.612 41.7013 55.5598 39.8415 54.5379 40.4649C53.1984 41.226 54.2284 42.9837 51.9999 44.3034C50.6604 45.0645 49.2559 44.2416 48.187 44.2372C44.4266 49.8272 38.5636 46.132 38.5636 46.132C39.6737 45.7768 40.7018 45.2037 41.5877 44.4463C42.4736 43.6889 43.1995 42.7623 43.7229 41.7209C44.9907 39.4515 43.1806 35.8435 45.3852 33.9234C47.4667 32.2471 48.8346 33.7796 50.2324 32.9345L50.2829 32.9389Z" fill="#0ACB81"/>
<path d="M50.5818 40.7296C50.3542 38.4239 50.8006 36.1017 51.8668 34.0448C51.9405 33.925 52.0568 33.8375 52.1922 33.7998C52.3277 33.7621 52.4724 33.777 52.5974 33.8414C52.7098 33.8993 52.795 33.9991 52.8345 34.1192C52.874 34.2394 52.8647 34.3702 52.8085 34.4836C51.9542 36.1086 51.5199 37.9216 51.5452 39.7574C52.4313 38.8851 53.4824 38.1982 54.637 37.7367L54.6524 37.5598C54.8527 36.331 55.3942 35.183 56.2152 34.247C56.2515 34.1877 56.3003 34.137 56.3581 34.0984C56.416 34.0598 56.4815 34.0341 56.5502 34.0232C56.6188 34.0122 56.6891 34.0163 56.756 34.0351C56.823 34.0539 56.8851 34.087 56.938 34.132C57.0305 34.2266 57.0844 34.3523 57.0893 34.4845C57.0942 34.6167 57.0498 34.746 56.9646 34.8472C56.3703 35.5889 55.9584 36.4597 55.762 37.3896C56.8618 37.0403 57.9479 36.7025 59.119 36.4104C59.2511 36.3868 59.387 36.4165 59.4972 36.493C59.6074 36.5694 59.6829 36.6863 59.7071 36.8182C59.7187 36.8828 59.7173 36.949 59.7031 37.013C59.6888 37.077 59.662 37.1375 59.6242 37.1911C59.5863 37.2446 59.5382 37.2901 59.4826 37.3249C59.427 37.3597 59.365 37.3831 59.3003 37.3937C57.9584 37.6488 56.6452 38.0371 55.3802 38.5527C53.2579 39.5196 51.4626 41.0829 50.2132 43.0523C49.9169 43.3828 49.7103 43.7083 49.414 44.0388C49.412 44.0623 49.4007 44.084 49.3827 44.0991C49.3646 44.1142 49.3413 44.1216 49.3179 44.1195C49.2771 44.1729 49.2251 44.2166 49.1655 44.2475C49.1059 44.2785 49.0402 44.2958 48.9731 44.2985C48.906 44.3011 48.8392 44.2889 48.7773 44.2628C48.7155 44.2366 48.6602 44.1972 48.6153 44.1472L48.5347 44.051C48.2166 43.6249 47.9325 43.1744 47.6851 42.7038C46.9574 41.4203 46.6421 39.9439 46.7822 38.4751C46.8031 38.3381 46.8733 38.2134 46.9795 38.1243C47.0856 38.0353 47.2206 37.9879 47.3592 37.991L47.4476 37.9987C47.575 38.0228 47.6879 38.0959 47.7619 38.2024C47.8359 38.3089 47.8651 38.4401 47.8433 38.568C47.8077 40.0629 48.1998 41.5369 48.9736 42.8165C49.0775 42.6474 49.2698 42.486 49.3611 42.3158C49.6869 41.7077 50.0957 41.148 50.5758 40.6527L50.5818 40.7296Z" fill="#07AA7C" stroke="#0ACB81" stroke-width="0.25"/>
<path d="M52.1852 40.989L52.6067 40.6238L53.0283 40.2586L53.4499 39.8933C53.6483 39.6844 53.8316 39.4618 53.9985 39.2269C54.3241 38.9467 54.5053 38.3491 54.7775 38.2019C54.9626 37.9673 55.1128 37.7071 55.2235 37.4295C55.3977 37.2057 55.491 36.9296 55.4885 36.6461C55.7535 35.8628 55.8739 35.3705 55.7888 35.2745C55.8956 34.9211 55.9572 34.5555 55.9722 34.1865C55.9866 33.9477 55.9673 33.7082 55.915 33.4747C55.9961 33.3343 55.8544 32.9715 55.8652 32.7905C55.8575 32.3464 55.7893 31.9053 55.6624 31.4796C55.6485 31.2055 55.6007 30.9341 55.5201 30.6718C55.5236 30.405 55.4331 30.1456 55.2644 29.9389L54.7569 28.7096C54.5287 28.5778 54.4977 28.1854 54.31 27.9834C54.133 27.5919 53.8867 27.2356 53.583 26.9316L53.0402 26.2905L52.2071 25.3414C51.7819 24.8893 51.31 24.4834 50.7993 24.1306C50.4131 23.9076 50.1505 23.5921 49.7643 23.3691C49.433 23.2613 49.1279 23.0851 48.8689 22.8522C48.5125 22.6727 48.1666 22.4731 47.833 22.2541C47.5697 22.1021 47.0497 21.9891 46.7661 21.8722C46.5595 21.8188 46.3714 21.7102 46.2218 21.558C46.0638 21.4668 45.8321 21.5437 45.7396 21.42C45.6471 21.2964 45.2473 21.2997 45.0487 21.2787L44.443 21.2332C44.08 21.2237 43.72 21.1654 43.3726 21.06L42.7668 21.0145C42.5324 20.9841 42.2945 20.9976 42.0651 21.0542C41.9246 20.9731 41.6754 21.0399 41.5794 21.1249C41.4835 21.21 41.0762 21.1856 40.8675 21.1821C40.6589 21.1787 40.0598 21.3244 39.7551 21.406C39.4935 21.3964 39.2371 21.4809 39.0324 21.6441C38.7781 21.6559 38.5329 21.7423 38.3273 21.8925C38.1693 21.8012 37.9092 22.049 37.6045 22.1306L37.4728 22.3589C37.3819 22.4165 37.2757 22.445 37.1682 22.4405C36.9595 22.437 36.8459 22.512 36.6649 22.5011L36.2577 22.4767L35.8505 22.4522L35.4709 22.4203C35.2956 22.4077 35.1251 22.3572 34.9712 22.2723L34.78 22.279C34.6572 22.208 34.4991 22.1168 34.3938 22.056C34.2709 21.985 34.1129 21.8938 34.0076 21.833C33.9022 21.7722 33.8496 21.7418 33.7267 21.6708C33.5716 21.6069 33.4099 21.5606 33.2445 21.5329C32.8123 21.4778 32.3745 21.4851 31.9444 21.5547C31.8836 21.6601 31.6398 21.6364 31.5263 21.7113C31.4128 21.7862 31.4553 21.8342 31.2217 21.7929C31.0358 21.8462 30.8632 21.938 30.715 22.0623L30.2935 22.4275L29.6524 22.9703L29.4227 23.1654C29.2759 23.293 29.176 23.466 29.1389 23.657C29.0555 23.7303 28.9986 23.829 28.9767 23.9379C28.8968 24.0051 28.8429 24.0984 28.8247 24.2013C28.7334 24.3593 28.7334 24.3592 28.6726 24.4646C28.6118 24.5699 28.6017 24.5875 28.5347 24.9467C28.4677 25.306 28.5313 25.1554 28.3725 25.2277C28.3572 25.3968 28.3166 25.5628 28.2522 25.72C28.1818 25.9101 28.1602 26.1149 28.1891 26.3156L28.1958 26.5068C28.1046 26.6648 28.2673 26.8289 28.1539 26.9038C28.0404 26.9788 28.1294 27.3111 28.2145 27.407C28.2995 27.503 28.211 27.6157 28.2961 27.7116C28.3812 27.8076 28.3777 28.0163 28.4803 28.1223C28.5829 28.2284 28.5343 28.4344 28.6369 28.5405L28.8651 28.6722L29.1453 28.9979L29.3735 29.1296L29.6537 29.4552C29.759 29.516 30.0399 29.6782 30.1453 29.739C30.6144 29.9452 31.0315 30.2534 31.3665 30.6412C31.7014 31.0289 31.9457 31.4865 32.0815 31.9806C31.9903 32.1386 32.1421 32.4837 32.1211 32.6823C32.1191 32.8965 32.1755 33.1071 32.2844 33.2915C32.366 33.5962 32.5327 33.9967 32.6144 34.3013C32.696 34.6059 32.7709 34.7194 32.7675 34.9281C32.8819 35.3 33.0608 35.6489 33.2959 35.9589C33.4013 36.0197 33.4626 36.3595 33.5551 36.4831C33.6476 36.6067 33.9095 37.0856 34.1897 37.4112L34.5549 37.8328L34.9201 38.2544L35.6581 39.1251C35.7857 39.2719 35.9587 39.3718 36.1497 39.4089C36.3243 39.4982 36.4942 39.5963 36.6588 39.7029C36.9221 39.8549 37.3076 40.2414 37.6088 40.3685C37.91 40.4955 37.9951 40.5915 38.1004 40.6523C38.265 40.7588 38.4349 40.8569 38.6095 40.9462C38.9958 41.1692 39.478 41.3072 39.8642 41.5302L40.7326 41.8911C41.1474 42.0517 41.5739 42.1805 42.0082 42.2765C42.4716 42.3459 42.9299 42.4461 43.3799 42.5767L45.152 42.7103C45.6251 42.7173 46.0979 42.685 46.5656 42.6136C46.8405 42.6076 47.1129 42.5596 47.3734 42.4713C47.6338 42.383 47.9062 42.335 48.1812 42.3291C48.5817 42.1624 49.2085 42.0093 49.6192 41.825C50.0299 41.6408 50.2393 41.4808 50.5439 41.3992C50.693 41.2685 50.8737 41.1791 51.0681 41.14L51.1289 41.0346C51.89 41.2165 52.0792 41.0917 52.1852 40.989Z" fill="#F18700"/>
<path d="M44.6309 40.6532C41.8238 39.0932 39.4435 36.8668 37.6996 34.1701C36.4718 32.2452 34.8198 30.6269 32.8701 29.439C32.5467 29.6924 32.162 29.8559 31.7551 29.9128C31.3481 29.9697 30.9334 29.9181 30.5528 29.7631C31.0183 29.9691 31.4321 30.2763 31.764 30.6623C32.0958 31.0483 32.3375 31.5033 32.4715 31.9945C32.4681 32.2031 32.5497 32.5078 32.5287 32.7063C32.5196 32.9213 32.5766 33.1339 32.6919 33.3155C32.756 33.61 32.9402 34.0207 33.0219 34.3253C33.1035 34.6299 33.1784 34.7435 33.1574 34.942C33.2772 35.3117 33.4557 35.6597 33.6859 35.9728C33.7848 36.141 33.8714 36.3162 33.9451 36.497C34.1733 36.6287 34.3069 37.1272 34.5796 37.4251L34.9625 37.8568L35.3175 38.2959L36.048 39.139C36.1709 39.21 36.3282 39.4646 36.5572 39.433C36.7481 39.4701 36.9211 39.57 37.0488 39.7168C37.3297 39.879 37.7152 40.2654 37.9988 40.3824C38.2824 40.4993 38.385 40.6053 38.5079 40.6763C38.6308 40.7473 38.8942 40.8993 38.9995 40.9601C39.3857 41.1831 39.8855 41.3312 40.2542 41.5441L41.1401 41.9151C41.5451 42.0842 41.9668 42.2099 42.3982 42.2903C42.8676 42.3634 43.3316 42.4671 43.7874 42.6008L45.5595 42.7344C46.0326 42.7413 46.5054 42.709 46.9731 42.6376C47.2466 42.6188 47.5174 42.5711 47.7809 42.4953C48.0413 42.407 48.3138 42.359 48.5887 42.3531C48.9893 42.1864 49.5985 42.0232 50.0166 41.8666C50.4347 41.71 50.6468 41.5048 50.9514 41.4232C51.0922 41.2883 51.2675 41.1951 51.4581 41.1538C49.8935 42.4041 47.4204 42.1467 44.6309 40.6532Z" fill="#F18700"/>
<path d="M35.8569 23.8603C35.7356 22.854 35.4873 22.1488 34.9025 21.9048C34.7796 21.8338 34.6216 21.7426 34.5163 21.6818C34.4109 21.621 34.3076 21.6784 34.2529 21.5298C34.0905 21.461 33.9186 21.417 33.7431 21.3993C33.315 21.3401 32.8808 21.3415 32.4531 21.4035C32.3822 21.5264 32.1485 21.4852 32.0525 21.5702C31.9566 21.6553 31.9816 21.6931 31.7479 21.6518C31.5558 21.6972 31.3765 21.7859 31.2237 21.911L30.8022 22.2763L30.1509 22.8366L30.0192 23.0649C29.8654 23.1867 29.7639 23.3625 29.7354 23.5565C29.652 23.6298 29.595 23.7285 29.5732 23.8373C29.482 23.9953 29.5124 23.9427 29.4211 24.1007C29.3299 24.2587 29.3299 24.2587 29.259 24.3816C29.188 24.5045 29.1981 24.4869 29.121 24.8638C29.0439 25.2406 29.0298 25.0218 28.969 25.1271C28.9536 25.2963 28.9131 25.4622 28.8486 25.6194C28.7732 25.8122 28.7573 26.0233 28.8032 26.2253L28.712 26.3833C28.6207 26.5413 28.7936 26.6878 28.6801 26.7628C28.5666 26.8377 28.6556 27.17 28.7583 27.2761C28.8609 27.3822 28.6671 27.4341 28.8224 27.5706C28.9776 27.707 28.8938 27.8928 28.9964 27.9988C29.0991 28.1049 29.0781 28.3034 29.1631 28.3994L29.3407 28.6189L29.6209 28.9445L29.8491 29.0763L30.1293 29.4019C30.2346 29.4628 30.5155 29.6249 30.6208 29.6858C30.9987 29.8541 31.4162 29.9129 31.8259 29.8556C32.2356 29.7983 32.621 29.6271 32.9382 29.3616C33.8024 28.7187 34.5128 27.8915 35.0176 26.9399C35.5224 25.9884 35.8091 24.9364 35.8569 23.8603ZM29.4551 25.5014C29.4817 25.0838 29.6044 24.678 29.8136 24.3156C30.0228 23.9532 30.313 23.644 30.6614 23.4122C31.3875 22.9654 31.8663 23.312 31.916 23.9962C31.8942 24.4149 31.7735 24.8225 31.5638 25.1856C31.3542 25.5488 31.0615 25.8571 30.7098 26.0854C30.0687 26.6282 29.3988 26.2882 29.4551 25.5014Z" fill="#FF9911"/>
<path d="M52.1854 40.9889L52.6069 40.6237L53.0285 40.2584L53.45 39.8931C53.6484 39.6843 53.8317 39.4616 53.9986 39.2268C54.3242 38.9466 54.5054 38.3489 54.7776 38.2018C54.9627 37.9671 55.113 37.7069 55.2236 37.4293C55.3978 37.2055 55.4912 36.9295 55.4886 36.6459C55.7536 35.8626 55.874 35.3703 55.789 35.2744C55.8957 34.9209 55.9573 34.5553 55.9723 34.1864C55.9867 33.9476 55.9674 33.708 55.9151 33.4746C55.9962 33.3341 55.8545 32.9714 55.8654 32.7904C55.8577 32.3462 55.7894 31.9051 55.6625 31.4794C55.6486 31.2053 55.6008 30.934 55.5203 30.6716C55.5238 30.4049 55.4332 30.1454 55.2645 29.9387L54.757 28.7094C54.5288 28.5776 54.4979 28.1852 54.3102 27.9832C54.1331 27.5917 53.8868 27.2354 53.5831 26.9315L53.0404 26.2903L52.2072 25.3412C51.782 24.8891 51.3101 24.4832 50.7995 24.1304C50.4132 23.9074 50.1506 23.592 49.7644 23.369C49.4331 23.2611 49.1281 23.085 48.869 22.852C48.5126 22.6726 48.1668 22.4729 47.8332 22.254C47.5698 22.1019 47.0498 21.989 46.7662 21.872C46.5596 21.8186 46.3715 21.71 46.2219 21.5578C46.0639 21.4666 45.8322 21.5435 45.7398 21.4199C45.6473 21.2963 45.2474 21.2995 45.0489 21.2785L44.4431 21.2331C44.0802 21.2235 43.7202 21.1652 43.3727 21.0598L42.7669 21.0144C42.5326 20.984 42.2946 20.9974 42.0652 21.054C41.9247 20.9729 41.6755 21.0397 41.5796 21.1248C41.4836 21.2098 41.0764 21.1854 40.8677 21.1819C40.659 21.1785 40.0599 21.3242 39.7553 21.4058C39.4936 21.3962 39.2372 21.4807 39.0326 21.644C38.7782 21.6558 38.533 21.7421 38.3274 21.8923C38.1694 21.8011 37.9093 22.0489 37.6047 22.1305L37.4729 22.3587C37.3821 22.4164 37.2758 22.4448 37.1683 22.4403C36.9596 22.4369 36.8461 22.5118 36.6651 22.501L36.2578 22.4765L35.8506 22.4521L35.4711 22.4202C35.2957 22.4075 35.1253 22.357 34.9713 22.2721L34.7802 22.2788C34.6573 22.2079 34.4993 22.1167 34.3939 22.0558C34.9206 22.3599 35.302 23.1185 35.3382 24.0289C35.325 25.1534 35.0353 26.2573 34.4946 27.2434C33.9539 28.2294 33.1788 29.0672 32.2377 29.6828C34.2326 30.8224 35.9015 32.4549 37.0847 34.4242C38.8153 37.1231 41.1915 39.3479 43.9985 40.8971C46.8602 42.5493 49.3645 42.5907 50.9405 41.6044C51.8902 41.2164 52.0793 41.0915 52.1854 40.9889Z" fill="#FF9911"/>
<path d="M23.4344 18.982L31.5942 23.459C31.8751 23.6212 31.9594 23.8805 32.0411 24.1851L23.8813 19.7082C23.7855 19.4372 23.6332 19.1896 23.4344 18.982Z" fill="#FEDAAA"/>
<path d="M29.9224 26.1922L21.8652 21.8213C21.9957 21.8943 22.1473 21.9199 22.2945 21.894C22.4416 21.8681 22.5754 21.7922 22.673 21.679C22.9986 21.4535 23.2642 21.1519 23.4468 20.8004C23.6293 20.4489 23.7233 20.0581 23.7205 19.662L31.8627 24.1289C31.8745 24.526 31.7865 24.9197 31.6065 25.2739C31.4265 25.6281 31.1605 25.9314 30.8328 26.156C30.5412 26.2664 30.2218 26.279 29.9224 26.1922Z" fill="#FEC377"/>
<path d="M24.2895 20.0145C24.9109 18.9382 24.5421 17.562 23.4658 16.9406C22.3896 16.3193 21.0133 16.688 20.392 17.7643C19.7706 18.8405 20.1393 20.2167 21.2156 20.8381C22.2919 21.4595 23.6681 21.0908 24.2895 20.0145Z" fill="#FEC377"/>
<path d="M21.0732 17.3142C21.328 17.1456 21.6155 17.0327 21.9169 16.983C22.2183 16.9332 22.5269 16.9477 22.8223 17.0254C23.1177 17.1032 23.3934 17.2424 23.6313 17.4341C23.8692 17.6258 24.0639 17.8656 24.2026 18.1377C24.4828 18.4634 24.451 18.8429 24.6251 19.2712C24.7219 18.7159 24.6212 18.1444 24.3406 17.6556C24.0002 17.1659 23.4968 16.8132 22.9203 16.6604C22.3438 16.5077 21.7318 16.5649 21.1936 16.8218C20.839 17.018 20.5513 17.3161 20.3677 17.6774C20.1841 18.0388 20.113 18.4468 20.1637 18.8489C20.1585 18.534 20.2408 18.2239 20.4014 17.9529C20.5619 17.6819 20.7945 17.4609 21.0732 17.3142Z" fill="#FEDAAA"/>
<path d="M24.3712 23.1979C24.9926 22.1216 24.6238 20.7455 23.5475 20.1241C22.4713 19.5027 21.095 19.8714 20.4736 20.9477C19.8523 22.024 20.221 23.4002 21.2973 24.0216C22.3736 24.643 23.7498 24.2742 24.3712 23.1979Z" fill="#FEC377"/>
<path d="M21.1424 20.3973C21.4011 20.2354 21.6903 20.1283 21.992 20.0827C22.2938 20.037 22.6017 20.0538 22.8967 20.1319C23.1917 20.2101 23.4675 20.348 23.7071 20.5371C23.9466 20.7261 24.1449 20.9623 24.2894 21.2311C24.5521 21.5466 24.5276 21.9538 24.6092 22.2584C24.6408 21.7669 24.535 21.2763 24.3037 20.8414C23.9681 20.3511 23.467 19.998 22.8924 19.8468C22.3177 19.6955 21.7079 19.7562 21.1743 20.0178C20.8407 20.2352 20.569 20.5353 20.3855 20.8886C20.202 21.242 20.1129 21.6369 20.1268 22.0348C20.147 21.6991 20.2504 21.3735 20.4277 21.0877C20.605 20.8018 20.8506 20.5646 21.1424 20.3973Z" fill="#FEDAAA"/>
<path d="M52.8728 26.5259C51.0054 24.5367 48.5227 23.8337 47.3275 24.9557C46.1324 26.0777 46.6773 28.5998 48.5448 30.589C50.4122 32.5782 52.8949 33.2813 54.09 32.1593C55.2852 31.0373 54.7403 28.5151 52.8728 26.5259Z" fill="#FFA834"/>
<path d="M35.9147 46.0661L37.1651 44.9402C37.376 44.7503 37.5975 44.36 37.7029 44.265C37.8084 44.1701 38.2361 43.403 38.4471 43.2131C38.6349 42.9778 38.7843 42.7143 38.8899 42.4324C39.0495 42.2054 39.1294 41.932 39.1173 41.6549C39.3597 40.8637 39.4997 40.383 39.4048 40.2775C39.5112 39.9216 39.5644 39.552 39.5627 39.1805C39.57 38.9469 39.5436 38.7135 39.4842 38.4874C39.4947 38.287 39.4103 37.9811 39.4208 37.7807C39.4072 37.3383 39.3336 36.8999 39.202 36.4773C39.1857 36.2008 39.1324 35.9276 39.0436 35.6652C39.0465 35.4019 38.9526 35.1466 38.7797 34.948L38.2401 33.7426C38.0501 33.5317 37.9657 33.2259 37.7758 33.0149C37.5906 32.6328 37.3419 32.2848 37.0402 31.9859L35.6837 30.4794C35.2534 30.0364 34.7729 29.6451 34.252 29.3134C33.8616 29.092 33.5767 28.7756 33.1864 28.5542C32.8696 28.4174 32.5785 28.2274 32.3259 27.9923C31.9589 27.8374 31.6038 27.6557 31.2635 27.4486C30.9681 27.3326 30.4723 27.2062 30.1769 27.0902C29.9667 27.0796 29.765 27.0038 29.5998 26.8734C29.3993 26.8629 29.199 26.8523 29.104 26.7469C29.0091 26.6414 28.6082 26.6204 28.4078 26.6099L27.8216 26.5648C27.4558 26.5646 27.0915 26.5166 26.7382 26.4219L26.137 26.3904C25.8995 26.3699 25.6603 26.3913 25.4303 26.4539C25.2298 26.4434 25.0294 26.4329 24.939 26.5143C24.8486 26.5957 24.4327 26.5882 24.2323 26.5777C24.0319 26.5672 23.4202 26.7361 23.1143 26.8206C22.8558 26.8349 22.6088 26.9328 22.4107 27.0995C22.1579 27.1158 21.9147 27.2025 21.7086 27.3498C21.5081 27.3393 21.2972 27.5292 20.9913 27.6136L20.7805 27.8035C20.6908 27.8651 20.5831 27.8948 20.4746 27.888C20.2741 27.8775 20.1687 27.9724 19.9683 27.9619L19.5825 27.9274L19.1817 27.9064L18.7809 27.8853C18.614 27.8835 18.4495 27.8455 18.2986 27.774L18.0983 27.7634C18.0033 27.658 17.8029 27.6475 17.7079 27.542C17.613 27.4366 17.4125 27.4261 17.3176 27.3206C17.2226 27.2152 17.1172 27.3101 17.0222 27.2047C16.863 27.1417 16.6964 27.0992 16.5265 27.0782C16.1007 27.0257 15.6696 27.037 15.2472 27.1116C15.1417 27.2066 14.9413 27.1961 14.8358 27.291C14.7304 27.386 14.7304 27.386 14.5299 27.3755C14.3409 27.4311 14.1651 27.5245 14.0132 27.6498L12.7627 28.7757C12.5999 28.8938 12.4841 29.0657 12.4359 29.261C12.32 29.5561 12.32 29.5562 12.2041 29.8514C12.2085 30.0386 12.2085 30.0386 12.1031 30.1336C11.9976 30.2285 11.9976 30.2285 11.963 30.6142C11.9285 31 11.9525 30.8147 11.8471 30.9096C11.826 31.0796 11.7835 31.2462 11.7206 31.4054C11.6519 31.5985 11.6409 31.8074 11.6891 32.0066L11.6786 32.2071C11.6681 32.4075 11.7631 32.5129 11.6576 32.6079C11.6264 32.7775 11.658 32.9526 11.7466 33.1006C11.8415 33.206 11.7361 33.301 11.8311 33.4065C11.926 33.5119 11.9019 33.6973 11.9969 33.8027C12.0919 33.9082 12.0813 34.1086 12.1763 34.214L13.1258 35.2686C13.2208 35.3741 13.5026 35.475 13.5975 35.5804C14.0695 35.7782 14.4919 36.0779 14.8343 36.4582C15.1767 36.8385 15.4307 37.2899 15.578 37.78C15.5675 37.9804 15.652 38.2863 15.6415 38.4867C15.6349 38.7029 15.6938 38.9162 15.8104 39.0984C15.8948 39.4043 16.0607 39.8006 16.1451 40.1064C16.2296 40.4123 16.3245 40.5177 16.314 40.7182C16.4348 41.0922 16.6205 41.4421 16.8627 41.7517C16.9441 41.8421 17.0286 42.148 17.1235 42.2535C17.2185 42.3589 17.4929 42.8757 17.7777 43.1921L19.2834 44.8643C19.4015 45.0272 19.5734 45.143 19.7687 45.1912C19.8636 45.2967 20.1455 45.3976 20.2404 45.503C20.3354 45.6085 20.9156 46.0408 21.211 46.1568C21.5063 46.2727 21.6013 46.3782 21.6962 46.4836C21.7912 46.5891 22.0866 46.7051 22.168 46.7955C22.5583 47.0169 23.0541 47.1433 23.4444 47.3648L24.3305 47.7126C24.7404 47.8657 25.1609 47.9885 25.5888 48.08C26.0602 48.1292 26.5262 48.2209 26.9812 48.354L28.7713 48.4334C29.2401 48.4451 29.7088 48.4071 30.1696 48.3201C30.4462 48.3038 30.7194 48.2505 30.9818 48.1617C31.2298 48.0569 31.4961 48.0026 31.7653 48.0018C32.1766 47.8224 32.7884 47.6535 33.1997 47.4741C33.611 47.2947 33.8219 47.1048 34.1127 47.0339C34.2563 46.8964 34.4352 46.8014 34.6295 46.7596L34.735 46.6646C35.1713 46.5646 35.5763 46.3591 35.9147 46.0661Z" fill="#F18700"/>
<path d="M19.2397 29.2727C19.0918 28.2601 18.828 27.5429 18.305 27.3864C18.2101 27.2809 18.0097 27.2704 17.9148 27.1649C17.8198 27.0594 17.7143 27.1544 17.6194 27.0489C17.4601 26.986 17.2935 26.9436 17.1236 26.9225C16.7136 26.8448 16.2955 26.8181 15.8789 26.8429C15.7735 26.9379 15.5866 26.9424 15.4812 27.0374C15.3757 27.1323 15.3757 27.1323 15.1753 27.1218C14.9863 27.1775 14.8105 27.2708 14.6585 27.3962L13.4081 28.5221C13.2452 28.6401 13.1294 28.8121 13.0812 29.0073C13.0077 29.0883 12.9664 29.1934 12.9652 29.3027C12.9412 29.4881 12.8598 29.3977 12.8357 29.583C12.8117 29.7684 12.8252 29.7835 12.7198 29.8784C12.6143 29.9734 12.6143 29.9733 12.6084 30.3606C12.6024 30.7479 12.5978 30.561 12.4924 30.656C12.4713 30.8259 12.4289 30.9925 12.3659 31.1517C12.2972 31.3448 12.2862 31.5538 12.3344 31.753L12.3239 31.9534C12.3134 32.1538 12.4084 32.2593 12.3029 32.3542C12.1974 32.4492 12.2819 32.7551 12.3769 32.8605C12.4718 32.966 12.3664 33.0609 12.4477 33.1513C12.5291 33.2417 12.5322 33.4572 12.6271 33.5627C12.7221 33.6681 12.7116 33.8685 12.8066 33.974L13.7561 35.0286C13.8375 35.1189 14.1329 35.2349 14.2278 35.3404C14.621 35.4947 15.049 35.5384 15.4653 35.4666C15.8816 35.3947 16.2702 35.2102 16.5889 34.933C17.4235 34.2456 18.0944 33.381 18.5529 32.4019C19.0114 31.4228 19.246 30.3538 19.2397 29.2727ZM12.8752 31.0206C12.8777 30.6025 12.9788 30.1909 13.1704 29.8193C13.362 29.4477 13.6386 29.1266 13.9777 28.8821C14.6904 28.4314 15.1756 28.7583 15.2391 29.465C15.2343 29.882 15.1307 30.2919 14.9366 30.661C14.7426 31.0301 14.4638 31.348 14.123 31.5883C13.5053 32.1445 12.8332 31.8222 12.8752 31.0206Z" fill="#FF9911"/>
<path d="M35.9145 46.0661L37.1649 44.9402C37.3758 44.7503 37.5972 44.36 37.7027 44.265C37.8081 44.1701 38.2359 43.403 38.4468 43.2131C38.6346 42.9778 38.7841 42.7143 38.8897 42.4324C39.0492 42.2054 39.1291 41.932 39.117 41.6549C39.3595 40.8637 39.4995 40.383 39.4045 40.2775C39.5109 39.9216 39.5641 39.552 39.5625 39.1805C39.5697 38.9469 39.5433 38.7135 39.484 38.4874C39.4945 38.287 39.41 37.9811 39.4205 37.7807C39.407 37.3384 39.3334 36.8999 39.2017 36.4773C39.1854 36.2008 39.1322 35.9276 39.0433 35.6652C39.0462 35.4019 38.9524 35.1466 38.7795 34.948L38.2398 33.7426C38.0499 33.5317 37.9654 33.2259 37.7755 33.015C37.5903 32.6328 37.3416 32.2848 37.0399 31.9859L35.6834 30.4794C35.2531 30.0364 34.7726 29.6451 34.2517 29.3134C33.8614 29.092 33.5765 28.7756 33.1862 28.5542C32.8693 28.4174 32.5783 28.2274 32.3256 27.9924C31.9586 27.8375 31.6035 27.6557 31.2632 27.4486C30.9678 27.3326 30.4721 27.2062 30.1767 27.0902C29.9665 27.0796 29.7647 27.0038 29.5995 26.8734C29.3991 26.8629 29.1987 26.8524 29.1038 26.7469C29.0088 26.6414 28.608 26.6204 28.4076 26.6099L27.8214 26.5648C27.4555 26.5646 27.0913 26.5166 26.7379 26.4219L26.1367 26.3904C25.8992 26.3699 25.66 26.3913 25.43 26.4539C25.2296 26.4434 25.0292 26.4329 24.9388 26.5143C24.8484 26.5957 24.4325 26.5882 24.2321 26.5777C24.0317 26.5672 23.4199 26.7361 23.1141 26.8206C22.8555 26.8349 22.6086 26.9328 22.4104 27.0995C22.1576 27.1158 21.9144 27.2025 21.7083 27.3498C21.5079 27.3393 21.297 27.5292 20.9911 27.6136L20.7802 27.8035C20.6905 27.8651 20.5828 27.8948 20.4743 27.888C20.2739 27.8775 20.1684 27.9724 19.968 27.9619L19.5823 27.9274L19.1814 27.9064L18.7806 27.8854C18.6137 27.8835 18.4492 27.8455 18.2984 27.774L18.098 27.7635C18.0031 27.658 17.8026 27.6475 17.7077 27.542C18.0122 27.7499 18.2581 28.0326 18.4218 28.3629C18.5855 28.6933 18.6615 29.0602 18.6423 29.4284C18.6513 30.5596 18.381 31.6755 17.8552 32.6771C17.3294 33.6787 16.5646 34.5351 15.6284 35.1701C17.6453 36.2665 19.3461 37.8633 20.5674 39.8071C22.3516 42.4722 24.7668 44.6549 27.5982 46.1614C30.5173 47.7067 32.9991 47.7363 34.5449 46.7264C35.044 46.6085 35.5114 46.3831 35.9145 46.0661Z" fill="#FF9911"/>
<path d="M15.3341 29.5704C15.3551 29.4138 15.32 29.2548 15.235 29.1216C15.1501 28.9884 15.0207 28.8896 14.8698 28.8427L6.73646 24.6268C6.59367 24.5672 6.43425 24.5605 6.28699 24.6081C6.13972 24.6556 6.01429 24.7543 5.93337 24.8862C5.62952 25.1187 5.38588 25.4207 5.22287 25.7668C5.05987 26.113 4.98225 26.4931 4.99655 26.8755C4.97445 27.0285 5.0077 27.1843 5.09033 27.315C5.17296 27.4456 5.29954 27.5425 5.44725 27.5881L13.7042 31.9109C13.8339 31.9756 13.9815 31.995 14.1235 31.966C14.2656 31.937 14.3938 31.8613 14.4877 31.751C14.9521 31.1087 15.2436 30.3578 15.3341 29.5704Z" fill="#FEC377"/>
<path d="M6.73572 24.6274L14.964 28.9487C15.0943 29.0237 15.2046 29.129 15.2854 29.2557C15.3663 29.3824 15.4153 29.5267 15.4283 29.6765L7.18642 25.3401C7.08034 25.0773 6.92766 24.8359 6.73572 24.6274Z" fill="#FEDAAA"/>
<path d="M13.393 31.809L5.23102 27.5916C5.36366 27.6639 5.51735 27.6877 5.66561 27.6587C5.81387 27.6298 5.94741 27.5501 6.04317 27.4333C6.34576 27.1996 6.5885 26.8974 6.75138 26.5516C6.91425 26.2057 6.99264 25.8261 6.98 25.444L15.2219 29.7804C15.2339 30.1616 15.1537 30.5401 14.9883 30.8838C14.8229 31.2274 14.577 31.5261 14.2715 31.7545C13.9932 31.8712 13.6836 31.8904 13.393 31.809Z" fill="#FEC377"/>
<path d="M7.12533 26.2408C8.04889 25.4092 8.12346 23.9864 7.29188 23.0628C6.4603 22.1393 5.03747 22.0647 4.11391 22.8963C3.19035 23.7278 3.11578 25.1507 3.94736 26.0742C4.77894 26.9978 6.20176 27.0724 7.12533 26.2408Z" fill="#FEC377"/>
<path d="M4.27823 23.0482C4.53104 22.8777 4.81666 22.762 5.1168 22.7083C5.41694 22.6546 5.72499 22.6643 6.02119 22.7366C6.3174 22.8088 6.59523 22.9422 6.83692 23.1281C7.0786 23.314 7.2788 23.5483 7.42469 23.816C7.70955 24.1324 7.68854 24.5332 7.85438 24.9294C7.94937 24.374 7.84175 23.803 7.55114 23.3202C7.20395 22.8386 6.69631 22.4967 6.11953 22.3559C5.54275 22.2152 4.93468 22.2849 4.40468 22.5524C4.07373 22.7588 3.80935 23.0562 3.64319 23.409C3.47702 23.7618 3.41615 24.1551 3.46789 24.5416C3.4583 24.2432 3.5283 23.9476 3.6707 23.6851C3.81311 23.4227 4.02279 23.2028 4.27823 23.0482Z" fill="#FEDAAA"/>
<path d="M7.27474 29.4068C8.1983 28.5752 8.27285 27.1524 7.44127 26.2289C6.60969 25.3053 5.18689 25.2307 4.26332 26.0623C3.33976 26.8939 3.26519 28.3167 4.09677 29.2403C4.92835 30.1638 6.35118 30.2384 7.27474 29.4068Z" fill="#FEC377"/>
<path d="M4.51665 26.1617C4.76945 25.9912 5.05508 25.8755 5.35521 25.8218C5.65535 25.7681 5.9634 25.7778 6.25961 25.85C6.55581 25.9223 6.83364 26.0557 7.07533 26.2416C7.31702 26.4274 7.51724 26.6617 7.66313 26.9295C7.86231 27.2297 7.97784 27.5777 7.99785 27.9375C8.02974 27.4475 7.92088 26.9587 7.68411 26.5286C7.33692 26.047 6.82928 25.7051 6.2525 25.5644C5.67572 25.4236 5.06765 25.4933 4.53765 25.7608C4.22293 25.9832 3.97122 26.2834 3.80704 26.632C3.64286 26.9806 3.5718 27.3658 3.60084 27.7501C3.61795 27.432 3.7098 27.1224 3.86892 26.8464C4.02803 26.5704 4.24993 26.3359 4.51665 26.1617Z" fill="#FEDAAA"/>
<path d="M37.056 36.6517C38.2225 35.5065 37.6231 33.0043 35.7171 31.0628C33.8112 29.1213 31.3205 28.4757 30.154 29.6208C28.9875 30.7659 29.5869 33.2681 31.4928 35.2096C33.3988 37.1512 35.8895 37.7968 37.056 36.6517Z" fill="#FFA834"/>
<path d="M40.3059 39.9692C41.0269 37.9881 43.2175 36.9666 44.7634 38.8834C47.1798 38.4087 48.2013 40.5993 47.4802 42.5804C46.7591 44.5616 44.5685 45.5831 42.5874 44.862C40.6063 44.1409 39.5848 41.9503 40.3059 39.9692Z" fill="#F43B3B"/>
<path d="M44.4274 37.517C43.7984 38.0499 43.7792 39.0225 43.8129 39.4379C44.2885 39.3756 45.2539 39.1453 45.5938 38.7566C45.9336 38.368 45.8746 37.4308 45.8026 37.0108C45.6063 36.9575 45.0564 36.9841 44.4274 37.517Z" fill="#027168"/>
<path d="M56.3512 38.4866C55.4403 35.984 52.6732 34.6937 50.7204 37.115C47.6681 36.5154 46.3778 39.2826 47.2886 41.7851C48.1995 44.2877 50.9666 45.578 53.4692 44.6672C55.9717 43.7563 57.262 40.9892 56.3512 38.4866Z" fill="#F43B3B"/>
<path fill-rule="evenodd" clip-rule="evenodd" d="M48.456 37.3889C47.9216 38.3114 47.8493 39.579 48.2883 40.7851C49.1991 43.2877 51.9663 44.578 54.4688 43.6672C54.9171 43.504 55.3265 43.2813 55.6913 43.0111C55.1479 43.7443 54.3906 44.3317 53.4688 44.6672C50.9663 45.578 48.1991 44.2877 47.2883 41.7851C46.6514 40.0353 47.0907 38.1561 48.456 37.3889Z" fill="#D61D1D"/>
<path d="M49.3084 37.9317C50.3176 38.1886 51.3325 37.4958 51.7353 37.1567C51.3228 36.7131 50.3785 35.8883 49.7296 35.8233C49.0807 35.7582 48.1595 36.5055 47.78 36.8873C47.869 37.1284 48.2992 37.6748 49.3084 37.9317Z" fill="#07AA7C"/>
<path d="M52.8067 36.4378C52.2943 37.3444 51.0921 37.5984 50.5686 37.6549C50.5334 37.0501 50.5907 35.7976 50.9924 35.2839C51.3942 34.7702 52.5711 34.6216 53.1093 34.6115C53.2219 34.8425 53.319 35.5312 52.8067 36.4378Z" fill="#07AA7C"/>
<path d="M7.90304 44.4579L2.1167 39.1611C2.1167 39.1611 13.2292 41.4368 31.75 41.4368C50.2709 41.4368 61.3834 39.2142 61.3834 39.2142L56.288 44.2246C55.4604 45.0384 54.4724 45.6717 53.3498 45.9664C50.4225 46.7349 43.5509 48.1042 31.75 48.1042C19.6871 48.1042 13.0609 46.6734 10.3987 45.9161C9.45581 45.648 8.6261 45.1198 7.90304 44.4579Z" fill="#D1E1EE" stroke="#D1E1EE" stroke-width="1.05833"/>
<path opacity="0.4" d="M35.9834 45.4583C29.6334 45.9875 17.1451 45.5642 11.6417 43.8708" stroke="#97B9D6" stroke-width="1.05833" stroke-linecap="round"/>
</svg>
