<svg width="64" height="64" viewBox="0 0 64 64" fill="none" xmlns="http://www.w3.org/2000/svg">
<g clip-path="url(#clip0_808_24325)">
<mask id="mask0_808_24325" style="mask-type:alpha" maskUnits="userSpaceOnUse" x="0" y="44" width="49" height="4">
<rect x="0.5" y="44.3607" width="48.4615" height="3.63462" fill="#D9D9D9"/>
</mask>
<g mask="url(#mask0_808_24325)">
<rect x="0.5" y="44.3607" width="48.4615" height="3.63462" fill="#D9D9D9"/>
<path d="M15.5265 46.5834C16.1946 46.5834 17.7712 46.1825 18.7332 46.1825C19.9357 46.1825 22.3407 46.9842 24.3448 46.5834M14.7249 45.3809C17.9315 45.3809 17.5307 43.3767 20.7373 43.3767M20.7373 44.1784C20.7373 44.312 21.2985 44.5792 23.5432 44.5792C26.349 44.5792 28.3532 43.3767 30.3573 43.7775C31.9607 44.0982 32.0943 44.4456 31.9607 44.5792" stroke="black" stroke-width="0.25" stroke-linecap="round" stroke-linejoin="round"/>
<path d="M0.295166 46.5834H1.49766" stroke="black" stroke-width="0.25" stroke-linecap="round" stroke-linejoin="round"/>
<path d="M3.50171 46.1826H5.10504" stroke="black" stroke-width="0.25" stroke-linecap="round" stroke-linejoin="round"/>
<path d="M6.7085 46.1826H7.10933" stroke="black" stroke-width="0.25" stroke-linecap="round" stroke-linejoin="round"/>
<path d="M11.5181 46.1826H11.9189" stroke="black" stroke-width="0.25" stroke-linecap="round" stroke-linejoin="round"/>
<path d="M0.295166 47.7859C2.43294 47.5187 7.10932 46.9843 8.71265 46.9843C10.7168 46.9843 13.9235 48.1868 17.1301 47.3851" stroke="black" stroke-width="0.25" stroke-linecap="round" stroke-linejoin="round"/>
<path d="M0.295166 44.98C0.562388 44.98 1.177 45.0601 1.49766 45.3808" stroke="black" stroke-width="0.25" stroke-linecap="round" stroke-linejoin="round"/>
<path d="M0.295166 44.1783C0.829609 44.1783 2.21916 44.2585 3.50183 44.5792C5.10516 44.98 5.50599 45.3808 7.51015 45.3808C9.51431 45.3808 10.7168 44.5792 11.9193 44.5792C13.1218 44.5792 15.0198 44.4318 15.5268 44.1783C16.3285 43.7775 17.1301 42.9758 17.531 42.9758" stroke="black" stroke-width="0.25" stroke-linecap="round" stroke-linejoin="round"/>
<path d="M33.3292 47.795C32.6611 47.795 31.0845 47.3942 30.1225 47.3942C28.92 47.3942 26.515 48.1959 24.5109 47.795M34.1309 46.5925C30.9242 46.5925 31.325 44.5884 28.1184 44.5884M28.1184 45.39C28.1184 45.5237 27.5572 45.7909 25.3125 45.7909C22.5067 45.7909 20.5026 44.5884 18.4984 44.9892C16.8951 45.3099 16.7614 45.6573 16.8951 45.7909" stroke="black" stroke-width="0.25" stroke-linecap="round" stroke-linejoin="round"/>
<path d="M48.5608 47.7949H47.3583" stroke="black" stroke-width="0.25" stroke-linecap="round" stroke-linejoin="round"/>
<path d="M46.9573 44.1874C46.5564 44.321 45.5944 44.5882 44.9531 44.5882C44.3118 44.5882 43.3498 44.5882 42.949 44.5882" stroke="black" stroke-width="0.25" stroke-linecap="round" stroke-linejoin="round"/>
<path d="M40.9448 44.5884H40.1432" stroke="black" stroke-width="0.25" stroke-linecap="round" stroke-linejoin="round"/>
<path d="M45.3542 47.3942H43.7509" stroke="black" stroke-width="0.25" stroke-linecap="round" stroke-linejoin="round"/>
<path d="M38.5398 44.5884H38.139" stroke="black" stroke-width="0.25" stroke-linecap="round" stroke-linejoin="round"/>
<path d="M42.1475 47.3942H41.7466" stroke="black" stroke-width="0.25" stroke-linecap="round" stroke-linejoin="round"/>
<path d="M37.3374 47.3942H36.9366" stroke="black" stroke-width="0.25" stroke-linecap="round" stroke-linejoin="round"/>
<path d="M48.5608 46.1915C48.2936 46.1915 47.679 46.2717 47.3583 46.5924" stroke="black" stroke-width="0.25" stroke-linecap="round" stroke-linejoin="round"/>
<path d="M48.5608 45.3899C48.0263 45.3899 46.6368 45.47 45.3541 45.7907C43.7508 46.1915 43.35 46.5924 41.3458 46.5924C39.3416 46.5924 38.1391 45.7907 36.9366 45.7907C35.7342 45.7907 33.8362 45.6434 33.3292 45.3899C32.5275 44.989 31.7258 44.1874 31.325 44.1874" stroke="black" stroke-width="0.25" stroke-linecap="round" stroke-linejoin="round"/>
</g>
<mask id="mask1_808_24325" style="mask-type:alpha" maskUnits="userSpaceOnUse" x="0" y="44" width="49" height="10">
<rect x="0.5" y="44.1492" width="48.4615" height="9" fill="#D9D9D9"/>
</mask>
<g mask="url(#mask1_808_24325)">
<rect x="0.5" y="44.1492" width="48.4615" height="9" fill="#98634E"/>
<rect x="2.5" y="46.1492" width="28.46" height="1" rx="0.5" fill="#80503E"/>
<rect x="10.5" y="49.1492" width="8.46" height="1" rx="0.5" fill="#80503E"/>
<rect x="37.5" y="49.1492" width="8.46" height="1" rx="0.5" fill="#80503E"/>
<rect x="20.5" y="49.1492" width="3" height="1" rx="0.5" fill="#80503E"/>
<rect x="44.5" y="51.1492" width="3" height="1" rx="0.5" fill="#80503E"/>
</g>
<path d="M0.5 44.1492H63.5C63.5 43.0446 62.6046 42.1492 61.5 42.1492H2.5C1.39543 42.1492 0.5 43.0446 0.5 44.1492Z" fill="#5E3F33"/>
<mask id="mask2_808_24325" style="mask-type:alpha" maskUnits="userSpaceOnUse" x="48" y="44" width="16" height="10">
<rect width="14.5385" height="9" transform="matrix(-1 0 0 1 63.5 44.1492)" fill="#D9D9D9"/>
</mask>
<g mask="url(#mask2_808_24325)">
<rect width="14.5385" height="9" transform="matrix(-1 0 0 1 63.5 44.1492)" fill="#80503E"/>
</g>
<path d="M10.1278 22.1698C7.76441 22.5804 5.62186 23.8121 4.07766 25.6477C2.53346 27.4833 1.68677 29.8051 1.68677 32.2039C1.68677 34.6026 2.53346 36.9244 4.07766 38.76C5.62186 40.5957 7.76441 41.8273 10.1278 42.2379H41.1696V22.1698H10.1278Z" fill="#1D2139"/>
<path d="M10.128 39.6452C9.65367 39.7026 9.17427 39.7026 8.69998 39.6452C6.93958 37.6286 5.98887 35.0311 6.03166 32.3546C5.83311 29.911 6.60534 27.4877 8.18102 25.6095C9.7567 23.7313 12.009 22.5496 14.4498 22.3204H10.128C7.90642 22.4961 5.82865 23.488 4.29507 25.1049C2.76148 26.7217 1.8807 28.8491 1.82263 31.0768C1.82263 31.4902 1.82263 31.9036 1.82263 32.3546C1.62407 34.7981 2.39631 37.2214 3.97199 39.0996C5.54767 40.9777 7.79986 42.1594 10.2407 42.3886H41.2825V39.7955L10.128 39.6452Z" fill="#141830"/>
<path d="M33.4653 42.7643C33.7963 42.9176 34.1533 43.0069 34.5175 43.0274L35.194 43.1777C35.5272 43.1042 35.8371 42.9493 36.0959 42.7268C36.2659 42.5747 36.4735 42.4709 36.6972 42.4261C36.8714 42.3974 37.0492 42.3974 37.2234 42.4261H37.8247C38.3064 42.5411 38.8085 42.5411 39.2903 42.4261H39.6661L39.0648 41.186H38.6515C38.3187 41.2719 37.9695 41.2719 37.6367 41.186H37.2234C36.9298 41.0449 36.6095 40.968 36.2838 40.9605C35.8804 41.0125 35.5013 41.1825 35.194 41.449C35.0182 41.5706 34.8291 41.6715 34.6303 41.7497C34.3586 41.8151 34.0752 41.8151 33.8035 41.7497L33.39 41.5618C33.0164 41.5051 32.6363 41.5051 32.2627 41.5618C31.7741 41.5618 31.2856 41.637 30.7595 41.0357C30.1019 41.1653 29.4253 41.1653 28.7677 41.0357C28.4112 40.9363 28.0343 40.9363 27.6778 41.0357L27.1516 41.2987C27.0518 41.3121 26.9508 41.3121 26.851 41.2987L26.6255 41.1108C26.3002 40.9427 25.9394 40.855 25.5733 40.855C25.2071 40.855 24.8463 40.9427 24.521 41.1108C23.8822 41.1108 23.5063 41.2987 23.2057 41.1108H23.0178C22.8926 40.9778 22.7409 40.8724 22.5727 40.8012C22.4045 40.7301 22.2233 40.6947 22.0407 40.6974C21.9023 40.7079 21.7675 40.7466 21.6447 40.8113C21.5218 40.8759 21.4136 40.9651 21.3266 41.0732H21.1388C20.8213 41.1766 20.4791 41.1766 20.1616 41.0732H19.7482C19.042 40.8298 18.2747 40.8298 17.5686 41.0732H17.3431C17.1862 41.179 17.0053 41.2436 16.8169 41.2611C16.706 41.2898 16.5896 41.2898 16.4787 41.2611H16.2908C15.2887 40.8655 14.1736 40.8655 13.1716 41.2611L12.0442 41.449C11.0181 41.4609 9.9988 41.2825 9.03775 40.9229C8.07941 40.596 7.13864 40.2197 6.21919 39.7955C6.0128 39.7206 5.83079 39.5906 5.69301 39.4197C5.67359 39.333 5.67359 39.2432 5.69301 39.1566C5.63054 38.9622 5.52818 38.783 5.39241 38.6305C5.11317 38.3174 4.74674 38.0949 4.34015 37.9916C3.96434 37.8789 3.73885 37.6534 3.73885 37.6534V37.4279C3.75722 37.3285 3.75722 37.2266 3.73885 37.1272C3.73548 36.6087 3.5338 36.1112 3.17516 35.7367C2.98725 35.4361 2.76171 35.2106 2.76171 34.9475C2.7312 34.7861 2.7312 34.6204 2.76171 34.459C2.83938 34.1126 2.83938 33.7532 2.76171 33.4068C2.65142 33.0749 2.45726 32.7771 2.19802 32.5424L1.93493 32.2041C1.5967 31.6029 2.3859 30.0245 2.87445 28.9722C3.33199 28.2895 3.60394 27.4994 3.66361 26.6798C3.70022 26.1889 3.81448 25.7068 4.00194 25.2517H4.30253C4.48905 25.2839 4.67971 25.2839 4.86622 25.2517C5.42786 25.0001 5.87176 24.5428 6.10645 23.9739C6.24616 23.6592 6.46649 23.387 6.74526 23.1848C6.95549 23.1365 7.17396 23.1365 7.38419 23.1848C7.66599 23.1535 7.94335 23.0905 8.21097 22.9969L8.69954 22.6962L9.03775 22.5083H9.82692H10.4658H17.6813C18.5308 22.3372 19.4135 22.4843 20.1616 22.9217C20.6502 23.1847 21.2139 22.5835 21.2139 22.5835C21.6273 22.1701 22.191 22.3204 23.0929 22.5835C23.8446 22.8826 24.666 22.9608 25.4605 22.8089C25.7 22.7267 25.9275 22.613 26.137 22.4707C26.3352 22.3247 26.5686 22.2339 26.8134 22.2076C27.1292 22.1971 27.4417 22.2752 27.7154 22.4331L28.3542 22.6962C29.2269 22.9399 30.1497 22.9399 31.0224 22.6962C31.6995 22.4692 32.4205 22.4048 33.1271 22.5083H33.39C33.6984 22.5862 34.0212 22.5862 34.3296 22.5083H34.8558C35.0622 22.4337 35.2881 22.4337 35.4946 22.5083C35.6807 22.5448 35.8722 22.5448 36.0584 22.5083H36.4717C36.7708 22.6517 37.0983 22.7261 37.43 22.7261C37.7617 22.7261 38.0892 22.6517 38.3884 22.5083L38.3131 22.0198C38.1235 22.1025 37.9189 22.1452 37.7119 22.1452C37.505 22.1452 37.3003 22.1025 37.1106 22.0198C36.8416 21.8893 36.5452 21.8248 36.2462 21.8319H35.5322C35.1652 21.7165 34.7717 21.7165 34.4048 21.8319H33.9914C33.8048 21.8641 33.6142 21.8641 33.4277 21.8319H33.1271C32.2718 21.7053 31.399 21.7695 30.5715 22.0198C29.8588 22.2205 29.1046 22.2205 28.3918 22.0198H27.8657C27.4455 21.7729 26.9618 21.6552 26.4752 21.6815C26.1168 21.7436 25.7729 21.871 25.4605 22.0573C25.3015 22.1744 25.1235 22.2634 24.9344 22.3204C24.3237 22.394 23.7043 22.3166 23.1306 22.0949C22.2286 21.6815 21.1763 21.3433 20.3495 22.0949V22.3204C19.461 21.855 18.4437 21.6965 17.4558 21.8694H10.5786H10.09C9.65133 21.7205 9.17572 21.7205 8.73704 21.8694L8.21097 22.1325L7.87276 22.358C7.67427 22.3975 7.46994 22.3975 7.27145 22.358C6.93358 22.4132 6.6048 22.5144 6.29431 22.6586C5.86104 22.9423 5.5211 23.3476 5.31718 23.8236C5.09169 24.1994 4.90381 24.6504 4.64075 24.6504H4.26492C4.05758 24.6513 3.85425 24.7075 3.67588 24.8132C3.49751 24.9189 3.3506 25.0702 3.25028 25.2517C2.94725 25.8732 2.78066 26.5523 2.76171 27.2435C2.62511 27.8626 2.39715 28.4578 2.08528 29.0098C1.37125 30.4754 0.582085 32.129 1.18338 33.1437L1.55909 33.5946C1.69132 33.7355 1.79367 33.9017 1.85981 34.0832C1.91209 34.2547 1.91209 34.4378 1.85981 34.6093C1.81764 34.8959 1.81764 35.1871 1.85981 35.4737C1.94185 35.9458 2.14957 36.3873 2.46111 36.7514C2.83683 37.052 2.83683 37.2774 2.83683 37.5404V37.5406C2.79799 37.7138 2.79799 37.8935 2.83683 38.0667C2.91199 38.7808 3.58847 39.1566 4.03944 39.1566C4.28459 39.2426 4.51331 39.3697 4.71587 39.5324C4.73721 39.6315 4.73721 39.734 4.71587 39.833C4.76807 39.9938 4.84418 40.1458 4.94146 40.284C5.18749 40.5651 5.49652 40.7841 5.84336 40.9229C6.79301 41.3877 7.77223 41.7894 8.77466 42.1255C9.86374 42.5465 11.0279 42.7384 12.1945 42.6892L13.3971 42.4637C14.183 42.1594 15.0541 42.1594 15.8399 42.4637C16.0413 42.6413 16.2888 42.7586 16.5539 42.802C16.9541 42.8457 17.356 42.7384 17.6813 42.5013H17.8692C18.3656 42.3137 18.9135 42.3137 19.41 42.5013H19.7482C20.0269 42.6223 20.3276 42.6847 20.6314 42.6847C20.9352 42.6847 21.2358 42.6223 21.5145 42.5013L21.8152 42.2758H22.0031C22.0782 42.2758 22.2662 42.4637 22.2662 42.4637L22.5668 42.7268C22.892 42.8948 23.253 42.9825 23.6191 42.9825C23.9853 42.9825 24.3461 42.8948 24.6714 42.7268C25.3103 42.7268 25.686 42.5389 25.9866 42.7268C26.1478 42.8706 26.3412 42.9737 26.5504 43.0274C26.9098 43.0715 27.2724 42.9775 27.5651 42.7643H27.8657C28.0503 42.7149 28.2448 42.7149 28.4295 42.7643H28.6173C29.3974 42.9343 30.2049 42.9343 30.9849 42.7643C31.6763 42.5955 32.3981 42.5955 33.0895 42.7643H33.4653Z" fill="#646B8E"/>
<path d="M42.7666 16.5095L45.0832 19.4504C45.0832 19.4504 57.1613 12.2968 61.276 9.07216C62.0593 8.46045 62.5675 7.56262 62.6889 6.57618C62.8102 5.58974 62.5347 4.5955 61.923 3.81217C61.3113 3.02884 60.4135 2.52058 59.4271 2.39923C58.4406 2.27788 57.4464 2.55337 56.663 3.16508C52.576 6.43293 42.7666 16.5095 42.7666 16.5095Z" fill="#97B9D6"/>
<mask id="mask3_808_24325" style="mask-type:alpha" maskUnits="userSpaceOnUse" x="27" y="15" width="20" height="16">
<path d="M46.5473 21.3042L46.6066 18.5751L43.9476 15.2317L27.6416 28.0448C27.6416 28.0448 27.5094 36.2274 46.5473 21.3042Z" fill="#D1E1EE"/>
</mask>
<g mask="url(#mask3_808_24325)">
<path d="M46.5473 21.3042L46.6066 18.5751L43.9476 15.2317L27.6416 28.0448C27.6416 28.0448 27.5094 36.2274 46.5473 21.3042Z" fill="#D1E1EE"/>
<rect width="3.58067" height="11.9356" transform="matrix(-0.559193 0.829038 0.829038 0.559193 33.8577 17.9167)" fill="#DFEDF9"/>
<rect width="1.19356" height="11.9356" transform="matrix(-0.559193 0.829038 0.829038 0.559193 32.2805 23.2023)" fill="#DFEDF9"/>
</g>
<path d="M41.1128 42.2379C45.1186 42.2379 48.3659 37.7455 48.3659 32.2039C48.3659 26.6622 45.1186 22.1698 41.1128 22.1698C37.107 22.1698 33.8596 26.6622 33.8596 32.2039C33.8596 37.7455 37.107 42.2379 41.1128 42.2379Z" fill="#F0F3FC"/>
<path d="M41.3382 40.6973C44.6176 40.6973 47.2759 36.8948 47.2759 32.2041C47.2759 27.5134 44.6176 23.7108 41.3382 23.7108C38.0589 23.7108 35.4004 27.5134 35.4004 32.2041C35.4004 36.8948 38.0589 40.6973 41.3382 40.6973Z" fill="white"/>
<path d="M44.0816 22.358C42.2768 21.6929 40.6285 21.431 38.7571 21.8755L39.2096 22.7805C40.9353 22.3972 42.0447 22.2423 43.7059 22.8465C43.969 23.072 44.1569 23.0345 44.1569 23.072V23.2975C44.1516 23.4514 44.1791 23.6046 44.2374 23.7472C44.2957 23.8897 44.3835 24.0182 44.4951 24.1243C44.7496 24.3269 45.0735 24.4213 45.397 24.3873H45.6224C45.7054 24.4586 45.77 24.5488 45.8104 24.6504C45.9908 25.0515 46.2179 25.4299 46.4868 25.7779C47.0176 26.4517 47.3553 27.257 47.464 28.1079C47.4762 28.3731 47.5537 28.6313 47.6895 28.8595C47.722 29.008 47.722 29.1619 47.6895 29.3104C47.7273 29.5343 47.7273 29.763 47.6895 29.9869V30.6633V31.7156C47.9166 32.3343 47.9166 33.0136 47.6895 33.6322C47.6195 33.8651 47.6195 34.1134 47.6895 34.3463C47.7077 34.433 47.7077 34.5226 47.6895 34.6093C47.6528 34.8459 47.6528 35.0868 47.6895 35.3234C47.712 35.4476 47.712 35.5749 47.6895 35.6992C47.6226 35.8377 47.5185 35.9548 47.3887 36.0374H47.2009C46.6351 36.6249 46.2334 37.3506 46.0359 38.1419C45.9709 38.3999 45.8829 38.6514 45.7728 38.8935C44.9586 39.9248 43.8809 40.7169 42.6536 41.186H41.451C40.7019 41.0993 39.9453 41.0993 39.1962 41.186H38.7828C38.4501 41.2719 38.1008 41.2719 37.7681 41.186L37.956 42.4261C38.4378 42.5411 38.9398 42.5411 39.4216 42.4261H39.7975C40.447 42.3568 41.1021 42.3568 41.7516 42.4261H43.067C44.6629 41.9385 46.0511 40.9337 47.0129 39.57C47.1292 39.3005 47.2296 39.0245 47.3136 38.7432C47.4631 38.111 47.7738 37.5284 48.2155 37.0521C48.4584 36.8949 48.6534 36.6738 48.7792 36.4132C48.8508 36.1295 48.8508 35.8325 48.7792 35.5488C48.7601 35.4243 48.7601 35.2976 48.7792 35.1731C48.7946 35.0106 48.7946 34.847 48.7792 34.6845V34.3838C49.0777 33.5582 49.0777 32.654 48.7792 31.8283C48.7612 31.5279 48.7612 31.2268 48.7792 30.9264V30.3251C48.817 30.0382 48.817 29.7477 48.7792 29.4608C48.7266 29.2162 48.6512 28.9771 48.5537 28.7467L48.3659 28.3333C48.2471 27.3282 47.8718 26.3705 47.276 25.5523C47.0283 25.2373 46.8142 24.8973 46.6372 24.5377C46.5354 24.2525 46.3355 24.0128 46.0734 23.8612C45.8887 23.8118 45.6944 23.8118 45.5097 23.8612H45.1339V23.6357C45.1634 23.449 45.1634 23.2588 45.1339 23.072C45.0304 22.8759 44.8804 22.7082 44.6969 22.5836C44.5134 22.4591 44.3021 22.3817 44.0816 22.358Z" fill="#646B8E"/>
<path d="M39.1588 42.5764C38.4072 42.5764 37.6181 41.6745 37.355 41.1484H37.167C36.5282 41.1484 36.0397 40.6598 35.9269 40.0961C35.8902 39.8595 35.8902 39.6187 35.9269 39.3821C35.9646 39.2597 35.9646 39.1287 35.9269 39.0063C35.7409 39.0437 35.5493 39.0437 35.3632 39.0063C34.7995 39.0063 34.4989 38.2922 34.5365 37.4654C34.5365 37.2775 34.5365 36.8642 34.5365 36.7514C34.3443 36.7023 34.1649 36.6126 34.0103 36.4884C33.4466 35.9998 33.7472 35.2106 34.0103 34.8348C34.121 34.5055 34.1966 34.1654 34.2358 33.8201C33.8941 33.6426 33.6313 33.3434 33.4991 32.9817C33.367 32.62 33.375 32.222 33.5217 31.8659C33.5799 31.6351 33.6553 31.409 33.7472 31.1894C33.8678 30.9517 33.9563 30.6989 34.0103 30.4378C34.0461 30.1634 34.0461 29.8855 34.0103 29.6111C33.9258 29.2922 33.9123 28.9586 33.9707 28.634C34.0291 28.3093 34.1581 28.0014 34.3485 27.732L34.6867 27.469L34.9122 27.2435C34.946 27.0951 34.946 26.9409 34.9122 26.7925C34.8213 26.4859 34.8213 26.1596 34.9122 25.853C35.0022 25.6679 35.1284 25.5027 35.2833 25.3671C35.4382 25.2316 35.6188 25.1284 35.8142 25.0638C35.9703 24.9916 36.1107 24.8894 36.2275 24.7632C36.2549 24.6267 36.2549 24.4862 36.2275 24.3498C36.2805 23.9798 36.4519 23.637 36.7161 23.3726C36.9173 23.2491 37.1316 23.1483 37.355 23.072C37.9342 22.8475 38.423 22.4379 38.7455 21.907L39.497 22.4707C39.0755 23.1315 38.4579 23.644 37.7307 23.9364H37.3174C37.2848 24.0849 37.2848 24.2388 37.3174 24.3873C37.2601 24.6708 37.145 24.9395 36.9792 25.1766C36.7725 25.433 36.4996 25.6279 36.19 25.7402C36.0021 25.7402 35.8142 25.9282 35.7766 26.0409C35.7384 26.1888 35.7384 26.3439 35.7766 26.4918C35.8883 26.8209 35.8883 27.1775 35.7766 27.5065C35.6539 27.7258 35.4876 27.9176 35.288 28.0702H35.1002C34.8747 28.2957 35.1002 28.634 35.1002 29.1977C35.1384 29.5599 35.1384 29.9253 35.1002 30.2875C35.0504 30.6317 34.9356 30.9633 34.7619 31.2646C34.6825 31.4465 34.6196 31.6352 34.574 31.8283C34.574 32.129 34.574 32.5424 34.574 32.6551C34.7293 32.6923 34.872 32.7702 34.9874 32.8806C35.0807 32.9792 35.1471 33.1001 35.18 33.2317C35.2129 33.3634 35.2112 33.5014 35.1753 33.6322C35.1289 34.0568 35.0279 34.4737 34.8747 34.8724C34.6868 35.3234 34.6868 35.4361 34.8747 35.4737C35.0626 35.5112 34.8747 35.4737 34.8747 35.4737H35.288C35.5007 35.6708 35.6578 35.9205 35.7435 36.1975C35.8293 36.4745 35.8407 36.7693 35.7766 37.0521C35.7766 37.4279 35.7766 37.6158 35.7766 37.6158H36.0021C36.1713 37.5853 36.3454 37.5968 36.5092 37.6492C36.673 37.7016 36.8215 37.7934 36.9416 37.9164C37.0038 37.9813 37.0524 38.0579 37.0847 38.1418C37.117 38.2257 37.1323 38.3151 37.1295 38.405C37.167 38.591 37.167 38.7827 37.1295 38.9687C37.1095 39.1309 37.1095 39.295 37.1295 39.4573C37.1407 39.5216 37.167 39.5824 37.2062 39.6347C37.2454 39.687 37.2964 39.7291 37.355 39.7579C37.4807 39.6853 37.6232 39.6471 37.7684 39.6471C37.9135 39.6471 38.0561 39.6853 38.1818 39.7579C38.3171 39.8506 38.4217 39.9814 38.4824 40.1337C38.4824 40.5471 39.2341 41.0732 39.4595 41.0732V42.0127L39.1588 42.5764Z" fill="#646B8E"/>
</g>
<defs>
<clipPath id="clip0_808_24325">
<rect width="64" height="64" fill="white"/>
</clipPath>
</defs>
</svg>
