<svg width="64" height="64" viewBox="0 0 64 64" fill="none" xmlns="http://www.w3.org/2000/svg">
<ellipse cx="31.2208" cy="39.5231" rx="27.5167" ry="3.70417" fill="white"/>
<path fill-rule="evenodd" clip-rule="evenodd" d="M58.3917 39.9982C61.623 39.2523 63.5 38.3623 63.5 37.4065C63.5 34.7763 49.285 32.644 31.75 32.644C14.215 32.644 0 34.7763 0 37.4065C0 38.2034 1.30468 38.9545 3.6111 39.6145C6.83098 38.0377 17.7353 36.8774 30.6917 36.8774C44.6782 36.8774 56.2735 38.2296 58.3917 39.9982Z" fill="#97B9D6"/>
<path d="M56.6344 25.829C56.5083 26.3604 56.3178 26.8746 56.0673 27.3599C55.7754 27.8461 55.4123 28.2856 54.99 28.664C48.73 33.8129 40.8965 36.6642 32.7915 36.744C23.209 36.744 12.5208 34.1924 8.6084 31.3006C7.89321 30.8903 7.34971 30.2361 7.07745 29.4579C6.97433 29.0214 6.92674 28.5737 6.93573 28.1254C6.93298 28.0782 6.93298 28.0309 6.93573 27.9837C6.92247 28.0396 6.92247 28.0978 6.93573 28.1538V39.2208C6.95972 40.1034 7.24074 40.9597 7.74434 41.6849C8.24793 42.4101 8.9522 42.9725 9.77079 43.3032C16.6905 45.7789 23.9969 46.9983 31.3456 46.9038C33.0182 46.9038 34.7477 46.9038 36.5338 46.7053C42.4832 45.7888 48.2814 45.0723 53.7709 42.6023C54.5843 42.2321 55.2795 41.6443 55.7798 40.9039C56.2801 40.1634 56.566 39.2991 56.606 38.4063V26.0275C56.6209 25.9622 56.6304 25.8958 56.6344 25.829Z" fill="#6A3400"/>
<path d="M56.1806 22.4555C54.2527 19.0251 48.3558 17.4942 43.8764 17.2107C37.4125 16.8138 24.9382 22.2004 23.0954 23.0225C15.951 22.172 11.0748 22.8241 8.63662 24.8937C8.16146 25.2672 7.76789 25.734 7.4802 26.2655C7.19251 26.797 7.01673 27.3818 6.96385 27.9839C6.9611 28.0311 6.9611 28.0784 6.96385 28.1256C6.95486 28.574 7.00254 29.0217 7.10566 29.4581C7.37792 30.2364 7.92142 30.8905 8.63662 31.3009C12.549 34.1359 23.2372 36.7442 32.8197 36.7442C40.9247 36.6645 48.7583 33.8131 55.0182 28.6643C55.4405 28.2859 55.8036 27.8463 56.0955 27.3602C56.346 26.8748 56.5364 26.3607 56.6625 25.8292C56.9495 24.6849 56.7765 23.4737 56.1806 22.4555ZM54.5929 26.5664C53.2888 29.0329 43.2527 35.0715 32.7913 35.0715C20.6289 35.0715 9.17525 31.0458 8.69329 29.0612C8.63752 28.7805 8.63752 28.4914 8.69329 28.2107C8.71967 27.8139 8.82919 27.4271 9.01479 27.0754C9.2004 26.7238 9.45794 26.4151 9.77062 26.1694C11.2449 24.922 14.7603 23.6746 23.2088 24.6952H23.634C23.7758 24.6952 37.4408 18.5715 43.848 19.0251C49.0362 19.3369 53.5439 21.1513 54.8197 23.4194C55.0567 23.9189 55.1604 24.4713 55.1206 25.0228C55.0809 25.5742 54.8991 26.106 54.5929 26.5664Z" fill="#804400"/>
<path d="M44.1516 18.6236C37.5368 18.2139 23.4292 24.4774 23.2828 24.4774H22.8438C14.0631 23.4237 10.4923 24.7115 8.97035 25.9994C8.64754 26.253 8.38165 26.5717 8.19004 26.9348C7.99842 27.2978 7.88535 27.6971 7.85812 28.1068C7.80055 28.3966 7.80055 28.6949 7.85812 28.9848C8.35569 31.0336 20.1804 35.1899 32.7368 35.1899C43.4785 35.1899 53.8982 28.9556 55.2446 26.4092C55.5739 25.9095 55.7614 25.3297 55.7871 24.7318C55.8129 24.1339 55.676 23.5402 55.3909 23.014C54.1616 20.8188 49.5079 18.9456 44.1516 18.6236ZM20.5608 31.4434C20.4014 31.5912 20.1928 31.6747 19.9754 31.6776C19.749 31.6764 19.5306 31.5932 19.3608 31.4434L14.8534 26.936C14.7701 26.8567 14.7039 26.7614 14.6586 26.6557C14.6134 26.5501 14.5899 26.4363 14.5899 26.3213C14.5899 26.2063 14.6134 26.0926 14.6586 25.987C14.7039 25.8813 14.7701 25.786 14.8534 25.7067C15.016 25.5544 15.2306 25.4697 15.4534 25.4697C15.6763 25.4697 15.8907 25.5544 16.0534 25.7067L20.5608 30.2141C20.6441 30.2934 20.7104 30.3888 20.7557 30.4944C20.8009 30.6001 20.8243 30.7138 20.8243 30.8287C20.8243 30.9437 20.8009 31.0575 20.7557 31.1632C20.7104 31.2688 20.6441 31.3641 20.5608 31.4434ZM29.3415 34.224C29.2623 34.3072 29.1669 34.3735 29.0612 34.4188C28.9556 34.4641 28.8419 34.4874 28.7269 34.4874C28.4953 34.4841 28.2743 34.3894 28.1122 34.224L20.8243 26.936C20.741 26.8567 20.6747 26.7614 20.6294 26.6557C20.5842 26.5501 20.5608 26.4363 20.5608 26.3213C20.5608 26.2063 20.5842 26.0926 20.6294 25.987C20.6747 25.8813 20.741 25.786 20.8243 25.7067C20.9869 25.5544 21.2015 25.4697 21.4243 25.4697C21.6472 25.4697 21.8616 25.5544 22.0243 25.7067L29.3415 33.0239C29.4938 33.1866 29.5785 33.4012 29.5785 33.624C29.5785 33.8468 29.4938 34.0613 29.3415 34.224ZM34.4929 33.3751C34.3205 33.5206 34.1037 33.6032 33.8782 33.6093C33.6517 33.6082 33.4334 33.5249 33.2636 33.3751L25.9756 26.0579C25.8228 25.8975 25.7388 25.6837 25.7415 25.4622C25.7442 25.2407 25.8335 25.029 25.9901 24.8723C26.1467 24.7157 26.3584 24.6265 26.5799 24.6238C26.8014 24.6211 27.0152 24.7051 27.1757 24.8579L34.4929 32.1459C34.6512 32.3097 34.7421 32.527 34.7475 32.7548C34.7529 32.9825 34.6725 33.204 34.5221 33.3751H34.4929ZM39.615 31.6483C39.5413 31.7307 39.4511 31.7967 39.3502 31.8421C39.2494 31.8875 39.1401 31.9112 39.0296 31.9117C38.9146 31.9117 38.8009 31.8884 38.6952 31.8431C38.5896 31.7978 38.4942 31.7315 38.4149 31.6483L31.1269 24.3603C31.0437 24.2811 30.9775 24.1857 30.9322 24.08C30.8869 23.9744 30.8635 23.8607 30.8635 23.7457C30.8635 23.6308 30.8869 23.5169 30.9322 23.4113C30.9775 23.3056 31.0437 23.2103 31.1269 23.131C31.2896 22.9787 31.5041 22.894 31.727 22.894C31.9498 22.894 32.1643 22.9787 32.3269 23.131L39.615 30.4482C39.6993 30.5229 39.7673 30.6142 39.8148 30.7163C39.8623 30.8184 39.8882 30.9293 39.891 31.0419C39.8937 31.1545 39.8732 31.2665 39.8308 31.3708C39.7883 31.4752 39.7248 31.5696 39.6442 31.6483H39.615ZM44.7663 29.9214C44.6925 30.0038 44.6023 30.0699 44.5015 30.1152C44.4007 30.1606 44.2915 30.1843 44.1809 30.1848C44.066 30.1848 43.9522 30.1615 43.8465 30.1162C43.7409 30.0709 43.6455 30.0047 43.5662 29.9214L36.249 22.6335C36.0967 22.4708 36.012 22.2562 36.012 22.0334C36.012 21.8106 36.0967 21.5961 36.249 21.4334C36.3283 21.3502 36.4236 21.2839 36.5293 21.2386C36.6349 21.1933 36.7487 21.17 36.8637 21.17C36.9786 21.17 37.0924 21.1933 37.198 21.2386C37.3037 21.2839 37.399 21.3502 37.4783 21.4334L44.7663 28.7214C44.8506 28.796 44.9187 28.8873 44.9662 28.9894C45.0137 29.0916 45.0396 29.2024 45.0424 29.315C45.0451 29.4276 45.0246 29.5397 44.9822 29.644C44.9397 29.7483 44.8762 29.8427 44.7956 29.9214H44.7663ZM47.137 26.2921C46.9646 26.4376 46.7479 26.5201 46.5224 26.5262C46.296 26.525 46.0776 26.4419 45.9078 26.2921L41.4003 21.7846C41.2735 21.6156 41.212 21.4064 41.227 21.1956C41.242 20.9847 41.3324 20.7864 41.4819 20.6369C41.6314 20.4875 41.8298 20.3969 42.0406 20.3819C42.2514 20.367 42.4606 20.4286 42.6297 20.5554L47.137 25.0628C47.2954 25.2266 47.3863 25.444 47.3917 25.6718C47.3971 25.8995 47.3167 26.1209 47.1663 26.2921H47.137Z" fill="#D77F4A"/>
<path d="M16.0529 25.7069C15.8902 25.5547 15.6758 25.47 15.453 25.47C15.2301 25.47 15.0156 25.5547 14.8529 25.7069C14.7696 25.7862 14.7034 25.8816 14.6582 25.9872C14.6129 26.0929 14.5895 26.2066 14.5895 26.3216C14.5895 26.4365 14.6129 26.5503 14.6582 26.656C14.7034 26.7616 14.7696 26.857 14.8529 26.9363L19.3603 31.4436C19.5302 31.5934 19.7485 31.6767 19.975 31.6778C20.1923 31.6749 20.401 31.5915 20.5604 31.4436C20.6436 31.3644 20.7099 31.2691 20.7552 31.1634C20.8005 31.0578 20.8238 30.944 20.8238 30.829C20.8238 30.7141 20.8005 30.6003 20.7552 30.4947C20.7099 30.389 20.6436 30.2937 20.5604 30.2144L16.0529 25.7069Z" fill="#904D24"/>
<path d="M42.6577 20.5553C42.4886 20.4285 42.2795 20.3669 42.0686 20.3818C41.8578 20.3968 41.6595 20.4874 41.51 20.6369C41.3606 20.7863 41.27 20.9846 41.255 21.1955C41.24 21.4063 41.3017 21.6155 41.4285 21.7846L45.9359 26.292C46.1058 26.4418 46.3241 26.5249 46.5506 26.5261C46.7761 26.52 46.9928 26.4375 47.1652 26.292C47.3194 26.1245 47.4051 25.9051 47.4051 25.6774C47.4051 25.4497 47.3194 25.2302 47.1652 25.0627L42.6577 20.5553Z" fill="#904D24"/>
<path d="M22.0538 25.7069C21.8911 25.5547 21.6765 25.47 21.4537 25.47C21.2309 25.47 21.0164 25.5547 20.8537 25.7069C20.7705 25.7862 20.7042 25.8816 20.6589 25.9872C20.6137 26.0929 20.5903 26.2066 20.5903 26.3216C20.5903 26.4365 20.6137 26.5503 20.6589 26.656C20.7042 26.7616 20.7705 26.857 20.8537 26.9363L28.1417 34.2242C28.3038 34.3897 28.5247 34.4843 28.7563 34.4876C28.8713 34.4876 28.9851 34.4643 29.0907 34.419C29.1964 34.3738 29.2917 34.3075 29.371 34.2242C29.5233 34.0615 29.608 33.8471 29.608 33.6243C29.608 33.4014 29.5233 33.1869 29.371 33.0242L22.0538 25.7069Z" fill="#904D24"/>
<path d="M27.2035 24.858C27.0431 24.7052 26.8294 24.6213 26.6078 24.624C26.3863 24.6267 26.1746 24.7158 26.018 24.8725C25.8613 25.0291 25.7722 25.2408 25.7695 25.4623C25.7668 25.6839 25.8507 25.8976 26.0035 26.058L33.2915 33.3753C33.4614 33.5251 33.6797 33.6083 33.9062 33.6095C34.1317 33.6033 34.3484 33.5207 34.5208 33.3753C34.675 33.2078 34.7607 32.9884 34.7607 32.7606C34.7607 32.5329 34.675 32.3135 34.5208 32.146L27.2035 24.858Z" fill="#904D24"/>
<path d="M32.2678 23.0727C32.1051 22.9204 31.8906 22.8357 31.6678 22.8357C31.445 22.8357 31.2304 22.9204 31.0677 23.0727C30.9845 23.1519 30.9182 23.2473 30.8729 23.353C30.8276 23.4586 30.8043 23.5723 30.8043 23.6873C30.8043 23.8022 30.8276 23.9161 30.8729 24.0217C30.9182 24.1274 30.9845 24.2227 31.0677 24.302L38.3557 31.5899C38.435 31.6732 38.5303 31.7395 38.636 31.7848C38.7416 31.83 38.8554 31.8534 38.9704 31.8534C39.081 31.8528 39.1901 31.8292 39.291 31.7838C39.3918 31.7384 39.482 31.6724 39.5557 31.5899C39.6382 31.5133 39.704 31.4204 39.7489 31.3172C39.7939 31.2139 39.8171 31.1025 39.8171 30.9899C39.8171 30.8773 39.7939 30.7659 39.7489 30.6627C39.704 30.5595 39.6382 30.4666 39.5557 30.3899L32.2678 23.0727Z" fill="#904D24"/>
<path d="M37.5072 21.4333C37.4279 21.3501 37.3326 21.2838 37.2269 21.2385C37.1213 21.1932 37.0074 21.1699 36.8925 21.1699C36.7775 21.1699 36.6638 21.1932 36.5582 21.2385C36.4525 21.2838 36.3571 21.3501 36.2779 21.4333C36.1256 21.596 36.0409 21.8105 36.0409 22.0333C36.0409 22.2561 36.1256 22.4707 36.2779 22.6334L43.5951 29.9213C43.6744 30.0046 43.7697 30.0708 43.8754 30.1161C43.9811 30.1614 44.0948 30.1847 44.2097 30.1847C44.3203 30.1842 44.4296 30.1605 44.5304 30.1151C44.6312 30.0698 44.7214 30.0037 44.7951 29.9213C44.8776 29.8446 44.9433 29.7518 44.9883 29.6485C45.0332 29.5453 45.0564 29.4339 45.0564 29.3213C45.0564 29.2087 45.0332 29.0973 44.9883 28.9941C44.9433 28.8908 44.8776 28.798 44.7951 28.7213L37.5072 21.4333Z" fill="#904D24"/>
<path opacity="0.4" d="M53.8286 39.2776C48.3391 41.7476 42.5409 43.4641 36.5915 44.3807C34.8054 44.5224 33.076 44.5791 31.4033 44.5791C25.0635 44.5903 18.7541 43.7026 12.6635 41.9426C12.0035 41.1471 11.6513 40.1409 11.6712 39.1075V27.8703C11.729 27.2695 11.9067 26.6863 12.1941 26.1555C12.4814 25.6247 12.8724 25.157 13.3439 24.7801C15.3762 23.3517 17.806 22.5979 20.2899 22.6254C14.6197 22.2569 10.7641 22.9657 8.63779 24.7517C8.16263 25.1252 7.76906 25.5922 7.48137 26.1237C7.19368 26.6552 7.0179 27.24 6.96503 27.842C6.95176 27.898 6.95176 27.9562 6.96503 28.0121V39.0791C6.98902 39.9617 7.27004 40.8181 7.77363 41.5433C8.27723 42.2684 8.9815 42.8309 9.80009 43.1616C14.6126 44.9152 19.6369 41.0212 24.7409 41.4503C26.8105 41.6204 29.0218 46.7621 31.375 46.7621C33.0476 46.7621 34.777 46.7622 36.5631 46.5637C42.5125 45.6472 48.3108 43.9305 53.8003 41.4606C54.6137 41.0904 55.3089 40.5026 55.8092 39.7622C56.3095 39.0217 56.5954 38.1575 56.6354 37.2647V34.94C56.6241 35.854 56.3546 36.7463 55.858 37.5138C55.3614 38.2813 54.6578 38.8928 53.8286 39.2776Z" fill="#4C1D00"/>
<path d="M32.9048 30.3898C30.4783 31.0872 31.8306 34.7162 29.3828 34.8017C28.56 34.8304 28.3 31.6981 26.8067 31.2154C25.3095 30.7315 21.9113 32.9193 21.9111 31.3864C21.9109 29.5194 25.162 29.811 25.9852 28.2301C26.7035 26.8505 23.1848 25.9898 24.865 24.3096C26.8596 23.1524 29.2848 25.642 30.4363 25.2033C32.9084 24.2616 31.0487 21.5293 34.1104 20.917C37.172 20.3047 39.6216 22.3866 39.6214 23.3663C39.6212 25.2033 38.3967 24.5783 38.3967 27.0402C38.3967 28.7722 40.6736 30.737 39.0091 31.2154C36.5826 31.9128 35.3313 29.6923 32.9048 30.3898Z" fill="#FBE297"/>
<path d="M22.9695 28.3654C23.3267 28.3519 23.6919 28.3279 24.0635 28.294M40.4977 19.973C40.1263 21.01 39.3061 22.0177 38.1823 22.9538M38.1823 22.9538C38.3659 22.327 38.7147 20.8615 38.6415 20.015M38.1823 22.9538C38.7228 22.7715 40.0986 22.1926 41.2779 21.3351M38.1823 22.9538C37.9843 23.1188 37.7769 23.2816 37.5608 23.4419M37.5608 23.4419C38.3237 23.2733 40.1164 22.9285 41.1838 22.8986M37.5608 23.4419C36.9319 23.9084 36.2299 24.3543 35.4745 24.7737M35.4745 24.7737C36.6486 24.7534 39.275 24.7181 40.3876 24.7394M35.4745 24.7737C35.2641 24.8905 35.0495 25.0052 34.8313 25.1178M34.8313 25.1178C35.4459 24.1846 36.7155 22.0775 36.8769 21.1152M34.8313 25.1178C34.2592 25.4129 33.6616 25.6931 33.0461 25.9561M33.0461 25.9561C33.8236 25.8837 35.7473 25.8466 37.2215 26.278M33.0461 25.9561C33.5833 25.4122 34.6534 24.0094 34.6361 22.7491M33.0461 25.9561C32.3858 26.2383 31.7049 26.5008 31.0127 26.7408M29.1093 27.3365C29.8469 26.7813 31.5733 25.3355 32.5782 23.9939M29.1093 27.3365C29.7483 27.1577 30.3851 26.9585 31.0127 26.7408M29.1093 27.3365C28.5349 27.4973 27.9587 27.6415 27.3859 27.7677M31.0127 26.7408C31.6279 26.8059 33.0648 27.0272 33.8912 27.3919M27.3859 27.7677C28.1994 27.736 29.9422 27.6847 30.4049 27.7323M27.3859 27.7677C26.9655 27.8603 26.5469 27.9432 26.1321 28.0158M26.1321 28.0158C26.8381 28.061 28.6967 28.3955 30.483 29.3718M26.1321 28.0158C25.4284 28.1391 24.7355 28.2327 24.0635 28.294M24.0635 28.294C24.7246 28.2486 26.3854 28.5655 27.7391 30.1964" stroke="#07AA7C" stroke-linecap="round" stroke-linejoin="round"/>
<path d="M7.90304 44.3434L2.1167 39.0466C2.1167 39.0466 13.2292 41.3223 31.75 41.3223C50.2709 41.3223 61.3834 39.0997 61.3834 39.0997L56.288 44.1101C55.4604 44.9239 54.4724 45.5572 53.3498 45.8519C50.4225 46.6204 43.5509 47.9897 31.75 47.9897C19.6871 47.9897 13.0609 46.5589 10.3987 45.8016C9.45581 45.5334 8.6261 45.0053 7.90304 44.3434Z" fill="#D1E1EE" stroke="#D1E1EE" stroke-width="1.05833"/>
<path opacity="0.4" d="M35.9834 45.3438C29.6334 45.873 17.1451 45.4497 11.6417 43.7563" stroke="#97B9D6" stroke-width="1.05833" stroke-linecap="round"/>
</svg>
