<svg width="64" height="64" viewBox="0 0 64 64" fill="none" xmlns="http://www.w3.org/2000/svg">
<path d="M29.2037 16.8632V14.4327H35.0558V16.8632C36.7583 17.4683 38.232 18.5851 39.2748 20.0606C40.3176 21.5361 40.8786 23.2981 40.8807 25.1049V58.0584C40.8807 58.5733 40.6761 59.0672 40.312 59.4313C39.9478 59.7955 39.454 60 38.939 60H25.3612C24.8473 59.9964 24.3555 59.7907 23.9922 59.4274C23.6288 59.064 23.4231 58.5722 23.4196 58.0584V25.1049C23.4206 23.3035 23.9764 21.546 25.0112 20.0714C26.0461 18.5969 27.5099 17.4767 29.2037 16.8632Z" fill="#016061"/>
<path d="M35.0146 5.07272V4.72461V14.4328H29.2033V4.72461V5.07272H35.0146Z" fill="#B72A59"/>
<path d="M36.5001 50C37.0523 50 37.5001 49.5523 37.5001 49V33C37.5001 32.4477 37.0523 32 36.5001 32H27.5001C26.9478 32 26.5001 32.4477 26.5001 33V49C26.5001 49.5523 26.9478 50 27.5001 50H36.5001Z" fill="#B72A59"/>
<path d="M29.2032 16.8632V14.4327H32.1089V17.8408C30.4089 18.4439 28.9374 19.5588 27.8968 21.0322C26.8562 22.5056 26.2975 24.2652 26.2975 26.069V29.9522V52.2471V58.0584C26.2975 58.5733 26.5021 59.0672 26.8662 59.4313C27.2304 59.7955 27.7242 60 28.2392 60H25.3199C24.8061 59.9964 24.3143 59.7907 23.9509 59.4274C23.5876 59.064 23.3819 58.5722 23.3783 58.0584V25.1049C23.3824 23.2986 23.9441 21.5375 24.9866 20.0624C26.0292 18.5872 27.5018 17.47 29.2032 16.8632Z" fill="#003541"/>
<path d="M32.109 3V4.72462V14.4328H29.2033V4.72462V3H32.109Z" fill="#931A4E"/>
<path d="M30.3977 38.2756H30.6964C31.0188 38.2689 31.3296 38.1542 31.5789 37.9498C31.653 37.8874 31.7171 37.8142 31.769 37.7325C32.0773 37.8367 32.4036 37.8772 32.728 37.8515C33.0524 37.8258 33.3683 37.7345 33.6564 37.5831H33.7378C34.3677 37.9674 35.1216 38.0939 35.8424 37.9362L35.7474 37.6103C35.1557 37.7303 34.5407 37.639 34.0094 37.3523C34.1175 37.2338 34.1758 37.0782 34.1723 36.9178C34.1657 36.8126 34.127 36.712 34.0614 36.6295C33.9959 36.547 33.9066 36.4865 33.8057 36.4562C33.7266 36.4256 33.6395 36.4223 33.5583 36.4469C33.4771 36.4715 33.4065 36.5226 33.3576 36.592C33.3214 36.7096 33.3149 36.8344 33.3386 36.9552C33.3623 37.0761 33.4155 37.1892 33.4934 37.2845C33.0084 37.5259 32.4486 37.5697 31.932 37.4066C31.9655 37.2836 31.9732 37.1549 31.9545 37.0287C31.9358 36.9025 31.8911 36.7815 31.8233 36.6734V36.5784H31.7147C31.6149 36.5873 31.5204 36.6275 31.4448 36.6934C31.3692 36.7592 31.3163 36.8473 31.2938 36.945C31.2784 37.0533 31.2931 37.1638 31.3362 37.2643C31.3793 37.3649 31.4492 37.4517 31.5382 37.5153C31.5097 37.5662 31.473 37.6121 31.4296 37.651C31.2921 37.7509 31.1357 37.8217 30.97 37.859C30.8042 37.8964 30.6326 37.8995 30.4656 37.8683C30.3569 37.8547 30.0854 37.7868 30.0039 37.6103C29.9889 37.525 29.9889 37.4377 30.0039 37.3523V36.2797H29.6645C29.6525 36.6707 29.5453 37.0529 29.3522 37.3931C29.2649 37.5363 29.1302 37.6446 28.9716 37.6991C28.8129 37.7537 28.6402 37.7511 28.4832 37.6918L28.3203 37.9905C28.5558 38.1089 28.8277 38.1326 29.0802 38.0569C29.3327 37.9811 29.5466 37.8116 29.678 37.5831C29.6661 37.6596 29.6661 37.7375 29.678 37.814C29.749 37.9456 29.8523 38.057 29.9782 38.1377C30.1041 38.2185 30.2484 38.2659 30.3977 38.2756Z" fill="#931A4E"/>
<path d="M34.9202 40.0947H29.299V40.4342H34.9202V40.0947Z" fill="#931A4E"/>
<path d="M34.9202 41.86H29.299V42.1994H34.9202V41.86Z" fill="#931A4E"/>
<path d="M32.1096 43.6251H29.299V43.9646H32.1096V43.6251Z" fill="#931A4E"/>
<rect x="26.8135" y="3" width="10.3636" height="4.14545" rx="1" fill="#B72A59"/>
<path d="M26.8135 4C26.8135 3.44772 27.2612 3 27.8135 3H31.9953V7.14545H27.8135C27.2612 7.14545 26.8135 6.69774 26.8135 6.14545V4Z" fill="#931A4E"/>
<rect opacity="0.2" x="38.5" y="29.5" width="1" height="19" rx="0.5" fill="white"/>
<rect opacity="0.2" x="38.5" y="58.5" width="1" height="3" rx="0.5" fill="white"/>
<circle opacity="0.2" cx="39" cy="51" r="0.5" fill="white"/>
</svg>
