<svg width="64" height="64" viewBox="0 0 64 64" fill="none" xmlns="http://www.w3.org/2000/svg">
<mask id="mask0_808_22896" style="mask-type:alpha" maskUnits="userSpaceOnUse" x="0" y="36" width="49" height="5">
<rect x="0.5" y="36.4381" width="48.4615" height="3.63462" fill="#D9D9D9"/>
</mask>
<g mask="url(#mask0_808_22896)">
<rect x="0.5" y="36.4381" width="48.4615" height="3.63462" fill="#D9D9D9"/>
<path d="M15.5265 38.6608C16.1946 38.6608 17.7712 38.2599 18.7332 38.2599C19.9357 38.2599 22.3407 39.0616 24.3449 38.6608M14.7249 37.4583C17.9315 37.4583 17.5307 35.4541 20.7374 35.4541M20.7374 36.2558C20.7374 36.3894 21.2985 36.6566 23.5432 36.6566C26.349 36.6566 28.3532 35.4541 30.3574 35.8549C31.9607 36.1756 32.0943 36.523 31.9607 36.6566" stroke="black" stroke-width="0.25" stroke-linecap="round" stroke-linejoin="round"/>
<path d="M0.295166 38.6608H1.49766" stroke="black" stroke-width="0.25" stroke-linecap="round" stroke-linejoin="round"/>
<path d="M3.5018 38.26H5.10513" stroke="black" stroke-width="0.25" stroke-linecap="round" stroke-linejoin="round"/>
<path d="M6.70844 38.26H7.10927" stroke="black" stroke-width="0.25" stroke-linecap="round" stroke-linejoin="round"/>
<path d="M11.5182 38.26H11.9191" stroke="black" stroke-width="0.25" stroke-linecap="round" stroke-linejoin="round"/>
<path d="M0.295166 39.8633C2.43294 39.5961 7.10932 39.0616 8.71265 39.0616C10.7168 39.0616 13.9235 40.2641 17.1301 39.4625" stroke="black" stroke-width="0.25" stroke-linecap="round" stroke-linejoin="round"/>
<path d="M0.295166 37.0574C0.562388 37.0574 1.177 37.1375 1.49766 37.4582" stroke="black" stroke-width="0.25" stroke-linecap="round" stroke-linejoin="round"/>
<path d="M0.295166 36.2557C0.829609 36.2557 2.21916 36.3359 3.50183 36.6566C5.10516 37.0574 5.50599 37.4582 7.51015 37.4582C9.51431 37.4582 10.7168 36.6566 11.9193 36.6566C13.1218 36.6566 15.0198 36.5092 15.5268 36.2557C16.3285 35.8549 17.1301 35.0532 17.531 35.0532" stroke="black" stroke-width="0.25" stroke-linecap="round" stroke-linejoin="round"/>
<path d="M33.3292 39.8724C32.6612 39.8724 31.0846 39.4716 30.1226 39.4716C28.9201 39.4716 26.5151 40.2733 24.5109 39.8724M34.1309 38.6699C30.9242 38.6699 31.3251 36.6658 28.1184 36.6658M28.1184 37.4674C28.1184 37.601 27.5572 37.8683 25.3126 37.8683C22.5067 37.8683 20.5026 36.6658 18.4984 37.0666C16.8951 37.3873 16.7615 37.7347 16.8951 37.8683" stroke="black" stroke-width="0.25" stroke-linecap="round" stroke-linejoin="round"/>
<path d="M48.5609 39.8723H47.3584" stroke="black" stroke-width="0.25" stroke-linecap="round" stroke-linejoin="round"/>
<path d="M46.9574 36.2648C46.5566 36.3984 45.5946 36.6656 44.9533 36.6656C44.3119 36.6656 43.3499 36.6656 42.9491 36.6656" stroke="black" stroke-width="0.25" stroke-linecap="round" stroke-linejoin="round"/>
<path d="M40.9449 36.6658H40.1432" stroke="black" stroke-width="0.25" stroke-linecap="round" stroke-linejoin="round"/>
<path d="M45.3542 39.4716H43.7509" stroke="black" stroke-width="0.25" stroke-linecap="round" stroke-linejoin="round"/>
<path d="M38.54 36.6658H38.1391" stroke="black" stroke-width="0.25" stroke-linecap="round" stroke-linejoin="round"/>
<path d="M42.1476 39.4716H41.7468" stroke="black" stroke-width="0.25" stroke-linecap="round" stroke-linejoin="round"/>
<path d="M37.3375 39.4716H36.9367" stroke="black" stroke-width="0.25" stroke-linecap="round" stroke-linejoin="round"/>
<path d="M48.5609 38.2689C48.2937 38.2689 47.6791 38.3491 47.3584 38.6698" stroke="black" stroke-width="0.25" stroke-linecap="round" stroke-linejoin="round"/>
<path d="M48.5609 37.4673C48.0264 37.4673 46.6369 37.5474 45.3542 37.8681C43.7509 38.2689 43.3501 38.6698 41.3459 38.6698C39.3417 38.6698 38.1392 37.8681 36.9367 37.8681C35.7342 37.8681 33.8363 37.7208 33.3292 37.4673C32.5276 37.0664 31.7259 36.2648 31.3251 36.2648" stroke="black" stroke-width="0.25" stroke-linecap="round" stroke-linejoin="round"/>
</g>
<path d="M10 45.2266H18V48.2266C18 49.3311 17.1046 50.2266 16 50.2266H12C10.8954 50.2266 10 49.3311 10 48.2266V45.2266Z" fill="#98634E"/>
<path d="M46 45.2266H54V48.2266C54 49.3311 53.1046 50.2266 52 50.2266H48C46.8954 50.2266 46 49.3311 46 48.2266V45.2266Z" fill="#98634E"/>
<mask id="mask1_808_22896" style="mask-type:alpha" maskUnits="userSpaceOnUse" x="0" y="36" width="64" height="10">
<rect x="0.5" y="36.2266" width="63" height="9" fill="#D9D9D9"/>
</mask>
<g mask="url(#mask1_808_22896)">
<path d="M0.5 36.2266H63.5V43.2266C63.5 44.3311 62.6046 45.2266 61.5 45.2266H2.5C1.39543 45.2266 0.5 44.3311 0.5 43.2266V36.2266Z" fill="#98634E"/>
<rect x="2.5" y="38.2266" width="28.46" height="1" rx="0.5" fill="#80503E"/>
<rect x="10.5" y="41.2266" width="8.46" height="1" rx="0.5" fill="#80503E"/>
<rect x="51.5" y="41.2266" width="8.46" height="1" rx="0.5" fill="#80503E"/>
<rect x="20.5" y="41.2266" width="3" height="1" rx="0.5" fill="#80503E"/>
<rect x="58.5" y="43.2266" width="3" height="1" rx="0.5" fill="#80503E"/>
</g>
<path d="M0.5 36.2266H63.5C63.5 35.122 62.6046 34.2266 61.5 34.2266H2.5C1.39543 34.2266 0.5 35.122 0.5 36.2266Z" fill="#5E3F33"/>
<mask id="mask2_808_22896" style="mask-type:alpha" maskUnits="userSpaceOnUse" x="5" y="27" width="25" height="9">
<path d="M15.4493 35.4951C8.65587 35.4951 5.48559 35.0637 5.03269 32.4758C4.73076 30.7504 6.39138 27.2998 15.4493 27.2998C26.7717 27.2998 28.0005 33.3859 29.8121 35.5425C26.6418 32.9545 22.2428 35.4951 15.4493 35.4951Z" fill="#FF9C98"/>
</mask>
<g mask="url(#mask2_808_22896)">
<path d="M15.4493 35.4951C8.65587 35.4951 5.48559 35.0637 5.03269 32.4758C4.73076 30.7504 6.39138 27.2998 15.4493 27.2998C26.7717 27.2998 28.0005 33.3859 29.8121 35.5425C26.6418 32.9545 22.2428 35.4951 15.4493 35.4951Z" fill="#FF8760"/>
<path d="M11.6571 27.1321C14.7892 25.8434 17.7756 24.1041 19.338 26.3864C20.9004 28.6686 12.4847 33.3147 15.2664 38.5166C17.4918 42.6781 22.6773 40.9555 24.9919 39.5741" stroke="white" stroke-opacity="0.3" stroke-width="0.2"/>
<path d="M15.5133 25.3331C18.3741 23.5201 19.3523 24.2505 21.2872 26.2268C23.2222 28.203 15.7411 34.2399 19.3839 38.8797C22.2981 42.5916 27.1057 39.9947 29.1453 38.2323" stroke="white" stroke-opacity="0.3" stroke-width="0.2"/>
<path d="M17.4137 25.6527C19.9161 23.3705 21.0063 23.92 23.2551 25.5302C25.5038 27.1404 19.1847 34.3847 23.5778 38.3215C27.0923 41.4709 31.3759 38.0786 33.0785 35.9888" stroke="white" stroke-opacity="0.3" stroke-width="0.2"/>
<path d="M18.3431 26.5504C19.9141 23.5499 21.1264 23.6934 23.7903 24.4374C26.4541 25.1814 22.9938 34.1501 28.4684 36.3469C32.8481 38.1043 35.7132 33.4516 36.5983 30.9055" stroke="white" stroke-opacity="0.3" stroke-width="0.2"/>
<path d="M26.0987 38.682C29.2972 39.7958 30.0834 38.8618 31.5174 36.4968C32.9515 34.1318 24.2921 29.9573 26.7825 24.6098C28.7748 20.3318 34.0475 21.7655 36.4348 23.0172" stroke="white" stroke-opacity="0.3" stroke-width="0.2"/>
<path d="M29.2709 37.6604C32.6142 38.2019 33.2263 37.1456 34.2278 34.5675C35.2294 31.9894 25.9767 29.382 27.5007 23.6833C28.7198 19.1243 34.1614 19.6207 36.7298 20.4388" stroke="white" stroke-opacity="0.3" stroke-width="0.2"/>
<path d="M32.5241 36.3472C35.9106 36.2999 36.3299 35.1533 36.8686 32.4405C37.4072 29.7277 27.8424 28.7666 28.3536 22.8898C28.7626 18.1884 34.2077 17.7323 36.8791 18.0919" stroke="white" stroke-opacity="0.3" stroke-width="0.2"/>
<path d="M7.72418 24.8599C11.081 25.3099 14.5369 25.2968 14.7489 28.0545C14.9608 30.8122 5.34955 30.628 5.15764 36.5238C5.00411 41.2405 10.3562 42.3414 13.0515 42.3023" stroke="white" stroke-opacity="0.3" stroke-width="0.2"/>
<path d="M6.46718 23.4185C9.69489 24.4446 13.1005 25.0319 12.8304 27.7845C12.5603 30.537 3.127 28.6866 1.91421 34.4596C0.943971 39.0779 6.0236 41.0916 8.68469 41.5211" stroke="white" stroke-opacity="0.3" stroke-width="0.2"/>
<path d="M9.62342 26.1205C12.9318 25.3953 16.1748 24.201 17.3171 26.7199C18.4594 29.2388 9.3648 32.3529 11.201 37.9588C12.6699 42.4435 18.0758 41.6476 20.5951 40.689" stroke="white" stroke-opacity="0.3" stroke-width="0.2"/>
</g>
<mask id="mask3_808_22896" style="mask-type:alpha" maskUnits="userSpaceOnUse" x="10" y="23" width="24" height="14">
<path d="M19.5341 32.3137C12.9721 30.5555 10.0215 29.3183 10.2539 26.7013C10.4088 24.9566 12.9059 22.0534 21.6552 24.3977C32.5918 27.3282 32.2035 33.5249 33.3952 36.0769C31.0027 32.7566 26.0961 34.072 19.5341 32.3137Z" fill="#FF7E85"/>
</mask>
<g mask="url(#mask3_808_22896)">
<path d="M19.5341 32.3137C12.9721 30.5555 10.0215 29.3183 10.2539 26.7013C10.4088 24.9566 12.9059 22.0534 21.6552 24.3977C32.5918 27.3282 32.2035 33.5249 33.3952 36.0769C31.0027 32.7566 26.0961 34.072 19.5341 32.3137Z" fill="#D6646A"/>
<g opacity="0.5">
<path d="M33.269 24.5868C30.0365 23.576 26.9099 22.1036 25.5524 24.5133C24.1949 26.9231 32.9835 30.818 30.6657 36.2426C28.8115 40.5822 23.4956 39.3181 21.0694 38.1436" stroke="#FCC3C3" stroke-width="0.2"/>
<path d="M29.2708 23.131C26.2629 21.5742 25.352 22.3871 23.5967 24.5245C21.8413 26.6619 29.8201 32.0237 26.5956 36.9634C24.016 40.9151 19.0003 38.7471 16.8149 37.1692" stroke="#FCC3C3" stroke-width="0.2"/>
<path d="M27.4057 23.6148C24.7138 21.5594 23.6757 22.2018 21.5758 24.0019C19.476 25.802 26.4024 32.4679 22.3692 36.7726C19.1425 40.2163 14.5795 37.2103 12.7013 35.2768" stroke="#FCC3C3" stroke-width="0.2"/>
<path d="M26.558 24.5903C24.7315 21.7381 23.5362 21.9867 20.9474 22.96C18.3585 23.9334 22.5873 32.5663 17.325 35.2319C13.1151 37.3644 9.85543 32.979 8.75181 30.5198" stroke="#FCC3C3" stroke-width="0.2"/>
<path d="M19.8892 37.3515C16.7999 38.7399 15.9353 37.878 14.3007 35.647C12.666 33.4159 20.9285 28.5026 17.9816 23.3925C15.624 19.3044 10.4963 21.1923 8.22716 22.6472" stroke="#FCC3C3" stroke-width="0.2"/>
<path d="M16.6402 36.6102C13.3568 37.4411 12.655 36.4421 11.4326 33.9611C10.2102 31.4801 19.2004 28.0763 17.1855 22.532C15.5737 18.0967 10.1961 19.0654 7.70876 20.1042" stroke="#FCC3C3" stroke-width="0.2"/>
<path d="M13.2848 35.5856C9.90697 35.8337 9.38934 34.728 8.61628 32.0725C7.84323 29.4169 17.2879 27.6258 16.2665 21.816C15.4493 17.1681 9.98517 17.1883 7.35525 17.7794" stroke="#FCC3C3" stroke-width="0.2"/>
<path d="M36.9891 21.9806C33.6842 22.7214 30.2404 23.0096 30.2696 25.7753C30.2988 28.5409 39.8574 27.5197 40.5624 33.3764C41.1265 38.0617 35.8907 39.625 33.2023 39.8209" stroke="#FCC3C3" stroke-width="0.2"/>
<path d="M38.1156 20.4352C34.9895 21.7387 31.648 22.6205 32.1571 25.3391C32.6661 28.0577 41.9022 25.3921 43.6135 31.0374C44.9825 35.5536 40.0977 38.0023 37.4842 38.6621" stroke="#FCC3C3" stroke-width="0.2"/>
<path d="M35.207 23.4017C31.848 22.9676 28.5133 22.0605 27.5948 24.6694C26.6764 27.2782 36.0078 29.5879 34.6672 35.3325C33.5947 39.9282 28.1401 39.6064 25.5468 38.871" stroke="#FCC3C3" stroke-width="0.2"/>
</g>
</g>
<path d="M32.3942 16.5713H48.1656V27.619C48.1656 28.0779 47.8533 28.476 47.4034 28.5665C46.1405 28.8207 43.4379 29.276 40.2799 29.276C37.122 29.276 34.4193 28.8207 33.1564 28.5665C32.7066 28.476 32.3942 28.0779 32.3942 27.619V16.5713Z" fill="#1E3255"/>
<path d="M47.6656 16.5713C47.6656 16.8075 47.5445 17.0871 47.2075 17.3969C46.8701 17.7071 46.3543 18.0095 45.6747 18.2737C44.3188 18.801 42.4116 19.1379 40.2799 19.1379C38.1482 19.1379 36.2411 18.801 34.8851 18.2737C34.2056 18.0095 33.6898 17.7071 33.3524 17.3969C33.0154 17.0871 32.8942 16.8075 32.8942 16.5713C32.8942 16.3351 33.0154 16.0555 33.3524 15.7457C33.6898 15.4355 34.2056 15.1331 34.8851 14.8688C36.2411 14.3415 38.1482 14.0046 40.2799 14.0046C42.4116 14.0046 44.3188 14.3415 45.6747 14.8688C46.3543 15.1331 46.8701 15.4355 47.2075 15.7457C47.5445 16.0555 47.6656 16.3351 47.6656 16.5713Z" fill="white" stroke="#1E3255"/>
<path d="M39.3607 14.0729C39.2137 13.9988 39.0394 13.9488 38.8586 13.9289C38.6777 13.909 38.4977 13.92 38.3399 13.9606C38.0194 14.0415 37.7865 14.2484 37.4143 14.2168C37.2131 14.1999 36.9368 14.1329 36.8653 14.2308C36.8501 14.2542 36.8411 14.2793 36.8387 14.3053C36.8075 14.3484 36.7563 14.3842 36.6905 14.409C36.6247 14.4338 36.5467 14.4467 36.4644 14.4464C36.3115 14.4651 36.1344 14.4393 35.9664 14.4481C35.8173 14.4573 35.6803 14.4908 35.5697 14.5451C35.4592 14.5995 35.3792 14.6726 35.338 14.757C34.9838 14.7232 34.5367 14.7128 34.3936 14.8729C34.3519 14.9196 34.3552 14.9787 34.3045 15.0265C34.1936 15.0914 34.0521 15.1354 33.8941 15.1541C33.7322 15.174 33.5917 15.2685 33.6582 15.3554C33.6804 15.3862 33.6977 15.4179 33.7097 15.4501C33.7431 15.5113 33.6353 15.5602 33.5214 15.5801C33.4077 15.5882 33.2964 15.6018 33.1886 15.621C33.1472 15.6328 33.1121 15.6505 33.0858 15.6728C33.0596 15.695 33.0429 15.7211 33.037 15.7492C33.0311 15.7774 33.0361 15.8068 33.0518 15.8353C33.0674 15.8637 33.0932 15.8906 33.1273 15.9137C33.0434 15.9091 32.9629 15.9208 32.8976 15.9471C32.8323 15.9733 32.7858 16.0126 32.765 16.0592C32.7536 16.1053 32.7719 16.1545 32.8165 16.1973C32.8611 16.2402 32.9287 16.2735 33.0063 16.291C32.9459 16.3084 32.8978 16.3368 32.868 16.3728C32.8382 16.4087 32.8281 16.4505 32.8389 16.4929C32.8497 16.5353 32.881 16.5765 32.9287 16.6113C32.9765 16.6461 33.0387 16.673 33.1075 16.6886C33.0389 16.6977 32.9788 16.719 32.9343 16.7497C32.8898 16.7805 32.8628 16.8194 32.8565 16.862C33.0004 16.8443 33.2288 16.9113 33.2083 16.997C33.1877 17.0827 33.1096 17.0626 33.0738 17.1027C33.038 17.1427 33.1678 17.2753 33.324 17.3156C33.4803 17.3558 33.6515 17.3882 33.736 17.4729C33.8204 17.5576 33.764 17.6656 33.8814 17.7403C33.9989 17.815 34.2989 17.8197 34.4195 17.9178C34.54 18.0159 34.4983 18.0626 34.5347 18.1295C34.6377 18.3188 35.1686 18.2893 35.4693 18.4009C35.7699 18.5125 35.7282 18.5593 35.9023 18.5795C36.0764 18.5997 36.1272 18.5519 36.2623 18.5709C36.3974 18.59 36.6231 18.7049 36.8155 18.7763C37.0079 18.8477 37.6199 18.8439 38.0075 18.9389C38.1329 18.9878 38.2747 19.0158 38.416 19.0195C38.5149 19.0073 38.6138 18.9952 38.7128 18.983C38.8117 18.9709 39.1457 19.1438 39.3948 19.1429C39.6438 19.142 39.6882 19.0474 39.8713 19.0487C40.0543 19.05 40.1297 19.118 40.2739 19.1538C40.7396 19.2689 41.2031 18.9922 41.6806 19.0761C41.8253 19.1153 41.976 19.1428 42.1281 19.1579C42.335 19.1325 42.4694 19.0268 42.6702 18.9903C42.8396 18.9775 43.0157 18.9841 43.1894 19.0097C43.2745 19.0228 43.3611 19.0218 43.4393 19.0069C43.5176 18.9921 43.5846 18.9639 43.6329 18.9255C43.6779 18.92 43.6565 18.8454 43.7104 18.821C43.7621 18.8058 43.8206 18.7986 43.8813 18.8L44.3493 18.796C44.4058 18.7946 44.4604 18.7879 44.5112 18.7761C44.5618 18.764 44.6165 18.7573 44.6731 18.7562C44.9067 18.7531 45.1262 18.7118 45.3085 18.6366C45.4254 18.5668 45.5736 18.518 45.7398 18.4945C45.7814 18.4909 45.8187 18.4798 45.8469 18.4626C45.8751 18.4454 45.8929 18.4229 45.8982 18.3979C45.8831 18.37 45.8679 18.3422 45.8558 18.3199C45.8629 18.2993 45.8775 18.2804 45.8986 18.2645C45.9197 18.2486 45.9469 18.236 45.9783 18.2276C46.0481 18.2101 46.1243 18.2008 46.2032 18.2C46.3972 18.194 46.585 18.1709 46.7609 18.1315C46.8868 18.116 47.0664 18.0405 47.0899 17.9604C47.077 17.9117 47.0697 17.8629 47.0681 17.8145C47.0974 17.6743 47.5384 17.6736 47.5676 17.5334C47.5676 17.5334 47.5313 17.4665 47.5161 17.4387C47.5009 17.4108 47.6653 17.2896 47.7519 17.2196C47.8385 17.1495 47.7687 17.0036 47.6367 17.0079C47.7951 16.8934 47.7048 16.8332 47.803 16.6964C47.9013 16.5596 47.9834 16.2167 47.7194 16.2254C47.4554 16.234 47.6406 16.0806 47.5921 15.9915C47.5436 15.9024 47.5549 15.7821 47.3926 15.7307C47.2303 15.6794 47.1075 15.7182 47.0112 15.6647C46.9149 15.6112 47.0759 15.431 46.9433 15.3284C46.8108 15.2259 46.586 15.2713 46.4506 15.1988C46.3152 15.1263 46.3324 14.9816 46.1821 14.9347C46.0318 14.8878 45.9662 14.9612 45.846 14.9343C45.5759 14.914 45.4847 14.6935 45.2323 14.6354C44.98 14.5772 44.7466 14.695 44.542 14.5835C44.3373 14.4719 44.4242 14.4553 44.322 14.4085C44.2197 14.3616 43.866 14.4169 43.6527 14.3599C43.4393 14.3029 43.457 14.2473 43.3337 14.1971C42.9969 14.0542 42.545 14.2642 42.1426 14.1948C41.9083 14.1523 41.7246 14.0263 41.4845 14.0082C41.2444 13.9902 41.002 14.109 40.7559 14.0977C40.6269 14.0714 40.5004 14.0393 40.3774 14.0016C39.8877 13.8953 39.7281 14.3249 39.325 14.1308" fill="white"/>
<ellipse cx="40.2798" cy="16.5712" rx="4.38093" ry="1.31428" fill="#FFE088"/>
<path d="M40.1381 23.4723H55.9094V34.52C55.9094 34.9789 55.5971 35.377 55.1472 35.4675C53.8844 35.7217 51.1817 36.177 48.0237 36.177C44.8658 36.177 42.1631 35.7217 40.9003 35.4675C40.4504 35.377 40.1381 34.9789 40.1381 34.52V23.4723Z" fill="#1E3255"/>
<path d="M55.4094 23.4722C55.4094 23.7084 55.2883 23.988 54.9513 24.2978C54.6139 24.608 54.0981 24.9103 53.4185 25.1746C52.0626 25.7019 50.1554 26.0388 48.0237 26.0388C45.892 26.0388 43.9849 25.7019 42.6289 25.1746C41.9494 24.9103 41.4336 24.608 41.0962 24.2978C40.7592 23.988 40.6381 23.7084 40.6381 23.4722C40.6381 23.2359 40.7592 22.9564 41.0962 22.6466C41.4336 22.3363 41.9494 22.034 42.6289 21.7697C43.9849 21.2424 45.892 20.9055 48.0237 20.9055C50.1554 20.9055 52.0626 21.2424 53.4185 21.7697C54.0981 22.034 54.6139 22.3363 54.9513 22.6466C55.2883 22.9564 55.4094 23.2359 55.4094 23.4722Z" fill="white" stroke="#1E3255"/>
<path d="M49.0687 20.8836C49.2167 20.8075 49.3916 20.7561 49.5729 20.7353C49.7542 20.7145 49.9342 20.7252 50.0918 20.7663C50.4117 20.8481 50.6425 21.0586 51.0155 21.0254C51.217 21.0077 51.4945 20.9385 51.5649 21.0382C51.5798 21.0621 51.5885 21.0877 51.5906 21.1143C51.6214 21.1582 51.6722 21.1946 51.7378 21.2197C51.8034 21.2449 51.8814 21.2578 51.9637 21.2572C52.1165 21.276 52.2942 21.2492 52.4622 21.2577C52.6114 21.2667 52.7482 21.3006 52.8582 21.3557C52.9682 21.4109 53.0475 21.4854 53.0877 21.5714C53.4427 21.536 53.8904 21.5242 54.0318 21.6873C54.0731 21.7349 54.0691 21.7951 54.1193 21.8438C54.2296 21.9098 54.3707 21.9543 54.5286 21.973C54.6905 21.9929 54.83 22.0889 54.7625 22.1778C54.7399 22.2093 54.7222 22.2418 54.7098 22.2746C54.6757 22.3372 54.783 22.3868 54.8968 22.4068C55.0106 22.4148 55.1219 22.4284 55.2295 22.4477C55.2708 22.4597 55.3058 22.4777 55.3318 22.5003C55.3579 22.5229 55.3743 22.5495 55.3799 22.5782C55.3855 22.6069 55.3801 22.637 55.3641 22.6661C55.3481 22.6952 55.322 22.7226 55.2876 22.7463C55.3716 22.7414 55.4521 22.7532 55.5171 22.7798C55.5822 22.8063 55.6283 22.8464 55.6486 22.8939C55.6595 22.9409 55.6406 22.9912 55.5955 23.035C55.5503 23.0788 55.4822 23.1131 55.4043 23.1311C55.4646 23.1487 55.5125 23.1776 55.5419 23.2142C55.5713 23.2508 55.581 23.2934 55.5697 23.3367C55.5584 23.3801 55.5266 23.4222 55.4784 23.4579C55.4301 23.4935 55.3676 23.5211 55.2985 23.5371C55.367 23.5463 55.427 23.5678 55.4712 23.5991C55.5154 23.6304 55.542 23.6701 55.5478 23.7135C55.404 23.6958 55.1746 23.7648 55.1941 23.8523C55.2137 23.9397 55.2921 23.9189 55.3275 23.9597C55.3629 24.0005 55.2314 24.1362 55.0746 24.1777C54.9177 24.2191 54.746 24.2527 54.6604 24.3394C54.5749 24.426 54.6301 24.536 54.5117 24.6126C54.3933 24.6891 54.0929 24.6948 53.9711 24.7952C53.8493 24.8956 53.8905 24.9432 53.8534 25.0115C53.748 25.2051 53.2169 25.1763 52.9147 25.291C52.6124 25.4057 52.6537 25.4533 52.4791 25.4744C52.3046 25.4954 52.2543 25.4468 52.1189 25.4666C51.9834 25.4864 51.7562 25.6042 51.5627 25.6776C51.3693 25.751 50.7567 25.7487 50.3676 25.8467C50.2415 25.8969 50.0992 25.9258 49.9577 25.93C49.8588 25.9178 49.7599 25.9057 49.661 25.8935C49.5621 25.8814 49.2258 26.0587 48.9765 26.0585C48.7272 26.0582 48.6838 25.9618 48.5006 25.9636C48.3173 25.9654 48.2411 26.035 48.0963 26.0718C47.6288 26.1906 47.168 25.9093 46.689 25.9962C46.5437 26.0366 46.3926 26.0651 46.2401 26.0808C46.0333 26.0554 45.8999 25.9479 45.6993 25.9111C45.5299 25.8985 45.3536 25.9057 45.1794 25.9323C45.094 25.9459 45.0074 25.9451 44.9292 25.9301C44.851 25.9152 44.7843 25.8866 44.7363 25.8476C44.6914 25.842 44.7136 25.7658 44.66 25.741C44.6084 25.7256 44.5499 25.7185 44.4892 25.72L44.0207 25.7172C43.9642 25.7159 43.9096 25.7092 43.8589 25.6973C43.8083 25.6851 43.7536 25.6784 43.697 25.6774C43.4632 25.6748 43.2439 25.6332 43.0623 25.557C42.9461 25.486 42.7982 25.4366 42.6322 25.4131C42.5906 25.4095 42.5534 25.3983 42.5254 25.3808C42.4973 25.3633 42.4797 25.3403 42.4747 25.3148C42.4902 25.2863 42.5056 25.2579 42.518 25.2351C42.5112 25.2141 42.4968 25.1949 42.4758 25.1787C42.4549 25.1625 42.4278 25.1497 42.3965 25.1412C42.3268 25.1236 42.2507 25.1142 42.1717 25.1136C41.9775 25.108 41.7897 25.0849 41.6142 25.0452C41.4883 25.0297 41.3094 24.9531 41.2867 24.8714C41.3002 24.8216 41.3081 24.7719 41.3102 24.7224C41.2826 24.5794 40.8411 24.5798 40.8134 24.4367C40.8134 24.4367 40.8506 24.3684 40.8661 24.34C40.8816 24.3115 40.7184 24.1882 40.6325 24.117C40.5466 24.0457 40.6182 23.8966 40.7503 23.9006C40.593 23.7842 40.6841 23.7225 40.5873 23.5831C40.4906 23.4437 40.4123 23.094 40.6764 23.1021C40.9406 23.1103 40.757 22.9541 40.8066 22.863C40.8561 22.7719 40.8462 22.6492 41.0092 22.5964C41.1723 22.5435 41.2948 22.5829 41.3918 22.528C41.4888 22.4731 41.3297 22.2896 41.4636 22.1846C41.5975 22.0796 41.822 22.1253 41.9583 22.051C42.0947 21.9766 42.0792 21.829 42.2302 21.7807C42.3811 21.7325 42.446 21.8072 42.5666 21.7795C42.8372 21.7581 42.9311 21.5328 43.1843 21.4728C43.4376 21.4128 43.6699 21.5324 43.876 21.418C44.0821 21.3037 43.9953 21.2869 44.0982 21.2388C44.2012 21.1908 44.5546 21.2463 44.7688 21.1876C44.983 21.1289 44.966 21.0721 45.09 21.0205C45.4288 20.8739 45.8787 21.087 46.2824 21.0151C46.5174 20.9711 46.7027 20.842 46.9433 20.823C47.1839 20.8039 47.4252 20.9247 47.6716 20.9124C47.8011 20.8853 47.9281 20.8521 48.0517 20.8133C48.5431 20.7036 48.698 21.1417 49.1037 20.9425" fill="white"/>
<mask id="mask4_808_22896" style="mask-type:alpha" maskUnits="userSpaceOnUse" x="43" y="22" width="10" height="3">
<ellipse cx="48.0236" cy="23.4721" rx="4.38093" ry="1.31428" fill="#FF9C98"/>
</mask>
<g mask="url(#mask4_808_22896)">
<ellipse cx="48.0236" cy="23.4721" rx="4.38093" ry="1.31428" fill="#FF8760"/>
<path opacity="0.6" d="M46.9315 21.5936C45.917 22.6081 47.3542 23.2844 48.1996 23.4958" stroke="#FFE4DC" stroke-width="0.15"/>
<path opacity="0.6" d="M46.0122 20.9596C44.9977 21.9741 45.1668 23.9185 48.5484 24.1299" stroke="#FFE4DC" stroke-width="0.15"/>
<path opacity="0.6" d="M44.4845 25.3979C45.499 24.3835 45.3299 22.439 41.9483 22.2277" stroke="#FFE4DC" stroke-width="0.15"/>
<rect x="48.0234" y="21.532" width="4.5061" height="3.37958" fill="#0ACB81"/>
</g>
<path d="M24.4071 23.4723H40.1785V34.52C40.1785 34.9789 39.8661 35.377 39.4163 35.4675C38.1534 35.7217 35.4507 36.177 32.2928 36.177C29.1348 36.177 26.4322 35.7217 25.1693 35.4675C24.7195 35.377 24.4071 34.9789 24.4071 34.52V23.4723Z" fill="#1E3255"/>
<path d="M39.6785 23.4722C39.6785 23.7084 39.5573 23.988 39.2204 24.2978C38.883 24.608 38.3671 24.9103 37.6876 25.1746C36.3317 25.7019 34.4245 26.0388 32.2928 26.0388C30.1611 26.0388 28.2539 25.7019 26.898 25.1746C26.2185 24.9103 25.7026 24.608 25.3652 24.2978C25.0283 23.988 24.9071 23.7084 24.9071 23.4722C24.9071 23.2359 25.0283 22.9564 25.3652 22.6466C25.7026 22.3363 26.2185 22.034 26.898 21.7697C28.2539 21.2424 30.1611 20.9055 32.2928 20.9055C34.4245 20.9055 36.3317 21.2424 37.6876 21.7697C38.3671 22.034 38.883 22.3363 39.2204 22.6466C39.5573 22.9564 39.6785 23.2359 39.6785 23.4722Z" fill="white" stroke="#1E3255"/>
<path d="M33.3377 20.8836C33.4857 20.8075 33.6607 20.7561 33.842 20.7353C34.0233 20.7145 34.2033 20.7252 34.3608 20.7663C34.6808 20.8481 34.9116 21.0586 35.2845 21.0254C35.486 21.0077 35.7635 20.9385 35.8339 21.0382C35.8489 21.0621 35.8576 21.0877 35.8597 21.1143C35.8904 21.1582 35.9412 21.1946 36.0068 21.2197C36.0724 21.2449 36.1504 21.2578 36.2327 21.2572C36.3856 21.276 36.5632 21.2492 36.7313 21.2577C36.8804 21.2667 37.0172 21.3006 37.1272 21.3557C37.2373 21.4109 37.3165 21.4854 37.3568 21.5714C37.7117 21.536 38.1594 21.5242 38.3009 21.6873C38.3421 21.7349 38.3381 21.7951 38.3884 21.8438C38.4986 21.9098 38.6398 21.9543 38.7977 21.973C38.9595 21.9929 39.0991 22.0889 39.0315 22.1778C39.0089 22.2093 38.9913 22.2418 38.9789 22.2746C38.9448 22.3372 39.0521 22.3868 39.1659 22.4068C39.2797 22.4148 39.3909 22.4284 39.4986 22.4477C39.5399 22.4597 39.5748 22.4777 39.6009 22.5003C39.6269 22.5229 39.6433 22.5495 39.6489 22.5782C39.6545 22.6069 39.6491 22.637 39.6331 22.6661C39.6172 22.6952 39.591 22.7226 39.5567 22.7463C39.6406 22.7414 39.7211 22.7532 39.7862 22.7798C39.8512 22.8063 39.8973 22.8464 39.9176 22.8939C39.9286 22.9409 39.9096 22.9912 39.8645 23.035C39.8194 23.0788 39.7513 23.1131 39.6734 23.1311C39.7337 23.1487 39.7815 23.1776 39.8109 23.2142C39.8403 23.2508 39.85 23.2934 39.8387 23.3367C39.8274 23.3801 39.7956 23.4222 39.7474 23.4579C39.6992 23.4935 39.6366 23.5211 39.5675 23.5371C39.6361 23.5463 39.6961 23.5678 39.7403 23.5991C39.7845 23.6304 39.8111 23.6701 39.8169 23.7135C39.673 23.6958 39.4436 23.7648 39.4632 23.8523C39.4827 23.9397 39.5612 23.9189 39.5965 23.9597C39.6319 24.0005 39.5005 24.1362 39.3436 24.1777C39.1868 24.2191 39.015 24.2527 38.9295 24.3394C38.8439 24.426 38.8992 24.536 38.7808 24.6126C38.6624 24.6891 38.3619 24.6948 38.2401 24.7952C38.1183 24.8956 38.1596 24.9432 38.1224 25.0115C38.0171 25.2051 37.486 25.1763 37.1837 25.291C36.8815 25.4057 36.9227 25.4533 36.7482 25.4744C36.5736 25.4954 36.5234 25.4468 36.3879 25.4666C36.2524 25.4864 36.0252 25.6042 35.8318 25.6776C35.6383 25.751 35.0257 25.7487 34.6366 25.8467C34.5105 25.8969 34.3683 25.9258 34.2268 25.93C34.1279 25.9178 34.029 25.9057 33.9301 25.8935C33.8312 25.8814 33.4948 26.0587 33.2456 26.0585C32.9963 26.0582 32.9529 25.9618 32.7696 25.9636C32.5864 25.9654 32.5101 26.035 32.3654 26.0718C31.8979 26.1906 31.437 25.9093 30.9581 25.9962C30.8127 26.0366 30.6616 26.0651 30.5091 26.0808C30.3023 26.0554 30.169 25.9479 29.9684 25.9111C29.7989 25.8985 29.6226 25.9057 29.4484 25.9323C29.363 25.9459 29.2765 25.9451 29.1982 25.9301C29.12 25.9152 29.0533 25.8866 29.0054 25.8476C28.9604 25.842 28.9827 25.7658 28.929 25.741C28.8775 25.7256 28.819 25.7185 28.7582 25.72L28.2897 25.7172C28.2332 25.7159 28.1786 25.7092 28.1279 25.6973C28.0774 25.6851 28.0227 25.6784 27.966 25.6774C27.7323 25.6748 27.513 25.6332 27.3313 25.557C27.2151 25.486 27.0673 25.4366 26.9013 25.4131C26.8596 25.4095 26.8224 25.3983 26.7944 25.3808C26.7664 25.3633 26.7487 25.3403 26.7437 25.3148C26.7592 25.2863 26.7747 25.2579 26.7871 25.2351C26.7802 25.2141 26.7658 25.1949 26.7449 25.1787C26.7239 25.1625 26.6969 25.1497 26.6655 25.1412C26.5958 25.1236 26.5197 25.1142 26.4407 25.1136C26.2466 25.108 26.0588 25.0849 25.8832 25.0452C25.7573 25.0297 25.5784 24.9531 25.5557 24.8714C25.5693 24.8216 25.5771 24.7719 25.5792 24.7224C25.5516 24.5794 25.1101 24.5798 25.0825 24.4367C25.0825 24.4367 25.1196 24.3684 25.1351 24.34C25.1506 24.3115 24.9875 24.1882 24.9016 24.117C24.8157 24.0457 24.8872 23.8966 25.0193 23.9006C24.8621 23.7842 24.9532 23.7225 24.8564 23.5831C24.7596 23.4437 24.6813 23.094 24.9455 23.1021C25.2096 23.1103 25.026 22.9541 25.0756 22.863C25.1252 22.7719 25.1152 22.6492 25.2783 22.5964C25.4413 22.5435 25.5638 22.5829 25.6608 22.528C25.7578 22.4731 25.5987 22.2896 25.7326 22.1846C25.8665 22.0796 26.091 22.1253 26.2274 22.051C26.3638 21.9766 26.3482 21.829 26.4992 21.7807C26.6502 21.7325 26.715 21.8072 26.8356 21.7795C27.1063 21.7581 27.2001 21.5328 27.4534 21.4728C27.7067 21.4128 27.9389 21.5324 28.1451 21.418C28.3512 21.3037 28.2644 21.2869 28.3673 21.2388C28.4702 21.1908 28.8237 21.2463 29.0379 21.1876C29.2521 21.1289 29.235 21.0721 29.359 21.0205C29.6978 20.8739 30.1478 21.087 30.5514 21.0151C30.7864 20.9711 30.9718 20.842 31.2124 20.823C31.4529 20.8039 31.6942 20.9247 31.9407 20.9124C32.0701 20.8853 32.1972 20.8521 32.3207 20.8133C32.8121 20.7036 32.967 21.1417 33.3728 20.9425" fill="white"/>
<mask id="mask5_808_22896" style="mask-type:alpha" maskUnits="userSpaceOnUse" x="27" y="22" width="10" height="3">
<ellipse cx="32.2927" cy="23.4721" rx="4.38093" ry="1.31428" fill="#FF9C98"/>
</mask>
<g mask="url(#mask5_808_22896)">
<ellipse cx="32.2927" cy="23.4721" rx="4.38093" ry="1.31428" fill="#FF8760"/>
<path opacity="0.6" d="M31.2005 21.5936C30.186 22.6081 31.6232 23.2844 32.4686 23.4958" stroke="#FFE4DC" stroke-width="0.15"/>
<path opacity="0.6" d="M30.2812 20.9596C29.2667 21.9741 29.4358 23.9185 32.8175 24.1299" stroke="#FFE4DC" stroke-width="0.15"/>
<path opacity="0.6" d="M28.7535 25.3979C29.768 24.3835 29.5989 22.439 26.2173 22.2277" stroke="#FFE4DC" stroke-width="0.15"/>
<rect x="32.2924" y="21.532" width="4.5061" height="3.37958" fill="#0ACB81"/>
</g>
</svg>
