<svg width="64" height="64" viewBox="0 0 64 64" fill="none" xmlns="http://www.w3.org/2000/svg">
<path d="M32.1074 59.17C36.8887 59.17 40.7647 58.0988 40.7647 56.7775C40.7647 55.4562 36.8887 54.385 32.1074 54.385C27.3262 54.385 23.4502 55.4562 23.4502 56.7775C23.4502 58.0988 27.3262 59.17 32.1074 59.17Z" fill="#E2E6F5"/>
<path d="M35.1916 56.3073C34.9768 56.3665 34.7519 56.3799 34.5316 56.3467C34.3113 56.3134 34.1005 56.2343 33.9127 56.1143C33.725 55.9943 33.5645 55.8363 33.4417 55.6503C33.319 55.4644 33.2367 55.2548 33.2001 55.035C32.398 50.7755 33.0342 39.3109 33.0342 39.3109C33.2693 35.8812 36.7681 33.2259 36.7681 33.2259C38.8363 31.5701 40.4614 29.4271 41.4978 26.9888C43.4339 21.8166 39.8936 5.67764 39.8936 5.67764C37.34 5.23749 34.7541 5.01083 32.1629 5C29.5717 5.01185 26.986 5.23851 24.4322 5.67764C24.4322 5.67764 20.8919 21.8166 22.8418 26.9888C23.8687 29.4288 25.4899 31.573 27.5577 33.2259C27.5577 33.2259 31.0427 35.8812 31.2778 39.3109C31.2778 39.3109 31.914 50.7755 31.1119 55.035C31.0762 55.2594 30.9929 55.4736 30.8675 55.6632C30.7421 55.8527 30.5775 56.0131 30.3849 56.1337C30.1923 56.2543 29.976 56.3321 29.7507 56.3621C29.5255 56.392 29.2964 56.3733 29.0789 56.3073" fill="#F0F3FC"/>
<path d="M41.2346 26.1868C41.5903 25.0735 41.7723 23.912 41.774 22.7433H22.7446C22.7394 23.9126 22.9215 25.0751 23.284 26.1868C23.5788 26.9171 23.9447 27.6165 24.3765 28.2751C24.8274 28.993 25.3362 29.6729 25.8977 30.308C27.4376 32.1753 29.314 33.7374 31.4295 34.9132C31.6385 35.0422 31.8759 35.1182 32.121 35.1345C32.3633 35.124 32.5999 35.0577 32.8125 34.9409C34.9823 33.78 36.9224 32.2335 38.5379 30.3771C39.6788 29.1518 40.592 27.7328 41.2346 26.1868Z" fill="#7A1047"/>
<path d="M32.2598 23.7388C37.5146 23.7388 41.7745 23.293 41.7745 22.743C41.7745 22.1931 37.5146 21.7473 32.2598 21.7473C27.005 21.7473 22.7451 22.1931 22.7451 22.743C22.7451 23.293 27.005 23.7388 32.2598 23.7388Z" fill="#B72A59"/>
<path d="M25.7736 8.01501C25.4279 10.0341 25.096 12.0394 24.7917 14.0585C24.4875 16.0776 24.2801 18.1105 24.1971 20.1435C24.135 21.1567 24.135 22.1727 24.1971 23.1859C24.1999 24.1915 24.3971 25.1871 24.7779 26.1178C25.6247 27.9721 26.866 29.6192 28.4151 30.9443C26.7581 29.7141 25.4362 28.0879 24.5705 26.2146C24.1577 25.2616 23.9324 24.238 23.9067 23.1998C23.8444 22.1773 23.8444 21.1521 23.9067 20.1296C24.0311 18.0829 24.3077 15.9808 24.6258 14.0308C24.9439 12.0809 25.2896 10.0756 25.7736 8.01501Z" fill="#E2E6F5"/>
<path d="M33.1168 58.0222C32.3425 58.128 31.5604 58.165 30.7796 58.1328C29.9933 58.1091 29.213 57.9883 28.4563 57.7733C28.0597 57.6754 27.6878 57.4965 27.3637 57.2478C27.2606 57.1788 27.178 57.0833 27.1244 56.9714C27.0709 56.8595 27.0485 56.7352 27.0595 56.6116C27.0876 56.4997 27.139 56.3949 27.2106 56.3043C27.2821 56.2137 27.372 56.1394 27.4744 56.0861C28.1759 55.7212 28.9519 55.5225 29.7424 55.5052C28.9968 55.6511 28.2814 55.9223 27.6265 56.3074C27.3084 56.5286 27.2531 56.7914 27.6265 57.0127C27.9313 57.2149 28.2679 57.3645 28.6222 57.4552C30.0928 57.8211 31.6015 58.0114 33.1168 58.0222Z" fill="white"/>
<path d="M35.5787 55.7126C35.9447 55.7294 36.303 55.8236 36.6298 55.9892C36.8208 56.0631 36.9847 56.1934 37.1 56.3626C37.1709 56.4614 37.209 56.5799 37.209 56.7014C37.209 56.823 37.1709 56.9415 37.1 57.0403C36.8345 57.3204 36.4934 57.5174 36.1181 57.6073C35.7717 57.7061 35.4134 57.7573 35.0532 57.7594L36.0213 57.3584C36.3277 57.2516 36.6032 57.0712 36.8234 56.8328C37.017 56.653 36.8234 56.4041 36.5468 56.2105C36.2402 56.015 35.9161 55.8484 35.5787 55.7126Z" fill="white"/>
<path d="M22.7864 26.9889C23.9467 29.5498 25.7295 31.7796 27.9724 33.4749C29.0535 34.4019 29.9578 35.5171 30.6415 36.7663C30.9682 37.4073 31.2011 38.092 31.333 38.7993C31.4436 39.5184 31.4298 40.1822 31.4851 40.9152C31.5819 43.6811 31.6372 46.5299 31.5819 49.3373C31.5819 50.7202 31.4989 52.1032 31.3468 53.4861C31.3468 53.8319 31.2638 54.1776 31.2085 54.5372C31.177 54.8928 31.0684 55.2373 30.8904 55.5467C30.7015 55.8507 30.4171 56.0835 30.0818 56.2086C29.7465 56.3337 29.3792 56.3441 29.0373 56.2382C29.3738 56.3307 29.7316 56.309 30.0545 56.1763C30.3773 56.0437 30.647 55.8077 30.8213 55.5052C30.9733 55.1945 31.0581 54.8552 31.0702 54.5095C31.0702 54.1638 31.1532 53.818 31.1809 53.4723C31.3053 52.0894 31.333 50.7064 31.3468 49.3235C31.3468 46.5576 31.3468 43.7917 31.1394 40.9152C31.1332 40.222 31.0916 39.5296 31.0149 38.8407C30.9172 38.1704 30.7215 37.5181 30.4341 36.9046C29.7806 35.6467 28.899 34.5212 27.8341 33.5855C25.5848 31.8848 23.84 29.6046 22.7864 26.9889Z" fill="#C7CEEC"/>
<path d="M35.1912 56.3073C34.8552 56.3904 34.5039 56.3904 34.1679 56.3073C33.81 56.2158 33.4992 55.9939 33.2966 55.6849C33.0987 55.3878 32.9797 55.0451 32.9509 54.6892C32.9509 54.3435 32.8402 54.0116 32.7988 53.6658C32.6813 52.3131 32.6813 50.9527 32.7988 49.6C32.9647 50.9829 33.02 52.3659 33.1721 53.6382C33.1784 54.2919 33.305 54.9388 33.5455 55.5466C33.7126 55.8232 33.9586 56.0435 34.2519 56.1791C34.5452 56.3147 34.8723 56.3593 35.1912 56.3073Z" fill="#E2E6F5"/>
<path d="M39.8379 5.71912C38.5818 6.10325 37.2788 6.31266 35.9656 6.34144C34.6657 6.43825 33.3657 6.46591 32.0795 6.47974C30.7934 6.49357 29.4796 6.47974 28.1796 6.34144C26.8805 6.30769 25.5919 6.09835 24.3489 5.71912C24.9827 5.83511 25.6289 5.86765 26.2712 5.81592H37.8879C38.5393 5.87125 39.1952 5.83869 39.8379 5.71912Z" fill="#F0F3FC"/>
</svg>
