<svg width="64" height="64" viewBox="0 0 64 64" fill="none" xmlns="http://www.w3.org/2000/svg">
<ellipse cx="31.2208" cy="40.3332" rx="27.5167" ry="3.70417" fill="white"/>
<path fill-rule="evenodd" clip-rule="evenodd" d="M58.3917 40.8083C61.623 40.0624 63.5 39.1724 63.5 38.2166C63.5 35.5863 49.285 33.4541 31.75 33.4541C14.215 33.4541 0 35.5863 0 38.2166C0 39.0135 1.30468 39.7646 3.6111 40.4246C6.83098 38.8478 17.7353 37.6874 30.6917 37.6874C44.6782 37.6874 56.2735 39.0396 58.3917 40.8083Z" fill="#97B9D6"/>
<path d="M13.2889 32.6345C11.5208 31.6308 11.5098 30.4862 9.97386 30.0987C9.70624 30.0394 9.42929 30.0356 9.16016 30.0876C8.89103 30.1396 8.63544 30.2463 8.40919 30.4011C8.04398 30.6554 7.73847 30.9862 7.51386 31.3704C7.36511 31.5617 7.29216 31.7463 7.12968 31.9259C6.22661 32.8069 4.86312 31.335 4.04897 31.0498C3.78891 30.925 3.50658 30.8534 3.21848 30.8391C2.93039 30.8248 2.64234 30.8681 2.3712 30.9665C2.10005 31.0649 1.85126 31.2164 1.6394 31.4122C1.42754 31.6079 1.25687 31.844 1.13737 32.1065C-0.397489 34.7866 2.86117 35.6598 2.79958 36.5563C2.73798 37.4527 1.95777 39.0102 3.73244 40.0897C5.95982 41.3968 8.01194 39.5371 9.03389 40.1605C10.3734 40.9216 9.34337 42.6792 11.5719 43.999C12.9113 44.7601 14.3159 43.9372 15.3848 43.9327C19.1452 49.5227 25.0082 45.8275 25.0082 45.8275C23.8981 45.4724 22.8699 44.8993 21.984 44.1419C21.0981 43.3844 20.3723 42.4579 19.8489 41.4164C18.5811 39.147 20.3912 35.5391 18.1866 33.619C16.1051 31.9426 14.7372 33.4752 13.3394 32.6301L13.2889 32.6345Z" fill="#0ACB81"/>
<path d="M12.9899 40.4252C13.2176 38.1195 12.7712 35.7973 11.705 33.7403C11.6312 33.6206 11.515 33.5331 11.3795 33.4954C11.2441 33.4577 11.0994 33.4725 10.9744 33.5369C10.8619 33.5949 10.7768 33.6947 10.7373 33.8148C10.6978 33.9349 10.7071 34.0658 10.7632 34.1791C11.6176 35.8042 12.0519 37.6172 12.0266 39.453C11.1405 38.5807 10.0894 37.8937 8.93482 37.4322L8.91935 37.2554C8.71911 36.0265 8.17762 34.8786 7.35661 33.9425C7.32023 33.8833 7.27146 33.8326 7.21363 33.7939C7.15581 33.7553 7.0903 33.7296 7.02162 33.7187C6.95294 33.7078 6.88271 33.7119 6.81575 33.7307C6.7488 33.7495 6.6867 33.7825 6.63373 33.8276C6.54128 33.9222 6.48736 34.0478 6.48246 34.18C6.47755 34.3122 6.52202 34.4415 6.60721 34.5427C7.20145 35.2844 7.61333 36.1552 7.80976 37.0851C6.70996 36.7358 5.62391 36.3981 4.45274 36.1059C4.32071 36.0824 4.18473 36.1121 4.07453 36.1885C3.96434 36.2649 3.88888 36.3819 3.86469 36.5138C3.85311 36.5783 3.85448 36.6446 3.86872 36.7086C3.88296 36.7726 3.90977 36.8331 3.94762 36.8866C3.98547 36.9402 4.0336 36.9857 4.08919 37.0205C4.14478 37.0553 4.20674 37.0786 4.27145 37.0892C5.61342 37.3444 6.92661 37.7326 8.19156 38.2483C10.3139 39.2151 12.1092 40.7785 13.3586 42.7478C13.6548 43.0783 13.8615 43.4039 14.1577 43.7344C14.1598 43.7578 14.1711 43.7795 14.1891 43.7947C14.2072 43.8098 14.2305 43.8171 14.2539 43.8151C14.2947 43.8684 14.3467 43.9121 14.4063 43.9431C14.4659 43.974 14.5316 43.9914 14.5987 43.994C14.6658 43.9967 14.7326 43.9845 14.7944 43.9583C14.8563 43.9322 14.9116 43.8927 14.9564 43.8427L15.0371 43.7466C15.3552 43.3205 15.6392 42.87 15.8867 42.3993C16.6144 41.1158 16.9296 39.6395 16.7896 38.1707C16.7686 38.0337 16.6985 37.909 16.5923 37.8199C16.4862 37.7308 16.3512 37.6834 16.2126 37.6866L16.1242 37.6943C15.9968 37.7184 15.8839 37.7915 15.8099 37.898C15.7359 38.0044 15.7066 38.1357 15.7285 38.2635C15.7641 39.7584 15.3719 41.2325 14.5982 42.5121C14.4943 42.343 14.3019 42.1816 14.2107 42.0113C13.8849 41.4033 13.4761 40.8436 12.9959 40.3483L12.9899 40.4252Z" fill="#07AA7C" stroke="#0ACB81" stroke-width="0.25"/>
<path d="M50.2829 32.6345C52.051 31.6308 52.062 30.4862 53.5979 30.0987C53.8655 30.0394 54.1425 30.0356 54.4116 30.0876C54.6807 30.1396 54.9363 30.2463 55.1626 30.4011C55.5278 30.6554 55.8333 30.9862 56.0579 31.3704C56.2067 31.5617 56.2796 31.7463 56.4421 31.9259C57.3452 32.8069 58.7087 31.335 59.5228 31.0498C59.7829 30.925 60.0652 30.8534 60.3533 30.8391C60.6414 30.8248 60.9294 30.8681 61.2006 30.9665C61.4717 31.0649 61.7205 31.2164 61.9324 31.4122C62.1442 31.6079 62.3149 31.844 62.4344 32.1065C63.9693 34.7866 60.7106 35.6598 60.7722 36.5563C60.8338 37.4527 61.614 39.0102 59.8393 40.0897C57.612 41.3968 55.5598 39.5371 54.5379 40.1605C53.1984 40.9216 54.2284 42.6792 51.9999 43.999C50.6604 44.7601 49.2559 43.9372 48.187 43.9327C44.4266 49.5227 38.5636 45.8275 38.5636 45.8275C39.6737 45.4724 40.7018 44.8993 41.5877 44.1419C42.4736 43.3844 43.1995 42.4579 43.7229 41.4164C44.9907 39.147 43.1806 35.5391 45.3852 33.619C47.4667 31.9426 48.8346 33.4752 50.2324 32.6301L50.2829 32.6345Z" fill="#0ACB81"/>
<path d="M50.5818 40.4252C50.3542 38.1195 50.8006 35.7973 51.8668 33.7403C51.9405 33.6206 52.0568 33.5331 52.1922 33.4954C52.3277 33.4577 52.4724 33.4725 52.5974 33.5369C52.7098 33.5949 52.795 33.6947 52.8345 33.8148C52.874 33.9349 52.8647 34.0658 52.8085 34.1791C51.9542 35.8042 51.5199 37.6172 51.5452 39.453C52.4313 38.5807 53.4824 37.8937 54.637 37.4322L54.6524 37.2554C54.8527 36.0265 55.3942 34.8786 56.2152 33.9425C56.2515 33.8833 56.3003 33.8326 56.3581 33.7939C56.416 33.7553 56.4815 33.7296 56.5502 33.7187C56.6188 33.7078 56.6891 33.7119 56.756 33.7307C56.823 33.7495 56.8851 33.7825 56.938 33.8276C57.0305 33.9222 57.0844 34.0478 57.0893 34.18C57.0942 34.3122 57.0498 34.4415 56.9646 34.5427C56.3703 35.2844 55.9584 36.1552 55.762 37.0851C56.8618 36.7358 57.9479 36.3981 59.119 36.1059C59.2511 36.0824 59.387 36.1121 59.4972 36.1885C59.6074 36.2649 59.6829 36.3819 59.7071 36.5138C59.7187 36.5783 59.7173 36.6446 59.7031 36.7086C59.6888 36.7726 59.662 36.8331 59.6242 36.8866C59.5863 36.9402 59.5382 36.9857 59.4826 37.0205C59.427 37.0553 59.365 37.0786 59.3003 37.0892C57.9584 37.3444 56.6452 37.7326 55.3802 38.2483C53.2579 39.2151 51.4626 40.7785 50.2132 42.7478C49.9169 43.0783 49.7103 43.4039 49.414 43.7344C49.412 43.7578 49.4007 43.7795 49.3827 43.7947C49.3646 43.8098 49.3413 43.8171 49.3179 43.8151C49.2771 43.8684 49.2251 43.9121 49.1655 43.9431C49.1059 43.974 49.0402 43.9914 48.9731 43.994C48.906 43.9967 48.8392 43.9845 48.7773 43.9583C48.7155 43.9322 48.6602 43.8927 48.6153 43.8427L48.5347 43.7466C48.2166 43.3205 47.9325 42.87 47.6851 42.3993C46.9574 41.1158 46.6421 39.6395 46.7822 38.1707C46.8031 38.0337 46.8733 37.909 46.9795 37.8199C47.0856 37.7308 47.2206 37.6834 47.3592 37.6866L47.4476 37.6943C47.575 37.7184 47.6879 37.7915 47.7619 37.898C47.8359 38.0044 47.8651 38.1357 47.8433 38.2635C47.8077 39.7584 48.1998 41.2325 48.9736 42.5121C49.0775 42.343 49.2698 42.1816 49.3611 42.0113C49.6869 41.4033 50.0957 40.8436 50.5758 40.3483L50.5818 40.4252Z" fill="#07AA7C" stroke="#0ACB81" stroke-width="0.25"/>
<mask id="mask0_808_24321" style="mask-type:alpha" maskUnits="userSpaceOnUse" x="7" y="16" width="50" height="30">
<path d="M48.8118 31.109C50.2443 35.5856 56.8921 34.2426 56.8921 38.4954C56.8921 42.3677 44.9619 44.7627 41.0896 44.9641L24.9065 45.2551C14.5431 45.2551 7 42.4348 7 34.0635C7.21931 29.2834 9.2768 24.7728 12.7428 21.4737C16.2088 18.1745 20.8153 16.3419 25.6004 16.3584C35.9862 16.2465 46.1705 23.0063 48.8118 31.109Z" fill="#D87E35"/>
</mask>
<g mask="url(#mask0_808_24321)">
<path d="M48.8118 31.109C50.2443 35.5856 56.8921 34.2426 56.8921 38.4954C56.8921 42.3677 44.9619 44.7627 41.0896 44.9641L24.9065 45.2551C14.5431 45.2551 7 42.4348 7 34.0635C7.21931 29.2834 9.2768 24.7728 12.7428 21.4737C16.2088 18.1745 20.8153 16.3419 25.6004 16.3584C35.9862 16.2465 46.1705 23.0063 48.8118 31.109Z" fill="#D87E35"/>
<path d="M13.8295 18.9296C12.11 16.7392 18.875 16.4399 21.9451 15.9226L27.8814 15.5535C30.7514 15.6018 33.7441 15.617 34.8201 15.9053C36.165 16.2657 37.8219 18.1511 36.1167 19.1356C34.4114 20.1202 33.9542 23.8276 31.9854 23.7945C29.1154 23.7462 28.9835 21.5487 26.1135 21.5004C23.2436 21.4521 23.5075 25.8472 20.8177 25.1265C19.9136 24.8843 20.6721 21.3922 19.209 20.3711C17.742 19.3472 14.9056 20.3005 13.8295 18.9296Z" fill="#C67030"/>
</g>
<path d="M52.9086 34.668C52.5697 34.522 52.195 34.4802 51.8322 34.548C51.4695 34.6157 51.1351 34.79 50.8717 35.0485C48.0962 37.8912 39.1653 39.5252 35.8974 39.7714L19.7367 40.0848C15.6462 40.2558 11.5656 39.5617 7.76172 38.0479C9.86574 43.3751 16.4464 45.2553 24.9072 45.2553L41.0903 44.9643C44.9626 44.7628 56.8928 42.3678 56.8928 38.4955C56.8928 36.1901 54.9455 35.4962 52.9086 34.668Z" fill="#C67030"/>
<path d="M53.6469 16.7614C53.4172 17.1073 53.2731 17.5028 53.2264 17.9153C53.1797 18.3279 53.2318 18.7456 53.3783 19.1341C53.4453 19.3792 53.4363 19.6389 53.3523 19.8787C53.2684 20.1186 53.1135 20.3272 52.9083 20.4771L45.7233 25.6699C45.3082 25.9782 45.0309 26.4373 44.9513 26.9482C44.8718 27.4591 44.9963 27.9808 45.298 28.4007C45.4505 28.6069 45.6421 28.781 45.8621 28.913C46.082 29.0449 46.3259 29.1321 46.5797 29.1695C46.8334 29.207 47.092 29.1939 47.3407 29.1311C47.5893 29.0683 47.8232 28.957 48.0287 28.8036L55.1466 23.5212C55.3568 23.3748 55.6067 23.2963 55.8629 23.2963C56.119 23.2963 56.3689 23.3748 56.5791 23.5212C56.8971 23.7542 57.2622 23.915 57.6488 23.9923C58.0354 24.0697 58.4342 24.0616 58.8174 23.9688C59.3617 23.7411 59.7941 23.3075 60.0205 22.7626C60.2468 22.2177 60.2488 21.6054 60.0261 21.059C59.8476 20.6208 59.5348 20.2504 59.1326 20.0011C58.7305 19.7518 58.2597 19.6363 57.7878 19.6713C57.7011 19.6735 57.6155 19.6516 57.5404 19.6082C57.4654 19.5647 57.4038 19.5013 57.3625 19.4251C57.3189 19.3544 57.2958 19.273 57.2958 19.19C57.2958 19.107 57.3189 19.0256 57.3625 18.955C57.5047 18.5237 57.5123 18.0593 57.3844 17.6235C57.2565 17.1878 56.999 16.8012 56.6462 16.5152C56.4345 16.3314 56.1882 16.1918 55.9218 16.1045C55.6554 16.0173 55.3741 15.9841 55.0947 16.0071C54.8153 16.03 54.5433 16.1086 54.2946 16.2381C54.046 16.3677 53.8258 16.5456 53.6469 16.7614Z" fill="#E2E2E2"/>
<path d="M27.257 41.6514C28.7865 43.6181 31.0341 44.8973 33.5061 45.2079C35.978 45.5184 38.4722 44.835 40.4407 43.3078C42.3895 41.8226 43.7971 39.7387 44.4473 37.3763C45.3697 34.2857 47.1097 31.5017 49.4835 29.3183C49.812 29.0544 50.0241 28.6723 50.0743 28.254C50.1245 27.8356 50.0088 27.4142 49.7521 27.08L47.8495 24.4612C47.5985 24.12 47.2248 23.8896 46.8073 23.8186C46.3897 23.7477 45.9608 23.8416 45.6112 24.0807C42.8077 25.6894 39.6211 26.5092 36.3893 26.4533C33.9399 26.3786 31.5337 27.1099 29.5401 28.5349C28.5251 29.2431 27.6604 30.1453 26.9957 31.1893C26.3311 32.2333 25.8796 33.3985 25.6674 34.6178C25.4551 35.8371 25.4863 37.0863 25.7592 38.2935C26.032 39.5007 26.5411 40.6419 27.257 41.6514Z" fill="#E88C38"/>
<path d="M49.7527 27.1471L47.8502 24.5283C47.6444 24.3131 47.3641 24.1849 47.0667 24.1701C46.6477 24.1356 46.2264 24.2007 45.8374 24.3602C45.4484 24.5197 45.1026 24.7691 44.8284 25.0879C42.7674 27.3643 41.1504 30.0062 40.0609 32.8772C39.4107 35.2397 38.0031 37.3235 36.0542 38.8087C34.6871 39.826 33.0789 40.4703 31.3876 40.6783C29.6962 40.8862 27.98 40.6508 26.4071 39.9951C26.6533 40.5873 26.9769 41.1443 27.3696 41.6514C28.899 43.6181 31.1467 44.8973 33.6187 45.2078C36.0906 45.5184 38.5848 44.835 40.5532 43.3078C42.5021 41.8225 43.9096 39.7387 44.5598 37.3762C45.4823 34.2857 47.2223 31.5017 49.596 29.3183C49.8889 29.0415 50.0674 28.665 50.0964 28.2631C50.1254 27.8612 50.0028 27.4631 49.7527 27.1471Z" fill="#D38231"/>
<path d="M7.90304 45.1535L2.1167 39.8567C2.1167 39.8567 13.2292 42.1323 31.75 42.1323C50.2709 42.1323 61.3834 39.9097 61.3834 39.9097L56.288 44.9201C55.4604 45.7339 54.4724 46.3673 53.3498 46.662C50.4225 47.4305 43.5509 48.7997 31.75 48.7997C19.6871 48.7997 13.0609 47.369 10.3987 46.6117C9.45581 46.3435 8.6261 45.8154 7.90304 45.1535Z" fill="#D1E1EE" stroke="#D1E1EE" stroke-width="1.05833"/>
<path opacity="0.4" d="M35.9834 46.1539C29.6334 46.6831 17.1451 46.2597 11.6417 44.5664" stroke="#97B9D6" stroke-width="1.05833" stroke-linecap="round"/>
<circle cx="25.6655" cy="18.0699" r="0.546958" fill="#861719"/>
<path d="M21.3237 18.5608C21.1412 19.4524 22.512 20.2439 23.193 19.64C23.3754 18.7484 22.0046 17.957 21.3237 18.5608Z" fill="#FDF2CA"/>
<rect x="22.2632" y="21.2056" width="1.09392" height="1.09392" transform="rotate(80 22.2632 21.2056)" fill="#0ACB81"/>
<circle cx="32.547" cy="20.547" r="0.546958" fill="#F43B3B"/>
<rect x="28.8035" y="17" width="1.09392" height="1.09392" transform="rotate(30 28.8035 17)" fill="#0ACB81"/>
<path d="M27.1786 20.4765C27.249 19.5691 28.7849 19.1861 29.273 19.9543C29.2026 20.8616 27.6668 21.2446 27.1786 20.4765Z" fill="white"/>
</svg>
