<svg width="64" height="64" viewBox="0 0 64 64" fill="none" xmlns="http://www.w3.org/2000/svg">
<mask id="mask0_808_24327" style="mask-type:alpha" maskUnits="userSpaceOnUse" x="0" y="44" width="49" height="4">
<rect x="0.5" y="44.1115" width="48.4615" height="3.63462" fill="#D9D9D9"/>
</mask>
<g mask="url(#mask0_808_24327)">
<rect x="0.5" y="44.1115" width="48.4615" height="3.63462" fill="#D9D9D9"/>
<path d="M15.5265 46.3341C16.1946 46.3341 17.7712 45.9333 18.7332 45.9333C19.9357 45.9333 22.3407 46.7349 24.3448 46.3341M14.7249 45.1316C17.9315 45.1316 17.5307 43.1274 20.7373 43.1274M20.7373 43.9291C20.7373 44.0627 21.2985 44.3299 23.5432 44.3299C26.349 44.3299 28.3532 43.1274 30.3573 43.5283C31.9607 43.8489 32.0943 44.1963 31.9607 44.3299" stroke="black" stroke-width="0.25" stroke-linecap="round" stroke-linejoin="round"/>
<path d="M0.295166 46.3341H1.49766" stroke="black" stroke-width="0.25" stroke-linecap="round" stroke-linejoin="round"/>
<path d="M3.50171 45.9333H5.10504" stroke="black" stroke-width="0.25" stroke-linecap="round" stroke-linejoin="round"/>
<path d="M6.7085 45.9333H7.10933" stroke="black" stroke-width="0.25" stroke-linecap="round" stroke-linejoin="round"/>
<path d="M11.5181 45.9333H11.9189" stroke="black" stroke-width="0.25" stroke-linecap="round" stroke-linejoin="round"/>
<path d="M0.295166 47.5367C2.43294 47.2694 7.10932 46.735 8.71265 46.735C10.7168 46.735 13.9235 47.9375 17.1301 47.1358" stroke="black" stroke-width="0.25" stroke-linecap="round" stroke-linejoin="round"/>
<path d="M0.295166 44.7307C0.562388 44.7307 1.177 44.8109 1.49766 45.1315" stroke="black" stroke-width="0.25" stroke-linecap="round" stroke-linejoin="round"/>
<path d="M0.295166 43.9291C0.829609 43.9291 2.21916 44.0092 3.50183 44.3299C5.10516 44.7307 5.50599 45.1316 7.51015 45.1316C9.51431 45.1316 10.7168 44.3299 11.9193 44.3299C13.1218 44.3299 15.0198 44.1826 15.5268 43.9291C16.3285 43.5282 17.1301 42.7266 17.531 42.7266" stroke="black" stroke-width="0.25" stroke-linecap="round" stroke-linejoin="round"/>
<path d="M33.3292 47.5458C32.6611 47.5458 31.0845 47.1449 30.1225 47.1449C28.92 47.1449 26.515 47.9466 24.5109 47.5458M34.1309 46.3433C30.9242 46.3433 31.325 44.3391 28.1184 44.3391M28.1184 45.1408C28.1184 45.2744 27.5572 45.5416 25.3125 45.5416C22.5067 45.5416 20.5026 44.3391 18.4984 44.7399C16.8951 45.0606 16.7614 45.408 16.8951 45.5416" stroke="black" stroke-width="0.25" stroke-linecap="round" stroke-linejoin="round"/>
<path d="M48.5608 47.5457H47.3583" stroke="black" stroke-width="0.25" stroke-linecap="round" stroke-linejoin="round"/>
<path d="M46.9573 43.9381C46.5564 44.0717 45.5944 44.3389 44.9531 44.3389C44.3118 44.3389 43.3498 44.3389 42.949 44.3389" stroke="black" stroke-width="0.25" stroke-linecap="round" stroke-linejoin="round"/>
<path d="M40.9448 44.3391H40.1432" stroke="black" stroke-width="0.25" stroke-linecap="round" stroke-linejoin="round"/>
<path d="M45.3542 47.1449H43.7509" stroke="black" stroke-width="0.25" stroke-linecap="round" stroke-linejoin="round"/>
<path d="M38.5398 44.3391H38.139" stroke="black" stroke-width="0.25" stroke-linecap="round" stroke-linejoin="round"/>
<path d="M42.1475 47.1449H41.7466" stroke="black" stroke-width="0.25" stroke-linecap="round" stroke-linejoin="round"/>
<path d="M37.3374 47.1449H36.9366" stroke="black" stroke-width="0.25" stroke-linecap="round" stroke-linejoin="round"/>
<path d="M48.5608 45.9423C48.2936 45.9423 47.679 46.0224 47.3583 46.3431" stroke="black" stroke-width="0.25" stroke-linecap="round" stroke-linejoin="round"/>
<path d="M48.5608 45.1406C48.0263 45.1406 46.6368 45.2208 45.3541 45.5414C43.7508 45.9423 43.35 46.3431 41.3458 46.3431C39.3416 46.3431 38.1391 45.5414 36.9366 45.5414C35.7342 45.5414 33.8362 45.3941 33.3292 45.1406C32.5275 44.7398 31.7258 43.9381 31.325 43.9381" stroke="black" stroke-width="0.25" stroke-linecap="round" stroke-linejoin="round"/>
</g>
<mask id="mask1_808_24327" style="mask-type:alpha" maskUnits="userSpaceOnUse" x="0" y="43" width="49" height="10">
<rect x="0.5" y="43.8999" width="48.4615" height="9" fill="#D9D9D9"/>
</mask>
<g mask="url(#mask1_808_24327)">
<rect x="0.5" y="43.8999" width="48.4615" height="9" fill="#98634E"/>
<rect x="2.5" y="45.8999" width="28.46" height="1" rx="0.5" fill="#80503E"/>
<rect x="10.5" y="48.8999" width="8.46" height="1" rx="0.5" fill="#80503E"/>
<rect x="37.5" y="48.8999" width="8.46" height="1" rx="0.5" fill="#80503E"/>
<rect x="20.5" y="48.8999" width="3" height="1" rx="0.5" fill="#80503E"/>
<rect x="44.5" y="50.8999" width="3" height="1" rx="0.5" fill="#80503E"/>
</g>
<path d="M0.5 43.8999H63.5C63.5 42.7953 62.6046 41.8999 61.5 41.8999H2.5C1.39543 41.8999 0.5 42.7953 0.5 43.8999Z" fill="#5E3F33"/>
<mask id="mask2_808_24327" style="mask-type:alpha" maskUnits="userSpaceOnUse" x="48" y="43" width="16" height="10">
<rect width="14.5385" height="9" transform="matrix(-1 0 0 1 63.5 43.8999)" fill="#D9D9D9"/>
</mask>
<g mask="url(#mask2_808_24327)">
<rect width="14.5385" height="9" transform="matrix(-1 0 0 1 63.5 43.8999)" fill="#80503E"/>
</g>
<path d="M54.2 29.5379V39.4084C54.0844 40.1616 53.9351 40.8413 53.3317 41.3067C52.7283 41.7721 51.9689 41.9873 51.2111 41.9077L16.2407 41.8019C15.4829 41.8814 14.7235 41.6662 14.1201 41.2008C13.5167 40.7355 13.1156 40.0556 13 39.3024L13.1483 28.5L54.2 28.6271C54.2 28.6271 54.2 29.1566 54.2 29.5379Z" fill="#F0F3FC"/>
<path d="M13.5117 28.4424C13.5117 22.6599 19.3789 18.3389 26.8771 18C27.4279 18.0148 27.9751 18.093 28.5081 18.233L54.2222 28.6754L13.5117 28.4424Z" fill="#005C55"/>
<path d="M28.6561 34.7331C28.6561 34.7331 28.4443 34.5637 28.3172 34.5849C28.1901 34.6061 28.1902 34.712 28.1266 34.7755C28.0631 34.8391 27.8301 34.9662 27.7454 34.7755C27.6429 34.6506 27.5901 34.4921 27.5971 34.3307C27.5971 34.0765 27.7665 33.8436 27.7454 33.5894C27.7242 33.3352 27.3429 33.1446 27.1523 32.9116C27.1371 32.8783 27.1292 32.8422 27.1292 32.8056C27.1292 32.7691 27.1371 32.733 27.1523 32.6997C27.1523 32.6997 27.1523 32.6997 27.1523 32.5727C27.2609 32.4616 27.4017 32.3875 27.5547 32.3608C27.6278 32.349 27.7029 32.3587 27.7706 32.3888C27.8383 32.4189 27.8958 32.4681 27.936 32.5303C27.936 32.5303 27.936 32.6574 27.936 32.6997C27.9443 32.728 27.9607 32.7532 27.9834 32.7721C28.006 32.7909 28.0338 32.8026 28.0631 32.8056C28.1876 32.6755 28.2753 32.5148 28.3172 32.3397C28.3073 32.3162 28.3022 32.291 28.3022 32.2655C28.3022 32.2401 28.3073 32.2149 28.3172 32.1914C28.3172 32.1914 28.3172 32.1914 28.4231 32.1914C28.529 32.1914 28.8044 32.1914 28.9103 32.1914C29.0162 32.1914 28.9103 32.3397 28.9103 32.4456C28.9209 32.5724 28.9209 32.7 28.9103 32.8268C28.9 32.8899 28.9 32.9543 28.9103 33.0174C28.9296 33.0783 28.9657 33.1324 29.0144 33.1736C29.0632 33.2148 29.1225 33.2415 29.1857 33.2505H29.5669C29.7081 33.2887 29.8434 33.3456 29.9694 33.4199C30.0753 33.4199 30.2236 33.5893 30.2447 33.7376C30.2658 33.7842 30.2767 33.8348 30.2767 33.8859C30.2767 33.937 30.2658 33.9876 30.2447 34.0342L30.0117 34.3095L30.4566 34.4578C30.6321 34.4709 30.7973 34.5459 30.9226 34.6696C30.9609 34.7126 30.99 34.7629 31.0082 34.8175C31.0264 34.8722 31.0333 34.93 31.0284 34.9874C31.0405 35.0432 31.0405 35.1009 31.0284 35.1568C30.9807 35.2228 30.9164 35.2752 30.8421 35.3086C30.7677 35.3421 30.6859 35.3555 30.6048 35.3474C30.3701 35.3246 30.1447 35.2447 29.9482 35.1144C29.7965 34.9613 29.6337 34.8197 29.461 34.6908C29.1939 34.6314 28.9156 34.646 28.6561 34.7331Z" fill="#045B63"/>
<path d="M38.4632 33.6318C38.535 33.6903 38.6247 33.7222 38.7173 33.7222C38.8099 33.7222 38.8997 33.6903 38.9715 33.6318C38.9715 33.6318 39.0986 33.4835 39.2045 33.4411C39.2542 33.4065 39.3134 33.3879 39.3739 33.3879C39.4345 33.3879 39.4936 33.4065 39.5434 33.4411C39.6076 33.5523 39.6507 33.6743 39.6704 33.8012C39.7341 34.0514 39.7341 34.3136 39.6704 34.5637C39.6704 34.7332 39.4798 34.9238 39.2892 34.9238C39.0986 34.9238 38.8232 34.5214 38.5267 34.4579C38.3505 34.4418 38.1735 34.4787 38.0183 34.5637C37.879 34.6523 37.7174 34.6994 37.5523 34.6994C37.3873 34.6994 37.2256 34.6523 37.0863 34.5637C36.811 34.2884 36.8746 33.8436 36.7475 33.4835C36.6204 33.1234 36.5568 33.1658 36.4933 32.9964C36.4422 32.9175 36.415 32.8255 36.415 32.7316C36.415 32.6376 36.4422 32.5457 36.4933 32.4668C36.7262 32.255 37.277 32.4668 37.5312 32.6574C37.7854 32.8481 38.0819 33.2293 38.4632 33.6318Z" fill="#045B63"/>
<path d="M50.2608 39.7319C50.5127 39.6796 50.775 39.717 51.0022 39.8378C51.0852 39.9132 51.1778 39.9773 51.2776 40.0284C51.3293 40.0445 51.3841 40.0487 51.4377 40.0407C51.4914 40.0327 51.5424 40.0126 51.5873 39.9821C51.6321 39.9515 51.6694 39.9113 51.6964 39.8643C51.7235 39.8173 51.7396 39.7648 51.7436 39.7107C51.7563 39.6052 51.7343 39.4985 51.6807 39.4067C51.6272 39.3149 51.5451 39.2432 51.447 39.2024C51.2491 39.1276 51.0307 39.1276 50.8328 39.2024C50.7309 39.2436 50.617 39.2436 50.5151 39.2024C50.5151 39.2024 50.4091 39.0541 50.3879 38.9694L50.1338 38.2069C50.1191 38.1398 50.0817 38.0799 50.0279 38.0374C50.0279 38.0374 49.9008 38.0374 49.816 38.0374C49.6434 37.9849 49.4591 37.9849 49.2865 38.0374C49.2426 38.0516 49.2021 38.0746 49.1674 38.105C49.1328 38.1354 49.1046 38.1725 49.0848 38.2142C49.0649 38.2558 49.0539 38.301 49.0521 38.3471C49.0504 38.3932 49.058 38.4392 49.0747 38.4822C48.8925 38.5143 48.7062 38.5143 48.524 38.4822C47.592 38.6305 48.7147 39.2236 48.9265 39.4142C49.1383 39.6048 49.2018 39.859 49.4771 39.9437C49.7525 40.0285 49.9008 39.7743 50.2608 39.7319Z" fill="#045B63"/>
<path d="M45.5796 32.8481C45.749 32.8481 45.9185 32.6999 46.0879 32.6575C46.1677 32.6089 46.2593 32.5831 46.3527 32.5831C46.4461 32.5831 46.5377 32.6089 46.6174 32.6575C46.8293 32.827 46.7869 33.1658 46.9776 33.3353C47.0596 33.4129 47.1628 33.4645 47.2741 33.4835C47.4539 33.5365 47.645 33.5365 47.8248 33.4835C47.9184 33.4631 48.0009 33.4082 48.0559 33.3297C48.1108 33.2512 48.1342 33.1549 48.1214 33.06C48.1214 32.6999 47.4435 32.7846 47.2317 32.488C47.0199 32.1915 47.4859 31.5349 47.2317 31.196C47.149 31.117 47.039 31.0729 46.9246 31.0729C46.8102 31.0729 46.7002 31.117 46.6174 31.196C46.4511 31.3548 46.3398 31.5626 46.2997 31.7891C46.3111 31.8235 46.3111 31.8605 46.2997 31.8949C46.2702 31.9098 46.2376 31.9176 46.2045 31.9176C46.1714 31.9176 46.1387 31.9098 46.1091 31.8949C45.4723 31.607 44.8802 31.2289 44.3511 30.7723C44.2583 30.9834 44.1874 31.2034 44.1393 31.429C44.1183 31.4908 44.1183 31.5578 44.1393 31.6196C44.1393 31.8102 44.4146 31.8526 44.6053 31.8738C44.3299 32.4669 45.2195 32.9117 45.5796 32.8481Z" fill="#045B63"/>
<path d="M21.4334 39.2447C21.7934 39.2447 22.0052 38.7364 22.3441 38.7787C22.4413 38.7998 22.5321 38.8433 22.6094 38.9059C22.6866 38.9684 22.7481 39.0482 22.7889 39.1388C22.8551 39.3144 22.948 39.4787 23.0643 39.626C23.4032 39.9861 23.9751 39.859 24.3987 39.626C24.6187 39.5397 24.8096 39.3928 24.9495 39.2024C24.9911 39.1558 25.0142 39.0954 25.0142 39.0329C25.0142 38.9704 24.9911 38.9101 24.9495 38.8635C24.6353 38.5251 24.203 38.3203 23.7421 38.2916C23.382 38.2916 22.9372 38.2916 22.7889 37.995C22.7692 37.8616 22.7692 37.726 22.7889 37.5926C22.7605 37.4943 22.712 37.4029 22.6465 37.3243C22.581 37.2457 22.4999 37.1815 22.4084 37.1358C22.3169 37.09 22.2169 37.0637 22.1147 37.0585C22.0125 37.0532 21.9103 37.0693 21.8146 37.1055C21.6727 37.1886 21.5239 37.2594 21.3698 37.3172C21.0097 37.4231 20.6496 37.1478 20.2896 37.1901C20.2896 37.6349 20.692 37.8256 20.8826 38.2069C21.0733 38.5881 20.8403 39.3083 21.4334 39.2447Z" fill="#045B63"/>
<path d="M35.6032 40.4521C35.8497 40.3654 36.1057 40.3086 36.3657 40.2826C36.5066 40.3128 36.6381 40.3768 36.7487 40.4691C36.8594 40.5613 36.946 40.679 37.0012 40.8122C37.0341 40.8933 37.0939 40.9606 37.1706 41.0028C37.2251 41.0241 37.2856 41.0241 37.3401 41.0028C37.6956 40.9952 38.0414 40.8848 38.3356 40.685C38.4153 40.6221 38.4803 40.5426 38.5262 40.4521C38.5382 40.3603 38.5199 40.2672 38.474 40.1869C38.4281 40.1066 38.3572 40.0435 38.272 40.0073C38.0891 39.9853 37.9042 39.9853 37.7213 40.0073C37.5415 40.0032 37.369 39.9356 37.2341 39.8166C36.9164 39.4777 37.2341 38.8846 37.0223 38.5033C36.9412 38.4004 36.8385 38.3167 36.7213 38.2582C36.6042 38.1996 36.4755 38.1676 36.3445 38.1645C36.263 38.1315 36.1718 38.1315 36.0903 38.1645C36.0331 38.1873 35.9822 38.2236 35.9421 38.2704C35.627 38.4484 35.2565 38.5014 34.9042 38.4187C33.0826 38.228 34.65 40.5791 35.6032 40.4521Z" fill="#045B63"/>
<path d="M33.4856 30.4548C33.5544 30.4321 33.6286 30.4321 33.6974 30.4548C33.7187 30.5092 33.7187 30.5697 33.6974 30.6242L33.8668 31.4291C34.2917 31.3278 34.6939 31.1482 35.053 30.8995C35.1801 30.8995 35.3072 30.6878 35.286 30.5395C35.2648 30.3912 35.1165 30.3277 34.9682 30.2853C34.7168 30.2322 34.4571 30.2322 34.2057 30.2853C33.9516 30.2853 33.655 30.2853 33.4856 30.1582C33.3161 30.0311 33.4856 29.4804 33.2102 29.2898C32.9349 29.0992 31.4522 30.603 33.4856 30.4548Z" fill="#045B63"/>
<path d="M28.8891 39.5202C28.8976 39.6202 28.9343 39.7157 28.995 39.7956C29.0638 39.8182 29.138 39.8182 29.2068 39.7956C29.4856 39.8591 29.7752 39.8591 30.0541 39.7956C30.0541 39.9862 30.2024 40.198 30.393 40.2404C30.4755 40.245 30.5573 40.2228 30.626 40.1769C30.6948 40.1311 30.7468 40.0642 30.7742 39.9862C30.8068 39.8326 30.8068 39.6738 30.7742 39.5202C30.4086 39.3313 29.9991 39.2435 29.5881 39.266C29.5664 38.7576 29.6308 38.2491 29.7787 37.7622C29.6779 37.7256 29.5688 37.7181 29.4639 37.7406C29.359 37.7631 29.2626 37.8146 29.1856 37.8893C28.6561 38.4612 28.8255 38.8636 28.8891 39.5202Z" fill="#045B63"/>
<path d="M42.3394 37.1055C42.3199 37.1676 42.3199 37.2341 42.3394 37.2961C42.3719 37.36 42.4239 37.4119 42.4877 37.4444C42.6857 37.5556 42.9002 37.6343 43.1231 37.6774C43.1847 37.7001 43.2522 37.7001 43.3138 37.6774C43.3138 37.6774 43.3138 37.6774 43.3138 37.5715C43.3336 37.562 43.3553 37.5572 43.3773 37.5572C43.3993 37.5572 43.421 37.562 43.4408 37.5715H44.0551C44.1437 37.6058 44.2419 37.6058 44.3305 37.5715C44.3485 37.5429 44.3602 37.5108 44.3646 37.4773C44.3689 37.4438 44.366 37.4098 44.3559 37.3775C44.3458 37.3453 44.3289 37.3156 44.3062 37.2906C44.2835 37.2656 44.2557 37.2458 44.2246 37.2326C44.1087 37.1653 43.9774 37.1288 43.8433 37.1267C43.7757 37.1243 43.7097 37.1057 43.6507 37.0726C43.5918 37.0394 43.5416 36.9926 43.5044 36.936C43.4826 36.8599 43.4826 36.7792 43.5044 36.7031V35.7499C43.3118 35.6622 43.097 35.6355 42.8888 35.6734C42.6805 35.7112 42.4889 35.8118 42.3394 35.9617C42.2124 36.3006 42.3394 36.7666 42.3394 37.1055Z" fill="#045B63"/>
<path d="M44.5421 40.6216C44.5421 40.4521 44.3938 40.3038 44.2455 40.2191C44.1708 40.1783 44.087 40.157 44.0019 40.157C43.9168 40.157 43.8331 40.1783 43.7584 40.2191C43.7584 40.2191 43.61 40.3463 43.5041 40.3463C43.4539 40.3528 43.4029 40.3442 43.3577 40.3215C43.3124 40.2989 43.2749 40.2632 43.25 40.2191C43.238 40.1277 43.238 40.0352 43.25 39.9438C43.2307 39.8194 43.1736 39.7038 43.0865 39.6129C42.9994 39.5219 42.8864 39.46 42.7628 39.4354C42.6146 39.4354 42.5087 39.5837 42.3604 39.626C42.2121 39.6684 42.085 39.626 41.9367 39.626C41.7885 39.626 41.5131 39.8802 41.7249 40.2403C41.9984 40.5956 42.3885 40.8431 42.8264 40.9393C42.9958 40.897 44.4573 40.8334 44.5421 40.6216Z" fill="#045B63"/>
<path d="M21.2428 31.3018C21.2428 31.3018 21.2428 31.3018 21.2428 31.4289C21.2776 31.4379 21.314 31.4379 21.3487 31.4289C21.5032 31.4894 21.671 31.5075 21.8349 31.4814C21.9987 31.4554 22.1526 31.3861 22.2807 31.2807C22.2807 31.2807 22.2807 31.2806 22.3866 31.1747H23.3185V30.4546C23.3285 30.4128 23.3285 30.3693 23.3185 30.3275C23.3185 30.3275 23.3186 30.3275 23.2127 30.3275C23.1068 30.3275 22.6831 30.4546 22.4078 30.4758H22.2807C22.2697 30.427 22.2697 30.3763 22.2807 30.3275C22.1585 30.049 21.9406 29.8236 21.6664 29.6921C21.5278 29.6329 21.3734 29.6215 21.2276 29.6599C21.0819 29.6982 20.9531 29.7841 20.8616 29.9038C21.0152 30.0996 21.1281 30.3242 21.1936 30.5643C21.259 30.8044 21.2758 31.0551 21.2428 31.3018Z" fill="#045B63"/>
<path d="M53.4175 34.6698C53.4175 34.6698 53.2057 34.6698 53.0786 34.6698C52.9758 34.6498 52.8834 34.5943 52.8175 34.5129C52.7516 34.4316 52.7166 34.3296 52.7185 34.225C52.7321 34.0141 52.8139 33.8134 52.9515 33.6531C53.0786 33.5048 53.2057 33.293 53.0998 33.1447C53.0857 33.114 53.0652 33.0868 53.0396 33.0649C53.014 33.0429 52.9839 33.0268 52.9515 33.0176C52.7888 32.9165 52.6095 32.8447 52.422 32.8058H52.2949C52.2949 32.8058 52.2949 32.9117 52.2949 32.9541C52.2949 32.9964 52.1254 32.9541 52.0195 33.0812H51.1087C50.9556 33.0856 50.8076 33.1374 50.6851 33.2294C50.6533 33.2735 50.6308 33.3236 50.6189 33.3766C50.607 33.4297 50.606 33.4846 50.6159 33.538C50.6258 33.5915 50.6464 33.6424 50.6765 33.6876C50.7066 33.7329 50.7455 33.7715 50.791 33.8013C50.9817 33.9209 51.2013 33.9869 51.4264 33.992C51.4249 34.1245 51.4711 34.2531 51.5567 34.3542C51.6423 34.4554 51.7615 34.5223 51.8924 34.5427C51.8734 34.7673 51.8235 34.9882 51.7442 35.1993C51.7442 35.1993 51.7442 35.1993 51.7442 35.3052C51.7442 35.4111 51.7442 35.3052 51.7442 35.3052C52.103 35.4098 52.4724 35.4737 52.8456 35.4959C52.9503 35.5182 53.0586 35.5182 53.1633 35.4959C53.4175 35.3688 53.4386 35.0511 53.4598 34.7757C53.4539 34.7376 53.4395 34.7014 53.4175 34.6698Z" fill="#045B63"/>
<path opacity="0.8" d="M17.7902 28.4846L17.6419 39.2447C17.7221 40.0249 18.1082 40.7415 18.7155 41.2377C19.1337 41.5793 19.6332 41.7973 20.1586 41.8749L20.8826 41.8924C20.6394 41.9163 20.3964 41.91 20.1586 41.8749L16.4981 41.7865C15.7412 41.8608 14.9845 41.6436 14.3823 41.1791C13.7801 40.7147 13.3777 40.038 13.2573 39.2871L13.4056 28.4846H17.7902Z" fill="#E2E6F5"/>
<path opacity="0.8" d="M17.7901 28.4424C17.7901 23.3589 22.344 19.3981 28.5501 18.2966H28.4019C27.8759 18.1582 27.3358 18.08 26.7921 18.0636C19.2939 18.4025 13.4055 22.7235 13.4055 28.506H17.7901V28.4424Z" fill="#1E3255"/>
<path d="M15.5663 38.5669H15.3969C15.3671 38.5355 15.3504 38.4938 15.3504 38.4504C15.3504 38.4071 15.3671 38.3654 15.3969 38.334L15.5663 38.1433C15.596 38.0569 15.6018 37.9641 15.5832 37.8746C15.5645 37.7852 15.5221 37.7024 15.4604 37.635C15.2698 37.3385 14.952 37.0207 14.592 37.1055C14.5151 37.1342 14.4468 37.1819 14.3933 37.2441C14.3398 37.3063 14.303 37.381 14.2861 37.4613C14.2692 37.5416 14.2728 37.6248 14.2967 37.7033C14.3205 37.7818 14.3638 37.853 14.4225 37.9103C14.5284 38.0162 14.6979 38.0798 14.6979 38.2281H14.8461V38.9694H15.291C15.3613 38.9724 15.4316 38.9608 15.4972 38.9353C15.5628 38.9098 15.6224 38.8709 15.6722 38.8212C15.757 38.8 15.7146 38.5881 15.5663 38.5669Z" fill="#024755"/>
<path d="M18.5315 34.8814C18.7221 34.8814 18.9339 34.8814 18.9974 34.712C19.061 34.5425 18.9974 34.3731 18.828 34.246L18.3832 33.8859C18.2773 33.8859 18.1502 33.7165 18.1502 33.5894C18.1502 33.4623 18.3408 33.2928 18.4467 33.1445C18.5086 33.0661 18.5422 32.9691 18.5422 32.8692C18.5422 32.7693 18.5086 32.6723 18.4467 32.5939C18.2349 32.3397 17.7901 32.5938 17.5571 32.4456C17.3241 32.2973 17.1547 32.022 16.731 32.1914C16.5475 32.2966 16.4043 32.4598 16.3237 32.6554C16.2432 32.851 16.23 33.0677 16.2862 33.2716C16.3141 33.4968 16.407 33.709 16.5538 33.8821C16.7005 34.0552 16.8947 34.1817 17.1123 34.246C17.4935 34.246 17.5571 34.246 17.8536 34.4578C18.1502 34.6696 18.1078 34.8602 18.5315 34.8814Z" fill="#024755"/>
<path d="M5.30561 37.0647C6.02668 35.0835 8.21726 34.062 9.76319 35.9788C12.1795 35.5042 13.201 37.6948 12.4799 39.6759C11.7589 41.657 9.56829 42.6785 7.58715 41.9574C5.60601 41.2364 4.58453 39.0458 5.30561 37.0647Z" fill="#F43B3B"/>
<path d="M9.42712 34.6125C8.79811 35.1454 8.77894 36.1179 8.8127 36.5334C9.28822 36.471 10.2537 36.2407 10.5935 35.8521C10.9334 35.4634 10.8744 34.5262 10.8024 34.1062C10.6061 34.0529 10.0561 34.0795 9.42712 34.6125Z" fill="#027168"/>
<path d="M20.3513 35.5821C19.4405 33.0795 16.6733 31.7892 14.7205 34.2105C11.6682 33.6109 10.3779 36.378 11.2887 38.8806C12.1996 41.3831 14.9667 42.6735 17.4693 41.7626C19.9718 40.8518 21.2622 38.0846 20.3513 35.5821Z" fill="#F43B3B"/>
<path fill-rule="evenodd" clip-rule="evenodd" d="M12.4561 34.4844C11.9217 35.4069 11.8494 36.6745 12.2884 37.8806C13.1993 40.3831 15.9664 41.6735 18.469 40.7626C18.9172 40.5994 19.3266 40.3767 19.6915 40.1066C19.148 40.8398 18.3907 41.4271 17.469 41.7626C14.9664 42.6735 12.1993 41.3831 11.2884 38.8806C10.6515 37.1307 11.0908 35.2515 12.4561 34.4844Z" fill="#D61D1D"/>
<path d="M13.3082 35.0271C14.3174 35.284 15.3323 34.5913 15.735 34.2522C15.3225 33.8085 14.3783 32.9837 13.7294 32.9187C13.0805 32.8537 12.1592 33.601 11.7797 33.9827C11.8687 34.2238 12.299 34.7703 13.3082 35.0271Z" fill="#07AA7C"/>
<path d="M16.8064 33.5332C16.2941 34.4399 15.0919 34.6939 14.5684 34.7503C14.5332 34.1455 14.5904 32.8931 14.9922 32.3794C15.394 31.8657 16.5708 31.717 17.109 31.7069C17.2216 31.9379 17.3188 32.6266 16.8064 33.5332Z" fill="#07AA7C"/>
</svg>
