<svg width="64" height="64" viewBox="0 0 64 64" fill="none" xmlns="http://www.w3.org/2000/svg">
<rect x="2.41382" y="15" width="59.1724" height="33" rx="3.41379" fill="#DFF1E1"/>
<rect opacity="0.3" x="12.6555" y="15" width="14.7931" height="33" fill="#07AA7C"/>
<rect opacity="0.7" x="27.4485" y="15" width="23.8966" height="11.3793" fill="#07AA7C"/>
<rect opacity="0.7" x="27.4485" y="44.5862" width="23.8966" height="3.41379" fill="#07AA7C"/>
<path d="M41.5772 21.9753C41.622 21.906 41.7234 21.906 41.7683 21.9753L42.2328 22.6938C42.2481 22.7176 42.2718 22.7347 42.2991 22.742L43.126 22.9617C43.2058 22.983 43.2371 23.0794 43.185 23.1435L42.6452 23.8073C42.6274 23.8292 42.6184 23.857 42.6199 23.8853L42.6664 24.7396C42.6709 24.822 42.5888 24.8817 42.5118 24.8519L41.7137 24.5437C41.6873 24.5335 41.6581 24.5335 41.6317 24.5437L40.8336 24.8519C40.7566 24.8817 40.6745 24.822 40.679 24.7396L40.7255 23.8853C40.7271 23.857 40.718 23.8292 40.7002 23.8073L40.1604 23.1435C40.1083 23.0794 40.1397 22.983 40.2195 22.9617L41.0463 22.742C41.0737 22.7347 41.0973 22.7176 41.1127 22.6938L41.5772 21.9753Z" fill="#F5CA62"/>
<path d="M37.0254 18.5616C37.0702 18.4923 37.1717 18.4923 37.2165 18.5616L37.681 19.2801C37.6964 19.3039 37.72 19.3211 37.7473 19.3283L38.5742 19.548C38.654 19.5693 38.6854 19.6657 38.6333 19.7298L38.0935 20.3936C38.0756 20.4155 38.0666 20.4433 38.0681 20.4716L38.1147 21.3259C38.1192 21.4083 38.0371 21.468 37.9601 21.4382L37.162 21.13C37.1356 21.1198 37.1063 21.1198 37.08 21.13L36.2819 21.4382C36.2048 21.468 36.1228 21.4083 36.1272 21.3259L36.1738 20.4716C36.1753 20.4433 36.1663 20.4155 36.1484 20.3936L35.6087 19.7298C35.5566 19.6657 35.5879 19.5693 35.6677 19.548L36.4946 19.3283C36.5219 19.3211 36.5456 19.3039 36.5609 19.2801L37.0254 18.5616Z" fill="#F5CA62"/>
<path d="M31.3359 17.4237C31.3808 17.3543 31.4822 17.3543 31.5271 17.4237L31.9916 18.1422C32.0069 18.1659 32.0306 18.1831 32.0579 18.1904L32.8847 18.4101C32.9646 18.4313 32.9959 18.5278 32.9438 18.5919L32.404 19.2557C32.3862 19.2776 32.3772 19.3054 32.3787 19.3336L32.4252 20.1879C32.4297 20.2704 32.3476 20.33 32.2706 20.3003L31.4725 19.992C31.4461 19.9818 31.4169 19.9818 31.3905 19.992L30.5924 20.3003C30.5154 20.33 30.4333 20.2704 30.4378 20.1879L30.4843 19.3336C30.4859 19.3054 30.4768 19.2776 30.459 19.2557L29.9192 18.5919C29.8671 18.5278 29.8985 18.4313 29.9783 18.4101L30.8051 18.1904C30.8324 18.1831 30.8561 18.1659 30.8715 18.1422L31.3359 17.4237Z" fill="#F5CA62"/>
<path d="M25.646 18.5616C25.6908 18.4923 25.7923 18.4923 25.8371 18.5616L26.3016 19.2801C26.317 19.3039 26.3406 19.3211 26.368 19.3283L27.1948 19.548C27.2746 19.5693 27.306 19.6657 27.2539 19.7298L26.7141 20.3936C26.6962 20.4155 26.6872 20.4433 26.6887 20.4716L26.7353 21.3259C26.7398 21.4083 26.6577 21.468 26.5807 21.4382L25.7826 21.13C25.7562 21.1198 25.7269 21.1198 25.7006 21.13L24.9025 21.4382C24.8254 21.468 24.7434 21.4083 24.7478 21.3259L24.7944 20.4716C24.7959 20.4433 24.7869 20.4155 24.769 20.3936L24.2293 19.7298C24.1772 19.6657 24.2085 19.5693 24.2883 19.548L25.1152 19.3283C25.1425 19.3211 25.1662 19.3039 25.1815 19.2801L25.646 18.5616Z" fill="#F5CA62"/>
<path d="M21.0942 21.9753C21.1391 21.906 21.2405 21.906 21.2854 21.9753L21.7499 22.6938C21.7652 22.7176 21.7889 22.7347 21.8162 22.742L22.643 22.9617C22.7229 22.983 22.7542 23.0794 22.7021 23.1435L22.1623 23.8073C22.1445 23.8292 22.1355 23.857 22.137 23.8853L22.1835 24.7396C22.188 24.822 22.1059 24.8817 22.0289 24.8519L21.2308 24.5437C21.2044 24.5335 21.1752 24.5335 21.1488 24.5437L20.3507 24.8519C20.2737 24.8817 20.1916 24.822 20.1961 24.7396L20.2426 23.8853C20.2442 23.857 20.2351 23.8292 20.2173 23.8073L19.6775 23.1435C19.6254 23.0794 19.6568 22.983 19.7366 22.9617L20.5634 22.742C20.5908 22.7347 20.6144 22.7176 20.6298 22.6938L21.0942 21.9753Z" fill="#F5CA62"/>
<path d="M18.8186 26.5271C18.8634 26.4577 18.9649 26.4577 19.0097 26.5271L19.4742 27.2456C19.4896 27.2693 19.5132 27.2865 19.5406 27.2938L20.3674 27.5135C20.4472 27.5347 20.4786 27.6312 20.4265 27.6953L19.8867 28.3591C19.8688 28.381 19.8598 28.4088 19.8614 28.437L19.9079 29.2913C19.9124 29.3738 19.8303 29.4334 19.7533 29.4037L18.9552 29.0954C18.9288 29.0852 18.8996 29.0852 18.8732 29.0954L18.0751 29.4037C17.998 29.4334 17.916 29.3738 17.9205 29.2913L17.967 28.437C17.9685 28.4088 17.9595 28.381 17.9417 28.3591L17.4019 27.6953C17.3498 27.6312 17.3811 27.5347 17.4609 27.5135L18.2878 27.2938C18.3151 27.2865 18.3388 27.2693 18.3541 27.2456L18.8186 26.5271Z" fill="#F5CA62"/>
<path d="M17.6807 32.2168C17.7255 32.1474 17.827 32.1474 17.8718 32.2168L18.3363 32.9353C18.3516 32.959 18.3753 32.9762 18.4026 32.9835L19.2295 33.2032C19.3093 33.2244 19.3406 33.3209 19.2885 33.385L18.7488 34.0487C18.7309 34.0707 18.7219 34.0985 18.7234 34.1267L18.7699 34.981C18.7744 35.0635 18.6924 35.1231 18.6153 35.0934L17.8172 34.7851C17.7908 34.7749 17.7616 34.7749 17.7352 34.7851L16.9371 35.0934C16.8601 35.1231 16.778 35.0635 16.7825 34.981L16.829 34.1267C16.8306 34.0985 16.8216 34.0707 16.8037 34.0487L16.2639 33.385C16.2118 33.3209 16.2432 33.2244 16.323 33.2032L17.1498 32.9835C17.1772 32.9762 17.2008 32.959 17.2162 32.9353L17.6807 32.2168Z" fill="#F5CA62"/>
<path d="M19.9563 36.7685C20.0011 36.6992 20.1026 36.6992 20.1474 36.7685L20.6119 37.487C20.6273 37.5108 20.6509 37.528 20.6783 37.5352L21.5051 37.755C21.5849 37.7762 21.6163 37.8727 21.5642 37.9367L21.0244 38.6005C21.0065 38.6224 20.9975 38.6503 20.9991 38.6785L21.0456 39.5328C21.0501 39.6152 20.968 39.6749 20.891 39.6451L20.0929 39.3369C20.0665 39.3267 20.0373 39.3267 20.0109 39.3369L19.2128 39.6451C19.1357 39.6749 19.0537 39.6152 19.0582 39.5328L19.1047 38.6785C19.1062 38.6503 19.0972 38.6224 19.0793 38.6005L18.5396 37.9367C18.4875 37.8727 18.5188 37.7762 18.5986 37.755L19.4255 37.5352C19.4528 37.528 19.4765 37.5108 19.4918 37.487L19.9563 36.7685Z" fill="#F5CA62"/>
<path d="M23.3699 40.1824C23.4147 40.113 23.5162 40.113 23.561 40.1824L24.0255 40.9008C24.0408 40.9246 24.0645 40.9418 24.0918 40.949L24.9187 41.1688C24.9985 41.19 25.0298 41.2865 24.9777 41.3505L24.438 42.0143C24.4201 42.0363 24.4111 42.0641 24.4126 42.0923L24.4592 42.9466C24.4636 43.0291 24.3816 43.0887 24.3045 43.0589L23.5064 42.7507C23.4801 42.7405 23.4508 42.7405 23.4244 42.7507L22.6263 43.0589C22.5493 43.0887 22.4672 43.0291 22.4717 42.9466L22.5183 42.0923C22.5198 42.0641 22.5108 42.0363 22.4929 42.0143L21.9531 41.3505C21.901 41.2865 21.9324 41.19 22.0122 41.1688L22.8391 40.949C22.8664 40.9418 22.89 40.9246 22.9054 40.9008L23.3699 40.1824Z" fill="#F5CA62"/>
<rect x="27.4485" y="24.1034" width="23.8966" height="20.4828" fill="#048970"/>
<path d="M32.7498 20.9049C33.6222 20.9049 34.4422 21.0008 35.21 21.1928C35.9777 21.3847 36.7192 21.69 37.4346 22.1088L36.4662 23.9932C35.9777 23.7315 35.4019 23.4872 34.7389 23.2604C34.0933 23.0335 33.4302 22.9201 32.7498 22.9201C32.1042 22.9201 31.5109 23.0248 30.97 23.2342C30.4291 23.4261 29.9493 23.7315 29.5306 24.1502C29.1292 24.569 28.7803 25.0924 28.4837 25.7206C28.187 26.3487 27.9602 27.0815 27.8032 27.9191H34.1892V29.6203H27.62C27.6025 29.7948 27.5938 29.9605 27.5938 30.1175C27.5938 30.2746 27.5938 30.4403 27.5938 30.6148C27.5938 30.7719 27.5938 30.9463 27.5938 31.1383C27.5938 31.3128 27.6025 31.496 27.62 31.6879H33.4041V33.3891H27.8293C28.0387 34.3662 28.3615 35.2037 28.7977 35.9017C29.2339 36.5996 29.801 37.1318 30.4989 37.4982C31.1969 37.8646 32.0169 38.0478 32.9591 38.0478C33.6396 38.0478 34.3201 37.9693 35.0006 37.8122C35.6985 37.6378 36.3179 37.4371 36.8588 37.2103V39.2517C36.3179 39.4785 35.716 39.6705 35.0529 39.8275C34.4073 40.002 33.6658 40.0892 32.8283 40.0892C31.415 40.0892 30.211 39.8188 29.2165 39.2779C28.2219 38.737 27.4193 37.9693 26.8086 36.9747C26.1979 35.9627 25.7617 34.7675 25.5 33.3891H23.4062V31.6879H25.2906C25.2732 31.4785 25.2644 31.304 25.2644 31.1644C25.2644 31.0249 25.2644 30.8417 25.2644 30.6148C25.2644 30.4229 25.2644 30.2397 25.2644 30.0652C25.2819 29.8733 25.2906 29.725 25.2906 29.6203H23.4062V27.9191H25.4738C25.7007 26.4883 26.1194 25.2495 26.7301 24.2026C27.3408 23.1557 28.1521 22.3443 29.1641 21.7685C30.1761 21.1928 31.3713 20.9049 32.7498 20.9049Z" fill="white"/>
<rect x="4.69019" y="38.8966" width="12.5172" height="6.82759" rx="1.13793" fill="#48BF9A"/>
<rect x="53.718" y="20.1207" width="5.68966" height="0.568965" rx="0.284483" transform="rotate(-30 53.718 20.1207)" fill="#48BF9A"/>
<rect x="53.718" y="22.3203" width="5.68966" height="0.568965" rx="0.284483" transform="rotate(-30 53.718 22.3203)" fill="#48BF9A"/>
<rect x="53.718" y="24.5199" width="5.68966" height="0.568965" rx="0.284483" transform="rotate(-30 53.718 24.5199)" fill="#48BF9A"/>
<rect x="53.718" y="26.7196" width="5.68966" height="0.568965" rx="0.284483" transform="rotate(-30 53.718 26.7196)" fill="#48BF9A"/>
<rect x="53.718" y="28.9192" width="5.68966" height="0.568965" rx="0.284483" transform="rotate(-30 53.718 28.9192)" fill="#48BF9A"/>
<rect x="53.718" y="31.1188" width="5.68966" height="0.568965" rx="0.284483" transform="rotate(-30 53.718 31.1188)" fill="#48BF9A"/>
<rect x="53.718" y="33.3184" width="5.68966" height="0.568965" rx="0.284483" transform="rotate(-30 53.718 33.3184)" fill="#48BF9A"/>
<rect x="53.718" y="35.5182" width="5.68966" height="0.568965" rx="0.284483" transform="rotate(-30 53.718 35.5182)" fill="#48BF9A"/>
<rect x="53.718" y="37.7178" width="5.68966" height="0.568965" rx="0.284483" transform="rotate(-30 53.718 37.7178)" fill="#48BF9A"/>
<rect x="53.718" y="39.9174" width="5.68966" height="0.568965" rx="0.284483" transform="rotate(-30 53.718 39.9174)" fill="#48BF9A"/>
<rect x="53.718" y="42.1171" width="5.68966" height="0.568965" rx="0.284483" transform="rotate(-30 53.718 42.1171)" fill="#48BF9A"/>
<rect x="53.718" y="44.3168" width="5.68966" height="0.568965" rx="0.284483" transform="rotate(-30 53.718 44.3168)" fill="#48BF9A"/>
</svg>
