<svg width="64" height="64" viewBox="0 0 64 64" fill="none" xmlns="http://www.w3.org/2000/svg">
<path d="M42.3846 19.2309C42.2763 19.0122 42.1092 18.828 41.9021 18.6989C41.6949 18.5698 41.456 18.501 41.2119 18.5H15.0301C14.786 18.501 14.547 18.5698 14.3399 18.6989C14.1328 18.828 13.9657 19.0122 13.8573 19.2309C10.2955 26.4364 8.48462 33.7618 8.48462 40.9945C8.48462 48.2273 10.2955 55.5473 13.8573 62.7527C13.9657 62.9714 14.1328 63.1556 14.3399 63.2847C14.547 63.4138 14.786 63.4827 15.0301 63.4836H41.2119C41.456 63.4827 41.6949 63.4138 41.9021 63.2847C42.1092 63.1556 42.2763 62.9714 42.3846 62.7527C45.9519 55.5473 47.7574 48.2218 47.7574 40.9945C47.7574 33.7673 45.9519 26.4527 42.3846 19.2309Z" fill="#EBB23A"/>
<path d="M18.6296 18.5C17.89 22.2078 17.3709 25.9562 17.0751 29.7254L16.9605 31.1273L16.8787 32.5345C16.8242 33.4727 16.7587 34.4109 16.7532 35.3491C16.7478 36.2873 16.666 37.2254 16.6714 38.1636V40.9836C16.6714 41.9218 16.7151 42.86 16.7314 43.7982L16.7696 45.2055L16.8569 46.6127L17.0096 49.4327C17.1078 50.3654 17.1896 51.3036 17.266 52.2418L17.386 53.6491C17.4242 54.1182 17.5005 54.5818 17.5496 55.0509L17.8769 57.8654C18.0896 59.7418 18.4223 61.6018 18.6242 63.5C18.0787 61.6891 17.5332 59.8618 17.086 58.0073C16.6387 56.1527 16.2351 54.2927 15.9951 52.4C15.3981 48.6283 15.0754 44.8183 15.0296 41C15.0062 37.1724 15.2742 33.3487 15.8314 29.5618C16.3284 25.7778 17.2675 22.0652 18.6296 18.5Z" fill="#BE7300"/>
<path d="M24.7007 18.5C24.6079 22.2636 24.5861 26.0054 24.5588 29.7527V35.3709C24.5588 37.24 24.5679 39.1109 24.5861 40.9836C24.6043 42.8564 24.6225 44.7273 24.6407 46.5964L24.6898 52.2145C24.6898 54.0909 24.7389 55.9673 24.7334 57.8436C24.7279 59.72 24.7607 61.6018 24.7007 63.4836C24.3952 61.6236 24.1552 59.7582 23.9316 57.8927C23.7079 56.0273 23.5389 54.1454 23.3861 52.2691C23.1025 48.5163 22.9661 44.7582 22.9225 40.9945C22.9225 39.1127 22.9225 37.2309 22.9879 35.3491C23.0534 33.4673 23.1243 31.5854 23.2607 29.7036C23.492 25.9413 23.973 22.1985 24.7007 18.5Z" fill="#BE7300"/>
<path d="M31.3501 18.5C32.2099 22.1764 32.7753 25.9155 33.041 29.6818C33.2046 31.5636 33.2919 33.4509 33.3683 35.3327C33.4119 36.2764 33.4174 37.22 33.4228 38.1636C33.4283 39.1073 33.4555 40.0509 33.4228 40.9945C33.3737 44.7636 33.2046 48.5327 32.8774 52.2854C32.7301 54.1618 32.4792 56.0327 32.261 57.9036C32.0428 59.7745 31.7155 61.6345 31.3555 63.4836C31.3555 61.5964 31.4155 59.72 31.4592 57.8382L31.6065 52.2145C31.6065 50.3382 31.721 48.4673 31.7265 46.5909C31.7319 44.7145 31.7974 42.8491 31.8083 40.9782C31.8192 39.1073 31.8465 37.2364 31.8083 35.3654C31.7701 33.4945 31.7701 31.6236 31.7537 29.7473C31.6883 26.0055 31.5956 22.2582 31.3501 18.5Z" fill="#BE7300"/>
<path d="M37.4209 18.5C38.6947 22.1 39.6315 25.8104 40.219 29.5836C40.3663 30.5273 40.4972 31.4709 40.6227 32.42C40.7481 33.3691 40.8245 34.3182 40.9281 35.2673C41.0318 36.2164 41.0536 37.1764 41.1136 38.1309L41.1899 39.5655V41C41.1899 41.9545 41.1899 42.9145 41.1899 43.8691L41.0536 46.7382C41.0099 47.6982 40.8681 48.6473 40.7809 49.5964L40.6281 51.0254C40.579 51.5 40.4699 51.9691 40.399 52.4436L39.8972 55.2691C39.679 56.2018 39.439 57.1291 39.2045 58.0564L38.839 59.4364L38.3809 60.7945C38.0681 61.7 37.7463 62.5964 37.4154 63.4836C37.579 62.5455 37.7536 61.6073 37.9609 60.68L38.239 59.2945L38.4354 57.8873L38.8554 55.0945L39.1445 52.28C39.5044 48.5386 39.6519 44.7799 39.5863 41.0218V39.6091L39.5263 38.2018C39.4881 37.2636 39.4663 36.32 39.3954 35.3818C39.3245 34.4436 39.2918 33.5 39.2099 32.5618C39.1281 31.6236 39.0463 30.6855 38.9645 29.7473C38.5772 25.9945 38.0754 22.2473 37.4209 18.5Z" fill="#BE7300"/>
<path d="M11.1902 25.5637H45.0521C45.4048 25.8932 45.6653 26.3091 45.8079 26.7703C45.9504 27.2314 45.97 27.7218 45.8648 28.1928H10.3612C10.3612 28.1928 10.1539 26.0437 11.1902 25.5637Z" fill="#931A4E"/>
<path d="M11.1902 56.8182H45.0521C45.4043 56.4884 45.6645 56.0724 45.8071 55.6114C45.9496 55.1504 45.9695 54.6602 45.8648 54.1891H10.3612C10.3612 54.1891 10.1539 56.3327 11.1902 56.8182Z" fill="#931A4E"/>
<path d="M43.336 0.598509C43.336 0.691586 43.336 0.784664 43.336 0.877741C43.336 0.970818 43.336 1.23143 43.336 1.40828V1.72474C43.336 1.78059 43.336 1.92951 43.336 1.98536C43.336 2.04121 43.2615 1.98536 43.215 1.98536C43.1632 1.99254 43.114 2.01245 43.0717 2.04332C43.0295 2.07418 42.9956 2.11503 42.973 2.16221C42.9306 2.25221 42.9114 2.35141 42.9171 2.45075C42.9388 2.84942 42.9138 3.24926 42.8427 3.64213C42.829 3.72534 42.829 3.81024 42.8427 3.89344C42.8469 3.93663 42.8608 3.9783 42.8834 4.01537C42.9059 4.05243 42.9366 4.08393 42.973 4.10752C43.04 4.13045 43.1084 4.1491 43.1778 4.16337C43.3453 4.16337 43.4291 4.28437 43.4291 4.43329V11.6029H44.1644C45.2592 11.6328 47.4184 11.5768 48.5044 11.4354V4.45191C48.5024 4.41952 48.5071 4.38705 48.5183 4.35659C48.5295 4.32613 48.547 4.29836 48.5696 4.27506L48.6441 4.21921C48.6744 4.21152 48.7058 4.20838 48.7371 4.20991H48.8395C48.87 4.21822 48.9021 4.21822 48.9326 4.20991C48.9744 4.19201 49.0078 4.15867 49.0257 4.11683C49.0348 4.07701 49.0348 4.03564 49.0257 3.99583C49.0394 3.91262 49.0394 3.82773 49.0257 3.74452C48.9546 3.35164 48.9296 2.95181 48.9512 2.55313C48.957 2.4538 48.9378 2.3546 48.8954 2.26459C48.8971 2.24291 48.8971 2.22112 48.8954 2.19944C48.8609 2.15744 48.816 2.12532 48.7651 2.10636H48.6813H48.6161H48.5603C48.5484 2.06374 48.5484 2.01867 48.5603 1.97605C48.5643 1.93271 48.5643 1.88909 48.5603 1.84574C48.5603 1.74336 48.5603 1.64097 48.5603 1.52928C48.5603 1.41759 48.5603 1.17559 48.5603 0.998741C48.5603 0.821895 48.5603 0.812587 48.5603 0.71951C48.5649 0.682419 48.5649 0.644907 48.5603 0.607817C48.5646 0.589456 48.5646 0.570331 48.5603 0.551971V0.505432C48.536 0.498189 48.5101 0.498189 48.4858 0.505432H48.3834L43.5035 0.505432C43.4544 0.506131 43.4076 0.526204 43.3732 0.561278C43.3174 0.486816 43.336 0.486816 43.336 0.598509Z" fill="#931A4E"/>
<path d="M44.4743 6.23899V4.61945C44.4743 4.47052 44.3905 4.38675 44.223 4.34952C44.1536 4.33525 44.0852 4.3166 44.0182 4.29367C43.9818 4.27009 43.9512 4.23859 43.9286 4.20152C43.9061 4.16446 43.8922 4.12278 43.8879 4.0796C43.8742 3.99639 43.8742 3.9115 43.8879 3.82829C43.959 3.43541 43.984 3.03557 43.9624 2.6369C43.9763 2.53166 44.0181 2.43204 44.0834 2.34836C44.106 2.30118 44.1399 2.26033 44.1821 2.22947C44.2244 2.19861 44.2736 2.1787 44.3254 2.17151C44.3719 2.17151 44.4185 2.17151 44.4464 2.17151C44.4743 2.17151 44.4464 1.96674 44.4464 1.9109V1.58513C44.4464 1.40828 44.4464 1.23143 44.4464 1.05459C44.4464 0.877741 44.4464 0.868433 44.4464 0.775356C44.4464 0.682279 44.4464 0.617125 44.4464 0.561278C44.4808 0.526204 44.5276 0.506131 44.5767 0.505432H42.8082H42.6593C42.635 0.498189 42.6091 0.498189 42.5848 0.505432V0.55197C42.5848 0.55197 42.5848 0.55197 42.5848 0.607817C42.5848 0.663663 42.5848 0.682279 42.5848 0.71951C42.5848 0.812587 42.5848 0.905664 42.5848 0.998741C42.5848 1.09182 42.5848 1.35243 42.5848 1.52928V1.90159C42.5941 1.94767 42.5941 1.99513 42.5848 2.04121C42.5904 2.06257 42.5904 2.08499 42.5848 2.10636H42.529H42.4638H42.3801L42.2963 2.16221C42.2676 2.18392 42.2451 2.21281 42.2311 2.24598C42.1874 2.33542 42.1712 2.43585 42.1846 2.53452C42.1846 2.72998 42.1846 2.93475 42.1846 3.13021C42.1741 3.33031 42.1493 3.52939 42.1102 3.7259C42.1057 3.76922 42.1057 3.81289 42.1102 3.85621C42.1055 3.89641 42.1055 3.93701 42.1102 3.97721C42.1156 4.02073 42.1316 4.06226 42.1567 4.09821C42.1804 4.13329 42.2124 4.16204 42.2498 4.18198C42.2802 4.19029 42.3124 4.19029 42.3428 4.18198H42.4452C42.5041 4.19626 42.5585 4.22506 42.6035 4.26575C42.6085 4.29032 42.6085 4.31565 42.6035 4.34021C42.613 4.37367 42.613 4.40914 42.6035 4.4426V11.4726C42.6035 11.4726 43.3667 11.5657 44.465 11.6122L44.4743 6.23899Z" fill="#7A1047"/>
<path d="M47.2384 10.1482C47.1453 9.21746 47.1267 8.28669 47.1267 7.35592C47.1267 6.42514 47.1267 5.49437 47.2384 4.5636C47.3222 5.49437 47.3408 6.42514 47.3501 7.35592C47.3594 8.28669 47.3222 9.19884 47.2384 10.1482Z" fill="#DB3D63"/>
<path d="M48.4854 17.6222V10.6973C47.3994 10.8387 45.2402 10.8947 44.1454 10.8648H43.4101V17.6501C43.4101 17.6501 38.1977 20.5262 37.8254 23.998V60.8473C37.956 61.5236 38.2958 62.1418 38.7969 62.6145C39.298 63.0872 39.9349 63.3904 40.6178 63.4814H51.2871C51.9699 63.3904 52.6068 63.0872 53.1079 62.6145C53.609 62.1418 53.9488 61.5236 54.0794 60.8473V23.9701C53.6978 20.4983 48.4854 17.6222 48.4854 17.6222Z" fill="#014951"/>
<path d="M38.8617 60.8473V23.9701C39.2619 20.4983 44.4463 17.6222 44.4463 17.6222V10.8369C43.348 10.7903 42.5848 10.6973 42.5848 10.6973V17.6222C42.5848 17.6222 37.3817 20.4983 37.0001 23.9701V60.8473C37.0497 61.1738 37.1569 61.489 37.3166 61.778C37.3994 61.9352 37.496 62.0847 37.6051 62.2248C37.7298 62.387 37.8701 62.5367 38.024 62.6716C38.1079 62.7502 38.1982 62.8218 38.2939 62.8857C38.5 63.0308 38.7217 63.1526 38.9547 63.2487C39.2283 63.3596 39.512 63.4438 39.8017 63.5H41.6633C40.9762 63.4097 40.3353 63.1046 39.8321 62.6282C39.3289 62.1517 38.9893 61.5284 38.8617 60.8473Z" fill="#003945"/>
<path d="M51.4363 36.4238C51.5343 36.4261 51.6276 36.4661 51.6969 36.5354C51.7662 36.6048 51.8062 36.6981 51.8086 36.7961V53.4662C51.8062 53.5642 51.7662 53.6575 51.6969 53.7269C51.6276 53.7962 51.5343 53.8362 51.4363 53.8385C47.5177 54.1493 43.5806 54.1493 39.662 53.8385C39.5632 53.8385 39.4685 53.7993 39.3987 53.7295C39.3289 53.6597 39.2897 53.565 39.2897 53.4662V36.7961C39.2897 36.6973 39.3289 36.6026 39.3987 36.5328C39.4685 36.463 39.5632 36.4238 39.662 36.4238C43.5813 36.1309 47.517 36.1309 51.4363 36.4238Z" fill="#FFE4DC"/>
<path d="M47.1827 18.0873C47.0896 16.9332 47.0803 15.779 47.071 14.6249C47.0617 13.4707 47.071 12.3072 47.1827 11.1531C47.2757 12.3072 47.2757 13.4707 47.2944 14.6249C47.313 15.779 47.2757 16.9332 47.1827 18.0873Z" fill="#027168"/>
<path d="M52.7862 59.7395C52.7862 56.8541 52.7211 53.9594 52.7211 51.0741V42.3993C52.7211 39.5046 52.7211 36.6192 52.7211 33.7245V25.0497C52.6384 24.4619 52.4492 23.8941 52.1626 23.3743C51.8774 22.8473 51.534 22.354 51.1388 21.9037C50.3423 21.0064 49.4425 20.2066 48.4581 19.5209C49.461 20.1866 50.3798 20.971 51.1946 21.8571C51.6036 22.3037 51.9626 22.7937 52.265 23.3184C52.5645 23.8508 52.7603 24.4351 52.8421 25.0404V33.7152C52.8421 36.6099 52.8421 39.4952 52.8421 42.39V51.0647C52.8514 53.9594 52.8141 56.8541 52.7862 59.7395Z" fill="#027168"/>
</svg>
