<svg width="64" height="64" viewBox="0 0 64 64" fill="none" xmlns="http://www.w3.org/2000/svg">
<mask id="mask0_808_24326" style="mask-type:alpha" maskUnits="userSpaceOnUse" x="0" y="43" width="49" height="5">
<rect x="0.5" y="43.9015" width="48.4615" height="3.63462" fill="#D9D9D9"/>
</mask>
<g mask="url(#mask0_808_24326)">
<rect x="0.5" y="43.9015" width="48.4615" height="3.63462" fill="#D9D9D9"/>
<path d="M15.5265 46.1241C16.1946 46.1241 17.7712 45.7233 18.7332 45.7233C19.9357 45.7233 22.3407 46.525 24.3448 46.1241M14.7249 44.9216C17.9315 44.9216 17.5307 42.9175 20.7373 42.9175M20.7373 43.7191C20.7373 43.8528 21.2985 44.12 23.5432 44.12C26.349 44.12 28.3532 42.9175 30.3573 43.3183C31.9607 43.639 32.0943 43.9864 31.9607 44.12" stroke="black" stroke-width="0.25" stroke-linecap="round" stroke-linejoin="round"/>
<path d="M0.295166 46.1241H1.49766" stroke="black" stroke-width="0.25" stroke-linecap="round" stroke-linejoin="round"/>
<path d="M3.50171 45.7234H5.10504" stroke="black" stroke-width="0.25" stroke-linecap="round" stroke-linejoin="round"/>
<path d="M6.7085 45.7234H7.10933" stroke="black" stroke-width="0.25" stroke-linecap="round" stroke-linejoin="round"/>
<path d="M11.5181 45.7234H11.9189" stroke="black" stroke-width="0.25" stroke-linecap="round" stroke-linejoin="round"/>
<path d="M0.295166 47.3267C2.43294 47.0595 7.10932 46.525 8.71265 46.525C10.7168 46.525 13.9235 47.7275 17.1301 46.9259" stroke="black" stroke-width="0.25" stroke-linecap="round" stroke-linejoin="round"/>
<path d="M0.295166 44.5208C0.562388 44.5208 1.177 44.6009 1.49766 44.9216" stroke="black" stroke-width="0.25" stroke-linecap="round" stroke-linejoin="round"/>
<path d="M0.295166 43.7191C0.829609 43.7191 2.21916 43.7993 3.50183 44.1199C5.10516 44.5208 5.50599 44.9216 7.51015 44.9216C9.51431 44.9216 10.7168 44.1199 11.9193 44.1199C13.1218 44.1199 15.0198 43.9726 15.5268 43.7191C16.3285 43.3183 17.1301 42.5166 17.531 42.5166" stroke="black" stroke-width="0.25" stroke-linecap="round" stroke-linejoin="round"/>
<path d="M33.3292 47.3358C32.6611 47.3358 31.0845 46.935 30.1225 46.935C28.92 46.935 26.515 47.7366 24.5109 47.3358M34.1309 46.1333C30.9242 46.1333 31.325 44.1292 28.1184 44.1292M28.1184 44.9308C28.1184 45.0644 27.5572 45.3316 25.3125 45.3316C22.5067 45.3316 20.5026 44.1292 18.4984 44.53C16.8951 44.8506 16.7614 45.198 16.8951 45.3316" stroke="black" stroke-width="0.25" stroke-linecap="round" stroke-linejoin="round"/>
<path d="M48.5608 47.3357H47.3583" stroke="black" stroke-width="0.25" stroke-linecap="round" stroke-linejoin="round"/>
<path d="M46.9573 43.7281C46.5564 43.8618 45.5944 44.129 44.9531 44.129C44.3118 44.129 43.3498 44.129 42.949 44.129" stroke="black" stroke-width="0.25" stroke-linecap="round" stroke-linejoin="round"/>
<path d="M40.9448 44.1292H40.1432" stroke="black" stroke-width="0.25" stroke-linecap="round" stroke-linejoin="round"/>
<path d="M45.3542 46.9349H43.7509" stroke="black" stroke-width="0.25" stroke-linecap="round" stroke-linejoin="round"/>
<path d="M38.5398 44.1292H38.139" stroke="black" stroke-width="0.25" stroke-linecap="round" stroke-linejoin="round"/>
<path d="M42.1475 46.9349H41.7466" stroke="black" stroke-width="0.25" stroke-linecap="round" stroke-linejoin="round"/>
<path d="M37.3374 46.9349H36.9366" stroke="black" stroke-width="0.25" stroke-linecap="round" stroke-linejoin="round"/>
<path d="M48.5608 45.7323C48.2936 45.7323 47.679 45.8125 47.3583 46.1331" stroke="black" stroke-width="0.25" stroke-linecap="round" stroke-linejoin="round"/>
<path d="M48.5608 44.9306C48.0263 44.9306 46.6368 45.0108 45.3541 45.3315C43.7508 45.7323 43.35 46.1331 41.3458 46.1331C39.3416 46.1331 38.1391 45.3315 36.9366 45.3315C35.7342 45.3315 33.8362 45.1842 33.3292 44.9306C32.5275 44.5298 31.7258 43.7281 31.325 43.7281" stroke="black" stroke-width="0.25" stroke-linecap="round" stroke-linejoin="round"/>
</g>
<mask id="mask1_808_24326" style="mask-type:alpha" maskUnits="userSpaceOnUse" x="0" y="43" width="49" height="10">
<rect x="0.5" y="43.6899" width="48.4615" height="9" fill="#D9D9D9"/>
</mask>
<g mask="url(#mask1_808_24326)">
<rect x="0.5" y="43.6899" width="48.4615" height="9" fill="#98634E"/>
<rect x="2.5" y="45.6899" width="28.46" height="1" rx="0.5" fill="#80503E"/>
<rect x="10.5" y="48.6899" width="8.46" height="1" rx="0.5" fill="#80503E"/>
<rect x="37.5" y="48.6899" width="8.46" height="1" rx="0.5" fill="#80503E"/>
<rect x="20.5" y="48.6899" width="3" height="1" rx="0.5" fill="#80503E"/>
<rect x="44.5" y="50.6899" width="3" height="1" rx="0.5" fill="#80503E"/>
</g>
<path d="M0.5 43.6899H63.5C63.5 42.5854 62.6046 41.6899 61.5 41.6899H2.5C1.39543 41.6899 0.5 42.5854 0.5 43.6899Z" fill="#5E3F33"/>
<mask id="mask2_808_24326" style="mask-type:alpha" maskUnits="userSpaceOnUse" x="48" y="43" width="16" height="10">
<rect width="14.5385" height="9" transform="matrix(-1 0 0 1 63.5 43.6899)" fill="#D9D9D9"/>
</mask>
<g mask="url(#mask2_808_24326)">
<rect width="14.5385" height="9" transform="matrix(-1 0 0 1 63.5 43.6899)" fill="#80503E"/>
</g>
<path d="M7.41724 30.3532V39.4178C7.41724 40.6913 9.11532 41.7401 11.113 41.7401H51.0672C53.0899 41.7401 54.763 40.7163 54.763 39.4428L54.5882 29.4542H8.89061C7.9417 29.654 7.41724 29.9286 7.41724 30.3532Z" fill="#FFF7D7"/>
<path opacity="0.8" d="M49.7707 39.4427L49.594 29.2516H54.5883L54.74 39.4427C54.74 40.7163 53.0669 41.7401 51.0692 41.7401H11.2399H11.0401H46C48.0976 41.7401 49.7707 40.7163 49.7707 39.4427Z" fill="#6A3400"/>
<path d="M15.1582 35.547C16.0408 35.547 16.7564 35.1893 16.7564 34.748C16.7564 34.3066 16.0408 33.9489 15.1582 33.9489C14.2755 33.9489 13.5601 34.3066 13.5601 34.748C13.5601 35.1893 14.2755 35.547 15.1582 35.547Z" fill="#FFE088"/>
<path d="M38.082 35.1226C38.4957 35.1226 38.8311 34.7872 38.8311 34.3735C38.8311 33.9597 38.4957 33.6243 38.082 33.6243C37.6682 33.6243 37.3328 33.9597 37.3328 34.3735C37.3328 34.7872 37.6682 35.1226 38.082 35.1226Z" fill="#FFE088"/>
<path d="M24.972 40.6663C26.0615 40.6663 26.9447 40.3645 26.9447 39.9921C26.9447 39.6198 26.0615 39.3179 24.972 39.3179C23.8825 39.3179 22.9993 39.6198 22.9993 39.9921C22.9993 40.3645 23.8825 40.6663 24.972 40.6663Z" fill="#FFE088"/>
<path d="M44 37.4199C44 37.8444 44.1997 38.4438 44.6492 38.4188C44.7756 38.4085 44.8959 38.36 44.994 38.2797C45.0922 38.1994 45.1635 38.0911 45.1986 37.9693C45.2491 37.7305 45.2491 37.4839 45.1986 37.2452C45.0475 37.11 44.8519 37.0353 44.6492 37.0353C44.4465 37.0353 44.2509 37.11 44.0998 37.2452" fill="#FFE088"/>
<path d="M28.118 33.0251C28.0778 33.1444 28.0705 33.2723 28.0968 33.3954C28.1232 33.5184 28.1823 33.6321 28.2678 33.7243C28.4104 33.8145 28.5738 33.8661 28.7423 33.8742C28.967 33.8742 29.2917 33.8741 29.3167 33.5994C29.3386 33.557 29.35 33.5099 29.35 33.4621C29.35 33.4143 29.3386 33.3673 29.3167 33.3248C29.1837 33.1635 29.0065 33.0444 28.8069 32.9823C28.6073 32.9202 28.3939 32.9177 28.1929 32.9752" fill="#FFE088"/>
<path d="M54.6 29.404C54.6 24.0851 47.771 20.1147 39.2308 19.79C38.61 19.7991 37.9913 19.866 37.3829 19.9899L8.09155 29.6538L54.6 29.404Z" fill="#804400"/>
<path d="M21.9692 24.3653C22.3264 24.3517 22.6917 24.3278 23.0632 24.2939M39.4974 15.9728C39.1261 17.0099 38.3058 18.0176 37.1821 18.9537M37.1821 18.9537C37.3657 18.3268 37.7145 16.8614 37.6412 16.0149M37.1821 18.9537C37.7226 18.7714 39.0983 18.1925 40.2776 17.335M37.1821 18.9537C36.9841 19.1187 36.7766 19.2814 36.5606 19.4417M36.5606 19.4417C37.3235 19.2731 39.1161 18.9284 40.1835 18.8984M36.5606 19.4417C35.9317 19.9083 35.2297 20.3541 34.4742 20.7736M34.4742 20.7736C35.6483 20.7533 38.2748 20.718 39.3874 20.7393M34.4742 20.7736C34.2638 20.8904 34.0493 21.0051 33.831 21.1177M33.831 21.1177C34.4457 20.1844 35.7153 18.0773 35.8766 17.1151M33.831 21.1177C33.259 21.4128 32.6614 21.693 32.0458 21.956M32.0458 21.956C32.8234 21.8836 34.747 21.8465 36.2212 22.2779M32.0458 21.956C32.583 21.4121 33.6531 20.0093 33.6359 18.749M32.0458 21.956C31.3855 22.2382 30.7046 22.5006 30.0125 22.7407M28.1091 23.3364C28.8467 22.7812 30.5731 21.3354 31.578 19.9938M28.1091 23.3364C28.7481 23.1576 29.3849 22.9584 30.0125 22.7407M28.1091 23.3364C27.5347 23.4971 26.9585 23.6413 26.3856 23.7675M30.0125 22.7407C30.6276 22.8058 32.0645 23.0271 32.891 23.3918M26.3856 23.7675C27.1992 23.7359 28.9419 23.6846 29.4046 23.7322M26.3856 23.7675C25.9653 23.8601 25.5467 23.943 25.1319 24.0157M25.1319 24.0157C25.8379 24.0609 27.6964 24.3954 29.4827 25.3716M25.1319 24.0157C24.4281 24.1389 23.7353 24.2326 23.0632 24.2939M23.0632 24.2939C23.7244 24.2485 25.3851 24.5654 26.7389 26.1963" stroke="#048970" stroke-width="0.824914" stroke-linecap="round" stroke-linejoin="round"/>
</svg>
