<svg width="64" height="64" viewBox="0 0 64 64" fill="none" xmlns="http://www.w3.org/2000/svg">
<path d="M22.9563 2.09261C22.9563 2.18011 22.9563 2.26761 22.9563 2.35511C22.9563 2.44261 22.9563 2.68761 22.9563 2.85386V3.15136C22.9563 3.20386 22.9563 3.34386 22.9563 3.39636C22.9563 3.44886 22.8863 3.39636 22.8426 3.39636C22.7939 3.40311 22.7476 3.42183 22.7079 3.45084C22.6682 3.47985 22.6363 3.51825 22.6151 3.56261C22.5752 3.64722 22.5572 3.74047 22.5626 3.83386C22.5829 4.20864 22.5594 4.58452 22.4926 4.95386C22.4797 5.03208 22.4797 5.11188 22.4926 5.19011C22.4966 5.2307 22.5096 5.26988 22.5308 5.30473C22.552 5.33957 22.5808 5.36918 22.6151 5.39136C22.6781 5.41291 22.7424 5.43044 22.8076 5.44386C22.9651 5.44386 23.0438 5.55761 23.0438 5.69761V12.4376H23.7351C24.7643 12.4657 26.7941 12.413 27.8151 12.2801V5.71511C27.8131 5.68466 27.8176 5.65413 27.8281 5.6255C27.8387 5.59687 27.8551 5.57076 27.8763 5.54886L27.9463 5.49636C27.9749 5.48912 28.0044 5.48617 28.0338 5.48761H28.1301C28.1587 5.49542 28.1889 5.49542 28.2176 5.48761C28.2569 5.47079 28.2883 5.43945 28.3051 5.40011C28.3137 5.36268 28.3137 5.32378 28.3051 5.28636C28.318 5.20813 28.318 5.12833 28.3051 5.05011C28.2382 4.68077 28.2147 4.30489 28.2351 3.93011C28.2405 3.83672 28.2225 3.74347 28.1826 3.65886C28.1842 3.63847 28.1842 3.61799 28.1826 3.59761C28.1502 3.55812 28.1079 3.52793 28.0601 3.51011H27.9813H27.9201H27.8676C27.8564 3.47004 27.8564 3.42767 27.8676 3.38761C27.8714 3.34686 27.8714 3.30585 27.8676 3.26511C27.8676 3.16886 27.8676 3.07261 27.8676 2.96761C27.8676 2.86261 27.8676 2.63511 27.8676 2.46886C27.8676 2.30261 27.8676 2.29386 27.8676 2.20636C27.8719 2.17149 27.8719 2.13622 27.8676 2.10136C27.8717 2.0841 27.8717 2.06612 27.8676 2.04886V2.00511C27.8447 1.9983 27.8204 1.9983 27.7976 2.00511H27.7013L23.1138 2.00511C23.0677 2.00576 23.0236 2.02463 22.9913 2.05761C22.9388 1.98761 22.9563 1.98761 22.9563 2.09261Z" fill="#931A4E"/>
<path d="M24.0265 7.39511V5.87261C24.0265 5.73261 23.9478 5.65386 23.7903 5.61886C23.7251 5.60544 23.6608 5.58791 23.5978 5.56636C23.5635 5.54418 23.5348 5.51457 23.5135 5.47973C23.4923 5.44488 23.4793 5.4057 23.4753 5.36511C23.4624 5.28688 23.4624 5.20708 23.4753 5.12886C23.5421 4.75952 23.5656 4.38364 23.5453 4.00886C23.5584 3.90992 23.5976 3.81627 23.659 3.73761C23.6803 3.69325 23.7122 3.65485 23.7519 3.62584C23.7916 3.59683 23.8378 3.57811 23.8865 3.57136C23.9303 3.57136 23.974 3.57136 24.0003 3.57136C24.0265 3.57136 24.0003 3.37886 24.0003 3.32636V3.02011C24.0003 2.85386 24.0003 2.68761 24.0003 2.52136C24.0003 2.35511 24.0003 2.34636 24.0003 2.25886C24.0003 2.17136 24.0003 2.11011 24.0003 2.05761C24.0326 2.02463 24.0766 2.00576 24.1228 2.00511H22.4603H22.3203C22.2974 1.9983 22.2731 1.9983 22.2503 2.00511V2.04886C22.2503 2.04886 22.2503 2.04886 22.2503 2.10136C22.2503 2.15386 22.2503 2.17136 22.2503 2.20636C22.2503 2.29386 22.2503 2.38136 22.2503 2.46886C22.2503 2.55636 22.2503 2.80136 22.2503 2.96761V3.31761C22.259 3.36092 22.259 3.40554 22.2503 3.44886C22.2555 3.46894 22.2555 3.49002 22.2503 3.51011H22.1978H22.1365H22.0578L21.979 3.56261C21.9521 3.58302 21.9309 3.61018 21.9178 3.64136C21.8767 3.72544 21.8614 3.81985 21.874 3.91261C21.874 4.09636 21.874 4.28886 21.874 4.47261C21.8642 4.66071 21.8408 4.84786 21.804 5.03261C21.7998 5.07333 21.7998 5.11438 21.804 5.15511C21.7997 5.1929 21.7997 5.23106 21.804 5.26886C21.8092 5.30976 21.8242 5.34881 21.8478 5.38261C21.8701 5.41558 21.9001 5.44261 21.9353 5.46136C21.9639 5.46917 21.9941 5.46917 22.0228 5.46136H22.119C22.1744 5.47478 22.2256 5.50185 22.2678 5.54011C22.2725 5.5632 22.2725 5.58701 22.2678 5.61011C22.2768 5.64156 22.2768 5.6749 22.2678 5.70636V12.3151C22.2678 12.3151 22.9853 12.4026 24.0178 12.4464L24.0265 7.39511Z" fill="#7A1047"/>
<path d="M26.625 11.0701C26.5375 10.1951 26.52 9.32007 26.52 8.44507C26.52 7.57007 26.52 6.69507 26.625 5.82007C26.7038 6.69507 26.7213 7.57007 26.73 8.44507C26.7388 9.32007 26.7038 10.1776 26.625 11.0701Z" fill="#DB3D63"/>
<path d="M27.7971 18.0962V11.5862C26.7762 11.7191 24.7463 11.7718 23.7171 11.7437H23.0259V18.1224C23.0259 18.1224 18.1259 20.8262 17.7759 24.0899V58.7312C17.8986 59.367 18.2181 59.9482 18.6891 60.3925C19.1602 60.8369 19.759 61.1219 20.4009 61.2074H30.4309C31.0728 61.1219 31.6716 60.8369 32.1426 60.3925C32.6137 59.9482 32.9331 59.367 33.0559 58.7312V24.0637C32.6971 20.7999 27.7971 18.0962 27.7971 18.0962Z" fill="#014951"/>
<path d="M18.75 58.7312V24.0637C19.1263 20.7999 24 18.0962 24 18.0962V11.7174C22.9675 11.6737 22.25 11.5862 22.25 11.5862V18.0962C22.25 18.0962 17.3587 20.7999 17 24.0637V58.7312C17.0466 59.0382 17.1474 59.3344 17.2975 59.6062C17.3754 59.7539 17.4661 59.8944 17.5688 60.0262C17.686 60.1787 17.8179 60.3194 17.9625 60.4462C18.0414 60.5201 18.1263 60.5874 18.2162 60.6474C18.41 60.7839 18.6184 60.8983 18.8375 60.9887C19.0947 61.093 19.3613 61.1721 19.6338 61.2249H21.3838C20.7379 61.1401 20.1353 60.8532 19.6623 60.4054C19.1893 59.9575 18.8699 59.3715 18.75 58.7312Z" fill="#003945"/>
<path d="M30.5711 35.7712C30.6632 35.7734 30.751 35.811 30.8161 35.8762C30.8813 35.9413 30.9189 36.0291 30.9211 36.1212V51.7925C30.9189 51.8846 30.8813 51.9723 30.8161 52.0375C30.751 52.1026 30.6632 52.1402 30.5711 52.1425C26.8873 52.4346 23.1861 52.4346 19.5023 52.1425C19.4095 52.1425 19.3205 52.1056 19.2549 52.0399C19.1892 51.9743 19.1523 51.8853 19.1523 51.7925V36.1212C19.1523 36.0284 19.1892 35.9394 19.2549 35.8737C19.3205 35.8081 19.4095 35.7712 19.5023 35.7712C23.1868 35.4959 26.8867 35.4959 30.5711 35.7712Z" fill="#FFE4DC"/>
<path d="M26.5724 18.5335C26.4849 17.4485 26.4762 16.3635 26.4674 15.2785C26.4587 14.1935 26.4674 13.0998 26.5724 12.0148C26.6599 13.0998 26.6599 14.1935 26.6774 15.2785C26.6949 16.3635 26.6599 17.4485 26.5724 18.5335Z" fill="#027168"/>
<path d="M31.8402 57.6899C31.8402 54.9774 31.779 52.2561 31.779 49.5436V41.3886C31.779 38.6674 31.779 35.9549 31.779 33.2336V25.0786C31.7013 24.526 31.5234 23.9923 31.254 23.5036C30.9859 23.0082 30.6631 22.5445 30.2915 22.1211C29.5428 21.2777 28.6969 20.5258 27.7715 19.8811C28.7143 20.5069 29.578 21.2444 30.344 22.0774C30.7285 22.4972 31.0659 22.9579 31.3502 23.4511C31.6318 23.9515 31.8159 24.5008 31.8927 25.0699V33.2249C31.8927 35.9461 31.8927 38.6586 31.8927 41.3799V49.5349C31.9015 52.2561 31.8665 54.9774 31.8402 57.6899Z" fill="#027168"/>
<path d="M40.0927 63.0625C43.1179 63.0625 45.5702 62.3848 45.5702 61.5488C45.5702 60.7128 43.1179 60.035 40.0927 60.035C37.0676 60.035 34.6152 60.7128 34.6152 61.5488C34.6152 62.3848 37.0676 63.0625 40.0927 63.0625Z" fill="#E2E6F5"/>
<path d="M42.044 61.2513C41.9081 61.2888 41.7658 61.2973 41.6264 61.2762C41.487 61.2552 41.3536 61.2051 41.2348 61.1292C41.116 61.0533 41.0145 60.9533 40.9368 60.8357C40.8592 60.718 40.8071 60.5854 40.784 60.4463C40.2765 57.7513 40.679 50.4976 40.679 50.4976C40.8277 48.3276 43.0415 46.6476 43.0415 46.6476C44.35 45.5999 45.3782 44.244 46.034 42.7013C47.259 39.4288 45.019 29.2176 45.019 29.2176C43.4033 28.9391 41.7672 28.7957 40.1277 28.7888C38.4883 28.7963 36.8522 28.9397 35.2365 29.2176C35.2365 29.2176 32.9965 39.4288 34.2302 42.7013C34.8799 44.2451 35.9057 45.6017 37.214 46.6476C37.214 46.6476 39.419 48.3276 39.5677 50.4976C39.5677 50.4976 39.9702 57.7513 39.4627 60.4463C39.4402 60.5883 39.3874 60.7239 39.3081 60.8438C39.2288 60.9637 39.1246 61.0652 39.0027 61.1415C38.8809 61.2178 38.744 61.267 38.6015 61.286C38.459 61.3049 38.314 61.2931 38.1765 61.2513" fill="#E2E6F5"/>
<path d="M45.8675 42.1939C46.0926 41.4895 46.2077 40.7546 46.2088 40.0151H34.1688C34.1655 40.7549 34.2807 41.4905 34.51 42.1939C34.6965 42.6559 34.9281 43.0985 35.2013 43.5151C35.4866 43.9694 35.8085 44.3996 36.1638 44.8014C37.1381 45.9829 38.3252 46.9712 39.6638 47.7151C39.796 47.7967 39.9462 47.8448 40.1013 47.8551C40.2546 47.8485 40.4043 47.8066 40.5388 47.7326C41.9116 46.9981 43.1392 46.0196 44.1613 44.8451C44.8831 44.0699 45.4609 43.1721 45.8675 42.1939Z" fill="#7A1047"/>
<path d="M40.1889 40.645C43.5137 40.645 46.2089 40.363 46.2089 40.015C46.2089 39.6671 43.5137 39.385 40.1889 39.385C36.8642 39.385 34.1689 39.6671 34.1689 40.015C34.1689 40.363 36.8642 40.645 40.1889 40.645Z" fill="#B72A59"/>
<path d="M36.0853 30.6965C35.8665 31.974 35.6565 33.2428 35.464 34.5203C35.2715 35.7978 35.1403 37.084 35.0878 38.3703C35.0485 39.0113 35.0485 39.6542 35.0878 40.2953C35.0896 40.9315 35.2144 41.5614 35.4553 42.1503C35.9911 43.3235 36.7764 44.3657 37.7565 45.204C36.7082 44.4257 35.8718 43.3968 35.324 42.2115C35.0629 41.6086 34.9203 40.9609 34.904 40.304C34.8647 39.6571 34.8647 39.0084 34.904 38.3615C34.9828 37.0665 35.1578 35.7365 35.359 34.5028C35.5603 33.269 35.779 32.0003 36.0853 30.6965Z" fill="#E2E6F5"/>
<path d="M40.7312 62.3364C40.2413 62.4033 39.7465 62.4268 39.2525 62.4064C38.755 62.3914 38.2612 62.3149 37.7825 62.1789C37.5316 62.117 37.2962 62.0037 37.0912 61.8464C37.026 61.8027 36.9737 61.7423 36.9398 61.6715C36.9059 61.6007 36.8917 61.5221 36.8987 61.4439C36.9165 61.3731 36.949 61.3068 36.9943 61.2495C37.0395 61.1922 37.0964 61.1451 37.1612 61.1114C37.605 60.8805 38.096 60.7548 38.5962 60.7439C38.1245 60.8362 37.6718 61.0078 37.2575 61.2514C37.0562 61.3914 37.0212 61.5576 37.2575 61.6976C37.4503 61.8256 37.6632 61.9203 37.8875 61.9776C38.8179 62.2091 39.7724 62.3296 40.7312 62.3364Z" fill="white"/>
<path d="M42.289 60.8751C42.5206 60.8857 42.7473 60.9453 42.954 61.0501C43.0749 61.0969 43.1786 61.1793 43.2515 61.2864C43.2964 61.3488 43.3205 61.4238 43.3205 61.5007C43.3205 61.5777 43.2964 61.6526 43.2515 61.7151C43.0836 61.8924 42.8678 62.017 42.6303 62.0739C42.4111 62.1364 42.1845 62.1688 41.9565 62.1701L42.569 61.9164C42.7629 61.8489 42.9372 61.7347 43.0765 61.5839C43.199 61.4701 43.0765 61.3126 42.9015 61.1901C42.7075 61.0664 42.5025 60.961 42.289 60.8751Z" fill="white"/>
<path d="M34.1951 42.7013C34.9292 44.3216 36.0572 45.7324 37.4763 46.805C38.1603 47.3916 38.7325 48.0971 39.1651 48.8875C39.3718 49.2931 39.5191 49.7263 39.6026 50.1738C39.6726 50.6288 39.6638 51.0488 39.6988 51.5125C39.7601 53.2625 39.7951 55.065 39.7601 56.8413C39.7601 57.7163 39.7076 58.5913 39.6113 59.4663C39.6113 59.685 39.5588 59.9038 39.5238 60.1313C39.5038 60.3563 39.4352 60.5742 39.3226 60.77C39.203 60.9624 39.0231 61.1096 38.811 61.1888C38.5988 61.268 38.3664 61.2746 38.1501 61.2075C38.363 61.2661 38.5894 61.2523 38.7936 61.1684C38.9979 61.0845 39.1686 60.9351 39.2788 60.7438C39.375 60.5472 39.4287 60.3325 39.4363 60.1138C39.4363 59.895 39.4888 59.6763 39.5063 59.4575C39.5851 58.5825 39.6026 57.7075 39.6113 56.8325C39.6113 55.0825 39.6113 53.3325 39.4801 51.5125C39.4761 51.074 39.4499 50.6359 39.4013 50.2C39.3395 49.7759 39.2157 49.3632 39.0338 48.975C38.6204 48.1792 38.0626 47.4671 37.3888 46.875C35.9657 45.7989 34.8617 44.3563 34.1951 42.7013Z" fill="#C7CEEC"/>
<path d="M42.0438 61.2513C41.8312 61.3039 41.609 61.3039 41.3963 61.2513C41.1699 61.1935 40.9732 61.053 40.8451 60.8576C40.7198 60.6696 40.6446 60.4527 40.6263 60.2276C40.6263 60.0088 40.5563 59.7988 40.5301 59.5801C40.4558 58.7242 40.4558 57.8635 40.5301 57.0076C40.6351 57.8826 40.6701 58.7576 40.7663 59.5626C40.7703 59.9762 40.8504 60.3855 41.0026 60.7701C41.1082 60.9451 41.2639 61.0844 41.4495 61.1702C41.6351 61.256 41.8421 61.2842 42.0438 61.2513Z" fill="#E2E6F5"/>
<path d="M44.9838 29.2439C44.1891 29.4869 43.3647 29.6194 42.5338 29.6376C41.7113 29.6989 40.8888 29.7164 40.0751 29.7251C39.2613 29.7339 38.4301 29.7251 37.6076 29.6376C36.7856 29.6163 35.9703 29.4838 35.1838 29.2439C35.5848 29.3173 35.9937 29.3379 36.4001 29.3051H43.7501C44.1622 29.3402 44.5772 29.3196 44.9838 29.2439Z" fill="#F0F3FC"/>
</svg>
