<svg width="64" height="64" viewBox="0 0 64 64" fill="none" xmlns="http://www.w3.org/2000/svg">
<path d="M33.1077 23.9926C29.4652 24.1703 22.5253 21.2205 23.9056 8C34.488 11.8382 34.4497 20.261 33.1077 23.9926Z" fill="#0ACB81"/>
<path d="M33.898 28.1024C32.5886 24.5953 31.5626 17.4023 37.9335 16.687C39.7927 27.5529 36.0178 28.8247 33.898 28.1024Z" fill="#027168"/>
<path d="M34.9157 27.9431C34.1538 25.615 34.8555 20.5903 43.7583 19.116C43.1203 26.6599 37.5974 28.144 34.9157 27.9431Z" fill="#07AA7C"/>
<path d="M34.8803 28.9125C34.7163 25.7435 32.0395 19.9244 22.6447 21.9994C26.2521 30.9166 32.3049 30.3236 34.8803 28.9125Z" fill="#027168"/>
<path d="M35.879 32.2525C34.7941 28.6125 30.1115 22.5702 20.0608 27.5215C26.6763 36.9142 33.3628 34.5891 35.879 32.2525Z" fill="#0ACB81"/>
<path d="M41.1203 34.7685C41.4888 32.5588 43.5871 28.6313 49.0329 30.5985C46.1134 36.6441 42.5414 35.8975 41.1203 34.7685Z" fill="#0ACB81"/>
<path d="M40.9833 35.1674C42.8825 33.9794 47.2146 32.949 49.3491 38.3314C42.8864 40.15 41.0791 36.9798 40.9833 35.1674Z" fill="#07AA7C"/>
<path d="M37.4796 51.0899C37.4932 48.8497 38.9426 44.6393 44.6313 45.7186C42.7067 52.1505 39.0616 51.9794 37.4796 51.0899Z" fill="#027168"/>
<path d="M30.866 42.4639C28.4522 41.582 24.4188 38.4948 27.5957 33.2009C33.8595 37.6263 32.3858 41.2202 30.866 42.4639Z" fill="#0ACB81"/>
<path d="M27.4369 40.4306C24.4508 42.1326 17.6128 43.1629 14.1498 33.6676C24.3464 31.6527 27.2565 37.3368 27.4369 40.4306Z" fill="#027168"/>
<path d="M25.3876 39.973C24.858 42.1496 22.477 45.9126 17.1903 43.551C20.5457 37.7359 24.0532 38.7427 25.3876 39.973Z" fill="#07AA7C"/>
<path d="M32.3652 44.0474C31.7465 46.6744 28.5598 51.1172 20.7623 47.8724C25.2187 40.9849 30.3544 42.4526 32.3652 44.0474Z" fill="#0ACB81"/>
<path d="M26.7266 12.5C29.9368 18.2326 32.5161 22.1775 34.4162 28M37.9215 55.5C37.8121 48.1737 37.8405 47.1073 37.4016 43M34.878 29.5C35.6609 27.5 37.7266 23.3 39.7266 22.5M34.878 29.5C34.7288 28.9855 34.5749 28.4862 34.4162 28M34.878 29.5C35.1518 30.4443 35.4095 31.4399 35.651 32.5M34.4162 28C32.353 26.6667 27.6266 23.9 25.2266 23.5M35.651 32.5C32.8428 30.8333 26.5266 27.7 23.7266 28.5M35.651 32.5C35.7255 32.8271 35.7985 33.1603 35.8699 33.5C36.5036 36.5147 37.0154 39.386 37.4016 43M37.8313 49.7058C37.7684 48.0406 36.5895 45.4663 33.2266 43.4006M19.7266 37C22.2333 37.8677 24.5774 38.8497 26.7266 39.8731M26.7266 39.8731C25.2266 40.0821 21.9266 40.7 20.7266 41.5M26.7266 39.8731C28.1911 40.5705 29.5652 41.2872 30.8386 42M33.2266 43.4006C31.0599 43.6004 26.5266 44.3 25.7266 45.5M33.2266 43.4006C32.4764 42.9398 31.6794 42.4707 30.8386 42M30.8386 42C30.3012 40.8333 29.2266 38.3 29.2266 37.5M37.4016 43C37.5495 41.1165 38.2116 38.1905 39.7266 35.8271M45.7266 32C42.9554 32.1847 41.0268 33.7987 39.7266 35.8271M39.7266 35.8271C40.3932 35.2695 42.3266 34.4888 44.7266 35.8271" stroke="#005C55" stroke-linecap="round"/>
</svg>
