<svg width="64" height="64" viewBox="0 0 64 64" fill="none" xmlns="http://www.w3.org/2000/svg">
<g clip-path="url(#clip0_808_24312)">
<ellipse cx="31.2208" cy="40.0539" rx="27.5167" ry="3.70417" fill="white"/>
<path fill-rule="evenodd" clip-rule="evenodd" d="M58.3917 40.529C61.623 39.7831 63.5 38.8931 63.5 37.9373C63.5 35.307 49.285 33.1748 31.75 33.1748C14.215 33.1748 0 35.307 0 37.9373C0 38.7342 1.30468 39.4853 3.6111 40.1453C6.83098 38.5685 17.7353 37.4081 30.6917 37.4081C44.6782 37.4081 56.2735 38.7603 58.3917 40.529Z" fill="#97B9D6"/>
<path d="M6.45139 22.1485C6.83227 23.2644 6.38377 24.4992 6.24095 25.6506C6.12001 26.8727 6.36154 28.1027 6.93539 29.1871C7.50923 30.2715 8.38996 31.1622 9.46762 31.7481C8.01881 33.1118 6.90301 34.7906 6.20685 36.6542C5.51069 38.5178 5.25289 40.5161 5.45343 42.4939C5.92002 42.0187 6.48671 41.6536 7.11206 41.4253C7.73742 41.1971 8.4056 41.1115 9.06779 41.1748C10.3919 41.2959 11.7264 41.2455 13.0382 41.0248C14.687 40.4001 16.1303 39.3293 17.2068 37.932C17.922 37.2703 18.4529 36.4339 18.7473 35.5053C18.8626 34.7508 18.8095 33.9804 18.5916 33.2495C18.0115 30.8158 17.3778 27.2922 15.4973 25.5147C14.2101 24.5213 12.725 23.8151 11.1415 23.4435C9.5455 23.1394 7.977 22.7063 6.45139 22.1485Z" fill="#2C4366"/>
<path d="M50.9465 44.4443C46.5838 45.0115 41.852 39.166 40.3753 31.3803C38.985 24.0317 41.7 17.4318 45.5921 16.2453C43.7615 16.1714 41.9278 16.2619 40.1129 16.5157C30.1478 17.823 14.9529 24.9638 16.4723 33.0595C17.9917 41.1551 35.7311 47.2353 45.6962 45.928C47.6915 45.6766 49.6404 45.137 51.4819 44.3263C51.3034 44.3656 51.1361 44.414 50.9465 44.4443Z" fill="#3D5777"/>
<path d="M54.7842 28.9287C53.829 23.309 52.3477 18.8614 49.3143 16.9229C48.3162 16.1403 47.0523 15.7768 45.7898 15.9094C45.4618 15.9581 45.137 16.0266 44.8173 16.1146C40.8735 17.3878 38.6885 24.0123 39.9848 31.4317C41.3316 39.3328 45.9942 45.1958 50.4177 44.5308C50.5987 44.4987 50.777 44.4525 50.9509 44.3927C51.6151 44.2143 52.2322 43.8922 52.7587 43.4491C55.6305 41.144 55.8574 35.2865 54.7842 28.9287Z" fill="#DB3D63"/>
<path d="M48.6232 31.6289C49.7905 31.5043 50.5934 30.0375 50.4165 28.3529C50.2397 26.6682 49.15 25.4035 47.9827 25.5281C46.8154 25.6528 46.0125 27.1195 46.1894 28.8041C46.3663 30.4888 47.4559 31.7535 48.6232 31.6289Z" fill="#FFE4DC"/>
<path d="M48.8679 30.3515C49.1574 31.1212 49.3115 31.9353 49.3234 32.7579C49.3335 33.5547 49.2502 34.3502 49.0753 35.1279C48.8892 35.8914 48.6311 36.6357 48.3045 37.3507C47.9748 38.0614 47.5924 38.7465 47.1605 39.4003C47.5401 38.7225 47.8661 38.0161 48.1356 37.2876C48.4019 36.5667 48.5988 35.8221 48.7237 35.064C48.8219 34.2988 48.8325 33.525 48.7554 32.7577C48.6942 32.0233 48.5055 31.3054 48.1979 30.6361L48.8679 30.3515Z" fill="#FFE4DC"/>
<path d="M30.2421 23.1696C29.6599 23.4137 29.1543 23.8108 28.7791 24.3189C28.4038 24.8269 28.1729 25.4268 28.1108 26.055C28.0778 26.6525 28.2087 27.2474 28.4894 27.7753C28.77 28.3032 29.1898 28.7441 29.7032 29.0502L29.9803 29.2743L29.7379 29.574C29.4612 29.9704 29.2813 30.4261 29.2129 30.9045C29.1445 31.3828 29.1894 31.8704 29.344 32.3278C29.4987 32.7852 29.7587 33.1997 30.1031 33.5377C30.4475 33.8758 30.8667 34.1279 31.3268 34.2739L31.8293 34.4232L31.5062 34.8229C31.1277 35.2158 30.8695 35.7087 30.762 36.2434C30.6546 36.778 30.7024 37.332 30.8999 37.8397C31.1588 38.3508 31.551 38.7821 32.0351 39.0881C32.2813 39.2394 32.5497 39.3511 32.8306 39.4191C32.9708 39.4596 33.1165 39.4783 33.2624 39.4745C33.4181 39.5086 33.4599 39.2302 33.2704 39.2606C33.3242 39.194 33.4261 39.2947 33.4255 39.386C33.4284 39.4072 33.4269 39.4288 33.4211 39.4494C33.4153 39.47 33.4054 39.4892 33.392 39.5058C33.3785 39.5224 33.3618 39.5362 33.3429 39.5461C33.324 39.5561 33.3032 39.5621 33.2819 39.5637C33.1288 39.5979 32.9705 39.601 32.8163 39.5728C32.3417 39.5176 31.887 39.3511 31.4891 39.0868C31.0913 38.8226 30.7615 38.4681 30.5266 38.0521C30.2167 37.4656 30.0989 36.7961 30.19 36.1383C30.2811 35.4805 30.5764 34.8677 31.0343 34.3863L31.1804 34.9084C30.5917 34.7654 30.0487 34.4765 29.6015 34.068C29.1543 33.6596 28.8174 33.1448 28.6217 32.5713C28.4261 31.9979 28.3781 31.3841 28.4821 30.7866C28.5862 30.1892 28.8389 29.6273 29.217 29.1528L29.3167 29.619C28.7122 29.2507 28.2287 28.7137 27.9255 28.0738C27.6222 27.434 27.5125 26.7192 27.6098 26.0172C27.7157 25.3348 28.0229 24.6992 28.4918 24.1919C28.9608 23.6845 29.5703 23.3286 30.2421 23.1696Z" fill="#6E8DAD"/>
<path d="M26.513 28.4168C26.1193 28.7146 25.8094 29.1092 25.6135 29.5621C25.4175 30.0151 25.3421 30.511 25.3948 31.0013C25.4746 31.4562 25.6743 31.8812 25.9733 32.2327C26.2723 32.5842 26.6598 32.8494 27.0957 33.0009L27.7893 33.2312L27.1388 33.605C26.8181 33.7922 26.5547 34.0638 26.3775 34.3903C26.2004 34.7168 26.1162 35.0856 26.1342 35.4563C26.1522 35.8271 26.2717 36.1856 26.4796 36.4927C26.6875 36.7999 26.9759 37.0438 27.3132 37.1979L27.8242 37.4274L27.3812 37.7486C27.05 38.0131 26.8083 38.3734 26.6894 38.7801C26.5706 39.1869 26.5802 39.6203 26.717 40.0209C26.8998 40.4422 27.2063 40.7977 27.5959 41.0406C27.9854 41.2834 28.4397 41.402 28.8986 41.3808C28.4002 41.4989 27.8768 41.446 27.4127 41.2306C26.9486 41.0152 26.5706 40.6498 26.3395 40.1931C26.1081 39.6995 26.0457 39.1432 26.162 38.61C26.2784 38.0768 26.567 37.5965 26.9833 37.2433L27.0713 37.7919C26.6051 37.6058 26.2015 37.291 25.9074 36.8842C25.6133 36.4774 25.4408 35.9953 25.41 35.4939C25.3878 34.9826 25.5115 34.4754 25.7666 34.0314C26.0218 33.5874 26.3978 33.225 26.8507 32.9865L26.905 33.5995C26.3719 33.394 25.9087 33.0407 25.5694 32.581C25.2302 32.1214 25.029 31.5744 24.9893 31.004C24.9681 30.4723 25.1004 29.9455 25.3707 29.4866C25.6409 29.0277 26.0375 28.6563 26.513 28.4168Z" fill="#6E8DAD"/>
<path d="M23.3147 25.7761C22.7763 26.3528 22.3352 27.0132 22.0087 27.7314C21.7905 28.4547 22.2735 28.9003 22.966 29.3133L23.6031 29.6815L22.8998 29.9392C22.7304 30.02 22.5811 30.1377 22.4631 30.2838C22.345 30.4298 22.2611 30.6004 22.2176 30.783C22.11 31.1803 22.1364 31.6019 22.2928 31.9822C22.486 32.4023 22.7735 32.7721 23.133 33.0627C23.4924 33.3533 23.9142 33.557 24.3654 33.658C23.8434 33.6718 23.3278 33.5419 22.8749 33.2826C22.422 33.0232 22.0491 32.6444 21.797 32.1873C21.5207 31.6832 21.4478 31.0921 21.5931 30.5352C21.6729 30.2473 21.8203 29.9827 22.0231 29.7633C22.226 29.544 22.4783 29.3764 22.759 29.2745L22.6929 29.9004C22.2657 29.6751 21.9005 29.3484 21.6294 28.9487C21.4916 28.7354 21.4134 28.489 21.4028 28.2351C21.3922 27.9812 21.4496 27.729 21.569 27.5045C21.9893 26.7852 22.5914 26.189 23.3147 25.7761Z" fill="#6E8DAD"/>
<path d="M20.9198 33.5894C20.7197 33.8295 20.5699 34.1072 20.4793 34.4062C20.3887 34.7052 20.3592 35.0193 20.3925 35.3298C20.4453 35.6354 20.5657 35.9253 20.745 36.1782C20.9242 36.4311 21.1577 36.6407 21.4284 36.7916C21.2241 36.8145 21.0173 36.7968 20.82 36.7392C20.6227 36.6816 20.4388 36.5855 20.279 36.4563C20.1192 36.3271 19.9867 36.1675 19.8891 35.9866C19.7915 35.8057 19.7308 35.6072 19.7105 35.4026C19.6525 35.0046 19.744 34.5991 19.9674 34.2642C20.1907 33.9294 20.53 33.689 20.9198 33.5894Z" fill="#6E8DAD"/>
<path opacity="0.7" d="M6.52765 27.6084C8.05326 28.1662 9.62176 28.5993 11.2178 28.9034C12.796 29.2897 14.2782 29.9945 15.5735 30.9745C15.886 31.2899 16.164 31.6377 16.4026 32.0121C16.3939 30.7877 16.7003 29.5811 17.2925 28.5085C16.922 27.3901 16.309 26.3678 15.4973 25.5147C14.2101 24.5213 12.725 23.8151 11.1415 23.4435C9.54549 23.1394 7.977 22.7063 6.45139 22.1485C6.83227 23.2644 6.38376 24.4992 6.24095 25.6506C6.13299 26.6573 6.28165 27.6745 6.67308 28.6073C6.68258 28.2684 6.63339 27.9304 6.52765 27.6084Z" fill="#1E3255"/>
<path opacity="0.7" d="M40.2894 21.9653C41.111 19.0675 42.6229 16.9481 44.5895 16.2614C43.0806 16.2628 41.5732 16.3627 40.0769 16.5605C32.0314 17.602 20.6168 22.4929 17.2568 28.5529C16.6647 29.6256 16.3582 30.8321 16.3669 32.0566C16.7532 32.6443 29.19 20.3908 40.1532 22.0204L40.2894 21.9653Z" fill="#2C4366"/>
<path opacity="0.7" d="M54.7842 28.9289C53.829 23.3092 52.3477 18.8616 49.3143 16.9231C48.3162 16.1405 47.0524 15.777 45.7898 15.9096C45.4618 15.9583 45.137 16.0268 44.8173 16.1148L44.652 16.1832C42.6495 16.9144 41.1376 19.0337 40.3519 21.8871C40.5324 21.8678 46.2006 19.4367 48.8497 21.5785C51.4987 23.7203 53.9681 28.6914 54.9232 34.3111C55.093 35.348 55.2226 36.3892 55.3348 37.3613C55.5091 34.5379 55.324 31.7044 54.7842 28.9289Z" fill="#B72A59"/>
<path d="M32.5249 43.7499C32.1702 43.7053 31.8085 43.6496 31.4413 43.5834M15.7947 33.8619C16.0743 34.9274 16.8036 36.0027 17.8415 37.0332M17.8415 37.0332C17.7133 36.3927 17.4935 34.9025 17.6402 34.0655M17.8415 37.0332C17.319 36.8045 15.9989 36.1079 14.8988 35.1509M17.8415 37.0332C18.0244 37.2148 18.2169 37.395 18.4181 37.5736M18.4181 37.5736C17.6728 37.3391 15.917 36.8395 14.8563 36.7166M18.4181 37.5736C19.004 38.0932 19.6645 38.5985 20.3805 39.0821M20.3805 39.0821C19.2126 38.9596 16.5992 38.6956 15.489 38.6198M20.3805 39.0821C20.5799 39.2168 20.7836 39.3498 20.9912 39.481M20.9912 39.481C20.4603 38.4977 19.3791 36.288 19.3022 35.3154M20.9912 39.481C21.5354 39.8248 22.1063 40.156 22.6966 40.4717M22.6966 40.4717C21.9283 40.3318 20.0152 40.1272 18.509 40.4285M22.6966 40.4717C22.2088 39.8831 21.265 38.3923 21.3921 37.1383M22.6966 40.4717C23.3298 40.8103 23.9852 41.1311 24.6538 41.4306M26.4981 42.1899C25.8117 41.5725 24.2178 39.9817 23.3336 38.5577M26.4981 42.1899C25.8771 41.9561 25.2601 41.7021 24.6538 41.4306M26.4981 42.1899C27.0563 42.4001 27.6177 42.5939 28.1774 42.7696M24.6538 41.4306C24.0354 41.4418 22.5846 41.537 21.7296 41.8284M28.1774 42.7696C27.3697 42.6672 25.6381 42.4641 25.173 42.4713M28.1774 42.7696C28.5881 42.8984 28.9979 43.0175 29.4047 43.126M29.4047 43.126C28.6975 43.1096 26.8169 43.2808 24.9523 44.0977M29.4047 43.126C30.0951 43.3101 30.7771 43.4638 31.4413 43.5834M31.4413 43.5834C30.7866 43.4806 29.1046 43.6516 27.6138 45.1583" stroke="#07AA7C" stroke-width="0.824914" stroke-linecap="round" stroke-linejoin="round"/>
<path d="M43.2583 44.7499C43.613 44.7053 43.9747 44.6496 44.3419 44.5834M59.9885 34.8619C59.7089 35.9274 58.9796 37.0027 57.9417 38.0332M57.9417 38.0332C58.0699 37.3927 58.2897 35.9025 58.143 35.0655M57.9417 38.0332C58.4642 37.8045 59.7843 37.1079 60.8844 36.1509M57.9417 38.0332C57.7588 38.2148 57.5663 38.395 57.3651 38.5736M57.3651 38.5736C58.1104 38.3391 59.8662 37.8395 60.9269 37.7166M57.3651 38.5736C56.7792 39.0932 56.1188 39.5985 55.4027 40.0821M55.4027 40.0821C56.5706 39.9596 59.184 39.6956 60.2942 39.6198M55.4027 40.0821C55.2033 40.2168 54.9996 40.3498 54.792 40.481M54.792 40.481C55.3229 39.4977 56.4041 37.288 56.481 36.3154M54.792 40.481C54.2478 40.8248 53.6769 41.156 53.0866 41.4717M53.0866 41.4717C53.8549 41.3318 55.768 41.1272 57.2742 41.4285M53.0866 41.4717C53.5744 40.8831 54.5182 39.3923 54.3911 38.1383M53.0866 41.4717C52.4534 41.8103 51.798 42.1311 51.1294 42.4306M49.2851 43.1899C49.9715 42.5725 51.5654 40.9817 52.4496 39.5577M49.2851 43.1899C49.9061 42.9561 50.5232 42.7021 51.1294 42.4306M49.2851 43.1899C48.7269 43.4001 48.1655 43.5939 47.6058 43.7696M51.1294 42.4306C51.7478 42.4418 53.1986 42.537 54.0536 42.8284M47.6058 43.7696C48.4135 43.6672 50.1451 43.4641 50.6102 43.4713M47.6058 43.7696C47.1951 43.8984 46.7853 44.0175 46.3785 44.126M46.3785 44.126C47.0857 44.1096 48.9663 44.2808 50.8309 45.0977M46.3785 44.126C45.6881 44.3101 45.0061 44.4638 44.3419 44.5834M44.3419 44.5834C44.9966 44.4806 46.6786 44.6516 48.1694 46.1583" stroke="#07AA7C" stroke-width="0.824914" stroke-linecap="round" stroke-linejoin="round"/>
<path d="M23.5575 23.4902C21.9165 22.3468 26.5001 20.7207 28.5001 19.7207L32.4999 18.2207C34.4812 17.6512 36.5399 17.0332 37.3394 17.0053C38.3388 16.9704 39.8728 17.9174 38.9083 18.9517C37.9438 19.986 38.4083 22.6284 37.0491 23.0191C35.0678 23.5886 34.5158 22.1069 32.5344 22.6764C30.5531 23.2459 31.6573 26.2092 29.6585 26.279C28.9866 26.3025 28.7743 23.7447 27.555 23.3506C26.3324 22.9555 24.5845 24.2058 23.5575 23.4902Z" fill="#FDF2CA"/>
<path d="M7.90304 44.8742L2.1167 39.5774C2.1167 39.5774 13.2292 41.853 31.75 41.853C50.2709 41.853 61.3834 39.6304 61.3834 39.6304L56.288 44.6408C55.4604 45.4546 54.4724 46.088 53.3498 46.3827C50.4225 47.1512 43.5509 48.5204 31.75 48.5204C19.6871 48.5204 13.0609 47.0897 10.3987 46.3324C9.45581 46.0642 8.6261 45.5361 7.90304 44.8742Z" fill="#D1E1EE" stroke="#D1E1EE" stroke-width="1.05833"/>
<path opacity="0.4" d="M35.9834 45.8746C29.6334 46.4038 17.1451 45.9804 11.6417 44.2871" stroke="#97B9D6" stroke-width="1.05833" stroke-linecap="round"/>
</g>
<defs>
<clipPath id="clip0_808_24312">
<rect width="64" height="64" fill="white"/>
</clipPath>
</defs>
</svg>
