<svg width="64" height="64" viewBox="0 0 64 64" fill="none" xmlns="http://www.w3.org/2000/svg">
<ellipse cx="31.2208" cy="39.6378" rx="27.5167" ry="3.70417" fill="white"/>
<path fill-rule="evenodd" clip-rule="evenodd" d="M58.3917 40.1128C61.623 39.367 63.5 38.477 63.5 37.5212C63.5 34.8909 49.285 32.7587 31.75 32.7587C14.215 32.7587 0 34.8909 0 37.5212C0 38.318 1.30468 39.0692 3.6111 39.7292C6.83098 38.1523 17.7353 36.992 30.6917 36.992C44.6782 36.992 56.2735 38.3442 58.3917 40.1128Z" fill="#97B9D6"/>
<path d="M13.2889 32.9392C11.5208 31.9355 11.5098 30.7909 9.97386 30.4034C9.70624 30.3441 9.42929 30.3403 9.16016 30.3923C8.89103 30.4443 8.63544 30.551 8.40919 30.7057C8.04398 30.9601 7.73847 31.2909 7.51386 31.6751C7.36511 31.8663 7.29216 32.0509 7.12968 32.2306C6.22661 33.1116 4.86312 31.6397 4.04897 31.3545C3.78891 31.2297 3.50658 31.1581 3.21848 31.1438C2.93039 31.1295 2.64234 31.1728 2.3712 31.2712C2.10005 31.3696 1.85126 31.5211 1.6394 31.7169C1.42754 31.9126 1.25687 32.1487 1.13737 32.4112C-0.397489 35.0913 2.86117 35.9645 2.79958 36.861C2.73798 37.7574 1.95777 39.3149 3.73244 40.3944C5.95982 41.7015 8.01194 39.8417 9.03389 40.4652C10.3734 41.2263 9.34337 42.9839 11.5719 44.3037C12.9113 45.0648 14.3159 44.2418 15.3848 44.2374C19.1452 49.8274 25.0082 46.1322 25.0082 46.1322C23.8981 45.7771 22.8699 45.204 21.984 44.4465C21.0981 43.6891 20.3723 42.7626 19.8489 41.7211C18.5811 39.4517 20.3912 35.8438 18.1866 33.9236C16.1051 32.2473 14.7372 33.7799 13.3394 32.9348L13.2889 32.9392Z" fill="#0ACB81"/>
<path d="M12.9899 40.7299C13.2176 38.4242 12.7712 36.102 11.705 34.045C11.6312 33.9253 11.515 33.8378 11.3795 33.8001C11.2441 33.7624 11.0994 33.7772 10.9744 33.8416C10.8619 33.8995 10.7768 33.9993 10.7373 34.1195C10.6978 34.2396 10.7071 34.3705 10.7632 34.4838C11.6176 36.1089 12.0519 37.9219 12.0266 39.7577C11.1405 38.8854 10.0894 38.1984 8.93482 37.7369L8.91935 37.5601C8.71911 36.3312 8.17762 35.1833 7.35661 34.2472C7.32023 34.1879 7.27146 34.1373 7.21363 34.0986C7.15581 34.06 7.0903 34.0343 7.02162 34.0234C6.95294 34.0125 6.88271 34.0166 6.81575 34.0354C6.7488 34.0541 6.6867 34.0872 6.63373 34.1323C6.54128 34.2269 6.48736 34.3525 6.48246 34.4847C6.47755 34.6169 6.52202 34.7462 6.60721 34.8474C7.20145 35.5891 7.61333 36.4599 7.80976 37.3898C6.70996 37.0405 5.62391 36.7028 4.45274 36.4106C4.32071 36.3871 4.18473 36.4168 4.07453 36.4932C3.96434 36.5696 3.88888 36.6866 3.86469 36.8185C3.85311 36.883 3.85448 36.9492 3.86872 37.0133C3.88296 37.0773 3.90977 37.1378 3.94762 37.1913C3.98547 37.2449 4.0336 37.2904 4.08919 37.3252C4.14478 37.3599 4.20674 37.3833 4.27145 37.3939C5.61342 37.649 6.92661 38.0373 8.19156 38.553C10.3139 39.5198 12.1092 41.0832 13.3586 43.0525C13.6548 43.383 13.8615 43.7086 14.1577 44.0391C14.1598 44.0625 14.1711 44.0842 14.1891 44.0993C14.2072 44.1145 14.2305 44.1218 14.2539 44.1198C14.2947 44.1731 14.3467 44.2168 14.4063 44.2478C14.4659 44.2787 14.5316 44.2961 14.5987 44.2987C14.6658 44.3014 14.7326 44.2892 14.7944 44.263C14.8563 44.2369 14.9116 44.1974 14.9564 44.1474L15.0371 44.0513C15.3552 43.6251 15.6392 43.1747 15.8867 42.704C16.6144 41.4205 16.9296 39.9442 16.7896 38.4754C16.7686 38.3384 16.6985 38.2137 16.5923 38.1246C16.4862 38.0355 16.3512 37.9881 16.2126 37.9912L16.1242 37.999C15.9968 38.023 15.8839 38.0962 15.8099 38.2026C15.7359 38.3091 15.7066 38.4404 15.7285 38.5682C15.7641 40.0631 15.3719 41.5372 14.5982 42.8168C14.4943 42.6476 14.3019 42.4862 14.2107 42.316C13.8849 41.708 13.4761 41.1483 12.9959 40.653L12.9899 40.7299Z" fill="#07AA7C" stroke="#0ACB81" stroke-width="0.25"/>
<path d="M50.2829 32.9392C52.051 31.9355 52.062 30.7909 53.5979 30.4034C53.8655 30.3441 54.1425 30.3403 54.4116 30.3923C54.6807 30.4443 54.9363 30.551 55.1626 30.7057C55.5278 30.9601 55.8333 31.2909 56.0579 31.6751C56.2067 31.8663 56.2796 32.0509 56.4421 32.2306C57.3452 33.1116 58.7087 31.6397 59.5228 31.3545C59.7829 31.2297 60.0652 31.1581 60.3533 31.1438C60.6414 31.1295 60.9294 31.1728 61.2006 31.2712C61.4717 31.3696 61.7205 31.5211 61.9324 31.7169C62.1442 31.9126 62.3149 32.1487 62.4344 32.4112C63.9693 35.0913 60.7106 35.9645 60.7722 36.861C60.8338 37.7574 61.614 39.3149 59.8393 40.3944C57.612 41.7015 55.5598 39.8417 54.5379 40.4652C53.1984 41.2263 54.2284 42.9839 51.9999 44.3037C50.6604 45.0648 49.2559 44.2418 48.187 44.2374C44.4266 49.8274 38.5636 46.1322 38.5636 46.1322C39.6737 45.7771 40.7018 45.204 41.5877 44.4465C42.4736 43.6891 43.1995 42.7626 43.7229 41.7211C44.9907 39.4517 43.1806 35.8438 45.3852 33.9236C47.4667 32.2473 48.8346 33.7799 50.2324 32.9348L50.2829 32.9392Z" fill="#0ACB81"/>
<path d="M50.5818 40.7299C50.3542 38.4242 50.8006 36.102 51.8668 34.045C51.9405 33.9253 52.0568 33.8378 52.1922 33.8001C52.3277 33.7624 52.4724 33.7772 52.5974 33.8416C52.7098 33.8995 52.795 33.9993 52.8345 34.1195C52.874 34.2396 52.8647 34.3705 52.8085 34.4838C51.9542 36.1089 51.5199 37.9219 51.5452 39.7577C52.4313 38.8854 53.4824 38.1984 54.637 37.7369L54.6524 37.5601C54.8527 36.3312 55.3942 35.1833 56.2152 34.2472C56.2515 34.1879 56.3003 34.1373 56.3581 34.0986C56.416 34.06 56.4815 34.0343 56.5502 34.0234C56.6188 34.0125 56.6891 34.0166 56.756 34.0354C56.823 34.0541 56.8851 34.0872 56.938 34.1323C57.0305 34.2269 57.0844 34.3525 57.0893 34.4847C57.0942 34.6169 57.0498 34.7462 56.9646 34.8474C56.3703 35.5891 55.9584 36.4599 55.762 37.3898C56.8618 37.0405 57.9479 36.7028 59.119 36.4106C59.2511 36.3871 59.387 36.4168 59.4972 36.4932C59.6074 36.5696 59.6829 36.6866 59.7071 36.8185C59.7187 36.883 59.7173 36.9492 59.7031 37.0133C59.6888 37.0773 59.662 37.1378 59.6242 37.1913C59.5863 37.2449 59.5382 37.2904 59.4826 37.3252C59.427 37.3599 59.365 37.3833 59.3003 37.3939C57.9584 37.649 56.6452 38.0373 55.3802 38.553C53.2579 39.5198 51.4626 41.0832 50.2132 43.0525C49.9169 43.383 49.7103 43.7086 49.414 44.0391C49.412 44.0625 49.4007 44.0842 49.3827 44.0993C49.3646 44.1145 49.3413 44.1218 49.3179 44.1198C49.2771 44.1731 49.2251 44.2168 49.1655 44.2478C49.1059 44.2787 49.0402 44.2961 48.9731 44.2987C48.906 44.3014 48.8392 44.2892 48.7773 44.263C48.7155 44.2369 48.6602 44.1974 48.6153 44.1474L48.5347 44.0513C48.2166 43.6251 47.9325 43.1747 47.6851 42.704C46.9574 41.4205 46.6421 39.9442 46.7822 38.4754C46.8031 38.3384 46.8733 38.2137 46.9795 38.1246C47.0856 38.0355 47.2206 37.9881 47.3592 37.9912L47.4476 37.999C47.575 38.023 47.6879 38.0962 47.7619 38.2026C47.8359 38.3091 47.8651 38.4404 47.8433 38.5682C47.8077 40.0631 48.1998 41.5372 48.9736 42.8168C49.0775 42.6476 49.2698 42.4862 49.3611 42.316C49.6869 41.708 50.0957 41.1483 50.5758 40.653L50.5818 40.7299Z" fill="#07AA7C" stroke="#0ACB81" stroke-width="0.25"/>
<path d="M52.1852 40.989L52.6067 40.6238L53.0283 40.2586L53.4499 39.8933C53.6483 39.6844 53.8316 39.4618 53.9985 39.2269C54.3241 38.9467 54.5053 38.3491 54.7775 38.2019C54.9626 37.9673 55.1128 37.7071 55.2235 37.4295C55.3977 37.2057 55.491 36.9296 55.4885 36.6461C55.7535 35.8628 55.8739 35.3705 55.7888 35.2745C55.8956 34.9211 55.9572 34.5555 55.9722 34.1865C55.9866 33.9477 55.9673 33.7082 55.915 33.4747C55.9961 33.3343 55.8544 32.9715 55.8652 32.7905C55.8575 32.3464 55.7893 31.9053 55.6624 31.4796C55.6485 31.2055 55.6007 30.9341 55.5201 30.6718C55.5236 30.405 55.4331 30.1456 55.2644 29.9389L54.7569 28.7096C54.5287 28.5778 54.4977 28.1854 54.31 27.9834C54.133 27.5919 53.8867 27.2356 53.583 26.9316L53.0402 26.2905L52.2071 25.3414C51.7819 24.8893 51.31 24.4834 50.7993 24.1306C50.4131 23.9076 50.1505 23.5921 49.7643 23.3691C49.433 23.2613 49.1279 23.0851 48.8689 22.8522C48.5125 22.6727 48.1666 22.4731 47.833 22.2541C47.5697 22.1021 47.0497 21.9891 46.7661 21.8722C46.5595 21.8188 46.3714 21.7102 46.2218 21.558C46.0638 21.4668 45.8321 21.5437 45.7396 21.42C45.6471 21.2964 45.2473 21.2997 45.0487 21.2787L44.443 21.2332C44.08 21.2237 43.72 21.1654 43.3726 21.06L42.7668 21.0145C42.5324 20.9841 42.2945 20.9976 42.0651 21.0542C41.9246 20.9731 41.6754 21.0399 41.5794 21.1249C41.4835 21.21 41.0762 21.1856 40.8675 21.1821C40.6589 21.1787 40.0598 21.3244 39.7551 21.406C39.4935 21.3964 39.2371 21.4809 39.0324 21.6441C38.7781 21.6559 38.5329 21.7423 38.3273 21.8925C38.1693 21.8012 37.9092 22.049 37.6045 22.1306L37.4728 22.3589C37.3819 22.4165 37.2757 22.445 37.1682 22.4405C36.9595 22.437 36.8459 22.512 36.6649 22.5011L36.2577 22.4767L35.8505 22.4522L35.4709 22.4203C35.2956 22.4077 35.1251 22.3572 34.9712 22.2723L34.78 22.279C34.6572 22.208 34.4991 22.1168 34.3938 22.056C34.2709 21.985 34.1129 21.8938 34.0076 21.833C33.9022 21.7722 33.8496 21.7418 33.7267 21.6708C33.5716 21.6069 33.4099 21.5606 33.2445 21.5329C32.8123 21.4778 32.3745 21.4851 31.9444 21.5547C31.8836 21.6601 31.6398 21.6364 31.5263 21.7113C31.4128 21.7862 31.4553 21.8342 31.2217 21.7929C31.0358 21.8462 30.8632 21.938 30.715 22.0623L30.2935 22.4275L29.6524 22.9703L29.4227 23.1654C29.2759 23.293 29.176 23.466 29.1389 23.657C29.0555 23.7303 28.9986 23.829 28.9767 23.9379C28.8968 24.0051 28.8429 24.0984 28.8247 24.2013C28.7334 24.3593 28.7334 24.3592 28.6726 24.4646C28.6118 24.5699 28.6017 24.5875 28.5347 24.9467C28.4677 25.306 28.5313 25.1554 28.3725 25.2277C28.3572 25.3968 28.3166 25.5628 28.2522 25.72C28.1818 25.9101 28.1602 26.1149 28.1891 26.3156L28.1958 26.5068C28.1046 26.6648 28.2673 26.8289 28.1539 26.9038C28.0404 26.9788 28.1294 27.3111 28.2145 27.407C28.2995 27.503 28.211 27.6157 28.2961 27.7116C28.3812 27.8076 28.3777 28.0163 28.4803 28.1223C28.5829 28.2284 28.5343 28.4344 28.6369 28.5405L28.8651 28.6722L29.1453 28.9979L29.3735 29.1296L29.6537 29.4552C29.759 29.516 30.0399 29.6782 30.1453 29.739C30.6144 29.9452 31.0315 30.2534 31.3665 30.6412C31.7014 31.0289 31.9457 31.4865 32.0815 31.9806C31.9903 32.1386 32.1421 32.4837 32.1211 32.6823C32.1191 32.8965 32.1755 33.1071 32.2844 33.2915C32.366 33.5962 32.5327 33.9967 32.6144 34.3013C32.696 34.6059 32.7709 34.7194 32.7675 34.9281C32.8819 35.3 33.0608 35.6489 33.2959 35.9589C33.4013 36.0197 33.4626 36.3595 33.5551 36.4831C33.6476 36.6067 33.9095 37.0856 34.1897 37.4112L34.5549 37.8328L34.9201 38.2544L35.6581 39.1251C35.7857 39.2719 35.9587 39.3718 36.1497 39.4089C36.3243 39.4982 36.4942 39.5963 36.6588 39.7029C36.9221 39.8549 37.3076 40.2414 37.6088 40.3685C37.91 40.4955 37.9951 40.5915 38.1004 40.6523C38.265 40.7588 38.4349 40.8569 38.6095 40.9462C38.9958 41.1692 39.478 41.3072 39.8642 41.5302L40.7326 41.8911C41.1474 42.0517 41.5739 42.1805 42.0082 42.2765C42.4716 42.3459 42.9299 42.4461 43.3799 42.5767L45.152 42.7103C45.6251 42.7173 46.0979 42.685 46.5656 42.6136C46.8405 42.6076 47.1129 42.5596 47.3734 42.4713C47.6338 42.383 47.9062 42.335 48.1812 42.3291C48.5817 42.1624 49.2085 42.0093 49.6192 41.825C50.0299 41.6408 50.2393 41.4808 50.5439 41.3992C50.693 41.2685 50.8737 41.1791 51.0681 41.14L51.1289 41.0346C51.89 41.2165 52.0792 41.0917 52.1852 40.989Z" fill="#F18700"/>
<path d="M44.6309 40.6532C41.8238 39.0932 39.4435 36.8668 37.6996 34.1701C36.4718 32.2452 34.8198 30.6269 32.8701 29.439C32.5467 29.6924 32.162 29.8559 31.7551 29.9128C31.3481 29.9697 30.9334 29.9181 30.5528 29.7631C31.0183 29.9691 31.4321 30.2763 31.764 30.6623C32.0958 31.0483 32.3375 31.5033 32.4715 31.9945C32.4681 32.2031 32.5497 32.5078 32.5287 32.7063C32.5196 32.9213 32.5766 33.1339 32.6919 33.3155C32.756 33.61 32.9402 34.0207 33.0219 34.3253C33.1035 34.6299 33.1784 34.7435 33.1574 34.942C33.2772 35.3117 33.4557 35.6597 33.6859 35.9728C33.7848 36.141 33.8714 36.3162 33.9451 36.497C34.1733 36.6287 34.3069 37.1272 34.5796 37.4251L34.9625 37.8568L35.3175 38.2959L36.048 39.139C36.1709 39.21 36.3282 39.4646 36.5572 39.433C36.7481 39.4701 36.9211 39.57 37.0488 39.7168C37.3297 39.879 37.7152 40.2654 37.9988 40.3824C38.2824 40.4993 38.385 40.6053 38.5079 40.6763C38.6308 40.7473 38.8942 40.8993 38.9995 40.9601C39.3857 41.1831 39.8855 41.3312 40.2542 41.5441L41.1401 41.9151C41.5451 42.0842 41.9668 42.2099 42.3982 42.2903C42.8676 42.3634 43.3316 42.4671 43.7874 42.6008L45.5595 42.7344C46.0326 42.7413 46.5054 42.709 46.9731 42.6376C47.2466 42.6188 47.5174 42.5711 47.7809 42.4953C48.0413 42.407 48.3138 42.359 48.5887 42.3531C48.9893 42.1864 49.5985 42.0232 50.0166 41.8666C50.4347 41.71 50.6468 41.5048 50.9514 41.4232C51.0922 41.2883 51.2675 41.1951 51.4581 41.1538C49.8935 42.4041 47.4204 42.1467 44.6309 40.6532Z" fill="#F18700"/>
<path d="M35.8569 23.8603C35.7356 22.854 35.4873 22.1488 34.9025 21.9048C34.7796 21.8338 34.6216 21.7426 34.5163 21.6818C34.4109 21.621 34.3076 21.6784 34.2529 21.5298C34.0905 21.461 33.9186 21.417 33.7431 21.3993C33.315 21.3401 32.8808 21.3415 32.4531 21.4035C32.3822 21.5264 32.1485 21.4852 32.0525 21.5702C31.9566 21.6553 31.9816 21.6931 31.7479 21.6518C31.5558 21.6972 31.3765 21.7859 31.2237 21.911L30.8022 22.2763L30.1509 22.8366L30.0192 23.0649C29.8654 23.1867 29.7639 23.3625 29.7354 23.5565C29.652 23.6298 29.595 23.7285 29.5732 23.8373C29.482 23.9953 29.5124 23.9427 29.4211 24.1007C29.3299 24.2587 29.3299 24.2587 29.259 24.3816C29.188 24.5045 29.1981 24.4869 29.121 24.8638C29.0439 25.2406 29.0298 25.0218 28.969 25.1271C28.9536 25.2963 28.9131 25.4622 28.8486 25.6194C28.7732 25.8122 28.7573 26.0233 28.8032 26.2253L28.712 26.3833C28.6207 26.5413 28.7936 26.6878 28.6801 26.7628C28.5666 26.8377 28.6556 27.17 28.7583 27.2761C28.8609 27.3822 28.6671 27.4341 28.8224 27.5706C28.9776 27.707 28.8938 27.8928 28.9964 27.9988C29.0991 28.1049 29.0781 28.3034 29.1631 28.3994L29.3407 28.6189L29.6209 28.9445L29.8491 29.0763L30.1293 29.4019C30.2346 29.4628 30.5155 29.6249 30.6208 29.6858C30.9987 29.8541 31.4162 29.9129 31.8259 29.8556C32.2356 29.7983 32.621 29.6271 32.9382 29.3616C33.8024 28.7187 34.5128 27.8915 35.0176 26.9399C35.5224 25.9884 35.8091 24.9364 35.8569 23.8603ZM29.4551 25.5014C29.4817 25.0838 29.6044 24.678 29.8136 24.3156C30.0228 23.9532 30.313 23.644 30.6614 23.4122C31.3875 22.9654 31.8663 23.312 31.916 23.9962C31.8942 24.4149 31.7735 24.8225 31.5638 25.1856C31.3542 25.5488 31.0615 25.8571 30.7098 26.0854C30.0687 26.6282 29.3988 26.2882 29.4551 25.5014Z" fill="#FF9911"/>
<path d="M52.1854 40.9889L52.6069 40.6237L53.0285 40.2584L53.45 39.8931C53.6484 39.6843 53.8317 39.4616 53.9986 39.2268C54.3242 38.9466 54.5054 38.3489 54.7776 38.2018C54.9627 37.9671 55.113 37.7069 55.2236 37.4293C55.3978 37.2055 55.4912 36.9295 55.4886 36.6459C55.7536 35.8626 55.874 35.3703 55.789 35.2744C55.8957 34.9209 55.9573 34.5553 55.9723 34.1864C55.9867 33.9476 55.9674 33.708 55.9151 33.4746C55.9962 33.3341 55.8545 32.9714 55.8654 32.7904C55.8577 32.3462 55.7894 31.9051 55.6625 31.4794C55.6486 31.2053 55.6008 30.934 55.5203 30.6716C55.5238 30.4049 55.4332 30.1454 55.2645 29.9387L54.757 28.7094C54.5288 28.5776 54.4979 28.1852 54.3102 27.9832C54.1331 27.5917 53.8868 27.2354 53.5831 26.9315L53.0404 26.2903L52.2072 25.3412C51.782 24.8891 51.3101 24.4832 50.7995 24.1304C50.4132 23.9074 50.1506 23.592 49.7644 23.369C49.4331 23.2611 49.1281 23.085 48.869 22.852C48.5126 22.6726 48.1668 22.4729 47.8332 22.254C47.5698 22.1019 47.0498 21.989 46.7662 21.872C46.5596 21.8186 46.3715 21.71 46.2219 21.5578C46.0639 21.4666 45.8322 21.5435 45.7398 21.4199C45.6473 21.2963 45.2474 21.2995 45.0489 21.2785L44.4431 21.2331C44.0802 21.2235 43.7202 21.1652 43.3727 21.0598L42.7669 21.0144C42.5326 20.984 42.2946 20.9974 42.0652 21.054C41.9247 20.9729 41.6755 21.0397 41.5796 21.1248C41.4836 21.2098 41.0764 21.1854 40.8677 21.1819C40.659 21.1785 40.0599 21.3242 39.7553 21.4058C39.4936 21.3962 39.2372 21.4807 39.0326 21.644C38.7782 21.6558 38.533 21.7421 38.3274 21.8923C38.1694 21.8011 37.9093 22.0489 37.6047 22.1305L37.4729 22.3587C37.3821 22.4164 37.2758 22.4448 37.1683 22.4403C36.9596 22.4369 36.8461 22.5118 36.6651 22.501L36.2578 22.4765L35.8506 22.4521L35.4711 22.4202C35.2957 22.4075 35.1253 22.357 34.9713 22.2721L34.7802 22.2788C34.6573 22.2079 34.4993 22.1167 34.3939 22.0558C34.9206 22.3599 35.302 23.1185 35.3382 24.0289C35.325 25.1534 35.0353 26.2573 34.4946 27.2434C33.9539 28.2294 33.1788 29.0672 32.2377 29.6828C34.2326 30.8224 35.9015 32.4549 37.0847 34.4242C38.8153 37.1231 41.1915 39.3479 43.9985 40.8971C46.8602 42.5493 49.3645 42.5907 50.9405 41.6044C51.8902 41.2164 52.0793 41.0915 52.1854 40.9889Z" fill="#FF9911"/>
<path d="M23.4344 18.982L31.5942 23.459C31.8751 23.6212 31.9594 23.8805 32.0411 24.1851L23.8813 19.7082C23.7855 19.4372 23.6332 19.1896 23.4344 18.982Z" fill="#FEDAAA"/>
<path d="M29.9224 26.1922L21.8652 21.8213C21.9957 21.8943 22.1473 21.9199 22.2945 21.894C22.4416 21.8681 22.5754 21.7922 22.673 21.679C22.9986 21.4535 23.2642 21.1519 23.4468 20.8004C23.6293 20.4489 23.7233 20.0581 23.7205 19.662L31.8627 24.1289C31.8745 24.526 31.7865 24.9197 31.6065 25.2739C31.4265 25.6281 31.1605 25.9314 30.8328 26.156C30.5412 26.2664 30.2218 26.279 29.9224 26.1922Z" fill="#FEC377"/>
<path d="M24.2895 20.0145C24.9109 18.9382 24.5421 17.562 23.4658 16.9406C22.3896 16.3193 21.0133 16.688 20.392 17.7643C19.7706 18.8405 20.1393 20.2167 21.2156 20.8381C22.2919 21.4595 23.6681 21.0908 24.2895 20.0145Z" fill="#FEC377"/>
<path d="M21.0732 17.3142C21.328 17.1456 21.6155 17.0327 21.9169 16.983C22.2183 16.9332 22.5269 16.9477 22.8223 17.0254C23.1177 17.1032 23.3934 17.2424 23.6313 17.4341C23.8692 17.6258 24.0639 17.8656 24.2026 18.1377C24.4828 18.4634 24.451 18.8429 24.6251 19.2712C24.7219 18.7159 24.6212 18.1444 24.3406 17.6556C24.0002 17.1659 23.4968 16.8132 22.9203 16.6604C22.3438 16.5077 21.7318 16.5649 21.1936 16.8218C20.839 17.018 20.5513 17.3161 20.3677 17.6774C20.1841 18.0388 20.113 18.4468 20.1637 18.8489C20.1585 18.534 20.2408 18.2239 20.4014 17.9529C20.5619 17.6819 20.7945 17.4609 21.0732 17.3142Z" fill="#FEDAAA"/>
<path d="M24.3712 23.1979C24.9926 22.1216 24.6238 20.7455 23.5475 20.1241C22.4713 19.5027 21.095 19.8714 20.4736 20.9477C19.8523 22.024 20.221 23.4002 21.2973 24.0216C22.3736 24.643 23.7498 24.2742 24.3712 23.1979Z" fill="#FEC377"/>
<path d="M21.1424 20.3973C21.4011 20.2354 21.6903 20.1283 21.992 20.0827C22.2938 20.037 22.6017 20.0538 22.8967 20.1319C23.1917 20.2101 23.4675 20.348 23.7071 20.5371C23.9466 20.7261 24.1449 20.9623 24.2894 21.2311C24.5521 21.5466 24.5276 21.9538 24.6092 22.2584C24.6408 21.7669 24.535 21.2763 24.3037 20.8414C23.9681 20.3511 23.467 19.998 22.8924 19.8468C22.3177 19.6955 21.7079 19.7562 21.1743 20.0178C20.8407 20.2352 20.569 20.5353 20.3855 20.8886C20.202 21.242 20.1129 21.6369 20.1268 22.0348C20.147 21.6991 20.2504 21.3735 20.4277 21.0877C20.605 20.8018 20.8506 20.5646 21.1424 20.3973Z" fill="#FEDAAA"/>
<path d="M52.8728 26.5259C51.0054 24.5367 48.5227 23.8337 47.3275 24.9557C46.1324 26.0777 46.6773 28.5998 48.5448 30.589C50.4122 32.5782 52.8949 33.2813 54.09 32.1593C55.2852 31.0373 54.7403 28.5151 52.8728 26.5259Z" fill="#FFA834"/>
<path d="M35.9147 46.0662L37.1651 44.9403C37.376 44.7504 37.5975 44.3601 37.7029 44.2651C37.8084 44.1702 38.2361 43.4031 38.4471 43.2132C38.6349 42.9779 38.7843 42.7144 38.8899 42.4325C39.0495 42.2055 39.1294 41.9322 39.1173 41.655C39.3597 40.8638 39.4997 40.3831 39.4048 40.2777C39.5112 39.9218 39.5644 39.5521 39.5627 39.1807C39.57 38.947 39.5436 38.7136 39.4842 38.4875C39.4947 38.2871 39.4103 37.9812 39.4208 37.7808C39.4072 37.3385 39.3336 36.9 39.202 36.4774C39.1857 36.2009 39.1324 35.9278 39.0436 35.6653C39.0465 35.402 38.9526 35.1467 38.7797 34.9481L38.2401 33.7427C38.0501 33.5318 37.9657 33.226 37.7758 33.0151C37.5906 32.6329 37.3419 32.2849 37.0402 31.986L35.6837 30.4795C35.2534 30.0365 34.7729 29.6452 34.252 29.3135C33.8616 29.0921 33.5767 28.7757 33.1864 28.5543C32.8696 28.4176 32.5785 28.2275 32.3259 27.9925C31.9589 27.8376 31.6038 27.6558 31.2635 27.4487C30.9681 27.3328 30.4723 27.2063 30.1769 27.0903C29.9667 27.0797 29.765 27.0039 29.5998 26.8735C29.3993 26.863 29.199 26.8525 29.104 26.747C29.0091 26.6416 28.6082 26.6205 28.4078 26.61L27.8216 26.565C27.4558 26.5648 27.0915 26.5167 26.7382 26.4221L26.137 26.3906C25.8995 26.37 25.6603 26.3915 25.4303 26.454C25.2298 26.4435 25.0294 26.433 24.939 26.5144C24.8486 26.5958 24.4327 26.5883 24.2323 26.5778C24.0319 26.5673 23.4202 26.7362 23.1143 26.8207C22.8558 26.835 22.6088 26.9329 22.4107 27.0996C22.1579 27.1159 21.9147 27.2026 21.7086 27.3499C21.5081 27.3394 21.2972 27.5293 20.9913 27.6138L20.7805 27.8036C20.6908 27.8652 20.5831 27.8949 20.4746 27.8881C20.2741 27.8776 20.1687 27.9725 19.9683 27.962L19.5825 27.9275L19.1817 27.9065L18.7809 27.8855C18.614 27.8836 18.4495 27.8456 18.2986 27.7741L18.0983 27.7636C18.0033 27.6581 17.8029 27.6476 17.7079 27.5422C17.613 27.4367 17.4125 27.4262 17.3176 27.3207C17.2226 27.2153 17.1172 27.3102 17.0222 27.2048C16.863 27.1419 16.6964 27.0994 16.5265 27.0783C16.1007 27.0259 15.6696 27.0371 15.2472 27.1118C15.1417 27.2067 14.9413 27.1962 14.8358 27.2912C14.7304 27.3861 14.7304 27.3861 14.5299 27.3756C14.3409 27.4313 14.1651 27.5246 14.0132 27.65L12.7627 28.7758C12.5999 28.8939 12.4841 29.0658 12.4359 29.2611C12.32 29.5563 12.32 29.5563 12.2041 29.8515C12.2085 30.0387 12.2085 30.0387 12.1031 30.1337C11.9976 30.2286 11.9976 30.2286 11.963 30.6144C11.9285 31.0001 11.9525 30.8148 11.8471 30.9098C11.826 31.0797 11.7835 31.2463 11.7206 31.4055C11.6519 31.5986 11.6409 31.8075 11.6891 32.0068L11.6786 32.2072C11.6681 32.4076 11.7631 32.513 11.6576 32.608C11.6264 32.7776 11.658 32.9527 11.7466 33.1007C11.8415 33.2062 11.7361 33.3011 11.8311 33.4066C11.926 33.512 11.9019 33.6974 11.9969 33.8029C12.0919 33.9083 12.0813 34.1087 12.1763 34.2142L13.1258 35.2687C13.2208 35.3742 13.5026 35.4751 13.5975 35.5806C14.0695 35.7783 14.4919 36.078 14.8343 36.4583C15.1767 36.8386 15.4307 37.29 15.578 37.7801C15.5675 37.9805 15.652 38.2864 15.6415 38.4868C15.6349 38.7031 15.6938 38.9163 15.8104 39.0986C15.8948 39.4044 16.0607 39.8007 16.1451 40.1065C16.2296 40.4124 16.3245 40.5179 16.314 40.7183C16.4348 41.0924 16.6205 41.4422 16.8627 41.7518C16.9441 41.8422 17.0286 42.1481 17.1235 42.2536C17.2185 42.359 17.4929 42.8758 17.7777 43.1922L19.2834 44.8644C19.4015 45.0273 19.5734 45.1431 19.7687 45.1913C19.8636 45.2968 20.1455 45.3977 20.2404 45.5031C20.3354 45.6086 20.9156 46.0409 21.211 46.1569C21.5063 46.2728 21.6013 46.3783 21.6962 46.4838C21.7912 46.5892 22.0866 46.7052 22.168 46.7956C22.5583 47.017 23.0541 47.1435 23.4444 47.3649L24.3305 47.7128C24.7404 47.8658 25.1609 47.9886 25.5888 48.0802C26.0602 48.1293 26.5262 48.221 26.9812 48.3541L28.7713 48.4335C29.2401 48.4452 29.7088 48.4072 30.1696 48.3202C30.4462 48.3039 30.7194 48.2507 30.9818 48.1618C31.2298 48.057 31.4961 48.0027 31.7653 48.0019C32.1766 47.8225 32.7884 47.6536 33.1997 47.4742C33.611 47.2948 33.8219 47.1049 34.1127 47.034C34.2563 46.8965 34.4352 46.8016 34.6295 46.7597L34.735 46.6647C35.1713 46.5647 35.5763 46.3592 35.9147 46.0662Z" fill="#F18700"/>
<path d="M19.2397 29.2728C19.0918 28.2603 18.828 27.5431 18.305 27.3865C18.2101 27.281 18.0097 27.2705 17.9148 27.165C17.8198 27.0596 17.7143 27.1545 17.6194 27.0491C17.4601 26.9861 17.2935 26.9437 17.1236 26.9226C16.7136 26.845 16.2955 26.8182 15.8789 26.843C15.7735 26.938 15.5866 26.9425 15.4812 27.0375C15.3757 27.1325 15.3757 27.1325 15.1753 27.122C14.9863 27.1776 14.8105 27.2709 14.6585 27.3963L13.4081 28.5222C13.2452 28.6403 13.1294 28.8122 13.0812 29.0075C13.0077 29.0884 12.9664 29.1935 12.9652 29.3029C12.9412 29.4882 12.8598 29.3978 12.8357 29.5831C12.8117 29.7685 12.8252 29.7836 12.7198 29.8785C12.6143 29.9735 12.6143 29.9735 12.6084 30.3607C12.6024 30.748 12.5978 30.5611 12.4924 30.6561C12.4713 30.826 12.4289 30.9926 12.3659 31.1519C12.2972 31.345 12.2862 31.5539 12.3344 31.7531L12.3239 31.9535C12.3134 32.1539 12.4084 32.2594 12.3029 32.3544C12.1974 32.4493 12.2819 32.7552 12.3769 32.8606C12.4718 32.9661 12.3664 33.061 12.4477 33.1514C12.5291 33.2418 12.5322 33.4573 12.6271 33.5628C12.7221 33.6682 12.7116 33.8686 12.8066 33.9741L13.7561 35.0287C13.8375 35.1191 14.1329 35.235 14.2278 35.3405C14.621 35.4949 15.049 35.5385 15.4653 35.4667C15.8816 35.3949 16.2702 35.2103 16.5889 34.9331C17.4235 34.2458 18.0944 33.3811 18.5529 32.402C19.0114 31.4229 19.246 30.354 19.2397 29.2728ZM12.8752 31.0207C12.8777 30.6026 12.9788 30.191 13.1704 29.8194C13.362 29.4478 13.6386 29.1267 13.9777 28.8822C14.6904 28.4315 15.1756 28.7584 15.2391 29.4651C15.2343 29.8821 15.1307 30.292 14.9366 30.6611C14.7426 31.0303 14.4638 31.3481 14.123 31.5885C13.5053 32.1446 12.8332 31.8223 12.8752 31.0207Z" fill="#FF9911"/>
<path d="M35.9145 46.0662L37.1649 44.9404C37.3758 44.7504 37.5972 44.3601 37.7027 44.2651C37.8081 44.1702 38.2359 43.4031 38.4468 43.2132C38.6346 42.9779 38.7841 42.7145 38.8897 42.4325C39.0492 42.2055 39.1291 41.9322 39.117 41.655C39.3595 40.8638 39.4995 40.3831 39.4045 40.2777C39.5109 39.9218 39.5641 39.5521 39.5625 39.1807C39.5697 38.947 39.5433 38.7136 39.484 38.4875C39.4945 38.2871 39.41 37.9812 39.4205 37.7808C39.407 37.3385 39.3334 36.9 39.2017 36.4775C39.1854 36.2009 39.1322 35.9278 39.0433 35.6653C39.0462 35.402 38.9524 35.1468 38.7795 34.9481L38.2398 33.7427C38.0499 33.5318 37.9654 33.226 37.7755 33.0151C37.5903 32.6329 37.3416 32.2849 37.0399 31.986L35.6834 30.4795C35.2531 30.0365 34.7726 29.6452 34.2517 29.3135C33.8614 29.0921 33.5765 28.7757 33.1862 28.5543C32.8693 28.4176 32.5783 28.2275 32.3256 27.9925C31.9586 27.8376 31.6035 27.6558 31.2632 27.4487C30.9678 27.3328 30.4721 27.2063 30.1767 27.0903C29.9665 27.0797 29.7647 27.004 29.5995 26.8735C29.3991 26.863 29.1987 26.8525 29.1038 26.747C29.0088 26.6416 28.608 26.6205 28.4076 26.61L27.8214 26.565C27.4555 26.5648 27.0913 26.5167 26.7379 26.4221L26.1367 26.3906C25.8992 26.37 25.66 26.3915 25.43 26.454C25.2296 26.4435 25.0292 26.433 24.9388 26.5144C24.8484 26.5958 24.4325 26.5883 24.2321 26.5778C24.0317 26.5673 23.4199 26.7362 23.1141 26.8207C22.8555 26.835 22.6086 26.9329 22.4104 27.0996C22.1576 27.1159 21.9144 27.2026 21.7083 27.3499C21.5079 27.3394 21.297 27.5293 20.9911 27.6138L20.7802 27.8037C20.6905 27.8652 20.5828 27.8949 20.4743 27.8881C20.2739 27.8776 20.1684 27.9726 19.968 27.962L19.5823 27.9275L19.1814 27.9065L18.7806 27.8855C18.6137 27.8836 18.4492 27.8456 18.2984 27.7741L18.098 27.7636C18.0031 27.6581 17.8026 27.6476 17.7077 27.5422C18.0122 27.75 18.2581 28.0327 18.4218 28.363C18.5855 28.6934 18.6615 29.0603 18.6423 29.4285C18.6513 30.5597 18.381 31.6756 17.8552 32.6772C17.3294 33.6788 16.5646 34.5352 15.6284 35.1703C17.6453 36.2666 19.3461 37.8635 20.5674 39.8072C22.3516 42.4723 24.7668 44.6551 27.5982 46.1615C30.5173 47.7068 32.9991 47.7364 34.5449 46.7265C35.044 46.6086 35.5114 46.3833 35.9145 46.0662Z" fill="#FF9911"/>
<path d="M15.3341 29.5705C15.3551 29.4139 15.32 29.255 15.235 29.1218C15.1501 28.9886 15.0207 28.8897 14.8698 28.8428L6.73646 24.627C6.59367 24.5673 6.43425 24.5606 6.28699 24.6082C6.13972 24.6557 6.01429 24.7544 5.93337 24.8863C5.62952 25.1188 5.38588 25.4208 5.22287 25.767C5.05987 26.1131 4.98225 26.4932 4.99655 26.8756C4.97445 27.0286 5.0077 27.1845 5.09033 27.3151C5.17296 27.4458 5.29954 27.5426 5.44725 27.5882L13.7042 31.911C13.8339 31.9757 13.9815 31.9951 14.1235 31.9661C14.2656 31.9371 14.3938 31.8615 14.4877 31.7511C14.9521 31.1088 15.2436 30.3579 15.3341 29.5705Z" fill="#FEC377"/>
<path d="M6.73572 24.6276L14.964 28.9489C15.0943 29.0238 15.2046 29.1291 15.2854 29.2558C15.3663 29.3825 15.4153 29.5268 15.4283 29.6766L7.18642 25.3402C7.08034 25.0775 6.92766 24.836 6.73572 24.6276Z" fill="#FEDAAA"/>
<path d="M13.393 31.8091L5.23102 27.5918C5.36366 27.664 5.51735 27.6878 5.66561 27.6589C5.81387 27.6299 5.94741 27.5502 6.04317 27.4334C6.34576 27.1997 6.5885 26.8976 6.75138 26.5517C6.91425 26.2058 6.99264 25.8262 6.98 25.4441L15.2219 29.7805C15.2339 30.1617 15.1537 30.5402 14.9883 30.8839C14.8229 31.2276 14.577 31.5263 14.2715 31.7547C13.9932 31.8714 13.6836 31.8905 13.393 31.8091Z" fill="#FEC377"/>
<path d="M7.12533 26.2409C8.04889 25.4093 8.12346 23.9865 7.29188 23.0629C6.4603 22.1394 5.03747 22.0648 4.11391 22.8964C3.19035 23.728 3.11578 25.1508 3.94736 26.0744C4.77894 26.9979 6.20176 27.0725 7.12533 26.2409Z" fill="#FEC377"/>
<path d="M4.27823 23.0483C4.53104 22.8779 4.81666 22.7621 5.1168 22.7084C5.41694 22.6548 5.72499 22.6644 6.02119 22.7367C6.3174 22.809 6.59523 22.9423 6.83692 23.1282C7.0786 23.3141 7.2788 23.5484 7.42469 23.8161C7.70955 24.1325 7.68854 24.5333 7.85438 24.9295C7.94937 24.3741 7.84175 23.8031 7.55114 23.3204C7.20395 22.8387 6.69631 22.4968 6.11953 22.3561C5.54275 22.2153 4.93468 22.285 4.40468 22.5525C4.07373 22.7589 3.80935 23.0563 3.64319 23.4091C3.47702 23.7619 3.41615 24.1552 3.46789 24.5418C3.4583 24.2433 3.5283 23.9477 3.6707 23.6852C3.81311 23.4228 4.02279 23.203 4.27823 23.0483Z" fill="#FEDAAA"/>
<path d="M7.27474 29.4069C8.1983 28.5753 8.27285 27.1525 7.44127 26.229C6.60969 25.3054 5.18689 25.2308 4.26332 26.0624C3.33976 26.894 3.26519 28.3168 4.09677 29.2404C4.92835 30.1639 6.35118 30.2385 7.27474 29.4069Z" fill="#FEC377"/>
<path d="M4.51665 26.1618C4.76945 25.9914 5.05508 25.8756 5.35521 25.8219C5.65535 25.7682 5.9634 25.7779 6.25961 25.8502C6.55581 25.9224 6.83364 26.0558 7.07533 26.2417C7.31702 26.4276 7.51724 26.6618 7.66313 26.9296C7.86231 27.2299 7.97784 27.5778 7.99785 27.9376C8.02974 27.4477 7.92088 26.9588 7.68411 26.5287C7.33692 26.0471 6.82928 25.7052 6.2525 25.5645C5.67572 25.4237 5.06765 25.4934 4.53765 25.761C4.22293 25.9833 3.97122 26.2835 3.80704 26.6321C3.64286 26.9807 3.5718 27.366 3.60084 27.7502C3.61795 27.4321 3.7098 27.1225 3.86892 26.8465C4.02803 26.5706 4.24993 26.336 4.51665 26.1618Z" fill="#FEDAAA"/>
<path d="M37.056 36.6518C38.2225 35.5067 37.6231 33.0044 35.7171 31.0629C33.8112 29.1214 31.3205 28.4758 30.154 29.6209C28.9875 30.766 29.5869 33.2682 31.4928 35.2098C33.3988 37.1513 35.8895 37.7969 37.056 36.6518Z" fill="#FFA834"/>
<path d="M40.3059 39.9692C41.0269 37.9881 43.2175 36.9666 44.7634 38.8834C47.1798 38.4087 48.2013 40.5993 47.4802 42.5804C46.7591 44.5616 44.5685 45.5831 42.5874 44.862C40.6063 44.1409 39.5848 41.9503 40.3059 39.9692Z" fill="#F43B3B"/>
<path d="M44.4274 37.517C43.7984 38.0499 43.7792 39.0225 43.8129 39.4379C44.2885 39.3756 45.2539 39.1453 45.5938 38.7566C45.9336 38.368 45.8746 37.4308 45.8026 37.0108C45.6063 36.9575 45.0564 36.9841 44.4274 37.517Z" fill="#027168"/>
<path d="M56.3512 38.4866C55.4403 35.984 52.6732 34.6937 50.7204 37.115C47.6681 36.5154 46.3778 39.2826 47.2886 41.7851C48.1995 44.2877 50.9666 45.578 53.4692 44.6672C55.9717 43.7563 57.262 40.9892 56.3512 38.4866Z" fill="#F43B3B"/>
<path fill-rule="evenodd" clip-rule="evenodd" d="M48.456 37.3889C47.9216 38.3114 47.8493 39.579 48.2883 40.7851C49.1991 43.2877 51.9663 44.578 54.4688 43.6672C54.9171 43.504 55.3265 43.2813 55.6913 43.0111C55.1479 43.7443 54.3906 44.3317 53.4688 44.6672C50.9663 45.578 48.1991 44.2877 47.2883 41.7851C46.6514 40.0353 47.0907 38.1561 48.456 37.3889Z" fill="#D61D1D"/>
<path d="M49.3084 37.9317C50.3176 38.1886 51.3325 37.4958 51.7353 37.1567C51.3228 36.7131 50.3785 35.8883 49.7296 35.8233C49.0807 35.7582 48.1595 36.5055 47.78 36.8873C47.869 37.1284 48.2992 37.6748 49.3084 37.9317Z" fill="#07AA7C"/>
<path d="M52.8067 36.4378C52.2943 37.3444 51.0921 37.5984 50.5686 37.6549C50.5334 37.0501 50.5907 35.7976 50.9924 35.2839C51.3942 34.7702 52.5711 34.6216 53.1093 34.6115C53.2219 34.8425 53.319 35.5312 52.8067 36.4378Z" fill="#07AA7C"/>
<path d="M7.90304 44.4581L2.1167 39.1613C2.1167 39.1613 13.2292 41.4369 31.75 41.4369C50.2709 41.4369 61.3834 39.2143 61.3834 39.2143L56.288 44.2247C55.4604 45.0385 54.4724 45.6718 53.3498 45.9666C50.4225 46.735 43.5509 48.1043 31.75 48.1043C19.6871 48.1043 13.0609 46.6735 10.3987 45.9163C9.45581 45.6481 8.6261 45.12 7.90304 44.4581Z" fill="#D1E1EE" stroke="#D1E1EE" stroke-width="1.05833"/>
<path opacity="0.4" d="M35.9834 45.4585C29.6334 45.9876 17.1451 45.5643 11.6417 43.871" stroke="#97B9D6" stroke-width="1.05833" stroke-linecap="round"/>
<path d="M53.5 54.4747C57.1339 54.4747 60.0797 53.6606 60.0797 52.6563C60.0797 51.6521 57.1339 50.838 53.5 50.838C49.8662 50.838 46.9204 51.6521 46.9204 52.6563C46.9204 53.6606 49.8662 54.4747 53.5 54.4747Z" fill="#E2E6F5"/>
<path d="M55.8441 52.299C55.6809 52.344 55.51 52.3542 55.3426 52.3289C55.1751 52.3036 55.0149 52.2435 54.8722 52.1523C54.7295 52.0611 54.6075 51.941 54.5142 51.7997C54.4209 51.6584 54.3584 51.4991 54.3306 51.332C53.721 48.0948 54.2045 39.3815 54.2045 39.3815C54.3831 36.7748 57.0423 34.7568 57.0423 34.7568C58.6142 33.4984 59.8493 31.8696 60.6369 30.0165C62.1084 26.0856 59.4177 13.8197 59.4177 13.8197C57.4769 13.4852 55.5117 13.3129 53.5423 13.3047C51.573 13.3137 49.6077 13.486 47.6669 13.8197C47.6669 13.8197 44.9762 26.0856 46.4581 30.0165C47.2386 31.8709 48.4707 33.5005 50.0423 34.7568C50.0423 34.7568 52.6909 36.7748 52.8696 39.3815C52.8696 39.3815 53.3531 48.0948 52.7435 51.332C52.7164 51.5026 52.6531 51.6654 52.5578 51.8094C52.4625 51.9535 52.3374 52.0754 52.191 52.167C52.0446 52.2587 51.8802 52.3179 51.709 52.3406C51.5378 52.3634 51.3637 52.3492 51.1984 52.299" fill="#F0F3FC"/>
<path d="M60.4369 29.4069C60.7073 28.5608 60.8455 27.6781 60.8468 26.7898H46.3842C46.3803 27.6785 46.5187 28.562 46.7942 29.4069C47.0182 29.9619 47.2963 30.4935 47.6245 30.994C47.9672 31.5397 48.3539 32.0564 48.7807 32.5391C49.951 33.9583 51.377 35.1455 52.9849 36.0391C53.1438 36.1372 53.3242 36.1949 53.5104 36.2073C53.6946 36.1993 53.8744 36.149 54.036 36.0601C55.685 35.1778 57.1596 34.0025 58.3873 32.5916C59.2545 31.6604 59.9485 30.5819 60.4369 29.4069Z" fill="#7A1047"/>
<path d="M53.6158 27.5464C57.6095 27.5464 60.8471 27.2075 60.8471 26.7896C60.8471 26.3717 57.6095 26.0328 53.6158 26.0328C49.6221 26.0328 46.3845 26.3717 46.3845 26.7896C46.3845 27.2075 49.6221 27.5464 53.6158 27.5464Z" fill="#B72A59"/>
<path d="M48.6866 15.5962C48.4238 17.1307 48.1716 18.6548 47.9403 20.1893C47.7091 21.7239 47.5514 23.2689 47.4884 24.814C47.4412 25.584 47.4412 26.3563 47.4884 27.1263C47.4905 27.8906 47.6404 28.6472 47.9298 29.3546C48.5734 30.7638 49.5168 32.0157 50.6941 33.0228C49.4348 32.0878 48.4301 30.8519 47.7722 29.4281C47.4585 28.7038 47.2872 27.9259 47.2677 27.1368C47.2204 26.3598 47.2204 25.5805 47.2677 24.8035C47.3622 23.2479 47.5725 21.6503 47.8142 20.1683C48.0559 18.6863 48.3187 17.1623 48.6866 15.5962Z" fill="#E2E6F5"/>
<path d="M54.2671 53.6024C53.6786 53.6828 53.0842 53.7109 52.4908 53.6865C51.8932 53.6684 51.3001 53.5766 50.725 53.4132C50.4236 53.3388 50.1409 53.2028 49.8947 53.0138C49.8163 52.9614 49.7535 52.8888 49.7128 52.8037C49.6721 52.7187 49.6551 52.6242 49.6635 52.5303C49.6848 52.4452 49.7239 52.3656 49.7783 52.2968C49.8326 52.2279 49.901 52.1714 49.9788 52.1309C50.5119 51.8536 51.1017 51.7025 51.7025 51.6895C51.1359 51.8003 50.5921 52.0064 50.0944 52.2991C49.8526 52.4672 49.8106 52.6669 50.0944 52.8351C50.326 52.9888 50.5818 53.1025 50.8511 53.1715C51.9688 53.4495 53.1154 53.5942 54.2671 53.6024Z" fill="white"/>
<path d="M56.1383 51.847C56.4164 51.8597 56.6887 51.9314 56.9371 52.0573C57.0822 52.1134 57.2069 52.2124 57.2945 52.341C57.3484 52.4161 57.3773 52.5062 57.3773 52.5985C57.3773 52.6909 57.3484 52.781 57.2945 52.8561C57.0927 53.069 56.8335 53.2187 56.5482 53.287C56.2849 53.3621 56.0127 53.401 55.7389 53.4026L56.4746 53.0978C56.7075 53.0167 56.9169 52.8795 57.0842 52.6984C57.2314 52.5618 57.0842 52.3726 56.874 52.2254C56.641 52.0769 56.3947 51.9502 56.1383 51.847Z" fill="white"/>
<path d="M46.4161 30.0166C47.298 31.9629 48.653 33.6576 50.3576 34.9461C51.1792 35.6506 51.8665 36.4981 52.3862 37.4476C52.6344 37.9348 52.8114 38.4551 52.9117 38.9927C52.9958 39.5392 52.9853 40.0437 53.0273 40.6008C53.1009 42.7029 53.1429 44.8681 53.1009 47.0017C53.1009 48.0528 53.0378 49.1038 52.9222 50.1549C52.9222 50.4177 52.8591 50.6804 52.8171 50.9537C52.7931 51.224 52.7106 51.4858 52.5753 51.721C52.4318 51.952 52.2156 52.1289 51.9608 52.224C51.7059 52.3191 51.4268 52.327 51.1669 52.2465C51.4227 52.3168 51.6946 52.3003 51.94 52.1995C52.1854 52.0987 52.3903 51.9193 52.5228 51.6894C52.6383 51.4533 52.7028 51.1954 52.712 50.9327C52.712 50.6699 52.775 50.4072 52.7961 50.1444C52.8907 49.0933 52.9117 48.0423 52.9222 46.9912C52.9222 44.8891 52.9222 42.787 52.7645 40.6008C52.7598 40.074 52.7283 39.5478 52.6699 39.0242C52.5957 38.5147 52.4469 38.0189 52.2285 37.5527C51.7318 36.5967 51.0618 35.7413 50.2525 35.0302C48.543 33.7375 47.2169 32.0046 46.4161 30.0166Z" fill="#C7CEEC"/>
<path d="M55.844 52.2989C55.5886 52.3621 55.3216 52.3621 55.0662 52.2989C54.7942 52.2295 54.558 52.0607 54.404 51.826C54.2536 51.6001 54.1632 51.3397 54.1413 51.0692C54.1413 50.8064 54.0572 50.5542 54.0257 50.2914C53.9364 49.2633 53.9364 48.2294 54.0257 47.2013C54.1518 48.2524 54.1938 49.3034 54.3095 50.2704C54.3142 50.7672 54.4104 51.2589 54.5932 51.7208C54.7202 51.9311 54.9071 52.0985 55.1301 52.2015C55.353 52.3045 55.6016 52.3385 55.844 52.2989Z" fill="#E2E6F5"/>
<path d="M59.3755 13.8512C58.4209 14.1431 57.4306 14.3023 56.4325 14.3242C55.4445 14.3977 54.4565 14.4188 53.4791 14.4293C52.5016 14.4398 51.5031 14.4293 50.5151 14.3242C49.5277 14.2985 48.5483 14.1394 47.6036 13.8512C48.0853 13.9393 48.5765 13.9641 49.0646 13.9248H57.8935C58.3886 13.9668 58.887 13.9421 59.3755 13.8512Z" fill="#F0F3FC"/>
</svg>
