<svg width="64" height="64" viewBox="0 0 64 64" fill="none" xmlns="http://www.w3.org/2000/svg">
<path d="M32.1072 63.17C36.8885 63.17 40.7644 62.0988 40.7644 60.7775C40.7644 59.4562 36.8885 58.385 32.1072 58.385C27.3259 58.385 23.45 59.4562 23.45 60.7775C23.45 62.0988 27.3259 63.17 32.1072 63.17Z" fill="#E2E6F5"/>
<path d="M35.1914 60.3073C34.9766 60.3665 34.7518 60.3799 34.5315 60.3467C34.3112 60.3134 34.1003 60.2343 33.9126 60.1143C33.7248 59.9943 33.5644 59.8363 33.4416 59.6503C33.3189 59.4644 33.2365 59.2548 33.2 59.035C32.3979 54.7755 33.034 43.3109 33.034 43.3109C33.2691 39.8812 36.768 37.2259 36.768 37.2259C38.8362 35.5701 40.4613 33.4271 41.4977 30.9888C43.4338 25.8166 39.8935 9.67764 39.8935 9.67764C37.3399 9.23749 34.754 9.01083 32.1628 9C29.5716 9.01185 26.9859 9.23851 24.4321 9.67764C24.4321 9.67764 20.8918 25.8166 22.8417 30.9888C23.8686 33.4288 25.4898 35.573 27.5576 37.2259C27.5576 37.2259 31.0426 39.8812 31.2777 43.3109C31.2777 43.3109 31.9139 54.7755 31.1117 59.035C31.0761 59.2594 30.9928 59.4736 30.8674 59.6632C30.742 59.8527 30.5774 60.0131 30.3848 60.1337C30.1921 60.2543 29.9759 60.3321 29.7506 60.3621C29.5253 60.392 29.2963 60.3733 29.0788 60.3073" fill="#F0F3FC"/>
<path d="M41.2345 30.1868C41.5902 29.0735 41.7721 27.912 41.7738 26.7433H22.7445C22.7393 27.9126 22.9214 29.0751 23.2838 30.1868C23.5786 30.9171 23.9446 31.6165 24.3764 32.2751C24.8273 32.993 25.336 33.6729 25.8976 34.308C27.4375 36.1753 29.3138 37.7374 31.4294 38.9132C31.6384 39.0422 31.8758 39.1182 32.1209 39.1345C32.3632 39.124 32.5998 39.0577 32.8123 38.9409C34.9821 37.78 36.9223 36.2335 38.5377 34.3771C39.6787 33.1518 40.5919 31.7328 41.2345 30.1868Z" fill="#FF9C98"/>
<path d="M32.2598 27.7388C37.5146 27.7388 41.7745 27.293 41.7745 26.743C41.7745 26.1931 37.5146 25.7473 32.2598 25.7473C27.005 25.7473 22.7451 26.1931 22.7451 26.743C22.7451 27.293 27.005 27.7388 32.2598 27.7388Z" fill="#FFC3BA"/>
<path d="M25.7735 12.015C25.4278 14.0341 25.0959 16.0394 24.7916 18.0585C24.4874 20.0776 24.2799 22.1105 24.197 24.1435C24.1349 25.1567 24.1349 26.1727 24.197 27.1859C24.1998 28.1915 24.397 29.1871 24.7778 30.1178C25.6246 31.9721 26.8659 33.6192 28.4149 34.9443C26.758 33.7141 25.4361 32.0879 24.5704 30.2146C24.1576 29.2616 23.9323 28.238 23.9065 27.1998C23.8443 26.1773 23.8443 25.1521 23.9065 24.1296C24.031 22.0829 24.3076 19.9808 24.6257 18.0308C24.9437 16.0809 25.2895 14.0756 25.7735 12.015Z" fill="#E2E6F5"/>
<path d="M33.1167 62.0222C32.3424 62.128 31.5603 62.165 30.7795 62.1328C29.9932 62.1091 29.2128 61.9883 28.4561 61.7733C28.0596 61.6754 27.6876 61.4965 27.3636 61.2478C27.2605 61.1788 27.1778 61.0833 27.1243 60.9714C27.0708 60.8595 27.0484 60.7352 27.0594 60.6116C27.0874 60.4997 27.1389 60.3949 27.2104 60.3043C27.2819 60.2137 27.3719 60.1394 27.4743 60.0861C28.1758 59.7212 28.9518 59.5225 29.7423 59.5052C28.9967 59.6511 28.2813 59.9223 27.6264 60.3074C27.3083 60.5286 27.253 60.7914 27.6264 61.0127C27.9311 61.2149 28.2677 61.3645 28.6221 61.4552C30.0926 61.8211 31.6013 62.0114 33.1167 62.0222Z" fill="white"/>
<path d="M35.5787 59.7126C35.9447 59.7294 36.303 59.8236 36.6298 59.9892C36.8208 60.0631 36.9847 60.1934 37.1 60.3626C37.1709 60.4614 37.209 60.5799 37.209 60.7014C37.209 60.823 37.1709 60.9415 37.1 61.0403C36.8345 61.3204 36.4934 61.5174 36.1181 61.6073C35.7717 61.7061 35.4134 61.7573 35.0532 61.7594L36.0213 61.3584C36.3277 61.2516 36.6032 61.0712 36.8234 60.8328C37.017 60.653 36.8234 60.4041 36.5468 60.2105C36.2402 60.015 35.9161 59.8484 35.5787 59.7126Z" fill="white"/>
<path d="M22.7861 30.9889C23.9464 33.5498 25.7293 35.7796 27.9722 37.4749C29.0533 38.4019 29.9575 39.5171 30.6413 40.7663C30.968 41.4073 31.2008 42.092 31.3327 42.7993C31.4434 43.5184 31.4295 44.1822 31.4849 44.9152C31.5817 47.6811 31.637 50.5299 31.5817 53.3373C31.5817 54.7202 31.4987 56.1032 31.3466 57.4861C31.3466 57.8319 31.2636 58.1776 31.2083 58.5372C31.1767 58.8928 31.0682 59.2373 30.8902 59.5467C30.7013 59.8507 30.4169 60.0835 30.0816 60.2086C29.7463 60.3337 29.3789 60.3441 29.037 60.2382C29.3736 60.3307 29.7313 60.309 30.0542 60.1763C30.3771 60.0437 30.6468 59.8077 30.821 59.5052C30.9731 59.1945 31.0579 58.8552 31.07 58.5095C31.07 58.1638 31.153 57.818 31.1806 57.4723C31.3051 56.0894 31.3327 54.7064 31.3466 53.3235C31.3466 50.5576 31.3466 47.7917 31.1391 44.9152C31.1329 44.222 31.0914 43.5296 31.0147 42.8407C30.9169 42.1704 30.7212 41.5181 30.4338 40.9046C29.7804 39.6467 28.8987 38.5212 27.8339 37.5855C25.5846 35.8848 23.8398 33.6046 22.7861 30.9889Z" fill="#C7CEEC"/>
<path d="M35.1912 60.3073C34.8552 60.3904 34.5039 60.3904 34.1679 60.3073C33.81 60.2158 33.4992 59.9939 33.2966 59.6849C33.0987 59.3878 32.9797 59.0451 32.9509 58.6892C32.9509 58.3435 32.8402 58.0116 32.7988 57.6658C32.6813 56.3131 32.6813 54.9527 32.7988 53.6C32.9647 54.9829 33.02 56.3659 33.1721 57.6382C33.1784 58.2919 33.305 58.9388 33.5455 59.5466C33.7126 59.8232 33.9586 60.0435 34.2519 60.1791C34.5452 60.3147 34.8723 60.3593 35.1912 60.3073Z" fill="#E2E6F5"/>
<path d="M39.8379 9.71912C38.5818 10.1032 37.2788 10.3127 35.9656 10.3414C34.6657 10.4382 33.3657 10.4659 32.0795 10.4797C30.7934 10.4936 29.4796 10.4797 28.1796 10.3414C26.8805 10.3077 25.5919 10.0983 24.3489 9.71912C24.9827 9.83511 25.6289 9.86765 26.2712 9.81592H37.8879C38.5393 9.87125 39.1952 9.83869 39.8379 9.71912Z" fill="#F0F3FC"/>
</svg>
