<svg width="64" height="64" viewBox="0 0 64 64" fill="none" xmlns="http://www.w3.org/2000/svg">
<path d="M29.3863 0.599291C29.3863 0.693107 29.3863 0.786923 29.3863 0.880739C29.3863 0.974555 29.3863 1.23724 29.3863 1.41549V1.73446C29.3863 1.79075 29.3863 1.94086 29.3863 1.99715C29.3863 2.05344 29.3112 1.99715 29.2643 1.99715C29.2121 2.00439 29.1625 2.02446 29.1199 2.05556C29.0773 2.08667 29.0431 2.12784 29.0204 2.1754C28.9776 2.26612 28.9583 2.36611 28.9641 2.46623C28.9859 2.86807 28.9607 3.27108 28.889 3.66707C28.8752 3.75094 28.8752 3.83651 28.889 3.92038C28.8933 3.9639 28.9073 4.00591 28.9301 4.04327C28.9528 4.08063 28.9837 4.11238 29.0204 4.13615C29.0879 4.15926 29.1568 4.17806 29.2268 4.19244C29.3956 4.19244 29.4801 4.3144 29.4801 4.46451V11.691H30.2212C31.3247 11.7211 33.5011 11.6647 34.5957 11.5221V4.48327C34.5936 4.45062 34.5984 4.4179 34.6097 4.3872C34.621 4.3565 34.6386 4.32851 34.6614 4.30502L34.7364 4.24873C34.7671 4.24097 34.7987 4.23781 34.8303 4.23935H34.9335C34.9642 4.24773 34.9966 4.24773 35.0273 4.23935C35.0695 4.22131 35.1031 4.18771 35.1211 4.14553C35.1303 4.1054 35.1303 4.0637 35.1211 4.02357C35.1349 3.93971 35.1349 3.85414 35.1211 3.77027C35.0494 3.37427 35.0242 2.97126 35.046 2.56943C35.0519 2.4693 35.0325 2.36932 34.9897 2.2786C34.9915 2.25674 34.9915 2.23478 34.9897 2.21293C34.955 2.17059 34.9097 2.13822 34.8584 2.11911H34.774H34.7083H34.652C34.64 2.07615 34.64 2.03072 34.652 1.98777C34.6561 1.94408 34.6561 1.90011 34.652 1.85642C34.652 1.75323 34.652 1.65003 34.652 1.53745C34.652 1.42487 34.652 1.18095 34.652 1.0027C34.652 0.824449 34.652 0.815068 34.652 0.721252C34.6566 0.683867 34.6566 0.646057 34.652 0.608673C34.6564 0.590166 34.6564 0.57089 34.652 0.552383V0.505475C34.6275 0.498175 34.6014 0.498175 34.577 0.505475H34.4738L29.5551 0.505475C29.5056 0.50618 29.4584 0.526412 29.4238 0.561765C29.3675 0.486712 29.3863 0.486712 29.3863 0.599291Z" fill="#931A4E"/>
<path d="M30.5336 6.28454V4.65214C30.5336 4.50203 30.4492 4.4176 30.2803 4.38007C30.2104 4.36569 30.1415 4.34689 30.0739 4.32378C30.0372 4.30001 30.0063 4.26826 29.9836 4.2309C29.9609 4.19354 29.9468 4.15154 29.9426 4.10801C29.9288 4.02414 29.9288 3.93857 29.9426 3.8547C30.0143 3.45871 30.0395 3.0557 30.0176 2.65386C30.0317 2.54778 30.0738 2.44738 30.1396 2.36303C30.1624 2.31548 30.1966 2.2743 30.2391 2.2432C30.2817 2.21209 30.3313 2.19202 30.3835 2.18478C30.4304 2.18478 30.4773 2.18478 30.5055 2.18478C30.5336 2.18478 30.5055 1.97839 30.5055 1.9221V1.59374C30.5055 1.41549 30.5055 1.23724 30.5055 1.05899C30.5055 0.880739 30.5055 0.871357 30.5055 0.777541C30.5055 0.683725 30.5055 0.618054 30.5055 0.561765C30.5401 0.526412 30.5873 0.50618 30.6368 0.505475H28.8543H28.7042C28.6797 0.498175 28.6536 0.498175 28.6292 0.505475V0.552383C28.6292 0.552383 28.6292 0.552383 28.6292 0.608672C28.6292 0.664962 28.6292 0.683725 28.6292 0.721252C28.6292 0.815068 28.6292 0.908883 28.6292 1.0027C28.6292 1.09652 28.6292 1.3592 28.6292 1.53745V1.91271C28.6385 1.95916 28.6385 2.007 28.6292 2.05344C28.6347 2.07498 28.6347 2.09757 28.6292 2.11911H28.5729H28.5072H28.4228L28.3383 2.1754C28.3094 2.19728 28.2868 2.22641 28.2727 2.25983C28.2286 2.34999 28.2122 2.45121 28.2258 2.55066C28.2258 2.74768 28.2258 2.95407 28.2258 3.15108C28.2152 3.35277 28.1901 3.55343 28.1507 3.75151C28.1462 3.79517 28.1462 3.83918 28.1507 3.88285C28.1461 3.92337 28.1461 3.96429 28.1507 4.00481C28.1562 4.04867 28.1723 4.09053 28.1976 4.12677C28.2216 4.16212 28.2538 4.1911 28.2914 4.21121C28.3221 4.21958 28.3545 4.21958 28.3852 4.21121H28.4884C28.5478 4.22559 28.6026 4.25462 28.6479 4.29564C28.653 4.3204 28.653 4.34593 28.6479 4.37069C28.6576 4.40442 28.6576 4.44017 28.6479 4.47389V11.5597C28.6479 11.5597 29.4172 11.6535 30.5242 11.7004L30.5336 6.28454Z" fill="#7A1047"/>
<path d="M33.3197 10.2248C33.2259 9.28662 33.2072 8.34846 33.2072 7.4103C33.2072 6.47214 33.2072 5.53398 33.3197 4.59583C33.4042 5.53398 33.4229 6.47214 33.4323 7.4103C33.4417 8.34846 33.4042 9.26786 33.3197 10.2248Z" fill="#DB3D63"/>
<path d="M34.5766 17.7581V10.7782C33.482 10.9207 31.3056 10.9772 30.2021 10.9471H29.461V17.7862C29.461 17.7862 24.2073 20.6852 23.832 24.1845V61.3262C23.9636 62.008 24.3062 62.6311 24.8112 63.1075C25.3163 63.5839 25.9583 63.8896 26.6465 63.9812H37.4005C38.0887 63.8896 38.7307 63.5839 39.2358 63.1075C39.7408 62.6311 40.0834 62.008 40.215 61.3262V24.1564C39.8303 20.657 34.5766 17.7581 34.5766 17.7581Z" fill="#014951"/>
<path d="M24.8766 61.3262V24.1564C25.28 20.657 30.5055 17.7581 30.5055 17.7581V10.9189C29.3985 10.872 28.6292 10.7782 28.6292 10.7782V17.7581C28.6292 17.7581 23.3849 20.657 23.0002 24.1564V61.3262C23.0502 61.6554 23.1582 61.973 23.3192 62.2644C23.4027 62.4228 23.5 62.5735 23.61 62.7147C23.7357 62.8782 23.8771 63.0291 24.0322 63.165C24.1169 63.2443 24.2078 63.3164 24.3043 63.3808C24.5121 63.5271 24.7355 63.6498 24.9704 63.7467C25.2461 63.8585 25.532 63.9433 25.8241 64H27.7004C27.0079 63.909 26.3619 63.6015 25.8547 63.1213C25.3475 62.641 25.0052 62.0128 24.8766 61.3262Z" fill="#003945"/>
<path d="M37.5511 36.709C37.6499 36.7114 37.7439 36.7516 37.8138 36.8215C37.8837 36.8914 37.924 36.9855 37.9264 37.0842V53.8867C37.924 53.9854 37.8837 54.0795 37.8138 54.1494C37.7439 54.2193 37.6499 54.2596 37.5511 54.2619C33.6014 54.5752 29.6331 54.5752 25.6834 54.2619C25.5838 54.2619 25.4884 54.2224 25.418 54.152C25.3476 54.0816 25.3081 53.9862 25.3081 53.8867V37.0842C25.3081 36.9847 25.3476 36.8893 25.418 36.8189C25.4884 36.7485 25.5838 36.709 25.6834 36.709C29.6338 36.4137 33.6007 36.4137 37.5511 36.709Z" fill="#FFE4DC"/>
<path d="M33.2634 18.227C33.1696 17.0636 33.1602 15.9003 33.1508 14.737C33.1414 13.5737 33.1508 12.401 33.2634 11.2377C33.3572 12.401 33.3572 13.5737 33.376 14.737C33.3947 15.9003 33.3572 17.0636 33.2634 18.227Z" fill="#027168"/>
<path d="M38.9118 60.2098C38.9118 57.3015 38.8461 54.3838 38.8461 51.4755V42.7318C38.8461 39.8142 38.8461 36.9059 38.8461 33.9882V25.2445C38.7628 24.6521 38.572 24.0798 38.2832 23.5559C37.9958 23.0247 37.6496 22.5275 37.2512 22.0736C36.4485 21.1692 35.5415 20.3631 34.5493 19.6719C35.5602 20.3429 36.4863 21.1335 37.3075 22.0267C37.7198 22.4768 38.0816 22.9707 38.3864 23.4996C38.6883 24.0361 38.8856 24.6251 38.968 25.2352V33.9788C38.968 36.8965 38.968 39.8048 38.968 42.7225V51.4661C38.9774 54.3838 38.9399 57.3015 38.9118 60.2098Z" fill="#027168"/>
</svg>
