<svg width="64" height="64" viewBox="0 0 64 64" fill="none" xmlns="http://www.w3.org/2000/svg">
<g clip-path="url(#clip0_808_24322)">
<ellipse cx="31.2208" cy="40.7291" rx="27.5167" ry="3.70417" fill="white"/>
<path fill-rule="evenodd" clip-rule="evenodd" d="M58.3917 41.2041C61.623 40.4583 63.5 39.5683 63.5 38.6125C63.5 35.9822 49.285 33.85 31.75 33.85C14.215 33.85 0 35.9822 0 38.6125C0 39.4093 1.30468 40.1605 3.6111 40.8205C6.83098 39.2436 17.7353 38.0833 30.6917 38.0833C44.6782 38.0833 56.2735 39.4355 58.3917 41.2041Z" fill="#97B9D6"/>
<path d="M13.2883 34.0305C11.5202 33.0268 11.5092 31.8822 9.97325 31.4947C9.70563 31.4354 9.42868 31.4316 9.15955 31.4836C8.89042 31.5356 8.63483 31.6423 8.40858 31.7971C8.04337 32.0514 7.73786 32.3822 7.51325 32.7664C7.3645 32.9577 7.29155 33.1422 7.12906 33.3219C6.226 34.2029 4.86251 32.731 4.04836 32.4458C3.7883 32.321 3.50597 32.2494 3.21787 32.2351C2.92978 32.2208 2.64173 32.2641 2.37059 32.3625C2.09944 32.4609 1.85065 32.6124 1.63879 32.8082C1.42693 33.0039 1.25626 33.24 1.13676 33.5025C-0.398099 36.1826 2.86056 37.0558 2.79897 37.9523C2.73737 38.8487 1.95716 40.4062 3.73183 41.4857C5.95921 42.7928 8.01133 40.9331 9.03328 41.5565C10.3728 42.3176 9.34276 44.0752 11.5712 45.395C12.9107 46.1561 14.3153 45.3331 15.3842 45.3287C19.1446 50.9187 25.0076 47.2235 25.0076 47.2235C23.8975 46.8684 22.8693 46.2953 21.9834 45.5379C21.0975 44.7804 20.3716 43.8539 19.8483 42.8124C18.5805 40.543 20.3906 36.9351 18.1859 35.015C16.1045 33.3386 14.7365 34.8712 13.3388 34.0261L13.2883 34.0305Z" fill="#0ACB81"/>
<path d="M12.9893 41.8212C13.217 39.5155 12.7706 37.1933 11.7044 35.1363C11.6306 35.0166 11.5144 34.9291 11.3789 34.8914C11.2435 34.8537 11.0988 34.8685 10.9738 34.9329C10.8613 34.9909 10.7762 35.0907 10.7367 35.2108C10.6972 35.3309 10.7065 35.4618 10.7626 35.5751C11.617 37.2002 12.0513 39.0132 12.026 40.849C11.1399 39.9767 10.0888 39.2897 8.93421 38.8282L8.91874 38.6514C8.7185 37.4225 8.17701 36.2746 7.356 35.3385C7.31962 35.2793 7.27085 35.2286 7.21302 35.1899C7.1552 35.1513 7.08969 35.1256 7.02101 35.1147C6.95233 35.1038 6.8821 35.1079 6.81514 35.1267C6.74818 35.1455 6.68609 35.1785 6.63312 35.2236C6.54067 35.3182 6.48675 35.4438 6.48185 35.576C6.47694 35.7082 6.52141 35.8375 6.60659 35.9387C7.20084 36.6804 7.61272 37.5512 7.80915 38.4811C6.70935 38.1318 5.6233 37.7941 4.45213 37.5019C4.3201 37.4784 4.18412 37.5081 4.07392 37.5845C3.96372 37.6609 3.88827 37.7779 3.86408 37.9098C3.8525 37.9743 3.85387 38.0406 3.86811 38.1046C3.88235 38.1686 3.90916 38.2291 3.94701 38.2826C3.98486 38.3362 4.03299 38.3817 4.08858 38.4165C4.14417 38.4512 4.20613 38.4746 4.27084 38.4852C5.61281 38.7403 6.926 39.1286 8.19095 39.6443C10.3133 40.6111 12.1086 42.1745 13.358 44.1438C13.6542 44.4743 13.8609 44.7999 14.1571 45.1304C14.1592 45.1538 14.1705 45.1755 14.1885 45.1907C14.2065 45.2058 14.2299 45.2131 14.2533 45.2111C14.2941 45.2644 14.3461 45.3081 14.4057 45.3391C14.4653 45.37 14.531 45.3874 14.5981 45.39C14.6652 45.3927 14.732 45.3805 14.7938 45.3543C14.8557 45.3282 14.911 45.2887 14.9558 45.2387L15.0365 45.1426C15.3546 44.7165 15.6386 44.266 15.8861 43.7953C16.6138 42.5118 16.929 41.0355 16.789 39.5667C16.768 39.4297 16.6979 39.305 16.5917 39.2159C16.4855 39.1268 16.3506 39.0794 16.212 39.0826L16.1236 39.0903C15.9962 39.1143 15.8833 39.1875 15.8093 39.2939C15.7353 39.4004 15.706 39.5317 15.7279 39.6595C15.7635 41.1544 15.3713 42.6285 14.5975 43.9081C14.4937 43.739 14.3013 43.5776 14.2101 43.4073C13.8843 42.7993 13.4755 42.2396 12.9953 41.7443L12.9893 41.8212Z" fill="#07AA7C" stroke="#0ACB81" stroke-width="0.25"/>
<path d="M49.2828 34.0304C51.0508 33.0267 51.0619 31.8821 52.5978 31.4946C52.8654 31.4352 53.1424 31.4315 53.4115 31.4835C53.6806 31.5355 53.9362 31.6422 54.1625 31.7969C54.5277 32.0513 54.8332 32.3821 55.0578 32.7663C55.2065 32.9575 55.2795 33.1421 55.442 33.3218C56.345 34.2028 57.7085 32.7309 58.5227 32.4457C58.7827 32.3209 59.0651 32.2493 59.3532 32.235C59.6413 32.2207 59.9293 32.264 60.2005 32.3624C60.4716 32.4608 60.7204 32.6123 60.9323 32.808C61.1441 33.0038 61.3148 33.2398 61.4343 33.5024C62.9691 36.1825 59.7105 37.0557 59.7721 37.9521C59.8337 38.8486 60.6139 40.4061 58.8392 41.4856C56.6118 42.7927 54.5597 40.9329 53.5378 41.5563C52.1983 42.3175 53.2283 44.0751 50.9998 45.3949C49.6603 46.156 48.2557 45.333 47.1869 45.3286C43.4265 50.9186 37.5635 47.2234 37.5635 47.2234C38.6736 46.8683 39.7017 46.2952 40.5876 45.5377C41.4735 44.7803 42.1994 43.8537 42.7228 42.8123C43.9906 40.5429 42.1805 36.935 44.3851 35.0148C46.4666 33.3385 47.8345 34.8711 49.2323 34.026L49.2828 34.0304Z" fill="#0ACB81"/>
<path d="M49.5817 41.8211C49.3541 39.5154 49.8004 37.1932 50.8667 35.1362C50.9404 35.0165 51.0567 34.929 51.1921 34.8913C51.3276 34.8536 51.4723 34.8684 51.5973 34.9328C51.7097 34.9907 51.7949 35.0905 51.8344 35.2107C51.8739 35.3308 51.8645 35.4617 51.8084 35.575C50.954 37.2001 50.5198 39.0131 50.5451 40.8489C51.4312 39.9766 52.4822 39.2896 53.6368 38.8281L53.6523 38.6513C53.8525 37.4224 54.394 36.2745 55.215 35.3384C55.2514 35.2791 55.3002 35.2284 55.358 35.1898C55.4158 35.1512 55.4814 35.1255 55.55 35.1146C55.6187 35.1037 55.6889 35.1078 55.7559 35.1265C55.8229 35.1453 55.885 35.1784 55.9379 35.2235C56.0304 35.3181 56.0843 35.4437 56.0892 35.5759C56.0941 35.7081 56.0496 35.8374 55.9645 35.9386C55.3702 36.6803 54.9583 37.5511 54.7619 38.481C55.8617 38.1317 56.9477 37.7939 58.1189 37.5018C58.2509 37.4782 58.3869 37.508 58.4971 37.5844C58.6073 37.6608 58.6828 37.7778 58.707 37.9097C58.7185 37.9742 58.7172 38.0404 58.7029 38.1044C58.6887 38.1684 58.6619 38.229 58.624 38.2825C58.5862 38.3361 58.5381 38.3816 58.4825 38.4164C58.4269 38.4511 58.3649 38.4745 58.3002 38.4851C56.9582 38.7402 55.645 39.1285 54.3801 39.6441C52.2577 40.611 50.4625 42.1744 49.2131 44.1437C48.9168 44.4742 48.7101 44.7998 48.4139 45.1303C48.4119 45.1537 48.4006 45.1754 48.3825 45.1905C48.3645 45.2057 48.3412 45.213 48.3177 45.211C48.277 45.2643 48.2249 45.308 48.1653 45.339C48.1057 45.3699 48.0401 45.3873 47.973 45.3899C47.9059 45.3926 47.8391 45.3804 47.7772 45.3542C47.7154 45.3281 47.6601 45.2886 47.6152 45.2386L47.5345 45.1424C47.2165 44.7163 46.9324 44.2659 46.685 43.7952C45.9572 42.5117 45.642 41.0354 45.782 39.5665C45.803 39.4295 45.8732 39.3049 45.9793 39.2158C46.0855 39.1267 46.2205 39.0793 46.359 39.0824L46.4475 39.0902C46.5749 39.1142 46.6877 39.1874 46.7618 39.2938C46.8358 39.4003 46.865 39.5316 46.8432 39.6594C46.8076 41.1543 47.1997 42.6283 47.9735 43.9079C48.0774 43.7388 48.2697 43.5774 48.361 43.4072C48.6868 42.7992 49.0956 42.2395 49.5757 41.7442L49.5817 41.8211Z" fill="#07AA7C" stroke="#0ACB81" stroke-width="0.25"/>
<path d="M60.3797 30.6989C61.403 32.079 57.971 36.5999 57.971 36.5999C57.971 36.5999 60.532 41.7675 59.219 42.8764C56.5581 45.12 47.3741 35.5764 47.3741 35.5764C47.3741 35.5764 58.1851 27.9941 60.3797 30.6989Z" fill="#C2DDF1"/>
<path d="M17.8116 22.167C17.8116 22.167 24.8277 11.2525 41.0503 13.4115C41.2927 13.4466 41.524 13.5366 41.7265 13.6747C41.929 13.8128 42.0973 13.9953 42.2187 14.2082C42.3401 14.4212 42.4114 14.659 42.427 14.9035C42.4426 15.1481 42.4021 15.3928 42.3087 15.6192L35.0963 32.2837L17.8116 22.167Z" fill="#C2DDF1"/>
<path d="M9.58887 31.354C9.2561 30.3108 8.58625 29.4074 7.68475 28.7858C7.65037 28.7616 7.6214 28.7305 7.59962 28.6945C7.57783 28.6585 7.56371 28.6184 7.55819 28.5767C7.55266 28.535 7.55587 28.4926 7.56755 28.4523C7.57922 28.4119 7.59912 28.3743 7.62602 28.3421C10.3784 24.6315 8.81156 21.7266 13.0669 19.9284C17.3222 18.1301 21.9827 17.5039 26.5653 18.1147C38.4782 19.2727 46.7617 30.6274 49.9328 34.5035C50.0749 34.6755 50.1818 34.8739 50.2473 35.0871C50.3127 35.3004 50.3354 35.5245 50.3142 35.7464C50.293 35.9684 50.2282 36.1839 50.1236 36.3806C50.0189 36.5774 49.8765 36.7515 49.7044 36.8929C45.8137 40.1025 35.557 49.2711 23.6442 48.1131C19.029 47.8223 14.5743 46.2975 10.7451 43.6978C6.91604 41.0982 9.11514 37.519 7.13774 33.3338C7.10113 33.2578 7.09538 33.1706 7.12168 33.0905C7.14798 33.0104 7.20429 32.9437 7.27879 32.9043C8.02417 32.5777 8.74478 32.1973 9.43489 31.7661C9.49321 31.716 9.5379 31.6519 9.56482 31.5799C9.59175 31.5079 9.60001 31.4302 9.58887 31.354Z" fill="#6E8DAD"/>
<mask id="mask0_808_24322" style="mask-type:alpha" maskUnits="userSpaceOnUse" x="6" y="19" width="15" height="24">
<path d="M6.77591 29.6104C7.63765 25.1021 8.97402 21.534 11.7107 19.9789C12.6112 19.351 13.7514 19.0594 14.8905 19.1658C15.1864 19.2048 15.4794 19.2598 15.7678 19.3304C19.3258 20.3518 21.2971 25.6662 20.1277 31.6184C18.9125 37.957 14.706 42.6605 10.7152 42.1271C10.5519 42.1013 10.3911 42.0642 10.2342 42.0163C9.63499 41.8731 9.07821 41.6147 8.60326 41.2592C6.01233 39.41 5.80764 34.7109 6.77591 29.6104Z" fill="#FDF2CA"/>
</mask>
<g mask="url(#mask0_808_24322)">
<path d="M6.77591 29.6104C7.63765 25.1021 8.97402 21.534 11.7107 19.9789C12.6112 19.351 13.7514 19.0594 14.8905 19.1658C15.1864 19.2048 15.4794 19.2598 15.7678 19.3304C19.3258 20.3518 21.2971 25.6662 20.1277 31.6184C18.9125 37.957 14.706 42.6605 10.7152 42.1271C10.5519 42.1013 10.3911 42.0642 10.2342 42.0163C9.63499 41.8731 9.07821 41.6147 8.60326 41.2592C6.01233 39.41 5.80764 34.7109 6.77591 29.6104Z" fill="white"/>
<path opacity="0.7" d="M4.64417 32.1205C5.12859 25.6029 7.17193 20.1147 11.4494 17.9125C12.4965 17.0967 13.8889 16.8029 15.3327 17.0932C15.7093 17.1854 16.0843 17.3007 16.4557 17.4383L16.6501 17.5364C18.9953 18.6104 20.8782 22.3504 20.9084 26.3035C20.7019 26.2616 14.8245 21.3257 11.5061 22.985C8.31779 24.5793 6.40881 31.8991 5.9244 38.4168C5.84239 39.6201 5.80628 40.8327 5.78252 41.9657C5.28515 38.6217 4.32777 35.3323 4.64417 32.1205Z" fill="#C2DDF1"/>
</g>
<path d="M26.5346 41.1503C26.4453 42.0844 25.9892 42.9443 25.2662 43.5412C24.5433 44.1381 23.6128 44.4232 22.6788 44.334C22.4384 44.2948 22.2227 44.1634 22.0776 43.9676C21.9324 43.7718 21.8692 43.5271 21.9016 43.2857C21.9424 43.042 22.0761 42.8238 22.2744 42.6767C22.4727 42.5296 22.7204 42.4652 22.9655 42.497C23.4116 42.5422 23.8573 42.4088 24.2047 42.1258C24.5521 41.8428 24.7731 41.4334 24.8191 40.9873C24.8541 40.5415 24.7138 40.0994 24.4281 39.755C24.1425 39.4106 23.7341 39.1911 23.2896 39.1431C23.0588 39.1026 22.8514 38.9768 22.7086 38.7906C22.5659 38.6045 22.4982 38.3715 22.519 38.138C22.5398 37.9046 22.6475 37.6876 22.8208 37.5301C22.9942 37.3726 23.2204 37.2862 23.4547 37.2879C23.9009 37.3332 24.3465 37.1997 24.6939 36.9167C25.0414 36.6337 25.2623 36.2243 25.3084 35.7782C25.3471 35.333 25.2109 34.89 24.9285 34.5432C24.6462 34.1964 24.24 33.9732 23.7963 33.921C23.556 33.8819 23.3402 33.7504 23.1951 33.5546C23.0499 33.3588 22.9868 33.1142 23.0192 32.8728C23.06 32.6291 23.1936 32.4108 23.3919 32.2638C23.5903 32.1167 23.8379 32.0523 24.083 32.084C24.3255 32.1575 24.5813 32.1755 24.8316 32.137C25.0818 32.0985 25.3202 32.0043 25.5291 31.8614C25.738 31.7185 25.9122 31.5305 26.0388 31.3113C26.1654 31.092 26.2412 30.8471 26.2607 30.5945C26.2801 30.3419 26.2427 30.088 26.1512 29.8515C26.0597 29.6151 25.9165 29.4021 25.732 29.2282C25.5474 29.0543 25.3264 28.924 25.0851 28.8467C24.8437 28.7695 24.5882 28.7473 24.3374 28.7818C24.1065 28.7413 23.8991 28.6155 23.7564 28.4294C23.6136 28.2432 23.546 28.0103 23.5667 27.7768C23.5875 27.5434 23.6952 27.3263 23.8686 27.1689C24.0419 27.0114 24.2682 26.9249 24.5025 26.9266C24.7305 26.964 24.9637 26.9543 25.1877 26.8982C25.4117 26.8421 25.6218 26.7407 25.8051 26.6003C25.9884 26.4599 26.1409 26.2834 26.2534 26.0818C26.3659 25.8801 26.436 25.6575 26.4593 25.4276C26.4826 25.1977 26.4588 24.9653 26.3891 24.7449C26.3194 24.5244 26.2054 24.3204 26.0541 24.1455C25.9028 23.9705 25.7175 23.8284 25.5094 23.7276C25.3013 23.6269 25.0749 23.5698 24.8441 23.5598C24.7238 23.5431 24.6081 23.5026 24.5036 23.4405C24.3991 23.3785 24.308 23.2963 24.2356 23.1987C24.1632 23.101 24.1111 22.99 24.0821 22.872C24.0531 22.754 24.0479 22.6315 24.0669 22.5116C24.1056 22.2711 24.2367 22.0555 24.4321 21.9106C24.6276 21.7657 24.872 21.7029 25.1133 21.7357C26.0505 21.8288 26.9133 22.2893 27.5132 23.0165C28.1131 23.7436 28.4013 24.6783 28.3148 25.6163C28.262 26.1085 28.1097 26.5846 27.8672 27.0158C27.6247 27.4469 27.297 27.8241 26.904 28.1243C27.2394 28.4863 27.4936 28.9157 27.6496 29.3839C27.8055 29.852 27.8596 30.3479 27.8081 30.8383C27.757 31.3272 27.6071 31.8005 27.3676 32.2294C27.1281 32.6583 26.8039 33.0339 26.4147 33.3334C26.7468 33.6998 26.9986 34.1316 27.1541 34.601C27.3096 35.0703 27.3652 35.5668 27.3175 36.0586C27.2698 36.5504 27.1197 37.0266 26.877 37.4566C26.6342 37.8866 26.3042 38.2609 25.908 38.5554C26.1791 38.9251 26.3741 39.3449 26.4817 39.7903C26.5892 40.2358 26.6072 40.6981 26.5346 41.1503Z" fill="#E0EFF8"/>
<path d="M34.145 39.2717C34.0557 40.2059 33.5995 41.0657 32.8766 41.6626C32.1536 42.2595 31.2231 42.5447 30.2891 42.4554C30.1688 42.4387 30.0531 42.3982 29.9486 42.3362C29.8441 42.2741 29.753 42.1919 29.6806 42.0943C29.6083 41.9967 29.5561 41.8856 29.5271 41.7676C29.4981 41.6496 29.4929 41.5271 29.5119 41.4072C29.5506 41.1668 29.6817 40.9511 29.8772 40.8062C30.0726 40.6613 30.317 40.5985 30.5583 40.6313C30.8009 40.7047 31.0567 40.7229 31.3069 40.6843C31.5572 40.6458 31.7955 40.5516 32.0044 40.4087C32.2133 40.2658 32.3875 40.0778 32.5141 39.8585C32.6407 39.6393 32.7166 39.3944 32.736 39.1417C32.7555 38.8891 32.7181 38.6353 32.6266 38.3988C32.5351 38.1624 32.3918 37.9494 32.2073 37.7755C32.0228 37.6016 31.8018 37.4712 31.5604 37.394C31.3191 37.3167 31.0636 37.2946 30.8128 37.3291C30.5819 37.2886 30.3745 37.1628 30.2318 36.9767C30.089 36.7905 30.0213 36.5576 30.0421 36.3241C30.0629 36.0906 30.1706 35.8736 30.3439 35.7161C30.5172 35.5586 30.7435 35.4722 30.9778 35.4739C31.2203 35.5473 31.4762 35.5655 31.7264 35.5269C31.9767 35.4884 32.2151 35.3942 32.424 35.2513C32.6329 35.1084 32.807 34.9204 32.9336 34.7012C33.0602 34.4819 33.136 34.237 33.1555 33.9843C33.175 33.7317 33.1376 33.4779 33.0461 33.2414C32.9546 33.005 32.8114 32.792 32.6268 32.6181C32.4423 32.4442 32.2213 32.3138 31.9799 32.2366C31.7386 32.1593 31.4831 32.1372 31.2322 32.1717C31.112 32.155 30.9962 32.1144 30.8917 32.0524C30.7873 31.9904 30.6962 31.9082 30.6238 31.8106C30.5514 31.713 30.4992 31.6019 30.4702 31.4839C30.4412 31.3659 30.4361 31.2434 30.455 31.1235C30.4938 30.883 30.6248 30.6674 30.8203 30.5225C31.0157 30.3776 31.2602 30.3148 31.5015 30.3476C31.744 30.421 31.9998 30.4391 32.2501 30.4006C32.5003 30.3621 32.7387 30.2679 32.9476 30.125C33.1565 29.9821 33.3307 29.7941 33.4573 29.5749C33.5839 29.3556 33.6597 29.1106 33.6791 28.858C33.6986 28.6054 33.6612 28.3516 33.5697 28.1151C33.4782 27.8787 33.335 27.6657 33.1505 27.4918C32.966 27.3179 32.7449 27.1875 32.5035 27.1103C32.2622 27.033 32.0067 27.0109 31.7559 27.0454C31.525 27.0049 31.3176 26.8791 31.1749 26.693C31.0321 26.5068 30.9644 26.2739 30.9852 26.0404C31.006 25.8069 31.1137 25.5899 31.2871 25.4324C31.4604 25.275 31.6866 25.1885 31.9209 25.1902C32.3861 25.2335 32.8383 25.3686 33.2513 25.5874C33.6644 25.8062 34.0302 26.1045 34.3278 26.4652C34.6254 26.8259 34.8488 27.2418 34.9852 27.689C35.1216 28.1362 35.1682 28.6058 35.1225 29.0708C35.0714 29.5597 34.9215 30.033 34.682 30.4619C34.4425 30.8908 34.1183 31.2664 33.7291 31.5659C34.0611 31.9323 34.3129 32.3641 34.4684 32.8335C34.6238 33.3028 34.6796 33.7994 34.6318 34.2912C34.5841 34.783 34.4341 35.2592 34.1913 35.6892C33.9486 36.1192 33.6185 36.4935 33.2224 36.788C33.5317 37.1212 33.7724 37.5121 33.9307 37.9383C34.089 38.3645 34.1619 38.8176 34.145 39.2717Z" fill="#E0EFF8"/>
<path d="M41.8346 37.3605C41.7453 38.2947 41.2891 39.1545 40.5662 39.7514C39.8433 40.3483 38.9127 40.6334 37.9788 40.5442C37.8585 40.5275 37.7427 40.4869 37.6382 40.4249C37.5338 40.3629 37.4427 40.2807 37.3703 40.183C37.2979 40.0854 37.2457 39.9744 37.2167 39.8564C37.1878 39.7384 37.1826 39.6159 37.2016 39.4959C37.2403 39.2555 37.3713 39.0399 37.5668 38.895C37.7622 38.7501 38.0067 38.6873 38.248 38.7201C38.4905 38.7935 38.7463 38.8116 38.9966 38.7731C39.2468 38.7346 39.4852 38.6404 39.6941 38.4975C39.903 38.3546 40.0772 38.1666 40.2038 37.9474C40.3304 37.7281 40.4062 37.4831 40.4256 37.2305C40.4451 36.9779 40.4077 36.7241 40.3162 36.4876C40.2247 36.2512 40.0815 36.0382 39.897 35.8643C39.7125 35.6904 39.4914 35.56 39.25 35.4828C39.0087 35.4055 38.7532 35.3834 38.5024 35.4179C38.2715 35.3774 38.0641 35.2516 37.9214 35.0654C37.7786 34.8793 37.7109 34.6464 37.7317 34.4129C37.7525 34.1794 37.8602 33.9624 38.0335 33.8049C38.2069 33.6475 38.4331 33.561 38.6674 33.5627C38.8955 33.6 39.1287 33.5904 39.3527 33.5343C39.5767 33.4782 39.7868 33.3767 39.97 33.2364C40.1533 33.096 40.3059 32.9195 40.4184 32.7178C40.5309 32.5162 40.601 32.2935 40.6243 32.0636C40.6476 31.8337 40.6237 31.6014 40.554 31.3809C40.4844 31.1605 40.3704 30.9565 40.2191 30.7815C40.0678 30.6066 39.8824 30.4644 39.6744 30.3637C39.4663 30.263 39.2398 30.2059 39.009 30.1958C38.8888 30.1791 38.773 30.1386 38.6685 30.0766C38.564 30.0146 38.473 29.9323 38.4006 29.8347C38.3282 29.7371 38.276 29.626 38.247 29.508C38.218 29.3901 38.2129 29.2675 38.2318 29.1476C38.2706 28.9072 38.4016 28.6916 38.5971 28.5467C38.7925 28.4017 39.0369 28.3389 39.2782 28.3717C39.9895 28.4458 40.6625 28.7323 41.2095 29.1939C41.7566 29.6555 42.1524 30.2709 42.3455 30.96C42.5387 31.6491 42.5203 32.3801 42.2926 33.0579C42.0649 33.7357 41.6386 34.3289 41.069 34.7604C41.365 35.1201 41.5854 35.5359 41.7169 35.9827C41.8485 36.4295 41.8885 36.8982 41.8346 37.3605Z" fill="#E0EFF8"/>
<path d="M19.2224 19.3629C18.5784 16.9974 24.0425 17.8629 26.6477 17.8945L31.4774 18.5533C33.7379 19.0863 36.1067 19.6089 36.8653 20.0645C37.8136 20.634 38.5083 22.7002 36.8322 23.3425C35.1561 23.9849 33.5751 27.4168 32.0244 27.0511C29.7639 26.518 30.3814 24.4154 28.1209 23.8824C25.8604 23.3493 24.6254 27.5545 22.7288 26.4155C22.0913 26.0327 23.8405 22.8559 23.0156 21.6408C22.1884 20.4225 19.6255 20.8432 19.2224 19.3629Z" fill="#FBE297"/>
<circle cx="27.7292" cy="19.7439" r="0.60503" fill="#861719"/>
<path d="M21.8202 19.1805C21.6184 20.1669 23.1347 21.0423 23.888 20.3744C24.0898 19.3881 22.5734 18.5126 21.8202 19.1805Z" fill="white"/>
<rect x="25.0717" y="22.1062" width="1.21006" height="1.21006" transform="rotate(80 25.0717 22.1062)" fill="#0ACB81"/>
<circle cx="35.3411" cy="21.3776" r="0.60503" fill="#F43B3B"/>
<rect x="31.2004" y="20.7726" width="1.21006" height="1.21006" transform="rotate(30 31.2004 20.7726)" fill="#0ACB81"/>
<path d="M31.6152 24.6183C31.693 23.6145 33.392 23.1909 33.9319 24.0406C33.8541 25.0443 32.1551 25.4679 31.6152 24.6183Z" fill="white"/>
<path d="M11.4356 31.9203C10.4572 31.6432 9.98621 30.2737 10.3835 28.8614C10.7807 27.449 11.8958 26.5287 12.8741 26.8057C13.8524 27.0827 14.3235 28.4522 13.9262 29.8645C13.529 31.2769 12.4139 32.1973 11.4356 31.9203Z" fill="#97B9D6"/>
<path d="M11.4131 30.794C11.0535 31.4087 10.8029 32.0812 10.6725 32.7818C10.5474 33.4605 10.5023 34.1518 10.5379 34.8413C10.5852 35.5203 10.6967 36.1934 10.871 36.8516C11.0486 37.5065 11.2749 38.1473 11.548 38.7685C11.3231 38.1344 11.1481 37.4837 11.0245 36.8224C10.9025 36.168 10.8432 35.5036 10.8474 34.8381C10.8755 34.1705 10.9795 33.5084 11.1574 32.8646C11.3171 32.2466 11.5831 31.6613 11.9435 31.1349L11.4131 30.794Z" fill="#97B9D6"/>
<path d="M7.90304 45.5494L2.1167 40.2526C2.1167 40.2526 13.2292 42.5282 31.75 42.5282C50.2709 42.5282 61.3834 40.3056 61.3834 40.3056L56.288 45.316C55.4604 46.1298 54.4724 46.7631 53.3498 47.0579C50.4225 47.8263 43.5509 49.1956 31.75 49.1956C19.6871 49.1956 13.0609 47.7648 10.3987 47.0076C9.45581 46.7394 8.6261 46.2113 7.90304 45.5494Z" fill="#D1E1EE" stroke="#D1E1EE" stroke-width="1.05833"/>
<path opacity="0.4" d="M35.9834 46.5498C29.6334 47.0789 17.1451 46.6556 11.6417 44.9623" stroke="#97B9D6" stroke-width="1.05833" stroke-linecap="round"/>
</g>
<defs>
<clipPath id="clip0_808_24322">
<rect width="64" height="64" fill="white"/>
</clipPath>
</defs>
</svg>
