<svg width="64" height="64" viewBox="0 0 64 64" fill="none" xmlns="http://www.w3.org/2000/svg">
<ellipse cx="32.354" cy="50.6934" rx="25.354" ry="5.30665" fill="#72AFFF"/>
<ellipse cx="32.354" cy="49.717" rx="25.354" ry="4.71703" fill="#B0D6FF"/>
<ellipse cx="32.354" cy="29.0563" rx="17.0992" ry="3.53777" fill="#B0D6FF"/>
<ellipse cx="32.354" cy="31.4148" rx="15.92" ry="3.53777" fill="#4D3228"/>
<path fill-rule="evenodd" clip-rule="evenodd" d="M48.0539 32.0045C48.1986 31.8128 48.274 31.6158 48.274 31.4148C48.274 29.461 41.1464 27.8771 32.354 27.8771C23.5617 27.8771 16.4341 29.461 16.4341 31.4148C16.4341 31.6157 16.5094 31.8127 16.6542 32.0045C17.9175 30.3313 24.4657 29.0564 32.354 29.0564C40.2424 29.0564 46.7907 30.3313 48.0539 32.0045Z" fill="#2D140A"/>
<path d="M18.8779 13.3795C19.9273 14.807 23.2565 28.3361 25.0351 29.804C25.9305 30.1191 27.8257 30.9339 28.243 31.6725C28.7647 32.5957 29.384 33.4963 29.808 34.4421C30.1472 35.1986 31.1258 37.4774 31.5727 38.5222L30.9121 38.7791L29.0256 34.6146C28.9093 34.3579 28.6067 34.2443 28.3502 34.361C28.0932 34.478 27.9803 34.7816 28.0984 35.038L30.3598 39.9503L29.475 40.572L26.86 34.6061C26.7446 34.3428 26.4362 34.2249 26.1746 34.344C25.9211 34.4593 25.8052 34.7552 25.9127 35.0121L28.4696 41.1172L27.7343 41.4957L25.2662 36.1689C25.1582 35.9356 24.8801 35.836 24.6485 35.9475C24.4206 36.0572 24.3238 36.3302 24.4317 36.559L26.8556 41.6985L26.1203 42.077L25.6734 41.0322L23.834 37.0736C23.5935 36.329 23.0622 34.6218 22.8609 33.7499C22.6551 32.8582 23.5003 31.6194 23.5187 30.3628C23.5371 29.1062 15.3096 16.1862 15.058 15.0963C14.7787 13.8868 14.4988 11.8841 14.3121 10.3808C14.2668 10.0165 14.4865 9.67213 14.8351 9.55704C15.1123 9.46553 15.4171 9.53735 15.6215 9.74574C16.5619 10.7045 18.1358 12.37 18.8779 13.3795Z" fill="#BAD3E8"/>
<mask id="mask0_808_22888" style="mask-type:alpha" maskUnits="userSpaceOnUse" x="14" y="9" width="18" height="34">
<path d="M18.8779 13.3795C19.9273 14.807 23.2565 28.3361 25.0351 29.804C25.9305 30.1191 27.8257 30.9339 28.243 31.6725C28.7647 32.5957 29.384 33.4963 29.808 34.4421C30.1472 35.1986 31.1258 37.4774 31.5727 38.5222L30.9121 38.7791L29.0256 34.6146C28.9093 34.3579 28.6067 34.2443 28.3502 34.361C28.0932 34.478 27.9803 34.7816 28.0984 35.038L30.3598 39.9503L29.475 40.572L26.86 34.6061C26.7446 34.3428 26.4362 34.2249 26.1746 34.344C25.9211 34.4593 25.8052 34.7552 25.9127 35.0121L28.4696 41.1172L27.7343 41.4957L25.2662 36.1689C25.1582 35.9356 24.8801 35.836 24.6485 35.9475C24.4206 36.0572 24.3238 36.3302 24.4317 36.559L26.8556 41.6985L26.1203 42.077L25.6734 41.0322L23.834 37.0736C23.5935 36.329 23.0622 34.6218 22.8609 33.7499C22.6551 32.8582 23.5003 31.6194 23.5187 30.3628C23.5371 29.1062 15.3096 16.1862 15.058 15.0963C14.7787 13.8868 14.4988 11.8841 14.3121 10.3808C14.2668 10.0165 14.4865 9.67213 14.8351 9.55704C15.1123 9.46553 15.4171 9.53735 15.6215 9.74574C16.5619 10.7045 18.1358 12.37 18.8779 13.3795Z" fill="#719BBE"/>
</mask>
<g mask="url(#mask0_808_22888)">
<rect x="17.6223" y="10.5956" width="2.70543" height="9.01811" transform="rotate(20 17.6223 10.5956)" fill="#DFEDF9"/>
<rect x="20.0252" y="13.835" width="0.901811" height="9.01811" transform="rotate(20 20.0252 13.835)" fill="#DFEDF9"/>
</g>
<path fill-rule="evenodd" clip-rule="evenodd" d="M15.2548 29.0686C15.2566 39.6787 17.6188 51.4623 31.7644 51.4623C45.9155 51.4623 49.4533 39.6697 49.4533 29.0564H49.4532C49.4531 31.0102 41.7975 32.5941 32.3539 32.5941C22.93 32.5941 15.2867 31.0168 15.2548 29.0686Z" fill="#CEE5FF"/>
<path fill-rule="evenodd" clip-rule="evenodd" d="M50.6325 39.6696C53.2376 39.6696 55.3495 37.5578 55.3495 34.9526C55.3495 32.3475 53.2376 30.2356 50.6325 30.2356C48.0274 30.2356 45.9155 32.3475 45.9155 34.9526C45.9155 37.5578 48.0274 39.6696 50.6325 39.6696ZM50.6324 37.3112C51.935 37.3112 52.9909 36.2552 52.9909 34.9526C52.9909 33.6501 51.935 32.5941 50.6324 32.5941C49.3298 32.5941 48.2739 33.6501 48.2739 34.9526C48.2739 36.2552 49.3298 37.3112 50.6324 37.3112Z" fill="#CEE5FF"/>
<path d="M18.354 35.5C18.5207 38.8333 20.154 45.9 25.354 47.5" stroke="#72AFFF" stroke-linecap="round"/>
<circle cx="28" cy="55" r="0.5" fill="#72AFFF"/>
</svg>
