<svg width="64" height="64" viewBox="0 0 64 64" fill="none" xmlns="http://www.w3.org/2000/svg">
<ellipse cx="31.2208" cy="47.3332" rx="27.5167" ry="3.70417" fill="white"/>
<path fill-rule="evenodd" clip-rule="evenodd" d="M58.3917 47.8083C61.623 47.0624 63.5 46.1724 63.5 45.2166C63.5 42.5863 49.285 40.4541 31.75 40.4541C14.215 40.4541 0 42.5863 0 45.2166C0 46.0135 1.30468 46.7646 3.6111 47.4246C6.83098 45.8478 17.7353 44.6874 30.6917 44.6874C44.6782 44.6874 56.2735 46.0396 58.3917 47.8083Z" fill="#97B9D6"/>
<path d="M31.9554 18.198C33.7533 18.198 35.2108 16.7405 35.2108 14.9425C35.2108 13.1446 33.7533 11.6871 31.9554 11.6871C30.1574 11.6871 28.7 13.1446 28.7 14.9425C28.7 16.7405 30.1574 18.198 31.9554 18.198Z" fill="#F0614A"/>
<path d="M33.5577 12.1265C33.5255 13.2905 33.0504 14.3984 32.2295 15.2242C31.4085 16.0499 30.3034 16.5314 29.1396 16.5704C29.3867 17.0085 29.7318 17.3835 30.1481 17.6658C30.5643 17.9481 31.0403 18.1301 31.5387 18.1975C32.0371 18.265 32.5443 18.2161 33.0207 18.0546C33.497 17.8931 33.9294 17.6234 34.284 17.2667C34.6386 16.91 34.9057 16.4761 35.0644 15.9988C35.2231 15.5216 35.2692 15.014 35.1988 14.516C35.1284 14.018 34.9436 13.5431 34.6589 13.1285C34.3742 12.714 33.9973 12.3709 33.5577 12.1265Z" fill="#EA5242"/>
<path d="M32.4981 13.8573H31.413C31.413 12.5691 31.9247 11.3336 32.8357 10.4227C33.7466 9.51173 34.9821 9 36.2703 9V10.2143C35.2918 10.2138 34.3515 10.5934 33.6476 11.2731C32.9438 11.9528 32.5316 12.8795 32.4981 13.8573Z" fill="#965735"/>
<path d="M36.7079 17.4019C36.6591 16.0411 36.1022 14.748 35.1471 13.7775L34.8696 13.5C34.867 14.1096 34.6446 14.6977 34.2432 15.1564C33.8418 15.6152 33.2884 15.9137 32.6845 15.9972L29.7017 16.3961C28.9105 16.5071 28.1846 16.8961 27.654 17.4935C27.1233 18.0908 26.8226 18.8575 26.8057 19.6563C27.1478 19.5094 27.5104 19.4158 27.8809 19.3788L34.1586 18.6679C35.1316 18.5615 36.0351 18.1128 36.7079 17.4019Z" fill="#FFE4DC"/>
<path d="M27 19C25 19.4 24.5 21.5 24.5 22.5C24 25.5 37.1 29.3 39.5 22.5C41.9 15.7 39.1667 14 37.5 14C37.8334 14 38.7524 15.1981 36.5 17C34 19 29.5 18.5 27 19Z" fill="#FFC3BA"/>
<path d="M40.3899 17C39.6934 18.337 38.7219 19.5211 37.5355 20.479C36.3491 21.4369 34.9731 22.1482 33.4924 22.5691L30.75 23.356C31.314 23.3821 31.8456 23.6196 32.233 24.0184C32.6205 24.4173 32.8336 24.9466 32.8276 25.4949C33.4059 25.7758 34.0357 25.9434 34.6807 25.988C35.3258 26.0325 35.9736 25.9532 36.5871 25.7546C37.2006 25.556 37.7678 25.2419 38.2563 24.8303C38.7448 24.4188 39.1451 23.9178 39.4342 23.356L40.0783 22.105C40.513 21.2445 40.7403 20.2992 40.7431 19.3406C40.7813 18.5456 40.6613 17.7509 40.3899 17Z" fill="#FF9C98"/>
<path d="M51.0587 50.3105C39.7465 51.1201 28.3946 51.2168 17.0703 50.6L12.398 50.3105C11.1795 43.1162 11.0123 35.783 11.9018 28.5406C12.0465 27.3829 12.2119 26.2458 12.398 25.088C25.2681 24.1577 38.1886 24.1577 51.0587 25.088C52.4644 33.4368 52.4644 41.9618 51.0587 50.3105Z" fill="#F9EFDA"/>
<path d="M17.0914 50.6001L12.419 50.3107C11.2005 43.1163 11.0333 35.7832 11.9228 28.5408L16.223 31.2904C16.223 31.2904 15.0446 44.1291 17.0914 50.6001Z" fill="#F6E4C1"/>
<path d="M51.9 43.4314C51.5 48 51.3483 48.6773 51.0796 50.3105C39.7674 51.1201 28.4155 51.2168 17.0912 50.5999L12.4189 50.3105C12.1501 48.6773 12 50 11.55 43.4314L16.1816 43.7002C28.029 44.3445 40.0637 44.2547 51.9 43.4314Z" fill="#E7A561"/>
<path d="M48.6402 41.509C48.4644 41.5068 48.2953 41.4407 48.1647 41.3229C48.0409 41.1956 47.9717 41.025 47.9717 40.8474C47.9717 40.6698 48.0409 40.4993 48.1647 40.3719C48.2941 40.2758 48.4533 40.2286 48.6141 40.2386C48.7749 40.2487 48.927 40.3153 49.0434 40.4268C49.1598 40.5382 49.233 40.6873 49.25 40.8475C49.267 41.0078 49.2268 41.1688 49.1364 41.3022C49.01 41.4292 48.8399 41.5032 48.6609 41.509H48.6402Z" fill="#F6E4C1"/>
<path d="M49.2606 39.2552C49.0847 39.2531 48.9157 39.1869 48.785 39.0692C48.6613 38.9418 48.592 38.7712 48.592 38.5937C48.592 38.4161 48.6613 38.2455 48.785 38.1182C48.8407 38.036 48.9137 37.967 48.9988 37.9159C49.0839 37.8648 49.1791 37.8329 49.2778 37.8224C49.3765 37.8119 49.4763 37.8232 49.5702 37.8552C49.6642 37.8873 49.75 37.9395 49.8217 38.0081C49.8934 38.0767 49.9492 38.1602 49.9853 38.2526C50.0215 38.3451 50.037 38.4443 50.0308 38.5434C50.0246 38.6424 49.9969 38.739 49.9495 38.8262C49.9022 38.9135 49.8364 38.9893 49.7567 39.0485C49.6304 39.1755 49.4603 39.2494 49.2812 39.2552H49.2606Z" fill="#F6E4C1"/>
<path d="M46.9239 39.896C46.7481 39.8938 46.579 39.8277 46.4484 39.7099C46.3246 39.5826 46.2554 39.412 46.2554 39.2344C46.2554 39.0568 46.3246 38.8863 46.4484 38.7589C46.5041 38.6768 46.577 38.6077 46.6621 38.5567C46.7472 38.5056 46.8425 38.4736 46.9412 38.4632C47.0399 38.4527 47.1397 38.4639 47.2336 38.496C47.3275 38.528 47.4133 38.5802 47.485 38.6488C47.5567 38.7175 47.6126 38.8009 47.6487 38.8934C47.6848 38.9858 47.7003 39.0851 47.6941 39.1841C47.688 39.2832 47.6602 39.3797 47.6129 39.467C47.5655 39.5542 47.4998 39.63 47.4201 39.6892C47.2937 39.8162 47.1236 39.8902 46.9446 39.896H46.9239Z" fill="#F6E4C1"/>
<path d="M18.683 40.1182C18.5072 40.116 18.3382 40.0498 18.2075 39.9321C18.0838 39.8047 18.0145 39.6341 18.0145 39.4566C18.0145 39.279 18.0838 39.1084 18.2075 38.981C18.2673 38.9172 18.339 38.8658 18.4186 38.8297C18.4982 38.7937 18.5841 38.7736 18.6714 38.7707C18.7588 38.7679 18.8459 38.7822 18.9277 38.813C19.0095 38.8437 19.0844 38.8903 19.1482 38.9501C19.212 39.0098 19.2634 39.0815 19.2995 39.1611C19.3356 39.2407 19.3556 39.3266 19.3585 39.414C19.3614 39.5013 19.3471 39.5884 19.3163 39.6702C19.2855 39.752 19.2389 39.8269 19.1792 39.8907C19.1193 39.9639 19.0435 40.0225 18.9575 40.0619C18.8715 40.1014 18.7776 40.1206 18.683 40.1182Z" fill="#F6E4C1"/>
<path d="M19.3033 37.8646C19.1274 37.8624 18.9584 37.7962 18.8278 37.6785C18.7053 37.5546 18.6366 37.3875 18.6366 37.2134C18.6366 37.0392 18.7053 36.872 18.8278 36.7482C18.9484 36.6193 19.1153 36.5437 19.2917 36.5378C19.4681 36.532 19.6396 36.5965 19.7684 36.7171C19.8973 36.8378 19.9729 37.0047 19.9788 37.1811C19.9846 37.3575 19.9201 37.529 19.7995 37.6579C19.7376 37.7273 19.6608 37.7819 19.5749 37.8177C19.489 37.8535 19.3962 37.8696 19.3033 37.8646Z" fill="#F6E4C1"/>
<path d="M16.988 38.609C16.8121 38.6068 16.6431 38.5406 16.5125 38.4229C16.3887 38.2956 16.3195 38.125 16.3195 37.9474C16.3195 37.7698 16.3887 37.5993 16.5125 37.4719C16.5741 37.4081 16.6481 37.3574 16.7297 37.3228C16.8114 37.2881 16.8993 37.2703 16.988 37.2703C17.0767 37.2703 17.1645 37.2881 17.2462 37.3228C17.3279 37.3574 17.4018 37.4081 17.4635 37.4719C17.5812 37.5982 17.6466 37.7644 17.6466 37.937C17.6466 38.1097 17.5812 38.2759 17.4635 38.4022C17.4038 38.4689 17.3304 38.522 17.2484 38.5577C17.1663 38.5934 17.0775 38.6109 16.988 38.609Z" fill="#F6E4C1"/>
<path d="M54.3461 28.4993V26.8661C54.3461 25.8407 53.9388 24.8574 53.2137 24.1324C52.4887 23.4073 51.5054 23 50.48 23H13.8454C12.8236 23.0055 11.8456 23.4152 11.125 24.1396C10.4045 24.864 9.99999 25.8443 10 26.8661V28.4993C10 31.8485 10.7649 34.7016 14.7137 34.7016C18.6625 34.7016 19.3654 30.0085 22.5079 30.0085C25.6504 30.0085 27 36 30 36C33 36 33 34 34 34C35 34 35 38 37 38C39 38 39.746 30.0085 41.8589 30.0085C45.0014 30.0085 45.6836 34.7016 49.6324 34.7016C53.5811 34.7016 54.3668 31.8278 54.3668 28.4993H54.3461Z" fill="#DF73C1"/>
<rect x="26.9999" y="31" width="3" height="1" rx="0.5" transform="rotate(-30 26.9999 31)" fill="#FFEDB0"/>
<rect x="14.9999" y="25" width="3" height="1" rx="0.5" transform="rotate(-30 14.9999 25)" fill="white"/>
<rect x="47.9999" y="31" width="3" height="1" rx="0.5" transform="rotate(-30 47.9999 31)" fill="#FFEDB0"/>
<rect width="3" height="1" rx="0.5" transform="matrix(-0.866025 -0.5 -0.5 0.866025 24.964 27)" fill="#DB3D63"/>
<rect width="3" height="1" rx="0.5" transform="matrix(-0.866025 -0.5 -0.5 0.866025 15.964 31)" fill="#DB3D63"/>
<rect x="31.964" y="26" width="3" height="1" rx="0.5" transform="rotate(-30 31.964 26)" fill="#FFEDB0"/>
<rect width="3" height="1" rx="0.5" transform="matrix(-0.866025 -0.5 -0.5 0.866025 37.9281 31)" fill="#DB3D63"/>
<rect x="39.964" y="27" width="3" height="1" rx="0.5" transform="rotate(-30 39.964 27)" fill="white"/>
<rect width="3" height="1" rx="0.5" transform="matrix(-0.866025 -0.5 -0.5 0.866025 50.964 26)" fill="#DB3D63"/>
<path d="M7.90304 52.1535L2.1167 46.8567C2.1167 46.8567 13.2292 49.1323 31.75 49.1323C50.2709 49.1323 61.3834 46.9097 61.3834 46.9097L56.288 51.9201C55.4604 52.7339 54.4724 53.3673 53.3498 53.662C50.4225 54.4305 43.5509 55.7997 31.75 55.7997C19.6871 55.7997 13.0609 54.369 10.3987 53.6117C9.45581 53.3435 8.6261 52.8154 7.90304 52.1535Z" fill="#D1E1EE" stroke="#D1E1EE" stroke-width="1.05833"/>
<path opacity="0.4" d="M35.9834 53.1539C29.6334 53.6831 17.1451 53.2597 11.6417 51.5664" stroke="#97B9D6" stroke-width="1.05833" stroke-linecap="round"/>
</svg>
