<svg width="64" height="64" viewBox="0 0 64 64" fill="none" xmlns="http://www.w3.org/2000/svg">
<g filter="url(#filter0_i_808_22893)">
<path d="M9 8.16003C9 8.16003 17.8193 9.32003 23.5 9.32003C29.1807 9.32003 38 8.16003 38 8.16003L33.5324 55.0697C33.4347 56.0961 32.5725 56.88 31.5414 56.88H15.4586C14.4275 56.88 13.5653 56.0961 13.4676 55.0697L9 8.16003Z" fill="#E0EFF8"/>
</g>
<ellipse cx="23.5" cy="23.24" rx="11.02" ry="1.16" fill="#FFEDB0"/>
<ellipse cx="23.5" cy="8.16" rx="14.5" ry="1.16" fill="#EEF9FC"/>
<path d="M12.48 23.24C12.48 23.24 19.1021 24.4 23.5 24.4C27.8979 24.4 34.52 23.24 34.52 23.24L31.942 52.7341C31.8517 53.7673 30.9867 54.56 29.9496 54.56H17.0504C16.0133 54.56 15.1483 53.7673 15.058 52.7341L12.48 23.24Z" fill="#FFE088"/>
<path d="M15.5 26.38C15.6667 30.38 16.2 39.18 17 42.38" stroke="#FFC03A" stroke-linecap="round"/>
<circle cx="17.5" cy="44.38" r="0.5" fill="#FFC03A"/>
<path d="M42.9192 34.914C41.9662 35.0541 40.9937 34.9719 40.0778 34.6737C39.1619 34.3755 38.3274 33.8695 37.6396 33.1951C36.9518 32.5208 36.4293 31.6965 36.113 30.7867C35.7968 29.8769 35.6953 28.9062 35.8166 27.9506C36.7704 27.8055 37.745 27.8843 38.6632 28.1807C39.5813 28.4771 40.4179 28.9831 41.1069 29.6585C41.7959 30.334 42.3182 31.1604 42.6328 32.0725C42.9473 32.9847 43.0454 33.9574 42.9192 34.914Z" fill="#07AA7C"/>
<path d="M43.0585 37.8155C42.8584 37.7561 42.6807 37.6381 42.5483 37.4767C42.4159 37.3154 42.3349 37.1181 42.3157 36.9103C42.199 36.0044 42.2685 35.0842 42.5199 34.2061C42.7714 33.328 43.1995 32.5106 43.778 31.8038C44.3329 31.078 45.0316 30.4746 45.8304 30.0313C46.6292 29.5879 47.5109 29.3143 48.4203 29.2273C48.6704 29.2204 48.9152 29.2997 49.1138 29.4518C49.3124 29.6039 49.4528 29.8197 49.5112 30.063C49.6737 30.62 49.2095 30.9914 48.6524 31.1539C47.9674 31.2149 47.303 31.4201 46.7029 31.7561C46.1028 32.0922 45.5807 32.5514 45.1707 33.1036C44.7455 33.6181 44.4361 34.2183 44.2639 34.8632C44.0917 35.5081 44.0606 36.1826 44.1727 36.8406C44.1731 37.0899 44.088 37.3319 43.9317 37.5261C43.7755 37.7204 43.5574 37.8553 43.3138 37.9083L43.0585 37.8155Z" fill="#6A3400"/>
<g filter="url(#filter1_i_808_22893)">
<path d="M50.1928 35.5275C49.165 35.2551 48.0684 35.3242 47.0886 35.723C44.4429 36.4752 41.6248 36.5129 38.9574 35.8317C37.9338 35.5501 36.8529 35.5054 35.8069 35.7013C31.7528 36.7008 29.7142 42.2201 31.4749 48.0218C33.2355 53.8235 37.8455 57.6479 41.8995 56.7135C42.6533 56.4902 43.4622 56.4902 44.2161 56.7135C48.2469 57.7565 52.9727 53.7801 54.548 48.0218C56.2623 41.829 54.2469 36.4184 50.1928 35.5275Z" fill="#E14B4B"/>
</g>
<defs>
<filter id="filter0_i_808_22893" x="9" y="8.16003" width="29" height="48.72" filterUnits="userSpaceOnUse" color-interpolation-filters="sRGB">
<feFlood flood-opacity="0" result="BackgroundImageFix"/>
<feBlend mode="normal" in="SourceGraphic" in2="BackgroundImageFix" result="shape"/>
<feColorMatrix in="SourceAlpha" type="matrix" values="0 0 0 0 0 0 0 0 0 0 0 0 0 0 0 0 0 0 127 0" result="hardAlpha"/>
<feOffset dx="1.5" dy="-1.5"/>
<feComposite in2="hardAlpha" operator="arithmetic" k2="-1" k3="1"/>
<feColorMatrix type="matrix" values="0 0 0 0 0.592157 0 0 0 0 0.72549 0 0 0 0 0.839216 0 0 0 0.2 0"/>
<feBlend mode="normal" in2="shape" result="effect1_innerShadow_808_22893"/>
</filter>
<filter id="filter1_i_808_22893" x="30.8387" y="35.3638" width="24.3226" height="21.5161" filterUnits="userSpaceOnUse" color-interpolation-filters="sRGB">
<feFlood flood-opacity="0" result="BackgroundImageFix"/>
<feBlend mode="normal" in="SourceGraphic" in2="BackgroundImageFix" result="shape"/>
<feColorMatrix in="SourceAlpha" type="matrix" values="0 0 0 0 0 0 0 0 0 0 0 0 0 0 0 0 0 0 127 0" result="hardAlpha"/>
<feOffset dx="-2" dy="-2"/>
<feComposite in2="hardAlpha" operator="arithmetic" k2="-1" k3="1"/>
<feColorMatrix type="matrix" values="0 0 0 0 0 0 0 0 0 0 0 0 0 0 0 0 0 0 0.25 0"/>
<feBlend mode="normal" in2="shape" result="effect1_innerShadow_808_22893"/>
</filter>
</defs>
</svg>
