<svg width="64" height="64" viewBox="0 0 64 64" fill="none" xmlns="http://www.w3.org/2000/svg">
<ellipse cx="31.2208" cy="42.7687" rx="27.5167" ry="3.70417" fill="white"/>
<path fill-rule="evenodd" clip-rule="evenodd" d="M58.3917 43.2438C61.623 42.498 63.5 41.6079 63.5 40.6521C63.5 38.0219 49.285 35.8896 31.75 35.8896C14.215 35.8896 0 38.0219 0 40.6521C0 41.449 1.30468 42.2001 3.6111 42.8601C6.83098 41.2833 17.7353 40.123 30.6917 40.123C44.6782 40.123 56.2735 41.4752 58.3917 43.2438Z" fill="#97B9D6"/>
<path d="M13.2889 34.0701C11.5208 33.0664 11.5098 31.9217 9.97386 31.5342C9.70624 31.4749 9.42929 31.4712 9.16016 31.5232C8.89103 31.5752 8.63544 31.6819 8.40919 31.8366C8.04398 32.091 7.73847 32.4218 7.51386 32.806C7.36511 32.9972 7.29216 33.1818 7.12968 33.3615C6.22661 34.2424 4.86312 32.7706 4.04897 32.4854C3.78891 32.3606 3.50658 32.289 3.21848 32.2747C2.93039 32.2603 2.64234 32.3037 2.3712 32.4021C2.10005 32.5005 1.85126 32.652 1.6394 32.8477C1.42754 33.0435 1.25687 33.2795 1.13737 33.542C-0.397489 36.2221 2.86117 37.0954 2.79958 37.9918C2.73798 38.8882 1.95777 40.4458 3.73244 41.5252C5.95982 42.8324 8.01194 40.9726 9.03389 41.596C10.3734 42.3571 9.34337 44.1148 11.5719 45.4345C12.9113 46.1957 14.3159 45.3727 15.3848 45.3683C19.1452 50.9583 25.0082 47.2631 25.0082 47.2631C23.8981 46.9079 22.8699 46.3348 21.984 45.5774C21.0981 44.82 20.3723 43.8934 19.8489 42.852C18.5811 40.5826 20.3912 36.9746 18.1866 35.0545C16.1051 33.3782 14.7372 34.9107 13.3394 34.0656L13.2889 34.0701Z" fill="#0ACB81"/>
<path d="M12.9899 41.8607C13.2176 39.5551 12.7712 37.2329 11.705 35.1759C11.6312 35.0561 11.515 34.9687 11.3795 34.9309C11.2441 34.8932 11.0994 34.9081 10.9744 34.9725C10.8619 35.0304 10.7768 35.1302 10.7373 35.2504C10.6978 35.3705 10.7071 35.5013 10.7632 35.6147C11.6176 37.2397 12.0519 39.0527 12.0266 40.8885C11.1405 40.0162 10.0894 39.3293 8.93482 38.8678L8.91935 38.6909C8.71911 37.4621 8.17762 36.3141 7.35661 35.3781C7.32023 35.3188 7.27146 35.2681 7.21363 35.2295C7.15581 35.1909 7.0903 35.1652 7.02162 35.1543C6.95294 35.1433 6.88271 35.1474 6.81575 35.1662C6.7488 35.185 6.6867 35.2181 6.63373 35.2631C6.54128 35.3577 6.48736 35.4834 6.48246 35.6156C6.47755 35.7478 6.52202 35.8771 6.60721 35.9783C7.20145 36.72 7.61333 37.5908 7.80976 38.5207C6.70996 38.1714 5.62391 37.8336 4.45274 37.5415C4.32071 37.5179 4.18473 37.5476 4.07453 37.6241C3.96434 37.7005 3.88888 37.8174 3.86469 37.9493C3.85311 38.0139 3.85448 38.0801 3.86872 38.1441C3.88296 38.2081 3.90977 38.2686 3.94762 38.3222C3.98547 38.3757 4.0336 38.4212 4.08919 38.456C4.14478 38.4908 4.20674 38.5142 4.27145 38.5248C5.61342 38.7799 6.92661 39.1682 8.19156 39.6838C10.3139 40.6507 12.1092 42.214 13.3586 44.1834C13.6548 44.5139 13.8615 44.8394 14.1577 45.1699C14.1598 45.1934 14.1711 45.2151 14.1891 45.2302C14.2072 45.2453 14.2305 45.2527 14.2539 45.2506C14.2947 45.304 14.3467 45.3477 14.4063 45.3786C14.4659 45.4096 14.5316 45.4269 14.5987 45.4296C14.6658 45.4322 14.7326 45.42 14.7944 45.3939C14.8563 45.3677 14.9116 45.3283 14.9564 45.2783L15.0371 45.1821C15.3552 44.756 15.6392 44.3055 15.8867 43.8349C16.6144 42.5514 16.9296 41.075 16.7896 39.6062C16.7686 39.4692 16.6985 39.3445 16.5923 39.2555C16.4862 39.1664 16.3512 39.119 16.2126 39.1221L16.1242 39.1298C15.9968 39.1539 15.8839 39.227 15.8099 39.3335C15.7359 39.44 15.7066 39.5712 15.7285 39.6991C15.7641 41.194 15.3719 42.668 14.5982 43.9476C14.4943 43.7785 14.3019 43.6171 14.2107 43.4469C13.8849 42.8388 13.4761 42.2791 12.9959 41.7838L12.9899 41.8607Z" fill="#07AA7C" stroke="#0ACB81" stroke-width="0.25"/>
<path d="M15.665 38.6941C14.6614 36.9261 13.5167 36.9151 13.1292 35.3791C13.0699 35.1115 13.0661 34.8346 13.1182 34.5654C13.1702 34.2963 13.2768 34.0407 13.4316 33.8145C13.6859 33.4493 14.0167 33.1437 14.401 32.9191C14.5922 32.7704 14.7768 32.6974 14.9565 32.5349C15.8374 31.6319 14.3655 30.2684 14.0803 29.4542C13.9556 29.1942 13.8839 28.9118 13.8696 28.6238C13.8553 28.3357 13.8986 28.0476 13.997 27.7765C14.0954 27.5053 14.2469 27.2565 14.4427 27.0447C14.6384 26.8328 14.8745 26.6621 15.137 26.5426C17.8171 25.0078 18.6904 28.2664 19.5868 28.2048C20.4832 28.1433 22.0408 27.363 23.1202 29.1377C24.4274 31.3651 22.5676 33.4172 23.191 34.4392C23.9521 35.7787 25.7097 34.7486 27.0295 36.9771C27.7906 38.3166 26.9677 39.7212 26.9633 40.79C32.5533 44.5505 28.8581 50.4135 28.8581 50.4135C28.5029 49.3033 27.9298 48.2752 27.1724 47.3893C26.4149 46.5034 25.4884 45.7775 24.4469 45.2542C22.1775 43.9864 18.5696 45.7965 16.6495 43.5918C14.9731 41.5104 16.5057 40.1424 15.6606 38.7447L15.665 38.6941Z" fill="#048970"/>
<path d="M23.4557 38.3952C21.15 38.6229 18.8278 38.1765 16.7708 37.1103C16.6511 37.0365 16.5636 36.9203 16.5259 36.7848C16.4882 36.6493 16.5031 36.5046 16.5675 36.3796C16.6254 36.2672 16.7252 36.1821 16.8453 36.1426C16.9655 36.1031 17.0963 36.1124 17.2096 36.1685C18.8347 37.0229 20.6477 37.4572 22.4835 37.4318C21.6112 36.5457 20.9242 35.4947 20.4627 34.3401L20.2859 34.3246C19.057 34.1244 17.9091 33.5829 16.973 32.7619C16.9138 32.7255 16.8631 32.6767 16.8245 32.6189C16.7858 32.5611 16.7602 32.4956 16.7492 32.4269C16.7383 32.3582 16.7424 32.288 16.7612 32.221C16.78 32.1541 16.813 32.092 16.8581 32.039C16.9527 31.9466 17.0783 31.8926 17.2105 31.8877C17.3427 31.8828 17.472 31.9273 17.5732 32.0125C18.315 32.6067 19.1858 33.0186 20.1157 33.215C19.7664 32.1152 19.4286 31.0292 19.1365 29.858C19.1129 29.726 19.1426 29.59 19.219 29.4798C19.2955 29.3696 19.4124 29.2942 19.5443 29.27C19.6089 29.2584 19.6751 29.2598 19.7391 29.274C19.8031 29.2882 19.8636 29.315 19.9172 29.3529C19.9707 29.3907 20.0162 29.4389 20.051 29.4945C20.0858 29.5501 20.1091 29.612 20.1197 29.6767C20.3749 31.0187 20.7631 32.3319 21.2788 33.5968C22.2456 35.7192 23.809 37.5145 25.7783 38.7639C26.1088 39.0601 26.4344 39.2668 26.7649 39.563C26.7884 39.5651 26.81 39.5764 26.8252 39.5944C26.8403 39.6124 26.8477 39.6357 26.8456 39.6592C26.899 39.7 26.9427 39.752 26.9736 39.8116C27.0045 39.8712 27.0219 39.9369 27.0246 40.0039C27.0272 40.071 27.015 40.1379 26.9889 40.1997C26.9627 40.2616 26.9232 40.3169 26.8733 40.3617L26.7771 40.4424C26.351 40.7604 25.9005 41.0445 25.4299 41.2919C24.1463 42.0197 22.67 42.3349 21.2012 42.1949C21.0642 42.1739 20.9395 42.1038 20.8504 41.9976C20.7613 41.8914 20.7139 41.7565 20.7171 41.6179L20.7248 41.5295C20.7489 41.4021 20.822 41.2892 20.9285 41.2152C21.0349 41.1412 21.1662 41.1119 21.294 41.1337C22.789 41.1694 24.263 40.7772 25.5426 40.0034C25.3735 39.8995 25.2121 39.7072 25.0419 39.6159C24.4338 39.2902 23.8741 38.8813 23.3788 38.4012L23.4557 38.3952Z" fill="#07AA7C" stroke="#048970" stroke-width="0.25"/>
<path d="M12.1859 43.3017C12.1397 43.1054 12.0818 42.9121 12.0124 42.7227L21.8039 40.452L20.7919 36.0975L11.0005 38.3681C11.0135 38.1672 11.0143 37.9657 11.0031 37.7647C10.893 37.2736 10.6863 36.8094 10.3952 36.399C10.1041 35.9886 9.73425 35.64 9.30724 35.3738C8.88023 35.1075 8.40454 34.9288 7.90785 34.848C7.41116 34.7672 6.90337 34.786 6.41399 34.9032C5.92139 35.0165 5.45594 35.2257 5.04423 35.5189C4.63252 35.8121 4.28264 36.1836 4.01456 36.6121C3.74647 37.0406 3.56546 37.5177 3.48186 38.0162C3.39826 38.5147 3.41372 39.0248 3.52734 39.5173C3.99587 39.7739 4.40493 40.1264 4.72791 40.5519C5.05088 40.9774 5.28048 41.4663 5.40161 41.9866C5.52275 42.5068 5.53272 43.0468 5.43092 43.5712C5.32912 44.0956 5.11782 44.5926 4.81081 45.0298C4.92422 45.5256 5.13415 45.9942 5.42867 46.4089C5.72319 46.8236 6.09653 47.1762 6.52732 47.4466C6.9581 47.717 7.43792 47.8999 7.93939 47.9848C8.44086 48.0698 8.95419 48.0551 9.45 47.9417C9.94582 47.8283 10.4144 47.6184 10.8291 47.3238C11.2437 47.0293 11.5963 46.656 11.8667 46.2252C12.1371 45.7944 12.32 45.3146 12.405 44.8131C12.49 44.3116 12.4753 43.7983 12.3619 43.3025L12.1859 43.3017Z" fill="#F3F0F3"/>
<path d="M5.38286 46.4656C5.94532 46.5938 6.52912 46.5964 7.09269 46.4731C8.08293 46.2388 8.93997 45.6217 9.47627 44.7569C10.0126 43.8921 10.1845 42.85 9.95425 41.8588C9.91649 41.7054 9.94039 41.5432 10.0209 41.4071C10.1014 41.2711 10.2321 41.1722 10.3849 41.1315L21.3841 38.6649L21.8035 40.5275L11.8871 42.6216C11.9565 42.811 12.0144 43.0044 12.0606 43.2007C12.2737 44.0614 12.1808 44.9694 11.798 45.7692C11.4152 46.569 10.7662 47.2108 9.96219 47.5847C9.15819 47.9586 8.24922 48.0414 7.39093 47.8187C6.53263 47.5961 5.77843 47.082 5.25753 46.3645L5.38286 46.4656Z" fill="#E2DEE2"/>
<path d="M52.7221 48.3817L48.9215 31.9201L45.121 15.4585C45.121 15.4585 30.702 17.9101 23.0903 27.759C22.5752 28.4138 22.1019 29.1004 21.6732 29.8148C20.7879 31.3508 19.8247 32.8405 18.7872 34.278L17.877 35.4055C17.2741 36.1284 16.5779 36.768 15.8068 37.3076L16.8187 41.6621C17.7454 41.819 18.6484 42.0933 19.5057 42.4785L20.8106 43.0877C22.3865 43.9149 23.9107 44.8368 25.375 45.8485C26.0799 46.2931 26.8084 46.6991 27.5573 47.0649C38.7478 52.6457 52.6967 48.4319 52.6967 48.4319L52.7221 48.3817Z" fill="#BE7300"/>
<path d="M16.7945 41.6116L16.3751 39.7491C16.9816 39.9206 17.6052 40.0245 18.2345 40.0589C19.316 40.1077 20.376 40.3776 21.3491 40.852C21.8258 41.0804 22.3026 41.3088 22.7791 41.5875C23.6571 42.0691 24.5096 42.626 25.2867 43.1826C27.1471 44.4607 29.1511 45.5159 31.2575 46.3266C32.653 46.7879 34.0801 47.147 35.5276 47.4013C38.2147 47.8774 40.9478 48.0413 43.6725 47.8896C44.1251 47.8915 49.66 47.2367 52.2523 46.6948L52.6473 48.3813C52.6473 48.3813 38.6481 52.5949 27.5079 47.0144C26.759 46.6486 26.0305 46.2425 25.3256 45.7978C23.8613 44.7862 22.337 43.8642 20.7612 43.0371L19.4563 42.4279C18.599 42.0428 17.696 41.7684 16.7693 41.6115L16.7945 41.6116Z" fill="#9F5A00"/>
<path d="M45.133 15.3417C40.0729 16.5127 37.6816 24.8545 39.7919 33.9735C41.9023 43.0925 47.715 49.5356 52.7751 48.3646C57.8352 47.1936 60.2265 38.8519 58.1162 29.7329C56.0059 20.6139 50.1931 14.1707 45.133 15.3417Z" fill="#F5CA62"/>
<path d="M39.76 34.0175C38.2298 27.4228 39.0614 21.2406 41.5403 17.882C39.7114 22.4947 39.4332 27.5774 40.7479 32.3622C42.8455 41.474 48.6512 47.9114 53.7104 46.7516C55.1572 46.3721 56.4194 45.4852 57.2668 44.2526C56.8783 45.247 56.2665 46.1388 55.4786 46.8591C54.6907 47.5794 53.7477 48.109 52.7225 48.4069C47.6884 49.5668 41.8576 43.1293 39.76 34.0175Z" fill="#EBB23A"/>
<path d="M45.9324 18.7959C42.347 19.6257 40.7934 26.1443 42.4622 33.3556C44.1311 40.5669 48.3904 45.7401 51.9758 44.9104C55.5612 44.0807 57.1148 37.5622 55.446 30.3509C53.7771 23.1396 49.5177 17.9662 45.9324 18.7959Z" fill="#FFEDB0"/>
<path d="M42.4277 33.4006C40.9223 26.8563 42.055 20.8264 45.004 19.23C43.2078 21.7366 42.6577 26.7633 43.8918 32.0743C45.5703 39.2732 49.8225 44.4465 53.3968 43.6072C53.7354 43.5405 54.0595 43.4142 54.3539 43.2342C53.8213 44.0829 52.9804 44.6921 52.0079 44.9338C48.3582 45.7729 44.081 40.5994 42.4277 33.4006Z" fill="#FFE088"/>
<path d="M49.0974 33.3459C48.0402 33.6391 47.6435 35.5366 48.2114 37.5841C48.7792 39.6315 50.0964 41.0537 51.1536 40.7605C52.2108 40.4673 52.6076 38.5698 52.0398 36.5223C51.4719 34.4749 50.1546 33.0528 49.0974 33.3459Z" fill="#F5CA62"/>
<path d="M48.1675 37.7509C47.598 35.7116 48.0085 33.8275 49.0659 33.5304C49.2408 33.488 49.4226 33.4821 49.5998 33.5132C49.7771 33.5442 49.946 33.6116 50.0961 33.7109C49.7324 34.8038 49.7272 35.9843 50.0814 37.0803C50.3403 38.2726 51.0238 39.3301 52.0046 40.0559C51.9323 40.2547 51.8182 40.4358 51.67 40.587C51.5219 40.7381 51.3432 40.8558 51.1458 40.9322C50.0633 41.2292 48.6363 39.7897 48.1925 37.751L48.1675 37.7509Z" fill="#EBB23A"/>
<path d="M26.8649 25.6374C24.4685 24.2189 30.3257 21.0302 32.9998 19.4356L38.5 16.9356C41.1924 15.9407 44.2259 15.3339 45.3332 15.2127C46.7172 15.0613 48.9448 16.2182 47.7122 17.7537C46.4795 19.2892 47.3968 22.9104 45.5498 23.5929C42.8574 24.5879 41.9381 22.5875 39.2457 23.5824C36.5533 24.5773 38.3918 28.5781 35.6236 28.881C34.6932 28.9828 34.1348 25.4532 32.4011 25.0317C30.6628 24.609 28.3646 26.5252 26.8649 25.6374Z" fill="#DE8E00"/>
<path d="M7.90304 47.589L2.1167 42.2922C2.1167 42.2922 13.2292 44.5679 31.75 44.5679C50.2709 44.5679 61.3834 42.3453 61.3834 42.3453L56.288 47.3557C55.4604 48.1695 54.4724 48.8028 53.3498 49.0975C50.4225 49.866 43.5509 51.2353 31.75 51.2353C19.6871 51.2353 13.0609 49.8045 10.3987 49.0472C9.45581 48.7791 8.6261 48.2509 7.90304 47.589Z" fill="#D1E1EE" stroke="#D1E1EE" stroke-width="1.05833"/>
<path opacity="0.4" d="M35.9834 48.5895C29.6334 49.1186 17.1451 48.6953 11.6417 47.002" stroke="#97B9D6" stroke-width="1.05833" stroke-linecap="round"/>
</svg>
