<svg width="64" height="64" viewBox="0 0 64 64" fill="none" xmlns="http://www.w3.org/2000/svg">
<mask id="mask0_808_18458" style="mask-type:alpha" maskUnits="userSpaceOnUse" x="2" y="3" width="60" height="59">
<circle cx="32" cy="32.25" r="29.25" fill="#D9D9D9"/>
</mask>
<g mask="url(#mask0_808_18458)">
<circle cx="32" cy="32.25" r="29.25" fill="#7A1047" fill-opacity="0.1"/>
<path d="M15.4845 83.8062C15.4845 83.8062 15.1961 88.4053 15.2996 89.7214C15.2996 89.7214 48.2916 90.7566 49.9922 90.4608C49.9922 90.4608 49.0976 84.6122 49.0754 82.8672L50.8278 82.1278C51.3614 81.9301 51.9228 81.8178 52.4914 81.7951C53.3417 81.6546 55.0793 81.5584 55.6635 80.893C55.8437 80.6543 55.9698 80.3793 56.0332 80.087C57.8595 73.8095 55.7448 68.057 55.4417 61.8017C55.3899 60.6704 55.4417 59.5391 55.4417 58.4079C55.4583 55.911 55.1348 53.4235 54.4804 51.0139C54.0073 49.0951 53.1743 47.2835 52.0256 45.6754C50.3324 43.4572 47.8776 43.7604 45.371 43.2354C43.833 42.9174 42.3025 42.5551 40.7942 42.1337C40.7942 42.1337 34.0656 44.6181 21.7176 43.2576C21.7176 43.2576 16.0612 45.1208 12.8818 45.2539C12.8818 45.2539 7.706 47.0063 7.40285 56.8847C7.34369 58.5705 7.65424 60.3155 7.67642 62.0087C7.67642 63.5393 7.56552 65.0551 7.49897 66.5782C6.99618 78.4086 8.06091 81.1074 8.90383 83.5105C9.47316 85.1593 10.7227 84.9893 12.1572 84.7379C14.1593 84.31 16.0876 83.59 17.8801 82.601" fill="#FBE297"/>
<path d="M11.647 83.5844C10.8041 81.174 9.73934 78.4973 10.2421 66.6521C10.3087 65.129 10.4418 63.6132 10.427 62.0753C10.427 60.3894 10.0868 58.6371 10.146 56.9586C10.4787 47.0729 15.625 45.3205 15.625 45.3205C18.1685 45.2244 22.2796 44.0117 23.8397 43.5237C23.1521 43.472 22.457 43.4054 21.7324 43.3241C21.7324 43.3241 16.076 45.1948 12.8966 45.3205C12.8966 45.3205 7.72079 47.0729 7.41764 56.9586C7.35849 58.6371 7.66903 60.3894 7.69121 62.0753C7.69121 63.6132 7.58029 65.129 7.51374 66.6521C7.01095 78.4825 8.0757 81.174 8.91862 83.5844C9.48796 85.2333 10.7375 85.0632 12.172 84.8118L12.5121 84.7379C12.0871 84.4779 11.7776 84.0652 11.647 83.5844Z" fill="#F5CA62"/>
<path d="M31.9583 58.7775C32.191 58.7775 32.3797 58.5888 32.3797 58.356C32.3797 58.1233 32.191 57.9346 31.9583 57.9346C31.7255 57.9346 31.5368 58.1233 31.5368 58.356C31.5368 58.5888 31.7255 58.7775 31.9583 58.7775Z" fill="#F5CA62"/>
<path d="M26.6789 50.0231C24.9561 50.0231 23.1889 50.2745 21.5031 49.8013C22.1117 48.3856 22.5222 46.8927 22.7231 45.3649C22.7531 44.4065 22.9743 43.4638 23.3738 42.5922C23.9184 41.7949 24.6699 41.1609 25.5476 40.7584L26.1835 40.4331C25.3294 40.7647 24.4972 41.15 23.6917 41.5866C22.8146 41.9864 22.063 42.6178 21.5179 43.4129C21.1174 44.2868 20.8962 45.2322 20.8672 46.193C20.6699 47.7216 20.2592 49.2149 19.6472 50.6294C21.3109 51.0953 23.078 50.8586 24.823 50.8513C26.568 50.8439 28.4313 51.147 29.5996 52.4188C29.9914 52.8402 31.522 54.2747 31.6699 54.8736C31.7178 54.7863 31.7429 54.6884 31.7429 54.5889C31.7429 54.4894 31.7178 54.3915 31.6699 54.3042C31.5368 54.0233 31.7438 53.7719 31.9213 53.5131C32.0531 53.3253 32.2043 53.1518 32.3723 52.9955C32.135 52.486 31.8262 52.013 31.4554 51.5907C30.2872 50.3263 28.4091 50.0157 26.6789 50.0231Z" fill="#F5CA62"/>
<path d="M36.269 49.72C35.2486 50.2352 34.295 50.8733 33.4297 51.6203C33.0429 51.8962 32.7012 52.2304 32.4167 52.6111C32.2463 52.8717 32.1143 53.1556 32.0249 53.454C31.889 53.8634 31.7778 54.2807 31.6921 54.7036C31.6848 54.76 31.6848 54.8172 31.6921 54.8736C31.6847 54.9449 31.6847 55.0168 31.6921 55.088C31.7365 55.088 31.7439 54.9328 31.7513 54.8884L31.8326 54.5631C31.8918 54.3265 31.9509 54.0899 32.0322 53.8606C32.1216 53.5623 32.2536 53.2784 32.4241 53.0177C32.7105 52.6389 33.052 52.3049 33.4371 52.0269C34.3024 51.28 35.256 50.6418 36.2764 50.1267C38.6721 49.0471 41.5039 49.3873 43.9661 48.4408C43.8626 48.3447 43.7665 48.2412 43.6704 48.1377C41.2747 48.9436 38.5685 48.6775 36.269 49.72Z" fill="#F5CA62"/>
<path d="M31.7145 54.8142C31.5568 54.2149 31.3336 53.6346 31.049 53.084C30.807 52.5495 30.4909 52.0516 30.11 51.6052C28.9417 50.3409 27.0563 50.0377 25.3335 50.0451C23.6107 50.0525 21.8361 50.2891 20.1577 49.8159C20.7697 48.4014 21.1803 46.9081 21.3777 45.3795C21.4147 44.4221 21.6356 43.4807 22.0283 42.6068C22.5731 41.8114 23.3248 41.1799 24.2022 40.7804C25.0349 40.3245 25.8969 39.9243 26.7827 39.5826C26.7827 39.5826 29.9547 41.2906 35.6185 39.2203C36.5206 38.8876 37.2822 40.1963 38.2286 40.3738C38.8455 40.422 39.4513 40.5641 40.0253 40.7952C40.6254 41.1747 41.0689 41.7573 41.2749 42.4367C41.5041 43.1022 41.6076 43.7972 41.7925 44.4774C42.175 45.8647 42.9232 47.1237 43.9589 48.1227C41.4967 49.0617 38.6648 48.729 36.2692 49.8085C35.2487 50.3237 34.2952 50.9618 33.4299 51.7088C33.0448 51.9867 32.7034 52.3207 32.4169 52.6996C32.2464 52.9602 32.1144 53.2441 32.025 53.5425C31.8772 54.0009 31.7145 54.8142 31.7145 54.8142Z" fill="white"/>
<path d="M31.6033 54.0232C31.6134 53.1275 31.408 52.2424 31.0044 51.4427C30.4999 50.6928 29.8575 50.0454 29.1116 49.535C26.9747 47.8418 24.8526 45.9046 23.9358 43.3389C23.9191 43.2933 23.9067 43.2463 23.8988 43.1984C23.8945 43.169 23.8945 43.1391 23.8988 43.1097V43.0431C23.8918 43.019 23.8918 42.9933 23.8988 42.9692L23.9653 42.91C24.0097 42.873 24.0393 42.8287 24.0836 42.7991L24.2315 42.6734C24.3277 42.5921 24.4164 42.5033 24.5051 42.4146C24.5921 42.3172 24.6945 42.2348 24.8083 42.1706C25.1484 42.0079 25.1854 41.7344 25.4515 41.4756L26.1466 40.7805C26.3018 40.6253 26.4497 40.47 26.6124 40.3295C26.7751 40.189 27.0412 40.0855 27.1078 39.945C27.1456 39.7 27.1456 39.4506 27.1078 39.2056C27.1078 38.9099 27.1078 38.6067 27.1078 38.311C27.0707 38.0024 26.9962 37.6995 26.886 37.4089C26.7678 37.1151 26.7471 36.7911 26.8268 36.4846C27.2832 36.6713 27.6942 36.9537 28.032 37.3128C28.2016 37.5092 28.4043 37.6744 28.6309 37.8008C28.8971 37.9265 29.1485 38.0743 29.4073 38.2222C29.7256 38.3894 30.0836 38.4661 30.4425 38.444C31.287 38.4151 32.1244 38.2785 32.9343 38.0374C33.2004 37.9043 33.4592 37.8377 33.7106 37.6899C33.9828 37.5245 34.2423 37.3391 34.487 37.1353C34.5687 37.0627 34.661 37.0029 34.7606 36.9578C34.8576 36.9032 34.941 36.8274 35.0046 36.736C35.3003 36.4181 35.5961 35.9966 35.8993 35.6935C35.8993 35.6935 35.7809 37.5346 35.7957 37.7786C35.8105 38.0226 35.7957 38.2814 35.8401 38.518C35.8401 38.9616 36.3355 40.9284 36.3799 41.0615C36.4242 41.1946 36.4908 41.1946 36.6017 41.2538L38.3688 42.2372C38.6055 42.3629 38.8938 42.459 39.0195 42.703C39.1538 42.9634 39.1803 43.2661 39.0934 43.5459C38.7228 44.2528 38.221 44.8827 37.6146 45.4018C37.0514 46.0055 36.4487 46.5712 35.8105 47.095C34.4648 48.2115 32.8899 49.2319 32.2318 50.8512C31.9364 51.8834 31.7189 52.9363 31.5812 54.001" fill="#EABFAD"/>
<path opacity="0.8" d="M32.2688 50.8955C32.146 51.2174 32.0496 51.5488 31.9805 51.8863C31.9139 52.2412 31.8696 52.6257 31.8178 52.9511C31.8178 53.1285 31.7661 53.306 31.7365 53.4908C31.7257 53.5772 31.7033 53.6618 31.6699 53.7422C31.6699 53.8309 31.6699 53.9345 31.6034 54.0232C31.6012 53.7906 31.5839 53.5585 31.5516 53.3282C31.4149 52.5479 31.4149 51.7498 31.5516 50.9695C31.7285 50.3361 31.9896 49.7293 32.328 49.1653C32.4833 48.8918 33.9547 46.9471 34.3244 46.4665C34.9641 45.6955 35.5148 44.8546 35.9658 43.96C36.3424 43.0957 36.5241 42.1592 36.4982 41.2168C37.1601 41.5405 37.8021 41.9034 38.4207 42.3037C38.5537 42.3629 38.672 42.4442 38.8125 42.5033C38.8685 42.5265 38.9187 42.5617 38.9596 42.6065C39.0005 42.6512 39.031 42.7043 39.0491 42.7621C39.1145 42.8875 39.1542 43.0248 39.1656 43.1658C39.177 43.3067 39.1601 43.4486 39.1157 43.5829C38.7427 44.2882 38.2412 44.9177 37.6369 45.4388C37.08 46.0502 36.4848 46.6256 35.8549 47.1616C34.5018 48.2485 32.9343 49.2689 32.2688 50.8955Z" fill="#C19582"/>
<path opacity="0.4" d="M16.7933 59.5022C16.8968 60.0789 17.1999 62.4006 17.3404 62.9552C17.5499 64.158 17.9075 65.3302 18.4052 66.4451C18.9916 67.5499 19.9132 68.4404 21.0374 68.9887C22.0975 69.6846 23.2532 70.2226 24.4683 70.5858C24.8666 70.6504 25.2299 70.8518 25.496 71.1551C25.289 71.2069 25.0893 71.1551 24.8897 71.2143C24.704 71.2597 24.5213 71.3165 24.3425 71.3843C24.0764 71.4509 23.8028 71.5026 23.5218 71.547C22.9682 71.6234 22.408 71.6407 21.8508 71.5987C21.274 71.5544 20.6603 71.3326 20.091 71.3252C19.493 71.3544 18.9002 71.4512 18.3238 71.6135C18.0133 71.6875 17.7101 71.7688 17.3996 71.8575C17.2813 71.8945 16.7267 72.1607 16.6602 72.035C16.6571 72.0154 16.6571 71.9954 16.6602 71.9758C16.5345 71.3917 16.5641 70.7632 16.4901 70.1643C16.4162 69.5654 16.431 58.504 16.4901 57.3062C16.5419 58.0603 16.6676 58.7776 16.7933 59.5022Z" fill="#6E8DAD"/>
<path d="M30.0804 47.9453C30.3613 48.1376 30.6423 48.3372 30.9085 48.5516L31.3151 48.8696C31.4482 48.9657 31.5961 49.1283 31.6701 49.0988C31.6999 49.0911 31.7278 49.0772 31.752 49.0581C31.7762 49.039 31.7961 49.0151 31.8105 48.9879L31.9067 48.7587C31.9736 48.5923 32.0772 48.4431 32.2098 48.3224C32.4612 48.0784 32.72 47.8566 32.9492 47.6348C32.7348 47.9009 32.513 48.1671 32.2837 48.4185C32.1752 48.5399 32.09 48.6803 32.0324 48.8326L31.9362 49.0766C31.9096 49.1262 31.8728 49.1697 31.8282 49.2041C31.7836 49.2385 31.7322 49.2631 31.6775 49.2762C31.6217 49.2843 31.5648 49.2784 31.5119 49.259C31.459 49.2397 31.4117 49.2075 31.3743 49.1653L31.1746 48.9953C31.049 48.8843 30.9159 48.7808 30.7902 48.6625C30.5684 48.4333 30.317 48.1893 30.0804 47.9453Z" fill="#C98F7E"/>
<path d="M33.9991 47.1174C34.3255 46.8607 34.7231 46.711 35.1378 46.6885C35.5393 46.6307 35.9448 46.6059 36.3504 46.6146C35.9638 46.7331 35.5681 46.8196 35.1673 46.8734C34.9677 46.8734 34.7681 46.9178 34.5758 46.9547C34.3771 46.9826 34.1831 47.0373 33.9991 47.1174Z" fill="#C98F7E"/>
<path d="M22.4717 26.843C22.259 26.649 21.9832 26.5387 21.6953 26.5324C21.6338 26.5259 21.5717 26.5388 21.5179 26.5694C21.4812 26.6015 21.4522 26.6414 21.433 26.6862C21.4138 26.731 21.4049 26.7795 21.407 26.8282C21.4137 28.0108 21.7243 29.1719 22.309 30.1998C22.4156 30.4738 22.5738 30.7248 22.7749 30.9392C22.9926 31.1287 23.2432 31.2765 23.5143 31.3755" fill="#C98F7E"/>
<path d="M39.5298 26.2957C39.7275 26.0939 39.9885 25.966 40.2692 25.9334C40.3269 25.9148 40.3889 25.9148 40.4466 25.9334C40.4839 25.9643 40.5144 26.0026 40.536 26.0459C40.5577 26.0891 40.57 26.1365 40.5723 26.1848C40.6401 27.3676 40.406 28.5482 39.8921 29.6156C39.8036 29.9025 39.6632 30.1706 39.478 30.4068C39.2742 30.6006 39.0424 30.7626 38.7904 30.8874" fill="#C98F7E"/>
<path opacity="0.8" d="M35.9955 36.0115C35.9955 36.0115 35.9955 36.0115 35.9955 36.0706C36.0098 36.1761 36.0098 36.2831 35.9955 36.3886C35.9502 36.5953 35.8754 36.7945 35.7737 36.9801C35.2049 38.1066 34.3573 39.0688 33.3115 39.775C32.5721 40.2778 31.7513 40.6327 30.975 41.069C29.0525 42.1559 26.1245 45.7863 26.0432 45.8677C25.9618 45.949 25.74 46.3039 25.7252 46.3113C25.6696 46.2557 25.6177 46.1964 25.57 46.1339C25.57 46.1339 25.1707 45.5793 25.1485 45.5571C24.9103 45.2182 24.693 44.8651 24.4978 44.4998C24.3943 44.3149 24.1651 43.8121 24.1503 43.7604C24.1355 43.7086 24.1503 43.6643 24.0912 43.6199C24.032 43.5755 23.9507 43.2576 23.9359 43.1911C23.9252 43.1523 23.9252 43.1115 23.9359 43.0728C23.9341 43.051 23.9371 43.0291 23.9448 43.0086C23.9525 42.9882 23.9646 42.9697 23.9803 42.9544C24.1873 42.7474 24.4239 42.5774 24.6383 42.3777C24.7546 42.2639 24.8781 42.1578 25.008 42.0598C25.0602 42.0296 25.1096 41.9949 25.1559 41.9563C25.215 41.8971 26.9822 40.093 27.0414 40.0042C27.0455 39.9723 27.0455 39.94 27.0414 39.9081C27.0523 39.8669 27.0523 39.8236 27.0414 39.7824C27.0393 39.6288 27.0517 39.4753 27.0783 39.324C27.1117 39.161 27.1265 38.9949 27.1227 38.8286C27.114 38.4971 27.0868 38.1663 27.0414 37.8378C27.0414 37.7491 26.9378 37.4016 26.9304 37.3202C26.9231 37.2389 26.302 35.3386 27.0488 36.4403C27.1227 36.5242 27.2044 36.6009 27.2927 36.6695C27.4628 36.8248 27.6329 36.9801 27.8103 37.1206C28.1431 37.4311 36.099 35.4791 35.9955 36.0115Z" fill="#C98F7E"/>
<path d="M31.352 38.6365C34.3835 38.4516 37.1045 34.2518 37.1045 34.2518C39.404 31.6122 39.5001 26.3329 39.5001 26.3329C41.4965 12.9128 30.5534 13.7631 30.5534 13.7631C30.5534 13.7631 19.5733 13.6004 22.42 26.8652C22.42 26.8652 22.8562 32.1298 25.3258 34.6141C25.3332 34.6289 28.3204 38.6439 31.352 38.6365Z" fill="#EABFAD"/>
<path d="M26.6493 43.8788L26.4719 43.827C27.0931 41.531 27.1816 39.1234 26.7306 36.788C26.6928 36.6557 26.6433 36.527 26.5828 36.4035C26.5225 36.2739 26.4706 36.1405 26.4275 36.0042L26.6049 35.9598C26.6049 36.019 26.6937 36.1891 26.7528 36.3295C26.8162 36.4663 26.8706 36.6071 26.9155 36.751C27.3676 39.1164 27.2765 41.5537 26.6493 43.8788Z" fill="#A86457"/>
<path d="M27.1818 39.8343C26.2271 40.968 25.1565 41.9989 23.9876 42.9102C25.1119 41.9576 26.133 40.8895 27.034 39.7234L27.1818 39.8343Z" fill="#A86457"/>
<path d="M28.5202 27.2571C28.4758 27.124 28.2466 26.9983 28.1283 26.9244C27.8049 26.7486 27.448 26.6433 27.081 26.6152C26.7139 26.5872 26.3452 26.6371 25.9988 26.7617C25.5689 26.9461 25.17 27.1955 24.8158 27.5011C25.1805 27.7228 25.5952 27.8492 26.0216 27.8686C26.448 27.888 26.8725 27.7997 27.2558 27.612C27.6499 27.4118 28.0795 27.2912 28.5202 27.2571Z" fill="white"/>
<path d="M36.9713 27.0277C36.49 26.5984 35.8875 26.3287 35.2466 26.2559C34.6057 26.1831 33.958 26.3107 33.3926 26.6211C33.2485 26.6928 33.1317 26.8096 33.0599 26.9538C32.9638 27.2052 33.2078 27.1239 33.3779 27.1534C33.6291 27.2042 33.8762 27.2734 34.1173 27.3605C34.3574 27.429 34.6078 27.4541 34.8567 27.4344C36.0841 27.39 36.6608 27.2717 36.9713 27.0277Z" fill="white"/>
<path d="M34.7977 24.7282C35.4751 24.4666 36.2088 24.3851 36.9271 24.4916C37.1859 24.5434 37.4891 24.6617 37.5408 24.9279C37.5926 25.1941 37.3264 25.4455 37.0528 25.4972C36.7722 25.513 36.4908 25.4881 36.2173 25.4233C35.0342 25.2606 33.8956 25.9409 32.7051 26.0592C32.7051 25.6229 33.2079 25.4676 33.5185 25.3198C33.9288 25.0896 34.3565 24.8918 34.7977 24.7282Z" fill="#6A3400"/>
<path d="M26.6346 25.1202C26.3421 25.0477 26.0411 25.0154 25.7399 25.0241C25.472 25.0529 25.2102 25.1227 24.9635 25.2311C24.6574 25.3339 24.379 25.506 24.1502 25.7339C24.0341 25.847 23.9487 25.9878 23.9022 26.1431C23.8556 26.2983 23.8493 26.4629 23.884 26.6212C24.2907 26.9687 24.7121 26.5177 25.0079 26.2737C25.3991 26.0067 25.8655 25.872 26.3388 25.8892C26.5868 25.8748 26.8357 25.8947 27.0782 25.9483C27.3296 26.0075 27.5514 26.0814 27.8176 26.1184C28.1061 26.1641 28.3988 26.1765 28.6901 26.1554C28.9119 26.1554 29.3038 26.0593 28.9933 25.8005C28.9138 25.7379 28.8236 25.6903 28.7271 25.66C28.0467 25.4193 27.3465 25.2386 26.6346 25.1202Z" fill="#6A3400"/>
<path d="M35.3448 26.2736C35.3883 26.3533 35.4135 26.4417 35.4187 26.5324C35.4187 26.6775 35.3611 26.8166 35.2585 26.9192C35.1559 27.0219 35.0167 27.0795 34.8716 27.0795C34.7264 27.0795 34.5873 27.0219 34.4847 26.9192C34.382 26.8166 34.3244 26.6775 34.3244 26.5324C34.3248 26.4428 34.345 26.3544 34.3835 26.2736" fill="#241F20"/>
<path d="M34.8713 27.1978C34.7623 27.1983 34.6551 27.1707 34.5598 27.1177C34.4645 27.0648 34.3845 26.9882 34.3273 26.8954C34.2702 26.8026 34.2378 26.6967 34.2334 26.5878C34.2289 26.4789 34.2526 26.3707 34.302 26.2736L34.4721 26.3549C34.4367 26.4234 34.4189 26.4996 34.4203 26.5767C34.4203 26.6963 34.4678 26.8111 34.5524 26.8956C34.637 26.9802 34.7517 27.0278 34.8713 27.0278C34.9909 27.0278 35.1057 26.9802 35.1903 26.8956C35.2748 26.8111 35.3224 26.6963 35.3224 26.5767C35.322 26.5036 35.3015 26.432 35.2632 26.3697L35.4259 26.2736C35.4785 26.3633 35.5066 26.4653 35.5072 26.5693C35.5114 26.6533 35.4984 26.7372 35.4692 26.816C35.44 26.8948 35.395 26.9668 35.3372 27.0278C35.2216 27.1505 35.062 27.2223 34.8935 27.2274L34.8713 27.1978Z" fill="#6A3400"/>
<path d="M27.1227 26.6951C27.1675 26.77 27.1976 26.8528 27.2114 26.9391C27.2238 27.0839 27.1788 27.2278 27.0862 27.3398C26.9935 27.4518 26.8606 27.523 26.716 27.538C26.5719 27.5503 26.4289 27.5051 26.318 27.4123C26.2072 27.3195 26.1376 27.1865 26.1245 27.0426C26.1161 26.9515 26.1314 26.8598 26.1688 26.7764" fill="#241F20"/>
<path d="M26.664 27.6341C26.5056 27.6331 26.3531 27.5737 26.2358 27.4673C26.1184 27.3609 26.0445 27.2149 26.0281 27.0574C26.0188 26.9487 26.0366 26.8395 26.0799 26.7394L26.2499 26.8134C26.2186 26.8855 26.2067 26.9645 26.2153 27.0427C26.224 27.1208 26.2529 27.1953 26.2992 27.2588C26.3456 27.3224 26.4077 27.3727 26.4795 27.4048C26.5512 27.4369 26.6301 27.4497 26.7084 27.4419C26.7676 27.4381 26.8253 27.4216 26.8776 27.3935C26.9299 27.3654 26.9756 27.3265 27.0115 27.2792C27.0513 27.2357 27.0812 27.1841 27.0991 27.1279C27.117 27.0717 27.1224 27.0123 27.115 26.9539C27.1095 26.8794 27.0839 26.8079 27.0411 26.7468L27.1964 26.6433C27.2556 26.7287 27.2913 26.8281 27.2999 26.9317C27.3151 27.0993 27.2647 27.2662 27.1594 27.3975C27.1056 27.4628 27.0393 27.5167 26.9644 27.5561C26.8895 27.5954 26.8075 27.6195 26.7232 27.6267L26.664 27.6341Z" fill="#6A3400"/>
<path d="M29.9103 31.3533C30.1469 31.4716 30.3761 31.6047 30.5906 31.7378C30.7887 31.8762 31.0309 31.9367 31.2708 31.9079C31.3795 31.8898 31.4787 31.835 31.5518 31.7526C31.5847 31.7003 31.6144 31.646 31.6405 31.5899C31.6636 31.5512 31.696 31.5187 31.7347 31.4955C31.7734 31.4723 31.8173 31.459 31.8623 31.4568C32.0176 31.4568 32.1137 31.4938 32.2172 31.4568C32.2701 31.4255 32.3141 31.3812 32.3452 31.3282C32.3762 31.2752 32.3933 31.2151 32.3947 31.1537C32.4085 31.222 32.4042 31.2928 32.3821 31.359C32.3601 31.4251 32.3211 31.4844 32.269 31.5308C32.1655 31.6417 31.9732 31.6269 31.8771 31.6343C31.781 31.6417 31.7736 31.7452 31.6849 31.8857C31.593 32.0102 31.459 32.0969 31.3078 32.1297C31.1668 32.1449 31.0242 32.1318 30.8883 32.0912C30.7525 32.0506 30.6261 31.9832 30.5166 31.8931C30.3053 31.7238 30.1029 31.5436 29.9103 31.3533Z" fill="#6A3400"/>
<path d="M21.3627 19.9813C21.4366 20.5728 21.3627 21.1348 21.3627 21.7337C21.3946 22.1014 21.4489 22.4669 21.5253 22.828C21.5697 23.1312 21.6066 23.4269 21.6362 23.7301C21.6863 24.6541 21.83 25.5708 22.0651 26.4658C22.1359 26.6934 22.2224 26.9157 22.3239 27.1313C22.4136 27.3327 22.4806 27.5435 22.5235 27.7598C22.5901 27.989 22.664 28.2256 22.7453 28.4474C22.8194 28.672 22.8762 28.9019 22.9154 29.1351C22.678 28.0466 22.6429 26.9237 22.8119 25.8226C22.9006 25.4233 23.0928 25.0832 23.1594 24.6395C23.1797 24.0124 23.1302 23.385 23.0115 22.7688C22.9962 22.021 23.1826 21.2828 23.5513 20.632C23.7593 20.0301 24.1561 19.5115 24.6825 19.1532C25.6407 18.7322 26.7211 18.6822 27.7141 19.0127C28.7034 19.3458 29.7581 19.437 30.79 19.2789C31.4792 19.0317 32.1369 18.7041 32.7494 18.3029C33.3062 17.9694 33.941 17.7883 34.59 17.7779C35.2389 17.7675 35.8792 17.9282 36.4464 18.2437C36.679 18.3494 36.8917 18.4945 37.0749 18.6726C37.3241 18.9885 37.4596 19.3793 37.4594 19.7817C37.4594 20.1883 37.4594 20.5876 37.4594 20.9869C37.5925 22.3474 38.672 23.4417 38.9973 24.7726C39.0749 25.1208 39.1268 25.4742 39.1526 25.83C39.2582 26.813 39.2582 27.8045 39.1526 28.7876C39.4484 28.684 39.611 27.538 39.6776 27.1831C39.8255 26.4437 39.9438 25.7043 40.0473 24.9131C40.2543 23.3678 40.3874 21.815 40.5131 20.2697C40.5729 19.7786 40.5729 19.282 40.5131 18.7909C40.4047 18.2438 40.1994 17.7204 39.9068 17.2455C39.112 15.8472 37.9065 14.7269 36.4538 14.0365C36.1757 13.9178 35.9063 13.7795 35.6479 13.6225C35.3528 13.3954 35.0736 13.1484 34.8123 12.8831C34.1462 12.3136 33.2928 12.0107 32.4167 12.0328C31.6181 12.0328 30.6717 12.3211 30.1024 11.774C29.9914 11.6631 29.8953 11.5226 29.74 11.5004C29.594 11.4949 29.4513 11.5452 29.3408 11.6409C27.9653 12.5643 26.5161 13.373 25.0079 14.0587C24.249 14.3353 23.5472 14.7489 22.9376 15.2787C22.5279 15.7451 22.2004 16.2777 21.969 16.8537C21.7386 17.2906 21.5575 17.7519 21.4292 18.2289C21.3131 18.8057 21.2906 19.3974 21.3627 19.9813Z" fill="#6A3400"/>
<path d="M28.535 27.2941C28.4322 27.16 28.2938 27.0576 28.1357 26.9983C27.6744 26.7831 27.1629 26.6987 26.6569 26.7543C26.3246 26.78 26.0006 26.8705 25.7031 27.0205C25.3971 27.1721 25.1008 27.3425 24.8158 27.5307C25.0643 27.286 25.3396 27.0703 25.6365 26.8874C25.9439 26.708 26.2875 26.5994 26.6421 26.5694C26.9951 26.5396 27.3504 26.585 27.6846 26.7025C27.8533 26.7573 28.0128 26.8371 28.1579 26.9391C28.3058 27.0353 28.4758 27.1314 28.535 27.2941Z" fill="#292D43"/>
<path d="M33.0453 27.1462C32.9787 26.9466 33.134 26.7617 33.2819 26.6434C33.4405 26.5322 33.6117 26.4404 33.7921 26.3698C34.1571 26.2272 34.5463 26.1569 34.9381 26.1628C35.3257 26.1648 35.7089 26.245 36.0647 26.3988C36.4204 26.5525 36.7414 26.7766 37.0084 27.0575C36.4135 26.5939 35.6848 26.3346 34.9308 26.3181C34.562 26.3026 34.1935 26.3552 33.8438 26.4734C33.6661 26.525 33.4949 26.5969 33.3336 26.6878C33.1932 26.8061 33.0157 26.9466 33.0453 27.1462Z" fill="#292D43"/>
<path d="M26.0801 27.3013C26.1904 27.3013 26.2798 27.2715 26.2798 27.2348C26.2798 27.198 26.1904 27.1682 26.0801 27.1682C25.9699 27.1682 25.8805 27.198 25.8805 27.2348C25.8805 27.2715 25.9699 27.3013 26.0801 27.3013Z" fill="#F0F3FC"/>
<path d="M34.28 26.9834C34.3902 26.9834 34.4796 26.9536 34.4796 26.9169C34.4796 26.8801 34.3902 26.8503 34.28 26.8503C34.1697 26.8503 34.0804 26.8801 34.0804 26.9169C34.0804 26.9536 34.1697 26.9834 34.28 26.9834Z" fill="#F0F3FC"/>
<path d="M32.6387 26.2958C32.5963 26.5747 32.5141 26.8461 32.3947 27.1017C32.2769 27.3537 32.1829 27.6161 32.1138 27.8855C32.0793 27.5976 32.1254 27.3058 32.2468 27.0426C32.3627 26.7862 32.4936 26.5368 32.6387 26.2958Z" fill="#292D43"/>
<path d="M34.1911 32.9652C33.5996 33.2979 32.3722 33.9486 31.6845 33.8377C31.3929 33.7938 31.0963 33.7938 30.8046 33.8377C30.6816 33.8534 30.5603 33.8806 30.4423 33.919C30.3314 33.9627 30.2139 33.9877 30.0948 33.993C29.9019 33.9893 29.7104 33.9595 29.5255 33.9043C29.1566 33.8164 28.8111 33.65 28.5125 33.4162C28.9269 33.771 29.3998 34.0512 29.91 34.2444C30.4795 34.4546 31.0955 34.5057 31.6919 34.3922C32.3204 34.3331 34.058 33.0391 34.1911 32.9652Z" fill="#6A3400"/>
<path d="M36.7347 18.1994C36.9617 17.9808 37.1252 17.7049 37.2079 17.4008C37.3114 17.1051 37.3336 16.7797 37.4297 16.4618C37.4926 16.791 37.4774 17.1303 37.3854 17.4526C37.3427 17.6192 37.2617 17.7736 37.1487 17.9032C37.0357 18.0329 36.8939 18.1343 36.7347 18.1994Z" fill="#4C1D00"/>
<path d="M30.1689 19.2715C29.8406 19.0264 29.5851 18.6967 29.4295 18.3177C29.241 17.9499 29.1302 17.5471 29.1042 17.1346C29.2669 17.5117 29.4073 17.874 29.5922 18.2364C29.674 18.4198 29.7679 18.5976 29.8732 18.7687C29.9492 18.9486 30.0486 19.1177 30.1689 19.2715Z" fill="#4C1D00"/>
<path d="M30.5313 19.0644C30.6707 18.8944 30.7396 18.6774 30.7236 18.4581V17.7927L30.7753 17.1198C30.7975 16.8985 30.7975 16.6756 30.7753 16.4543C30.923 16.8866 30.9686 17.3472 30.9084 17.8C30.9084 18.0219 30.9084 18.2437 30.8492 18.4729C30.8467 18.5896 30.8166 18.704 30.7613 18.8068C30.7061 18.9096 30.6272 18.9979 30.5313 19.0644Z" fill="#4C1D00"/>
<path d="M31.0194 19.1015C31.3527 18.7665 31.5703 18.3339 31.6405 17.8667C31.704 17.391 31.7411 16.9121 31.7514 16.4323C31.8756 16.9153 31.8982 17.4188 31.818 17.911C31.774 18.1714 31.6838 18.4218 31.5518 18.6504C31.4156 18.8436 31.2323 18.9988 31.0194 19.1015Z" fill="#4C1D00"/>
<path d="M24.3646 19.0129C24.0293 18.8723 23.7195 18.6775 23.4477 18.4361C23.1715 18.197 22.9388 17.9118 22.7601 17.5932V17.6302V17.5858C23.0484 17.8224 23.2924 18.0664 23.566 18.3252C23.8396 18.584 24.1058 18.7615 24.3646 19.0129Z" fill="#4C1D00"/>
<path d="M23.7657 19.7371C23.4276 19.6483 23.1108 19.4924 22.8341 19.2787C22.5414 19.0832 22.2901 18.832 22.0947 18.5393V18.6059V18.5393C22.3682 18.7463 22.6196 18.9756 22.8858 19.1752C23.152 19.3748 23.4847 19.5301 23.7657 19.7371Z" fill="#4C1D00"/>
<path d="M22.7898 22.5396C22.5486 22.4669 22.3311 22.3314 22.1595 22.1468C21.988 21.9623 21.8687 21.7355 21.8138 21.4896C22.1465 21.8667 22.4423 22.1847 22.7898 22.5396Z" fill="#4C1D00"/>
<path d="M38.1247 22.1922C38.4907 21.9449 38.772 21.5913 38.9307 21.1792C39.1081 20.7799 39.2191 20.3363 39.4039 19.9148V19.8483V19.9148C39.4074 19.9318 39.4069 19.9493 39.4025 19.966C39.398 19.9827 39.3897 19.9982 39.3782 20.0111C39.3667 20.024 39.3524 20.0341 39.3363 20.0405C39.3202 20.0469 39.3028 20.0494 39.2856 20.0479C39.2989 20.0465 39.3118 20.042 39.3232 20.0349C39.3346 20.0277 39.3442 20.0181 39.3513 20.0067C39.3584 19.9953 39.3629 19.9825 39.3643 19.9691C39.3657 19.9558 39.3641 19.9422 39.3596 19.9296H39.4039C39.3613 20.3911 39.2619 20.8455 39.1081 21.2827C39.0178 21.4952 38.8834 21.6861 38.7139 21.8428C38.5444 21.9996 38.3436 22.1186 38.1247 22.1922Z" fill="#4C1D00"/>
<path d="M38.4651 22.6727C38.5982 22.6727 38.6499 22.5396 38.7313 22.4509C38.8126 22.3622 38.8939 22.2513 38.9605 22.1478C39.027 22.0442 39.2562 21.7411 39.4337 21.5341C39.3865 21.8032 39.2749 22.0568 39.1084 22.2735C39.0249 22.3766 38.9334 22.473 38.8348 22.5618C38.7461 22.621 38.5982 22.7615 38.4651 22.6727Z" fill="#4C1D00"/>
<path d="M39.2413 24.2846C39.3596 24.2846 39.3966 24.1589 39.4557 24.0702C39.5149 23.9814 39.5667 23.8927 39.611 23.7966C39.6554 23.7005 39.7959 23.4195 39.9142 23.2198C39.9344 23.4507 39.8855 23.6823 39.7737 23.8853C39.7131 23.9826 39.6438 24.0741 39.5667 24.1589C39.4927 24.2402 39.367 24.3437 39.2413 24.2846Z" fill="#4C1D00"/>
<path d="M27.3741 14.251C27.1979 14.6108 27.1409 15.0174 27.2114 15.4118C27.2156 15.8047 27.2728 16.1952 27.3815 16.5727C27.622 17.3328 28.0287 18.0299 28.5719 18.6134C27.9262 18.1032 27.4494 17.41 27.204 16.6244C27.0974 16.2295 27.0526 15.8205 27.0709 15.4118C27.0269 15.0008 27.1347 14.588 27.3741 14.251Z" fill="#4C1D00"/>
<path d="M26.6421 14.2141C26.501 14.8502 26.5239 15.5117 26.7086 16.1365C26.8968 16.7644 27.1316 17.3773 27.4111 17.9703C27.0176 17.4312 26.72 16.8284 26.5312 16.1883C26.3369 15.5374 26.3761 14.8391 26.6421 14.2141Z" fill="#4C1D00"/>
<path d="M35.3375 13.4746C35.3511 13.7895 35.3008 14.1039 35.1897 14.3989C35.0868 14.6995 34.9451 14.9853 34.7682 15.2492C34.3998 15.7541 33.9674 16.2089 33.4817 16.6023C33.6665 16.3509 33.8588 16.1069 34.0584 15.8629C34.2644 15.633 34.45 15.3856 34.6129 15.1235C34.9658 14.6298 35.2125 14.0684 35.3375 13.4746Z" fill="#D29E54"/>
<path d="M35.7589 14.4283C35.6588 14.9352 35.4321 15.4085 35.0998 15.8041C34.7675 16.1997 34.3405 16.5048 33.8586 16.6909C34.6764 16.113 35.331 15.3336 35.7589 14.4283Z" fill="#D29E54"/>
<path d="M16.4604 57.2987C16.5121 58.5187 16.5269 59.7313 16.5417 60.9439V64.5818V68.2122L16.5861 71.8501C16.3609 70.6524 16.2054 69.4427 16.1203 68.227C16.0242 67.0144 15.9872 65.7944 15.9724 64.5818C15.9576 63.3692 15.9724 62.1492 16.0759 60.9366C16.1794 59.7239 16.2829 58.5039 16.4604 57.2987Z" fill="#B72A59"/>
<path d="M48.1069 59.613C48.166 60.7073 48.1882 61.7943 48.2104 62.8812C48.2326 63.9681 48.2622 65.055 48.277 66.1345L48.4248 72.6487V72.8039H48.2917C48.0488 72.7462 47.8015 72.7091 47.5523 72.693C47.306 72.7063 47.0592 72.7063 46.8129 72.693C47.0717 72.693 47.3231 72.6191 47.5523 72.5969C47.818 72.5747 48.0852 72.5747 48.3509 72.5969L48.2178 72.7226C47.9102 70.5599 47.757 68.3781 47.7594 66.1937C47.7594 65.1068 47.7594 63.9755 47.8407 62.9256C47.922 61.8756 47.9812 60.7 48.1069 59.613Z" fill="#B72A59"/>
</g>
</svg>
