<svg width="99" height="26" viewBox="0 0 99 26" fill="none" xmlns="http://www.w3.org/2000/svg">
<path d="M32.904 3.72658V7.47897H31.3265V3.80625C31.3265 2.56342 30.6971 1.8464 29.773 1.8464C28.9922 1.8464 28.2035 2.42798 28.1238 3.43977C28.1398 3.53537 28.1398 3.63894 28.1398 3.72658V7.47897H26.5623V3.80625C26.5623 2.56342 25.933 1.8464 25.0088 1.8464C24.1882 1.8464 23.3597 2.47578 23.3597 3.55927V7.48694H21.7822V0.635437H23.288V1.48789C23.8138 0.842575 24.5945 0.5 25.4071 0.5C26.4986 0.5 27.3192 1.04175 27.7653 1.93403C28.2672 1.00191 29.1914 0.5 30.1793 0.5C31.8762 0.5 32.9199 1.80656 32.9199 3.72658H32.904Z" fill="#FFFBFA"/>
<path d="M33.5652 4.08509C33.5652 2.12524 35.0152 0.5 37.0706 0.5C39.1261 0.5 40.576 2.02964 40.576 4.02135C40.576 6.01307 39.1261 7.62237 37.0706 7.62237C35.0152 7.62237 33.5652 6.0768 33.5652 4.09305V4.08509ZM38.9428 4.06119C38.9428 2.78649 38.1143 1.80656 37.0706 1.80656C36.0269 1.80656 35.1984 2.77852 35.1984 4.06119C35.1984 5.34385 36.0269 6.31581 37.0706 6.31581C38.1143 6.31581 38.9428 5.34385 38.9428 4.06119Z" fill="#FFFBFA"/>
<path d="M47.7223 3.67878V7.48694H46.1449V3.75845C46.1449 2.52358 45.5155 1.8464 44.5913 1.8464C43.7707 1.8464 42.9422 2.47578 42.9422 3.63894V7.48694H41.3647V0.635437H42.8705V1.48789C43.3883 0.842575 44.1452 0.5 44.9897 0.5C46.6866 0.5 47.7303 1.7508 47.7303 3.67878H47.7223Z" fill="#FFFBFA"/>
<path d="M36.7677 24.7194C36.1144 24.9982 35.3098 25.1815 34.5928 25.1815C33.0074 25.1815 31.8283 24.4644 31.3343 23.1977C30.0915 24.6238 28.2591 25.4922 26.116 25.4922C22.9771 25.4922 20.9615 23.9068 20.9615 21.2379C20.8977 14.9998 30.928 17.1987 30.928 14.3784C30.928 12.7054 29.6533 11.7414 27.7572 11.7414C26.0523 11.7414 24.7139 12.4265 23.9411 14.0996L21.1447 12.7611C22.4832 10.0285 24.8413 8.72192 27.8528 8.72192C32.2027 8.72192 34.5928 10.9845 34.5928 15.0556V21.206C34.5928 21.8911 34.9991 22.2019 35.493 22.2019C35.8356 22.2019 36.1145 22.1381 36.2658 22.0505L36.7598 24.7194H36.7677ZM30.928 19.0071V17.5492C28.5061 18.7283 24.6581 18.2981 24.6581 20.9033C24.6581 22.0823 25.5902 22.7675 26.9844 22.7675C29.1275 22.7675 30.928 21.1184 30.928 19.0071Z" fill="#FFFBFA"/>
<path d="M47.786 9.04053H51.4507L44.4 25.1814H42.1375L34.9673 9.04053H39.126L43.4122 19.8436L47.786 9.04053Z" fill="#FFFBFA"/>
<path d="M51.9446 4.26031C51.9446 2.86611 53.0281 1.68701 54.4302 1.68701C55.8324 1.68701 56.9159 2.86611 56.9159 4.26031C56.9159 5.65451 55.8324 6.86547 54.4302 6.86547C53.0281 6.86547 51.9446 5.65451 51.9446 4.26031ZM52.4067 25.1892V9.04042H56.167V25.1892H52.4067Z" fill="#FFFBFA"/>
<path d="M57.7764 22.2338L60.1346 20.1545C61.2818 21.9231 62.7716 22.8552 64.851 22.8552C66.7152 22.8552 67.8306 22.0824 67.7987 20.8954C67.7987 17.2944 58.358 20.1465 58.3261 13.7571C58.3261 10.8731 60.9313 8.72998 64.5323 8.72998C67.3605 8.72998 69.5913 9.75771 71.0173 12.084L68.4998 13.7571C67.3844 12.0203 66.293 11.3989 64.5562 11.3989C62.9389 11.3989 61.7598 12.1159 61.7598 13.295C61.7598 16.5853 71.2563 13.9483 71.2563 20.497C71.2563 23.5085 68.5874 25.4923 64.7713 25.4923C61.5447 25.4923 59.2104 24.3769 57.7525 22.2338H57.7764Z" fill="#FFFBFA"/>
<path d="M73.7978 19.6922V12.0839H71.3759V9.04053H73.9253V6.27603L77.5263 3.94971V9.04053H83.143V12.0839H77.5263V19.8117C77.5263 21.7397 78.5859 22.5125 79.7889 22.5125C80.9043 22.5125 81.8045 22.2655 82.8641 21.429L83.4218 24.2572C82.1152 25.1894 80.6573 25.5001 79.0719 25.5001C76.0923 25.5001 73.7978 23.6039 73.7978 19.6922Z" fill="#FFFBFA"/>
<path d="M98.782 16.0591C98.782 16.6486 98.7501 17.0868 98.6864 17.3338L98.4394 17.5808H87.1424C87.3257 20.7516 89.2536 22.4883 91.58 22.4883C93.1016 22.4883 94.464 21.8351 95.4917 20.0346L98.3438 21.5881C96.9178 24.1614 94.4002 25.4998 91.572 25.4998C86.3856 25.4998 83.3422 21.5562 83.3422 17.0231C83.3422 12.8006 86.6325 8.73755 91.4445 8.73755C95.2606 8.73755 98.774 11.7809 98.774 16.0671L98.782 16.0591ZM87.3894 15.1907H95.2128C94.8065 13.0476 93.2849 11.6853 91.4286 11.6853C89.4767 11.6853 87.955 13.0237 87.3894 15.1907Z" fill="#FFFBFA"/>
<path d="M0 13.6611C0 6.78571 4.58094 1.98169 11.0182 1.98169C15.0972 1.98169 18.4911 4.05307 19.8693 7.22388L16.5392 8.98456C15.5035 6.91318 13.7747 5.21623 10.9465 5.21623C6.98694 5.21623 3.97546 8.66588 3.97546 13.6611C3.97546 19.0308 7.17814 22.2334 10.9783 22.2334C13.456 22.2334 15.5035 21.1659 16.6268 18.6245L19.9888 20.3214C18.3556 23.5241 15.1848 25.4999 10.8827 25.4999C5.46527 25.4999 0 21.7873 0 13.6611Z" fill="#FFFBFA"/>
</svg>
